<svg width="1018" height="85" viewBox="0 0 1018 85" fill="none" xmlns="http://www.w3.org/2000/svg">
<g clip-path="url(#clip0_215_3620)">
<path fill-rule="evenodd" clip-rule="evenodd" d="M1017.5 18C1017.5 17.1716 1016.83 16.5 1016 16.5C1015.17 16.5 1014.5 17.1716 1014.5 18C1014.5 18.3837 1014.31 18.9359 1013.52 19.6682C1012.73 20.4039 1011.48 21.1896 1009.69 21.9977C1006.12 23.6099 1000.8 25.1587 993.9 26.6383C980.123 29.5922 960.387 32.2016 936.632 34.5792C889.235 39.3231 826.056 43.1237 762.801 46.929L762.41 46.9525C699.046 50.7644 635.637 54.5828 588.069 59.3605C564.293 61.7485 544.419 64.3814 530.469 67.3847C523.507 68.8837 517.935 70.4923 514.074 72.2463C512.147 73.1213 510.558 74.071 509.43 75.1266C509.28 75.2664 509.137 75.4103 509 75.5582C508.863 75.4103 508.72 75.2664 508.57 75.1266C507.442 74.071 505.853 73.1213 503.926 72.2463C500.065 70.4923 494.493 68.8837 487.531 67.3847C473.581 64.3814 453.707 61.7486 429.931 59.3605C382.363 54.5829 318.954 50.7644 255.59 46.9525L255.199 46.929C191.944 43.1237 128.765 39.3231 81.3681 34.5792C57.6128 32.2016 37.8771 29.5922 24.0996 26.6383C17.1983 25.1587 11.8771 23.6099 8.31189 21.9977C6.52478 21.1896 5.26666 20.4039 4.47675 19.6682C3.69049 18.9359 3.5 18.3837 3.5 18C3.5 17.1716 2.82843 16.5 2 16.5C1.17157 16.5 0.5 17.1716 0.5 18C0.5 19.5183 1.29974 20.8088 2.43207 21.8635C3.56073 22.9147 5.14954 23.8601 7.07581 24.7312C10.9373 26.4774 16.5087 28.079 23.4707 29.5717C37.4197 32.5623 57.2935 35.1846 81.0693 37.5643C128.526 42.3141 191.751 46.1175 254.967 49.9205L255.41 49.9471C318.796 53.7603 382.137 57.5752 429.631 62.3455C453.387 64.7314 473.122 67.3513 486.899 70.3175C493.8 71.8033 499.121 73.3587 502.686 74.9778C504.473 75.7893 505.731 76.5784 506.521 77.3175C507.307 78.0528 507.5 78.6096 507.5 79C507.5 79.1036 507.511 79.2047 507.531 79.3023C507.67 79.9857 508.275 80.4999 509 80.5C509 80.5 509 80.5 509 80.5C509.828 80.5 510.5 79.8286 510.5 79.0003C510.5 79.0002 510.5 79.0001 510.5 79C510.5 78.6096 510.693 78.0528 511.479 77.3175C512.269 76.5784 513.527 75.7893 515.314 74.9778C518.879 73.3587 524.2 71.8033 531.101 70.3175C544.878 67.3513 564.613 64.7314 588.369 62.3455C635.863 57.5752 699.204 53.7603 762.59 49.9471L763.033 49.9205C826.25 46.1175 889.474 42.3141 936.931 37.5643C960.707 35.1846 980.58 32.5623 994.529 29.5717C1001.49 28.079 1007.06 26.4774 1010.92 24.7312C1012.85 23.8602 1014.44 22.9147 1015.57 21.8635C1016.7 20.8088 1017.5 19.5183 1017.5 18Z" fill="#EE964B"/>
</g>
<defs>
<clipPath id="clip0_215_3620">
<rect width="85" height="1018" fill="white" transform="translate(1018) rotate(90)"/>
</clipPath>
</defs>
</svg>
