<svg width="1081" height="562" viewBox="0 0 1081 562" fill="none" xmlns="http://www.w3.org/2000/svg">
<g clip-path="url(#clip0_276_2490)">
<rect width="1079.34" height="561.203" transform="translate(0.671635)" fill="white"/>
<path d="M7.83947 534.094V527.581H1058.52V534.094" stroke="#7B7B7B" stroke-width="1.05596"/>
<path d="M7.83951 527.581V534.094" stroke="#7B7B7B" stroke-width="1.05596"/>
<path d="M7.67163 556.422C6.49455 556.422 5.49195 556.101 4.66382 555.461C3.8357 554.815 3.20288 553.88 2.76538 552.656C2.32788 551.427 2.10913 549.943 2.10913 548.203C2.10913 546.474 2.32788 544.997 2.76538 543.773C3.20809 542.544 3.84351 541.607 4.67163 540.961C5.50497 540.31 6.50497 539.984 7.67163 539.984C8.8383 539.984 9.8357 540.31 10.6638 540.961C11.4972 541.607 12.1326 542.544 12.5701 543.773C13.0128 544.997 13.2341 546.474 13.2341 548.203C13.2341 549.943 13.0154 551.427 12.5779 552.656C12.1404 553.88 11.5076 554.815 10.6794 555.461C9.85132 556.101 8.84872 556.422 7.67163 556.422ZM7.67163 554.703C8.8383 554.703 9.74455 554.14 10.3904 553.015C11.0362 551.89 11.3591 550.286 11.3591 548.203C11.3591 546.818 11.2107 545.638 10.9138 544.664C10.6222 543.69 10.2003 542.948 9.6482 542.437C9.10132 541.927 8.44247 541.672 7.67163 541.672C6.51538 541.672 5.61174 542.242 4.9607 543.383C4.30966 544.518 3.98413 546.125 3.98413 548.203C3.98413 549.588 4.12997 550.765 4.42163 551.734C4.7133 552.703 5.13257 553.44 5.67945 553.945C6.23153 554.45 6.89559 554.703 7.67163 554.703Z" fill="#7B7B7B"/>
<path d="M139.174 527.581V534.094" stroke="#7B7B7B" stroke-width="1.05596"/>
<path d="M270.509 527.581V534.094" stroke="#7B7B7B" stroke-width="1.05596"/>
<path d="M258.424 540.203V556.203H256.486V542.234H256.393L252.486 544.828V542.859L256.486 540.203H258.424ZM268.244 556.422C267.067 556.422 266.064 556.101 265.236 555.461C264.408 554.815 263.775 553.88 263.338 552.656C262.9 551.427 262.682 549.943 262.682 548.203C262.682 546.474 262.9 544.997 263.338 543.773C263.781 542.544 264.416 541.607 265.244 540.961C266.077 540.31 267.077 539.984 268.244 539.984C269.411 539.984 270.408 540.31 271.236 540.961C272.07 541.607 272.705 542.544 273.143 543.773C273.585 544.997 273.807 546.474 273.807 548.203C273.807 549.943 273.588 551.427 273.15 552.656C272.713 553.88 272.08 554.815 271.252 555.461C270.424 556.101 269.421 556.422 268.244 556.422ZM268.244 554.703C269.411 554.703 270.317 554.14 270.963 553.015C271.609 551.89 271.932 550.286 271.932 548.203C271.932 546.818 271.783 545.638 271.486 544.664C271.195 543.69 270.773 542.948 270.221 542.437C269.674 541.927 269.015 541.672 268.244 541.672C267.088 541.672 266.184 542.242 265.533 543.383C264.882 544.518 264.557 546.125 264.557 548.203C264.557 549.588 264.702 550.765 264.994 551.734C265.286 552.703 265.705 553.44 266.252 553.945C266.804 554.45 267.468 554.703 268.244 554.703ZM281.994 556.422C280.817 556.422 279.814 556.101 278.986 555.461C278.158 554.815 277.525 553.88 277.088 552.656C276.65 551.427 276.432 549.943 276.432 548.203C276.432 546.474 276.65 544.997 277.088 543.773C277.531 542.544 278.166 541.607 278.994 540.961C279.827 540.31 280.827 539.984 281.994 539.984C283.161 539.984 284.158 540.31 284.986 540.961C285.82 541.607 286.455 542.544 286.893 543.773C287.335 544.997 287.557 546.474 287.557 548.203C287.557 549.943 287.338 551.427 286.9 552.656C286.463 553.88 285.83 554.815 285.002 555.461C284.174 556.101 283.171 556.422 281.994 556.422ZM281.994 554.703C283.161 554.703 284.067 554.14 284.713 553.015C285.359 551.89 285.682 550.286 285.682 548.203C285.682 546.818 285.533 545.638 285.236 544.664C284.945 543.69 284.523 542.948 283.971 542.437C283.424 541.927 282.765 541.672 281.994 541.672C280.838 541.672 279.934 542.242 279.283 543.383C278.632 544.518 278.307 546.125 278.307 548.203C278.307 549.588 278.452 550.765 278.744 551.734C279.036 552.703 279.455 553.44 280.002 553.945C280.554 554.45 281.218 554.703 281.994 554.703Z" fill="#7B7B7B"/>
<path d="M401.844 527.581V534.094" stroke="#7B7B7B" stroke-width="1.05596"/>
<path d="M533.179 527.581V534.094" stroke="#7B7B7B" stroke-width="1.05596"/>
<path d="M515.422 556.203V554.797L520.703 549.015C521.323 548.338 521.833 547.75 522.234 547.25C522.635 546.745 522.932 546.271 523.125 545.828C523.323 545.38 523.422 544.911 523.422 544.422C523.422 543.859 523.286 543.372 523.016 542.961C522.75 542.549 522.385 542.232 521.922 542.008C521.458 541.784 520.938 541.672 520.359 541.672C519.745 541.672 519.208 541.799 518.75 542.055C518.297 542.305 517.945 542.656 517.695 543.109C517.451 543.562 517.328 544.094 517.328 544.703H515.484C515.484 543.765 515.701 542.943 516.133 542.234C516.565 541.526 517.154 540.974 517.898 540.578C518.648 540.182 519.49 539.984 520.422 539.984C521.359 539.984 522.19 540.182 522.914 540.578C523.638 540.974 524.206 541.508 524.617 542.18C525.029 542.851 525.234 543.599 525.234 544.422C525.234 545.01 525.128 545.586 524.914 546.148C524.706 546.706 524.341 547.328 523.82 548.015C523.305 548.698 522.589 549.531 521.672 550.515L518.078 554.359V554.484H525.516V556.203H515.422ZM533.961 556.422C532.784 556.422 531.781 556.101 530.953 555.461C530.125 554.815 529.492 553.88 529.055 552.656C528.617 551.427 528.398 549.943 528.398 548.203C528.398 546.474 528.617 544.997 529.055 543.773C529.497 542.544 530.133 541.607 530.961 540.961C531.794 540.31 532.794 539.984 533.961 539.984C535.128 539.984 536.125 540.31 536.953 540.961C537.786 541.607 538.422 542.544 538.859 543.773C539.302 544.997 539.523 546.474 539.523 548.203C539.523 549.943 539.305 551.427 538.867 552.656C538.43 553.88 537.797 554.815 536.969 555.461C536.141 556.101 535.138 556.422 533.961 556.422ZM533.961 554.703C535.128 554.703 536.034 554.14 536.68 553.015C537.326 551.89 537.648 550.286 537.648 548.203C537.648 546.818 537.5 545.638 537.203 544.664C536.911 543.69 536.49 542.948 535.938 542.437C535.391 541.927 534.732 541.672 533.961 541.672C532.805 541.672 531.901 542.242 531.25 543.383C530.599 544.518 530.273 546.125 530.273 548.203C530.273 549.588 530.419 550.765 530.711 551.734C531.003 552.703 531.422 553.44 531.969 553.945C532.521 554.45 533.185 554.703 533.961 554.703ZM547.711 556.422C546.534 556.422 545.531 556.101 544.703 555.461C543.875 554.815 543.242 553.88 542.805 552.656C542.367 551.427 542.148 549.943 542.148 548.203C542.148 546.474 542.367 544.997 542.805 543.773C543.247 542.544 543.883 541.607 544.711 540.961C545.544 540.31 546.544 539.984 547.711 539.984C548.878 539.984 549.875 540.31 550.703 540.961C551.536 541.607 552.172 542.544 552.609 543.773C553.052 544.997 553.273 546.474 553.273 548.203C553.273 549.943 553.055 551.427 552.617 552.656C552.18 553.88 551.547 554.815 550.719 555.461C549.891 556.101 548.888 556.422 547.711 556.422ZM547.711 554.703C548.878 554.703 549.784 554.14 550.43 553.015C551.076 551.89 551.398 550.286 551.398 548.203C551.398 546.818 551.25 545.638 550.953 544.664C550.661 543.69 550.24 542.948 549.688 542.437C549.141 541.927 548.482 541.672 547.711 541.672C546.555 541.672 545.651 542.242 545 543.383C544.349 544.518 544.023 546.125 544.023 548.203C544.023 549.588 544.169 550.765 544.461 551.734C544.753 552.703 545.172 553.44 545.719 553.945C546.271 554.45 546.935 554.703 547.711 554.703Z" fill="#7B7B7B"/>
<path d="M664.514 527.581V534.094" stroke="#7B7B7B" stroke-width="1.05596"/>
<path d="M795.849 527.581V534.094" stroke="#7B7B7B" stroke-width="1.05596"/>
<path d="M782.654 556.422C781.623 556.422 780.704 556.245 779.897 555.89C779.095 555.536 778.457 555.044 777.983 554.414C777.514 553.778 777.259 553.041 777.217 552.203H779.186C779.227 552.719 779.404 553.164 779.717 553.539C780.029 553.909 780.438 554.195 780.943 554.398C781.449 554.601 782.009 554.703 782.623 554.703C783.311 554.703 783.92 554.583 784.451 554.344C784.983 554.104 785.399 553.771 785.701 553.344C786.003 552.916 786.154 552.422 786.154 551.859C786.154 551.271 786.009 550.752 785.717 550.305C785.425 549.851 784.998 549.497 784.436 549.242C783.873 548.987 783.186 548.859 782.373 548.859H781.092V547.14H782.373C783.009 547.14 783.566 547.026 784.045 546.797C784.529 546.568 784.907 546.245 785.178 545.828C785.454 545.411 785.592 544.922 785.592 544.359C785.592 543.818 785.472 543.346 785.233 542.945C784.993 542.544 784.654 542.232 784.217 542.008C783.785 541.784 783.274 541.672 782.686 541.672C782.134 541.672 781.613 541.773 781.123 541.976C780.639 542.174 780.243 542.463 779.936 542.844C779.628 543.219 779.462 543.672 779.436 544.203H777.561C777.592 543.364 777.845 542.63 778.318 542C778.792 541.364 779.412 540.87 780.178 540.515C780.949 540.161 781.795 539.984 782.717 539.984C783.707 539.984 784.555 540.185 785.264 540.586C785.972 540.982 786.516 541.505 786.897 542.156C787.277 542.807 787.467 543.51 787.467 544.265C787.467 545.166 787.23 545.935 786.756 546.57C786.287 547.206 785.649 547.646 784.842 547.89V548.015C785.852 548.182 786.641 548.612 787.209 549.305C787.777 549.992 788.061 550.844 788.061 551.859C788.061 552.729 787.824 553.51 787.35 554.203C786.881 554.89 786.24 555.432 785.428 555.828C784.615 556.224 783.691 556.422 782.654 556.422ZM796.475 556.422C795.298 556.422 794.295 556.101 793.467 555.461C792.639 554.815 792.006 553.88 791.568 552.656C791.131 551.427 790.912 549.943 790.912 548.203C790.912 546.474 791.131 544.997 791.568 543.773C792.011 542.544 792.647 541.607 793.475 540.961C794.308 540.31 795.308 539.984 796.475 539.984C797.641 539.984 798.639 540.31 799.467 540.961C800.3 541.607 800.936 542.544 801.373 543.773C801.816 544.997 802.037 546.474 802.037 548.203C802.037 549.943 801.818 551.427 801.381 552.656C800.943 553.88 800.311 554.815 799.483 555.461C798.654 556.101 797.652 556.422 796.475 556.422ZM796.475 554.703C797.641 554.703 798.548 554.14 799.193 553.015C799.839 551.89 800.162 550.286 800.162 548.203C800.162 546.818 800.014 545.638 799.717 544.664C799.425 543.69 799.003 542.948 798.451 542.437C797.904 541.927 797.246 541.672 796.475 541.672C795.318 541.672 794.415 542.242 793.764 543.383C793.113 544.518 792.787 546.125 792.787 548.203C792.787 549.588 792.933 550.765 793.225 551.734C793.516 552.703 793.936 553.44 794.483 553.945C795.035 554.45 795.699 554.703 796.475 554.703ZM810.225 556.422C809.048 556.422 808.045 556.101 807.217 555.461C806.389 554.815 805.756 553.88 805.318 552.656C804.881 551.427 804.662 549.943 804.662 548.203C804.662 546.474 804.881 544.997 805.318 543.773C805.761 542.544 806.397 541.607 807.225 540.961C808.058 540.31 809.058 539.984 810.225 539.984C811.391 539.984 812.389 540.31 813.217 540.961C814.05 541.607 814.686 542.544 815.123 543.773C815.566 544.997 815.787 546.474 815.787 548.203C815.787 549.943 815.568 551.427 815.131 552.656C814.693 553.88 814.061 554.815 813.233 555.461C812.404 556.101 811.402 556.422 810.225 556.422ZM810.225 554.703C811.391 554.703 812.298 554.14 812.943 553.015C813.589 551.89 813.912 550.286 813.912 548.203C813.912 546.818 813.764 545.638 813.467 544.664C813.175 543.69 812.753 542.948 812.201 542.437C811.654 541.927 810.996 541.672 810.225 541.672C809.068 541.672 808.165 542.242 807.514 543.383C806.863 544.518 806.537 546.125 806.537 548.203C806.537 549.588 806.683 550.765 806.975 551.734C807.266 552.703 807.686 553.44 808.233 553.945C808.785 554.45 809.449 554.703 810.225 554.703Z" fill="#7B7B7B"/>
<path d="M927.184 527.581V534.094" stroke="#7B7B7B" stroke-width="1.05596"/>
<path d="M1058.52 527.581V534.094" stroke="#7B7B7B" stroke-width="1.05596"/>
<path d="M1039.49 552.922V551.328L1046.52 540.203H1047.68V542.672H1046.9L1041.58 551.078V551.203H1051.05V552.922H1039.49ZM1047.02 556.203V552.437V551.695V540.203H1048.86V556.203H1047.02ZM1059.2 556.422C1058.02 556.422 1057.02 556.101 1056.19 555.461C1055.36 554.815 1054.73 553.88 1054.29 552.656C1053.85 551.427 1053.64 549.943 1053.64 548.203C1053.64 546.474 1053.85 544.997 1054.29 543.773C1054.73 542.544 1055.37 541.607 1056.2 540.961C1057.03 540.31 1058.03 539.984 1059.2 539.984C1060.37 539.984 1061.36 540.31 1062.19 540.961C1063.02 541.607 1063.66 542.544 1064.1 543.773C1064.54 544.997 1064.76 546.474 1064.76 548.203C1064.76 549.943 1064.54 551.427 1064.1 552.656C1063.67 553.88 1063.03 554.815 1062.21 555.461C1061.38 556.101 1060.38 556.422 1059.2 556.422ZM1059.2 554.703C1060.37 554.703 1061.27 554.14 1061.92 553.015C1062.56 551.89 1062.89 550.286 1062.89 548.203C1062.89 546.818 1062.74 545.638 1062.44 544.664C1062.15 543.69 1061.73 542.948 1061.17 542.437C1060.63 541.927 1059.97 541.672 1059.2 541.672C1058.04 541.672 1057.14 542.242 1056.49 543.383C1055.84 544.518 1055.51 546.125 1055.51 548.203C1055.51 549.588 1055.66 550.765 1055.95 551.734C1056.24 552.703 1056.66 553.44 1057.21 553.945C1057.76 554.45 1058.42 554.703 1059.2 554.703ZM1072.95 556.422C1071.77 556.422 1070.77 556.101 1069.94 555.461C1069.11 554.815 1068.48 553.88 1068.04 552.656C1067.6 551.427 1067.39 549.943 1067.39 548.203C1067.39 546.474 1067.6 544.997 1068.04 543.773C1068.48 542.544 1069.12 541.607 1069.95 540.961C1070.78 540.31 1071.78 539.984 1072.95 539.984C1074.12 539.984 1075.11 540.31 1075.94 540.961C1076.77 541.607 1077.41 542.544 1077.85 543.773C1078.29 544.997 1078.51 546.474 1078.51 548.203C1078.51 549.943 1078.29 551.427 1077.85 552.656C1077.42 553.88 1076.78 554.815 1075.96 555.461C1075.13 556.101 1074.13 556.422 1072.95 556.422ZM1072.95 554.703C1074.12 554.703 1075.02 554.14 1075.67 553.015C1076.31 551.89 1076.64 550.286 1076.64 548.203C1076.64 546.818 1076.49 545.638 1076.19 544.664C1075.9 543.69 1075.48 542.948 1074.92 542.437C1074.38 541.927 1073.72 541.672 1072.95 541.672C1071.79 541.672 1070.89 542.242 1070.24 543.383C1069.59 544.518 1069.26 546.125 1069.26 548.203C1069.26 549.588 1069.41 550.765 1069.7 551.734C1069.99 552.703 1070.41 553.44 1070.96 553.945C1071.51 554.45 1072.17 554.703 1072.95 554.703Z" fill="#7B7B7B"/>
<path d="M948.08 516.301V500.553H958.876V503.217H951.26V506.945H957.834V509.609H951.26V516.301H948.08ZM964.376 516.301H961.357V504.893H964.161V506.515C964.641 505.749 965.071 505.244 965.45 505C965.837 504.757 966.274 504.635 966.761 504.635C967.448 504.635 968.111 504.825 968.748 505.204L967.813 507.836C967.305 507.507 966.832 507.342 966.396 507.342C965.973 507.342 965.615 507.46 965.321 507.697C965.028 507.926 964.795 508.345 964.623 508.953C964.458 509.562 964.376 510.837 964.376 512.778V516.301ZM976.665 512.67L979.673 513.175C979.286 514.278 978.674 515.12 977.836 515.7C977.005 516.273 975.963 516.559 974.71 516.559C972.726 516.559 971.258 515.911 970.306 514.615C969.554 513.576 969.178 512.266 969.178 510.683C969.178 508.792 969.672 507.314 970.66 506.246C971.648 505.172 972.898 504.635 974.409 504.635C976.106 504.635 977.446 505.197 978.427 506.322C979.408 507.439 979.877 509.154 979.834 511.467H972.271C972.293 512.362 972.536 513.061 973.002 513.562C973.467 514.056 974.048 514.303 974.742 514.303C975.215 514.303 975.612 514.174 975.935 513.916C976.257 513.659 976.5 513.243 976.665 512.67ZM976.837 509.62C976.815 508.746 976.59 508.083 976.16 507.632C975.73 507.174 975.208 506.945 974.592 506.945C973.933 506.945 973.389 507.185 972.959 507.664C972.529 508.144 972.318 508.796 972.325 509.62H976.837ZM989.76 520.641V514.905C989.366 515.413 988.875 515.818 988.288 516.119C987.701 516.412 987.067 516.559 986.387 516.559C985.09 516.559 984.023 516.072 983.186 515.098C982.197 513.959 981.703 512.416 981.703 510.468C981.703 508.635 982.165 507.206 983.089 506.182C984.02 505.151 985.173 504.635 986.548 504.635C987.307 504.635 987.962 504.796 988.514 505.119C989.072 505.441 989.566 505.928 989.996 506.579V504.893H992.778V520.641H989.76ZM989.856 510.457C989.856 509.29 989.617 508.424 989.137 507.858C988.664 507.285 988.07 506.998 987.354 506.998C986.623 506.998 986.011 507.288 985.517 507.869C985.03 508.449 984.786 509.369 984.786 510.629C984.786 511.883 985.022 512.788 985.495 513.347C985.968 513.898 986.551 514.174 987.246 514.174C987.941 514.174 988.549 513.863 989.072 513.24C989.595 512.617 989.856 511.689 989.856 510.457ZM1003.26 516.301V514.593C1002.85 515.202 1002.3 515.682 1001.62 516.033C1000.95 516.384 1000.23 516.559 999.481 516.559C998.715 516.559 998.028 516.391 997.419 516.054C996.81 515.717 996.37 515.245 996.098 514.636C995.826 514.027 995.689 513.186 995.689 512.112V504.893H998.708V510.135C998.708 511.739 998.762 512.724 998.869 513.089C998.984 513.447 999.188 513.734 999.481 513.949C999.775 514.156 1000.15 514.26 1000.6 514.26C1001.11 514.26 1001.58 514.12 1001.98 513.841C1002.39 513.555 1002.67 513.204 1002.82 512.788C1002.97 512.366 1003.05 511.338 1003.05 509.705V504.893H1006.07V516.301H1003.26ZM1015.81 512.67L1018.82 513.175C1018.43 514.278 1017.82 515.12 1016.98 515.7C1016.15 516.273 1015.11 516.559 1013.85 516.559C1011.87 516.559 1010.4 515.911 1009.45 514.615C1008.7 513.576 1008.32 512.266 1008.32 510.683C1008.32 508.792 1008.82 507.314 1009.8 506.246C1010.79 505.172 1012.04 504.635 1013.55 504.635C1015.25 504.635 1016.59 505.197 1017.57 506.322C1018.55 507.439 1019.02 509.154 1018.98 511.467H1011.42C1011.44 512.362 1011.68 513.061 1012.15 513.562C1012.61 514.056 1013.19 514.303 1013.89 514.303C1014.36 514.303 1014.76 514.174 1015.08 513.916C1015.4 513.659 1015.64 513.243 1015.81 512.67ZM1015.98 509.62C1015.96 508.746 1015.73 508.083 1015.3 507.632C1014.88 507.174 1014.35 506.945 1013.74 506.945C1013.08 506.945 1012.53 507.185 1012.1 507.664C1011.67 508.144 1011.46 508.796 1011.47 509.62H1015.98ZM1031.83 516.301H1028.81V510.479C1028.81 509.247 1028.74 508.452 1028.61 508.094C1028.49 507.729 1028.27 507.446 1027.98 507.245C1027.69 507.045 1027.35 506.945 1026.94 506.945C1026.42 506.945 1025.95 507.088 1025.53 507.374C1025.12 507.661 1024.83 508.04 1024.67 508.513C1024.52 508.986 1024.45 509.859 1024.45 511.134V516.301H1021.43V504.893H1024.23V506.569C1025.23 505.28 1026.48 504.635 1027.99 504.635C1028.66 504.635 1029.27 504.757 1029.82 505C1030.37 505.237 1030.78 505.541 1031.06 505.913C1031.35 506.286 1031.55 506.708 1031.65 507.181C1031.77 507.654 1031.83 508.33 1031.83 509.211V516.301ZM1044.85 508.266L1041.87 508.803C1041.77 508.209 1041.54 507.761 1041.18 507.46C1040.83 507.16 1040.37 507.009 1039.81 507.009C1039.06 507.009 1038.45 507.271 1038 507.793C1037.56 508.309 1037.34 509.175 1037.34 510.393C1037.34 511.746 1037.56 512.703 1038.01 513.261C1038.47 513.82 1039.08 514.099 1039.85 514.099C1040.42 514.099 1040.89 513.938 1041.26 513.616C1041.62 513.286 1041.88 512.724 1042.03 511.929L1045 512.434C1044.69 513.795 1044.1 514.822 1043.22 515.517C1042.35 516.212 1041.18 516.559 1039.71 516.559C1038.04 516.559 1036.71 516.033 1035.71 514.98C1034.73 513.927 1034.23 512.47 1034.23 510.608C1034.23 508.724 1034.73 507.26 1035.73 506.214C1036.72 505.161 1038.07 504.635 1039.76 504.635C1041.15 504.635 1042.26 504.936 1043.07 505.537C1043.9 506.132 1044.49 507.041 1044.85 508.266ZM1045.72 504.893H1048.93L1051.66 512.993L1054.32 504.893H1057.45L1053.42 515.871L1052.7 517.859C1052.43 518.525 1052.18 519.033 1051.94 519.384C1051.7 519.735 1051.42 520.018 1051.11 520.233C1050.8 520.455 1050.42 520.627 1049.96 520.748C1049.51 520.87 1049 520.931 1048.42 520.931C1047.84 520.931 1047.27 520.87 1046.71 520.748L1046.45 518.385C1046.92 518.478 1047.35 518.525 1047.72 518.525C1048.43 518.525 1048.95 518.317 1049.28 517.902C1049.62 517.494 1049.88 516.971 1050.06 516.333L1045.72 504.893Z" fill="#7B7B7B"/>
<path d="M7.83943 13.0266V525.953" stroke="#7B7B7B" stroke-width="1.05596"/>
<path d="M7.83946 147.636H1058.52" stroke="#CCCCCC" stroke-width="1.05596"/>
<path d="M6.7835 271.98H1057.46" stroke="#CCCCCC" stroke-width="1.05596"/>
<path d="M7.83943 396.229H1058.52" stroke="#CCCCCC" stroke-width="1.05596"/>
<path d="M20.6875 182.5V166H22.4687V167.906H22.6875C22.8229 167.698 23.0104 167.432 23.25 167.109C23.4948 166.781 23.8438 166.49 24.2969 166.234C24.7552 165.974 25.375 165.844 26.1563 165.844C27.1667 165.844 28.0573 166.096 28.8281 166.602C29.599 167.107 30.2005 167.823 30.6328 168.75C31.0651 169.677 31.2812 170.771 31.2812 172.031C31.2812 173.302 31.0651 174.404 30.6328 175.336C30.2005 176.263 29.6016 176.982 28.8359 177.492C28.0703 177.997 27.1875 178.25 26.1875 178.25C25.4167 178.25 24.7995 178.122 24.3359 177.867C23.8724 177.607 23.5156 177.312 23.2656 176.984C23.0156 176.651 22.8229 176.375 22.6875 176.156H22.5313V182.5H20.6875ZM22.5 172C22.5 172.906 22.6328 173.706 22.8984 174.398C23.1641 175.086 23.5521 175.625 24.0625 176.016C24.5729 176.401 25.1979 176.594 25.9375 176.594C26.7083 176.594 27.3516 176.391 27.8672 175.984C28.388 175.573 28.7786 175.021 29.0391 174.328C29.3047 173.63 29.4375 172.854 29.4375 172C29.4375 171.156 29.3073 170.396 29.0469 169.719C28.7917 169.036 28.4036 168.497 27.8828 168.102C27.3672 167.701 26.7188 167.5 25.9375 167.5C25.1875 167.5 24.5573 167.69 24.0469 168.07C23.5365 168.445 23.151 168.971 22.8906 169.648C22.6302 170.32 22.5 171.104 22.5 172ZM38.9688 178.25C37.8854 178.25 36.9349 177.992 36.1172 177.477C35.3047 176.961 34.6693 176.24 34.2109 175.312C33.7578 174.385 33.5313 173.302 33.5313 172.062C33.5313 170.812 33.7578 169.721 34.2109 168.789C34.6693 167.857 35.3047 167.133 36.1172 166.617C36.9349 166.102 37.8854 165.844 38.9688 165.844C40.0521 165.844 41 166.102 41.8125 166.617C42.6302 167.133 43.2656 167.857 43.7188 168.789C44.1771 169.721 44.4063 170.812 44.4063 172.062C44.4063 173.302 44.1771 174.385 43.7188 175.312C43.2656 176.24 42.6302 176.961 41.8125 177.477C41 177.992 40.0521 178.25 38.9688 178.25ZM38.9688 176.594C39.7917 176.594 40.4687 176.383 41 175.961C41.5313 175.539 41.9245 174.984 42.1797 174.297C42.4349 173.609 42.5625 172.865 42.5625 172.062C42.5625 171.26 42.4349 170.513 42.1797 169.82C41.9245 169.128 41.5313 168.568 41 168.141C40.4687 167.714 39.7917 167.5 38.9688 167.5C38.1458 167.5 37.4688 167.714 36.9375 168.141C36.4063 168.568 36.013 169.128 35.7578 169.82C35.5026 170.513 35.375 171.26 35.375 172.062C35.375 172.865 35.5026 173.609 35.7578 174.297C36.013 174.984 36.4063 175.539 36.9375 175.961C37.4688 176.383 38.1458 176.594 38.9688 176.594ZM55.7207 168.687L54.0645 169.156C53.9603 168.88 53.8066 168.612 53.6035 168.352C53.4056 168.086 53.1348 167.867 52.791 167.695C52.4473 167.523 52.0072 167.437 51.4707 167.437C50.7363 167.437 50.1243 167.607 49.6348 167.945C49.1504 168.279 48.9082 168.703 48.9082 169.219C48.9082 169.677 49.0749 170.039 49.4082 170.305C49.7415 170.57 50.2624 170.792 50.9707 170.969L52.752 171.406C53.8249 171.667 54.6243 172.065 55.1504 172.602C55.6764 173.133 55.9395 173.818 55.9395 174.656C55.9395 175.344 55.7415 175.958 55.3457 176.5C54.9551 177.042 54.4082 177.469 53.7051 177.781C53.002 178.094 52.1842 178.25 51.252 178.25C50.028 178.25 49.015 177.984 48.2129 177.453C47.4108 176.922 46.903 176.146 46.6895 175.125L48.4395 174.687C48.6061 175.333 48.9212 175.818 49.3848 176.141C49.8535 176.464 50.4655 176.625 51.2207 176.625C52.0801 176.625 52.7624 176.443 53.2676 176.078C53.778 175.708 54.0332 175.266 54.0332 174.75C54.0332 174.333 53.8874 173.984 53.5957 173.703C53.304 173.417 52.8561 173.203 52.252 173.062L50.252 172.594C49.153 172.333 48.3457 171.93 47.8301 171.383C47.3197 170.831 47.0645 170.141 47.0645 169.312C47.0645 168.635 47.2546 168.036 47.6348 167.516C48.0202 166.995 48.5436 166.586 49.2051 166.289C49.8717 165.992 50.627 165.844 51.4707 165.844C52.6582 165.844 53.5905 166.104 54.2676 166.625C54.9499 167.146 55.4342 167.833 55.7207 168.687ZM58.7148 178V166H60.5586V178H58.7148ZM59.6523 164C59.293 164 58.9831 163.878 58.7227 163.633C58.4674 163.388 58.3398 163.094 58.3398 162.75C58.3398 162.406 58.4674 162.112 58.7227 161.867C58.9831 161.622 59.293 161.5 59.6523 161.5C60.0117 161.5 60.319 161.622 60.5742 161.867C60.8346 162.112 60.9648 162.406 60.9648 162.75C60.9648 163.094 60.8346 163.388 60.5742 163.633C60.319 163.878 60.0117 164 59.6523 164ZM69.1543 166V167.562H62.9355V166H69.1543ZM64.748 163.125H66.5918V174.562C66.5918 175.083 66.6673 175.474 66.8184 175.734C66.9746 175.99 67.1725 176.161 67.4121 176.25C67.6569 176.333 67.9147 176.375 68.1855 176.375C68.3887 176.375 68.5553 176.365 68.6855 176.344C68.8158 176.318 68.9199 176.297 68.998 176.281L69.373 177.937C69.248 177.984 69.0736 178.031 68.8496 178.078C68.6257 178.13 68.3418 178.156 67.998 178.156C67.4772 178.156 66.9668 178.044 66.4668 177.82C65.972 177.596 65.5605 177.255 65.2324 176.797C64.9095 176.339 64.748 175.76 64.748 175.062V163.125ZM71.9277 178V166H73.7715V178H71.9277ZM72.8652 164C72.5059 164 72.196 163.878 71.9355 163.633C71.6803 163.388 71.5527 163.094 71.5527 162.75C71.5527 162.406 71.6803 162.112 71.9355 161.867C72.196 161.622 72.5059 161.5 72.8652 161.5C73.2246 161.5 73.5319 161.622 73.7871 161.867C74.0475 162.112 74.1777 162.406 74.1777 162.75C74.1777 163.094 74.0475 163.388 73.7871 163.633C73.5319 163.878 73.2246 164 72.8652 164ZM86.9609 166L82.5234 178H80.6484L76.2109 166H78.2109L81.5234 175.562H81.6484L84.9609 166H86.9609ZM93.9961 178.25C92.8398 178.25 91.8424 177.995 91.0039 177.484C90.1706 176.969 89.5273 176.25 89.0742 175.328C88.6263 174.401 88.4023 173.323 88.4023 172.094C88.4023 170.865 88.6263 169.781 89.0742 168.844C89.5273 167.901 90.1576 167.167 90.9648 166.641C91.7773 166.109 92.7253 165.844 93.8086 165.844C94.4336 165.844 95.0508 165.948 95.6602 166.156C96.2695 166.365 96.8242 166.703 97.3242 167.172C97.8242 167.635 98.2227 168.25 98.5195 169.016C98.8164 169.781 98.9648 170.724 98.9648 171.844V172.625H89.7148V171.031H97.0898C97.0898 170.354 96.9544 169.75 96.6836 169.219C96.418 168.687 96.0378 168.268 95.543 167.961C95.0534 167.654 94.4753 167.5 93.8086 167.5C93.0742 167.5 92.4388 167.682 91.9023 168.047C91.3711 168.406 90.9622 168.875 90.6758 169.453C90.3893 170.031 90.2461 170.651 90.2461 171.312V172.375C90.2461 173.281 90.4023 174.049 90.7148 174.68C91.0326 175.305 91.4727 175.781 92.0352 176.109C92.5977 176.432 93.2513 176.594 93.9961 176.594C94.4805 176.594 94.918 176.526 95.3086 176.391C95.7044 176.25 96.0456 176.042 96.332 175.766C96.6185 175.484 96.8398 175.135 96.9961 174.719L98.7773 175.219C98.5898 175.823 98.2747 176.354 97.832 176.812C97.3893 177.266 96.8424 177.62 96.1914 177.875C95.5404 178.125 94.8086 178.25 93.9961 178.25Z" fill="#7B7B7B"/>
<path d="M22.5313 301.781V309H20.6875V297H22.4687V298.875H22.625C22.9063 298.266 23.3333 297.776 23.9063 297.406C24.4792 297.031 25.2188 296.844 26.125 296.844C26.9375 296.844 27.6484 297.01 28.2578 297.344C28.8672 297.672 29.3411 298.172 29.6797 298.844C30.0182 299.51 30.1875 300.354 30.1875 301.375V309H28.3438V301.5C28.3438 300.557 28.099 299.823 27.6094 299.297C27.1198 298.766 26.4479 298.5 25.5937 298.5C25.0052 298.5 24.4792 298.628 24.0156 298.883C23.5573 299.138 23.1953 299.51 22.9297 300C22.6641 300.49 22.5313 301.083 22.5313 301.781ZM38.5879 309.25C37.4316 309.25 36.4342 308.995 35.5957 308.484C34.7624 307.969 34.1191 307.25 33.666 306.328C33.2181 305.401 32.9941 304.323 32.9941 303.094C32.9941 301.865 33.2181 300.781 33.666 299.844C34.1191 298.901 34.7493 298.167 35.5566 297.641C36.3691 297.109 37.3171 296.844 38.4004 296.844C39.0254 296.844 39.6426 296.948 40.252 297.156C40.8613 297.365 41.416 297.703 41.916 298.172C42.416 298.635 42.8145 299.25 43.1113 300.016C43.4082 300.781 43.5566 301.724 43.5566 302.844V303.625H34.3066V302.031H41.6816C41.6816 301.354 41.5462 300.75 41.2754 300.219C41.0098 299.687 40.6296 299.268 40.1348 298.961C39.6452 298.654 39.0671 298.5 38.4004 298.5C37.666 298.5 37.0306 298.682 36.4941 299.047C35.9629 299.406 35.554 299.875 35.2676 300.453C34.9811 301.031 34.8379 301.651 34.8379 302.312V303.375C34.8379 304.281 34.9941 305.049 35.3066 305.68C35.6243 306.305 36.0645 306.781 36.627 307.109C37.1895 307.432 37.8431 307.594 38.5879 307.594C39.0723 307.594 39.5098 307.526 39.9004 307.391C40.2962 307.25 40.6374 307.042 40.9238 306.766C41.2103 306.484 41.4316 306.135 41.5879 305.719L43.3691 306.219C43.1816 306.823 42.8665 307.354 42.4238 307.812C41.9811 308.266 41.4342 308.62 40.7832 308.875C40.1322 309.125 39.4004 309.25 38.5879 309.25ZM53.9238 304.094V297H55.7676V309H53.9238V306.969H53.7988C53.5176 307.578 53.0801 308.096 52.4863 308.523C51.8926 308.945 51.1426 309.156 50.2363 309.156C49.4863 309.156 48.8197 308.992 48.2363 308.664C47.653 308.331 47.1947 307.831 46.8613 307.164C46.528 306.492 46.3613 305.646 46.3613 304.625V297H48.2051V304.5C48.2051 305.375 48.4499 306.073 48.9395 306.594C49.4342 307.115 50.0645 307.375 50.8301 307.375C51.2884 307.375 51.7546 307.258 52.2285 307.023C52.7077 306.789 53.1087 306.43 53.4316 305.945C53.7598 305.461 53.9238 304.844 53.9238 304.094ZM64.3633 297V298.562H58.1445V297H64.3633ZM59.957 294.125H61.8008V305.562C61.8008 306.083 61.8763 306.474 62.0273 306.734C62.1836 306.99 62.3815 307.161 62.6211 307.25C62.8659 307.333 63.1237 307.375 63.3945 307.375C63.5977 307.375 63.7643 307.365 63.8945 307.344C64.0247 307.318 64.1289 307.297 64.207 307.281L64.582 308.937C64.457 308.984 64.2826 309.031 64.0586 309.078C63.8346 309.13 63.5508 309.156 63.207 309.156C62.6862 309.156 62.1758 309.044 61.6758 308.82C61.181 308.596 60.7695 308.255 60.4414 307.797C60.1185 307.339 59.957 306.76 59.957 306.062V294.125ZM67.1367 309V297H68.918V298.812H69.043C69.2617 298.219 69.6576 297.737 70.2305 297.367C70.8034 296.997 71.4492 296.812 72.168 296.812C72.3034 296.812 72.4727 296.815 72.6758 296.82C72.8789 296.826 73.0326 296.833 73.1367 296.844V298.719C73.0742 298.703 72.931 298.68 72.707 298.648C72.4883 298.612 72.2565 298.594 72.0117 298.594C71.4284 298.594 70.9076 298.716 70.4492 298.961C69.9961 299.201 69.6367 299.534 69.3711 299.961C69.1107 300.383 68.9805 300.865 68.9805 301.406V309H67.1367ZM78.8535 309.281C78.0931 309.281 77.403 309.138 76.7832 308.852C76.1634 308.56 75.6712 308.141 75.3066 307.594C74.9421 307.042 74.7598 306.375 74.7598 305.594C74.7598 304.906 74.8952 304.349 75.166 303.922C75.4368 303.49 75.7988 303.151 76.252 302.906C76.7051 302.661 77.2051 302.479 77.752 302.359C78.304 302.234 78.8587 302.135 79.416 302.063C80.1452 301.969 80.7363 301.898 81.1895 301.852C81.6478 301.799 81.9811 301.714 82.1895 301.594C82.403 301.474 82.5098 301.266 82.5098 300.969V300.906C82.5098 300.135 82.2988 299.536 81.877 299.109C81.4603 298.682 80.8275 298.469 79.9785 298.469C79.0983 298.469 78.4082 298.661 77.9082 299.047C77.4082 299.432 77.0566 299.844 76.8535 300.281L75.1035 299.656C75.416 298.927 75.8327 298.359 76.3535 297.953C76.8796 297.542 77.4525 297.255 78.0723 297.094C78.6973 296.927 79.3118 296.844 79.916 296.844C80.3014 296.844 80.7441 296.891 81.2441 296.984C81.7493 297.073 82.2363 297.258 82.7051 297.539C83.179 297.82 83.5723 298.245 83.8848 298.812C84.1973 299.38 84.3535 300.141 84.3535 301.094V309H82.5098V307.375H82.416C82.291 307.635 82.0827 307.914 81.791 308.211C81.4993 308.508 81.1113 308.76 80.627 308.969C80.1426 309.177 79.5514 309.281 78.8535 309.281ZM79.1348 307.625C79.8639 307.625 80.4785 307.482 80.9785 307.195C81.4837 306.909 81.8639 306.539 82.1191 306.086C82.3796 305.633 82.5098 305.156 82.5098 304.656V302.969C82.4316 303.062 82.2598 303.148 81.9941 303.227C81.7337 303.299 81.4316 303.365 81.0879 303.422C80.7493 303.474 80.4186 303.521 80.0957 303.562C79.778 303.599 79.5202 303.63 79.3223 303.656C78.8431 303.719 78.3952 303.82 77.9785 303.961C77.5671 304.096 77.2337 304.302 76.9785 304.578C76.7285 304.849 76.6035 305.219 76.6035 305.687C76.6035 306.328 76.8405 306.812 77.3145 307.141C77.7936 307.464 78.4004 307.625 79.1348 307.625ZM89.5625 293V309H87.7188V293H89.5625Z" fill="#7B7B7B"/>
<path d="M22.5313 426.781V434H20.6875V422H22.4687V423.875H22.625C22.9063 423.266 23.3333 422.776 23.9063 422.406C24.4792 422.031 25.2188 421.844 26.125 421.844C26.9375 421.844 27.6484 422.01 28.2578 422.344C28.8672 422.672 29.3411 423.172 29.6797 423.844C30.0182 424.51 30.1875 425.354 30.1875 426.375V434H28.3438V426.5C28.3438 425.557 28.099 424.823 27.6094 424.297C27.1198 423.766 26.4479 423.5 25.5937 423.5C25.0052 423.5 24.4792 423.628 24.0156 423.883C23.5573 424.138 23.1953 424.51 22.9297 425C22.6641 425.49 22.5313 426.083 22.5313 426.781ZM38.5879 434.25C37.4316 434.25 36.4342 433.995 35.5957 433.484C34.7624 432.969 34.1191 432.25 33.666 431.328C33.2181 430.401 32.9941 429.323 32.9941 428.094C32.9941 426.865 33.2181 425.781 33.666 424.844C34.1191 423.901 34.7493 423.167 35.5566 422.641C36.3691 422.109 37.3171 421.844 38.4004 421.844C39.0254 421.844 39.6426 421.948 40.252 422.156C40.8613 422.365 41.416 422.703 41.916 423.172C42.416 423.635 42.8145 424.25 43.1113 425.016C43.4082 425.781 43.5566 426.724 43.5566 427.844V428.625H34.3066V427.031H41.6816C41.6816 426.354 41.5462 425.75 41.2754 425.219C41.0098 424.687 40.6296 424.268 40.1348 423.961C39.6452 423.654 39.0671 423.5 38.4004 423.5C37.666 423.5 37.0306 423.682 36.4941 424.047C35.9629 424.406 35.554 424.875 35.2676 425.453C34.9811 426.031 34.8379 426.651 34.8379 427.312V428.375C34.8379 429.281 34.9941 430.049 35.3066 430.68C35.6243 431.305 36.0645 431.781 36.627 432.109C37.1895 432.432 37.8431 432.594 38.5879 432.594C39.0723 432.594 39.5098 432.526 39.9004 432.391C40.2962 432.25 40.6374 432.042 40.9238 431.766C41.2103 431.484 41.4316 431.135 41.5879 430.719L43.3691 431.219C43.1816 431.823 42.8665 432.354 42.4238 432.812C41.9811 433.266 41.4342 433.62 40.7832 433.875C40.1322 434.125 39.4004 434.25 38.5879 434.25ZM51.2051 438.75C50.3145 438.75 49.5488 438.635 48.9082 438.406C48.2676 438.182 47.7337 437.885 47.3066 437.516C46.8848 437.151 46.5488 436.76 46.2988 436.344L47.7676 435.313C47.9342 435.531 48.1452 435.781 48.4004 436.062C48.6556 436.349 49.0046 436.596 49.4473 436.805C49.8952 437.018 50.4811 437.125 51.2051 437.125C52.1738 437.125 52.9733 436.891 53.6035 436.422C54.2337 435.953 54.5488 435.219 54.5488 434.219V431.781H54.3926C54.2572 432 54.0645 432.271 53.8145 432.594C53.5697 432.911 53.2155 433.195 52.752 433.445C52.2936 433.69 51.6738 433.812 50.8926 433.812C49.9238 433.812 49.054 433.583 48.2832 433.125C47.5176 432.667 46.9108 432 46.4629 431.125C46.0202 430.25 45.7988 429.187 45.7988 427.937C45.7988 426.708 46.015 425.638 46.4473 424.727C46.8796 423.81 47.4811 423.102 48.252 422.602C49.0228 422.096 49.9134 421.844 50.9238 421.844C51.7051 421.844 52.3249 421.974 52.7832 422.234C53.2467 422.49 53.6009 422.781 53.8457 423.109C54.0957 423.432 54.2884 423.698 54.4238 423.906H54.6113V422H56.3926V434.344C56.3926 435.375 56.1582 436.214 55.6895 436.859C55.2259 437.51 54.6009 437.987 53.8145 438.289C53.0332 438.596 52.1634 438.75 51.2051 438.75ZM51.1426 432.156C51.8822 432.156 52.5072 431.987 53.0176 431.648C53.528 431.31 53.916 430.823 54.1816 430.188C54.4473 429.552 54.5801 428.792 54.5801 427.906C54.5801 427.042 54.4499 426.279 54.1895 425.617C53.929 424.956 53.5436 424.437 53.0332 424.062C52.5228 423.687 51.8926 423.5 51.1426 423.5C50.3613 423.5 49.7103 423.698 49.1895 424.094C48.6738 424.49 48.2858 425.021 48.0254 425.688C47.7702 426.354 47.6426 427.094 47.6426 427.906C47.6426 428.74 47.7728 429.477 48.0332 430.117C48.2988 430.753 48.6895 431.253 49.2051 431.617C49.7259 431.977 50.3717 432.156 51.1426 432.156ZM63.2988 434.281C62.5384 434.281 61.8483 434.138 61.2285 433.852C60.6087 433.56 60.1165 433.141 59.752 432.594C59.3874 432.042 59.2051 431.375 59.2051 430.594C59.2051 429.906 59.3405 429.349 59.6113 428.922C59.8822 428.49 60.2441 428.151 60.6973 427.906C61.1504 427.661 61.6504 427.479 62.1973 427.359C62.7493 427.234 63.304 427.135 63.8613 427.063C64.5905 426.969 65.1816 426.898 65.6348 426.852C66.0931 426.799 66.4264 426.714 66.6348 426.594C66.8483 426.474 66.9551 426.266 66.9551 425.969V425.906C66.9551 425.135 66.7441 424.536 66.3223 424.109C65.9056 423.682 65.2728 423.469 64.4238 423.469C63.5436 423.469 62.8535 423.661 62.3535 424.047C61.8535 424.432 61.502 424.844 61.2988 425.281L59.5488 424.656C59.8613 423.927 60.278 423.359 60.7988 422.953C61.3249 422.542 61.8978 422.255 62.5176 422.094C63.1426 421.927 63.7572 421.844 64.3613 421.844C64.7467 421.844 65.1895 421.891 65.6895 421.984C66.1947 422.073 66.6816 422.258 67.1504 422.539C67.6243 422.82 68.0176 423.245 68.3301 423.812C68.6426 424.38 68.7988 425.141 68.7988 426.094V434H66.9551V432.375H66.8613C66.7363 432.635 66.528 432.914 66.2363 433.211C65.9447 433.508 65.5566 433.76 65.0723 433.969C64.5879 434.177 63.9967 434.281 63.2988 434.281ZM63.5801 432.625C64.3092 432.625 64.9238 432.482 65.4238 432.195C65.929 431.909 66.3092 431.539 66.5645 431.086C66.8249 430.633 66.9551 430.156 66.9551 429.656V427.969C66.877 428.062 66.7051 428.148 66.4395 428.227C66.179 428.299 65.877 428.365 65.5332 428.422C65.1947 428.474 64.8639 428.521 64.541 428.562C64.2233 428.599 63.9655 428.63 63.7676 428.656C63.2884 428.719 62.8405 428.82 62.4238 428.961C62.0124 429.096 61.679 429.302 61.4238 429.578C61.1738 429.849 61.0488 430.219 61.0488 430.687C61.0488 431.328 61.2858 431.812 61.7598 432.141C62.2389 432.464 62.8457 432.625 63.5801 432.625ZM77.3828 422V423.562H71.1641V422H77.3828ZM72.9766 419.125H74.8203V430.562C74.8203 431.083 74.8958 431.474 75.0469 431.734C75.2031 431.99 75.401 432.161 75.6406 432.25C75.8854 432.333 76.1432 432.375 76.4141 432.375C76.6172 432.375 76.7839 432.365 76.9141 432.344C77.0443 432.318 77.1484 432.297 77.2266 432.281L77.6016 433.937C77.4766 433.984 77.3021 434.031 77.0781 434.078C76.8542 434.13 76.5703 434.156 76.2266 434.156C75.7057 434.156 75.1953 434.044 74.6953 433.82C74.2005 433.596 73.7891 433.255 73.4609 432.797C73.138 432.339 72.9766 431.76 72.9766 431.062V419.125ZM80.1563 434V422H82V434H80.1563ZM81.0938 420C80.7344 420 80.4245 419.878 80.1641 419.633C79.9089 419.388 79.7813 419.094 79.7813 418.75C79.7813 418.406 79.9089 418.112 80.1641 417.867C80.4245 417.622 80.7344 417.5 81.0938 417.5C81.4531 417.5 81.7604 417.622 82.0156 417.867C82.276 418.112 82.4063 418.406 82.4063 418.75C82.4063 419.094 82.276 419.388 82.0156 419.633C81.7604 419.878 81.4531 420 81.0938 420ZM95.1895 422L90.752 434H88.877L84.4395 422H86.4395L89.752 431.562H89.877L93.1895 422H95.1895ZM102.225 434.25C101.068 434.25 100.071 433.995 99.2324 433.484C98.3991 432.969 97.7559 432.25 97.3027 431.328C96.8548 430.401 96.6309 429.323 96.6309 428.094C96.6309 426.865 96.8548 425.781 97.3027 424.844C97.7559 423.901 98.3861 423.167 99.1934 422.641C100.006 422.109 100.954 421.844 102.037 421.844C102.662 421.844 103.279 421.948 103.889 422.156C104.498 422.365 105.053 422.703 105.553 423.172C106.053 423.635 106.451 424.25 106.748 425.016C107.045 425.781 107.193 426.724 107.193 427.844V428.625H97.9434V427.031H105.318C105.318 426.354 105.183 425.75 104.912 425.219C104.646 424.687 104.266 424.268 103.771 423.961C103.282 423.654 102.704 423.5 102.037 423.5C101.303 423.5 100.667 423.682 100.131 424.047C99.5996 424.406 99.1908 424.875 98.9043 425.453C98.6178 426.031 98.4746 426.651 98.4746 427.312V428.375C98.4746 429.281 98.6309 430.049 98.9434 430.68C99.2611 431.305 99.7012 431.781 100.264 432.109C100.826 432.432 101.48 432.594 102.225 432.594C102.709 432.594 103.146 432.526 103.537 432.391C103.933 432.25 104.274 432.042 104.561 431.766C104.847 431.484 105.068 431.135 105.225 430.719L107.006 431.219C106.818 431.823 106.503 432.354 106.061 432.812C105.618 433.266 105.071 433.62 104.42 433.875C103.769 434.125 103.037 434.25 102.225 434.25Z" fill="#7B7B7B"/>
<path d="M23.74 14.21L26.823 15.1875C26.3504 16.9062 25.5626 18.1846 24.4598 19.0225C23.3641 19.8532 21.9711 20.2686 20.281 20.2686C18.1899 20.2686 16.4711 19.556 15.1248 18.1309C13.7784 16.6986 13.1053 14.7435 13.1053 12.2656C13.1053 9.64453 13.782 7.61068 15.1355 6.16406C16.4891 4.71029 18.2687 3.9834 20.4744 3.9834C22.4008 3.9834 23.9656 4.55273 25.1687 5.69141C25.8849 6.36458 26.422 7.33138 26.7801 8.5918L23.6326 9.34375C23.4464 8.52734 23.0561 7.88281 22.4617 7.41016C21.8745 6.9375 21.1583 6.70117 20.3133 6.70117C19.146 6.70117 18.1971 7.12012 17.4666 7.95801C16.7433 8.7959 16.3816 10.153 16.3816 12.0293C16.3816 14.0202 16.7397 15.4382 17.4558 16.2832C18.172 17.1283 19.103 17.5508 20.2488 17.5508C21.0939 17.5508 21.8208 17.2822 22.4295 16.7451C23.0382 16.208 23.4751 15.363 23.74 14.21ZM29.5408 20V4.25195H32.5594V20H29.5408ZM43.1726 20V18.292C42.7573 18.9007 42.2094 19.3805 41.5291 19.7314C40.8559 20.0824 40.1433 20.2578 39.3914 20.2578C38.6251 20.2578 37.9376 20.0895 37.3289 19.7529C36.7202 19.4163 36.2797 18.9437 36.0076 18.335C35.7355 17.7262 35.5994 16.8848 35.5994 15.8105V8.5918H38.618V13.834C38.618 15.4382 38.6717 16.4229 38.7791 16.7881C38.8937 17.1462 39.0978 17.4326 39.3914 17.6475C39.685 17.8551 40.0574 17.959 40.5086 17.959C41.0242 17.959 41.4861 17.8193 41.8943 17.54C42.3025 17.2536 42.5818 16.9027 42.7322 16.4873C42.8826 16.0648 42.9578 15.0371 42.9578 13.4043V8.5918H45.9764V20H43.1726ZM48.0496 16.7451L51.0789 16.2832C51.2078 16.8704 51.4692 17.318 51.8631 17.626C52.257 17.9268 52.8084 18.0771 53.5174 18.0771C54.298 18.0771 54.8852 17.9339 55.2791 17.6475C55.5441 17.4469 55.6766 17.1784 55.6766 16.8418C55.6766 16.6126 55.6049 16.4229 55.4617 16.2725C55.3113 16.1292 54.9747 15.9967 54.4519 15.875C52.017 15.3379 50.4738 14.8473 49.8221 14.4033C48.9197 13.7874 48.4685 12.9316 48.4685 11.8359C48.4685 10.8477 48.8588 10.0169 49.6394 9.34375C50.42 8.67057 51.6303 8.33398 53.2703 8.33398C54.8315 8.33398 55.9917 8.58822 56.7508 9.09668C57.5099 9.60514 58.0327 10.3571 58.3191 11.3525L55.4725 11.8789C55.3507 11.4349 55.118 11.0947 54.7742 10.8584C54.4376 10.6221 53.9542 10.5039 53.324 10.5039C52.5291 10.5039 51.9598 10.6149 51.616 10.8369C51.3868 10.9945 51.2723 11.1986 51.2723 11.4492C51.2723 11.6641 51.3725 11.8467 51.573 11.9971C51.8452 12.1976 52.7833 12.4805 54.3875 12.8457C55.9988 13.2109 57.1232 13.6585 57.7605 14.1885C58.3907 14.7256 58.7058 15.474 58.7058 16.4336C58.7058 17.4792 58.269 18.3779 57.3953 19.1299C56.5216 19.8818 55.229 20.2578 53.5174 20.2578C51.9633 20.2578 50.7316 19.9427 49.8221 19.3125C48.9197 18.6823 48.3289 17.8265 48.0496 16.7451ZM66.5906 8.5918V10.998H64.5281V15.5957C64.5281 16.5267 64.546 17.071 64.5818 17.2285C64.6248 17.3789 64.7143 17.5042 64.8504 17.6045C64.9936 17.7048 65.1655 17.7549 65.366 17.7549C65.6453 17.7549 66.0499 17.6582 66.5799 17.4648L66.8377 19.8066C66.1359 20.1074 65.3409 20.2578 64.4529 20.2578C63.9086 20.2578 63.4181 20.1683 62.9812 19.9893C62.5444 19.8031 62.2221 19.5667 62.0144 19.2803C61.8139 18.9867 61.6743 18.5928 61.5955 18.0986C61.531 17.7477 61.4988 17.0387 61.4988 15.9717V10.998H60.1131V8.5918H61.4988V6.3252L64.5281 4.56348V8.5918H66.5906ZM75.2918 16.3691L78.2996 16.874C77.9129 17.9769 77.3006 18.8184 76.4627 19.3984C75.632 19.9714 74.59 20.2578 73.3367 20.2578C71.353 20.2578 69.8849 19.6097 68.9324 18.3135C68.1805 17.2751 67.8045 15.9645 67.8045 14.3818C67.8045 12.4912 68.2986 11.0124 69.2869 9.94531C70.2752 8.87109 71.5249 8.33398 73.0359 8.33398C74.7332 8.33398 76.0724 8.89616 77.0535 10.0205C78.0346 11.1377 78.5037 12.8529 78.4607 15.166H70.8982C70.9197 16.0612 71.1632 16.7594 71.6287 17.2607C72.0942 17.7549 72.6743 18.002 73.3689 18.002C73.8416 18.002 74.2391 17.873 74.5613 17.6152C74.8836 17.3574 75.1271 16.9421 75.2918 16.3691ZM75.4637 13.3184C75.4422 12.4447 75.2166 11.7822 74.7869 11.3311C74.3572 10.8727 73.8344 10.6436 73.2185 10.6436C72.5597 10.6436 72.0154 10.8835 71.5857 11.3633C71.156 11.8431 70.9448 12.4948 70.9519 13.3184H75.4637ZM83.8211 20H80.8025V8.5918H83.6062V10.2139C84.0861 9.44759 84.5157 8.94271 84.8953 8.69922C85.282 8.45573 85.7189 8.33398 86.2058 8.33398C86.8933 8.33398 87.5558 8.52376 88.1932 8.90332L87.2586 11.5352C86.7501 11.2057 86.2775 11.041 85.8406 11.041C85.4181 11.041 85.06 11.1592 84.7664 11.3955C84.4728 11.6247 84.24 12.0436 84.0682 12.6523C83.9034 13.2611 83.8211 14.5358 83.8211 16.4766V20ZM88.4402 16.7451L91.4695 16.2832C91.5984 16.8704 91.8598 17.318 92.2537 17.626C92.6476 17.9268 93.199 18.0771 93.908 18.0771C94.6886 18.0771 95.2758 17.9339 95.6697 17.6475C95.9347 17.4469 96.0672 17.1784 96.0672 16.8418C96.0672 16.6126 95.9956 16.4229 95.8523 16.2725C95.7019 16.1292 95.3654 15.9967 94.8426 15.875C92.4077 15.3379 90.8644 14.8473 90.2127 14.4033C89.3103 13.7874 88.8592 12.9316 88.8592 11.8359C88.8592 10.8477 89.2495 10.0169 90.0301 9.34375C90.8107 8.67057 92.021 8.33398 93.6609 8.33398C95.2221 8.33398 96.3823 8.58822 97.1414 9.09668C97.9005 9.60514 98.4233 10.3571 98.7098 11.3525L95.8631 11.8789C95.7413 11.4349 95.5086 11.0947 95.1648 10.8584C94.8282 10.6221 94.3448 10.5039 93.7146 10.5039C92.9197 10.5039 92.3504 10.6149 92.0066 10.8369C91.7775 10.9945 91.6629 11.1986 91.6629 11.4492C91.6629 11.6641 91.7631 11.8467 91.9637 11.9971C92.2358 12.1976 93.1739 12.4805 94.7781 12.8457C96.3894 13.2109 97.5138 13.6585 98.1512 14.1885C98.7814 14.7256 99.0965 15.474 99.0965 16.4336C99.0965 17.4792 98.6596 18.3779 97.7859 19.1299C96.9122 19.8818 95.6196 20.2578 93.908 20.2578C92.354 20.2578 91.1222 19.9427 90.2127 19.3125C89.3103 18.6823 88.7195 17.8265 88.4402 16.7451Z" fill="#7B7B7B"/>
<path d="M639.818 293.21C650.64 293.21 659.412 284.192 659.412 273.068C659.412 261.943 650.64 252.925 639.818 252.925C628.997 252.925 620.225 261.943 620.225 273.068C620.225 284.192 628.997 293.21 639.818 293.21Z" fill="#9DCFFE"/>
<path d="M493.232 289.222C501.911 289.222 508.947 281.989 508.947 273.067C508.947 264.145 501.911 256.913 493.232 256.913C484.554 256.913 477.518 264.145 477.518 273.067C477.518 281.989 484.554 289.222 493.232 289.222Z" fill="#9DCFFE"/>
<path d="M460.273 288.625C468.631 288.625 475.406 281.66 475.406 273.067C475.406 264.475 468.631 257.51 460.273 257.51C451.915 257.51 445.139 264.475 445.139 273.067C445.139 281.66 451.915 288.625 460.273 288.625Z" fill="#9DCFFE"/>
<path d="M684.472 294.286C695.871 294.286 705.112 284.786 705.112 273.067C705.112 261.349 695.871 251.849 684.472 251.849C673.073 251.849 663.833 261.349 663.833 273.067C663.833 284.786 673.073 294.286 684.472 294.286Z" fill="#9DCFFE"/>
<path d="M345.65 285.237C352.188 285.237 357.488 279.788 357.488 273.067C357.488 266.347 352.188 260.898 345.65 260.898C339.113 260.898 333.813 266.347 333.813 273.067C333.813 279.788 339.113 285.237 345.65 285.237Z" fill="#9DCFFE"/>
<path d="M277.936 282.183C282.828 282.183 286.795 278.106 286.795 273.076C286.795 268.046 282.828 263.968 277.936 263.968C273.043 263.968 269.076 268.046 269.076 273.076C269.076 278.106 273.043 282.183 277.936 282.183Z" fill="#9DCFFE"/>
<path d="M258.202 282.066C263.041 282.066 266.964 278.033 266.964 273.058C266.964 268.084 263.041 264.051 258.202 264.051C253.363 264.051 249.44 268.084 249.44 273.058C249.44 278.033 253.363 282.066 258.202 282.066Z" fill="#9DCFFE"/>
<path d="M238.754 283.323C242.868 283.323 246.202 279.895 246.202 275.667C246.202 271.438 242.868 268.01 238.754 268.01C234.641 268.01 231.307 271.438 231.307 275.667C231.307 279.895 234.641 283.323 238.754 283.323Z" fill="#9DCFFE"/>
<path d="M224.253 274.618C228.132 274.618 231.277 271.385 231.277 267.398C231.277 263.41 228.132 260.177 224.253 260.177C220.374 260.177 217.229 263.41 217.229 267.398C217.229 271.385 220.374 274.618 224.253 274.618Z" fill="#9DCFFE"/>
<path d="M216.189 288.536C219.949 288.536 222.997 285.403 222.997 281.538C222.997 277.672 219.949 274.539 216.189 274.539C212.429 274.539 209.381 277.672 209.381 281.538C209.381 285.403 212.429 288.536 216.189 288.536Z" fill="#9DCFFE"/>
<path d="M208.31 274.543C212.07 274.543 215.118 271.41 215.118 267.545C215.118 263.679 212.07 260.546 208.31 260.546C204.55 260.546 201.502 263.679 201.502 267.545C201.502 271.41 204.55 274.543 208.31 274.543Z" fill="#9DCFFE"/>
<path d="M371.605 285.409C378.235 285.409 383.61 279.884 383.61 273.068C383.61 266.251 378.235 260.726 371.605 260.726C364.975 260.726 359.6 266.251 359.6 273.068C359.6 279.884 364.975 285.409 371.605 285.409Z" fill="#9DCFFE"/>
<path d="M177.519 278.304C180.333 278.304 182.613 275.96 182.613 273.067C182.613 270.175 180.333 267.831 177.519 267.831C174.706 267.831 172.425 270.175 172.425 273.067C172.425 275.96 174.706 278.304 177.519 278.304Z" fill="#9DCFFE"/>
<path d="M162.959 277.375C165.293 277.375 167.185 275.43 167.185 273.03C167.185 270.631 165.293 268.686 162.959 268.686C160.625 268.686 158.733 270.631 158.733 273.03C158.733 275.43 160.625 277.375 162.959 277.375Z" fill="#9DCFFE"/>
<path d="M152.523 277.333C154.786 277.333 156.621 275.447 156.621 273.12C156.621 270.793 154.786 268.907 152.523 268.907C150.259 268.907 148.425 270.793 148.425 273.12C148.425 275.447 150.259 277.333 152.523 277.333Z" fill="#9DCFFE"/>
<path d="M137.831 279.813C139.656 279.813 141.135 278.292 141.135 276.415C141.135 274.539 139.656 273.018 137.831 273.018C136.006 273.018 134.526 274.539 134.526 276.415C134.526 278.292 136.006 279.813 137.831 279.813Z" fill="#9DCFFE"/>
<path d="M143.609 273.097C145.434 273.097 146.914 271.576 146.914 269.7C146.914 267.824 145.434 266.303 143.609 266.303C141.784 266.303 140.304 267.824 140.304 269.7C140.304 271.576 141.784 273.097 143.609 273.097Z" fill="#9DCFFE"/>
<path d="M902.976 424.71C917.042 424.71 928.445 412.988 928.445 398.528C928.445 384.068 917.042 372.346 902.976 372.346C888.911 372.346 877.508 384.068 877.508 398.528C877.508 412.988 888.911 424.71 902.976 424.71Z" fill="#9DCFFE"/>
<path d="M579.892 417.357C590.007 417.357 598.207 408.927 598.207 398.528C598.207 388.13 590.007 379.7 579.892 379.7C569.777 379.7 561.577 388.13 561.577 398.528C561.577 408.927 569.777 417.357 579.892 417.357Z" fill="#9DCFFE"/>
<path d="M539.438 415.769C548.701 415.769 556.209 408.05 556.209 398.528C556.209 389.007 548.701 381.288 539.438 381.288C530.176 381.288 522.668 389.007 522.668 398.528C522.668 408.05 530.176 415.769 539.438 415.769Z" fill="#9DCFFE"/>
<path d="M503.856 415.698C513.079 415.698 520.557 408.011 520.557 398.528C520.557 389.046 513.079 381.359 503.856 381.359C494.632 381.359 487.154 389.046 487.154 398.528C487.154 408.011 494.632 415.698 503.856 415.698Z" fill="#9DCFFE"/>
<path d="M469.4 414.609C478.039 414.609 485.042 407.409 485.042 398.528C485.042 389.647 478.039 382.447 469.4 382.447C460.761 382.447 453.757 389.647 453.757 398.528C453.757 407.409 460.761 414.609 469.4 414.609Z" fill="#9DCFFE"/>
<path d="M301.462 409.082C307.132 409.082 311.728 404.357 311.728 398.528C311.728 392.7 307.132 387.975 301.462 387.975C295.793 387.975 291.197 392.7 291.197 398.528C291.197 404.357 295.793 409.082 301.462 409.082Z" fill="#9DCFFE"/>
<path d="M243.675 406.924C248.185 406.924 251.842 403.165 251.842 398.528C251.842 393.891 248.185 390.133 243.675 390.133C239.165 390.133 235.508 393.891 235.508 398.528C235.508 403.165 239.165 406.924 243.675 406.924Z" fill="#9DCFFE"/>
<path d="M214.785 405.749C218.664 405.749 221.808 402.516 221.808 398.528C221.808 394.54 218.664 391.308 214.785 391.308C210.905 391.308 207.761 394.54 207.761 398.528C207.761 402.516 210.905 405.749 214.785 405.749Z" fill="#9DCFFE"/>
<path d="M199.024 405.075C202.54 405.075 205.391 402.144 205.391 398.528C205.391 394.913 202.54 391.982 199.024 391.982C195.507 391.982 192.656 394.913 192.656 398.528C192.656 402.144 195.507 405.075 199.024 405.075Z" fill="#9DCFFE"/>
<path d="M184.15 402.109C187.161 402.109 189.601 399.6 189.601 396.505C189.601 393.41 187.161 390.901 184.15 390.901C181.139 390.901 178.699 393.41 178.699 396.505C178.699 399.6 181.139 402.109 184.15 402.109Z" fill="#9DCFFE"/>
<path d="M173.15 408.908C176.095 408.908 178.483 406.453 178.483 403.425C178.483 400.397 176.095 397.943 173.15 397.943C170.205 397.943 167.817 400.397 167.817 403.425C167.817 406.453 170.205 408.908 173.15 408.908Z" fill="#9DCFFE"/>
<path d="M173.053 395.771C175.732 395.771 177.904 393.538 177.904 390.784C177.904 388.03 175.732 385.797 173.053 385.797C170.374 385.797 168.202 388.03 168.202 390.784C168.202 393.538 170.374 395.771 173.053 395.771Z" fill="#9DCFFE"/>
<path d="M161.961 413.029C164.504 413.029 166.565 410.909 166.565 408.295C166.565 405.681 164.504 403.562 161.961 403.562C159.418 403.562 157.357 405.681 157.357 408.295C157.357 410.909 159.418 413.029 161.961 413.029Z" fill="#9DCFFE"/>
<path d="M163.026 401.442C165.569 401.442 167.63 399.323 167.63 396.709C167.63 394.095 165.569 391.976 163.026 391.976C160.483 391.976 158.422 394.095 158.422 396.709C158.422 399.323 160.483 401.442 163.026 401.442Z" fill="#9DCFFE"/>
<path d="M153.629 394.952C156.172 394.952 158.233 392.833 158.233 390.219C158.233 387.605 156.172 385.485 153.629 385.485C151.086 385.485 149.025 387.605 149.025 390.219C149.025 392.833 151.086 394.952 153.629 394.952Z" fill="#9DCFFE"/>
<path d="M153.023 406.057C155.428 406.057 157.377 404.053 157.377 401.581C157.377 399.11 155.428 397.106 153.023 397.106C150.619 397.106 148.67 399.11 148.67 401.581C148.67 404.053 150.619 406.057 153.023 406.057Z" fill="#9DCFFE"/>
<path d="M143.246 410.374C145.58 410.374 147.472 408.428 147.472 406.029C147.472 403.629 145.58 401.684 143.246 401.684C140.912 401.684 139.02 403.629 139.02 406.029C139.02 408.428 140.912 410.374 143.246 410.374Z" fill="#9DCFFE"/>
<path d="M144.49 399.591C146.61 399.591 148.328 397.825 148.328 395.645C148.328 393.466 146.61 391.699 144.49 391.699C142.37 391.699 140.651 393.466 140.651 395.645C140.651 397.825 142.37 399.591 144.49 399.591Z" fill="#9DCFFE"/>
<path d="M135.125 397.031C137.172 397.031 138.832 395.325 138.832 393.22C138.832 391.116 137.172 389.41 135.125 389.41C133.078 389.41 131.418 391.116 131.418 393.22C131.418 395.325 133.078 397.031 135.125 397.031Z" fill="#9DCFFE"/>
<path d="M134.215 405.95C136.041 405.95 137.52 404.429 137.52 402.553C137.52 400.677 136.041 399.156 134.215 399.156C132.39 399.156 130.911 400.677 130.911 402.553C130.911 404.429 132.39 405.95 134.215 405.95Z" fill="#9DCFFE"/>
<path d="M127.168 400.771C128.917 400.771 130.335 399.313 130.335 397.515C130.335 395.716 128.917 394.258 127.168 394.258C125.418 394.258 124 395.716 124 397.515C124 399.313 125.418 400.771 127.168 400.771Z" fill="#9DCFFE"/>
<path d="M958.705 176.946C973.285 176.946 985.104 164.795 985.104 149.807C985.104 134.819 973.285 122.668 958.705 122.668C944.125 122.668 932.306 134.819 932.306 149.807C932.306 164.795 944.125 176.946 958.705 176.946Z" fill="#9DCFFE"/>
<path d="M328.297 161.003C334.311 161.003 339.187 155.99 339.187 149.807C339.187 143.624 334.311 138.611 328.297 138.611C322.282 138.611 317.406 143.624 317.406 149.807C317.406 155.99 322.282 161.003 328.297 161.003Z" fill="#9DCFFE"/>
<path d="M265.26 158.714C270.045 158.714 273.924 154.726 273.924 149.807C273.924 144.888 270.045 140.9 265.26 140.9C260.475 140.9 256.596 144.888 256.596 149.807C256.596 154.726 260.475 158.714 265.26 158.714Z" fill="#9DCFFE"/>
<path d="M235.648 151.468C239.645 151.468 242.885 148.137 242.885 144.029C242.885 139.92 239.645 136.589 235.648 136.589C231.651 136.589 228.411 139.92 228.411 144.029C228.411 148.137 231.651 151.468 235.648 151.468Z" fill="#9DCFFE"/>
<path d="M226.979 165.286C230.799 165.286 233.895 162.103 233.895 158.176C233.895 154.25 230.799 151.066 226.979 151.066C223.16 151.066 220.063 154.25 220.063 158.176C220.063 162.103 223.16 165.286 226.979 165.286Z" fill="#9DCFFE"/>
<path d="M219.493 150.829C223.252 150.829 226.3 147.695 226.3 143.83C226.3 139.965 223.252 136.831 219.493 136.831C215.733 136.831 212.685 139.965 212.685 143.83C212.685 147.695 215.733 150.829 219.493 150.829Z" fill="#9DCFFE"/>
<path d="M211.38 164.192C215.019 164.192 217.97 161.16 217.97 157.418C217.97 153.677 215.019 150.645 211.38 150.645C207.741 150.645 204.791 153.677 204.791 157.418C204.791 161.16 207.741 164.192 211.38 164.192Z" fill="#9DCFFE"/>
<path d="M204.43 150.249C207.823 150.249 210.574 147.421 210.574 143.933C210.574 140.445 207.823 137.618 204.43 137.618C201.037 137.618 198.287 140.445 198.287 143.933C198.287 147.421 201.037 150.249 204.43 150.249Z" fill="#9DCFFE"/>
<path d="M196.692 162.477C200.022 162.477 202.722 159.701 202.722 156.278C202.722 152.854 200.022 150.078 196.692 150.078C193.361 150.078 190.662 152.854 190.662 156.278C190.662 159.701 193.361 162.477 196.692 162.477Z" fill="#9DCFFE"/>
<path d="M190.267 149.504C193.535 149.504 196.183 146.781 196.183 143.422C196.183 140.063 193.535 137.341 190.267 137.341C187 137.341 184.351 140.063 184.351 143.422C184.351 146.781 187 149.504 190.267 149.504Z" fill="#9DCFFE"/>
<path d="M182.896 161.155C186.036 161.155 188.582 158.538 188.582 155.311C188.582 152.083 186.036 149.466 182.896 149.466C179.757 149.466 177.211 152.083 177.211 155.311C177.211 158.538 179.757 161.155 182.896 161.155Z" fill="#9DCFFE"/>
<path d="M174.431 150.552C177.245 150.552 179.525 148.208 179.525 145.316C179.525 142.423 177.245 140.079 174.431 140.079C171.618 140.079 169.338 142.423 169.338 145.316C169.338 148.208 171.618 150.552 174.431 150.552Z" fill="#9DCFFE"/>
<path d="M162.794 154.277C165.199 154.277 167.148 152.273 167.148 149.801C167.148 147.329 165.199 145.326 162.794 145.326C160.39 145.326 158.441 147.329 158.441 149.801C158.441 152.273 160.39 154.277 162.794 154.277Z" fill="#9DCFFE"/>
<path d="M149.678 153.62C151.725 153.62 153.385 151.914 153.385 149.81C153.385 147.705 151.725 145.999 149.678 145.999C147.63 145.999 145.971 147.705 145.971 149.81C145.971 151.914 147.63 153.62 149.678 153.62Z" fill="#9DCFFE"/>
<path d="M137.811 157.173C139.56 157.173 140.978 155.715 140.978 153.916C140.978 152.118 139.56 150.66 137.811 150.66C136.061 150.66 134.643 152.118 134.643 153.916C134.643 155.715 136.061 157.173 137.811 157.173Z" fill="#9DCFFE"/>
<path d="M140.537 148.953C142.287 148.953 143.705 147.495 143.705 145.696C143.705 143.898 142.287 142.44 140.537 142.44C138.788 142.44 137.369 143.898 137.369 145.696C137.369 147.495 138.788 148.953 140.537 148.953Z" fill="#9DCFFE"/>
<path d="M67.5993 150.432C69.0031 150.432 70.1411 149.262 70.1411 147.819C70.1411 146.376 69.0031 145.206 67.5993 145.206C66.1954 145.206 65.0574 146.376 65.0574 147.819C65.0574 149.262 66.1954 150.432 67.5993 150.432Z" fill="#1B8CF5"/>
<path d="M61.1635 150.185C62.4346 150.185 63.465 149.126 63.465 147.819C63.465 146.512 62.4346 145.453 61.1635 145.453C59.8923 145.453 58.8619 146.512 58.8619 147.819C58.8619 149.126 59.8923 150.185 61.1635 150.185Z" fill="#1B8CF5"/>
<path d="M55.1243 147.505C56.2556 147.505 57.1726 146.562 57.1726 145.399C57.1726 144.236 56.2556 143.294 55.1243 143.294C53.9931 143.294 53.076 144.236 53.076 145.399C53.076 146.562 53.9931 147.505 55.1243 147.505Z" fill="#1B8CF5"/>
<path d="M54.3311 152.345C55.4623 152.345 56.3793 151.402 56.3793 150.239C56.3793 149.076 55.4623 148.133 54.3311 148.133C53.1998 148.133 52.2828 149.076 52.2828 150.239C52.2828 151.402 53.1998 152.345 54.3311 152.345Z" fill="#1B8CF5"/>
<path d="M35.4204 149.034C36.0731 149.034 36.6023 148.49 36.6023 147.819C36.6023 147.148 36.0731 146.604 35.4204 146.604C34.7676 146.604 34.2384 147.148 34.2384 147.819C34.2384 148.49 34.7676 149.034 35.4204 149.034Z" fill="#1B8CF5"/>
<path d="M289.086 282.093C294.135 282.093 298.228 277.885 298.228 272.695C298.228 267.504 294.135 263.297 289.086 263.297C284.037 263.297 279.944 267.504 279.944 272.695C279.944 277.885 284.037 282.093 289.086 282.093Z" fill="#1B8CF5"/>
<path d="M152.369 277.52C154.777 277.52 156.73 275.513 156.73 273.037C156.73 270.562 154.777 268.555 152.369 268.555C149.961 268.555 148.009 270.562 148.009 273.037C148.009 275.513 149.961 277.52 152.369 277.52Z" fill="#1B8CF5"/>
<path d="M142.056 277.26C144.325 277.26 146.164 275.369 146.164 273.037C146.164 270.705 144.325 268.815 142.056 268.815C139.788 268.815 137.949 270.705 137.949 273.037C137.949 275.369 139.788 277.26 142.056 277.26Z" fill="#1B8CF5"/>
<path d="M133.48 277.058C135.64 277.058 137.391 275.258 137.391 273.038C137.391 270.818 135.64 269.018 133.48 269.018C131.32 269.018 129.569 270.818 129.569 273.038C129.569 275.258 131.32 277.058 133.48 277.058Z" fill="#1B8CF5"/>
<path d="M183.325 277.409C186.361 277.409 188.822 274.878 188.822 271.757C188.822 268.636 186.361 266.106 183.325 266.106C180.289 266.106 177.827 268.636 177.827 271.757C177.827 274.878 180.289 277.409 183.325 277.409Z" fill="#1B8CF5"/>
<path d="M109.131 277.106C111.5 277.106 113.421 275.131 113.421 272.695C113.421 270.259 111.5 268.284 109.131 268.284C106.761 268.284 104.84 270.259 104.84 272.695C104.84 275.131 106.761 277.106 109.131 277.106Z" fill="#1B8CF5"/>
<path d="M88.2871 276.473C90.3167 276.473 91.962 274.781 91.962 272.695C91.962 270.608 90.3167 268.917 88.2871 268.917C86.2576 268.917 84.6123 270.608 84.6123 272.695C84.6123 274.781 86.2576 276.473 88.2871 276.473Z" fill="#1B8CF5"/>
<path d="M194.926 277.021C197.962 277.021 200.423 274.49 200.423 271.369C200.423 268.248 197.962 265.718 194.926 265.718C191.89 265.718 189.428 268.248 189.428 271.369C189.428 274.49 191.89 277.021 194.926 277.021Z" fill="#1B8CF5"/>
<path d="M72.0847 275.592C73.8029 275.592 75.1958 274.16 75.1958 272.393C75.1958 270.627 73.8029 269.195 72.0847 269.195C70.3666 269.195 68.9737 270.627 68.9737 272.393C68.9737 274.16 70.3666 275.592 72.0847 275.592Z" fill="#1B8CF5"/>
<path d="M65.6004 277.122C67.185 277.122 68.4696 275.802 68.4696 274.173C68.4696 272.544 67.185 271.223 65.6004 271.223C64.0158 271.223 62.7313 272.544 62.7313 274.173C62.7313 275.802 64.0158 277.122 65.6004 277.122Z" fill="#1B8CF5"/>
<path d="M65.5445 270.472C67.06 270.472 68.2886 269.209 68.2886 267.65C68.2886 266.092 67.06 264.829 65.5445 264.829C64.0289 264.829 62.8004 266.092 62.8004 267.65C62.8004 269.209 64.0289 270.472 65.5445 270.472Z" fill="#1B8CF5"/>
<path d="M59.9228 279.905C61.4384 279.905 62.6669 278.642 62.6669 277.084C62.6669 275.526 61.4384 274.263 59.9228 274.263C58.4073 274.263 57.1787 275.526 57.1787 277.084C57.1787 278.642 58.4073 279.905 59.9228 279.905Z" fill="#1B8CF5"/>
<path d="M60.3 273.523C61.7448 273.523 62.9161 272.319 62.9161 270.834C62.9161 269.349 61.7448 268.145 60.3 268.145C58.8552 268.145 57.684 269.349 57.684 270.834C57.684 272.319 58.8552 273.523 60.3 273.523Z" fill="#1B8CF5"/>
<path d="M54.9292 276.186C56.374 276.186 57.5453 274.982 57.5453 273.497C57.5453 272.012 56.374 270.808 54.9292 270.808C53.4844 270.808 52.3132 272.012 52.3132 273.497C52.3132 274.982 53.4844 276.186 54.9292 276.186Z" fill="#1B8CF5"/>
<path d="M54.4339 282.026C55.8062 282.026 56.9186 280.882 56.9186 279.472C56.9186 278.061 55.8062 276.917 54.4339 276.917C53.0616 276.917 51.9492 278.061 51.9492 279.472C51.9492 280.882 53.0616 282.026 54.4339 282.026Z" fill="#1B8CF5"/>
<path d="M55.5169 269.957C56.8892 269.957 58.0017 268.814 58.0017 267.403C58.0017 265.992 56.8892 264.849 55.5169 264.849C54.1447 264.849 53.0322 265.992 53.0322 267.403C53.0322 268.814 54.1447 269.957 55.5169 269.957Z" fill="#1B8CF5"/>
<path d="M50.3238 272.373C51.696 272.373 52.8085 271.229 52.8085 269.819C52.8085 268.408 51.696 267.264 50.3238 267.264C48.9515 267.264 47.839 268.408 47.839 269.819C47.839 271.229 48.9515 272.373 50.3238 272.373Z" fill="#1B8CF5"/>
<path d="M49.8718 278.611C51.1697 278.611 52.2217 277.529 52.2217 276.195C52.2217 274.861 51.1697 273.779 49.8718 273.779C48.574 273.779 47.5219 274.861 47.5219 276.195C47.5219 277.529 48.574 278.611 49.8718 278.611Z" fill="#1B8CF5"/>
<path d="M41.4168 273.745C42.638 273.745 43.628 272.727 43.628 271.472C43.628 270.216 42.638 269.198 41.4168 269.198C40.1955 269.198 39.2055 270.216 39.2055 271.472C39.2055 272.727 40.1955 273.745 41.4168 273.745Z" fill="#1B8CF5"/>
<path d="M44.7659 279.903C45.9871 279.903 46.9772 278.885 46.9772 277.629C46.9772 276.374 45.9871 275.356 44.7659 275.356C43.5446 275.356 42.5546 276.374 42.5546 277.629C42.5546 278.885 43.5446 279.903 44.7659 279.903Z" fill="#1B8CF5"/>
<path d="M45.2263 270.176C46.4476 270.176 47.4376 269.158 47.4376 267.902C47.4376 266.647 46.4476 265.629 45.2263 265.629C44.0051 265.629 43.015 266.647 43.015 267.902C43.015 269.158 44.0051 270.176 45.2263 270.176Z" fill="#1B8CF5"/>
<path d="M46.0989 274.796C47.16 274.796 48.0202 273.912 48.0202 272.821C48.0202 271.73 47.16 270.846 46.0989 270.846C45.0379 270.846 44.1777 271.73 44.1777 272.821C44.1777 273.912 45.0379 274.796 46.0989 274.796Z" fill="#1B8CF5"/>
<path d="M39.2566 268.968C40.3177 268.968 41.1778 268.083 41.1778 266.993C41.1778 265.902 40.3177 265.018 39.2566 265.018C38.1955 265.018 37.3354 265.902 37.3354 266.993C37.3354 268.083 38.1955 268.968 39.2566 268.968Z" fill="#1B8CF5"/>
<path d="M34.8359 268.736C35.8128 268.736 36.6048 267.922 36.6048 266.918C36.6048 265.913 35.8128 265.099 34.8359 265.099C33.8589 265.099 33.0669 265.913 33.0669 266.918C33.0669 267.922 33.8589 268.736 34.8359 268.736Z" fill="#1B8CF5"/>
<path d="M35.5605 280.386C36.5375 280.386 37.3295 279.572 37.3295 278.568C37.3295 277.563 36.5375 276.749 35.5605 276.749C34.5836 276.749 33.7916 277.563 33.7916 278.568C33.7916 279.572 34.5836 280.386 35.5605 280.386Z" fill="#1B8CF5"/>
<path d="M38.4327 277.036C39.4097 277.036 40.2017 276.222 40.2017 275.217C40.2017 274.213 39.4097 273.399 38.4327 273.399C37.4558 273.399 36.6638 274.213 36.6638 275.217C36.6638 276.222 37.4558 277.036 38.4327 277.036Z" fill="#1B8CF5"/>
<path d="M39.754 281.209C40.7309 281.209 41.5229 280.395 41.5229 279.391C41.5229 278.386 40.7309 277.572 39.754 277.572C38.777 277.572 37.985 278.386 37.985 279.391C37.985 280.395 38.777 281.209 39.754 281.209Z" fill="#1B8CF5"/>
<path d="M34.2403 276.213C35.2173 276.213 36.0093 275.399 36.0093 274.395C36.0093 273.391 35.2173 272.576 34.2403 272.576C33.2634 272.576 32.4714 273.391 32.4714 274.395C32.4714 275.399 33.2634 276.213 34.2403 276.213Z" fill="#1B8CF5"/>
<path d="M36.7472 272.66C37.7242 272.66 38.5161 271.846 38.5161 270.842C38.5161 269.838 37.7242 269.023 36.7472 269.023C35.7703 269.023 34.9783 269.838 34.9783 270.842C34.9783 271.846 35.7703 272.66 36.7472 272.66Z" fill="#1B8CF5"/>
<path d="M31.3436 279.049C32.2334 279.049 32.9547 278.308 32.9547 277.393C32.9547 276.478 32.2334 275.737 31.3436 275.737C30.4538 275.737 29.7325 276.478 29.7325 277.393C29.7325 278.308 30.4538 279.049 31.3436 279.049Z" fill="#1B8CF5"/>
<path d="M30.7246 268.604C31.6144 268.604 32.3357 267.862 32.3357 266.948C32.3357 266.033 31.6144 265.291 30.7246 265.291C29.8348 265.291 29.1135 266.033 29.1135 266.948C29.1135 267.862 29.8348 268.604 30.7246 268.604Z" fill="#1B8CF5"/>
<path d="M32.6507 272.154C33.5404 272.154 34.2618 271.412 34.2618 270.498C34.2618 269.583 33.5404 268.841 32.6507 268.841C31.7609 268.841 31.0396 269.583 31.0396 270.498C31.0396 271.412 31.7609 272.154 32.6507 272.154Z" fill="#1B8CF5"/>
<path d="M27.5569 279.02C28.3561 279.02 29.004 278.354 29.004 277.533C29.004 276.711 28.3561 276.045 27.5569 276.045C26.7577 276.045 26.1099 276.711 26.1099 277.533C26.1099 278.354 26.7577 279.02 27.5569 279.02Z" fill="#1B8CF5"/>
<path d="M27.0707 275.327C27.8699 275.327 28.5178 274.661 28.5178 273.839C28.5178 273.018 27.8699 272.352 27.0707 272.352C26.2715 272.352 25.6237 273.018 25.6237 273.839C25.6237 274.661 26.2715 275.327 27.0707 275.327Z" fill="#1B8CF5"/>
<path d="M26.964 268.913C27.7632 268.913 28.411 268.247 28.411 267.426C28.411 266.604 27.7632 265.938 26.964 265.938C26.1648 265.938 25.5169 266.604 25.5169 267.426C25.5169 268.247 26.1648 268.913 26.964 268.913Z" fill="#1B8CF5"/>
<path d="M28.8635 272.088C29.6627 272.088 30.3105 271.421 30.3105 270.6C30.3105 269.778 29.6627 269.112 28.8635 269.112C28.0643 269.112 27.4164 269.778 27.4164 270.6C27.4164 271.421 28.0643 272.088 28.8635 272.088Z" fill="#1B8CF5"/>
<path d="M30.5228 275.026C31.2276 275.026 31.7989 274.439 31.7989 273.714C31.7989 272.99 31.2276 272.402 30.5228 272.402C29.8181 272.402 29.2468 272.99 29.2468 273.714C29.2468 274.439 29.8181 275.026 30.5228 275.026Z" fill="#1B8CF5"/>
<path d="M21.0924 276.98C21.7972 276.98 22.3685 276.392 22.3685 275.668C22.3685 274.944 21.7972 274.356 21.0924 274.356C20.3877 274.356 19.8164 274.944 19.8164 275.668C19.8164 276.392 20.3877 276.98 21.0924 276.98Z" fill="#1B8CF5"/>
<path d="M23.5428 269.226C24.2476 269.226 24.8189 268.639 24.8189 267.914C24.8189 267.19 24.2476 266.603 23.5428 266.603C22.8381 266.603 22.2668 267.19 22.2668 267.914C22.2668 268.639 22.8381 269.226 23.5428 269.226Z" fill="#1B8CF5"/>
<path d="M25.4106 272.002C26.1154 272.002 26.6866 271.415 26.6866 270.691C26.6866 269.966 26.1154 269.379 25.4106 269.379C24.7059 269.379 24.1346 269.966 24.1346 270.691C24.1346 271.415 24.7059 272.002 25.4106 272.002Z" fill="#1B8CF5"/>
<path d="M24.1657 278.169C24.8704 278.169 25.4417 277.582 25.4417 276.857C25.4417 276.133 24.8704 275.546 24.1657 275.546C23.461 275.546 22.8897 276.133 22.8897 276.857C22.8897 277.582 23.461 278.169 24.1657 278.169Z" fill="#1B8CF5"/>
<path d="M21.7635 272.063C22.4682 272.063 23.0395 271.475 23.0395 270.751C23.0395 270.026 22.4682 269.439 21.7635 269.439C21.0588 269.439 20.4875 270.026 20.4875 270.751C20.4875 271.475 21.0588 272.063 21.7635 272.063Z" fill="#1B8CF5"/>
<path d="M23.631 274.84C24.3357 274.84 24.907 274.252 24.907 273.528C24.907 272.803 24.3357 272.216 23.631 272.216C22.9263 272.216 22.355 272.803 22.355 273.528C22.355 274.252 22.9263 274.84 23.631 274.84Z" fill="#1B8CF5"/>
<path d="M19.496 274.059C20.1019 274.059 20.5931 273.554 20.5931 272.931C20.5931 272.308 20.1019 271.803 19.496 271.803C18.8902 271.803 18.399 272.308 18.399 272.931C18.399 273.554 18.8902 274.059 19.496 274.059Z" fill="#1B8CF5"/>
<path d="M230 403.414C233.856 403.414 236.983 400.2 236.983 396.236C236.983 392.271 233.856 389.057 230 389.057C226.143 389.057 223.017 392.271 223.017 396.236C223.017 400.2 226.143 403.414 230 403.414Z" fill="#1B8CF5"/>
<path d="M167.765 402.082C170.906 402.082 173.451 399.465 173.451 396.236C173.451 393.008 170.906 390.391 167.765 390.391C164.625 390.391 162.08 393.008 162.08 396.236C162.08 399.465 164.625 402.082 167.765 402.082Z" fill="#1B8CF5"/>
<path d="M140.883 401.533C143.729 401.533 146.035 399.161 146.035 396.236C146.035 393.311 143.729 390.939 140.883 390.939C138.038 390.939 135.731 393.311 135.731 396.236C135.731 399.161 138.038 401.533 140.883 401.533Z" fill="#1B8CF5"/>
<path d="M112.062 400.582C114.397 400.582 116.29 398.636 116.29 396.236C116.29 393.836 114.397 391.89 112.062 391.89C109.727 391.89 107.834 393.836 107.834 396.236C107.834 398.636 109.727 400.582 112.062 400.582Z" fill="#1B8CF5"/>
<path d="M151.956 401.613C154.844 401.613 157.186 399.206 157.186 396.236C157.186 393.266 154.844 390.859 151.956 390.859C149.067 390.859 146.725 393.266 146.725 396.236C146.725 399.206 149.067 401.613 151.956 401.613Z" fill="#1B8CF5"/>
<path d="M103.1 400.395C105.334 400.395 107.145 398.533 107.145 396.236C107.145 393.939 105.334 392.077 103.1 392.077C100.866 392.077 99.0544 393.939 99.0544 396.236C99.0544 398.533 100.866 400.395 103.1 400.395Z" fill="#1B8CF5"/>
<path d="M94.4124 400.299C96.5952 400.299 98.3647 398.48 98.3647 396.236C98.3647 393.992 96.5952 392.172 94.4124 392.172C92.2295 392.172 90.46 393.992 90.46 396.236C90.46 398.48 92.2295 400.299 94.4124 400.299Z" fill="#1B8CF5"/>
<path d="M81.1399 397.695C82.997 397.695 84.5024 396.147 84.5024 394.238C84.5024 392.329 82.997 390.781 81.1399 390.781C79.2828 390.781 77.7774 392.329 77.7774 394.238C77.7774 396.147 79.2828 397.695 81.1399 397.695Z" fill="#1B8CF5"/>
<path d="M76.5236 403.414C78.3231 403.414 79.7819 401.915 79.7819 400.065C79.7819 398.215 78.3231 396.715 76.5236 396.715C74.7241 396.715 73.2653 398.215 73.2653 400.065C73.2653 401.915 74.7241 403.414 76.5236 403.414Z" fill="#1B8CF5"/>
<path d="M74.001 396.482C75.7418 396.482 77.1531 395.031 77.1531 393.242C77.1531 391.452 75.7418 390.001 74.001 390.001C72.2602 390.001 70.8489 391.452 70.8489 393.242C70.8489 395.031 72.2602 396.482 74.001 396.482Z" fill="#1B8CF5"/>
<path d="M67.2691 395.473C68.8892 395.473 70.2025 394.123 70.2025 392.458C70.2025 390.792 68.8892 389.442 67.2691 389.442C65.6491 389.442 64.3358 390.792 64.3358 392.458C64.3358 394.123 65.6491 395.473 67.2691 395.473Z" fill="#1B8CF5"/>
<path d="M63.3815 403.19C65.0015 403.19 66.3148 401.84 66.3148 400.174C66.3148 398.509 65.0015 397.159 63.3815 397.159C61.7614 397.159 60.4481 398.509 60.4481 400.174C60.4481 401.84 61.7614 403.19 63.3815 403.19Z" fill="#1B8CF5"/>
<path d="M69.7752 401.702C71.3953 401.702 72.7086 400.352 72.7086 398.686C72.7086 397.021 71.3953 395.671 69.7752 395.671C68.1552 395.671 66.8419 397.021 66.8419 398.686C66.8419 400.352 68.1552 401.702 69.7752 401.702Z" fill="#1B8CF5"/>
<path d="M61.0067 396.917C62.5645 396.917 63.8273 395.619 63.8273 394.017C63.8273 392.416 62.5645 391.118 61.0067 391.118C59.449 391.118 58.1862 392.416 58.1862 394.017C58.1862 395.619 59.449 396.917 61.0067 396.917Z" fill="#1B8CF5"/>
<path d="M57.1528 401.811C58.6469 401.811 59.8581 400.566 59.8581 399.03C59.8581 397.494 58.6469 396.249 57.1528 396.249C55.6587 396.249 54.4475 397.494 54.4475 399.03C54.4475 400.566 55.6587 401.811 57.1528 401.811Z" fill="#1B8CF5"/>
<path d="M52.6359 397.726C53.9982 397.726 55.1025 396.59 55.1025 395.19C55.1025 393.79 53.9982 392.654 52.6359 392.654C51.2736 392.654 50.1693 393.79 50.1693 395.19C50.1693 396.59 51.2736 397.726 52.6359 397.726Z" fill="#1B8CF5"/>
<path d="M47.8391 399.955C49.0628 399.955 50.0548 398.935 50.0548 397.677C50.0548 396.419 49.0628 395.399 47.8391 395.399C46.6154 395.399 45.6235 396.419 45.6235 397.677C45.6235 398.935 46.6154 399.955 47.8391 399.955Z" fill="#1B8CF5"/>
<path d="M48.0835 394.535C49.3072 394.535 50.2992 393.516 50.2992 392.258C50.2992 391 49.3072 389.98 48.0835 389.98C46.8598 389.98 45.8679 391 45.8679 392.258C45.8679 393.516 46.8598 394.535 48.0835 394.535Z" fill="#1B8CF5"/>
<path d="M43.7305 396.909C44.882 396.909 45.8155 395.949 45.8155 394.765C45.8155 393.581 44.882 392.622 43.7305 392.622C42.579 392.622 41.6456 393.581 41.6456 394.765C41.6456 395.949 42.579 396.909 43.7305 396.909Z" fill="#1B8CF5"/>
<path d="M43.1677 401.871C44.3192 401.871 45.2527 400.911 45.2527 399.727C45.2527 398.543 44.3192 397.584 43.1677 397.584C42.0163 397.584 41.0828 398.543 41.0828 399.727C41.0828 400.911 42.0163 401.871 43.1677 401.871Z" fill="#1B8CF5"/>
<path d="M39.4242 398.769C40.5013 398.769 41.3745 397.872 41.3745 396.764C41.3745 395.657 40.5013 394.759 39.4242 394.759C38.347 394.759 37.4738 395.657 37.4738 396.764C37.4738 397.872 38.347 398.769 39.4242 398.769Z" fill="#1B8CF5"/>
<path d="M39.8431 394.01C40.9202 394.01 41.7934 393.112 41.7934 392.005C41.7934 390.898 40.9202 390 39.8431 390C38.7659 390 37.8927 390.898 37.8927 392.005C37.8927 393.112 38.7659 394.01 39.8431 394.01Z" fill="#1B8CF5"/>
<path d="M38.2479 403.04C39.2483 403.04 40.0594 402.206 40.0594 401.178C40.0594 400.149 39.2483 399.315 38.2479 399.315C37.2474 399.315 36.4364 400.149 36.4364 401.178C36.4364 402.206 37.2474 403.04 38.2479 403.04Z" fill="#1B8CF5"/>
<path d="M35.3241 399.838C36.2453 399.838 36.992 399.071 36.992 398.124C36.992 397.177 36.2453 396.409 35.3241 396.409C34.403 396.409 33.6563 397.177 33.6563 398.124C33.6563 399.071 34.403 399.838 35.3241 399.838Z" fill="#1B8CF5"/>
<path d="M36.0223 395.763C36.9434 395.763 37.6901 394.995 37.6901 394.048C37.6901 393.101 36.9434 392.334 36.0223 392.334C35.1011 392.334 34.3544 393.101 34.3544 394.048C34.3544 394.995 35.1011 395.763 36.0223 395.763Z" fill="#1B8CF5"/>
<path d="M33.4038 392.619C34.3249 392.619 35.0716 391.851 35.0716 390.904C35.0716 389.957 34.3249 389.19 33.4038 389.19C32.4826 389.19 31.7359 389.957 31.7359 390.904C31.7359 391.851 32.4826 392.619 33.4038 392.619Z" fill="#1B8CF5"/>
<path d="M29.4836 393.56C30.4048 393.56 31.1515 392.793 31.1515 391.846C31.1515 390.899 30.4048 390.131 29.4836 390.131C28.5625 390.131 27.8157 390.899 27.8157 391.846C27.8157 392.793 28.5625 393.56 29.4836 393.56Z" fill="#1B8CF5"/>
<path d="M31.3233 400.288C32.2444 400.288 32.9912 399.52 32.9912 398.573C32.9912 397.626 32.2444 396.859 31.3233 396.859C30.4022 396.859 29.6554 397.626 29.6554 398.573C29.6554 399.52 30.4022 400.288 31.3233 400.288Z" fill="#1B8CF5"/>
<path d="M33.6829 403.295C34.5218 403.295 35.202 402.596 35.202 401.734C35.202 400.871 34.5218 400.172 33.6829 400.172C32.8439 400.172 32.1638 400.871 32.1638 401.734C32.1638 402.596 32.8439 403.295 33.6829 403.295Z" fill="#1B8CF5"/>
<path d="M32.1974 396.253C33.0364 396.253 33.7165 395.554 33.7165 394.691C33.7165 393.829 33.0364 393.13 32.1974 393.13C31.3585 393.13 30.6784 393.829 30.6784 394.691C30.6784 395.554 31.3585 396.253 32.1974 396.253Z" fill="#1B8CF5"/>
<path d="M29.9584 403.864C30.7974 403.864 31.4775 403.165 31.4775 402.303C31.4775 401.44 30.7974 400.741 29.9584 400.741C29.1195 400.741 28.4394 401.44 28.4394 402.303C28.4394 403.165 29.1195 403.864 29.9584 403.864Z" fill="#1B8CF5"/>
<path d="M27.5302 400.958C28.3691 400.958 29.0492 400.259 29.0492 399.396C29.0492 398.534 28.3691 397.835 27.5302 397.835C26.6912 397.835 26.0111 398.534 26.0111 399.396C26.0111 400.259 26.6912 400.958 27.5302 400.958Z" fill="#1B8CF5"/>
<path d="M28.6096 397.29C29.4486 397.29 30.1287 396.59 30.1287 395.728C30.1287 394.866 29.4486 394.166 28.6096 394.166C27.7706 394.166 27.0905 394.866 27.0905 395.728C27.0905 396.59 27.7706 397.29 28.6096 397.29Z" fill="#1B8CF5"/>
<path d="M22.6817 395.58C23.4352 395.58 24.0461 394.952 24.0461 394.177C24.0461 393.402 23.4352 392.774 22.6817 392.774C21.9282 392.774 21.3173 393.402 21.3173 394.177C21.3173 394.952 21.9282 395.58 22.6817 395.58Z" fill="#1B8CF5"/>
<path d="M25.9772 394.648C26.7307 394.648 27.3416 394.02 27.3416 393.245C27.3416 392.471 26.7307 391.843 25.9772 391.843C25.2237 391.843 24.6128 392.471 24.6128 393.245C24.6128 394.02 25.2237 394.648 25.9772 394.648Z" fill="#1B8CF5"/>
<path d="M26.3675 391.157C27.121 391.157 27.7319 390.529 27.7319 389.754C27.7319 388.979 27.121 388.351 26.3675 388.351C25.614 388.351 25.0031 388.979 25.0031 389.754C25.0031 390.529 25.614 391.157 26.3675 391.157Z" fill="#1B8CF5"/>
<path d="M25.1517 398.058C25.9052 398.058 26.5161 397.43 26.5161 396.655C26.5161 395.88 25.9052 395.252 25.1517 395.252C24.3982 395.252 23.7873 395.88 23.7873 396.655C23.7873 397.43 24.3982 398.058 25.1517 398.058Z" fill="#1B8CF5"/>
<path d="M21.8557 398.989C22.6092 398.989 23.2201 398.361 23.2201 397.586C23.2201 396.812 22.6092 396.184 21.8557 396.184C21.1022 396.184 20.4913 396.812 20.4913 397.586C20.4913 398.361 21.1022 398.989 21.8557 398.989Z" fill="#1B8CF5"/>
<path d="M24.1619 401.188C24.8263 401.188 25.365 400.635 25.365 399.952C25.365 399.268 24.8263 398.715 24.1619 398.715C23.4974 398.715 22.9587 399.268 22.9587 399.952C22.9587 400.635 23.4974 401.188 24.1619 401.188Z" fill="#1B8CF5"/>
<path d="M19.4334 396.682C20.0046 396.682 20.4677 396.206 20.4677 395.619C20.4677 395.031 20.0046 394.555 19.4334 394.555C18.8621 394.555 18.399 395.031 18.399 395.619C18.399 396.206 18.8621 396.682 19.4334 396.682Z" fill="#1B8CF5"/>
<path d="M952.211 19.711C951.133 19.711 950.065 19.4986 949.069 19.086C948.073 18.6733 947.167 18.0685 946.405 17.306C945.642 16.5436 945.038 15.6384 944.625 14.6422C944.212 13.646 944 12.5783 944 11.5C944 10.4217 944.212 9.35402 944.625 8.35782C945.038 7.36162 945.642 6.45645 946.405 5.694C947.167 4.93154 948.073 4.32672 949.069 3.91408C950.065 3.50144 951.133 3.28906 952.211 3.28906C953.289 3.28906 954.357 3.50144 955.353 3.91408C956.349 4.32672 957.255 4.93154 958.017 5.694C958.779 6.45645 959.384 7.36162 959.797 8.35782C960.21 9.35402 960.422 10.4217 960.422 11.5C960.422 12.5783 960.21 13.646 959.797 14.6422C959.384 15.6384 958.779 16.5436 958.017 17.306C957.255 18.0685 956.349 18.6733 955.353 19.086C954.357 19.4986 953.289 19.711 952.211 19.711V19.711Z" fill="#1B8CF5"/>
<path d="M968.037 20V4H973.741C974.985 4 976.017 4.22656 976.834 4.67969C977.652 5.13281 978.264 5.7526 978.67 6.53906C979.077 7.32031 979.28 8.20052 979.28 9.17969C979.28 10.1641 979.074 11.0495 978.662 11.8359C978.256 12.6172 977.642 13.237 976.819 13.6953C976.001 14.1484 974.972 14.375 973.733 14.375H969.811V12.3281H973.514C974.3 12.3281 974.939 12.1927 975.428 11.9219C975.918 11.6458 976.277 11.2708 976.506 10.7969C976.735 10.3229 976.85 9.78385 976.85 9.17969C976.85 8.57552 976.735 8.03906 976.506 7.57031C976.277 7.10156 975.915 6.73437 975.42 6.46875C974.931 6.20312 974.285 6.07031 973.483 6.07031H970.452V20H968.037ZM981.922 20V8H984.18V9.90625H984.305C984.524 9.26042 984.909 8.7526 985.461 8.38281C986.019 8.00781 986.649 7.82031 987.352 7.82031C987.498 7.82031 987.67 7.82552 987.868 7.83594C988.071 7.84635 988.23 7.85937 988.344 7.875V10.1094C988.25 10.0833 988.084 10.0547 987.844 10.0234C987.605 9.98698 987.365 9.96875 987.125 9.96875C986.573 9.96875 986.081 10.0859 985.649 10.3203C985.222 10.5495 984.883 10.8698 984.633 11.2812C984.383 11.6875 984.258 12.151 984.258 12.6719V20H981.922ZM990.366 20V8H992.702V20H990.366ZM991.545 6.14844C991.139 6.14844 990.79 6.01302 990.498 5.74219C990.212 5.46615 990.069 5.13802 990.069 4.75781C990.069 4.3724 990.212 4.04427 990.498 3.77344C990.79 3.4974 991.139 3.35937 991.545 3.35937C991.952 3.35937 992.298 3.4974 992.584 3.77344C992.876 4.04427 993.022 4.3724 993.022 4.75781C993.022 5.13802 992.876 5.46615 992.584 5.74219C992.298 6.01302 991.952 6.14844 991.545 6.14844ZM995.844 20V8H998.086V9.95312H998.235C998.485 9.29167 998.894 8.77604 999.461 8.40625C1000.03 8.03125 1000.71 7.84375 1001.5 7.84375C1002.3 7.84375 1002.97 8.03125 1003.52 8.40625C1004.06 8.78125 1004.47 9.29687 1004.73 9.95312H1004.85C1005.14 9.3125 1005.59 8.80208 1006.22 8.42187C1006.84 8.03646 1007.59 7.84375 1008.45 7.84375C1009.54 7.84375 1010.43 8.1849 1011.12 8.86719C1011.81 9.54948 1012.16 10.5781 1012.16 11.9531V20H1009.82V12.1719C1009.82 11.3594 1009.6 10.7708 1009.16 10.4062C1008.71 10.0417 1008.19 9.85938 1007.57 9.85938C1006.81 9.85938 1006.22 10.0937 1005.8 10.5625C1005.38 11.026 1005.16 11.6224 1005.16 12.3516V20H1002.84V12.0234C1002.84 11.3724 1002.63 10.849 1002.23 10.4531C1001.82 10.0573 1001.29 9.85938 1000.64 9.85938C1000.2 9.85938 999.789 9.97656 999.414 10.2109C999.045 10.4401 998.745 10.7604 998.516 11.1719C998.292 11.5833 998.18 12.0599 998.18 12.6016V20H995.844ZM1018.78 20.2656C1018.02 20.2656 1017.33 20.125 1016.72 19.8437C1016.1 19.5573 1015.62 19.1432 1015.26 18.6016C1014.9 18.0599 1014.72 17.3958 1014.72 16.6094C1014.72 15.9323 1014.86 15.375 1015.12 14.9375C1015.38 14.5 1015.73 14.1536 1016.17 13.8984C1016.61 13.6432 1017.11 13.4505 1017.65 13.3203C1018.2 13.1901 1018.76 13.0911 1019.33 13.0234C1020.05 12.9401 1020.63 12.8724 1021.08 12.8203C1021.52 12.763 1021.85 12.6719 1022.05 12.5469C1022.26 12.4219 1022.36 12.2187 1022.36 11.9375V11.8828C1022.36 11.2005 1022.17 10.6719 1021.78 10.2969C1021.4 9.92187 1020.83 9.73437 1020.08 9.73437C1019.29 9.73437 1018.67 9.90885 1018.22 10.2578C1017.77 10.6016 1017.46 10.9844 1017.29 11.4062L1015.09 10.9062C1015.35 10.1771 1015.73 9.58854 1016.23 9.14062C1016.74 8.6875 1017.32 8.35937 1017.97 8.15625C1018.63 7.94792 1019.32 7.84375 1020.05 7.84375C1020.52 7.84375 1021.03 7.90104 1021.57 8.01563C1022.11 8.125 1022.62 8.32812 1023.08 8.625C1023.56 8.92187 1023.95 9.34635 1024.25 9.89844C1024.55 10.4453 1024.7 11.1563 1024.7 12.0313V20H1022.42V18.3594H1022.33C1022.18 18.6615 1021.95 18.9583 1021.65 19.25C1021.34 19.5417 1020.96 19.7839 1020.48 19.9766C1020.01 20.1693 1019.44 20.2656 1018.78 20.2656ZM1019.29 18.3906C1019.93 18.3906 1020.49 18.263 1020.94 18.0078C1021.41 17.7526 1021.76 17.4193 1022 17.0078C1022.24 16.5911 1022.37 16.1458 1022.37 15.6719V14.125C1022.28 14.2083 1022.12 14.2865 1021.88 14.3594C1021.65 14.4271 1021.38 14.487 1021.08 14.5391C1020.77 14.5859 1020.48 14.6302 1020.19 14.6719C1019.91 14.7083 1019.67 14.7396 1019.47 14.7656C1019.02 14.8229 1018.61 14.9193 1018.23 15.0547C1017.86 15.1901 1017.57 15.3854 1017.34 15.6406C1017.12 15.8906 1017.01 16.224 1017.01 16.6406C1017.01 17.2187 1017.23 17.6562 1017.65 17.9531C1018.08 18.2448 1018.63 18.3906 1019.29 18.3906ZM1027.81 20V8H1030.07V9.90625H1030.2C1030.41 9.26042 1030.8 8.7526 1031.35 8.38281C1031.91 8.00781 1032.54 7.82031 1033.24 7.82031C1033.39 7.82031 1033.56 7.82552 1033.76 7.83594C1033.96 7.84635 1034.12 7.85937 1034.23 7.875V10.1094C1034.14 10.0833 1033.97 10.0547 1033.73 10.0234C1033.5 9.98698 1033.26 9.96875 1033.02 9.96875C1032.46 9.96875 1031.97 10.0859 1031.54 10.3203C1031.11 10.5495 1030.77 10.8698 1030.52 11.2812C1030.27 11.6875 1030.15 12.151 1030.15 12.6719V20H1027.81ZM1038.1 24.5C1037.75 24.5 1037.43 24.4714 1037.14 24.4141C1036.86 24.362 1036.64 24.3047 1036.5 24.2422L1037.07 22.3281C1037.49 22.4427 1037.87 22.4922 1038.21 22.4766C1038.54 22.4609 1038.84 22.3359 1039.09 22.1016C1039.35 21.8672 1039.58 21.4844 1039.78 20.9531L1040.07 20.1563L1035.68 8H1038.18L1041.22 17.3125H1041.34L1044.38 8H1046.89L1041.94 21.6016C1041.71 22.2266 1041.42 22.7552 1041.07 23.1875C1040.71 23.625 1040.29 23.9531 1039.8 24.1719C1039.31 24.3906 1038.74 24.5 1038.1 24.5Z" fill="#7B7B7B"/>
<path d="M952.211 56.9746C951.133 56.9746 950.065 56.7623 949.069 56.3496C948.073 55.937 947.167 55.3322 946.405 54.5697C945.642 53.8073 945.038 52.9021 944.625 51.9059C944.212 50.9097 944 49.842 944 48.7637C944 47.6854 944.212 46.6177 944.625 45.6215C945.038 44.6253 945.642 43.7201 946.405 42.9577C947.167 42.1952 948.073 41.5904 949.069 41.1778C950.065 40.7651 951.133 40.5527 952.211 40.5527C953.289 40.5527 954.357 40.7651 955.353 41.1778C956.349 41.5904 957.255 42.1952 958.017 42.9577C958.779 43.7201 959.384 44.6253 959.797 45.6215C960.21 46.6177 960.422 47.6854 960.422 48.7637C960.422 49.842 960.21 50.9097 959.797 51.9059C959.384 52.9021 958.779 53.8073 958.017 54.5697C957.255 55.3322 956.349 55.937 955.353 56.3496C954.357 56.7623 953.289 56.9746 952.211 56.9746V56.9746Z" fill="#9DCFFE"/>
<path d="M976.619 45.4668C976.535 44.7272 976.191 44.1543 975.587 43.748C974.983 43.3366 974.223 43.1309 973.306 43.1309C972.65 43.1309 972.082 43.235 971.603 43.4434C971.124 43.6465 970.751 43.9277 970.486 44.2871C970.225 44.6413 970.095 45.0449 970.095 45.498C970.095 45.8783 970.184 46.2064 970.361 46.4824C970.543 46.7585 970.78 46.9902 971.072 47.1777C971.369 47.36 971.686 47.5137 972.025 47.6387C972.363 47.7585 972.689 47.8574 973.001 47.9355L974.564 48.3418C975.074 48.4668 975.598 48.6361 976.134 48.8496C976.671 49.0632 977.168 49.3444 977.626 49.6934C978.085 50.0423 978.454 50.4746 978.736 50.9902C979.022 51.5059 979.165 52.123 979.165 52.8418C979.165 53.748 978.931 54.5527 978.462 55.2559C977.999 55.959 977.324 56.5137 976.439 56.9199C975.559 57.3262 974.494 57.5293 973.244 57.5293C972.046 57.5293 971.009 57.3392 970.134 56.959C969.259 56.5788 968.574 56.0397 968.079 55.3418C967.585 54.6387 967.311 53.8053 967.259 52.8418H969.681C969.728 53.4199 969.915 53.9017 970.244 54.2871C970.577 54.6673 971.001 54.9512 971.517 55.1387C972.038 55.321 972.608 55.4121 973.228 55.4121C973.91 55.4121 974.517 55.3053 975.048 55.0918C975.585 54.873 976.007 54.571 976.314 54.1855C976.621 53.7949 976.775 53.3392 976.775 52.8184C976.775 52.3444 976.639 51.9564 976.369 51.6543C976.103 51.3522 975.741 51.1022 975.283 50.9043C974.829 50.7064 974.316 50.5319 973.744 50.3809L971.853 49.8652C970.572 49.5163 969.556 49.0033 968.806 48.3262C968.061 47.6491 967.689 46.7533 967.689 45.6387C967.689 44.7168 967.939 43.9121 968.439 43.2246C968.939 42.5371 969.616 42.0033 970.47 41.623C971.324 41.2376 972.288 41.0449 973.361 41.0449C974.444 41.0449 975.4 41.235 976.228 41.6152C977.061 41.9954 977.717 42.5189 978.197 43.1855C978.676 43.847 978.926 44.6074 978.947 45.4668H976.619ZM987.035 57.5059C985.852 57.5059 984.834 57.2533 983.98 56.748C983.131 56.2376 982.475 55.5215 982.011 54.5996C981.553 53.6725 981.324 52.5866 981.324 51.3418C981.324 50.1126 981.553 49.0293 982.011 48.0918C982.475 47.1543 983.12 46.4225 983.949 45.8965C984.782 45.3704 985.756 45.1074 986.87 45.1074C987.548 45.1074 988.204 45.2194 988.839 45.4434C989.475 45.6673 990.045 46.0189 990.55 46.498C991.055 46.9772 991.454 47.5996 991.745 48.3652C992.037 49.1257 992.183 50.0501 992.183 51.1387V51.9668H982.644V50.2168H989.894C989.894 49.6022 989.769 49.0579 989.519 48.584C989.269 48.1048 988.917 47.7272 988.464 47.4512C988.016 47.1751 987.49 47.0371 986.886 47.0371C986.23 47.0371 985.657 47.1986 985.167 47.5215C984.683 47.8392 984.308 48.2559 984.042 48.7715C983.782 49.2819 983.652 49.8366 983.652 50.4355V51.8027C983.652 52.6048 983.792 53.2871 984.074 53.8496C984.36 54.4121 984.759 54.8418 985.269 55.1387C985.779 55.4303 986.376 55.5762 987.058 55.5762C987.501 55.5762 987.904 55.5137 988.269 55.3887C988.634 55.2585 988.949 55.0658 989.214 54.8105C989.48 54.5553 989.683 54.2402 989.824 53.8652L992.035 54.2637C991.857 54.9147 991.54 55.485 991.081 55.9746C990.628 56.459 990.058 56.8366 989.37 57.1074C988.688 57.373 987.91 57.5059 987.035 57.5059ZM999.829 57.5059C998.668 57.5059 997.668 57.2428 996.829 56.7168C995.996 56.1855 995.356 55.4538 994.908 54.5215C994.46 53.5892 994.236 52.5215 994.236 51.3184C994.236 50.0996 994.465 49.0241 994.923 48.0918C995.382 47.1543 996.027 46.4225 996.861 45.8965C997.694 45.3704 998.676 45.1074 999.806 45.1074C1000.72 45.1074 1001.53 45.2767 1002.24 45.6152C1002.96 45.9486 1003.53 46.4173 1003.97 47.0215C1004.41 47.6257 1004.68 48.3314 1004.76 49.1387H1002.49C1002.36 48.5762 1002.07 48.0918 1001.63 47.6855C1001.18 47.2793 1000.59 47.0762 999.845 47.0762C999.194 47.0762 998.624 47.248 998.134 47.5918C997.65 47.9303 997.272 48.4147 997.001 49.0449C996.731 49.6699 996.595 50.4095 996.595 51.2637C996.595 52.1387 996.728 52.8939 996.994 53.5293C997.259 54.1647 997.634 54.6569 998.119 55.0059C998.608 55.3548 999.184 55.5293 999.845 55.5293C1000.29 55.5293 1000.69 55.4486 1001.05 55.2871C1001.41 55.1204 1001.72 54.8835 1001.96 54.5762C1002.21 54.2689 1002.39 53.8991 1002.49 53.4668H1004.76C1004.68 54.2428 1004.42 54.9355 1004 55.5449C1003.58 56.1543 1003.01 56.6335 1002.31 56.9824C1001.6 57.3314 1000.78 57.5059 999.829 57.5059ZM1012.31 57.5059C1011.19 57.5059 1010.21 57.248 1009.37 56.7324C1008.53 56.2168 1007.88 55.4954 1007.41 54.5684C1006.95 53.6413 1006.72 52.5579 1006.72 51.3184C1006.72 50.0736 1006.95 48.985 1007.41 48.0527C1007.88 47.1204 1008.53 46.3965 1009.37 45.8809C1010.21 45.3652 1011.19 45.1074 1012.31 45.1074C1013.44 45.1074 1014.42 45.3652 1015.26 45.8809C1016.1 46.3965 1016.75 47.1204 1017.21 48.0527C1017.67 48.985 1017.91 50.0736 1017.91 51.3184C1017.91 52.5579 1017.67 53.6413 1017.21 54.5684C1016.75 55.4954 1016.1 56.2168 1015.26 56.7324C1014.42 57.248 1013.44 57.5059 1012.31 57.5059ZM1012.32 55.5449C1013.05 55.5449 1013.65 55.3522 1014.13 54.9668C1014.61 54.5814 1014.97 54.0684 1015.19 53.4277C1015.43 52.7871 1015.55 52.0814 1015.55 51.3105C1015.55 50.5449 1015.43 49.8418 1015.19 49.2012C1014.97 48.5553 1014.61 48.0371 1014.13 47.6465C1013.65 47.2559 1013.05 47.0605 1012.32 47.0605C1011.59 47.0605 1010.98 47.2559 1010.49 47.6465C1010.01 48.0371 1009.66 48.5553 1009.42 49.2012C1009.19 49.8418 1009.08 50.5449 1009.08 51.3105C1009.08 52.0814 1009.19 52.7871 1009.42 53.4277C1009.66 54.0684 1010.01 54.5814 1010.49 54.9668C1010.98 55.3522 1011.59 55.5449 1012.32 55.5449ZM1022.85 50.1387V57.2637H1020.51V45.2637H1022.76V47.2168H1022.9C1023.18 46.5814 1023.61 46.071 1024.2 45.6855C1024.79 45.3001 1025.54 45.1074 1026.44 45.1074C1027.26 45.1074 1027.98 45.2793 1028.59 45.623C1029.21 45.9616 1029.68 46.4668 1030.02 47.1387C1030.36 47.8105 1030.53 48.6413 1030.53 49.6309V57.2637H1028.19V49.9121C1028.19 49.0423 1027.97 48.3626 1027.51 47.873C1027.06 47.3783 1026.44 47.1309 1025.65 47.1309C1025.1 47.1309 1024.62 47.248 1024.2 47.4824C1023.78 47.7168 1023.45 48.0605 1023.21 48.5137C1022.97 48.9616 1022.85 49.5033 1022.85 50.1387ZM1038.15 57.498C1037.18 57.498 1036.32 57.2507 1035.56 56.7559C1034.8 56.2559 1034.21 55.5449 1033.78 54.623C1033.35 53.696 1033.14 52.584 1033.14 51.2871C1033.14 49.9902 1033.35 48.8809 1033.79 47.959C1034.22 47.0371 1034.82 46.3314 1035.58 45.8418C1036.34 45.3522 1037.21 45.1074 1038.17 45.1074C1038.91 45.1074 1039.51 45.2324 1039.97 45.4824C1040.42 45.7272 1040.78 46.0137 1041.03 46.3418C1041.28 46.6699 1041.48 46.959 1041.62 47.209H1041.76V41.2637H1044.1V57.2637H1041.82V55.3965H1041.62C1041.48 55.6517 1041.28 55.9434 1041.01 56.2715C1040.75 56.5996 1040.39 56.8861 1039.93 57.1309C1039.48 57.3757 1038.88 57.498 1038.15 57.498ZM1038.67 55.5059C1039.34 55.5059 1039.91 55.3288 1040.37 54.9746C1040.84 54.6152 1041.2 54.1178 1041.43 53.4824C1041.68 52.847 1041.8 52.1074 1041.8 51.2637C1041.8 50.4303 1041.68 49.7012 1041.44 49.0762C1041.2 48.4512 1040.85 47.9642 1040.39 47.6152C1039.92 47.2663 1039.35 47.0918 1038.67 47.0918C1037.97 47.0918 1037.38 47.2741 1036.91 47.6387C1036.44 48.0033 1036.09 48.5007 1035.85 49.1309C1035.61 49.7611 1035.5 50.472 1035.5 51.2637C1035.5 52.0658 1035.62 52.7871 1035.86 53.4277C1036.1 54.0684 1036.45 54.5762 1036.92 54.9512C1037.39 55.321 1037.98 55.5059 1038.67 55.5059ZM1050.93 57.5293C1050.16 57.5293 1049.48 57.3887 1048.86 57.1074C1048.25 56.821 1047.76 56.4069 1047.4 55.8652C1047.05 55.3236 1046.87 54.6595 1046.87 53.873C1046.87 53.196 1047 52.6387 1047.26 52.2012C1047.52 51.7637 1047.87 51.4173 1048.32 51.1621C1048.76 50.9069 1049.25 50.7142 1049.8 50.584C1050.35 50.4538 1050.9 50.3548 1051.47 50.2871C1052.19 50.2038 1052.77 50.1361 1053.22 50.084C1053.67 50.0267 1054 49.9355 1054.2 49.8105C1054.4 49.6855 1054.5 49.4824 1054.5 49.2012V49.1465C1054.5 48.4642 1054.31 47.9355 1053.93 47.5605C1053.54 47.1855 1052.98 46.998 1052.22 46.998C1051.44 46.998 1050.82 47.1725 1050.36 47.5215C1049.91 47.8652 1049.6 48.248 1049.43 48.6699L1047.24 48.1699C1047.5 47.4408 1047.88 46.8522 1048.38 46.4043C1048.88 45.9512 1049.46 45.623 1050.12 45.4199C1050.78 45.2116 1051.47 45.1074 1052.19 45.1074C1052.67 45.1074 1053.18 45.1647 1053.71 45.2793C1054.26 45.3887 1054.76 45.5918 1055.23 45.8887C1055.7 46.1855 1056.09 46.61 1056.39 47.1621C1056.7 47.709 1056.85 48.4199 1056.85 49.2949V57.2637H1054.57V55.623H1054.47C1054.32 55.9251 1054.09 56.222 1053.79 56.5137C1053.49 56.8053 1053.1 57.0475 1052.63 57.2402C1052.15 57.4329 1051.59 57.5293 1050.93 57.5293ZM1051.43 55.6543C1052.08 55.6543 1052.63 55.5267 1053.09 55.2715C1053.55 55.0163 1053.9 54.6829 1054.14 54.2715C1054.39 53.8548 1054.51 53.4095 1054.51 52.9355V51.3887C1054.43 51.472 1054.27 51.5501 1054.03 51.623C1053.79 51.6908 1053.52 51.7507 1053.22 51.8027C1052.92 51.8496 1052.63 51.8939 1052.34 51.9355C1052.05 51.972 1051.81 52.0033 1051.62 52.0293C1051.17 52.0866 1050.75 52.1829 1050.38 52.3184C1050.01 52.4538 1049.71 52.6491 1049.49 52.9043C1049.27 53.1543 1049.16 53.4876 1049.16 53.9043C1049.16 54.4824 1049.37 54.9199 1049.8 55.2168C1050.23 55.5085 1050.77 55.6543 1051.43 55.6543ZM1059.96 57.2637V45.2637H1062.22V47.1699H1062.34C1062.56 46.5241 1062.95 46.0163 1063.5 45.6465C1064.05 45.2715 1064.68 45.084 1065.39 45.084C1065.53 45.084 1065.71 45.0892 1065.9 45.0996C1066.11 45.11 1066.27 45.123 1066.38 45.1387V47.373C1066.29 47.347 1066.12 47.3184 1065.88 47.2871C1065.64 47.2507 1065.4 47.2324 1065.16 47.2324C1064.61 47.2324 1064.12 47.3496 1063.68 47.584C1063.26 47.8132 1062.92 48.1335 1062.67 48.5449C1062.42 48.9512 1062.29 49.4147 1062.29 49.9355V57.2637H1059.96ZM1070.24 61.7637C1069.89 61.7637 1069.58 61.735 1069.29 61.6777C1069 61.6257 1068.79 61.5684 1068.65 61.5059L1069.21 59.5918C1069.64 59.7064 1070.02 59.7559 1070.35 59.7402C1070.69 59.7246 1070.98 59.5996 1071.24 59.3652C1071.5 59.1309 1071.73 58.748 1071.92 58.2168L1072.21 57.4199L1067.82 45.2637H1070.32L1073.36 54.5762H1073.49L1076.52 45.2637H1079.03L1074.09 58.8652C1073.86 59.4902 1073.57 60.0189 1073.21 60.4512C1072.86 60.8887 1072.44 61.2168 1071.95 61.4355C1071.46 61.6543 1070.89 61.7637 1070.24 61.7637Z" fill="#7B7B7B"/>
</g>
<defs>
<clipPath id="clip0_276_2490">
<rect width="1079.34" height="561.203" fill="white" transform="translate(0.671635)"/>
</clipPath>
</defs>
</svg>
