<svg width="1159" height="554" viewBox="0 0 1159 554" fill="none" xmlns="http://www.w3.org/2000/svg">
<rect width="1158.33" height="553.203" transform="translate(0.671635)" fill="white"/>
<path d="M5.83947 534.094V527.581H1056.52V534.094" stroke="#7B7B7B" stroke-width="1.05596"/>
<path d="M5.83951 527.581V534.094" stroke="#7B7B7B" stroke-width="1.05596"/>
<path d="M5.67163 549.362C4.81557 549.362 4.08641 549.129 3.48413 548.663C2.88186 548.193 2.42163 547.514 2.10345 546.623C1.78527 545.729 1.62618 544.65 1.62618 543.385C1.62618 542.127 1.78527 541.053 2.10345 540.163C2.42542 539.269 2.88754 538.587 3.48982 538.118C4.09588 537.644 4.82315 537.407 5.67163 537.407C6.52012 537.407 7.2455 537.644 7.84777 538.118C8.45383 538.587 8.91595 539.269 9.23413 540.163C9.5561 541.053 9.71709 542.127 9.71709 543.385C9.71709 544.65 9.558 545.729 9.23982 546.623C8.92163 547.514 8.46141 548.193 7.85913 548.663C7.25686 549.129 6.5277 549.362 5.67163 549.362ZM5.67163 548.112C6.52012 548.112 7.17921 547.703 7.64891 546.885C8.1186 546.067 8.35345 544.9 8.35345 543.385C8.35345 542.377 8.2455 541.519 8.02959 540.811C7.81747 540.103 7.51065 539.563 7.10913 539.192C6.71141 538.82 6.23224 538.635 5.67163 538.635C4.83073 538.635 4.17353 539.05 3.70004 539.879C3.22656 540.705 2.98982 541.873 2.98982 543.385C2.98982 544.392 3.09588 545.248 3.308 545.953C3.52012 546.657 3.82504 547.193 4.22277 547.561C4.62429 547.928 5.10724 548.112 5.67163 548.112Z" fill="#7B7B7B"/>
<path d="M137.174 527.581V534.094" stroke="#7B7B7B" stroke-width="1.05596"/>
<path d="M268.509 527.581V534.094" stroke="#7B7B7B" stroke-width="1.05596"/>
<path d="M259.583 537.567V549.203H258.173V539.044H258.105L255.264 540.93V539.498L258.173 537.567H259.583ZM266.725 549.362C265.869 549.362 265.139 549.129 264.537 548.663C263.935 548.193 263.475 547.514 263.156 546.623C262.838 545.729 262.679 544.65 262.679 543.385C262.679 542.127 262.838 541.053 263.156 540.163C263.478 539.269 263.941 538.587 264.543 538.118C265.149 537.644 265.876 537.407 266.725 537.407C267.573 537.407 268.298 537.644 268.901 538.118C269.507 538.587 269.969 539.269 270.287 540.163C270.609 541.053 270.77 542.127 270.77 543.385C270.77 544.65 270.611 545.729 270.293 546.623C269.975 547.514 269.514 548.193 268.912 548.663C268.31 549.129 267.581 549.362 266.725 549.362ZM266.725 548.112C267.573 548.112 268.232 547.703 268.702 546.885C269.172 546.067 269.406 544.9 269.406 543.385C269.406 542.377 269.298 541.519 269.083 540.811C268.87 540.103 268.564 539.563 268.162 539.192C267.764 538.82 267.285 538.635 266.725 538.635C265.884 538.635 265.227 539.05 264.753 539.879C264.28 540.705 264.043 541.873 264.043 543.385C264.043 544.392 264.149 545.248 264.361 545.953C264.573 546.657 264.878 547.193 265.276 547.561C265.677 547.928 266.16 548.112 266.725 548.112ZM276.725 549.362C275.869 549.362 275.139 549.129 274.537 548.663C273.935 548.193 273.475 547.514 273.156 546.623C272.838 545.729 272.679 544.65 272.679 543.385C272.679 542.127 272.838 541.053 273.156 540.163C273.478 539.269 273.941 538.587 274.543 538.118C275.149 537.644 275.876 537.407 276.725 537.407C277.573 537.407 278.298 537.644 278.901 538.118C279.507 538.587 279.969 539.269 280.287 540.163C280.609 541.053 280.77 542.127 280.77 543.385C280.77 544.65 280.611 545.729 280.293 546.623C279.975 547.514 279.514 548.193 278.912 548.663C278.31 549.129 277.581 549.362 276.725 549.362ZM276.725 548.112C277.573 548.112 278.232 547.703 278.702 546.885C279.172 546.067 279.406 544.9 279.406 543.385C279.406 542.377 279.298 541.519 279.083 540.811C278.87 540.103 278.564 539.563 278.162 539.192C277.764 538.82 277.285 538.635 276.725 538.635C275.884 538.635 275.227 539.05 274.753 539.879C274.28 540.705 274.043 541.873 274.043 543.385C274.043 544.392 274.149 545.248 274.361 545.953C274.573 546.657 274.878 547.193 275.276 547.561C275.677 547.928 276.16 548.112 276.725 548.112Z" fill="#7B7B7B"/>
<path d="M399.844 527.581V534.094" stroke="#7B7B7B" stroke-width="1.05596"/>
<path d="M531.179 527.581V534.094" stroke="#7B7B7B" stroke-width="1.05596"/>
<path d="M518.037 549.203V548.18L521.877 543.976C522.328 543.483 522.699 543.055 522.991 542.692C523.283 542.324 523.499 541.979 523.639 541.657C523.783 541.332 523.855 540.991 523.855 540.635C523.855 540.226 523.756 539.872 523.559 539.572C523.366 539.273 523.101 539.042 522.764 538.879C522.427 538.716 522.048 538.635 521.627 538.635C521.181 538.635 520.79 538.728 520.457 538.913C520.127 539.095 519.872 539.351 519.69 539.68C519.512 540.01 519.423 540.396 519.423 540.839H518.082C518.082 540.157 518.239 539.559 518.554 539.044C518.868 538.529 519.296 538.127 519.838 537.839C520.383 537.551 520.995 537.407 521.673 537.407C522.355 537.407 522.959 537.551 523.485 537.839C524.012 538.127 524.425 538.515 524.724 539.004C525.023 539.493 525.173 540.036 525.173 540.635C525.173 541.063 525.095 541.481 524.94 541.89C524.788 542.296 524.523 542.748 524.145 543.248C523.77 543.745 523.249 544.351 522.582 545.067L519.968 547.862V547.953H525.377V549.203H518.037ZM531.52 549.362C530.663 549.362 529.934 549.129 529.332 548.663C528.73 548.193 528.27 547.514 527.951 546.623C527.633 545.729 527.474 544.65 527.474 543.385C527.474 542.127 527.633 541.053 527.951 540.163C528.273 539.269 528.735 538.587 529.338 538.118C529.944 537.644 530.671 537.407 531.52 537.407C532.368 537.407 533.093 537.644 533.696 538.118C534.302 538.587 534.764 539.269 535.082 540.163C535.404 541.053 535.565 542.127 535.565 543.385C535.565 544.65 535.406 545.729 535.088 546.623C534.77 547.514 534.309 548.193 533.707 548.663C533.105 549.129 532.376 549.362 531.52 549.362ZM531.52 548.112C532.368 548.112 533.027 547.703 533.497 546.885C533.967 546.067 534.201 544.9 534.201 543.385C534.201 542.377 534.093 541.519 533.877 540.811C533.665 540.103 533.359 539.563 532.957 539.192C532.559 538.82 532.08 538.635 531.52 538.635C530.679 538.635 530.021 539.05 529.548 539.879C529.074 540.705 528.838 541.873 528.838 543.385C528.838 544.392 528.944 545.248 529.156 545.953C529.368 546.657 529.673 547.193 530.071 547.561C530.472 547.928 530.955 548.112 531.52 548.112ZM541.52 549.362C540.663 549.362 539.934 549.129 539.332 548.663C538.73 548.193 538.27 547.514 537.951 546.623C537.633 545.729 537.474 544.65 537.474 543.385C537.474 542.127 537.633 541.053 537.951 540.163C538.273 539.269 538.735 538.587 539.338 538.118C539.944 537.644 540.671 537.407 541.52 537.407C542.368 537.407 543.093 537.644 543.696 538.118C544.302 538.587 544.764 539.269 545.082 540.163C545.404 541.053 545.565 542.127 545.565 543.385C545.565 544.65 545.406 545.729 545.088 546.623C544.77 547.514 544.309 548.193 543.707 548.663C543.105 549.129 542.376 549.362 541.52 549.362ZM541.52 548.112C542.368 548.112 543.027 547.703 543.497 546.885C543.967 546.067 544.201 544.9 544.201 543.385C544.201 542.377 544.093 541.519 543.877 540.811C543.665 540.103 543.359 539.563 542.957 539.192C542.559 538.82 542.08 538.635 541.52 538.635C540.679 538.635 540.021 539.05 539.548 539.879C539.074 540.705 538.838 541.873 538.838 543.385C538.838 544.392 538.944 545.248 539.156 545.953C539.368 546.657 539.673 547.193 540.071 547.561C540.472 547.928 540.955 548.112 541.52 548.112Z" fill="#7B7B7B"/>
<path d="M662.514 527.581V534.094" stroke="#7B7B7B" stroke-width="1.05596"/>
<path d="M793.849 527.581V534.094" stroke="#7B7B7B" stroke-width="1.05596"/>
<path d="M784.888 549.362C784.138 549.362 783.47 549.233 782.883 548.976C782.299 548.718 781.835 548.36 781.491 547.902C781.15 547.44 780.964 546.904 780.934 546.294H782.366C782.396 546.669 782.525 546.993 782.752 547.265C782.979 547.534 783.277 547.743 783.644 547.89C784.012 548.038 784.419 548.112 784.866 548.112C785.366 548.112 785.809 548.025 786.195 547.851C786.582 547.676 786.885 547.434 787.104 547.123C787.324 546.813 787.434 546.453 787.434 546.044C787.434 545.616 787.328 545.239 787.116 544.913C786.904 544.584 786.593 544.326 786.184 544.14C785.775 543.955 785.275 543.862 784.684 543.862H783.752V542.612H784.684C785.146 542.612 785.551 542.529 785.9 542.362C786.252 542.195 786.527 541.961 786.724 541.657C786.924 541.354 787.025 540.998 787.025 540.589C787.025 540.195 786.938 539.853 786.763 539.561C786.589 539.269 786.343 539.042 786.025 538.879C785.71 538.716 785.339 538.635 784.911 538.635C784.51 538.635 784.131 538.709 783.775 538.856C783.423 539 783.135 539.211 782.911 539.487C782.688 539.76 782.566 540.089 782.548 540.476H781.184C781.207 539.866 781.39 539.332 781.735 538.873C782.08 538.411 782.53 538.051 783.087 537.794C783.648 537.536 784.263 537.407 784.934 537.407C785.654 537.407 786.271 537.553 786.786 537.845C787.301 538.133 787.697 538.514 787.974 538.987C788.25 539.461 788.388 539.972 788.388 540.521C788.388 541.176 788.216 541.735 787.871 542.197C787.53 542.659 787.066 542.979 786.479 543.157V543.248C787.214 543.37 787.788 543.682 788.201 544.186C788.614 544.686 788.82 545.305 788.82 546.044C788.82 546.676 788.648 547.245 788.303 547.748C787.962 548.248 787.496 548.642 786.905 548.93C786.315 549.218 785.642 549.362 784.888 549.362ZM794.94 549.362C794.084 549.362 793.354 549.129 792.752 548.663C792.15 548.193 791.69 547.514 791.371 546.623C791.053 545.729 790.894 544.65 790.894 543.385C790.894 542.127 791.053 541.053 791.371 540.163C791.693 539.269 792.155 538.587 792.758 538.118C793.364 537.644 794.091 537.407 794.94 537.407C795.788 537.407 796.513 537.644 797.116 538.118C797.722 538.587 798.184 539.269 798.502 540.163C798.824 541.053 798.985 542.127 798.985 543.385C798.985 544.65 798.826 545.729 798.508 546.623C798.19 547.514 797.729 548.193 797.127 548.663C796.525 549.129 795.796 549.362 794.94 549.362ZM794.94 548.112C795.788 548.112 796.447 547.703 796.917 546.885C797.387 546.067 797.621 544.9 797.621 543.385C797.621 542.377 797.513 541.519 797.298 540.811C797.085 540.103 796.779 539.563 796.377 539.192C795.979 538.82 795.5 538.635 794.94 538.635C794.099 538.635 793.441 539.05 792.968 539.879C792.494 540.705 792.258 541.873 792.258 543.385C792.258 544.392 792.364 545.248 792.576 545.953C792.788 546.657 793.093 547.193 793.491 547.561C793.892 547.928 794.375 548.112 794.94 548.112ZM804.94 549.362C804.084 549.362 803.354 549.129 802.752 548.663C802.15 548.193 801.69 547.514 801.371 546.623C801.053 545.729 800.894 544.65 800.894 543.385C800.894 542.127 801.053 541.053 801.371 540.163C801.693 539.269 802.155 538.587 802.758 538.118C803.364 537.644 804.091 537.407 804.94 537.407C805.788 537.407 806.513 537.644 807.116 538.118C807.722 538.587 808.184 539.269 808.502 540.163C808.824 541.053 808.985 542.127 808.985 543.385C808.985 544.65 808.826 545.729 808.508 546.623C808.19 547.514 807.729 548.193 807.127 548.663C806.525 549.129 805.796 549.362 804.94 549.362ZM804.94 548.112C805.788 548.112 806.447 547.703 806.917 546.885C807.387 546.067 807.621 544.9 807.621 543.385C807.621 542.377 807.513 541.519 807.298 540.811C807.085 540.103 806.779 539.563 806.377 539.192C805.979 538.82 805.5 538.635 804.94 538.635C804.099 538.635 803.441 539.05 802.968 539.879C802.494 540.705 802.258 541.873 802.258 543.385C802.258 544.392 802.364 545.248 802.576 545.953C802.788 546.657 803.093 547.193 803.491 547.561C803.892 547.928 804.375 548.112 804.94 548.112Z" fill="#7B7B7B"/>
<path d="M925.184 527.581V534.094" stroke="#7B7B7B" stroke-width="1.05596"/>
<path d="M1056.52 527.581V534.094" stroke="#7B7B7B" stroke-width="1.05596"/>
<path d="M1043.31 546.817V545.657L1048.43 537.567H1049.27V539.362H1048.7L1044.84 545.476V545.567H1051.72V546.817H1043.31ZM1048.79 549.203V546.464V545.925V537.567H1050.13V549.203H1048.79ZM1057.65 549.362C1056.79 549.362 1056.06 549.129 1055.46 548.663C1054.86 548.193 1054.4 547.514 1054.08 546.623C1053.76 545.729 1053.6 544.65 1053.6 543.385C1053.6 542.127 1053.76 541.053 1054.08 540.163C1054.4 539.269 1054.86 538.587 1055.47 538.118C1056.07 537.644 1056.8 537.407 1057.65 537.407C1058.5 537.407 1059.22 537.644 1059.82 538.118C1060.43 538.587 1060.89 539.269 1061.21 540.163C1061.53 541.053 1061.69 542.127 1061.69 543.385C1061.69 544.65 1061.53 545.729 1061.22 546.623C1060.9 547.514 1060.44 548.193 1059.84 548.663C1059.23 549.129 1058.5 549.362 1057.65 549.362ZM1057.65 548.112C1058.5 548.112 1059.16 547.703 1059.63 546.885C1060.1 546.067 1060.33 544.9 1060.33 543.385C1060.33 542.377 1060.22 541.519 1060.01 540.811C1059.79 540.103 1059.49 539.563 1059.09 539.192C1058.69 538.82 1058.21 538.635 1057.65 538.635C1056.81 538.635 1056.15 539.05 1055.68 539.879C1055.2 540.705 1054.97 541.873 1054.97 543.385C1054.97 544.392 1055.07 545.248 1055.28 545.953C1055.5 546.657 1055.8 547.193 1056.2 547.561C1056.6 547.928 1057.08 548.112 1057.65 548.112ZM1067.65 549.362C1066.79 549.362 1066.06 549.129 1065.46 548.663C1064.86 548.193 1064.4 547.514 1064.08 546.623C1063.76 545.729 1063.6 544.65 1063.6 543.385C1063.6 542.127 1063.76 541.053 1064.08 540.163C1064.4 539.269 1064.86 538.587 1065.47 538.118C1066.07 537.644 1066.8 537.407 1067.65 537.407C1068.5 537.407 1069.22 537.644 1069.82 538.118C1070.43 538.587 1070.89 539.269 1071.21 540.163C1071.53 541.053 1071.69 542.127 1071.69 543.385C1071.69 544.65 1071.53 545.729 1071.22 546.623C1070.9 547.514 1070.44 548.193 1069.84 548.663C1069.23 549.129 1068.5 549.362 1067.65 549.362ZM1067.65 548.112C1068.5 548.112 1069.16 547.703 1069.63 546.885C1070.1 546.067 1070.33 544.9 1070.33 543.385C1070.33 542.377 1070.22 541.519 1070.01 540.811C1069.79 540.103 1069.49 539.563 1069.09 539.192C1068.69 538.82 1068.21 538.635 1067.65 538.635C1066.81 538.635 1066.15 539.05 1065.68 539.879C1065.2 540.705 1064.97 541.873 1064.97 543.385C1064.97 544.392 1065.07 545.248 1065.28 545.953C1065.5 546.657 1065.8 547.193 1066.2 547.561C1066.6 547.928 1067.08 548.112 1067.65 548.112Z" fill="#7B7B7B"/>
<path d="M946.08 516.301V500.553H956.876V503.217H949.26V506.945H955.834V509.609H949.26V516.301H946.08ZM962.376 516.301H959.357V504.893H962.161V506.515C962.641 505.749 963.071 505.244 963.45 505C963.837 504.757 964.274 504.635 964.761 504.635C965.448 504.635 966.111 504.825 966.748 505.204L965.813 507.836C965.305 507.507 964.832 507.342 964.396 507.342C963.973 507.342 963.615 507.46 963.321 507.697C963.028 507.926 962.795 508.345 962.623 508.953C962.458 509.562 962.376 510.837 962.376 512.778V516.301ZM974.665 512.67L977.673 513.175C977.286 514.278 976.674 515.12 975.836 515.7C975.005 516.273 973.963 516.559 972.71 516.559C970.726 516.559 969.258 515.911 968.306 514.615C967.554 513.576 967.178 512.266 967.178 510.683C967.178 508.792 967.672 507.314 968.66 506.246C969.648 505.172 970.898 504.635 972.409 504.635C974.106 504.635 975.446 505.197 976.427 506.322C977.408 507.439 977.877 509.154 977.834 511.467H970.271C970.293 512.362 970.536 513.061 971.002 513.562C971.467 514.056 972.048 514.303 972.742 514.303C973.215 514.303 973.612 514.174 973.935 513.916C974.257 513.659 974.5 513.243 974.665 512.67ZM974.837 509.62C974.815 508.746 974.59 508.083 974.16 507.632C973.73 507.174 973.208 506.945 972.592 506.945C971.933 506.945 971.389 507.185 970.959 507.664C970.529 508.144 970.318 508.796 970.325 509.62H974.837ZM987.76 520.641V514.905C987.366 515.413 986.875 515.818 986.288 516.119C985.701 516.412 985.067 516.559 984.387 516.559C983.09 516.559 982.023 516.072 981.186 515.098C980.197 513.959 979.703 512.416 979.703 510.468C979.703 508.635 980.165 507.206 981.089 506.182C982.02 505.151 983.173 504.635 984.548 504.635C985.307 504.635 985.962 504.796 986.514 505.119C987.072 505.441 987.566 505.928 987.996 506.579V504.893H990.778V520.641H987.76ZM987.856 510.457C987.856 509.29 987.617 508.424 987.137 507.858C986.664 507.285 986.07 506.998 985.354 506.998C984.623 506.998 984.011 507.288 983.517 507.869C983.03 508.449 982.786 509.369 982.786 510.629C982.786 511.883 983.022 512.788 983.495 513.347C983.968 513.898 984.551 514.174 985.246 514.174C985.941 514.174 986.549 513.863 987.072 513.24C987.595 512.617 987.856 511.689 987.856 510.457ZM1001.26 516.301V514.593C1000.85 515.202 1000.3 515.682 999.619 516.033C998.946 516.384 998.233 516.559 997.481 516.559C996.715 516.559 996.028 516.391 995.419 516.054C994.81 515.717 994.37 515.245 994.098 514.636C993.826 514.027 993.689 513.186 993.689 512.112V504.893H996.708V510.135C996.708 511.739 996.762 512.724 996.869 513.089C996.984 513.447 997.188 513.734 997.481 513.949C997.775 514.156 998.147 514.26 998.599 514.26C999.114 514.26 999.576 514.12 999.984 513.841C1000.39 513.555 1000.67 513.204 1000.82 512.788C1000.97 512.366 1001.05 511.338 1001.05 509.705V504.893H1004.07V516.301H1001.26ZM1013.81 512.67L1016.82 513.175C1016.43 514.278 1015.82 515.12 1014.98 515.7C1014.15 516.273 1013.11 516.559 1011.85 516.559C1009.87 516.559 1008.4 515.911 1007.45 514.615C1006.7 513.576 1006.32 512.266 1006.32 510.683C1006.32 508.792 1006.82 507.314 1007.8 506.246C1008.79 505.172 1010.04 504.635 1011.55 504.635C1013.25 504.635 1014.59 505.197 1015.57 506.322C1016.55 507.439 1017.02 509.154 1016.98 511.467H1009.42C1009.44 512.362 1009.68 513.061 1010.15 513.562C1010.61 514.056 1011.19 514.303 1011.89 514.303C1012.36 514.303 1012.76 514.174 1013.08 513.916C1013.4 513.659 1013.64 513.243 1013.81 512.67ZM1013.98 509.62C1013.96 508.746 1013.73 508.083 1013.3 507.632C1012.88 507.174 1012.35 506.945 1011.74 506.945C1011.08 506.945 1010.53 507.185 1010.1 507.664C1009.67 508.144 1009.46 508.796 1009.47 509.62H1013.98ZM1029.83 516.301H1026.81V510.479C1026.81 509.247 1026.74 508.452 1026.61 508.094C1026.49 507.729 1026.27 507.446 1025.98 507.245C1025.69 507.045 1025.35 506.945 1024.94 506.945C1024.42 506.945 1023.95 507.088 1023.53 507.374C1023.12 507.661 1022.83 508.04 1022.67 508.513C1022.52 508.986 1022.45 509.859 1022.45 511.134V516.301H1019.43V504.893H1022.23V506.569C1023.23 505.28 1024.48 504.635 1025.99 504.635C1026.66 504.635 1027.27 504.757 1027.82 505C1028.37 505.237 1028.78 505.541 1029.06 505.913C1029.35 506.286 1029.55 506.708 1029.65 507.181C1029.77 507.654 1029.83 508.33 1029.83 509.211V516.301ZM1042.85 508.266L1039.87 508.803C1039.77 508.209 1039.54 507.761 1039.18 507.46C1038.83 507.16 1038.37 507.009 1037.81 507.009C1037.06 507.009 1036.45 507.271 1036 507.793C1035.56 508.309 1035.34 509.175 1035.34 510.393C1035.34 511.746 1035.56 512.703 1036.01 513.261C1036.47 513.82 1037.08 514.099 1037.85 514.099C1038.42 514.099 1038.89 513.938 1039.26 513.616C1039.62 513.286 1039.88 512.724 1040.03 511.929L1043 512.434C1042.69 513.795 1042.1 514.822 1041.22 515.517C1040.35 516.212 1039.18 516.559 1037.71 516.559C1036.04 516.559 1034.71 516.033 1033.71 514.98C1032.73 513.927 1032.23 512.47 1032.23 510.608C1032.23 508.724 1032.73 507.26 1033.73 506.214C1034.72 505.161 1036.07 504.635 1037.76 504.635C1039.15 504.635 1040.26 504.936 1041.07 505.537C1041.9 506.132 1042.49 507.041 1042.85 508.266ZM1043.72 504.893H1046.93L1049.66 512.993L1052.32 504.893H1055.45L1051.42 515.871L1050.7 517.859C1050.43 518.525 1050.18 519.033 1049.94 519.384C1049.7 519.735 1049.42 520.018 1049.11 520.233C1048.8 520.455 1048.42 520.627 1047.96 520.748C1047.51 520.87 1047 520.931 1046.42 520.931C1045.84 520.931 1045.27 520.87 1044.71 520.748L1044.45 518.385C1044.92 518.478 1045.35 518.525 1045.72 518.525C1046.43 518.525 1046.95 518.317 1047.28 517.902C1047.62 517.494 1047.88 516.971 1048.06 516.333L1043.72 504.893Z" fill="#7B7B7B"/>
<path d="M5.83943 13.0266V525.953" stroke="#7B7B7B" stroke-width="1.05596"/>
<path d="M5.83946 147.636H1056.52" stroke="#CCCCCC" stroke-width="1.05596"/>
<path d="M4.7835 271.98H1055.46" stroke="#CCCCCC" stroke-width="1.05596"/>
<path d="M5.83943 396.229H1056.52" stroke="#CCCCCC" stroke-width="1.05596"/>
<path d="M18.2273 174.273V162.273H19.5227V163.659H19.6818C19.7803 163.508 19.9167 163.314 20.0909 163.08C20.2689 162.841 20.5227 162.629 20.8523 162.443C21.1856 162.254 21.6364 162.159 22.2045 162.159C22.9394 162.159 23.5871 162.343 24.1477 162.71C24.7083 163.078 25.1458 163.598 25.4602 164.273C25.7746 164.947 25.9318 165.742 25.9318 166.659C25.9318 167.583 25.7746 168.384 25.4602 169.062C25.1458 169.737 24.7102 170.259 24.1534 170.631C23.5966 170.998 22.9545 171.182 22.2273 171.182C21.6667 171.182 21.2178 171.089 20.8807 170.903C20.5436 170.714 20.2841 170.5 20.1023 170.261C19.9205 170.019 19.7803 169.818 19.6818 169.659H19.5682V174.273H18.2273ZM19.5455 166.636C19.5455 167.295 19.642 167.877 19.8352 168.381C20.0284 168.881 20.3106 169.273 20.6818 169.557C21.053 169.837 21.5076 169.977 22.0455 169.977C22.6061 169.977 23.0739 169.83 23.4489 169.534C23.8277 169.235 24.1117 168.833 24.3011 168.33C24.4943 167.822 24.5909 167.258 24.5909 166.636C24.5909 166.023 24.4962 165.47 24.3068 164.977C24.1212 164.481 23.839 164.089 23.4602 163.801C23.0852 163.509 22.6136 163.364 22.0455 163.364C21.5 163.364 21.0417 163.502 20.6705 163.778C20.2992 164.051 20.0189 164.434 19.8295 164.926C19.6402 165.415 19.5455 165.985 19.5455 166.636ZM31.5227 171.182C30.7348 171.182 30.0436 170.994 29.4489 170.619C28.858 170.244 28.3958 169.72 28.0625 169.045C27.733 168.371 27.5682 167.583 27.5682 166.682C27.5682 165.773 27.733 164.979 28.0625 164.301C28.3958 163.623 28.858 163.097 29.4489 162.722C30.0436 162.347 30.7348 162.159 31.5227 162.159C32.3106 162.159 33 162.347 33.5909 162.722C34.1856 163.097 34.6477 163.623 34.9773 164.301C35.3106 164.979 35.4773 165.773 35.4773 166.682C35.4773 167.583 35.3106 168.371 34.9773 169.045C34.6477 169.72 34.1856 170.244 33.5909 170.619C33 170.994 32.3106 171.182 31.5227 171.182ZM31.5227 169.977C32.1212 169.977 32.6136 169.824 33 169.517C33.3864 169.21 33.6723 168.807 33.858 168.307C34.0436 167.807 34.1364 167.265 34.1364 166.682C34.1364 166.098 34.0436 165.555 33.858 165.051C33.6723 164.547 33.3864 164.14 33 163.83C32.6136 163.519 32.1212 163.364 31.5227 163.364C30.9242 163.364 30.4318 163.519 30.0455 163.83C29.6591 164.14 29.3731 164.547 29.1875 165.051C29.0019 165.555 28.9091 166.098 28.9091 166.682C28.9091 167.265 29.0019 167.807 29.1875 168.307C29.3731 168.807 29.6591 169.21 30.0455 169.517C30.4318 169.824 30.9242 169.977 31.5227 169.977ZM43.706 164.227L42.5014 164.568C42.4257 164.367 42.3139 164.172 42.1662 163.983C42.0223 163.79 41.8253 163.631 41.5753 163.506C41.3253 163.381 41.0052 163.318 40.6151 163.318C40.081 163.318 39.6359 163.441 39.2798 163.688C38.9276 163.93 38.7514 164.239 38.7514 164.614C38.7514 164.947 38.8726 165.21 39.1151 165.403C39.3575 165.597 39.7363 165.758 40.2514 165.886L41.5469 166.205C42.3272 166.394 42.9086 166.684 43.2912 167.074C43.6738 167.46 43.8651 167.958 43.8651 168.568C43.8651 169.068 43.7211 169.515 43.4332 169.909C43.1491 170.303 42.7514 170.614 42.2401 170.841C41.7287 171.068 41.134 171.182 40.456 171.182C39.5658 171.182 38.8291 170.989 38.2457 170.602C37.6624 170.216 37.2931 169.652 37.1378 168.909L38.4105 168.591C38.5317 169.061 38.7609 169.413 39.098 169.648C39.4389 169.883 39.884 170 40.4332 170C41.0582 170 41.5545 169.867 41.9219 169.602C42.2931 169.333 42.4787 169.011 42.4787 168.636C42.4787 168.333 42.3726 168.08 42.1605 167.875C41.9484 167.667 41.6226 167.511 41.1832 167.409L39.7287 167.068C38.9295 166.879 38.3423 166.585 37.9673 166.188C37.5961 165.786 37.4105 165.284 37.4105 164.682C37.4105 164.189 37.5488 163.754 37.8253 163.375C38.1056 162.996 38.4863 162.699 38.9673 162.483C39.4522 162.267 40.0014 162.159 40.6151 162.159C41.4787 162.159 42.1567 162.348 42.6491 162.727C43.1454 163.106 43.4976 163.606 43.706 164.227ZM45.8835 171V162.273H47.2244V171H45.8835ZM46.5653 160.818C46.304 160.818 46.0786 160.729 45.8892 160.551C45.7036 160.373 45.6108 160.159 45.6108 159.909C45.6108 159.659 45.7036 159.445 45.8892 159.267C46.0786 159.089 46.304 159 46.5653 159C46.8267 159 47.0502 159.089 47.2358 159.267C47.4252 159.445 47.5199 159.659 47.5199 159.909C47.5199 160.159 47.4252 160.373 47.2358 160.551C47.0502 160.729 46.8267 160.818 46.5653 160.818ZM53.4759 162.273V163.409H48.9531V162.273H53.4759ZM50.2713 160.182H51.6122V168.5C51.6122 168.879 51.6671 169.163 51.777 169.352C51.8906 169.538 52.0346 169.663 52.2088 169.727C52.3868 169.788 52.5743 169.818 52.7713 169.818C52.919 169.818 53.0402 169.811 53.1349 169.795C53.2296 169.777 53.3054 169.761 53.3622 169.75L53.6349 170.955C53.544 170.989 53.4171 171.023 53.2543 171.057C53.0914 171.095 52.8849 171.114 52.6349 171.114C52.2562 171.114 51.8849 171.032 51.5213 170.869C51.1615 170.706 50.8622 170.458 50.6236 170.125C50.3887 169.792 50.2713 169.371 50.2713 168.864V160.182ZM55.4929 171V162.273H56.8338V171H55.4929ZM56.1747 160.818C55.9134 160.818 55.688 160.729 55.4986 160.551C55.313 160.373 55.2202 160.159 55.2202 159.909C55.2202 159.659 55.313 159.445 55.4986 159.267C55.688 159.089 55.9134 159 56.1747 159C56.4361 159 56.6596 159.089 56.8452 159.267C57.0346 159.445 57.1293 159.659 57.1293 159.909C57.1293 160.159 57.0346 160.373 56.8452 160.551C56.6596 160.729 56.4361 160.818 56.1747 160.818ZM66.4261 162.273L63.1989 171H61.8352L58.608 162.273H60.0625L62.4716 169.227H62.5625L64.9716 162.273H66.4261ZM71.5426 171.182C70.7017 171.182 69.9763 170.996 69.3665 170.625C68.7604 170.25 68.2926 169.727 67.9631 169.057C67.6373 168.383 67.4744 167.598 67.4744 166.705C67.4744 165.811 67.6373 165.023 67.9631 164.341C68.2926 163.655 68.7509 163.121 69.3381 162.739C69.929 162.352 70.6184 162.159 71.4062 162.159C71.8608 162.159 72.3097 162.235 72.7528 162.386C73.196 162.538 73.5994 162.784 73.9631 163.125C74.3267 163.462 74.6165 163.909 74.8324 164.466C75.0483 165.023 75.1562 165.708 75.1562 166.523V167.091H68.429V165.932H73.7926C73.7926 165.439 73.6941 165 73.4972 164.614C73.304 164.227 73.0275 163.922 72.6676 163.699C72.3116 163.475 71.8911 163.364 71.4062 163.364C70.8722 163.364 70.41 163.496 70.0199 163.761C69.6335 164.023 69.3362 164.364 69.1278 164.784C68.9195 165.205 68.8153 165.655 68.8153 166.136V166.909C68.8153 167.568 68.929 168.127 69.1562 168.585C69.3873 169.04 69.7074 169.386 70.1165 169.625C70.5256 169.86 71.0009 169.977 71.5426 169.977C71.8949 169.977 72.2131 169.928 72.4972 169.83C72.785 169.727 73.0331 169.576 73.2415 169.375C73.4498 169.17 73.6108 168.917 73.7244 168.614L75.0199 168.977C74.8835 169.417 74.6544 169.803 74.3324 170.136C74.0104 170.466 73.6127 170.723 73.1392 170.909C72.6657 171.091 72.1335 171.182 71.5426 171.182Z" fill="#7B7B7B"/>
<path d="M19.5682 296.75V302H18.2273V293.273H19.5227V294.636H19.6364C19.8409 294.193 20.1515 293.837 20.5682 293.568C20.9848 293.295 21.5227 293.159 22.1818 293.159C22.7727 293.159 23.2898 293.28 23.733 293.523C24.1761 293.761 24.5208 294.125 24.767 294.614C25.0133 295.098 25.1364 295.712 25.1364 296.455V302H23.7955V296.545C23.7955 295.86 23.6174 295.326 23.2614 294.943C22.9053 294.557 22.4167 294.364 21.7955 294.364C21.3674 294.364 20.9848 294.456 20.6477 294.642C20.3144 294.828 20.0511 295.098 19.858 295.455C19.6648 295.811 19.5682 296.242 19.5682 296.75ZM31.2457 302.182C30.4048 302.182 29.6795 301.996 29.0696 301.625C28.4635 301.25 27.9957 300.727 27.6662 300.057C27.3404 299.383 27.1776 298.598 27.1776 297.705C27.1776 296.811 27.3404 296.023 27.6662 295.341C27.9957 294.655 28.4541 294.121 29.0412 293.739C29.6321 293.352 30.3215 293.159 31.1094 293.159C31.5639 293.159 32.0128 293.235 32.456 293.386C32.8991 293.538 33.3026 293.784 33.6662 294.125C34.0298 294.462 34.3196 294.909 34.5355 295.466C34.7514 296.023 34.8594 296.708 34.8594 297.523V298.091H28.1321V296.932H33.4957C33.4957 296.439 33.3973 296 33.2003 295.614C33.0071 295.227 32.7306 294.922 32.3707 294.699C32.0147 294.475 31.5942 294.364 31.1094 294.364C30.5753 294.364 30.1132 294.496 29.723 294.761C29.3366 295.023 29.0393 295.364 28.831 295.784C28.6226 296.205 28.5185 296.655 28.5185 297.136V297.909C28.5185 298.568 28.6321 299.127 28.8594 299.585C29.0904 300.04 29.4105 300.386 29.8196 300.625C30.2287 300.86 30.7041 300.977 31.2457 300.977C31.598 300.977 31.9162 300.928 32.2003 300.83C32.4882 300.727 32.7363 300.576 32.9446 300.375C33.1529 300.17 33.3139 299.917 33.4276 299.614L34.723 299.977C34.5866 300.417 34.3575 300.803 34.0355 301.136C33.7135 301.466 33.3158 301.723 32.8423 301.909C32.3688 302.091 31.8366 302.182 31.2457 302.182ZM42.3991 298.432V293.273H43.7401V302H42.3991V300.523H42.3082C42.1037 300.966 41.7855 301.343 41.3537 301.653C40.9219 301.96 40.3764 302.114 39.7173 302.114C39.1719 302.114 38.687 301.994 38.2628 301.756C37.8385 301.513 37.5052 301.15 37.2628 300.665C37.0204 300.176 36.8991 299.561 36.8991 298.818V293.273H38.2401V298.727C38.2401 299.364 38.4181 299.871 38.7741 300.25C39.134 300.629 39.5923 300.818 40.1491 300.818C40.4825 300.818 40.8215 300.733 41.1662 300.562C41.5147 300.392 41.8063 300.131 42.0412 299.778C42.2798 299.426 42.3991 298.977 42.3991 298.432ZM49.9915 293.273V294.409H45.4688V293.273H49.9915ZM46.7869 291.182H48.1278V299.5C48.1278 299.879 48.1828 300.163 48.2926 300.352C48.4063 300.538 48.5502 300.663 48.7244 300.727C48.9025 300.788 49.09 300.818 49.2869 300.818C49.4347 300.818 49.5559 300.811 49.6506 300.795C49.7453 300.777 49.821 300.761 49.8778 300.75L50.1506 301.955C50.0597 301.989 49.9328 302.023 49.7699 302.057C49.607 302.095 49.4006 302.114 49.1506 302.114C48.7718 302.114 48.4006 302.032 48.0369 301.869C47.6771 301.706 47.3778 301.458 47.1392 301.125C46.9044 300.792 46.7869 300.371 46.7869 299.864V291.182ZM52.0085 302V293.273H53.304V294.591H53.3949C53.554 294.159 53.8419 293.809 54.2585 293.54C54.6752 293.271 55.1449 293.136 55.6676 293.136C55.7661 293.136 55.8892 293.138 56.0369 293.142C56.1847 293.146 56.2964 293.152 56.3722 293.159V294.523C56.3267 294.511 56.2225 294.494 56.0597 294.472C55.9006 294.445 55.732 294.432 55.554 294.432C55.1297 294.432 54.7509 294.521 54.4176 294.699C54.0881 294.873 53.8267 295.116 53.6335 295.426C53.4441 295.733 53.3494 296.083 53.3494 296.477V302H52.0085ZM60.5298 302.205C59.9768 302.205 59.4749 302.1 59.0241 301.892C58.5734 301.68 58.2154 301.375 57.9503 300.977C57.6851 300.576 57.5526 300.091 57.5526 299.523C57.5526 299.023 57.651 298.617 57.848 298.307C58.045 297.992 58.3082 297.746 58.6378 297.568C58.9673 297.39 59.331 297.258 59.7287 297.17C60.1302 297.08 60.5336 297.008 60.9389 296.955C61.4692 296.886 61.8991 296.835 62.2287 296.801C62.562 296.763 62.8045 296.701 62.956 296.614C63.1113 296.527 63.1889 296.375 63.1889 296.159V296.114C63.1889 295.553 63.0355 295.117 62.7287 294.807C62.4257 294.496 61.9654 294.341 61.348 294.341C60.7079 294.341 60.206 294.481 59.8423 294.761C59.4787 295.042 59.223 295.341 59.0753 295.659L57.8026 295.205C58.0298 294.674 58.3329 294.261 58.7116 293.966C59.0942 293.667 59.5109 293.458 59.9616 293.341C60.4162 293.22 60.8632 293.159 61.3026 293.159C61.5829 293.159 61.9048 293.193 62.2685 293.261C62.6359 293.326 62.9901 293.46 63.331 293.665C63.6757 293.869 63.9616 294.178 64.1889 294.591C64.4162 295.004 64.5298 295.557 64.5298 296.25V302H63.1889V300.818H63.1207C63.0298 301.008 62.8783 301.21 62.6662 301.426C62.4541 301.642 62.1719 301.826 61.8196 301.977C61.4673 302.129 61.0374 302.205 60.5298 302.205ZM60.7344 301C61.2647 301 61.7116 300.896 62.0753 300.688C62.4427 300.479 62.7192 300.21 62.9048 299.881C63.0942 299.551 63.1889 299.205 63.1889 298.841V297.614C63.1321 297.682 63.0071 297.744 62.8139 297.801C62.6245 297.854 62.4048 297.902 62.1548 297.943C61.9086 297.981 61.6681 298.015 61.4332 298.045C61.2022 298.072 61.0147 298.095 60.8707 298.114C60.5223 298.159 60.1965 298.233 59.8935 298.335C59.5942 298.434 59.3518 298.583 59.1662 298.784C58.9844 298.981 58.8935 299.25 58.8935 299.591C58.8935 300.057 59.0658 300.409 59.4105 300.648C59.759 300.883 60.2003 301 60.7344 301ZM68.3182 290.364V302H66.9773V290.364H68.3182Z" fill="#7B7B7B"/>
<path d="M19.5682 421.75V427H18.2273V418.273H19.5227V419.636H19.6364C19.8409 419.193 20.1515 418.837 20.5682 418.568C20.9848 418.295 21.5227 418.159 22.1818 418.159C22.7727 418.159 23.2898 418.28 23.733 418.523C24.1761 418.761 24.5208 419.125 24.767 419.614C25.0133 420.098 25.1364 420.712 25.1364 421.455V427H23.7955V421.545C23.7955 420.86 23.6174 420.326 23.2614 419.943C22.9053 419.557 22.4167 419.364 21.7955 419.364C21.3674 419.364 20.9848 419.456 20.6477 419.642C20.3144 419.828 20.0511 420.098 19.858 420.455C19.6648 420.811 19.5682 421.242 19.5682 421.75ZM31.2457 427.182C30.4048 427.182 29.6795 426.996 29.0696 426.625C28.4635 426.25 27.9957 425.727 27.6662 425.057C27.3404 424.383 27.1776 423.598 27.1776 422.705C27.1776 421.811 27.3404 421.023 27.6662 420.341C27.9957 419.655 28.4541 419.121 29.0412 418.739C29.6321 418.352 30.3215 418.159 31.1094 418.159C31.5639 418.159 32.0128 418.235 32.456 418.386C32.8991 418.538 33.3026 418.784 33.6662 419.125C34.0298 419.462 34.3196 419.909 34.5355 420.466C34.7514 421.023 34.8594 421.708 34.8594 422.523V423.091H28.1321V421.932H33.4957C33.4957 421.439 33.3973 421 33.2003 420.614C33.0071 420.227 32.7306 419.922 32.3707 419.699C32.0147 419.475 31.5942 419.364 31.1094 419.364C30.5753 419.364 30.1132 419.496 29.723 419.761C29.3366 420.023 29.0393 420.364 28.831 420.784C28.6226 421.205 28.5185 421.655 28.5185 422.136V422.909C28.5185 423.568 28.6321 424.127 28.8594 424.585C29.0904 425.04 29.4105 425.386 29.8196 425.625C30.2287 425.86 30.7041 425.977 31.2457 425.977C31.598 425.977 31.9162 425.928 32.2003 425.83C32.4882 425.727 32.7363 425.576 32.9446 425.375C33.1529 425.17 33.3139 424.917 33.4276 424.614L34.723 424.977C34.5866 425.417 34.3575 425.803 34.0355 426.136C33.7135 426.466 33.3158 426.723 32.8423 426.909C32.3688 427.091 31.8366 427.182 31.2457 427.182ZM40.4219 430.455C39.7741 430.455 39.2173 430.371 38.7514 430.205C38.2855 430.042 37.8973 429.826 37.5866 429.557C37.2798 429.292 37.0355 429.008 36.8537 428.705L37.9219 427.955C38.0431 428.114 38.1965 428.295 38.3821 428.5C38.5677 428.708 38.8215 428.888 39.1435 429.04C39.4692 429.195 39.8954 429.273 40.4219 429.273C41.1264 429.273 41.7079 429.102 42.1662 428.761C42.6245 428.42 42.8537 427.886 42.8537 427.159V425.386H42.7401C42.6416 425.545 42.5014 425.742 42.3196 425.977C42.1416 426.208 41.884 426.415 41.5469 426.597C41.2135 426.775 40.7628 426.864 40.1946 426.864C39.4901 426.864 38.8575 426.697 38.2969 426.364C37.7401 426.03 37.2988 425.545 36.973 424.909C36.651 424.273 36.4901 423.5 36.4901 422.591C36.4901 421.697 36.6473 420.919 36.9616 420.256C37.276 419.589 37.7135 419.074 38.2741 418.71C38.8348 418.343 39.4825 418.159 40.2173 418.159C40.7855 418.159 41.2363 418.254 41.5696 418.443C41.9067 418.629 42.1643 418.841 42.3423 419.08C42.5241 419.314 42.6643 419.508 42.7628 419.659H42.8991V418.273H44.1946V427.25C44.1946 428 44.0241 428.61 43.6832 429.08C43.3461 429.553 42.8916 429.9 42.3196 430.119C41.7514 430.343 41.1188 430.455 40.4219 430.455ZM40.3764 425.659C40.9143 425.659 41.3688 425.536 41.7401 425.29C42.1113 425.044 42.3935 424.689 42.5866 424.227C42.7798 423.765 42.8764 423.212 42.8764 422.568C42.8764 421.939 42.7817 421.384 42.5923 420.903C42.4029 420.422 42.1226 420.045 41.7514 419.773C41.3802 419.5 40.9219 419.364 40.3764 419.364C39.8082 419.364 39.3348 419.508 38.956 419.795C38.581 420.083 38.2988 420.47 38.1094 420.955C37.9238 421.439 37.831 421.977 37.831 422.568C37.831 423.174 37.9257 423.71 38.1151 424.176C38.3082 424.638 38.5923 425.002 38.9673 425.267C39.3461 425.528 39.8158 425.659 40.3764 425.659ZM49.2173 427.205C48.6643 427.205 48.1624 427.1 47.7116 426.892C47.2609 426.68 46.9029 426.375 46.6378 425.977C46.3726 425.576 46.2401 425.091 46.2401 424.523C46.2401 424.023 46.3385 423.617 46.5355 423.307C46.7325 422.992 46.9957 422.746 47.3253 422.568C47.6548 422.39 48.0185 422.258 48.4162 422.17C48.8177 422.08 49.2211 422.008 49.6264 421.955C50.1567 421.886 50.5866 421.835 50.9162 421.801C51.2495 421.763 51.492 421.701 51.6435 421.614C51.7988 421.527 51.8764 421.375 51.8764 421.159V421.114C51.8764 420.553 51.723 420.117 51.4162 419.807C51.1132 419.496 50.6529 419.341 50.0355 419.341C49.3954 419.341 48.8935 419.481 48.5298 419.761C48.1662 420.042 47.9105 420.341 47.7628 420.659L46.4901 420.205C46.7173 419.674 47.0204 419.261 47.3991 418.966C47.7817 418.667 48.1984 418.458 48.6491 418.341C49.1037 418.22 49.5507 418.159 49.9901 418.159C50.2704 418.159 50.5923 418.193 50.956 418.261C51.3234 418.326 51.6776 418.46 52.0185 418.665C52.3632 418.869 52.6491 419.178 52.8764 419.591C53.1037 420.004 53.2173 420.557 53.2173 421.25V427H51.8764V425.818H51.8082C51.7173 426.008 51.5658 426.21 51.3537 426.426C51.1416 426.642 50.8594 426.826 50.5071 426.977C50.1548 427.129 49.7249 427.205 49.2173 427.205ZM49.4219 426C49.9522 426 50.3991 425.896 50.7628 425.688C51.1302 425.479 51.4067 425.21 51.5923 424.881C51.7817 424.551 51.8764 424.205 51.8764 423.841V422.614C51.8196 422.682 51.6946 422.744 51.5014 422.801C51.312 422.854 51.0923 422.902 50.8423 422.943C50.5961 422.981 50.3556 423.015 50.1207 423.045C49.8897 423.072 49.7022 423.095 49.5582 423.114C49.2098 423.159 48.884 423.233 48.581 423.335C48.2817 423.434 48.0393 423.583 47.8537 423.784C47.6719 423.981 47.581 424.25 47.581 424.591C47.581 425.057 47.7533 425.409 48.098 425.648C48.4465 425.883 48.8878 426 49.4219 426ZM59.4602 418.273V419.409H54.9375V418.273H59.4602ZM56.2557 416.182H57.5966V424.5C57.5966 424.879 57.6515 425.163 57.7614 425.352C57.875 425.538 58.0189 425.663 58.1932 425.727C58.3712 425.788 58.5587 425.818 58.7557 425.818C58.9034 425.818 59.0246 425.811 59.1193 425.795C59.214 425.777 59.2898 425.761 59.3466 425.75L59.6193 426.955C59.5284 426.989 59.4015 427.023 59.2386 427.057C59.0758 427.095 58.8693 427.114 58.6193 427.114C58.2405 427.114 57.8693 427.032 57.5057 426.869C57.1458 426.706 56.8466 426.458 56.608 426.125C56.3731 425.792 56.2557 425.371 56.2557 424.864V416.182ZM61.4773 427V418.273H62.8182V427H61.4773ZM62.1591 416.818C61.8977 416.818 61.6723 416.729 61.483 416.551C61.2973 416.373 61.2045 416.159 61.2045 415.909C61.2045 415.659 61.2973 415.445 61.483 415.267C61.6723 415.089 61.8977 415 62.1591 415C62.4205 415 62.6439 415.089 62.8295 415.267C63.0189 415.445 63.1136 415.659 63.1136 415.909C63.1136 416.159 63.0189 416.373 62.8295 416.551C62.6439 416.729 62.4205 416.818 62.1591 416.818ZM72.4105 418.273L69.1832 427H67.8196L64.5923 418.273H66.0469L68.456 425.227H68.5469L70.956 418.273H72.4105ZM77.527 427.182C76.6861 427.182 75.9607 426.996 75.3509 426.625C74.7448 426.25 74.277 425.727 73.9474 425.057C73.6217 424.383 73.4588 423.598 73.4588 422.705C73.4588 421.811 73.6217 421.023 73.9474 420.341C74.277 419.655 74.7353 419.121 75.3224 418.739C75.9134 418.352 76.6027 418.159 77.3906 418.159C77.8452 418.159 78.294 418.235 78.7372 418.386C79.1804 418.538 79.5838 418.784 79.9474 419.125C80.3111 419.462 80.6009 419.909 80.8168 420.466C81.0327 421.023 81.1406 421.708 81.1406 422.523V423.091H74.4134V421.932H79.777C79.777 421.439 79.6785 421 79.4815 420.614C79.2884 420.227 79.0118 419.922 78.652 419.699C78.2959 419.475 77.8755 419.364 77.3906 419.364C76.8565 419.364 76.3944 419.496 76.0043 419.761C75.6179 420.023 75.3205 420.364 75.1122 420.784C74.9039 421.205 74.7997 421.655 74.7997 422.136V422.909C74.7997 423.568 74.9134 424.127 75.1406 424.585C75.3717 425.04 75.6918 425.386 76.1009 425.625C76.5099 425.86 76.9853 425.977 77.527 425.977C77.8793 425.977 78.1974 425.928 78.4815 425.83C78.7694 425.727 79.0175 425.576 79.2259 425.375C79.4342 425.17 79.5952 424.917 79.7088 424.614L81.0043 424.977C80.8679 425.417 80.6387 425.803 80.3168 426.136C79.9948 426.466 79.5971 426.723 79.1236 426.909C78.6501 427.091 78.1179 427.182 77.527 427.182Z" fill="#7B7B7B"/>
<path d="M21.74 14.21L24.823 15.1875C24.3504 16.9062 23.5626 18.1846 22.4598 19.0225C21.3641 19.8532 19.9711 20.2686 18.281 20.2686C16.1899 20.2686 14.4711 19.556 13.1248 18.1309C11.7784 16.6986 11.1053 14.7435 11.1053 12.2656C11.1053 9.64453 11.782 7.61068 13.1355 6.16406C14.4891 4.71029 16.2687 3.9834 18.4744 3.9834C20.4008 3.9834 21.9656 4.55273 23.1687 5.69141C23.8849 6.36458 24.422 7.33138 24.7801 8.5918L21.6326 9.34375C21.4464 8.52734 21.0561 7.88281 20.4617 7.41016C19.8745 6.9375 19.1583 6.70117 18.3133 6.70117C17.146 6.70117 16.1971 7.12012 15.4666 7.95801C14.7433 8.7959 14.3816 10.153 14.3816 12.0293C14.3816 14.0202 14.7397 15.4382 15.4558 16.2832C16.172 17.1283 17.103 17.5508 18.2488 17.5508C19.0939 17.5508 19.8208 17.2822 20.4295 16.7451C21.0382 16.208 21.4751 15.363 21.74 14.21ZM27.5408 20V4.25195H30.5594V20H27.5408ZM41.1726 20V18.292C40.7573 18.9007 40.2094 19.3805 39.5291 19.7314C38.8559 20.0824 38.1433 20.2578 37.3914 20.2578C36.6251 20.2578 35.9376 20.0895 35.3289 19.7529C34.7202 19.4163 34.2797 18.9437 34.0076 18.335C33.7355 17.7262 33.5994 16.8848 33.5994 15.8105V8.5918H36.618V13.834C36.618 15.4382 36.6717 16.4229 36.7791 16.7881C36.8937 17.1462 37.0978 17.4326 37.3914 17.6475C37.685 17.8551 38.0574 17.959 38.5086 17.959C39.0242 17.959 39.4861 17.8193 39.8943 17.54C40.3025 17.2536 40.5818 16.9027 40.7322 16.4873C40.8826 16.0648 40.9578 15.0371 40.9578 13.4043V8.5918H43.9764V20H41.1726ZM46.0496 16.7451L49.0789 16.2832C49.2078 16.8704 49.4692 17.318 49.8631 17.626C50.257 17.9268 50.8084 18.0771 51.5174 18.0771C52.298 18.0771 52.8852 17.9339 53.2791 17.6475C53.5441 17.4469 53.6766 17.1784 53.6766 16.8418C53.6766 16.6126 53.6049 16.4229 53.4617 16.2725C53.3113 16.1292 52.9747 15.9967 52.4519 15.875C50.017 15.3379 48.4738 14.8473 47.8221 14.4033C46.9197 13.7874 46.4685 12.9316 46.4685 11.8359C46.4685 10.8477 46.8588 10.0169 47.6394 9.34375C48.42 8.67057 49.6303 8.33398 51.2703 8.33398C52.8315 8.33398 53.9917 8.58822 54.7508 9.09668C55.5099 9.60514 56.0327 10.3571 56.3191 11.3525L53.4725 11.8789C53.3507 11.4349 53.118 11.0947 52.7742 10.8584C52.4376 10.6221 51.9542 10.5039 51.324 10.5039C50.5291 10.5039 49.9598 10.6149 49.616 10.8369C49.3868 10.9945 49.2723 11.1986 49.2723 11.4492C49.2723 11.6641 49.3725 11.8467 49.573 11.9971C49.8452 12.1976 50.7833 12.4805 52.3875 12.8457C53.9988 13.2109 55.1232 13.6585 55.7605 14.1885C56.3907 14.7256 56.7058 15.474 56.7058 16.4336C56.7058 17.4792 56.269 18.3779 55.3953 19.1299C54.5216 19.8818 53.229 20.2578 51.5174 20.2578C49.9633 20.2578 48.7316 19.9427 47.8221 19.3125C46.9197 18.6823 46.3289 17.8265 46.0496 16.7451ZM64.5906 8.5918V10.998H62.5281V15.5957C62.5281 16.5267 62.546 17.071 62.5818 17.2285C62.6248 17.3789 62.7143 17.5042 62.8504 17.6045C62.9936 17.7048 63.1655 17.7549 63.366 17.7549C63.6453 17.7549 64.0499 17.6582 64.5799 17.4648L64.8377 19.8066C64.1359 20.1074 63.3409 20.2578 62.4529 20.2578C61.9086 20.2578 61.4181 20.1683 60.9812 19.9893C60.5444 19.8031 60.2221 19.5667 60.0144 19.2803C59.8139 18.9867 59.6743 18.5928 59.5955 18.0986C59.531 17.7477 59.4988 17.0387 59.4988 15.9717V10.998H58.1131V8.5918H59.4988V6.3252L62.5281 4.56348V8.5918H64.5906ZM73.2918 16.3691L76.2996 16.874C75.9129 17.9769 75.3006 18.8184 74.4627 19.3984C73.632 19.9714 72.59 20.2578 71.3367 20.2578C69.353 20.2578 67.8849 19.6097 66.9324 18.3135C66.1805 17.2751 65.8045 15.9645 65.8045 14.3818C65.8045 12.4912 66.2986 11.0124 67.2869 9.94531C68.2752 8.87109 69.5249 8.33398 71.0359 8.33398C72.7332 8.33398 74.0724 8.89616 75.0535 10.0205C76.0346 11.1377 76.5037 12.8529 76.4607 15.166H68.8982C68.9197 16.0612 69.1632 16.7594 69.6287 17.2607C70.0942 17.7549 70.6743 18.002 71.3689 18.002C71.8416 18.002 72.2391 17.873 72.5613 17.6152C72.8836 17.3574 73.1271 16.9421 73.2918 16.3691ZM73.4637 13.3184C73.4422 12.4447 73.2166 11.7822 72.7869 11.3311C72.3572 10.8727 71.8344 10.6436 71.2185 10.6436C70.5597 10.6436 70.0154 10.8835 69.5857 11.3633C69.156 11.8431 68.9448 12.4948 68.9519 13.3184H73.4637ZM81.8211 20H78.8025V8.5918H81.6062V10.2139C82.0861 9.44759 82.5157 8.94271 82.8953 8.69922C83.282 8.45573 83.7189 8.33398 84.2058 8.33398C84.8933 8.33398 85.5558 8.52376 86.1932 8.90332L85.2586 11.5352C84.7501 11.2057 84.2775 11.041 83.8406 11.041C83.4181 11.041 83.06 11.1592 82.7664 11.3955C82.4728 11.6247 82.24 12.0436 82.0682 12.6523C81.9034 13.2611 81.8211 14.5358 81.8211 16.4766V20ZM86.4402 16.7451L89.4695 16.2832C89.5984 16.8704 89.8598 17.318 90.2537 17.626C90.6476 17.9268 91.199 18.0771 91.908 18.0771C92.6886 18.0771 93.2758 17.9339 93.6697 17.6475C93.9347 17.4469 94.0672 17.1784 94.0672 16.8418C94.0672 16.6126 93.9956 16.4229 93.8523 16.2725C93.7019 16.1292 93.3654 15.9967 92.8426 15.875C90.4077 15.3379 88.8644 14.8473 88.2127 14.4033C87.3103 13.7874 86.8592 12.9316 86.8592 11.8359C86.8592 10.8477 87.2495 10.0169 88.0301 9.34375C88.8107 8.67057 90.021 8.33398 91.6609 8.33398C93.2221 8.33398 94.3823 8.58822 95.1414 9.09668C95.9005 9.60514 96.4233 10.3571 96.7098 11.3525L93.8631 11.8789C93.7413 11.4349 93.5086 11.0947 93.1648 10.8584C92.8282 10.6221 92.3448 10.5039 91.7146 10.5039C90.9197 10.5039 90.3504 10.6149 90.0066 10.8369C89.7775 10.9945 89.6629 11.1986 89.6629 11.4492C89.6629 11.6641 89.7631 11.8467 89.9637 11.9971C90.2358 12.1976 91.1739 12.4805 92.7781 12.8457C94.3894 13.2109 95.5138 13.6585 96.1512 14.1885C96.7814 14.7256 97.0965 15.474 97.0965 16.4336C97.0965 17.4792 96.6596 18.3779 95.7859 19.1299C94.9122 19.8818 93.6196 20.2578 91.908 20.2578C90.354 20.2578 89.1222 19.9427 88.2127 19.3125C87.3103 18.6823 86.7195 17.8265 86.4402 16.7451Z" fill="#7B7B7B"/>
<path d="M637.818 293.21C648.64 293.21 657.412 284.192 657.412 273.068C657.412 261.943 648.64 252.925 637.818 252.925C626.997 252.925 618.225 261.943 618.225 273.068C618.225 284.192 626.997 293.21 637.818 293.21Z" fill="#9DCFFE"/>
<path d="M491.232 289.222C499.911 289.222 506.947 281.989 506.947 273.067C506.947 264.145 499.911 256.913 491.232 256.913C482.554 256.913 475.518 264.145 475.518 273.067C475.518 281.989 482.554 289.222 491.232 289.222Z" fill="#9DCFFE"/>
<path d="M458.273 288.625C466.631 288.625 473.406 281.66 473.406 273.067C473.406 264.475 466.631 257.51 458.273 257.51C449.915 257.51 443.139 264.475 443.139 273.067C443.139 281.66 449.915 288.625 458.273 288.625Z" fill="#9DCFFE"/>
<path d="M682.472 294.286C693.871 294.286 703.112 284.786 703.112 273.067C703.112 261.349 693.871 251.849 682.472 251.849C671.073 251.849 661.833 261.349 661.833 273.067C661.833 284.786 671.073 294.286 682.472 294.286Z" fill="#9DCFFE"/>
<path d="M343.65 285.237C350.188 285.237 355.488 279.788 355.488 273.067C355.488 266.347 350.188 260.898 343.65 260.898C337.113 260.898 331.813 266.347 331.813 273.067C331.813 279.788 337.113 285.237 343.65 285.237Z" fill="#9DCFFE"/>
<path d="M275.936 282.183C280.828 282.183 284.795 278.106 284.795 273.076C284.795 268.046 280.828 263.968 275.936 263.968C271.043 263.968 267.076 268.046 267.076 273.076C267.076 278.106 271.043 282.183 275.936 282.183Z" fill="#9DCFFE"/>
<path d="M256.202 282.066C261.041 282.066 264.964 278.033 264.964 273.058C264.964 268.084 261.041 264.051 256.202 264.051C251.363 264.051 247.44 268.084 247.44 273.058C247.44 278.033 251.363 282.066 256.202 282.066Z" fill="#9DCFFE"/>
<path d="M236.754 283.323C240.868 283.323 244.202 279.895 244.202 275.667C244.202 271.438 240.868 268.01 236.754 268.01C232.641 268.01 229.307 271.438 229.307 275.667C229.307 279.895 232.641 283.323 236.754 283.323Z" fill="#9DCFFE"/>
<path d="M222.253 274.618C226.132 274.618 229.277 271.385 229.277 267.398C229.277 263.41 226.132 260.177 222.253 260.177C218.374 260.177 215.229 263.41 215.229 267.398C215.229 271.385 218.374 274.618 222.253 274.618Z" fill="#9DCFFE"/>
<path d="M214.189 288.536C217.949 288.536 220.997 285.403 220.997 281.538C220.997 277.672 217.949 274.539 214.189 274.539C210.429 274.539 207.381 277.672 207.381 281.538C207.381 285.403 210.429 288.536 214.189 288.536Z" fill="#9DCFFE"/>
<path d="M206.31 274.543C210.07 274.543 213.118 271.41 213.118 267.545C213.118 263.679 210.07 260.546 206.31 260.546C202.55 260.546 199.502 263.679 199.502 267.545C199.502 271.41 202.55 274.543 206.31 274.543Z" fill="#9DCFFE"/>
<path d="M369.605 285.409C376.235 285.409 381.61 279.884 381.61 273.068C381.61 266.251 376.235 260.726 369.605 260.726C362.975 260.726 357.6 266.251 357.6 273.068C357.6 279.884 362.975 285.409 369.605 285.409Z" fill="#9DCFFE"/>
<path d="M175.519 278.304C178.333 278.304 180.613 275.96 180.613 273.067C180.613 270.175 178.333 267.831 175.519 267.831C172.706 267.831 170.425 270.175 170.425 273.067C170.425 275.96 172.706 278.304 175.519 278.304Z" fill="#9DCFFE"/>
<path d="M160.959 277.375C163.293 277.375 165.185 275.43 165.185 273.03C165.185 270.631 163.293 268.686 160.959 268.686C158.625 268.686 156.733 270.631 156.733 273.03C156.733 275.43 158.625 277.375 160.959 277.375Z" fill="#9DCFFE"/>
<path d="M150.523 277.333C152.786 277.333 154.621 275.447 154.621 273.12C154.621 270.793 152.786 268.907 150.523 268.907C148.259 268.907 146.425 270.793 146.425 273.12C146.425 275.447 148.259 277.333 150.523 277.333Z" fill="#9DCFFE"/>
<path d="M135.831 279.813C137.656 279.813 139.135 278.292 139.135 276.415C139.135 274.539 137.656 273.018 135.831 273.018C134.006 273.018 132.526 274.539 132.526 276.415C132.526 278.292 134.006 279.813 135.831 279.813Z" fill="#9DCFFE"/>
<path d="M141.609 273.097C143.434 273.097 144.914 271.576 144.914 269.7C144.914 267.824 143.434 266.303 141.609 266.303C139.784 266.303 138.304 267.824 138.304 269.7C138.304 271.576 139.784 273.097 141.609 273.097Z" fill="#9DCFFE"/>
<path d="M900.976 424.71C915.042 424.71 926.445 412.988 926.445 398.528C926.445 384.068 915.042 372.346 900.976 372.346C886.911 372.346 875.508 384.068 875.508 398.528C875.508 412.988 886.911 424.71 900.976 424.71Z" fill="#9DCFFE"/>
<path d="M577.892 417.357C588.007 417.357 596.207 408.927 596.207 398.528C596.207 388.13 588.007 379.7 577.892 379.7C567.777 379.7 559.577 388.13 559.577 398.528C559.577 408.927 567.777 417.357 577.892 417.357Z" fill="#9DCFFE"/>
<path d="M537.438 415.769C546.701 415.769 554.209 408.05 554.209 398.528C554.209 389.007 546.701 381.288 537.438 381.288C528.176 381.288 520.668 389.007 520.668 398.528C520.668 408.05 528.176 415.769 537.438 415.769Z" fill="#9DCFFE"/>
<path d="M501.856 415.698C511.079 415.698 518.557 408.011 518.557 398.528C518.557 389.046 511.079 381.359 501.856 381.359C492.632 381.359 485.154 389.046 485.154 398.528C485.154 408.011 492.632 415.698 501.856 415.698Z" fill="#9DCFFE"/>
<path d="M467.4 414.609C476.039 414.609 483.042 407.409 483.042 398.528C483.042 389.647 476.039 382.447 467.4 382.447C458.761 382.447 451.757 389.647 451.757 398.528C451.757 407.409 458.761 414.609 467.4 414.609Z" fill="#9DCFFE"/>
<path d="M299.462 409.082C305.132 409.082 309.728 404.357 309.728 398.528C309.728 392.7 305.132 387.975 299.462 387.975C293.793 387.975 289.197 392.7 289.197 398.528C289.197 404.357 293.793 409.082 299.462 409.082Z" fill="#9DCFFE"/>
<path d="M241.675 406.924C246.185 406.924 249.842 403.165 249.842 398.528C249.842 393.891 246.185 390.133 241.675 390.133C237.165 390.133 233.508 393.891 233.508 398.528C233.508 403.165 237.165 406.924 241.675 406.924Z" fill="#9DCFFE"/>
<path d="M212.785 405.749C216.664 405.749 219.808 402.516 219.808 398.528C219.808 394.54 216.664 391.308 212.785 391.308C208.905 391.308 205.761 394.54 205.761 398.528C205.761 402.516 208.905 405.749 212.785 405.749Z" fill="#9DCFFE"/>
<path d="M197.024 405.075C200.54 405.075 203.391 402.144 203.391 398.528C203.391 394.913 200.54 391.982 197.024 391.982C193.507 391.982 190.656 394.913 190.656 398.528C190.656 402.144 193.507 405.075 197.024 405.075Z" fill="#9DCFFE"/>
<path d="M182.15 402.109C185.161 402.109 187.601 399.6 187.601 396.505C187.601 393.41 185.161 390.901 182.15 390.901C179.139 390.901 176.699 393.41 176.699 396.505C176.699 399.6 179.139 402.109 182.15 402.109Z" fill="#9DCFFE"/>
<path d="M171.15 408.908C174.095 408.908 176.483 406.453 176.483 403.425C176.483 400.397 174.095 397.943 171.15 397.943C168.205 397.943 165.817 400.397 165.817 403.425C165.817 406.453 168.205 408.908 171.15 408.908Z" fill="#9DCFFE"/>
<path d="M171.053 395.771C173.732 395.771 175.904 393.538 175.904 390.784C175.904 388.03 173.732 385.797 171.053 385.797C168.374 385.797 166.202 388.03 166.202 390.784C166.202 393.538 168.374 395.771 171.053 395.771Z" fill="#9DCFFE"/>
<path d="M159.961 413.029C162.504 413.029 164.565 410.909 164.565 408.295C164.565 405.681 162.504 403.562 159.961 403.562C157.418 403.562 155.357 405.681 155.357 408.295C155.357 410.909 157.418 413.029 159.961 413.029Z" fill="#9DCFFE"/>
<path d="M161.026 401.442C163.569 401.442 165.63 399.323 165.63 396.709C165.63 394.095 163.569 391.976 161.026 391.976C158.483 391.976 156.422 394.095 156.422 396.709C156.422 399.323 158.483 401.442 161.026 401.442Z" fill="#9DCFFE"/>
<path d="M151.629 394.952C154.172 394.952 156.233 392.833 156.233 390.219C156.233 387.605 154.172 385.485 151.629 385.485C149.086 385.485 147.025 387.605 147.025 390.219C147.025 392.833 149.086 394.952 151.629 394.952Z" fill="#9DCFFE"/>
<path d="M151.023 406.057C153.428 406.057 155.377 404.053 155.377 401.581C155.377 399.11 153.428 397.106 151.023 397.106C148.619 397.106 146.67 399.11 146.67 401.581C146.67 404.053 148.619 406.057 151.023 406.057Z" fill="#9DCFFE"/>
<path d="M141.246 410.374C143.58 410.374 145.472 408.428 145.472 406.029C145.472 403.629 143.58 401.684 141.246 401.684C138.912 401.684 137.02 403.629 137.02 406.029C137.02 408.428 138.912 410.374 141.246 410.374Z" fill="#9DCFFE"/>
<path d="M142.49 399.591C144.61 399.591 146.328 397.825 146.328 395.645C146.328 393.466 144.61 391.699 142.49 391.699C140.37 391.699 138.651 393.466 138.651 395.645C138.651 397.825 140.37 399.591 142.49 399.591Z" fill="#9DCFFE"/>
<path d="M133.125 397.031C135.172 397.031 136.832 395.325 136.832 393.22C136.832 391.116 135.172 389.41 133.125 389.41C131.078 389.41 129.418 391.116 129.418 393.22C129.418 395.325 131.078 397.031 133.125 397.031Z" fill="#9DCFFE"/>
<path d="M132.215 405.95C134.041 405.95 135.52 404.429 135.52 402.553C135.52 400.677 134.041 399.156 132.215 399.156C130.39 399.156 128.911 400.677 128.911 402.553C128.911 404.429 130.39 405.95 132.215 405.95Z" fill="#9DCFFE"/>
<path d="M125.168 400.771C126.917 400.771 128.335 399.313 128.335 397.515C128.335 395.716 126.917 394.258 125.168 394.258C123.418 394.258 122 395.716 122 397.515C122 399.313 123.418 400.771 125.168 400.771Z" fill="#9DCFFE"/>
<path d="M956.705 176.946C971.285 176.946 983.104 164.795 983.104 149.807C983.104 134.819 971.285 122.668 956.705 122.668C942.125 122.668 930.306 134.819 930.306 149.807C930.306 164.795 942.125 176.946 956.705 176.946Z" fill="#9DCFFE"/>
<path d="M326.297 161.003C332.311 161.003 337.187 155.99 337.187 149.807C337.187 143.624 332.311 138.611 326.297 138.611C320.282 138.611 315.406 143.624 315.406 149.807C315.406 155.99 320.282 161.003 326.297 161.003Z" fill="#9DCFFE"/>
<path d="M263.26 158.714C268.045 158.714 271.924 154.726 271.924 149.807C271.924 144.888 268.045 140.9 263.26 140.9C258.475 140.9 254.596 144.888 254.596 149.807C254.596 154.726 258.475 158.714 263.26 158.714Z" fill="#9DCFFE"/>
<path d="M233.648 151.468C237.645 151.468 240.885 148.137 240.885 144.029C240.885 139.92 237.645 136.589 233.648 136.589C229.651 136.589 226.411 139.92 226.411 144.029C226.411 148.137 229.651 151.468 233.648 151.468Z" fill="#9DCFFE"/>
<path d="M224.979 165.286C228.799 165.286 231.895 162.103 231.895 158.176C231.895 154.25 228.799 151.066 224.979 151.066C221.16 151.066 218.063 154.25 218.063 158.176C218.063 162.103 221.16 165.286 224.979 165.286Z" fill="#9DCFFE"/>
<path d="M217.493 150.829C221.252 150.829 224.3 147.695 224.3 143.83C224.3 139.965 221.252 136.831 217.493 136.831C213.733 136.831 210.685 139.965 210.685 143.83C210.685 147.695 213.733 150.829 217.493 150.829Z" fill="#9DCFFE"/>
<path d="M209.38 164.192C213.019 164.192 215.97 161.16 215.97 157.418C215.97 153.677 213.019 150.645 209.38 150.645C205.741 150.645 202.791 153.677 202.791 157.418C202.791 161.16 205.741 164.192 209.38 164.192Z" fill="#9DCFFE"/>
<path d="M202.43 150.249C205.823 150.249 208.574 147.421 208.574 143.933C208.574 140.445 205.823 137.618 202.43 137.618C199.037 137.618 196.287 140.445 196.287 143.933C196.287 147.421 199.037 150.249 202.43 150.249Z" fill="#9DCFFE"/>
<path d="M194.692 162.477C198.022 162.477 200.722 159.701 200.722 156.278C200.722 152.854 198.022 150.078 194.692 150.078C191.361 150.078 188.662 152.854 188.662 156.278C188.662 159.701 191.361 162.477 194.692 162.477Z" fill="#9DCFFE"/>
<path d="M188.267 149.504C191.535 149.504 194.183 146.781 194.183 143.422C194.183 140.063 191.535 137.341 188.267 137.341C185 137.341 182.351 140.063 182.351 143.422C182.351 146.781 185 149.504 188.267 149.504Z" fill="#9DCFFE"/>
<path d="M180.896 161.155C184.036 161.155 186.582 158.538 186.582 155.311C186.582 152.083 184.036 149.466 180.896 149.466C177.757 149.466 175.211 152.083 175.211 155.311C175.211 158.538 177.757 161.155 180.896 161.155Z" fill="#9DCFFE"/>
<path d="M172.431 150.552C175.245 150.552 177.525 148.208 177.525 145.316C177.525 142.423 175.245 140.079 172.431 140.079C169.618 140.079 167.338 142.423 167.338 145.316C167.338 148.208 169.618 150.552 172.431 150.552Z" fill="#9DCFFE"/>
<path d="M160.794 154.277C163.199 154.277 165.148 152.273 165.148 149.801C165.148 147.329 163.199 145.326 160.794 145.326C158.39 145.326 156.441 147.329 156.441 149.801C156.441 152.273 158.39 154.277 160.794 154.277Z" fill="#9DCFFE"/>
<path d="M147.678 153.62C149.725 153.62 151.385 151.914 151.385 149.81C151.385 147.705 149.725 145.999 147.678 145.999C145.63 145.999 143.971 147.705 143.971 149.81C143.971 151.914 145.63 153.62 147.678 153.62Z" fill="#9DCFFE"/>
<path d="M135.811 157.173C137.56 157.173 138.978 155.715 138.978 153.916C138.978 152.118 137.56 150.66 135.811 150.66C134.061 150.66 132.643 152.118 132.643 153.916C132.643 155.715 134.061 157.173 135.811 157.173Z" fill="#9DCFFE"/>
<path d="M138.537 148.953C140.287 148.953 141.705 147.495 141.705 145.696C141.705 143.898 140.287 142.44 138.537 142.44C136.788 142.44 135.369 143.898 135.369 145.696C135.369 147.495 136.788 148.953 138.537 148.953Z" fill="#9DCFFE"/>
<path d="M65.5993 150.432C67.0031 150.432 68.1411 149.262 68.1411 147.819C68.1411 146.376 67.0031 145.206 65.5993 145.206C64.1954 145.206 63.0574 146.376 63.0574 147.819C63.0574 149.262 64.1954 150.432 65.5993 150.432Z" fill="#1B8CF5"/>
<path d="M59.1635 150.185C60.4346 150.185 61.465 149.126 61.465 147.819C61.465 146.512 60.4346 145.453 59.1635 145.453C57.8923 145.453 56.8619 146.512 56.8619 147.819C56.8619 149.126 57.8923 150.185 59.1635 150.185Z" fill="#1B8CF5"/>
<path d="M53.1243 147.505C54.2556 147.505 55.1726 146.562 55.1726 145.399C55.1726 144.236 54.2556 143.294 53.1243 143.294C51.9931 143.294 51.076 144.236 51.076 145.399C51.076 146.562 51.9931 147.505 53.1243 147.505Z" fill="#1B8CF5"/>
<path d="M52.3311 152.345C53.4623 152.345 54.3793 151.402 54.3793 150.239C54.3793 149.076 53.4623 148.133 52.3311 148.133C51.1998 148.133 50.2828 149.076 50.2828 150.239C50.2828 151.402 51.1998 152.345 52.3311 152.345Z" fill="#1B8CF5"/>
<path d="M33.4204 149.034C34.0731 149.034 34.6023 148.49 34.6023 147.819C34.6023 147.148 34.0731 146.604 33.4204 146.604C32.7676 146.604 32.2384 147.148 32.2384 147.819C32.2384 148.49 32.7676 149.034 33.4204 149.034Z" fill="#1B8CF5"/>
<path d="M287.086 282.093C292.135 282.093 296.228 277.885 296.228 272.695C296.228 267.504 292.135 263.297 287.086 263.297C282.037 263.297 277.944 267.504 277.944 272.695C277.944 277.885 282.037 282.093 287.086 282.093Z" fill="#1B8CF5"/>
<path d="M150.369 277.52C152.777 277.52 154.73 275.513 154.73 273.037C154.73 270.562 152.777 268.555 150.369 268.555C147.961 268.555 146.009 270.562 146.009 273.037C146.009 275.513 147.961 277.52 150.369 277.52Z" fill="#1B8CF5"/>
<path d="M140.056 277.26C142.325 277.26 144.164 275.369 144.164 273.037C144.164 270.705 142.325 268.815 140.056 268.815C137.788 268.815 135.949 270.705 135.949 273.037C135.949 275.369 137.788 277.26 140.056 277.26Z" fill="#1B8CF5"/>
<path d="M131.48 277.058C133.64 277.058 135.391 275.258 135.391 273.038C135.391 270.818 133.64 269.018 131.48 269.018C129.32 269.018 127.569 270.818 127.569 273.038C127.569 275.258 129.32 277.058 131.48 277.058Z" fill="#1B8CF5"/>
<path d="M181.325 277.409C184.361 277.409 186.822 274.878 186.822 271.757C186.822 268.636 184.361 266.106 181.325 266.106C178.289 266.106 175.827 268.636 175.827 271.757C175.827 274.878 178.289 277.409 181.325 277.409Z" fill="#1B8CF5"/>
<path d="M107.131 277.106C109.5 277.106 111.421 275.131 111.421 272.695C111.421 270.259 109.5 268.284 107.131 268.284C104.761 268.284 102.84 270.259 102.84 272.695C102.84 275.131 104.761 277.106 107.131 277.106Z" fill="#1B8CF5"/>
<path d="M86.2871 276.473C88.3167 276.473 89.962 274.781 89.962 272.695C89.962 270.608 88.3167 268.917 86.2871 268.917C84.2576 268.917 82.6123 270.608 82.6123 272.695C82.6123 274.781 84.2576 276.473 86.2871 276.473Z" fill="#1B8CF5"/>
<path d="M192.926 277.021C195.962 277.021 198.423 274.49 198.423 271.369C198.423 268.248 195.962 265.718 192.926 265.718C189.89 265.718 187.428 268.248 187.428 271.369C187.428 274.49 189.89 277.021 192.926 277.021Z" fill="#1B8CF5"/>
<path d="M70.0847 275.592C71.8029 275.592 73.1958 274.16 73.1958 272.393C73.1958 270.627 71.8029 269.195 70.0847 269.195C68.3666 269.195 66.9737 270.627 66.9737 272.393C66.9737 274.16 68.3666 275.592 70.0847 275.592Z" fill="#1B8CF5"/>
<path d="M63.6004 277.122C65.185 277.122 66.4696 275.802 66.4696 274.173C66.4696 272.544 65.185 271.223 63.6004 271.223C62.0158 271.223 60.7313 272.544 60.7313 274.173C60.7313 275.802 62.0158 277.122 63.6004 277.122Z" fill="#1B8CF5"/>
<path d="M63.5445 270.472C65.06 270.472 66.2886 269.209 66.2886 267.65C66.2886 266.092 65.06 264.829 63.5445 264.829C62.0289 264.829 60.8004 266.092 60.8004 267.65C60.8004 269.209 62.0289 270.472 63.5445 270.472Z" fill="#1B8CF5"/>
<path d="M57.9228 279.905C59.4384 279.905 60.6669 278.642 60.6669 277.084C60.6669 275.526 59.4384 274.263 57.9228 274.263C56.4073 274.263 55.1787 275.526 55.1787 277.084C55.1787 278.642 56.4073 279.905 57.9228 279.905Z" fill="#1B8CF5"/>
<path d="M58.3 273.523C59.7448 273.523 60.9161 272.319 60.9161 270.834C60.9161 269.349 59.7448 268.145 58.3 268.145C56.8552 268.145 55.684 269.349 55.684 270.834C55.684 272.319 56.8552 273.523 58.3 273.523Z" fill="#1B8CF5"/>
<path d="M52.9292 276.186C54.374 276.186 55.5453 274.982 55.5453 273.497C55.5453 272.012 54.374 270.808 52.9292 270.808C51.4844 270.808 50.3132 272.012 50.3132 273.497C50.3132 274.982 51.4844 276.186 52.9292 276.186Z" fill="#1B8CF5"/>
<path d="M52.4339 282.026C53.8062 282.026 54.9186 280.882 54.9186 279.472C54.9186 278.061 53.8062 276.917 52.4339 276.917C51.0616 276.917 49.9492 278.061 49.9492 279.472C49.9492 280.882 51.0616 282.026 52.4339 282.026Z" fill="#1B8CF5"/>
<path d="M53.5169 269.957C54.8892 269.957 56.0017 268.814 56.0017 267.403C56.0017 265.992 54.8892 264.849 53.5169 264.849C52.1447 264.849 51.0322 265.992 51.0322 267.403C51.0322 268.814 52.1447 269.957 53.5169 269.957Z" fill="#1B8CF5"/>
<path d="M48.3238 272.373C49.696 272.373 50.8085 271.229 50.8085 269.819C50.8085 268.408 49.696 267.264 48.3238 267.264C46.9515 267.264 45.839 268.408 45.839 269.819C45.839 271.229 46.9515 272.373 48.3238 272.373Z" fill="#1B8CF5"/>
<path d="M47.8718 278.611C49.1697 278.611 50.2217 277.529 50.2217 276.195C50.2217 274.861 49.1697 273.779 47.8718 273.779C46.574 273.779 45.5219 274.861 45.5219 276.195C45.5219 277.529 46.574 278.611 47.8718 278.611Z" fill="#1B8CF5"/>
<path d="M39.4168 273.745C40.638 273.745 41.628 272.727 41.628 271.472C41.628 270.216 40.638 269.198 39.4168 269.198C38.1955 269.198 37.2055 270.216 37.2055 271.472C37.2055 272.727 38.1955 273.745 39.4168 273.745Z" fill="#1B8CF5"/>
<path d="M42.7659 279.903C43.9871 279.903 44.9772 278.885 44.9772 277.629C44.9772 276.374 43.9871 275.356 42.7659 275.356C41.5446 275.356 40.5546 276.374 40.5546 277.629C40.5546 278.885 41.5446 279.903 42.7659 279.903Z" fill="#1B8CF5"/>
<path d="M43.2263 270.176C44.4476 270.176 45.4376 269.158 45.4376 267.902C45.4376 266.647 44.4476 265.629 43.2263 265.629C42.0051 265.629 41.015 266.647 41.015 267.902C41.015 269.158 42.0051 270.176 43.2263 270.176Z" fill="#1B8CF5"/>
<path d="M44.0989 274.796C45.16 274.796 46.0202 273.912 46.0202 272.821C46.0202 271.73 45.16 270.846 44.0989 270.846C43.0379 270.846 42.1777 271.73 42.1777 272.821C42.1777 273.912 43.0379 274.796 44.0989 274.796Z" fill="#1B8CF5"/>
<path d="M37.2566 268.968C38.3177 268.968 39.1778 268.083 39.1778 266.993C39.1778 265.902 38.3177 265.018 37.2566 265.018C36.1955 265.018 35.3354 265.902 35.3354 266.993C35.3354 268.083 36.1955 268.968 37.2566 268.968Z" fill="#1B8CF5"/>
<path d="M32.8359 268.736C33.8128 268.736 34.6048 267.922 34.6048 266.918C34.6048 265.913 33.8128 265.099 32.8359 265.099C31.8589 265.099 31.0669 265.913 31.0669 266.918C31.0669 267.922 31.8589 268.736 32.8359 268.736Z" fill="#1B8CF5"/>
<path d="M33.5605 280.386C34.5375 280.386 35.3295 279.572 35.3295 278.568C35.3295 277.563 34.5375 276.749 33.5605 276.749C32.5836 276.749 31.7916 277.563 31.7916 278.568C31.7916 279.572 32.5836 280.386 33.5605 280.386Z" fill="#1B8CF5"/>
<path d="M36.4327 277.036C37.4097 277.036 38.2017 276.222 38.2017 275.217C38.2017 274.213 37.4097 273.399 36.4327 273.399C35.4558 273.399 34.6638 274.213 34.6638 275.217C34.6638 276.222 35.4558 277.036 36.4327 277.036Z" fill="#1B8CF5"/>
<path d="M37.754 281.209C38.7309 281.209 39.5229 280.395 39.5229 279.391C39.5229 278.386 38.7309 277.572 37.754 277.572C36.777 277.572 35.985 278.386 35.985 279.391C35.985 280.395 36.777 281.209 37.754 281.209Z" fill="#1B8CF5"/>
<path d="M32.2403 276.213C33.2173 276.213 34.0093 275.399 34.0093 274.395C34.0093 273.391 33.2173 272.576 32.2403 272.576C31.2634 272.576 30.4714 273.391 30.4714 274.395C30.4714 275.399 31.2634 276.213 32.2403 276.213Z" fill="#1B8CF5"/>
<path d="M34.7472 272.66C35.7242 272.66 36.5161 271.846 36.5161 270.842C36.5161 269.838 35.7242 269.023 34.7472 269.023C33.7703 269.023 32.9783 269.838 32.9783 270.842C32.9783 271.846 33.7703 272.66 34.7472 272.66Z" fill="#1B8CF5"/>
<path d="M29.3436 279.049C30.2334 279.049 30.9547 278.308 30.9547 277.393C30.9547 276.478 30.2334 275.737 29.3436 275.737C28.4538 275.737 27.7325 276.478 27.7325 277.393C27.7325 278.308 28.4538 279.049 29.3436 279.049Z" fill="#1B8CF5"/>
<path d="M28.7246 268.604C29.6144 268.604 30.3357 267.862 30.3357 266.948C30.3357 266.033 29.6144 265.291 28.7246 265.291C27.8348 265.291 27.1135 266.033 27.1135 266.948C27.1135 267.862 27.8348 268.604 28.7246 268.604Z" fill="#1B8CF5"/>
<path d="M30.6507 272.154C31.5404 272.154 32.2618 271.412 32.2618 270.498C32.2618 269.583 31.5404 268.841 30.6507 268.841C29.7609 268.841 29.0396 269.583 29.0396 270.498C29.0396 271.412 29.7609 272.154 30.6507 272.154Z" fill="#1B8CF5"/>
<path d="M25.5569 279.02C26.3561 279.02 27.004 278.354 27.004 277.533C27.004 276.711 26.3561 276.045 25.5569 276.045C24.7577 276.045 24.1099 276.711 24.1099 277.533C24.1099 278.354 24.7577 279.02 25.5569 279.02Z" fill="#1B8CF5"/>
<path d="M25.0707 275.327C25.8699 275.327 26.5178 274.661 26.5178 273.839C26.5178 273.018 25.8699 272.352 25.0707 272.352C24.2715 272.352 23.6237 273.018 23.6237 273.839C23.6237 274.661 24.2715 275.327 25.0707 275.327Z" fill="#1B8CF5"/>
<path d="M24.964 268.913C25.7632 268.913 26.411 268.247 26.411 267.426C26.411 266.604 25.7632 265.938 24.964 265.938C24.1648 265.938 23.5169 266.604 23.5169 267.426C23.5169 268.247 24.1648 268.913 24.964 268.913Z" fill="#1B8CF5"/>
<path d="M26.8635 272.088C27.6627 272.088 28.3105 271.421 28.3105 270.6C28.3105 269.778 27.6627 269.112 26.8635 269.112C26.0643 269.112 25.4164 269.778 25.4164 270.6C25.4164 271.421 26.0643 272.088 26.8635 272.088Z" fill="#1B8CF5"/>
<path d="M28.5228 275.026C29.2276 275.026 29.7989 274.439 29.7989 273.714C29.7989 272.99 29.2276 272.402 28.5228 272.402C27.8181 272.402 27.2468 272.99 27.2468 273.714C27.2468 274.439 27.8181 275.026 28.5228 275.026Z" fill="#1B8CF5"/>
<path d="M19.0924 276.98C19.7972 276.98 20.3685 276.392 20.3685 275.668C20.3685 274.944 19.7972 274.356 19.0924 274.356C18.3877 274.356 17.8164 274.944 17.8164 275.668C17.8164 276.392 18.3877 276.98 19.0924 276.98Z" fill="#1B8CF5"/>
<path d="M21.5428 269.226C22.2476 269.226 22.8189 268.639 22.8189 267.914C22.8189 267.19 22.2476 266.603 21.5428 266.603C20.8381 266.603 20.2668 267.19 20.2668 267.914C20.2668 268.639 20.8381 269.226 21.5428 269.226Z" fill="#1B8CF5"/>
<path d="M23.4106 272.002C24.1154 272.002 24.6866 271.415 24.6866 270.691C24.6866 269.966 24.1154 269.379 23.4106 269.379C22.7059 269.379 22.1346 269.966 22.1346 270.691C22.1346 271.415 22.7059 272.002 23.4106 272.002Z" fill="#1B8CF5"/>
<path d="M22.1657 278.169C22.8704 278.169 23.4417 277.582 23.4417 276.857C23.4417 276.133 22.8704 275.546 22.1657 275.546C21.461 275.546 20.8897 276.133 20.8897 276.857C20.8897 277.582 21.461 278.169 22.1657 278.169Z" fill="#1B8CF5"/>
<path d="M19.7635 272.063C20.4682 272.063 21.0395 271.475 21.0395 270.751C21.0395 270.026 20.4682 269.439 19.7635 269.439C19.0588 269.439 18.4875 270.026 18.4875 270.751C18.4875 271.475 19.0588 272.063 19.7635 272.063Z" fill="#1B8CF5"/>
<path d="M21.631 274.84C22.3357 274.84 22.907 274.252 22.907 273.528C22.907 272.803 22.3357 272.216 21.631 272.216C20.9263 272.216 20.355 272.803 20.355 273.528C20.355 274.252 20.9263 274.84 21.631 274.84Z" fill="#1B8CF5"/>
<path d="M17.496 274.059C18.1019 274.059 18.5931 273.554 18.5931 272.931C18.5931 272.308 18.1019 271.803 17.496 271.803C16.8902 271.803 16.399 272.308 16.399 272.931C16.399 273.554 16.8902 274.059 17.496 274.059Z" fill="#1B8CF5"/>
<path d="M228 403.414C231.856 403.414 234.983 400.2 234.983 396.236C234.983 392.271 231.856 389.057 228 389.057C224.143 389.057 221.017 392.271 221.017 396.236C221.017 400.2 224.143 403.414 228 403.414Z" fill="#1B8CF5"/>
<path d="M165.765 402.082C168.906 402.082 171.451 399.465 171.451 396.236C171.451 393.008 168.906 390.391 165.765 390.391C162.625 390.391 160.08 393.008 160.08 396.236C160.08 399.465 162.625 402.082 165.765 402.082Z" fill="#1B8CF5"/>
<path d="M138.883 401.533C141.729 401.533 144.035 399.161 144.035 396.236C144.035 393.311 141.729 390.939 138.883 390.939C136.038 390.939 133.731 393.311 133.731 396.236C133.731 399.161 136.038 401.533 138.883 401.533Z" fill="#1B8CF5"/>
<path d="M110.062 400.582C112.397 400.582 114.29 398.636 114.29 396.236C114.29 393.836 112.397 391.89 110.062 391.89C107.727 391.89 105.834 393.836 105.834 396.236C105.834 398.636 107.727 400.582 110.062 400.582Z" fill="#1B8CF5"/>
<path d="M149.956 401.613C152.844 401.613 155.186 399.206 155.186 396.236C155.186 393.266 152.844 390.859 149.956 390.859C147.067 390.859 144.725 393.266 144.725 396.236C144.725 399.206 147.067 401.613 149.956 401.613Z" fill="#1B8CF5"/>
<path d="M101.1 400.395C103.334 400.395 105.145 398.533 105.145 396.236C105.145 393.939 103.334 392.077 101.1 392.077C98.8656 392.077 97.0544 393.939 97.0544 396.236C97.0544 398.533 98.8656 400.395 101.1 400.395Z" fill="#1B8CF5"/>
<path d="M92.4124 400.299C94.5952 400.299 96.3647 398.48 96.3647 396.236C96.3647 393.992 94.5952 392.172 92.4124 392.172C90.2295 392.172 88.46 393.992 88.46 396.236C88.46 398.48 90.2295 400.299 92.4124 400.299Z" fill="#1B8CF5"/>
<path d="M79.1399 397.695C80.997 397.695 82.5024 396.147 82.5024 394.238C82.5024 392.329 80.997 390.781 79.1399 390.781C77.2828 390.781 75.7774 392.329 75.7774 394.238C75.7774 396.147 77.2828 397.695 79.1399 397.695Z" fill="#1B8CF5"/>
<path d="M74.5236 403.414C76.3231 403.414 77.7819 401.915 77.7819 400.065C77.7819 398.215 76.3231 396.715 74.5236 396.715C72.7241 396.715 71.2653 398.215 71.2653 400.065C71.2653 401.915 72.7241 403.414 74.5236 403.414Z" fill="#1B8CF5"/>
<path d="M72.001 396.482C73.7418 396.482 75.1531 395.031 75.1531 393.242C75.1531 391.452 73.7418 390.001 72.001 390.001C70.2602 390.001 68.8489 391.452 68.8489 393.242C68.8489 395.031 70.2602 396.482 72.001 396.482Z" fill="#1B8CF5"/>
<path d="M65.2691 395.473C66.8892 395.473 68.2025 394.123 68.2025 392.458C68.2025 390.792 66.8892 389.442 65.2691 389.442C63.6491 389.442 62.3358 390.792 62.3358 392.458C62.3358 394.123 63.6491 395.473 65.2691 395.473Z" fill="#1B8CF5"/>
<path d="M61.3815 403.19C63.0015 403.19 64.3148 401.84 64.3148 400.174C64.3148 398.509 63.0015 397.159 61.3815 397.159C59.7614 397.159 58.4481 398.509 58.4481 400.174C58.4481 401.84 59.7614 403.19 61.3815 403.19Z" fill="#1B8CF5"/>
<path d="M67.7752 401.702C69.3953 401.702 70.7086 400.352 70.7086 398.686C70.7086 397.021 69.3953 395.671 67.7752 395.671C66.1552 395.671 64.8419 397.021 64.8419 398.686C64.8419 400.352 66.1552 401.702 67.7752 401.702Z" fill="#1B8CF5"/>
<path d="M59.0067 396.917C60.5645 396.917 61.8273 395.619 61.8273 394.017C61.8273 392.416 60.5645 391.118 59.0067 391.118C57.449 391.118 56.1862 392.416 56.1862 394.017C56.1862 395.619 57.449 396.917 59.0067 396.917Z" fill="#1B8CF5"/>
<path d="M55.1528 401.811C56.6469 401.811 57.8581 400.566 57.8581 399.03C57.8581 397.494 56.6469 396.249 55.1528 396.249C53.6587 396.249 52.4475 397.494 52.4475 399.03C52.4475 400.566 53.6587 401.811 55.1528 401.811Z" fill="#1B8CF5"/>
<path d="M50.6359 397.726C51.9982 397.726 53.1025 396.59 53.1025 395.19C53.1025 393.79 51.9982 392.654 50.6359 392.654C49.2736 392.654 48.1693 393.79 48.1693 395.19C48.1693 396.59 49.2736 397.726 50.6359 397.726Z" fill="#1B8CF5"/>
<path d="M45.8391 399.955C47.0628 399.955 48.0548 398.935 48.0548 397.677C48.0548 396.419 47.0628 395.399 45.8391 395.399C44.6154 395.399 43.6235 396.419 43.6235 397.677C43.6235 398.935 44.6154 399.955 45.8391 399.955Z" fill="#1B8CF5"/>
<path d="M46.0835 394.535C47.3072 394.535 48.2992 393.516 48.2992 392.258C48.2992 391 47.3072 389.98 46.0835 389.98C44.8598 389.98 43.8679 391 43.8679 392.258C43.8679 393.516 44.8598 394.535 46.0835 394.535Z" fill="#1B8CF5"/>
<path d="M41.7305 396.909C42.882 396.909 43.8155 395.949 43.8155 394.765C43.8155 393.581 42.882 392.622 41.7305 392.622C40.579 392.622 39.6456 393.581 39.6456 394.765C39.6456 395.949 40.579 396.909 41.7305 396.909Z" fill="#1B8CF5"/>
<path d="M41.1677 401.871C42.3192 401.871 43.2527 400.911 43.2527 399.727C43.2527 398.543 42.3192 397.584 41.1677 397.584C40.0163 397.584 39.0828 398.543 39.0828 399.727C39.0828 400.911 40.0163 401.871 41.1677 401.871Z" fill="#1B8CF5"/>
<path d="M37.4242 398.769C38.5013 398.769 39.3745 397.872 39.3745 396.764C39.3745 395.657 38.5013 394.759 37.4242 394.759C36.347 394.759 35.4738 395.657 35.4738 396.764C35.4738 397.872 36.347 398.769 37.4242 398.769Z" fill="#1B8CF5"/>
<path d="M37.8431 394.01C38.9202 394.01 39.7934 393.112 39.7934 392.005C39.7934 390.898 38.9202 390 37.8431 390C36.7659 390 35.8927 390.898 35.8927 392.005C35.8927 393.112 36.7659 394.01 37.8431 394.01Z" fill="#1B8CF5"/>
<path d="M36.2479 403.04C37.2483 403.04 38.0594 402.206 38.0594 401.178C38.0594 400.149 37.2483 399.315 36.2479 399.315C35.2474 399.315 34.4364 400.149 34.4364 401.178C34.4364 402.206 35.2474 403.04 36.2479 403.04Z" fill="#1B8CF5"/>
<path d="M33.3241 399.838C34.2453 399.838 34.992 399.071 34.992 398.124C34.992 397.177 34.2453 396.409 33.3241 396.409C32.403 396.409 31.6563 397.177 31.6563 398.124C31.6563 399.071 32.403 399.838 33.3241 399.838Z" fill="#1B8CF5"/>
<path d="M34.0223 395.763C34.9434 395.763 35.6901 394.995 35.6901 394.048C35.6901 393.101 34.9434 392.334 34.0223 392.334C33.1011 392.334 32.3544 393.101 32.3544 394.048C32.3544 394.995 33.1011 395.763 34.0223 395.763Z" fill="#1B8CF5"/>
<path d="M31.4038 392.619C32.3249 392.619 33.0716 391.851 33.0716 390.904C33.0716 389.957 32.3249 389.19 31.4038 389.19C30.4826 389.19 29.7359 389.957 29.7359 390.904C29.7359 391.851 30.4826 392.619 31.4038 392.619Z" fill="#1B8CF5"/>
<path d="M27.4836 393.56C28.4048 393.56 29.1515 392.793 29.1515 391.846C29.1515 390.899 28.4048 390.131 27.4836 390.131C26.5625 390.131 25.8157 390.899 25.8157 391.846C25.8157 392.793 26.5625 393.56 27.4836 393.56Z" fill="#1B8CF5"/>
<path d="M29.3233 400.288C30.2444 400.288 30.9912 399.52 30.9912 398.573C30.9912 397.626 30.2444 396.859 29.3233 396.859C28.4022 396.859 27.6554 397.626 27.6554 398.573C27.6554 399.52 28.4022 400.288 29.3233 400.288Z" fill="#1B8CF5"/>
<path d="M31.6829 403.295C32.5218 403.295 33.202 402.596 33.202 401.734C33.202 400.871 32.5218 400.172 31.6829 400.172C30.8439 400.172 30.1638 400.871 30.1638 401.734C30.1638 402.596 30.8439 403.295 31.6829 403.295Z" fill="#1B8CF5"/>
<path d="M30.1974 396.253C31.0364 396.253 31.7165 395.554 31.7165 394.691C31.7165 393.829 31.0364 393.13 30.1974 393.13C29.3585 393.13 28.6784 393.829 28.6784 394.691C28.6784 395.554 29.3585 396.253 30.1974 396.253Z" fill="#1B8CF5"/>
<path d="M27.9584 403.864C28.7974 403.864 29.4775 403.165 29.4775 402.303C29.4775 401.44 28.7974 400.741 27.9584 400.741C27.1195 400.741 26.4394 401.44 26.4394 402.303C26.4394 403.165 27.1195 403.864 27.9584 403.864Z" fill="#1B8CF5"/>
<path d="M25.5302 400.958C26.3691 400.958 27.0492 400.259 27.0492 399.396C27.0492 398.534 26.3691 397.835 25.5302 397.835C24.6912 397.835 24.0111 398.534 24.0111 399.396C24.0111 400.259 24.6912 400.958 25.5302 400.958Z" fill="#1B8CF5"/>
<path d="M26.6096 397.29C27.4486 397.29 28.1287 396.59 28.1287 395.728C28.1287 394.866 27.4486 394.166 26.6096 394.166C25.7706 394.166 25.0905 394.866 25.0905 395.728C25.0905 396.59 25.7706 397.29 26.6096 397.29Z" fill="#1B8CF5"/>
<path d="M20.6817 395.58C21.4352 395.58 22.0461 394.952 22.0461 394.177C22.0461 393.402 21.4352 392.774 20.6817 392.774C19.9282 392.774 19.3173 393.402 19.3173 394.177C19.3173 394.952 19.9282 395.58 20.6817 395.58Z" fill="#1B8CF5"/>
<path d="M23.9772 394.648C24.7307 394.648 25.3416 394.02 25.3416 393.245C25.3416 392.471 24.7307 391.843 23.9772 391.843C23.2237 391.843 22.6128 392.471 22.6128 393.245C22.6128 394.02 23.2237 394.648 23.9772 394.648Z" fill="#1B8CF5"/>
<path d="M24.3675 391.157C25.121 391.157 25.7319 390.529 25.7319 389.754C25.7319 388.979 25.121 388.351 24.3675 388.351C23.614 388.351 23.0031 388.979 23.0031 389.754C23.0031 390.529 23.614 391.157 24.3675 391.157Z" fill="#1B8CF5"/>
<path d="M23.1517 398.058C23.9052 398.058 24.5161 397.43 24.5161 396.655C24.5161 395.88 23.9052 395.252 23.1517 395.252C22.3982 395.252 21.7873 395.88 21.7873 396.655C21.7873 397.43 22.3982 398.058 23.1517 398.058Z" fill="#1B8CF5"/>
<path d="M19.8557 398.989C20.6092 398.989 21.2201 398.361 21.2201 397.586C21.2201 396.812 20.6092 396.184 19.8557 396.184C19.1022 396.184 18.4913 396.812 18.4913 397.586C18.4913 398.361 19.1022 398.989 19.8557 398.989Z" fill="#1B8CF5"/>
<path d="M22.1619 401.188C22.8263 401.188 23.365 400.635 23.365 399.952C23.365 399.268 22.8263 398.715 22.1619 398.715C21.4974 398.715 20.9587 399.268 20.9587 399.952C20.9587 400.635 21.4974 401.188 22.1619 401.188Z" fill="#1B8CF5"/>
<path d="M17.4334 396.682C18.0046 396.682 18.4677 396.206 18.4677 395.619C18.4677 395.031 18.0046 394.555 17.4334 394.555C16.8621 394.555 16.399 395.031 16.399 395.619C16.399 396.206 16.8621 396.682 17.4334 396.682Z" fill="#1B8CF5"/>
<path d="M1052.21 40.711C1051.13 40.711 1050.06 40.4986 1049.07 40.086C1048.07 39.6733 1047.17 39.0685 1046.4 38.306C1045.64 37.5436 1045.04 36.6384 1044.63 35.6422C1044.21 34.646 1044 33.5783 1044 32.5C1044 31.4217 1044.21 30.354 1044.63 29.3578C1045.04 28.3616 1045.64 27.4565 1046.4 26.694C1047.17 25.9315 1048.07 25.3267 1049.07 24.9141C1050.06 24.5014 1051.13 24.2891 1052.21 24.2891C1053.29 24.2891 1054.36 24.5014 1055.35 24.9141C1056.35 25.3267 1057.25 25.9315 1058.02 26.694C1058.78 27.4565 1059.38 28.3616 1059.8 29.3578C1060.21 30.354 1060.42 31.4217 1060.42 32.5C1060.42 33.5783 1060.21 34.646 1059.8 35.6422C1059.38 36.6384 1058.78 37.5436 1058.02 38.306C1057.25 39.0685 1056.35 39.6733 1055.35 40.086C1054.36 40.4986 1053.29 40.711 1052.21 40.711V40.711Z" fill="#1B8CF5"/>
<path d="M1067.64 38V26.3636H1071.78C1072.69 26.3636 1073.44 26.5284 1074.03 26.858C1074.63 27.1875 1075.07 27.6383 1075.37 28.2102C1075.66 28.7784 1075.81 29.4186 1075.81 30.1307C1075.81 30.8466 1075.66 31.4905 1075.36 32.0625C1075.07 32.6307 1074.62 33.0814 1074.02 33.4148C1073.43 33.7443 1072.68 33.9091 1071.78 33.9091H1068.92V32.4205H1071.62C1072.19 32.4205 1072.65 32.322 1073.01 32.125C1073.37 31.9242 1073.63 31.6515 1073.79 31.3068C1073.96 30.9621 1074.04 30.5701 1074.04 30.1307C1074.04 29.6913 1073.96 29.3011 1073.79 28.9602C1073.63 28.6193 1073.36 28.3523 1073 28.1591C1072.65 27.9659 1072.18 27.8693 1071.6 27.8693H1069.39V38H1067.64ZM1077.73 38V29.2727H1079.38V30.6591H1079.47C1079.63 30.1894 1079.91 29.8201 1080.31 29.5511C1080.71 29.2784 1081.17 29.142 1081.68 29.142C1081.79 29.142 1081.91 29.1458 1082.06 29.1534C1082.2 29.161 1082.32 29.1705 1082.4 29.1818V30.8068C1082.34 30.7879 1082.21 30.767 1082.04 30.7443C1081.87 30.7178 1081.69 30.7045 1081.52 30.7045C1081.12 30.7045 1080.76 30.7898 1080.44 30.9602C1080.13 31.1269 1079.89 31.3598 1079.7 31.6591C1079.52 31.9545 1079.43 32.2917 1079.43 32.6705V38H1077.73ZM1083.87 38V29.2727H1085.57V38H1083.87ZM1084.73 27.9261C1084.44 27.9261 1084.18 27.8277 1083.97 27.6307C1083.76 27.4299 1083.66 27.1913 1083.66 26.9148C1083.66 26.6345 1083.76 26.3958 1083.97 26.1989C1084.18 25.9981 1084.44 25.8977 1084.73 25.8977C1085.03 25.8977 1085.28 25.9981 1085.49 26.1989C1085.7 26.3958 1085.81 26.6345 1085.81 26.9148C1085.81 27.1913 1085.7 27.4299 1085.49 27.6307C1085.28 27.8277 1085.03 27.9261 1084.73 27.9261ZM1087.86 38V29.2727H1089.49V30.6932H1089.6C1089.78 30.2121 1090.08 29.8371 1090.49 29.5682C1090.9 29.2955 1091.4 29.1591 1091.97 29.1591C1092.56 29.1591 1093.04 29.2955 1093.44 29.5682C1093.84 29.8409 1094.13 30.2159 1094.32 30.6932H1094.41C1094.62 30.2273 1094.95 29.8561 1095.4 29.5795C1095.86 29.2992 1096.4 29.1591 1097.03 29.1591C1097.82 29.1591 1098.47 29.4072 1098.97 29.9034C1099.47 30.3996 1099.72 31.1477 1099.72 32.1477V38H1098.02V32.3068C1098.02 31.7159 1097.86 31.2879 1097.54 31.0227C1097.22 30.7576 1096.83 30.625 1096.39 30.625C1095.83 30.625 1095.4 30.7955 1095.1 31.1364C1094.79 31.4735 1094.64 31.9072 1094.64 32.4375V38H1092.94V32.1989C1092.94 31.7254 1092.8 31.3447 1092.5 31.0568C1092.2 30.7689 1091.82 30.625 1091.35 30.625C1091.02 30.625 1090.73 30.7102 1090.45 30.8807C1090.19 31.0473 1089.97 31.2803 1089.8 31.5795C1089.64 31.8788 1089.56 32.2254 1089.56 32.6193V38H1087.86ZM1104.54 38.1932C1103.99 38.1932 1103.49 38.0909 1103.04 37.8864C1102.59 37.678 1102.24 37.3769 1101.98 36.983C1101.72 36.589 1101.59 36.1061 1101.59 35.5341C1101.59 35.0417 1101.68 34.6364 1101.87 34.3182C1102.06 34 1102.32 33.7481 1102.64 33.5625C1102.96 33.3769 1103.32 33.2367 1103.72 33.142C1104.12 33.0473 1104.52 32.9754 1104.94 32.9261C1105.46 32.8655 1105.88 32.8163 1106.21 32.7784C1106.53 32.7367 1106.77 32.6705 1106.92 32.5795C1107.07 32.4886 1107.14 32.3409 1107.14 32.1364V32.0966C1107.14 31.6004 1107 31.2159 1106.72 30.9432C1106.44 30.6705 1106.03 30.5341 1105.48 30.5341C1104.91 30.5341 1104.46 30.661 1104.13 30.9148C1103.8 31.1648 1103.58 31.4432 1103.45 31.75L1101.86 31.3864C1102.05 30.8561 1102.32 30.428 1102.69 30.1023C1103.05 29.7727 1103.48 29.5341 1103.95 29.3864C1104.43 29.2348 1104.93 29.1591 1105.46 29.1591C1105.81 29.1591 1106.18 29.2008 1106.57 29.2841C1106.96 29.3636 1107.33 29.5114 1107.67 29.7273C1108.01 29.9432 1108.3 30.2519 1108.52 30.6534C1108.74 31.0511 1108.85 31.5682 1108.85 32.2045V38H1107.19V36.8068H1107.12C1107.01 37.0265 1106.84 37.2424 1106.62 37.4545C1106.4 37.6667 1106.12 37.8428 1105.78 37.983C1105.43 38.1231 1105.02 38.1932 1104.54 38.1932ZM1104.91 36.8295C1105.38 36.8295 1105.78 36.7367 1106.11 36.5511C1106.45 36.3655 1106.71 36.1231 1106.88 35.8239C1107.06 35.5208 1107.15 35.197 1107.15 34.8523V33.7273C1107.09 33.7879 1106.97 33.8447 1106.79 33.8977C1106.62 33.947 1106.43 33.9905 1106.21 34.0284C1105.99 34.0625 1105.78 34.0947 1105.57 34.125C1105.36 34.1515 1105.18 34.1742 1105.04 34.1932C1104.71 34.2348 1104.41 34.3049 1104.14 34.4034C1103.87 34.5019 1103.66 34.6439 1103.49 34.8295C1103.33 35.0114 1103.25 35.2538 1103.25 35.5568C1103.25 35.9773 1103.41 36.2955 1103.72 36.5114C1104.03 36.7235 1104.43 36.8295 1104.91 36.8295ZM1111.11 38V29.2727H1112.75V30.6591H1112.84C1113 30.1894 1113.28 29.8201 1113.68 29.5511C1114.09 29.2784 1114.55 29.142 1115.06 29.142C1115.16 29.142 1115.29 29.1458 1115.43 29.1534C1115.58 29.161 1115.7 29.1705 1115.78 29.1818V30.8068C1115.71 30.7879 1115.59 30.767 1115.42 30.7443C1115.24 30.7178 1115.07 30.7045 1114.89 30.7045C1114.49 30.7045 1114.13 30.7898 1113.82 30.9602C1113.51 31.1269 1113.26 31.3598 1113.08 31.6591C1112.9 31.9545 1112.81 32.2917 1112.81 32.6705V38H1111.11ZM1118.59 41.2727C1118.33 41.2727 1118.1 41.2519 1117.9 41.2102C1117.69 41.1723 1117.53 41.1307 1117.43 41.0852L1117.84 39.6932C1118.15 39.7765 1118.43 39.8125 1118.67 39.8011C1118.91 39.7898 1119.12 39.6989 1119.31 39.5284C1119.5 39.358 1119.67 39.0795 1119.81 38.6932L1120.02 38.1136L1116.83 29.2727H1118.65L1120.86 36.0455H1120.95L1123.16 29.2727H1124.98L1121.38 39.1648C1121.22 39.6193 1121.01 40.0038 1120.75 40.3182C1120.49 40.6364 1120.18 40.875 1119.83 41.0341C1119.47 41.1932 1119.06 41.2727 1118.59 41.2727Z" fill="#7B7B7B"/>
<path d="M1052.21 69.9746C1051.13 69.9746 1050.06 69.7623 1049.07 69.3496C1048.07 68.937 1047.17 68.3322 1046.4 67.5697C1045.64 66.8073 1045.04 65.9021 1044.63 64.9059C1044.21 63.9097 1044 62.842 1044 61.7637C1044 60.6854 1044.21 59.6177 1044.63 58.6215C1045.04 57.6253 1045.64 56.7201 1046.4 55.9577C1047.17 55.1952 1048.07 54.5904 1049.07 54.1778C1050.06 53.7651 1051.13 53.5527 1052.21 53.5527C1053.29 53.5527 1054.36 53.7651 1055.35 54.1778C1056.35 54.5904 1057.25 55.1952 1058.02 55.9577C1058.78 56.7201 1059.38 57.6253 1059.8 58.6215C1060.21 59.6177 1060.42 60.6854 1060.42 61.7637C1060.42 62.842 1060.21 63.9097 1059.8 64.9059C1059.38 65.9021 1058.78 66.8073 1058.02 67.5697C1057.25 68.3322 1056.35 68.937 1055.35 69.3496C1054.36 69.7623 1053.29 69.9746 1052.21 69.9746V69.9746Z" fill="#9DCFFE"/>
<path d="M1073.74 58.6841C1073.68 58.1462 1073.43 57.7296 1072.99 57.4341C1072.55 57.1349 1072 56.9853 1071.33 56.9853C1070.85 56.9853 1070.44 57.061 1070.09 57.2125C1069.74 57.3603 1069.47 57.5648 1069.28 57.8262C1069.09 58.0837 1069 58.3773 1069 58.7069C1069 58.9834 1069.06 59.222 1069.19 59.4228C1069.32 59.6235 1069.49 59.7921 1069.71 59.9284C1069.92 60.061 1070.15 60.1728 1070.4 60.2637C1070.64 60.3508 1070.88 60.4228 1071.11 60.4796L1072.25 60.775C1072.62 60.8659 1073 60.9891 1073.39 61.1444C1073.78 61.2997 1074.14 61.5042 1074.47 61.758C1074.81 62.0118 1075.07 62.3262 1075.28 62.7012C1075.49 63.0762 1075.59 63.525 1075.59 64.0478C1075.59 64.7069 1075.42 65.2921 1075.08 65.8034C1074.74 66.3148 1074.25 66.7182 1073.61 67.0137C1072.97 67.3091 1072.19 67.4569 1071.29 67.4569C1070.41 67.4569 1069.66 67.3186 1069.02 67.0421C1068.39 66.7656 1067.89 66.3735 1067.53 65.8659C1067.17 65.3546 1066.97 64.7485 1066.93 64.0478H1068.69C1068.73 64.4682 1068.86 64.8186 1069.1 65.0989C1069.35 65.3754 1069.65 65.5819 1070.03 65.7182C1070.41 65.8508 1070.82 65.9171 1071.27 65.9171C1071.77 65.9171 1072.21 65.8394 1072.6 65.6841C1072.99 65.525 1073.29 65.3053 1073.52 65.025C1073.74 64.7409 1073.85 64.4095 1073.85 64.0307C1073.85 63.686 1073.75 63.4038 1073.56 63.1841C1073.36 62.9644 1073.1 62.7826 1072.77 62.6387C1072.44 62.4947 1072.07 62.3678 1071.65 62.258L1070.27 61.883C1069.34 61.6292 1068.6 61.2561 1068.06 60.7637C1067.52 60.2712 1067.25 59.6197 1067.25 58.8091C1067.25 58.1387 1067.43 57.5534 1067.79 57.0534C1068.15 56.5534 1068.65 56.1652 1069.27 55.8887C1069.89 55.6084 1070.59 55.4682 1071.37 55.4682C1072.16 55.4682 1072.85 55.6065 1073.46 55.883C1074.06 56.1595 1074.54 56.5402 1074.89 57.025C1075.24 57.5061 1075.42 58.0591 1075.43 58.6841H1073.74ZM1081.31 67.4398C1080.46 67.4398 1079.71 67.2561 1079.09 66.8887C1078.48 66.5175 1078 65.9966 1077.66 65.3262C1077.33 64.6519 1077.16 63.8622 1077.16 62.9569C1077.16 62.0629 1077.33 61.275 1077.66 60.5932C1078 59.9114 1078.47 59.3792 1079.07 58.9966C1079.68 58.6141 1080.38 58.4228 1081.2 58.4228C1081.69 58.4228 1082.17 58.5042 1082.63 58.6671C1083.09 58.83 1083.5 59.0856 1083.87 59.4341C1084.24 59.7826 1084.53 60.2353 1084.74 60.7921C1084.95 61.3451 1085.06 62.0175 1085.06 62.8091V63.4114H1078.12V62.1387H1083.39C1083.39 61.6917 1083.3 61.2959 1083.12 60.9512C1082.94 60.6027 1082.68 60.3281 1082.35 60.1273C1082.03 59.9266 1081.65 59.8262 1081.21 59.8262C1080.73 59.8262 1080.31 59.9436 1079.96 60.1784C1079.6 60.4095 1079.33 60.7125 1079.14 61.0875C1078.95 61.4587 1078.85 61.8622 1078.85 62.2978V63.2921C1078.85 63.8754 1078.96 64.3716 1079.16 64.7807C1079.37 65.1898 1079.66 65.5023 1080.03 65.7182C1080.4 65.9303 1080.84 66.0364 1081.33 66.0364C1081.65 66.0364 1081.95 65.9909 1082.21 65.9C1082.48 65.8053 1082.71 65.6652 1082.9 65.4796C1083.09 65.294 1083.24 65.0648 1083.34 64.7921L1084.95 65.0819C1084.82 65.5553 1084.59 65.9701 1084.26 66.3262C1083.93 66.6784 1083.51 66.9531 1083.01 67.15C1082.52 67.3432 1081.95 67.4398 1081.31 67.4398ZM1090.62 67.4398C1089.78 67.4398 1089.05 67.2485 1088.44 66.8659C1087.83 66.4796 1087.37 65.9474 1087.04 65.2694C1086.72 64.5913 1086.55 63.8148 1086.55 62.9398C1086.55 62.0534 1086.72 61.2712 1087.05 60.5932C1087.39 59.9114 1087.86 59.3792 1088.46 58.9966C1089.07 58.6141 1089.78 58.4228 1090.6 58.4228C1091.27 58.4228 1091.86 58.5459 1092.38 58.7921C1092.89 59.0345 1093.31 59.3754 1093.63 59.8148C1093.95 60.2542 1094.14 60.7675 1094.21 61.3546H1092.55C1092.46 60.9455 1092.25 60.5932 1091.93 60.2978C1091.61 60.0023 1091.17 59.8546 1090.63 59.8546C1090.16 59.8546 1089.74 59.9796 1089.39 60.2296C1089.04 60.4758 1088.76 60.8281 1088.56 61.2864C1088.37 61.7409 1088.27 62.2788 1088.27 62.9C1088.27 63.5364 1088.36 64.0856 1088.56 64.5478C1088.75 65.0099 1089.02 65.3678 1089.38 65.6216C1089.73 65.8754 1090.15 66.0023 1090.63 66.0023C1090.95 66.0023 1091.25 65.9436 1091.51 65.8262C1091.77 65.705 1091.99 65.5326 1092.17 65.3091C1092.35 65.0856 1092.48 64.8167 1092.55 64.5023H1094.21C1094.14 65.0667 1093.96 65.5705 1093.65 66.0137C1093.35 66.4569 1092.94 66.8053 1092.42 67.0591C1091.91 67.3129 1091.31 67.4398 1090.62 67.4398ZM1099.7 67.4398C1098.88 67.4398 1098.17 67.2523 1097.56 66.8773C1096.95 66.5023 1096.47 65.9777 1096.14 65.3034C1095.8 64.6292 1095.63 63.8413 1095.63 62.9398C1095.63 62.0345 1095.8 61.2428 1096.14 60.5648C1096.47 59.8868 1096.95 59.3603 1097.56 58.9853C1098.17 58.6103 1098.88 58.4228 1099.7 58.4228C1100.52 58.4228 1101.23 58.6103 1101.84 58.9853C1102.45 59.3603 1102.92 59.8868 1103.26 60.5648C1103.6 61.2428 1103.77 62.0345 1103.77 62.9398C1103.77 63.8413 1103.6 64.6292 1103.26 65.3034C1102.92 65.9777 1102.45 66.5023 1101.84 66.8773C1101.23 67.2523 1100.52 67.4398 1099.7 67.4398ZM1099.7 66.0137C1100.23 66.0137 1100.67 65.8735 1101.02 65.5932C1101.37 65.3129 1101.63 64.9398 1101.8 64.4739C1101.97 64.008 1102.05 63.4947 1102.05 62.9341C1102.05 62.3773 1101.97 61.8659 1101.8 61.4C1101.63 60.9303 1101.37 60.5534 1101.02 60.2694C1100.67 59.9853 1100.23 59.8432 1099.7 59.8432C1099.17 59.8432 1098.73 59.9853 1098.37 60.2694C1098.03 60.5534 1097.77 60.9303 1097.6 61.4C1097.43 61.8659 1097.35 62.3773 1097.35 62.9341C1097.35 63.4947 1097.43 64.008 1097.6 64.4739C1097.77 64.9398 1098.03 65.3129 1098.37 65.5932C1098.73 65.8735 1099.17 66.0137 1099.7 66.0137ZM1107.36 62.0819V67.2637H1105.66V58.5364H1107.29V59.9569H1107.4C1107.6 59.4947 1107.92 59.1235 1108.34 58.8432C1108.78 58.5629 1109.32 58.4228 1109.98 58.4228C1110.57 58.4228 1111.09 58.5478 1111.54 58.7978C1111.98 59.044 1112.33 59.4114 1112.58 59.9C1112.82 60.3887 1112.95 60.9928 1112.95 61.7125V67.2637H1111.25V61.9171C1111.25 61.2845 1111.08 60.7902 1110.75 60.4341C1110.42 60.0743 1109.97 59.8944 1109.4 59.8944C1109 59.8944 1108.65 59.9796 1108.34 60.15C1108.04 60.3205 1107.8 60.5705 1107.62 60.9C1107.45 61.2258 1107.36 61.6197 1107.36 62.0819ZM1118.49 67.4341C1117.79 67.4341 1117.16 67.2542 1116.61 66.8944C1116.06 66.5307 1115.63 66.0137 1115.31 65.3432C1115 64.669 1114.84 63.8603 1114.84 62.9171C1114.84 61.9739 1115 61.1671 1115.32 60.4966C1115.63 59.8262 1116.07 59.3129 1116.62 58.9569C1117.18 58.6008 1117.8 58.4228 1118.5 58.4228C1119.05 58.4228 1119.48 58.5137 1119.81 58.6955C1120.14 58.8735 1120.4 59.0819 1120.58 59.3205C1120.77 59.5591 1120.91 59.7694 1121.02 59.9512H1121.12V55.6273H1122.82V67.2637H1121.16V65.9057H1121.02C1120.91 66.0913 1120.77 66.3034 1120.57 66.5421C1120.38 66.7807 1120.12 66.9891 1119.79 67.1671C1119.45 67.3451 1119.02 67.4341 1118.49 67.4341ZM1118.87 65.9853C1119.36 65.9853 1119.77 65.8565 1120.11 65.5989C1120.45 65.3375 1120.7 64.9758 1120.88 64.5137C1121.06 64.0516 1121.15 63.5137 1121.15 62.9C1121.15 62.294 1121.06 61.7637 1120.88 61.3091C1120.71 60.8546 1120.45 60.5004 1120.12 60.2466C1119.78 59.9928 1119.36 59.8659 1118.87 59.8659C1118.36 59.8659 1117.93 59.9985 1117.59 60.2637C1117.25 60.5288 1116.99 60.8906 1116.82 61.3489C1116.65 61.8072 1116.56 62.3243 1116.56 62.9C1116.56 63.4834 1116.65 64.008 1116.82 64.4739C1117 64.9398 1117.25 65.3091 1117.59 65.5819C1117.94 65.8508 1118.36 65.9853 1118.87 65.9853ZM1127.78 67.4569C1127.23 67.4569 1126.73 67.3546 1126.28 67.15C1125.83 66.9417 1125.48 66.6406 1125.22 66.2466C1124.96 65.8527 1124.83 65.3697 1124.83 64.7978C1124.83 64.3053 1124.93 63.9 1125.12 63.5819C1125.31 63.2637 1125.56 63.0118 1125.88 62.8262C1126.21 62.6406 1126.56 62.5004 1126.96 62.4057C1127.36 62.311 1127.77 62.2391 1128.18 62.1898C1128.7 62.1292 1129.13 62.08 1129.45 62.0421C1129.78 62.0004 1130.01 61.9341 1130.16 61.8432C1130.31 61.7523 1130.38 61.6046 1130.38 61.4V61.3603C1130.38 60.8641 1130.24 60.4796 1129.96 60.2069C1129.69 59.9341 1129.27 59.7978 1128.72 59.7978C1128.15 59.7978 1127.7 59.9247 1127.37 60.1784C1127.05 60.4284 1126.82 60.7069 1126.7 61.0137L1125.1 60.65C1125.29 60.1197 1125.56 59.6917 1125.93 59.3659C1126.3 59.0364 1126.72 58.7978 1127.2 58.65C1127.67 58.4985 1128.17 58.4228 1128.7 58.4228C1129.05 58.4228 1129.42 58.4644 1129.81 58.5478C1130.2 58.6273 1130.57 58.775 1130.91 58.9909C1131.26 59.2069 1131.54 59.5156 1131.76 59.9171C1131.98 60.3148 1132.09 60.8319 1132.09 61.4682V67.2637H1130.43V66.0705H1130.36C1130.25 66.2902 1130.09 66.5061 1129.87 66.7182C1129.65 66.9303 1129.36 67.1065 1129.02 67.2466C1128.67 67.3868 1128.26 67.4569 1127.78 67.4569ZM1128.15 66.0932C1128.62 66.0932 1129.02 66.0004 1129.35 65.8148C1129.69 65.6292 1129.95 65.3868 1130.12 65.0875C1130.3 64.7845 1130.39 64.4606 1130.39 64.1159V62.9909C1130.33 63.0516 1130.21 63.1084 1130.04 63.1614C1129.87 63.2106 1129.67 63.2542 1129.45 63.2921C1129.23 63.3262 1129.02 63.3584 1128.81 63.3887C1128.6 63.4152 1128.43 63.4379 1128.29 63.4569C1127.96 63.4985 1127.66 63.5686 1127.38 63.6671C1127.11 63.7656 1126.9 63.9076 1126.74 64.0932C1126.58 64.275 1126.5 64.5175 1126.5 64.8205C1126.5 65.2409 1126.65 65.5591 1126.96 65.775C1127.27 65.9872 1127.67 66.0932 1128.15 66.0932ZM1134.35 67.2637V58.5364H1135.99V59.9228H1136.08C1136.24 59.4531 1136.52 59.0837 1136.92 58.8148C1137.33 58.5421 1137.79 58.4057 1138.3 58.4057C1138.41 58.4057 1138.53 58.4095 1138.67 58.4171C1138.82 58.4247 1138.94 58.4341 1139.02 58.4455V60.0705C1138.95 60.0516 1138.83 60.0307 1138.66 60.008C1138.48 59.9815 1138.31 59.9682 1138.13 59.9682C1137.73 59.9682 1137.38 60.0534 1137.06 60.2239C1136.75 60.3906 1136.5 60.6235 1136.32 60.9228C1136.14 61.2182 1136.05 61.5553 1136.05 61.9341V67.2637H1134.35ZM1141.83 70.5364C1141.58 70.5364 1141.35 70.5156 1141.14 70.4739C1140.93 70.436 1140.77 70.3944 1140.67 70.3489L1141.08 68.9569C1141.39 69.0402 1141.67 69.0762 1141.91 69.0648C1142.15 69.0534 1142.37 68.9625 1142.55 68.7921C1142.74 68.6216 1142.91 68.3432 1143.05 67.9569L1143.26 67.3773L1140.07 58.5364H1141.89L1144.1 65.3091H1144.19L1146.4 58.5364H1148.22L1144.63 68.4284C1144.46 68.883 1144.25 69.2675 1143.99 69.5819C1143.73 69.9 1143.43 70.1387 1143.07 70.2978C1142.71 70.4569 1142.3 70.5364 1141.83 70.5364Z" fill="#7B7B7B"/>
<rect x="1034.5" y="13.5" width="123.896" height="67.2637" rx="9.5" stroke="#CCCCCC"/>
</svg>
