<svg width="2294" height="986" viewBox="0 0 2294 986" fill="none" xmlns="http://www.w3.org/2000/svg">
<rect x="347.5" y="617.5" width="113" height="147" rx="35.5" fill="#BBB8B8" stroke="black" stroke-width="3"/>
<rect x="501.5" y="617.5" width="113" height="147" rx="35.5" fill="#BBB8B8" stroke="black" stroke-width="3"/>
<rect x="803.5" y="638.5" width="111" height="126" rx="35.5" fill="#BBB8B8" stroke="black" stroke-width="3"/>
<rect width="2291.07" height="372.236" rx="28" transform="matrix(0.999974 0.00726573 -0.00664192 0.999978 2.47236 309.051)" fill="#D9D9D9"/>
<rect width="2291.07" height="22.2213" transform="matrix(0.999974 0.00726573 -0.00664192 0.999978 2.47236 232.164)" fill="#BBB8B8"/>
<rect x="361.5" y="411.5" width="590" height="173" rx="60" fill="#BBB8B8" stroke="#E86B00" stroke-width="3"/>
<rect x="395.956" y="240.715" width="141.126" height="31.4476" rx="8.5" transform="rotate(-3.10927 395.956 240.715)" fill="#BBB8B8" stroke="#E86B00" stroke-width="3"/>
<rect x="453.5" y="823.5" width="404" height="62" rx="19.5" fill="#BBB8B8" stroke="black" stroke-width="3"/>
<mask id="path-9-inside-1_78_229" fill="white">
<path fill-rule="evenodd" clip-rule="evenodd" d="M602.744 45.8774C604.83 41.6795 606 36.9722 606 32C606 14.3269 591.225 0 573 0C554.774 0 540 14.3269 540 32C540 38.2693 541.859 44.1175 545.072 49.0545L14.0361 78.3086L15.6638 110.631L1132.77 49.0904L1131.15 16.7683L602.744 45.8774Z"/>
</mask>
<path fill-rule="evenodd" clip-rule="evenodd" d="M602.744 45.8774C604.83 41.6795 606 36.9722 606 32C606 14.3269 591.225 0 573 0C554.774 0 540 14.3269 540 32C540 38.2693 541.859 44.1175 545.072 49.0545L14.0361 78.3086L15.6638 110.631L1132.77 49.0904L1131.15 16.7683L602.744 45.8774Z" fill="#BBB8B8"/>
<path d="M602.744 45.8774L600.057 44.542L597.763 49.1563L602.909 48.8728L602.744 45.8774ZM545.072 49.0545L545.237 52.0499L550.415 51.7647L547.586 47.4181L545.072 49.0545ZM14.0361 78.3086L13.8711 75.3131L10.8897 75.4774L11.0399 78.4595L14.0361 78.3086ZM15.6638 110.631L12.6676 110.782L12.8192 113.792L15.8288 113.626L15.6638 110.631ZM1132.77 49.0904L1132.94 52.0858L1135.92 51.9216L1135.77 48.9395L1132.77 49.0904ZM1131.15 16.7683L1134.14 16.6174L1133.99 13.607L1130.98 13.7728L1131.15 16.7683ZM603 32C603 36.4961 601.943 40.7475 600.057 44.542L605.43 47.2128C607.717 42.6115 609 37.4483 609 32H603ZM573 3C589.656 3 603 16.0701 603 32H609C609 12.5837 592.794 -3 573 -3V3ZM543 32C543 16.0701 556.343 3 573 3V-3C553.205 -3 537 12.5837 537 32H543ZM547.586 47.4181C544.678 42.9489 543 37.6659 543 32H537C537 38.8727 539.04 45.286 542.557 50.6908L547.586 47.4181ZM14.2011 81.3041L545.237 52.0499L544.907 46.059L13.8711 75.3131L14.2011 81.3041ZM18.66 110.48L17.0323 78.1577L11.0399 78.4595L12.6676 110.782L18.66 110.48ZM1132.61 46.0949L15.4988 107.635L15.8288 113.626L1132.94 52.0858L1132.61 46.0949ZM1128.15 16.9192L1129.78 49.2413L1135.77 48.9395L1134.14 16.6174L1128.15 16.9192ZM602.909 48.8728L1131.31 19.7638L1130.98 13.7728L602.578 42.8819L602.909 48.8728Z" fill="#054768" mask="url(#path-9-inside-1_78_229)"/>
<mask id="path-11-inside-2_78_229" fill="white">
<path fill-rule="evenodd" clip-rule="evenodd" d="M1704.25 45.8585C1702.17 41.6654 1701 36.9647 1701 32C1701 14.3269 1715.77 0 1734 0C1752.23 0 1767 14.3269 1767 32C1767 38.2618 1765.15 44.1035 1761.94 49.0367L2293.3 78.3086L2291.67 110.631L1174.56 49.0904L1176.19 16.7683L1704.25 45.8585Z"/>
</mask>
<path fill-rule="evenodd" clip-rule="evenodd" d="M1704.25 45.8585C1702.17 41.6654 1701 36.9647 1701 32C1701 14.3269 1715.77 0 1734 0C1752.23 0 1767 14.3269 1767 32C1767 38.2618 1765.15 44.1035 1761.94 49.0367L2293.3 78.3086L2291.67 110.631L1174.56 49.0904L1176.19 16.7683L1704.25 45.8585Z" fill="#BBB8B8"/>
<path d="M1704.25 45.8585L1704.08 48.854L1709.22 49.1372L1706.93 44.5249L1704.25 45.8585ZM1761.94 49.0367L1759.42 47.402L1756.6 51.7472L1761.77 52.0322L1761.94 49.0367ZM2293.3 78.3086L2296.29 78.4595L2296.44 75.4774L2293.46 75.3131L2293.3 78.3086ZM2291.67 110.631L2291.5 113.626L2294.51 113.792L2294.67 110.782L2291.67 110.631ZM1174.56 49.0904L1171.56 48.9395L1171.41 51.9216L1174.39 52.0858L1174.56 49.0904ZM1176.19 16.7683L1176.35 13.7728L1173.34 13.607L1173.19 16.6174L1176.19 16.7683ZM1698 32C1698 37.4401 1699.28 42.596 1701.56 47.1921L1706.93 44.5249C1705.05 40.7347 1704 36.4893 1704 32H1698ZM1734 -3C1714.21 -3 1698 12.5837 1698 32H1704C1704 16.0701 1717.34 3 1734 3V-3ZM1770 32C1770 12.5837 1753.79 -3 1734 -3V3C1750.66 3 1764 16.0701 1764 32H1770ZM1764.45 50.6715C1767.96 45.2707 1770 38.8644 1770 32H1764C1764 37.6592 1762.33 42.9363 1759.42 47.402L1764.45 50.6715ZM2293.46 75.3131L1762.1 46.0413L1761.77 52.0322L2293.13 81.3041L2293.46 75.3131ZM2294.67 110.782L2296.29 78.4595L2290.3 78.1577L2288.67 110.48L2294.67 110.782ZM1174.39 52.0858L2291.5 113.626L2291.83 107.635L1174.72 46.0949L1174.39 52.0858ZM1173.19 16.6174L1171.56 48.9395L1177.55 49.2413L1179.18 16.9192L1173.19 16.6174ZM1704.41 42.8631L1176.35 13.7728L1176.02 19.7638L1704.08 48.854L1704.41 42.8631Z" fill="#054768" mask="url(#path-11-inside-2_78_229)"/>
<rect x="1087" y="649" width="326" height="337" rx="28" fill="#D9D9D9"/>
<rect x="1137.5" y="863.5" width="226" height="12" rx="6" fill="#BBB8B8" stroke="#E86B00" stroke-width="3"/>
<rect x="1123.5" y="474.5" width="254" height="341" rx="8.5" fill="#BBB8B8" stroke="#E86B00" stroke-width="3"/>
<rect x="1183.5" y="855.5" width="42" height="26" rx="11" fill="#BBB8B8" stroke="#E86B00" stroke-width="3"/>
<rect x="414.597" y="342.895" width="124.172" height="55.585" rx="4.5" transform="rotate(-5.82566 414.597 342.895)" fill="#BBB8B8" stroke="#054768" stroke-width="3"/>
<ellipse cx="1103.5" cy="916" rx="38.5" ry="39" fill="#E86B00"/>
<circle cx="1250.5" cy="648.5" r="38.5" fill="#E86B00"/>
<circle cx="657.5" cy="497.5" r="38.5" fill="#E86B00"/>
<ellipse cx="584.5" cy="210" rx="38.5" ry="39" fill="#E86B00"/>
<circle cx="360.5" cy="361.5" r="38.5" fill="#375666"/>
<circle cx="413" cy="916" r="39" fill="black"/>
<circle cx="413" cy="916" r="39" fill="black"/>
<circle cx="307.5" cy="774.5" r="38.5" fill="black"/>
<circle cx="307.5" cy="774.5" r="38.5" fill="black"/>
<circle cx="1147.5" cy="118.5" r="38.5" fill="#375666"/>
<path d="M1096.94 925H1091.99L1099.53 903.182H1105.47L1112.99 925H1108.05L1102.58 908.168H1102.41L1096.94 925ZM1096.63 916.424H1108.3V920.025H1096.63V916.424Z" fill="white"/>
<path d="M1096.94 925H1091.99L1099.53 903.182H1105.47L1112.99 925H1108.05L1102.58 908.168H1102.41L1096.94 925ZM1096.63 916.424H1108.3V920.025H1096.63V916.424Z" fill="white"/>
<path d="M1241.48 658V636.182H1250.22C1251.82 636.182 1253.16 636.42 1254.23 636.896C1255.3 637.371 1256.11 638.032 1256.65 638.877C1257.19 639.715 1257.46 640.681 1257.46 641.775C1257.46 642.627 1257.29 643.376 1256.95 644.023C1256.61 644.662 1256.14 645.187 1255.54 645.599C1254.95 646.004 1254.28 646.292 1253.52 646.462V646.675C1254.35 646.711 1255.13 646.945 1255.85 647.379C1256.58 647.812 1257.18 648.419 1257.63 649.2C1258.08 649.974 1258.31 650.898 1258.31 651.97C1258.31 653.128 1258.02 654.161 1257.45 655.07C1256.88 655.972 1256.04 656.686 1254.92 657.212C1253.81 657.737 1252.43 658 1250.8 658H1241.48ZM1246.09 654.229H1249.85C1251.14 654.229 1252.08 653.984 1252.67 653.494C1253.25 652.996 1253.55 652.336 1253.55 651.512C1253.55 650.908 1253.4 650.376 1253.11 649.914C1252.82 649.452 1252.41 649.09 1251.87 648.827C1251.33 648.565 1250.7 648.433 1249.96 648.433H1246.09V654.229ZM1246.09 645.312H1249.51C1250.14 645.312 1250.71 645.202 1251.2 644.982C1251.69 644.754 1252.08 644.435 1252.37 644.023C1252.66 643.611 1252.8 643.117 1252.8 642.542C1252.8 641.754 1252.52 641.118 1251.96 640.635C1251.41 640.152 1250.62 639.911 1249.6 639.911H1246.09V645.312Z" fill="white"/>
<path d="M666.368 492.82H661.701C661.616 492.217 661.442 491.68 661.179 491.212C660.917 490.736 660.579 490.331 660.167 489.997C659.755 489.663 659.28 489.408 658.74 489.23C658.207 489.053 657.628 488.964 657.003 488.964C655.874 488.964 654.89 489.244 654.052 489.805C653.214 490.359 652.564 491.169 652.103 492.234C651.641 493.293 651.41 494.578 651.41 496.091C651.41 497.646 651.641 498.953 652.103 500.011C652.571 501.07 653.225 501.869 654.063 502.408C654.901 502.948 655.871 503.218 656.971 503.218C657.589 503.218 658.161 503.136 658.687 502.973C659.219 502.81 659.692 502.572 660.103 502.259C660.515 501.94 660.856 501.553 661.126 501.098C661.403 500.643 661.595 500.125 661.701 499.543L666.368 499.564C666.247 500.565 665.945 501.531 665.462 502.462C664.986 503.385 664.344 504.212 663.534 504.944C662.731 505.668 661.772 506.244 660.657 506.67C659.549 507.089 658.296 507.298 656.897 507.298C654.951 507.298 653.211 506.858 651.677 505.977C650.15 505.097 648.942 503.822 648.054 502.153C647.174 500.484 646.733 498.463 646.733 496.091C646.733 493.712 647.181 491.688 648.076 490.018C648.971 488.349 650.185 487.078 651.719 486.205C653.253 485.324 654.979 484.884 656.897 484.884C658.161 484.884 659.333 485.061 660.412 485.416C661.499 485.771 662.461 486.29 663.299 486.972C664.138 487.646 664.819 488.474 665.345 489.454C665.878 490.434 666.219 491.556 666.368 492.82Z" fill="white"/>
<path d="M582.218 220H574.483V198.182H582.281C584.476 198.182 586.365 198.619 587.949 199.492C589.533 200.359 590.751 201.605 591.603 203.232C592.463 204.858 592.892 206.804 592.892 209.07C592.892 211.342 592.463 213.295 591.603 214.929C590.751 216.562 589.526 217.816 587.928 218.69C586.337 219.563 584.433 220 582.218 220ZM579.096 216.048H582.026C583.389 216.048 584.536 215.806 585.467 215.323C586.404 214.833 587.107 214.077 587.576 213.054C588.052 212.024 588.29 210.696 588.29 209.07C588.29 207.457 588.052 206.14 587.576 205.117C587.107 204.094 586.408 203.342 585.477 202.859C584.547 202.376 583.4 202.134 582.036 202.134H579.096V216.048Z" fill="white"/>
<path d="M363.422 351.182V373H358.809V355.56H358.681L353.685 358.692V354.602L359.086 351.182H363.422Z" fill="white"/>
<path d="M403.772 921.165V917.532L412.881 903.182H416.013V908.21H414.159L408.417 917.298V917.468H421.361V921.165H403.772ZM414.244 925V920.057L414.33 918.448V903.182H418.655V925H414.244Z" fill="white"/>
<path d="M306.445 783.298C304.854 783.298 303.438 783.025 302.195 782.478C300.959 781.924 299.982 781.164 299.265 780.198C298.555 779.225 298.189 778.103 298.168 776.832H302.813C302.841 777.364 303.015 777.833 303.335 778.238C303.661 778.636 304.094 778.945 304.634 779.165C305.174 779.385 305.781 779.495 306.456 779.495C307.159 779.495 307.781 779.371 308.32 779.122C308.86 778.874 309.283 778.529 309.588 778.089C309.893 777.648 310.046 777.141 310.046 776.565C310.046 775.983 309.883 775.468 309.556 775.021C309.237 774.566 308.775 774.211 308.171 773.955C307.575 773.7 306.864 773.572 306.041 773.572H304.006V770.184H306.041C306.737 770.184 307.351 770.063 307.884 769.822C308.423 769.58 308.842 769.246 309.141 768.82C309.439 768.387 309.588 767.883 309.588 767.308C309.588 766.761 309.457 766.281 309.194 765.869C308.938 765.45 308.576 765.124 308.107 764.889C307.646 764.655 307.106 764.538 306.488 764.538C305.863 764.538 305.291 764.651 304.773 764.879C304.254 765.099 303.839 765.415 303.526 765.827C303.214 766.239 303.047 766.722 303.026 767.276H298.604C298.626 766.018 298.984 764.911 299.68 763.952C300.376 762.993 301.314 762.244 302.493 761.704C303.679 761.157 305.018 760.884 306.509 760.884C308.015 760.884 309.332 761.157 310.462 761.704C311.591 762.251 312.468 762.989 313.093 763.92C313.725 764.843 314.038 765.88 314.031 767.031C314.038 768.252 313.658 769.271 312.891 770.088C312.131 770.905 311.14 771.423 309.918 771.643V771.814C311.523 772.02 312.745 772.577 313.583 773.487C314.428 774.388 314.847 775.518 314.84 776.874C314.847 778.117 314.489 779.222 313.764 780.188C313.047 781.153 312.056 781.913 310.792 782.467C309.528 783.021 308.079 783.298 306.445 783.298Z" fill="white"/>
<path d="M1139.82 127V123.676L1147.59 116.485C1148.25 115.846 1148.8 115.271 1149.25 114.759C1149.7 114.248 1150.05 113.747 1150.28 113.257C1150.52 112.76 1150.63 112.224 1150.63 111.648C1150.63 111.009 1150.49 110.459 1150.2 109.997C1149.91 109.528 1149.51 109.17 1149 108.921C1148.5 108.665 1147.93 108.538 1147.29 108.538C1146.62 108.538 1146.04 108.673 1145.54 108.942C1145.04 109.212 1144.66 109.599 1144.39 110.104C1144.12 110.608 1143.99 111.208 1143.99 111.904H1139.61C1139.61 110.477 1139.93 109.237 1140.58 108.186C1141.22 107.135 1142.13 106.322 1143.29 105.746C1144.46 105.171 1145.8 104.884 1147.32 104.884C1148.88 104.884 1150.24 105.161 1151.4 105.714C1152.57 106.261 1153.47 107.021 1154.12 107.994C1154.76 108.967 1155.09 110.082 1155.09 111.339C1155.09 112.163 1154.92 112.977 1154.6 113.779C1154.28 114.582 1153.71 115.473 1152.88 116.453C1152.06 117.426 1150.9 118.594 1149.4 119.958L1146.21 123.08V123.229H1155.37V127H1139.82Z" fill="white"/>
</svg>
