<svg width="2920" height="2077" viewBox="0 0 2920 2077" fill="none" xmlns="http://www.w3.org/2000/svg">
<g clip-path="url(#clip0_78_231)">
<rect width="2920" height="2077" fill="white"/>
<rect x="1516" y="498" width="81" height="82" rx="31" fill="#F3F3F3"/>
<rect x="1646" y="498" width="81" height="82" rx="31" fill="#F3F3F3"/>
<rect x="1776" y="498" width="80" height="82" rx="31" fill="#F3F3F3"/>
<rect opacity="0.2" x="1503.5" y="953.5" width="329" height="330" stroke="#DADADA" stroke-width="3"/>
<rect x="1433" y="788" width="505" height="550" rx="74" fill="#F3F3F3"/>
<rect x="1433" y="1222" width="505" height="116" rx="58" fill="#EBEBEB"/>
<rect width="1603.38" height="354.341" rx="28" transform="matrix(1 0 0.000623831 1 1227 172.271)" fill="#EBEBEB"/>
<rect x="1478" y="331" width="415" height="123" rx="61.5" fill="#005EA3"/>
<rect x="1543" y="619" width="285" height="46" rx="21" fill="#F3F3F3"/>
<path fill-rule="evenodd" clip-rule="evenodd" d="M1647.8 32.1072C1649.21 29.1937 1650 25.9368 1650 22.5C1650 10.0736 1639.7 0 1627 0C1614.3 0 1604 10.0736 1604 22.5C1604 26.8405 1605.26 30.8939 1607.43 34.3312L1235.82 54.8027L1236.96 77.4229L2018.76 34.3547L2017.62 11.7345L1647.8 32.1072Z" fill="#BDBBBB"/>
<path fill-rule="evenodd" clip-rule="evenodd" d="M2418.95 32.1071C2417.54 29.1936 2416.76 25.9368 2416.76 22.5C2416.76 10.0736 2427.05 0 2439.76 0C2452.46 0 2462.76 10.0736 2462.76 22.5C2462.76 26.8404 2461.5 30.8938 2459.32 34.3312L2830.94 54.8027L2829.8 77.4229L2048 34.3547L2049.14 11.7345L2418.95 32.1071Z" fill="#BDBBBB"/>
<rect x="72" y="807" width="25" height="977" fill="#BDBBBB"/>
<rect x="1915" y="498" width="228" height="236" rx="28" fill="#EBEBEB"/>
<rect x="1939" y="375" width="180" height="241" rx="10" fill="#005EA3"/>
<rect x="1949" y="647" width="160" height="11" rx="5.5" fill="#DADADA"/>
<rect x="1979" y="632" width="40" height="40" rx="20" fill="#005EA3"/>
<rect x="1455" y="217.773" width="179" height="87" rx="15" transform="rotate(-9.24987 1455 217.773)" fill="#005EA3"/>
<rect x="1467.54" y="251.193" width="16" height="16" rx="8" transform="rotate(-9.24987 1467.54 251.193)" fill="#EBEBEB"/>
<rect width="2" height="22" rx="1" transform="matrix(-0.986997 0.16074 0.16074 0.986997 1628.92 221.871)" fill="#EBEBEB"/>
<rect x="1511" y="1532" width="1320" height="466" fill="#EBEBEB"/>
<path fill-rule="evenodd" clip-rule="evenodd" d="M2565.63 1631.77L2820.24 1685.53L2816.37 1705.57L2255 1587.03L2258.87 1567L2531.74 1624.62C2530.93 1621.82 2530.69 1618.81 2531.12 1615.73C2532.71 1604.53 2542.67 1596.79 2553.38 1598.44C2564.09 1600.1 2571.49 1610.52 2569.9 1621.72C2569.36 1625.56 2567.84 1628.99 2565.63 1631.77Z" fill="#BDBBBB"/>
<rect x="1623" y="1724" width="82" height="158" transform="rotate(-30 1623 1724)" fill="#F3F3F3"/>
<path d="M2051 1857C2057.35 1856.71 2063.49 1852.95 2068.39 1849.16C2074.38 1844.52 2083.86 1838.04 2085.52 1830.03C2086.68 1824.43 2083.55 1822.39 2078.5 1822.39C2074.99 1822.39 2073.5 1826.65 2072.78 1829.62C2072.75 1829.76 2072.2 1831.76 2072.16 1831.55C2071.71 1829.08 2072.27 1826.57 2071.61 1824.08C2071.11 1822.23 2069.55 1819.43 2067.44 1819.05C2064.59 1818.54 2062.54 1822.35 2061.72 1824.33C2059.8 1828.96 2059.9 1833.66 2062.19 1838.12C2067.61 1848.67 2080.4 1854.66 2091.42 1856.01C2097.25 1856.73 2103.14 1856.54 2109 1856.54" stroke="#BDBBBB" stroke-width="3" stroke-linecap="round"/>
<path d="M2051 1904C2057.35 1903.71 2063.49 1899.95 2068.39 1896.16C2074.38 1891.52 2083.86 1885.04 2085.52 1877.03C2086.68 1871.43 2083.55 1869.39 2078.5 1869.39C2074.99 1869.39 2073.5 1873.65 2072.78 1876.62C2072.75 1876.76 2072.2 1878.76 2072.16 1878.55C2071.71 1876.08 2072.27 1873.57 2071.61 1871.08C2071.11 1869.23 2069.55 1866.43 2067.44 1866.05C2064.59 1865.54 2062.54 1869.35 2061.72 1871.33C2059.8 1875.96 2059.9 1880.66 2062.19 1885.12C2067.61 1895.67 2080.4 1901.66 2091.42 1903.01C2097.25 1903.73 2103.14 1903.54 2109 1903.54" stroke="#BDBBBB" stroke-width="3" stroke-linecap="round"/>
<path d="M2094 1885C2100.35 1884.71 2106.49 1880.95 2111.39 1877.16C2117.38 1872.52 2126.86 1866.04 2128.52 1858.03C2129.68 1852.43 2126.55 1850.39 2121.5 1850.39C2117.99 1850.39 2116.5 1854.65 2115.78 1857.62C2115.75 1857.76 2115.2 1859.76 2115.16 1859.55C2114.71 1857.08 2115.27 1854.57 2114.61 1852.08C2114.11 1850.23 2112.55 1847.43 2110.44 1847.05C2107.59 1846.54 2105.54 1850.35 2104.72 1852.33C2102.8 1856.96 2102.9 1861.66 2105.19 1866.12C2110.61 1876.67 2123.4 1882.66 2134.42 1884.01C2140.25 1884.73 2146.14 1884.54 2152 1884.54" stroke="#BDBBBB" stroke-width="3" stroke-linecap="round"/>
<path d="M2094 1838C2100.35 1837.71 2106.49 1833.95 2111.39 1830.16C2117.38 1825.52 2126.86 1819.04 2128.52 1811.03C2129.68 1805.43 2126.55 1803.39 2121.5 1803.39C2117.99 1803.39 2116.5 1807.65 2115.78 1810.62C2115.75 1810.76 2115.2 1812.76 2115.16 1812.55C2114.71 1810.08 2115.27 1807.57 2114.61 1805.08C2114.11 1803.23 2112.55 1800.43 2110.44 1800.05C2107.59 1799.54 2105.54 1803.35 2104.72 1805.33C2102.8 1809.96 2102.9 1814.66 2105.19 1819.12C2110.61 1829.67 2123.4 1835.66 2134.42 1837.01C2140.25 1837.73 2146.14 1837.54 2152 1837.54" stroke="#BDBBBB" stroke-width="3" stroke-linecap="round"/>
<path d="M2051 1810C2057.35 1809.71 2063.49 1805.95 2068.39 1802.16C2074.38 1797.52 2083.86 1791.04 2085.52 1783.03C2086.68 1777.43 2083.55 1775.39 2078.5 1775.39C2074.99 1775.39 2073.5 1779.65 2072.78 1782.62C2072.75 1782.76 2072.2 1784.76 2072.16 1784.55C2071.71 1782.08 2072.27 1779.57 2071.61 1777.08C2071.11 1775.23 2069.55 1772.43 2067.44 1772.05C2064.59 1771.54 2062.54 1775.35 2061.72 1777.33C2059.8 1781.96 2059.9 1786.66 2062.19 1791.12C2067.61 1801.67 2080.4 1807.66 2091.42 1809.01C2097.25 1809.73 2103.14 1809.54 2109 1809.54" stroke="#BDBBBB" stroke-width="3" stroke-linecap="round"/>
<path d="M2002 1885C2008.35 1884.71 2014.49 1880.95 2019.39 1877.16C2025.38 1872.52 2034.86 1866.04 2036.52 1858.03C2037.68 1852.43 2034.55 1850.39 2029.5 1850.39C2025.99 1850.39 2024.5 1854.65 2023.78 1857.62C2023.75 1857.76 2023.2 1859.76 2023.16 1859.55C2022.71 1857.08 2023.27 1854.57 2022.61 1852.08C2022.11 1850.23 2020.55 1847.43 2018.44 1847.05C2015.59 1846.54 2013.54 1850.35 2012.72 1852.33C2010.8 1856.96 2010.9 1861.66 2013.19 1866.12C2018.61 1876.67 2031.4 1882.66 2042.42 1884.01C2048.25 1884.73 2054.14 1884.54 2060 1884.54" stroke="#BDBBBB" stroke-width="3" stroke-linecap="round"/>
<path d="M2002 1829C2008.35 1828.71 2014.49 1824.95 2019.39 1821.16C2025.38 1816.52 2034.86 1810.04 2036.52 1802.03C2037.68 1796.43 2034.55 1794.39 2029.5 1794.39C2025.99 1794.39 2024.5 1798.65 2023.78 1801.62C2023.75 1801.76 2023.2 1803.76 2023.16 1803.55C2022.71 1801.08 2023.27 1798.57 2022.61 1796.08C2022.11 1794.23 2020.55 1791.43 2018.44 1791.05C2015.59 1790.54 2013.54 1794.35 2012.72 1796.33C2010.8 1800.96 2010.9 1805.66 2013.19 1810.12C2018.61 1820.67 2031.4 1826.66 2042.42 1828.01C2048.25 1828.73 2054.14 1828.54 2060 1828.54" stroke="#BDBBBB" stroke-width="3" stroke-linecap="round"/>
<rect x="2245" y="1750" width="158" height="8" rx="4" fill="#DADADA"/>
<rect x="2278" y="1782" width="158" height="23" rx="5" fill="#DADADA"/>
<rect x="2311" y="1822" width="158" height="23" rx="5" fill="#DADADA"/>
<circle cx="2288.5" cy="1753.5" r="16.5" fill="#BDBBBB"/>
<circle cx="2288.5" cy="1753.5" r="16.5" fill="#BDBBBB"/>
<circle cx="2321.5" cy="1793.5" r="16.5" fill="#BDBBBB"/>
<circle cx="2356.5" cy="1833.5" r="13.5" fill="#BDBBBB"/>
<rect x="1714" y="1683" width="82" height="158" fill="#DADADA"/>
<rect width="82" height="158" transform="matrix(-0.866025 -0.5 -0.5 0.866025 1882.01 1724)" fill="#F3F3F3"/>
<rect x="2590.61" y="1799.06" width="36" height="17" rx="4" transform="rotate(-45 2590.61 1799.06)" fill="#DADADA"/>
<path d="M2621.09 1781.86C2620.31 1782.1 2619.58 1781.37 2619.83 1780.6L2623.62 1768.73C2623.84 1768.01 2624.75 1767.79 2625.28 1768.32L2633.36 1776.41C2633.89 1776.94 2633.67 1777.84 2632.96 1778.07L2621.09 1781.86Z" fill="#DADADA"/>
<path d="M2621.09 1781.86C2620.31 1782.1 2619.58 1781.37 2619.83 1780.6L2623.62 1768.73C2623.84 1768.01 2624.75 1767.79 2625.28 1768.32L2633.36 1776.41C2633.89 1776.94 2633.67 1777.84 2632.96 1778.07L2621.09 1781.86Z" fill="#DADADA"/>
<path d="M2621.09 1781.86C2620.31 1782.1 2619.58 1781.37 2619.83 1780.6L2623.62 1768.73C2623.84 1768.01 2624.75 1767.79 2625.28 1768.32L2633.36 1776.41C2633.89 1776.94 2633.67 1777.84 2632.96 1778.07L2621.09 1781.86Z" fill="#DADADA"/>
<path d="M2598.86 1804.09C2599.1 1803.31 2598.37 1802.58 2597.6 1802.83L2585.73 1806.62C2585.01 1806.84 2584.79 1807.75 2585.32 1808.28L2593.41 1816.36C2593.94 1816.89 2594.84 1816.67 2595.07 1815.96L2598.86 1804.09Z" fill="#DADADA"/>
<path d="M2598.86 1804.09C2599.1 1803.31 2598.37 1802.58 2597.6 1802.83L2585.73 1806.62C2585.01 1806.84 2584.79 1807.75 2585.32 1808.28L2593.41 1816.36C2593.94 1816.89 2594.84 1816.67 2595.07 1815.96L2598.86 1804.09Z" fill="#DADADA"/>
<path d="M2598.86 1804.09C2599.1 1803.31 2598.37 1802.58 2597.6 1802.83L2585.73 1806.62C2585.01 1806.84 2584.79 1807.75 2585.32 1808.28L2593.41 1816.36C2593.94 1816.89 2594.84 1816.67 2595.07 1815.96L2598.86 1804.09Z" fill="#DADADA"/>
<rect x="2641.49" y="1907.2" width="36" height="17" rx="4" transform="rotate(-15 2641.49 1907.2)" fill="#DADADA"/>
<path d="M2676.49 1907.54C2675.7 1907.37 2675.43 1906.37 2676.03 1905.82L2685.24 1897.43C2685.8 1896.93 2686.69 1897.19 2686.88 1897.92L2689.84 1908.96C2690.04 1909.69 2689.4 1910.36 2688.66 1910.2L2676.49 1907.54Z" fill="#DADADA"/>
<path d="M2676.49 1907.54C2675.7 1907.37 2675.43 1906.37 2676.03 1905.82L2685.24 1897.43C2685.8 1896.93 2686.69 1897.19 2686.88 1897.92L2689.84 1908.96C2690.04 1909.69 2689.4 1910.36 2688.66 1910.2L2676.49 1907.54Z" fill="#DADADA"/>
<path d="M2676.49 1907.54C2675.7 1907.37 2675.43 1906.37 2676.03 1905.82L2685.24 1897.43C2685.8 1896.93 2686.69 1897.19 2686.88 1897.92L2689.84 1908.96C2690.04 1909.69 2689.4 1910.36 2688.66 1910.2L2676.49 1907.54Z" fill="#DADADA"/>
<path d="M2646.12 1915.68C2646.72 1915.13 2646.45 1914.13 2645.66 1913.96L2633.49 1911.3C2632.75 1911.14 2632.11 1911.81 2632.31 1912.54L2635.27 1923.59C2635.46 1924.31 2636.35 1924.57 2636.91 1924.07L2646.12 1915.68Z" fill="#DADADA"/>
<path d="M2646.12 1915.68C2646.72 1915.13 2646.45 1914.13 2645.66 1913.96L2633.49 1911.3C2632.75 1911.14 2632.11 1911.81 2632.31 1912.54L2635.27 1923.59C2635.46 1924.31 2636.35 1924.57 2636.91 1924.07L2646.12 1915.68Z" fill="#DADADA"/>
<path d="M2646.12 1915.68C2646.72 1915.13 2646.45 1914.13 2645.66 1913.96L2633.49 1911.3C2632.75 1911.14 2632.11 1911.81 2632.31 1912.54L2635.27 1923.59C2635.46 1924.31 2636.35 1924.57 2636.91 1924.07L2646.12 1915.68Z" fill="#DADADA"/>
<rect x="2630.99" y="1820.5" width="36" height="17" rx="4" transform="rotate(-30 2630.99 1820.5)" fill="#DADADA"/>
<path d="M2664.89 1811.77C2664.08 1811.81 2663.56 1810.92 2664 1810.23L2670.73 1799.74C2671.13 1799.11 2672.06 1799.13 2672.43 1799.78L2678.15 1809.69C2678.53 1810.34 2678.08 1811.15 2677.33 1811.19L2664.89 1811.77Z" fill="#DADADA"/>
<path d="M2664.89 1811.77C2664.08 1811.81 2663.56 1810.92 2664 1810.23L2670.73 1799.74C2671.13 1799.11 2672.06 1799.13 2672.43 1799.78L2678.15 1809.69C2678.53 1810.34 2678.08 1811.15 2677.33 1811.19L2664.89 1811.77Z" fill="#DADADA"/>
<path d="M2664.89 1811.77C2664.08 1811.81 2663.56 1810.92 2664 1810.23L2670.73 1799.74C2671.13 1799.11 2672.06 1799.13 2672.43 1799.78L2678.15 1809.69C2678.53 1810.34 2678.08 1811.15 2677.33 1811.19L2664.89 1811.77Z" fill="#DADADA"/>
<path d="M2637.66 1827.49C2638.1 1826.81 2637.58 1825.91 2636.77 1825.95L2624.32 1826.53C2623.58 1826.57 2623.13 1827.38 2623.5 1828.03L2629.22 1837.94C2629.6 1838.59 2630.53 1838.61 2630.93 1837.98L2637.66 1827.49Z" fill="#DADADA"/>
<path d="M2637.66 1827.49C2638.1 1826.81 2637.58 1825.91 2636.77 1825.95L2624.32 1826.53C2623.58 1826.57 2623.13 1827.38 2623.5 1828.03L2629.22 1837.94C2629.6 1838.59 2630.53 1838.61 2630.93 1837.98L2637.66 1827.49Z" fill="#DADADA"/>
<path d="M2637.66 1827.49C2638.1 1826.81 2637.58 1825.91 2636.77 1825.95L2624.32 1826.53C2623.58 1826.57 2623.13 1827.38 2623.5 1828.03L2629.22 1837.94C2629.6 1838.59 2630.53 1838.61 2630.93 1837.98L2637.66 1827.49Z" fill="#DADADA"/>
<rect x="2603.63" y="1914.61" width="36" height="17" rx="4" transform="rotate(45 2603.63 1914.61)" fill="#DADADA"/>
<path d="M2620.83 1945.09C2620.58 1944.32 2621.31 1943.59 2622.09 1943.83L2633.96 1947.62C2634.67 1947.84 2634.89 1948.75 2634.36 1949.28L2626.28 1957.36C2625.75 1957.89 2624.84 1957.68 2624.62 1956.96L2620.83 1945.09Z" fill="#DADADA"/>
<path d="M2620.83 1945.09C2620.58 1944.32 2621.31 1943.59 2622.09 1943.83L2633.96 1947.62C2634.67 1947.84 2634.89 1948.75 2634.36 1949.28L2626.28 1957.36C2625.75 1957.89 2624.84 1957.68 2624.62 1956.96L2620.83 1945.09Z" fill="#DADADA"/>
<path d="M2620.83 1945.09C2620.58 1944.32 2621.31 1943.59 2622.09 1943.83L2633.96 1947.62C2634.67 1947.84 2634.89 1948.75 2634.36 1949.28L2626.28 1957.36C2625.75 1957.89 2624.84 1957.68 2624.62 1956.96L2620.83 1945.09Z" fill="#DADADA"/>
<path d="M2598.6 1922.86C2599.37 1923.1 2600.1 1922.37 2599.86 1921.6L2596.07 1909.73C2595.84 1909.02 2594.94 1908.8 2594.41 1909.33L2586.32 1917.41C2585.79 1917.94 2586.01 1918.85 2586.73 1919.07L2598.6 1922.86Z" fill="#DADADA"/>
<path d="M2598.6 1922.86C2599.37 1923.1 2600.1 1922.37 2599.86 1921.6L2596.07 1909.73C2595.84 1909.02 2594.94 1908.8 2594.41 1909.33L2586.32 1917.41C2585.79 1917.94 2586.01 1918.85 2586.73 1919.07L2598.6 1922.86Z" fill="#DADADA"/>
<path d="M2598.6 1922.86C2599.37 1923.1 2600.1 1922.37 2599.86 1921.6L2596.07 1909.73C2595.84 1909.02 2594.94 1908.8 2594.41 1909.33L2586.32 1917.41C2585.79 1917.94 2586.01 1918.85 2586.73 1919.07L2598.6 1922.86Z" fill="#DADADA"/>
<rect x="2666.88" y="1873.26" width="36" height="17" rx="4" transform="rotate(-75 2666.88 1873.26)" fill="#DADADA"/>
<path d="M2684.68 1843.12C2684.13 1843.72 2683.14 1843.45 2682.96 1842.66L2680.3 1830.49C2680.14 1829.76 2680.82 1829.11 2681.54 1829.31L2692.59 1832.27C2693.31 1832.46 2693.57 1833.35 2693.07 1833.91L2684.68 1843.12Z" fill="#DADADA"/>
<path d="M2684.68 1843.12C2684.13 1843.72 2683.14 1843.45 2682.96 1842.66L2680.3 1830.49C2680.14 1829.76 2680.82 1829.11 2681.54 1829.31L2692.59 1832.27C2693.31 1832.46 2693.57 1833.35 2693.07 1833.91L2684.68 1843.12Z" fill="#DADADA"/>
<path d="M2684.68 1843.12C2684.13 1843.72 2683.14 1843.45 2682.96 1842.66L2680.3 1830.49C2680.14 1829.76 2680.82 1829.11 2681.54 1829.31L2692.59 1832.27C2693.31 1832.46 2693.57 1833.35 2693.07 1833.91L2684.68 1843.12Z" fill="#DADADA"/>
<path d="M2676.54 1873.49C2676.37 1872.7 2675.37 1872.43 2674.82 1873.03L2666.43 1882.24C2665.93 1882.8 2666.19 1883.69 2666.92 1883.88L2677.96 1886.84C2678.69 1887.04 2679.36 1886.4 2679.2 1885.66L2676.54 1873.49Z" fill="#DADADA"/>
<path d="M2676.54 1873.49C2676.37 1872.7 2675.37 1872.43 2674.82 1873.03L2666.43 1882.24C2665.93 1882.8 2666.19 1883.69 2666.92 1883.88L2677.96 1886.84C2678.69 1887.04 2679.36 1886.4 2679.2 1885.66L2676.54 1873.49Z" fill="#DADADA"/>
<path d="M2676.54 1873.49C2676.37 1872.7 2675.37 1872.43 2674.82 1873.03L2666.43 1882.24C2665.93 1882.8 2666.19 1883.69 2666.92 1883.88L2677.96 1886.84C2678.69 1887.04 2679.36 1886.4 2679.2 1885.66L2676.54 1873.49Z" fill="#DADADA"/>
<rect x="2614.61" y="1879.06" width="36" height="17" rx="4" transform="rotate(-45 2614.61 1879.06)" fill="#DADADA"/>
<path d="M2645.09 1861.86C2644.31 1862.1 2643.58 1861.37 2643.83 1860.6L2647.62 1848.73C2647.84 1848.01 2648.75 1847.79 2649.28 1848.32L2657.36 1856.41C2657.89 1856.94 2657.67 1857.84 2656.96 1858.07L2645.09 1861.86Z" fill="#DADADA"/>
<path d="M2645.09 1861.86C2644.31 1862.1 2643.58 1861.37 2643.83 1860.6L2647.62 1848.73C2647.84 1848.01 2648.75 1847.79 2649.28 1848.32L2657.36 1856.41C2657.89 1856.94 2657.67 1857.84 2656.96 1858.07L2645.09 1861.86Z" fill="#DADADA"/>
<path d="M2645.09 1861.86C2644.31 1862.1 2643.58 1861.37 2643.83 1860.6L2647.62 1848.73C2647.84 1848.01 2648.75 1847.79 2649.28 1848.32L2657.36 1856.41C2657.89 1856.94 2657.67 1857.84 2656.96 1858.07L2645.09 1861.86Z" fill="#DADADA"/>
<path d="M2622.86 1884.09C2623.1 1883.31 2622.37 1882.58 2621.6 1882.83L2609.73 1886.62C2609.01 1886.84 2608.79 1887.75 2609.32 1888.28L2617.41 1896.36C2617.94 1896.89 2618.84 1896.67 2619.07 1895.96L2622.86 1884.09Z" fill="#DADADA"/>
<path d="M2622.86 1884.09C2623.1 1883.31 2622.37 1882.58 2621.6 1882.83L2609.73 1886.62C2609.01 1886.84 2608.79 1887.75 2609.32 1888.28L2617.41 1896.36C2617.94 1896.89 2618.84 1896.67 2619.07 1895.96L2622.86 1884.09Z" fill="#DADADA"/>
<path d="M2622.86 1884.09C2623.1 1883.31 2622.37 1882.58 2621.6 1882.83L2609.73 1886.62C2609.01 1886.84 2608.79 1887.75 2609.32 1888.28L2617.41 1896.36C2617.94 1896.89 2618.84 1896.67 2619.07 1895.96L2622.86 1884.09Z" fill="#DADADA"/>
<rect x="2597.06" y="1861.08" width="36" height="17" rx="4" transform="rotate(-135 2597.06 1861.08)" fill="#DADADA"/>
<path d="M2579.86 1830.6C2580.1 1831.37 2579.37 1832.1 2578.6 1831.86L2566.73 1828.07C2566.01 1827.85 2565.79 1826.94 2566.32 1826.41L2574.41 1818.32C2574.94 1817.79 2575.84 1818.01 2576.07 1818.73L2579.86 1830.6Z" fill="#DADADA"/>
<path d="M2579.86 1830.6C2580.1 1831.37 2579.37 1832.1 2578.6 1831.86L2566.73 1828.07C2566.01 1827.85 2565.79 1826.94 2566.32 1826.41L2574.41 1818.32C2574.94 1817.79 2575.84 1818.01 2576.07 1818.73L2579.86 1830.6Z" fill="#DADADA"/>
<path d="M2579.86 1830.6C2580.1 1831.37 2579.37 1832.1 2578.6 1831.86L2566.73 1828.07C2566.01 1827.85 2565.79 1826.94 2566.32 1826.41L2574.41 1818.32C2574.94 1817.79 2575.84 1818.01 2576.07 1818.73L2579.86 1830.6Z" fill="#DADADA"/>
<path d="M2602.09 1852.83C2601.31 1852.59 2600.58 1853.31 2600.83 1854.09L2604.62 1865.96C2604.84 1866.67 2605.75 1866.89 2606.28 1866.36L2614.36 1858.28C2614.89 1857.75 2614.67 1856.84 2613.96 1856.62L2602.09 1852.83Z" fill="#DADADA"/>
<path d="M2602.09 1852.83C2601.31 1852.59 2600.58 1853.31 2600.83 1854.09L2604.62 1865.96C2604.84 1866.67 2605.75 1866.89 2606.28 1866.36L2614.36 1858.28C2614.89 1857.75 2614.67 1856.84 2613.96 1856.62L2602.09 1852.83Z" fill="#DADADA"/>
<path d="M2602.09 1852.83C2601.31 1852.59 2600.58 1853.31 2600.83 1854.09L2604.62 1865.96C2604.84 1866.67 2605.75 1866.89 2606.28 1866.36L2614.36 1858.28C2614.89 1857.75 2614.67 1856.84 2613.96 1856.62L2602.09 1852.83Z" fill="#DADADA"/>
<rect x="2541.99" y="1896.5" width="36" height="17" rx="4" transform="rotate(-30 2541.99 1896.5)" fill="#DADADA"/>
<path d="M2575.89 1887.77C2575.08 1887.81 2574.56 1886.92 2575 1886.23L2581.73 1875.74C2582.13 1875.11 2583.06 1875.13 2583.43 1875.78L2589.15 1885.69C2589.53 1886.34 2589.08 1887.15 2588.33 1887.19L2575.89 1887.77Z" fill="#DADADA"/>
<path d="M2575.89 1887.77C2575.08 1887.81 2574.56 1886.92 2575 1886.23L2581.73 1875.74C2582.13 1875.11 2583.06 1875.13 2583.43 1875.78L2589.15 1885.69C2589.53 1886.34 2589.08 1887.15 2588.33 1887.19L2575.89 1887.77Z" fill="#DADADA"/>
<path d="M2575.89 1887.77C2575.08 1887.81 2574.56 1886.92 2575 1886.23L2581.73 1875.74C2582.13 1875.11 2583.06 1875.13 2583.43 1875.78L2589.15 1885.69C2589.53 1886.34 2589.08 1887.15 2588.33 1887.19L2575.89 1887.77Z" fill="#DADADA"/>
<path d="M2548.66 1903.49C2549.1 1902.81 2548.58 1901.91 2547.77 1901.95L2535.32 1902.53C2534.58 1902.57 2534.13 1903.38 2534.5 1904.03L2540.22 1913.94C2540.6 1914.59 2541.53 1914.61 2541.93 1913.98L2548.66 1903.49Z" fill="#DADADA"/>
<path d="M2548.66 1903.49C2549.1 1902.81 2548.58 1901.91 2547.77 1901.95L2535.32 1902.53C2534.58 1902.57 2534.13 1903.38 2534.5 1904.03L2540.22 1913.94C2540.6 1914.59 2541.53 1914.61 2541.93 1913.98L2548.66 1903.49Z" fill="#DADADA"/>
<path d="M2548.66 1903.49C2549.1 1902.81 2548.58 1901.91 2547.77 1901.95L2535.32 1902.53C2534.58 1902.57 2534.13 1903.38 2534.5 1904.03L2540.22 1913.94C2540.6 1914.59 2541.53 1914.61 2541.93 1913.98L2548.66 1903.49Z" fill="#DADADA"/>
<path d="M222 1261C518 1063 1020.55 1126.28 1231 1209C1518.5 1322 1823.5 1109.5 1823.5 1013C1823.5 916.5 1717.64 975.671 1689.5 1000.5C1683 958 1483.59 825.031 1598 1157C1715 1496.5 508 2212 1778 2023" stroke="#DADADA" stroke-width="9" stroke-linecap="round" stroke-dasharray="18 18"/>
<path d="M222 1261C518 1063 1020.55 1126.28 1231 1209C1518.5 1322 1823.5 1109.5 1823.5 1013C1823.5 916.5 1717.64 975.671 1689.5 1000.5C1683 958 1483.59 825.031 1598 1157C1715 1496.5 508 2212 1778 2023" stroke="#DADADA" stroke-width="9" stroke-linecap="round" stroke-dasharray="18 18"/>
<path d="M222 1261C518 1063 1020.55 1126.28 1231 1209C1518.5 1322 1823.5 1109.5 1823.5 1013C1823.5 916.5 1717.64 975.671 1689.5 1000.5C1683 958 1483.59 825.031 1598 1157C1715 1496.5 508 2212 1778 2023" stroke="#DADADA" stroke-width="9" stroke-linecap="round" stroke-dasharray="18 18"/>
<path d="M222 1261C518 1063 1020.55 1126.28 1231 1209C1518.5 1322 1823.5 1109.5 1823.5 1013C1823.5 916.5 1717.64 975.671 1689.5 1000.5C1683 958 1483.59 825.031 1598 1157C1715 1496.5 508 2212 1778 2023" stroke="#DADADA" stroke-width="9" stroke-linecap="round" stroke-dasharray="18 18"/>
<path d="M222 1261C518 1063 1020.55 1126.28 1231 1209C1518.5 1322 1823.5 1109.5 1823.5 1013C1823.5 916.5 1717.64 975.671 1689.5 1000.5C1683 958 1483.59 825.031 1598 1157C1715 1496.5 508 2212 1778 2023" stroke="#DADADA" stroke-width="9" stroke-linecap="round" stroke-dasharray="18 18"/>
<path d="M222 1261C518 1063 1020.55 1126.28 1231 1209C1518.5 1322 1823.5 1109.5 1823.5 1013C1823.5 916.5 1717.64 975.671 1689.5 1000.5C1683 958 1483.59 825.031 1598 1157C1715 1496.5 508 2212 1778 2023" stroke="#FF8E2D" stroke-width="9" stroke-linecap="round" stroke-dasharray="18 18"/>
<path d="M1143 139C1343.49 124.333 1693.44 95 2031.5 95C2369.56 95 2719.87 124.333 2920 139" stroke="#DADADA" stroke-width="7"/>
<rect x="1761" y="1950" width="120" height="120" rx="60" fill="#FF8E2D"/>
<path d="M1829.34 1981.32V2039.5H1818.8V1991.57H1818.45L1804.85 2000.27V1990.61L1819.31 1981.32H1829.34Z" fill="white"/>
<rect x="1878" y="813" width="120" height="120" rx="60" fill="#FF8E2D"/>
<path d="M1917.17 902.5V894.886L1937.37 875.085C1939.3 873.134 1940.91 871.402 1942.2 869.886C1943.49 868.371 1944.45 866.903 1945.1 865.483C1945.74 864.062 1946.06 862.547 1946.06 860.938C1946.06 859.1 1945.65 857.528 1944.81 856.222C1943.98 854.896 1942.83 853.873 1941.38 853.153C1939.92 852.434 1938.26 852.074 1936.4 852.074C1934.49 852.074 1932.81 852.472 1931.38 853.267C1929.94 854.044 1928.82 855.152 1928.02 856.591C1927.25 858.03 1926.86 859.744 1926.86 861.733H1916.83C1916.83 858.04 1917.67 854.83 1919.36 852.102C1921.04 849.375 1923.36 847.263 1926.32 845.767C1929.29 844.271 1932.7 843.523 1936.55 843.523C1940.45 843.523 1943.88 844.252 1946.83 845.71C1949.78 847.169 1952.08 849.167 1953.7 851.705C1955.35 854.242 1956.18 857.14 1956.18 860.398C1956.18 862.576 1955.76 864.716 1954.93 866.818C1954.09 868.92 1952.63 871.25 1950.52 873.807C1948.44 876.364 1945.51 879.46 1941.74 883.097L1931.72 893.295V893.693H1957.06V902.5H1917.17Z" fill="white"/>
<rect x="122" y="1222" width="120" height="120" rx="60" fill="#FF8E2D"/>
<path d="M180.551 1312.3C176.46 1312.3 172.824 1311.59 169.642 1310.19C166.479 1308.79 163.979 1306.84 162.142 1304.34C160.305 1301.84 159.33 1298.95 159.216 1295.68H169.898C169.992 1297.25 170.513 1298.62 171.46 1299.8C172.407 1300.95 173.667 1301.85 175.239 1302.49C176.811 1303.14 178.572 1303.46 180.523 1303.46C182.606 1303.46 184.453 1303.1 186.062 1302.38C187.672 1301.64 188.932 1300.62 189.841 1299.31C190.75 1298.01 191.195 1296.5 191.176 1294.8C191.195 1293.03 190.741 1291.48 189.812 1290.14C188.884 1288.79 187.54 1287.74 185.778 1286.98C184.036 1286.23 181.934 1285.85 179.472 1285.85H174.33V1277.72H179.472C181.498 1277.72 183.269 1277.37 184.784 1276.67C186.318 1275.97 187.521 1274.98 188.392 1273.72C189.263 1272.43 189.689 1270.94 189.67 1269.26C189.689 1267.61 189.32 1266.18 188.562 1264.97C187.824 1263.73 186.773 1262.78 185.409 1262.1C184.064 1261.41 182.483 1261.07 180.665 1261.07C178.884 1261.07 177.237 1261.4 175.722 1262.04C174.206 1262.68 172.985 1263.6 172.057 1264.8C171.129 1265.97 170.636 1267.37 170.58 1269H160.438C160.513 1265.74 161.451 1262.88 163.25 1260.42C165.068 1257.94 167.492 1256.01 170.523 1254.62C173.553 1253.22 176.953 1252.52 180.722 1252.52C184.604 1252.52 187.975 1253.25 190.835 1254.71C193.714 1256.15 195.939 1258.09 197.511 1260.53C199.083 1262.98 199.869 1265.68 199.869 1268.63C199.888 1271.91 198.922 1274.65 196.972 1276.87C195.04 1279.09 192.502 1280.53 189.358 1281.22V1281.67C193.449 1282.24 196.583 1283.75 198.761 1286.22C200.958 1288.66 202.047 1291.7 202.028 1295.34C202.028 1298.59 201.1 1301.51 199.244 1304.09C197.407 1306.64 194.869 1308.65 191.631 1310.11C188.411 1311.57 184.718 1312.3 180.551 1312.3Z" fill="white"/>
</g>
<defs>
<clipPath id="clip0_78_231">
<rect width="2920" height="2077" fill="white"/>
</clipPath>
</defs>
</svg>
