<svg width="1073" height="285" viewBox="0 0 1073 285" fill="none" xmlns="http://www.w3.org/2000/svg">
<g clip-path="url(#clip0_542_322)">
<path d="M0.000234375 5.78C0.000234375 2.54 2.31023 0 5.78023 0C9.01023 0 11.5602 2.54 11.5602 5.78V64.46C18.9502 51.29 33.0402 43.21 50.6002 43.21C77.6302 43.21 98.8802 62.15 98.8802 96.11V158.94C98.8802 162.17 96.3402 164.95 93.1102 164.95C89.8802 164.95 87.3302 162.18 87.3302 158.94V95.88C87.3302 67.93 70.7002 53.84 49.4502 53.84C28.2002 53.84 11.5502 67.69 11.5502 95.87V158.93C11.5502 162.16 9.01023 164.94 5.77023 164.94C2.31023 164.94 -0.00976562 162.17 -0.00976562 158.93V5.78H0.000234375Z" fill="#1D1D1B"/>
<path d="M181.8 104.409C181.8 70.2192 208.37 43.1992 242.32 43.1992C276.27 43.1992 302.61 70.2292 302.61 104.409C302.61 138.589 276.28 165.619 242.32 165.619C208.36 165.619 181.8 138.589 181.8 104.409ZM291.06 104.409C291.06 76.2292 269.58 53.8192 242.32 53.8192C215.06 53.8192 193.35 76.2292 193.35 104.409C193.35 132.589 215.06 154.999 242.32 154.999C269.58 154.999 291.06 132.359 291.06 104.409Z" fill="#1D1D1B"/>
<path d="M385.77 49.6692C385.77 46.4392 388.08 43.8892 391.55 43.8892C394.78 43.8892 397.33 46.4292 397.33 49.6692V60.9892C403.8 51.0592 416.5 43.1992 433.13 43.1992C436.6 43.1992 438.91 45.7392 438.91 48.7392C438.91 51.5092 436.37 54.2792 433.13 54.2792H431.51C411.41 54.5092 397.32 67.2192 397.32 88.6992V158.929C397.32 162.159 394.78 164.939 391.54 164.939C388.08 164.939 385.76 162.169 385.76 158.929V49.6692H385.77Z" fill="#1D1D1B"/>
<path d="M513.28 49.6706C513.28 46.4406 515.59 43.8906 519.06 43.8906C522.29 43.8906 524.84 46.4306 524.84 49.6706V158.941C524.84 162.171 522.3 164.951 519.06 164.951C515.6 164.951 513.28 162.181 513.28 158.941V49.6706Z" fill="#1D1D1B"/>
<path d="M685.831 56.1298H611.221C608.451 56.1298 605.911 53.5898 605.911 50.8198C605.911 47.8198 608.451 45.5098 611.221 45.5098H696.921C700.151 45.5098 702.461 47.8198 702.461 50.8198C702.461 52.4398 701.541 54.0498 700.381 55.2098L618.371 152.69H697.141C700.141 152.69 702.451 155 702.451 158C702.451 160.77 700.141 163.31 697.141 163.31H607.511C604.281 163.31 601.971 160.77 601.971 157.77C601.971 155.92 602.891 154.54 603.821 153.38L685.831 56.1298Z" fill="#1D1D1B"/>
<path d="M768.99 104.409C768.99 70.2192 795.56 43.1992 829.51 43.1992C863.46 43.1992 889.8 70.2292 889.8 104.409C889.8 138.589 863.47 165.619 829.51 165.619C795.55 165.619 768.99 138.589 768.99 104.409ZM878.25 104.409C878.25 76.2292 856.77 53.8192 829.51 53.8192C802.25 53.8192 780.54 76.2292 780.54 104.409C780.54 132.589 802.25 154.999 829.51 154.999C856.77 154.999 878.25 132.359 878.25 104.409Z" fill="#1D1D1B"/>
<path d="M972.96 96.0992C972.96 62.1392 994.91 43.1992 1022.39 43.1992C1049.87 43.1992 1071.82 62.1392 1071.82 96.0992V158.929C1071.82 162.159 1069.28 164.939 1066.05 164.939C1062.82 164.939 1060.27 162.169 1060.27 158.929V95.8692C1060.27 68.1492 1043.64 53.8292 1022.39 53.8292C1001.14 53.8292 984.51 68.1492 984.51 95.8692V158.929C984.51 162.159 981.97 164.939 978.73 164.939C975.27 164.939 972.95 162.169 972.95 158.929V96.0992H972.96Z" fill="#1D1D1B"/>
<path d="M6.44994 278.909H35.9599V283.199H1.68994V223.699H6.44994V278.919V278.909Z" fill="#1D1D1B"/>
<path d="M82.1401 284.39C64.2901 284.39 51.5601 270.59 51.5601 254.16C51.5601 235.24 65.7201 222.51 82.1401 222.51C98.5601 222.51 112.49 234.77 112.49 254.16C112.49 270.7 99.7601 284.39 82.1401 284.39ZM82.0201 226.91C68.4501 226.91 56.5501 237.38 56.5501 253.92C56.5501 267.72 66.0701 279.98 82.3701 279.98C98.6701 279.98 107.48 267.72 107.48 253.92C107.48 237.97 96.5301 226.91 82.0101 226.91H82.0201Z" fill="#1D1D1B"/>
<path d="M160.56 284.39C142.71 284.39 129.98 270.59 129.98 254.16C129.98 235.24 144.14 222.51 160.56 222.51C176.98 222.51 190.91 234.77 190.91 254.16C190.91 270.7 178.18 284.39 160.56 284.39ZM160.44 226.91C146.87 226.91 134.97 237.38 134.97 253.92C134.97 267.72 144.49 279.98 160.79 279.98C177.09 279.98 185.9 267.72 185.9 253.92C185.9 237.97 174.95 226.91 160.43 226.91H160.44Z" fill="#1D1D1B"/>
<path d="M220.29 263.09V283.2H215.53V223.7H220.29V256.9H220.77L257.07 222.75L260.04 225.49V226.09L233.62 251.2L261.47 281.07V281.67L257.9 283.93L229.93 253.82L220.29 263.1V263.09Z" fill="#1D1D1B"/>
<path d="M298.24 283.199H293.48V223.699H298.24V283.199Z" fill="#1D1D1B"/>
<path d="M381.78 274.39L382.14 274.15V223.69H386.9V283.19L384.16 283.78L340.61 232.61L340.25 232.73V283.19H335.49V223.69L338.23 223.09L381.79 274.38L381.78 274.39Z" fill="#1D1D1B"/>
<path d="M464.48 277.01C459.12 281.3 450.68 284.39 442.11 284.39C424.02 284.39 411.53 270.82 411.53 254.16C411.53 234.29 426.53 222.51 442.35 222.51C451.04 222.51 456.99 224.65 462.34 228.7L459.96 232.51C454.6 228.46 449.01 226.8 442.11 226.92C429.97 227.16 416.52 235.73 416.52 253.93C416.52 269.16 427.35 279.99 442.34 279.99C449.24 279.99 455.67 277.85 459.71 274.75V256.54H440.08V252.25H464.48V277V277.01Z" fill="#1D1D1B"/>
<path d="M588.48 227.979H555.28V250.709H584.91V254.989H555.28V283.199H550.52V223.699H588.48V227.979Z" fill="#1D1D1B"/>
<path d="M642.86 284.39C625.01 284.39 612.28 270.59 612.28 254.16C612.28 235.24 626.44 222.51 642.86 222.51C659.28 222.51 673.21 234.77 673.21 254.16C673.21 270.7 660.48 284.39 642.86 284.39ZM642.74 226.91C629.17 226.91 617.27 237.38 617.27 253.92C617.27 267.72 626.79 279.98 643.09 279.98C659.39 279.98 668.2 267.72 668.2 253.92C668.2 237.97 657.25 226.91 642.73 226.91H642.74Z" fill="#1D1D1B"/>
<path d="M727.83 257.489L747.82 281.529V281.999L743.65 283.669L722.47 257.969H707.36V283.199H702.6V223.699H723.07C734.73 223.699 742.11 230.599 742.11 240.719C742.11 248.809 736.87 255.239 727.83 257.139V257.499V257.489ZM723.19 227.979H707.36V253.689H722.35C731.39 253.689 737.11 249.049 737.11 240.599C737.11 232.859 731.28 227.979 723.19 227.979Z" fill="#1D1D1B"/>
<path d="M808.98 235.72L792.56 283.8H791.37L768.28 224.89L772.92 223.1L791.6 272.13H792.19L808.49 223.1H809.68L826.7 272.13H827.29L845.14 223.1L849.9 224.89L827.17 283.8H825.98L809.44 235.72H808.96H808.98Z" fill="#1D1D1B"/>
<path d="M910.01 266.54H879.19L871.34 283.79L867.17 281.65L894.07 223.1H895.26L922.15 281.65L917.98 283.79L910.01 266.54ZM881.09 262.25H908.1L894.65 232.97H894.41L881.08 262.25H881.09Z" fill="#1D1D1B"/>
<path d="M974.99 257.489L994.98 281.529V281.999L990.81 283.669L969.63 257.969H954.52V283.199H949.76V223.699H970.23C981.89 223.699 989.27 230.599 989.27 240.719C989.27 248.809 984.03 255.239 974.99 257.139V257.499V257.489ZM970.35 227.979H954.52V253.689H969.51C978.55 253.689 984.27 249.049 984.27 240.599C984.27 232.859 978.44 227.979 970.35 227.979Z" fill="#1D1D1B"/>
<path d="M1024.61 283.199V223.699H1041.27C1058.05 223.699 1072.45 235.599 1072.45 253.329C1072.45 272.489 1059.95 283.199 1041.39 283.199H1024.61ZM1042.46 278.909C1057.93 278.909 1067.45 269.389 1067.45 253.439C1067.45 237.489 1055.55 227.969 1041.39 227.969H1029.37V278.899H1042.46V278.909Z" fill="#1D1D1B"/>
</g>
<defs>
<clipPath id="clip0_542_322">
<rect width="1072.45" height="284.39" fill="white"/>
</clipPath>
</defs>
</svg>
