<svg width="693" height="183" viewBox="0 0 693 183" fill="none" xmlns="http://www.w3.org/2000/svg">
<g clip-path="url(#clip0_423_2092)">
<path d="M-0.00233459 3.71813C-0.00233459 1.63392 1.48865 0 3.72835 0C5.81315 0 7.45904 1.63392 7.45904 3.71813V41.4656C12.2289 32.9936 21.3232 27.7959 32.6573 27.7959C50.1037 27.7959 63.8195 39.9796 63.8195 61.8252V102.242C63.8195 104.32 62.1801 106.108 60.0953 106.108C58.0105 106.108 56.3646 104.326 56.3646 102.242V61.6773C56.3646 43.6977 45.6308 34.634 31.915 34.634C18.1993 34.634 7.45258 43.5433 7.45258 61.6709V102.236C7.45258 104.314 5.81315 106.102 3.7219 106.102C1.48865 106.102 -0.00878906 104.32 -0.00878906 102.236V3.71813H-0.00233459Z" fill="white"/>
<path d="M117.343 67.164C117.343 45.1704 134.492 27.7891 156.405 27.7891C178.318 27.7891 195.319 45.1768 195.319 67.164C195.319 89.1511 178.325 106.539 156.405 106.539C134.486 106.539 117.343 89.1511 117.343 67.164ZM187.864 67.164C187.864 49.0365 174 34.6207 156.405 34.6207C138.81 34.6207 124.798 49.0365 124.798 67.164C124.798 85.2915 138.81 99.7073 156.405 99.7073C174 99.7073 187.864 85.1435 187.864 67.164Z" fill="white"/>
<path d="M248.993 31.9511C248.993 29.8733 250.484 28.2329 252.723 28.2329C254.808 28.2329 256.454 29.8668 256.454 31.9511V39.2329C260.63 32.8452 268.827 27.7891 279.561 27.7891C281.801 27.7891 283.292 29.423 283.292 31.3528C283.292 33.1347 281.652 34.9166 279.561 34.9166H278.516C265.542 35.0645 256.448 43.2405 256.448 57.0581V102.235C256.448 104.313 254.808 106.101 252.717 106.101C250.484 106.101 248.986 104.32 248.986 102.235V31.9511H248.993Z" fill="white"/>
<path d="M331.295 31.9506C331.295 29.8728 332.786 28.2324 335.026 28.2324C337.11 28.2324 338.756 29.8663 338.756 31.9506V102.241C338.756 104.319 337.117 106.107 335.026 106.107C332.792 106.107 331.295 104.326 331.295 102.241V31.9506Z" fill="white"/>
<path d="M442.667 36.1089H394.51C392.723 36.1089 391.083 34.475 391.083 32.6931C391.083 30.7633 392.723 29.2773 394.51 29.2773H449.825C451.91 29.2773 453.401 30.7633 453.401 32.6931C453.401 33.7352 452.807 34.7709 452.059 35.5171L399.125 98.2237H449.967C451.904 98.2237 453.395 99.7096 453.395 101.639C453.395 103.421 451.904 105.055 449.967 105.055H392.116C390.031 105.055 388.54 103.421 388.54 101.491C388.54 100.301 389.134 99.4137 389.734 98.6675L442.667 36.1089V36.1089Z" fill="white"/>
<path d="M496.342 67.164C496.342 45.1704 513.491 27.7891 535.404 27.7891C557.317 27.7891 574.318 45.1768 574.318 67.164C574.318 89.1511 557.324 106.539 535.404 106.539C513.485 106.539 496.342 89.1511 496.342 67.164ZM566.863 67.164C566.863 49.0365 552.999 34.6207 535.404 34.6207C517.809 34.6207 503.797 49.0365 503.797 67.164C503.797 85.2915 517.809 99.7073 535.404 99.7073C552.999 99.7073 566.863 85.1435 566.863 67.164Z" fill="white"/>
<path d="M627.995 61.8183C627.995 39.9727 642.162 27.7891 659.899 27.7891C677.636 27.7891 691.804 39.9727 691.804 61.8183V102.235C691.804 104.313 690.164 106.101 688.079 106.101C685.995 106.101 684.349 104.32 684.349 102.235V61.6704C684.349 43.8388 673.615 34.6271 659.899 34.6271C646.183 34.6271 635.45 43.8388 635.45 61.6704V102.235C635.45 104.313 633.81 106.101 631.719 106.101C629.486 106.101 627.988 104.32 627.988 102.235V61.8183H627.995Z" fill="white"/>
<path d="M4.16413 179.416H23.2113V182.175H1.0918V143.9H4.16413V179.422V179.416Z" fill="white"/>
<path d="M53.019 182.941C41.4978 182.941 33.2812 174.063 33.2812 163.494C33.2812 151.324 42.4208 143.135 53.019 143.135C63.6173 143.135 72.6084 151.021 72.6084 163.494C72.6084 174.134 64.3918 182.941 53.019 182.941V182.941ZM52.9416 145.965C44.1829 145.965 36.502 152.7 36.502 163.34C36.502 172.217 42.6467 180.104 53.1675 180.104C63.6883 180.104 69.3747 172.217 69.3747 163.34C69.3747 153.08 62.307 145.965 52.9351 145.965H52.9416Z" fill="white"/>
<path d="M103.634 182.941C92.113 182.941 83.8965 174.063 83.8965 163.494C83.8965 151.324 93.036 143.135 103.634 143.135C114.233 143.135 123.224 151.021 123.224 163.494C123.224 174.134 115.007 182.941 103.634 182.941ZM103.557 145.965C94.7981 145.965 87.1173 152.7 87.1173 163.34C87.1173 172.217 93.2619 180.104 103.783 180.104C114.304 180.104 119.99 172.217 119.99 163.34C119.99 153.08 112.922 145.965 103.55 145.965H103.557Z" fill="white"/>
<path d="M142.186 169.237V182.173H139.113V143.898H142.186V165.255H142.495L165.925 143.287L167.842 145.05V145.436L150.789 161.588L168.765 180.803V181.189L166.461 182.643L148.408 163.274L142.186 169.243V169.237Z" fill="white"/>
<path d="M192.499 182.175H189.427V143.9H192.499V182.175Z" fill="white"/>
<path d="M246.42 176.508L246.652 176.353V143.894H249.724V182.169L247.956 182.548L219.847 149.632L219.614 149.709V182.169H216.542V143.894L218.311 143.508L246.426 176.501L246.42 176.508Z" fill="white"/>
<path d="M299.799 178.193C296.339 180.953 290.891 182.941 285.36 182.941C273.684 182.941 265.622 174.211 265.622 163.494C265.622 150.713 275.304 143.135 285.515 143.135C291.124 143.135 294.964 144.511 298.417 147.117L296.881 149.568C293.421 146.962 289.813 145.894 285.36 145.972C277.524 146.126 268.843 151.639 268.843 163.346C268.843 173.144 275.833 180.11 285.508 180.11C289.962 180.11 294.112 178.734 296.72 176.739V165.025H284.05V162.266H299.799V178.187V178.193Z" fill="white"/>
<path d="M379.833 146.654H358.404V161.275H377.529V164.028H358.404V182.175H355.332V143.9H379.833V146.654Z" fill="white"/>
<path d="M414.933 182.941C403.412 182.941 395.195 174.063 395.195 163.494C395.195 151.324 404.335 143.135 414.933 143.135C425.531 143.135 434.522 151.021 434.522 163.494C434.522 174.134 426.306 182.941 414.933 182.941ZM414.856 145.965C406.097 145.965 398.416 152.7 398.416 163.34C398.416 172.217 404.561 180.104 415.082 180.104C425.602 180.104 431.289 172.217 431.289 163.34C431.289 153.08 424.221 145.965 414.849 145.965H414.856Z" fill="white"/>
<path d="M469.778 165.637L482.68 181.101V181.403L479.989 182.478L466.318 165.945H456.566V182.175H453.493V143.9H466.705C474.231 143.9 478.995 148.339 478.995 154.849C478.995 160.053 475.613 164.189 469.778 165.412V165.643V165.637ZM466.783 146.654H456.566V163.192H466.241C472.076 163.192 475.768 160.207 475.768 154.772C475.768 149.793 472.005 146.654 466.783 146.654Z" fill="white"/>
<path d="M522.155 151.632L511.557 182.56H510.789L495.886 144.665L498.881 143.514L510.938 175.053H511.318L521.839 143.514H522.607L533.593 175.053H533.974L545.495 143.514L548.567 144.665L533.896 182.56H533.128L522.452 151.632H522.143H522.155Z" fill="white"/>
<path d="M587.365 171.458H567.472L562.405 182.554L559.714 181.177L577.076 143.514H577.844L595.201 181.177L592.509 182.554L587.365 171.458ZM568.699 168.698H586.132L577.451 149.863H577.296L568.692 168.698H568.699Z" fill="white"/>
<path d="M629.305 165.637L642.208 181.101V181.403L639.516 182.478L625.846 165.945H616.093V182.175H613.021V143.9H626.233C633.759 143.9 638.522 148.339 638.522 154.849C638.522 160.053 635.14 164.189 629.305 165.412V165.643V165.637ZM626.31 146.654H616.093V163.192H625.768C631.603 163.192 635.295 160.207 635.295 154.772C635.295 149.793 631.532 146.654 626.31 146.654Z" fill="white"/>
<path d="M661.332 182.175V143.9H672.085C682.916 143.9 692.21 151.555 692.21 162.961C692.21 175.286 684.142 182.175 672.163 182.175H661.332V182.175ZM672.853 179.416C682.838 179.416 688.983 173.292 688.983 163.031C688.983 152.771 681.302 146.647 672.163 146.647H664.404V179.409H672.853V179.416Z" fill="white"/>
</g>
<defs>
<clipPath id="clip0_423_2092">
<rect width="692.21" height="182.941" fill="white"/>
</clipPath>
</defs>
</svg>
