<svg width="1272" height="310" viewBox="0 0 1272 310" fill="none" xmlns="http://www.w3.org/2000/svg">
<g clip-path="url(#clip0_340_3294)">
<path d="M636.882 204.772C323.443 204.772 79.4639 231.585 79.4639 231.585L0 73.8848C0 73.8848 230.108 0.150391 636 0.150391C1041.89 0.150391 1272 73.8848 1272 73.8848L1194.3 231.585C1194.3 231.585 950.321 204.772 636.882 204.772Z" fill="url(#paint0_radial_340_3294)"/>
<path d="M242.441 173.02V111.442H253.596V137.51H282.13V111.442H293.316V173.02H282.13V146.861H253.596V173.02H242.441Z" fill="#EAF9FF"/>
<path d="M428.209 142.231C428.209 148.866 426.966 154.549 424.481 159.279C422.015 163.99 418.648 167.598 414.378 170.104C410.128 172.61 405.308 173.862 399.915 173.862C394.523 173.862 389.692 172.61 385.423 170.104C381.173 167.578 377.805 163.96 375.32 159.249C372.854 154.519 371.621 148.846 371.621 142.231C371.621 135.596 372.854 129.923 375.32 125.213C377.805 120.482 381.173 116.864 385.423 114.358C389.692 111.852 394.523 110.6 399.915 110.6C405.308 110.6 410.128 111.852 414.378 114.358C418.648 116.864 422.015 120.482 424.481 125.213C426.966 129.923 428.209 135.596 428.209 142.231ZM416.994 142.231C416.994 137.56 416.262 133.622 414.799 130.414C413.356 127.187 411.351 124.752 408.785 123.108C406.22 121.444 403.263 120.612 399.915 120.612C396.568 120.612 393.611 121.444 391.045 123.108C388.48 124.752 386.465 127.187 385.002 130.414C383.558 133.622 382.837 137.56 382.837 142.231C382.837 146.902 383.558 150.85 385.002 154.078C386.465 157.285 388.48 159.72 391.045 161.384C393.611 163.028 396.568 163.85 399.915 163.85C403.263 163.85 406.22 163.028 408.785 161.384C411.351 159.72 413.356 157.285 414.799 154.078C416.262 150.85 416.994 146.902 416.994 142.231Z" fill="#EAF9FF"/>
<path d="M506.492 173.02V111.442H529.584C534.315 111.442 538.284 112.263 541.491 113.907C544.719 115.551 547.154 117.856 548.798 120.823C550.462 123.769 551.293 127.207 551.293 131.136C551.293 135.085 550.452 138.513 548.768 141.419C547.104 144.306 544.648 146.541 541.401 148.124C538.154 149.688 534.165 150.47 529.434 150.47H512.987V141.209H527.931C530.697 141.209 532.962 140.828 534.726 140.066C536.49 139.284 537.793 138.152 538.635 136.668C539.497 135.165 539.928 133.321 539.928 131.136C539.928 128.951 539.497 127.087 538.635 125.543C537.773 123.98 536.46 122.797 534.696 121.995C532.932 121.173 530.657 120.763 527.871 120.763H517.648V173.02H506.492ZM538.304 145.118L553.549 173.02H541.1L526.127 145.118H538.304Z" fill="#EAF9FF"/>
<path d="M640.454 111.442V173.02H629.299V111.442H640.454Z" fill="#EAF9FF"/>
<path d="M719.128 173.02V166.075L750.699 120.793H718.947V111.442H764.53V118.387L732.989 163.669H764.711V173.02H719.128Z" fill="#EAF9FF"/>
<path d="M895.372 142.231C895.372 148.866 894.129 154.549 891.644 159.279C889.178 163.99 885.81 167.598 881.541 170.104C877.291 172.61 872.47 173.862 867.078 173.862C861.686 173.862 856.855 172.61 852.586 170.104C848.336 167.578 844.968 163.96 842.483 159.249C840.017 154.519 838.784 148.846 838.784 142.231C838.784 135.596 840.017 129.923 842.483 125.213C844.968 120.482 848.336 116.864 852.586 114.358C856.855 111.852 861.686 110.6 867.078 110.6C872.47 110.6 877.291 111.852 881.541 114.358C885.81 116.864 889.178 120.482 891.644 125.213C894.129 129.923 895.372 135.596 895.372 142.231ZM884.157 142.231C884.157 137.56 883.425 133.622 881.962 130.414C880.519 127.187 878.514 124.752 875.948 123.108C873.382 121.444 870.426 120.612 867.078 120.612C863.731 120.612 860.774 121.444 858.208 123.108C855.642 124.752 853.628 127.187 852.165 130.414C850.721 133.622 850 137.56 850 142.231C850 146.902 850.721 150.85 852.165 154.078C853.628 157.285 855.642 159.72 858.208 161.384C860.774 163.028 863.731 163.85 867.078 163.85C870.426 163.85 873.382 163.028 875.948 161.384C878.514 159.72 880.519 157.285 881.962 154.078C883.425 150.85 884.157 146.902 884.157 142.231Z" fill="#EAF9FF"/>
<path d="M1024.26 111.442V173.02H1014.34L985.322 131.076H984.81V173.02H973.655V111.442H983.638L1012.62 153.416H1013.16V111.442H1024.26Z" fill="#EAF9FF"/>
<path d="M636.882 204.771C323.443 204.771 79.4639 231.584 79.4639 231.584V309.5H1194.3V231.584C1194.3 231.584 950.321 204.771 636.882 204.771Z" fill="#224757"/>
<path d="M79.4639 231.584C79.4639 231.584 323.443 204.771 636.882 204.771C950.321 204.771 1194.3 231.584 1194.3 231.584" stroke="#EAF9FF" stroke-width="2.11678" stroke-linecap="round"/>
</g>
<defs>
<radialGradient id="paint0_radial_340_3294" cx="0" cy="0" r="1" gradientUnits="userSpaceOnUse" gradientTransform="translate(636.176 231.585) rotate(-90) scale(206.033 606.382)">
<stop stop-color="#00C2FF"/>
<stop offset="0.192708" stop-color="#00D1FF" stop-opacity="0.4"/>
<stop offset="0.307292" stop-color="#40DDFF" stop-opacity="0.31"/>
<stop offset="0.776042" stop-color="white" stop-opacity="0.08"/>
<stop offset="0.932292" stop-color="white" stop-opacity="0.01"/>
<stop offset="1" stop-color="white" stop-opacity="0"/>
</radialGradient>
<clipPath id="clip0_340_3294">
<rect width="1272" height="310" fill="white"/>
</clipPath>
</defs>
</svg>
