<svg width="760" height="200" viewBox="0 0 760 200" fill="none" xmlns="http://www.w3.org/2000/svg">
<rect width="760" height="200" rx="30" fill="#F8F1F1"/>
<path d="M53.9375 53.6797C53.1187 53.6797 52.293 54.0235 51.6797 54.6672L51.2466 55.1202L50.8136 54.6672C50.2012 54.0236 49.3761 53.6797 48.5566 53.6797C46.8472 53.6797 45.6214 55.1523 45.6214 56.7875C45.6214 57.5898 45.913 58.3914 46.4956 59.0039L50.7472 63.4633C50.8845 63.6075 51.0648 63.6796 51.245 63.6796C51.4252 63.6796 51.6055 63.6075 51.7428 63.4633L55.9944 59.0039C56.5788 58.3913 56.8709 57.5891 56.8709 56.7859C56.875 55.2187 55.6484 53.6797 53.9375 53.6797ZM61.875 36.25C61.563 36.25 61.257 36.2755 60.9586 36.3246C60.2097 34.0973 58.1016 32.4879 55.625 32.4879C55.1205 32.4879 54.6313 32.5547 54.1656 32.6799C53.1719 31.0727 51.3984 30 49.375 30C47.3516 30 45.5703 31.0773 44.5781 32.6906C44.1172 32.5664 43.6328 32.5 43.1328 32.5C40.0313 32.5 37.5008 35.0234 37.5008 38.125V47.625C37.0914 47.5469 36.6727 47.5 36.2508 47.5C36.2506 47.5 36.251 47.5 36.2508 47.5C32.8461 47.5 30 50.2461 30 53.7555C30 55.3406 30.5905 56.843 31.6758 58.0094L38.0234 64.825C41.0859 68.1172 45.4219 70 49.9141 70H52.4984C60.7734 70 67.5 63.2734 67.5 55V41.875C67.5 38.7734 64.9766 36.25 61.875 36.25ZM63.75 55C63.75 61.2039 58.7039 66.25 52.5703 66.25H49.9141C46.4445 66.25 43.1305 64.8078 40.7656 62.2688L34.5344 55.5789C34.0523 55.0547 33.8016 54.375 33.8016 53.7031C33.8016 51.9758 35.2438 51.25 36.2508 51.25C36.9196 51.25 37.5867 51.5169 38.0805 52.0453L40.168 54.2867C40.2969 54.4251 40.46 54.487 40.6203 54.487C40.9411 54.487 41.2504 54.2392 41.2504 53.8607V38.125C41.2504 37.0898 42.0902 36.25 43.0551 36.25C44.0199 36.25 44.9301 37.0898 44.9301 38.125V50C44.9301 50.6903 45.4898 51.25 46.1801 51.25C46.8704 51.25 47.5 50.6875 47.5 50L47.5001 35.625C47.5001 34.5898 48.34 33.75 49.3751 33.75C50.4103 33.75 51.2501 34.5898 51.2501 35.625V50C51.2501 50.6903 51.8097 51.25 52.4298 51.25C53.1203 51.25 53.679 50.6903 53.679 50L53.6796 38.1094C53.6796 37.0742 54.5195 36.2344 55.5546 36.2344C56.5898 36.2344 57.4296 37.0742 57.4296 38.1094V50C57.4296 50.6903 57.9893 51.25 58.6796 51.25C59.3699 51.25 59.9296 50.6903 59.9296 50V41.875C59.9296 40.8398 60.7695 40 61.8046 40C62.9141 40 63.75 40.8438 63.75 41.875V55Z" fill="#224757"/>
<path d="M54.0085 98.8182V125H50.3778L37.0696 105.798H36.8267V125H32.8764V98.8182H36.5327L49.8537 118.045H50.0966V98.8182H54.0085ZM76.6076 98.8182H80.5707V116.038C80.5707 117.871 80.1403 119.494 79.2795 120.909C78.4187 122.315 77.2085 123.423 75.6488 124.233C74.0891 125.034 72.261 125.435 70.1644 125.435C68.0763 125.435 66.2525 125.034 64.6928 124.233C63.1332 123.423 61.9229 122.315 61.0621 120.909C60.2013 119.494 59.771 117.871 59.771 116.038V98.8182H63.7212V115.719C63.7212 116.903 63.9812 117.956 64.5011 118.876C65.0295 119.797 65.7752 120.521 66.7383 121.05C67.7013 121.57 68.8434 121.83 70.1644 121.83C71.494 121.83 72.6403 121.57 73.6033 121.05C74.5749 120.521 75.3164 119.797 75.8278 118.876C76.3477 117.956 76.6076 116.903 76.6076 115.719V98.8182ZM90.2642 98.8182V125H86.3139V98.8182H90.2642Z" fill="#224757"/>
<path d="M47.3395 145.091V164H44.7173L35.1058 150.132H34.9304V164H32.0774V145.091H34.718L44.3388 158.977H44.5142V145.091H47.3395ZM53.0985 164H50.0701L56.8748 145.091H60.171L66.9757 164H63.9473L58.6014 148.526H58.4537L53.0985 164ZM53.6064 156.595H63.4302V158.996H53.6064V156.595ZM66.5394 147.547V145.091H81.1737V147.547H75.2738V164H72.43V147.547H66.5394ZM96.5673 145.091H99.4295V157.528C99.4295 158.851 99.1187 160.024 98.497 161.045C97.8753 162.061 97.0012 162.861 95.8748 163.446C94.7484 164.025 93.4281 164.314 91.9139 164.314C90.4058 164.314 89.0886 164.025 87.9622 163.446C86.8358 162.861 85.9617 162.061 85.34 161.045C84.7183 160.024 84.4075 158.851 84.4075 157.528V145.091H87.2605V157.297C87.2605 158.152 87.4482 158.913 87.8237 159.577C88.2053 160.242 88.7439 160.765 89.4395 161.147C90.135 161.522 90.9598 161.71 91.9139 161.71C92.8741 161.71 93.702 161.522 94.3975 161.147C95.0993 160.765 95.6348 160.242 96.0041 159.577C96.3796 158.913 96.5673 158.152 96.5673 157.297V145.091ZM103.577 164V145.091H110.317C111.782 145.091 112.998 145.343 113.964 145.848C114.937 146.353 115.663 147.051 116.143 147.944C116.624 148.83 116.864 149.855 116.864 151.018C116.864 152.176 116.621 153.194 116.134 154.075C115.654 154.949 114.928 155.629 113.955 156.115C112.989 156.601 111.773 156.844 110.308 156.844H105.202V154.388H110.05C110.973 154.388 111.724 154.256 112.303 153.991C112.887 153.727 113.315 153.342 113.586 152.837C113.857 152.333 113.992 151.726 113.992 151.018C113.992 150.304 113.854 149.686 113.577 149.163C113.306 148.639 112.878 148.239 112.293 147.962C111.715 147.679 110.955 147.538 110.013 147.538H106.43V164H103.577ZM112.912 155.469L117.584 164H114.334L109.754 155.469H112.912ZM121.933 164H118.904L125.709 145.091H129.005L135.81 164H132.781L127.435 148.526H127.288L121.933 164ZM122.44 156.595H132.264V158.996H122.44V156.595ZM138.54 164V145.091H141.393V161.544H149.961V164H138.54ZM172.257 145.091H175.119V157.528C175.119 158.851 174.808 160.024 174.186 161.045C173.565 162.061 172.691 162.861 171.564 163.446C170.438 164.025 169.118 164.314 167.603 164.314C166.095 164.314 164.778 164.025 163.652 163.446C162.525 162.861 161.651 162.061 161.029 161.045C160.408 160.024 160.097 158.851 160.097 157.528V145.091H162.95V157.297C162.95 158.152 163.138 158.913 163.513 159.577C163.895 160.242 164.433 160.765 165.129 161.147C165.824 161.522 166.649 161.71 167.603 161.71C168.564 161.71 169.391 161.522 170.087 161.147C170.789 160.765 171.324 160.242 171.694 159.577C172.069 158.913 172.257 158.152 172.257 157.297V145.091ZM189.58 150.058C189.482 149.184 189.075 148.507 188.361 148.027C187.647 147.541 186.749 147.298 185.665 147.298C184.89 147.298 184.219 147.421 183.653 147.667C183.086 147.907 182.646 148.239 182.332 148.664C182.024 149.083 181.871 149.56 181.871 150.095C181.871 150.545 181.975 150.932 182.184 151.259C182.4 151.585 182.68 151.859 183.025 152.08C183.376 152.296 183.751 152.477 184.151 152.625C184.551 152.767 184.936 152.884 185.305 152.976L187.152 153.456C187.755 153.604 188.374 153.804 189.008 154.056C189.642 154.308 190.229 154.641 190.771 155.053C191.313 155.466 191.75 155.977 192.082 156.586C192.421 157.195 192.59 157.925 192.59 158.774C192.59 159.845 192.313 160.796 191.759 161.627C191.211 162.458 190.414 163.114 189.368 163.594C188.327 164.074 187.069 164.314 185.591 164.314C184.176 164.314 182.951 164.089 181.917 163.64C180.883 163.191 180.073 162.554 179.488 161.729C178.904 160.898 178.581 159.913 178.519 158.774H181.381C181.437 159.457 181.658 160.027 182.046 160.482C182.44 160.932 182.942 161.267 183.551 161.489C184.166 161.704 184.84 161.812 185.573 161.812C186.379 161.812 187.096 161.686 187.724 161.433C188.358 161.175 188.857 160.818 189.22 160.362C189.583 159.901 189.765 159.362 189.765 158.746C189.765 158.186 189.605 157.728 189.285 157.371C188.971 157.014 188.543 156.718 188.001 156.484C187.466 156.25 186.859 156.044 186.182 155.866L183.948 155.256C182.434 154.844 181.233 154.238 180.347 153.438C179.467 152.637 179.027 151.579 179.027 150.261C179.027 149.172 179.322 148.221 179.913 147.408C180.504 146.596 181.304 145.965 182.314 145.516C183.323 145.06 184.462 144.832 185.73 144.832C187.01 144.832 188.14 145.057 189.118 145.506C190.103 145.956 190.879 146.574 191.445 147.362C192.011 148.144 192.307 149.043 192.331 150.058H189.58ZM195.999 164V145.091H207.854V147.547H198.852V153.308H207.236V155.755H198.852V161.544H207.965V164H195.999ZM211.665 164V145.091H218.405C219.87 145.091 221.086 145.343 222.052 145.848C223.025 146.353 223.751 147.051 224.231 147.944C224.711 148.83 224.952 149.855 224.952 151.018C224.952 152.176 224.708 153.194 224.222 154.075C223.742 154.949 223.016 155.629 222.043 156.115C221.077 156.601 219.861 156.844 218.396 156.844H213.29V154.388H218.138C219.061 154.388 219.812 154.256 220.39 153.991C220.975 153.727 221.403 153.342 221.674 152.837C221.945 152.333 222.08 151.726 222.08 151.018C222.08 150.304 221.942 149.686 221.665 149.163C221.394 148.639 220.966 148.239 220.381 147.962C219.803 147.679 219.042 147.538 218.101 147.538H214.518V164H211.665ZM221 155.469L225.672 164H222.422L217.842 155.469H221ZM238.157 145.091V164H235.304V145.091H238.157ZM257.574 145.091V164H254.952L245.34 150.132H245.165V164H242.312V145.091H244.952L254.573 158.977H254.749V145.091H257.574ZM260.803 147.547V145.091H275.437V147.547H269.537V164H266.694V147.547H260.803ZM278.671 164V145.091H290.526V147.547H281.524V153.308H289.908V155.755H281.524V161.544H290.637V164H278.671ZM294.337 164V145.091H301.077C302.542 145.091 303.758 145.343 304.724 145.848C305.697 146.353 306.423 147.051 306.903 147.944C307.383 148.83 307.623 149.855 307.623 151.018C307.623 152.176 307.38 153.194 306.894 154.075C306.414 154.949 305.688 155.629 304.715 156.115C303.749 156.601 302.533 156.844 301.068 156.844H295.962V154.388H300.809C301.733 154.388 302.484 154.256 303.062 153.991C303.647 153.727 304.075 153.342 304.346 152.837C304.617 152.333 304.752 151.726 304.752 151.018C304.752 150.304 304.613 149.686 304.336 149.163C304.066 148.639 303.638 148.239 303.053 147.962C302.474 147.679 301.714 147.538 300.773 147.538H297.19V164H294.337ZM303.672 155.469L308.344 164H305.094L300.514 155.469H303.672ZM311.095 164V145.091H322.821V147.547H313.948V153.308H321.981V155.755H313.948V164H311.095ZM325.565 164H322.537L329.342 145.091H332.638L339.442 164H336.414L331.068 148.526H330.92L325.565 164ZM326.073 156.595H335.897V158.996H326.073V156.595ZM356.99 151.24H354.109C353.998 150.625 353.792 150.083 353.49 149.615C353.189 149.147 352.819 148.75 352.382 148.424C351.945 148.098 351.456 147.852 350.914 147.685C350.379 147.519 349.81 147.436 349.206 147.436C348.117 147.436 347.141 147.71 346.279 148.258C345.424 148.806 344.747 149.609 344.248 150.668C343.756 151.726 343.51 153.019 343.51 154.545C343.51 156.084 343.756 157.383 344.248 158.442C344.747 159.5 345.427 160.301 346.289 160.842C347.15 161.384 348.12 161.655 349.197 161.655C349.794 161.655 350.36 161.575 350.896 161.415C351.438 161.249 351.927 161.005 352.364 160.685C352.801 160.365 353.17 159.974 353.472 159.513C353.78 159.045 353.992 158.509 354.109 157.906L356.99 157.915C356.836 158.845 356.537 159.701 356.094 160.482C355.657 161.258 355.094 161.929 354.404 162.495C353.721 163.055 352.94 163.489 352.059 163.797C351.179 164.105 350.219 164.259 349.179 164.259C347.541 164.259 346.083 163.871 344.802 163.095C343.522 162.313 342.512 161.196 341.774 159.744C341.041 158.291 340.675 156.558 340.675 154.545C340.675 152.527 341.044 150.794 341.783 149.347C342.522 147.895 343.531 146.781 344.811 146.005C346.092 145.223 347.547 144.832 349.179 144.832C350.182 144.832 351.118 144.977 351.985 145.266C352.859 145.549 353.644 145.968 354.34 146.522C355.035 147.07 355.611 147.741 356.066 148.535C356.522 149.323 356.83 150.224 356.99 151.24ZM360.404 164V145.091H372.259V147.547H363.257V153.308H371.64V155.755H363.257V161.544H372.369V164H360.404ZM386.383 150.058C386.284 149.184 385.878 148.507 385.164 148.027C384.45 147.541 383.551 147.298 382.468 147.298C381.692 147.298 381.022 147.421 380.455 147.667C379.889 147.907 379.449 148.239 379.135 148.664C378.827 149.083 378.673 149.56 378.673 150.095C378.673 150.545 378.778 150.932 378.987 151.259C379.203 151.585 379.483 151.859 379.827 152.08C380.178 152.296 380.554 152.477 380.954 152.625C381.354 152.767 381.739 152.884 382.108 152.976L383.955 153.456C384.558 153.604 385.176 153.804 385.81 154.056C386.444 154.308 387.032 154.641 387.574 155.053C388.116 155.466 388.553 155.977 388.885 156.586C389.223 157.195 389.393 157.925 389.393 158.774C389.393 159.845 389.116 160.796 388.562 161.627C388.014 162.458 387.217 163.114 386.17 163.594C385.13 164.074 383.871 164.314 382.394 164.314C380.978 164.314 379.754 164.089 378.719 163.64C377.685 163.191 376.876 162.554 376.291 161.729C375.706 160.898 375.383 159.913 375.322 158.774H378.184C378.239 159.457 378.461 160.027 378.849 160.482C379.243 160.932 379.744 161.267 380.354 161.489C380.969 161.704 381.643 161.812 382.376 161.812C383.182 161.812 383.899 161.686 384.527 161.433C385.161 161.175 385.66 160.818 386.023 160.362C386.386 159.901 386.567 159.362 386.567 158.746C386.567 158.186 386.407 157.728 386.087 157.371C385.773 157.014 385.346 156.718 384.804 156.484C384.268 156.25 383.662 156.044 382.985 155.866L380.751 155.256C379.237 154.844 378.036 154.238 377.15 153.438C376.27 152.637 375.83 151.579 375.83 150.261C375.83 149.172 376.125 148.221 376.716 147.408C377.307 146.596 378.107 145.965 379.116 145.516C380.126 145.06 381.265 144.832 382.533 144.832C383.813 144.832 384.942 145.057 385.921 145.506C386.906 145.956 387.682 146.574 388.248 147.362C388.814 148.144 389.11 149.043 389.134 150.058H386.383Z" fill="#A9B4B9"/>
<path d="M370 97.5C368.619 97.5 367.5 98.6193 367.5 100C367.5 101.381 368.619 102.5 370 102.5V97.5ZM481.768 101.768C482.744 100.791 482.744 99.2085 481.768 98.2322L465.858 82.3223C464.882 81.346 463.299 81.346 462.322 82.3223C461.346 83.2986 461.346 84.8816 462.322 85.8579L476.464 100L462.322 114.142C461.346 115.118 461.346 116.701 462.322 117.678C463.299 118.654 464.882 118.654 465.858 117.678L481.768 101.768ZM370 102.5H480V97.5H370V102.5Z" fill="#FF9900"/>
<path d="M541.352 81H532.876V54.8182H541.621C544.186 54.8182 546.389 55.3423 548.23 56.3906C550.071 57.4304 551.482 58.9261 552.462 60.8778C553.45 62.821 553.945 65.152 553.945 67.8707C553.945 70.598 553.446 72.9418 552.449 74.902C551.46 76.8622 550.028 78.3707 548.153 79.4276C546.278 80.4759 544.011 81 541.352 81ZM536.827 77.5483H541.135C543.129 77.5483 544.787 77.1733 546.108 76.4233C547.429 75.6648 548.418 74.5696 549.074 73.1378C549.73 71.6974 550.058 69.9418 550.058 67.8707C550.058 65.8168 549.73 64.0739 549.074 62.642C548.426 61.2102 547.459 60.1236 546.172 59.3821C544.885 58.6406 543.287 58.2699 541.378 58.2699H536.827V77.5483ZM558.55 81V61.3636H562.373V81H558.55ZM560.48 58.3338C559.816 58.3338 559.245 58.1122 558.767 57.669C558.299 57.2173 558.064 56.6804 558.064 56.0582C558.064 55.4276 558.299 54.8906 558.767 54.4474C559.245 53.9957 559.816 53.7699 560.48 53.7699C561.145 53.7699 561.712 53.9957 562.181 54.4474C562.658 54.8906 562.897 55.4276 562.897 56.0582C562.897 56.6804 562.658 57.2173 562.181 57.669C561.712 58.1122 561.145 58.3338 560.48 58.3338ZM567.515 81V61.3636H571.21V64.483H571.414C571.772 63.4261 572.403 62.5952 573.306 61.9901C574.218 61.3764 575.249 61.0696 576.4 61.0696C576.638 61.0696 576.92 61.0781 577.244 61.0952C577.576 61.1122 577.836 61.1335 578.023 61.1591V64.8153C577.87 64.7727 577.597 64.7259 577.205 64.6747C576.813 64.6151 576.421 64.5852 576.029 64.5852C575.126 64.5852 574.32 64.777 573.613 65.1605C572.914 65.5355 572.36 66.0597 571.951 66.733C571.542 67.3977 571.337 68.1562 571.337 69.0085V81H567.515ZM589.091 81.3963C587.157 81.3963 585.49 80.983 584.093 80.1562C582.703 79.321 581.63 78.1491 580.871 76.6406C580.121 75.1236 579.746 73.3466 579.746 71.3097C579.746 69.2983 580.121 67.5256 580.871 65.9915C581.63 64.4574 582.686 63.2599 584.042 62.3991C585.405 61.5384 586.999 61.108 588.823 61.108C589.931 61.108 591.005 61.2912 592.044 61.6577C593.084 62.0241 594.017 62.5994 594.844 63.3835C595.671 64.1676 596.323 65.1861 596.8 66.4389C597.277 67.6832 597.516 69.196 597.516 70.9773V72.3324H581.907V69.4688H593.77C593.77 68.4631 593.566 67.5724 593.157 66.7969C592.748 66.0128 592.172 65.3949 591.431 64.9432C590.698 64.4915 589.837 64.2656 588.848 64.2656C587.775 64.2656 586.837 64.5298 586.036 65.0582C585.243 65.5781 584.63 66.2599 584.195 67.1037C583.769 67.9389 583.556 68.8466 583.556 69.8267V72.0639C583.556 73.3764 583.786 74.4929 584.246 75.4134C584.715 76.3338 585.367 77.0369 586.202 77.5227C587.037 78 588.013 78.2386 589.13 78.2386C589.854 78.2386 590.515 78.1364 591.111 77.9318C591.708 77.7187 592.223 77.4034 592.658 76.9858C593.093 76.5682 593.425 76.0526 593.655 75.4389L597.273 76.0909C596.983 77.1562 596.463 78.0895 595.713 78.8906C594.972 79.6832 594.039 80.3011 592.914 80.7443C591.797 81.179 590.523 81.3963 589.091 81.3963ZM610.028 81.3963C608.128 81.3963 606.491 80.9659 605.119 80.1051C603.756 79.2358 602.707 78.0384 601.974 76.5128C601.241 74.9872 600.875 73.2401 600.875 71.2713C600.875 69.277 601.25 67.517 602 65.9915C602.75 64.4574 603.807 63.2599 605.17 62.3991C606.534 61.5384 608.141 61.108 609.99 61.108C611.482 61.108 612.811 61.3849 613.979 61.9389C615.146 62.4844 616.088 63.2514 616.804 64.2401C617.528 65.2287 617.959 66.3835 618.095 67.7045H614.375C614.17 66.7841 613.702 65.9915 612.969 65.3267C612.244 64.6619 611.273 64.3295 610.054 64.3295C608.989 64.3295 608.055 64.6108 607.254 65.1733C606.462 65.7273 605.844 66.5199 605.401 67.5511C604.957 68.5739 604.736 69.7841 604.736 71.1818C604.736 72.6136 604.953 73.8494 605.388 74.8892C605.822 75.929 606.436 76.7344 607.229 77.3054C608.03 77.8764 608.972 78.1619 610.054 78.1619C610.778 78.1619 611.435 78.0298 612.023 77.7656C612.619 77.4929 613.118 77.1051 613.518 76.6023C613.928 76.0994 614.213 75.4943 614.375 74.7869H618.095C617.959 76.0568 617.545 77.1903 616.855 78.1875C616.165 79.1847 615.24 79.9687 614.081 80.5398C612.93 81.1108 611.58 81.3963 610.028 81.3963ZM631.349 61.3636V64.4318H620.623V61.3636H631.349ZM623.5 56.6591H627.322V75.2344C627.322 75.9759 627.433 76.5341 627.654 76.9091C627.876 77.2756 628.162 77.527 628.511 77.6634C628.869 77.7912 629.257 77.8551 629.674 77.8551C629.981 77.8551 630.25 77.8338 630.48 77.7912C630.71 77.7486 630.889 77.7145 631.017 77.6889L631.707 80.8466C631.485 80.9318 631.17 81.017 630.761 81.1023C630.352 81.196 629.841 81.2472 629.227 81.2557C628.221 81.2727 627.284 81.0938 626.414 80.7188C625.545 80.3438 624.842 79.7642 624.305 78.9801C623.768 78.196 623.5 77.2116 623.5 76.027V56.6591Z" fill="#224757"/>
<path d="M536.827 118.818V145H532.876V118.818H536.827ZM546.095 133.341V145H542.273V125.364H545.942V128.56H546.185C546.636 127.52 547.344 126.685 548.307 126.054C549.278 125.423 550.501 125.108 551.976 125.108C553.314 125.108 554.486 125.389 555.491 125.952C556.497 126.506 557.277 127.332 557.831 128.432C558.385 129.531 558.662 130.891 558.662 132.51V145H554.839V132.97C554.839 131.547 554.469 130.435 553.727 129.634C552.986 128.824 551.967 128.419 550.672 128.419C549.786 128.419 548.997 128.611 548.307 128.994C547.625 129.378 547.084 129.94 546.683 130.682C546.291 131.415 546.095 132.301 546.095 133.341ZM572.955 125.364V128.432H562.229V125.364H572.955ZM565.105 120.659H568.928V139.234C568.928 139.976 569.038 140.534 569.26 140.909C569.482 141.276 569.767 141.527 570.116 141.663C570.474 141.791 570.862 141.855 571.28 141.855C571.587 141.855 571.855 141.834 572.085 141.791C572.315 141.749 572.494 141.714 572.622 141.689L573.312 144.847C573.091 144.932 572.776 145.017 572.366 145.102C571.957 145.196 571.446 145.247 570.832 145.256C569.827 145.273 568.889 145.094 568.02 144.719C567.151 144.344 566.447 143.764 565.911 142.98C565.374 142.196 565.105 141.212 565.105 140.027V120.659ZM589.622 136.857V125.364H593.457V145H589.699V141.599H589.494C589.042 142.648 588.318 143.521 587.321 144.22C586.332 144.911 585.1 145.256 583.626 145.256C582.365 145.256 581.248 144.979 580.277 144.425C579.314 143.862 578.555 143.031 578.001 141.932C577.456 140.832 577.183 139.473 577.183 137.854V125.364H581.005V137.393C581.005 138.732 581.376 139.797 582.118 140.589C582.859 141.382 583.822 141.778 585.007 141.778C585.723 141.778 586.434 141.599 587.142 141.241C587.858 140.884 588.45 140.342 588.919 139.618C589.396 138.893 589.63 137.973 589.622 136.857ZM598.593 145V125.364H602.415V145H598.593ZM600.523 122.334C599.859 122.334 599.288 122.112 598.81 121.669C598.342 121.217 598.107 120.68 598.107 120.058C598.107 119.428 598.342 118.891 598.81 118.447C599.288 117.996 599.859 117.77 600.523 117.77C601.188 117.77 601.755 117.996 602.224 118.447C602.701 118.891 602.94 119.428 602.94 120.058C602.94 120.68 602.701 121.217 602.224 121.669C601.755 122.112 601.188 122.334 600.523 122.334ZM616.724 125.364V128.432H605.998V125.364H616.724ZM608.875 120.659H612.697V139.234C612.697 139.976 612.808 140.534 613.029 140.909C613.251 141.276 613.537 141.527 613.886 141.663C614.244 141.791 614.632 141.855 615.049 141.855C615.356 141.855 615.625 141.834 615.855 141.791C616.085 141.749 616.264 141.714 616.392 141.689L617.082 144.847C616.86 144.932 616.545 145.017 616.136 145.102C615.727 145.196 615.216 145.247 614.602 145.256C613.596 145.273 612.659 145.094 611.789 144.719C610.92 144.344 610.217 143.764 609.68 142.98C609.143 142.196 608.875 141.212 608.875 140.027V120.659ZM620.952 145V125.364H624.775V145H620.952ZM622.883 122.334C622.218 122.334 621.647 122.112 621.17 121.669C620.701 121.217 620.467 120.68 620.467 120.058C620.467 119.428 620.701 118.891 621.17 118.447C621.647 117.996 622.218 117.77 622.883 117.77C623.548 117.77 624.114 117.996 624.583 118.447C625.06 118.891 625.299 119.428 625.299 120.058C625.299 120.68 625.06 121.217 624.583 121.669C624.114 122.112 623.548 122.334 622.883 122.334ZM646.716 125.364L639.595 145H635.504L628.37 125.364H632.474L637.447 140.474H637.652L642.612 125.364H646.716ZM658.103 145.396C656.168 145.396 654.502 144.983 653.104 144.156C651.715 143.321 650.641 142.149 649.883 140.641C649.133 139.124 648.758 137.347 648.758 135.31C648.758 133.298 649.133 131.526 649.883 129.991C650.641 128.457 651.698 127.26 653.053 126.399C654.417 125.538 656.011 125.108 657.835 125.108C658.942 125.108 660.016 125.291 661.056 125.658C662.096 126.024 663.029 126.599 663.856 127.384C664.683 128.168 665.335 129.186 665.812 130.439C666.289 131.683 666.528 133.196 666.528 134.977V136.332H650.918V133.469H662.782C662.782 132.463 662.577 131.572 662.168 130.797C661.759 130.013 661.184 129.395 660.442 128.943C659.71 128.491 658.849 128.266 657.86 128.266C656.786 128.266 655.849 128.53 655.048 129.058C654.255 129.578 653.641 130.26 653.207 131.104C652.781 131.939 652.567 132.847 652.567 133.827V136.064C652.567 137.376 652.798 138.493 653.258 139.413C653.727 140.334 654.379 141.037 655.214 141.523C656.049 142 657.025 142.239 658.141 142.239C658.866 142.239 659.526 142.136 660.123 141.932C660.719 141.719 661.235 141.403 661.67 140.986C662.104 140.568 662.437 140.053 662.667 139.439L666.285 140.091C665.995 141.156 665.475 142.089 664.725 142.891C663.984 143.683 663.05 144.301 661.925 144.744C660.809 145.179 659.535 145.396 658.103 145.396Z" fill="#224757"/>
</svg>
