<svg width="463" height="118" viewBox="0 0 463 118" fill="none" xmlns="http://www.w3.org/2000/svg">
<g clip-path="url(#clip0_346_3310)">
<rect width="463" height="118" fill="white"/>
<path d="M6.30682 40H1.59801V25.4545H6.45597C7.88116 25.4545 9.10511 25.7457 10.1278 26.3281C11.1506 26.9058 11.9342 27.7367 12.4787 28.821C13.0279 29.9006 13.3026 31.1955 13.3026 32.706C13.3026 34.2211 13.0256 35.5232 12.4716 36.6122C11.9223 37.7012 11.1269 38.5393 10.0852 39.1264C9.04356 39.7088 7.78409 40 6.30682 40ZM3.79261 38.0824H6.18608C7.29403 38.0824 8.21496 37.8741 8.94886 37.4574C9.68277 37.036 10.232 36.4276 10.5966 35.6321C10.9612 34.8319 11.1435 33.8565 11.1435 32.706C11.1435 31.5649 10.9612 30.5966 10.5966 29.8011C10.2367 29.0057 9.69934 28.402 8.98438 27.9901C8.26941 27.5781 7.38163 27.3722 6.32102 27.3722H3.79261V38.0824ZM20.5629 40.2202C19.488 40.2202 18.5624 39.9905 17.7859 39.5312C17.0141 39.0672 16.4175 38.4162 15.9961 37.5781C15.5794 36.7353 15.3711 35.7481 15.3711 34.6165C15.3711 33.4991 15.5794 32.5142 15.9961 31.6619C16.4175 30.8097 17.0046 30.1444 17.7575 29.6662C18.515 29.188 19.4004 28.9489 20.4137 28.9489C21.0292 28.9489 21.6258 29.0507 22.2035 29.2543C22.7811 29.4579 23.2996 29.7775 23.7589 30.2131C24.2182 30.6487 24.5804 31.2145 24.8455 31.9105C25.1107 32.6018 25.2433 33.4422 25.2433 34.4318V35.1847H16.5714V33.5938H23.1623C23.1623 33.035 23.0487 32.5402 22.8214 32.1094C22.5941 31.6738 22.2745 31.3305 21.8626 31.0795C21.4554 30.8286 20.9772 30.7031 20.4279 30.7031C19.8313 30.7031 19.3105 30.8499 18.8654 31.1435C18.4251 31.4323 18.0842 31.8111 17.8427 32.2798C17.6059 32.7438 17.4876 33.2481 17.4876 33.7926V35.0355C17.4876 35.7647 17.6154 36.3849 17.8711 36.8963C18.1315 37.4077 18.4937 37.7983 18.9577 38.0682C19.4218 38.3333 19.9639 38.4659 20.5842 38.4659C20.9866 38.4659 21.3536 38.4091 21.685 38.2955C22.0165 38.1771 22.3029 38.0019 22.5444 37.7699C22.7859 37.5379 22.9705 37.2514 23.0984 36.9105L25.1083 37.2727C24.9473 37.8646 24.6585 38.383 24.2418 38.8281C23.8299 39.2685 23.3114 39.6117 22.6864 39.858C22.0662 40.0994 21.3583 40.2202 20.5629 40.2202ZM35.7741 31.7543L33.8494 32.0952C33.7689 31.849 33.6411 31.6146 33.4659 31.392C33.2955 31.1695 33.0634 30.9872 32.7699 30.8452C32.4763 30.7031 32.1094 30.6321 31.669 30.6321C31.0677 30.6321 30.5658 30.767 30.1634 31.0369C29.7609 31.3021 29.5597 31.6454 29.5597 32.0668C29.5597 32.4313 29.6946 32.7249 29.9645 32.9474C30.2344 33.17 30.67 33.3523 31.2713 33.4943L33.0043 33.892C34.008 34.1241 34.7562 34.4815 35.2486 34.9645C35.741 35.4474 35.9872 36.0748 35.9872 36.8466C35.9872 37.5 35.7978 38.0824 35.419 38.5938C35.045 39.1004 34.5218 39.4981 33.8494 39.7869C33.1818 40.0758 32.4077 40.2202 31.527 40.2202C30.3054 40.2202 29.3087 39.9598 28.5369 39.4389C27.7652 38.9134 27.2917 38.1676 27.1165 37.2017L29.169 36.8892C29.2969 37.4242 29.5597 37.8291 29.9574 38.1037C30.3551 38.3736 30.8736 38.5085 31.5128 38.5085C32.2088 38.5085 32.7652 38.3641 33.1818 38.0753C33.5985 37.7817 33.8068 37.4242 33.8068 37.0028C33.8068 36.6619 33.679 36.3755 33.4233 36.1435C33.1723 35.9115 32.7865 35.7363 32.2656 35.6179L30.419 35.2131C29.401 34.9811 28.6482 34.6117 28.1605 34.1051C27.6776 33.5985 27.4361 32.9569 27.4361 32.1804C27.4361 31.5365 27.616 30.973 27.9759 30.4901C28.3357 30.0071 28.8329 29.6307 29.4673 29.3608C30.1018 29.0862 30.8286 28.9489 31.6477 28.9489C32.8267 28.9489 33.7547 29.2045 34.4318 29.7159C35.1089 30.2225 35.5563 30.902 35.7741 31.7543ZM43.4144 29.0909V30.7955H37.4556V29.0909H43.4144ZM39.0536 26.4773H41.1772V36.7969C41.1772 37.2088 41.2388 37.5189 41.3619 37.7273C41.485 37.9309 41.6436 38.0705 41.8377 38.1463C42.0366 38.2173 42.252 38.2528 42.484 38.2528C42.6545 38.2528 42.8036 38.241 42.9315 38.2173C43.0593 38.1937 43.1587 38.1747 43.2298 38.1605L43.6133 39.9148C43.4902 39.9621 43.315 40.0095 43.0877 40.0568C42.8604 40.1089 42.5763 40.1373 42.2354 40.142C41.6767 40.1515 41.1559 40.0521 40.6729 39.8438C40.19 39.6354 39.7994 39.3134 39.5011 38.8778C39.2028 38.4422 39.0536 37.8954 39.0536 37.2372V26.4773ZM45.7635 40V29.0909H47.8871V40H45.7635ZM46.8359 27.4077C46.4666 27.4077 46.1494 27.2846 45.8842 27.0384C45.6238 26.7874 45.4936 26.4891 45.4936 26.1435C45.4936 25.7931 45.6238 25.4948 45.8842 25.2486C46.1494 24.9976 46.4666 24.8722 46.8359 24.8722C47.2053 24.8722 47.5201 24.9976 47.7805 25.2486C48.0457 25.4948 48.1783 25.7931 48.1783 26.1435C48.1783 26.4891 48.0457 26.7874 47.7805 27.0384C47.5201 27.2846 47.2053 27.4077 46.8359 27.4077ZM52.8675 33.5227V40H50.744V29.0909H52.7823V30.8665H52.9173C53.1682 30.2888 53.5612 29.8248 54.0962 29.4744C54.636 29.1241 55.3155 28.9489 56.1346 28.9489C56.878 28.9489 57.529 29.1051 58.0877 29.4176C58.6464 29.7254 59.0797 30.1847 59.3874 30.7955C59.6952 31.4062 59.8491 32.1615 59.8491 33.0611V40H57.7255V33.3168C57.7255 32.526 57.5195 31.9081 57.1076 31.4631C56.6957 31.0133 56.1299 30.7884 55.4102 30.7884C54.9177 30.7884 54.4798 30.8949 54.0962 31.108C53.7174 31.321 53.4168 31.6335 53.1942 32.0455C52.9764 32.4527 52.8675 32.9451 52.8675 33.5227ZM65.8718 40.2415C65.1805 40.2415 64.5555 40.1136 63.9968 39.858C63.4381 39.5975 62.9954 39.2211 62.6687 38.7287C62.3467 38.2363 62.1857 37.6326 62.1857 36.9176C62.1857 36.3021 62.3041 35.7955 62.5408 35.3977C62.7776 35 63.0972 34.6851 63.4996 34.4531C63.9021 34.2211 64.3519 34.0459 64.8491 33.9276C65.3462 33.8092 65.8529 33.7192 66.369 33.6577C67.0224 33.5819 67.5527 33.5204 67.9599 33.473C68.3671 33.4209 68.663 33.3381 68.8477 33.2244C69.0323 33.1108 69.1246 32.9261 69.1246 32.6705V32.6207C69.1246 32.0005 68.9495 31.5199 68.5991 31.179C68.2534 30.8381 67.7373 30.6676 67.0508 30.6676C66.3358 30.6676 65.7724 30.8262 65.3604 31.1435C64.9532 31.456 64.6715 31.804 64.5153 32.1875L62.5195 31.733C62.7563 31.0701 63.1019 30.535 63.5565 30.1278C64.0157 29.7159 64.5437 29.4176 65.1403 29.233C65.7369 29.0436 66.3642 28.9489 67.0224 28.9489C67.458 28.9489 67.9196 29.0009 68.4073 29.1051C68.8997 29.2045 69.359 29.3892 69.7852 29.6591C70.216 29.929 70.5688 30.3149 70.8434 30.8168C71.118 31.3139 71.2553 31.9602 71.2553 32.7557V40H69.1815V38.5085H69.0962C68.9589 38.7831 68.753 39.053 68.4783 39.3182C68.2037 39.5833 67.851 39.8035 67.4201 39.9787C66.9892 40.1539 66.4731 40.2415 65.8718 40.2415ZM66.3335 38.5369C66.9206 38.5369 67.4225 38.4209 67.8391 38.1889C68.2605 37.9569 68.5801 37.6539 68.7979 37.2798C69.0205 36.901 69.1317 36.4962 69.1317 36.0653V34.6591C69.056 34.7348 68.9092 34.8059 68.6914 34.8722C68.4783 34.9337 68.2345 34.9882 67.9599 35.0355C67.6853 35.0781 67.4177 35.1184 67.1573 35.1562C66.8969 35.1894 66.6791 35.2178 66.5039 35.2415C66.092 35.2936 65.7156 35.3812 65.3746 35.5043C65.0385 35.6274 64.7686 35.8049 64.565 36.0369C64.3661 36.2642 64.2667 36.5672 64.2667 36.946C64.2667 37.4716 64.4608 37.8693 64.8491 38.1392C65.2373 38.4044 65.7321 38.5369 66.3335 38.5369ZM79.1761 29.0909V30.7955H73.2173V29.0909H79.1761ZM74.8153 26.4773H76.9389V36.7969C76.9389 37.2088 77.0005 37.5189 77.1236 37.7273C77.2467 37.9309 77.4053 38.0705 77.5994 38.1463C77.7983 38.2173 78.0137 38.2528 78.2457 38.2528C78.4162 38.2528 78.5653 38.241 78.6932 38.2173C78.821 38.1937 78.9205 38.1747 78.9915 38.1605L79.375 39.9148C79.2519 39.9621 79.0767 40.0095 78.8494 40.0568C78.6222 40.1089 78.3381 40.1373 77.9972 40.142C77.4384 40.1515 76.9176 40.0521 76.4347 39.8438C75.9517 39.6354 75.5611 39.3134 75.2628 38.8778C74.9645 38.4422 74.8153 37.8954 74.8153 37.2372V26.4773ZM81.5252 40V29.0909H83.6488V40H81.5252ZM82.5977 27.4077C82.2283 27.4077 81.9111 27.2846 81.646 27.0384C81.3855 26.7874 81.2553 26.4891 81.2553 26.1435C81.2553 25.7931 81.3855 25.4948 81.646 25.2486C81.9111 24.9976 82.2283 24.8722 82.5977 24.8722C82.967 24.8722 83.2818 24.9976 83.5423 25.2486C83.8074 25.4948 83.94 25.7931 83.94 26.1435C83.94 26.4891 83.8074 26.7874 83.5423 27.0384C83.2818 27.2846 82.967 27.4077 82.5977 27.4077ZM91.1009 40.2202C90.0781 40.2202 89.1856 39.9858 88.4233 39.517C87.661 39.0483 87.0691 38.3925 86.6477 37.5497C86.2263 36.7069 86.0156 35.7221 86.0156 34.5952C86.0156 33.4635 86.2263 32.474 86.6477 31.6264C87.0691 30.7789 87.661 30.1207 88.4233 29.652C89.1856 29.1832 90.0781 28.9489 91.1009 28.9489C92.1236 28.9489 93.0161 29.1832 93.7784 29.652C94.5407 30.1207 95.1326 30.7789 95.554 31.6264C95.9754 32.474 96.1861 33.4635 96.1861 34.5952C96.1861 35.7221 95.9754 36.7069 95.554 37.5497C95.1326 38.3925 94.5407 39.0483 93.7784 39.517C93.0161 39.9858 92.1236 40.2202 91.1009 40.2202ZM91.108 38.4375C91.7708 38.4375 92.3201 38.2623 92.7557 37.9119C93.1913 37.5616 93.5133 37.0952 93.7216 36.5128C93.9347 35.9304 94.0412 35.2888 94.0412 34.5881C94.0412 33.892 93.9347 33.2528 93.7216 32.6705C93.5133 32.0833 93.1913 31.6122 92.7557 31.2571C92.3201 30.902 91.7708 30.7244 91.108 30.7244C90.4403 30.7244 89.8864 30.902 89.446 31.2571C89.0104 31.6122 88.6861 32.0833 88.473 32.6705C88.2647 33.2528 88.1605 33.892 88.1605 34.5881C88.1605 35.2888 88.2647 35.9304 88.473 36.5128C88.6861 37.0952 89.0104 37.5616 89.446 37.9119C89.8864 38.2623 90.4403 38.4375 91.108 38.4375ZM100.68 33.5227V40H98.5565V29.0909H100.595V30.8665H100.73C100.981 30.2888 101.374 29.8248 101.909 29.4744C102.449 29.1241 103.128 28.9489 103.947 28.9489C104.69 28.9489 105.342 29.1051 105.9 29.4176C106.459 29.7254 106.892 30.1847 107.2 30.7955C107.508 31.4062 107.662 32.1615 107.662 33.0611V40H105.538V33.3168C105.538 32.526 105.332 31.9081 104.92 31.4631C104.508 31.0133 103.942 30.7884 103.223 30.7884C102.73 30.7884 102.292 30.8949 101.909 31.108C101.53 31.321 101.229 31.6335 101.007 32.0455C100.789 32.4527 100.68 32.9451 100.68 33.5227ZM111.909 40.1349C111.52 40.1349 111.187 39.9976 110.907 39.723C110.628 39.4437 110.488 39.1075 110.488 38.7145C110.488 38.3262 110.628 37.9948 110.907 37.7202C111.187 37.4408 111.52 37.3011 111.909 37.3011C112.297 37.3011 112.631 37.4408 112.91 37.7202C113.19 37.9948 113.329 38.3262 113.329 38.7145C113.329 38.9749 113.263 39.214 113.13 39.4318C113.002 39.6449 112.832 39.8153 112.619 39.9432C112.406 40.071 112.169 40.1349 111.909 40.1349ZM111.909 32.1946C111.52 32.1946 111.187 32.0549 110.907 31.7756C110.628 31.4962 110.488 31.1624 110.488 30.7741C110.488 30.3859 110.628 30.0545 110.907 29.7798C111.187 29.5005 111.52 29.3608 111.909 29.3608C112.297 29.3608 112.631 29.5005 112.91 29.7798C113.19 30.0545 113.329 30.3859 113.329 30.7741C113.329 31.0346 113.263 31.2737 113.13 31.4915C113.002 31.7045 112.832 31.875 112.619 32.0028C112.406 32.1307 112.169 32.1946 111.909 32.1946ZM144.038 40H141.708L146.942 25.4545H149.478L154.712 40H152.383L148.271 28.0966H148.157L144.038 40ZM144.428 34.304H151.985V36.1506H144.428V34.304ZM209.743 40V25.4545H215.069C216.101 25.4545 216.956 25.625 217.633 25.9659C218.31 26.3021 218.817 26.759 219.153 27.3366C219.489 27.9096 219.657 28.5559 219.657 29.2756C219.657 29.8816 219.546 30.393 219.324 30.8097C219.101 31.2216 218.803 31.553 218.429 31.804C218.059 32.0502 217.652 32.2301 217.207 32.3438V32.4858C217.69 32.5095 218.161 32.6657 218.62 32.9545C219.084 33.2386 219.468 33.6435 219.771 34.169C220.074 34.6946 220.225 35.3338 220.225 36.0866C220.225 36.83 220.05 37.4976 219.7 38.0895C219.354 38.6766 218.819 39.143 218.095 39.4886C217.37 39.8295 216.445 40 215.318 40H209.743ZM211.937 38.1179H215.105C216.156 38.1179 216.909 37.9143 217.363 37.5071C217.818 37.0999 218.045 36.5909 218.045 35.9801C218.045 35.5208 217.929 35.0994 217.697 34.7159C217.465 34.3324 217.134 34.027 216.703 33.7997C216.277 33.5724 215.77 33.4588 215.183 33.4588H211.937V38.1179ZM211.937 31.7472H214.877C215.37 31.7472 215.813 31.6525 216.206 31.4631C216.603 31.2737 216.918 31.0085 217.15 30.6676C217.387 30.322 217.505 29.9148 217.505 29.446C217.505 28.8447 217.295 28.3404 216.873 27.9332C216.452 27.526 215.806 27.3224 214.934 27.3224H211.937V31.7472Z" fill="#375666"/>
<path d="M164 31C173.404 31 182.762 32 192.151 32C194.44 32 196.763 31.6667 199 31.6667" stroke="#EE964B" stroke-width="3" stroke-linecap="round"/>
<path d="M190 24C193.401 24.5356 197.884 27.2687 200.281 29.6667C203.511 32.8974 194.893 38.2298 193.427 41" stroke="#EE964B" stroke-width="3" stroke-linecap="round"/>
<path d="M9.53125 101.276C9.45549 100.603 9.14299 100.082 8.59375 99.7131C8.04451 99.339 7.35322 99.152 6.51989 99.152C5.9233 99.152 5.4072 99.2467 4.97159 99.4361C4.53598 99.6207 4.19744 99.8764 3.95597 100.203C3.71922 100.525 3.60085 100.892 3.60085 101.304C3.60085 101.65 3.68134 101.948 3.84233 102.199C4.00805 102.45 4.22349 102.661 4.48864 102.831C4.75852 102.997 5.04735 103.136 5.35511 103.25C5.66288 103.359 5.95881 103.449 6.2429 103.52L7.66335 103.889C8.12737 104.003 8.60322 104.157 9.09091 104.351C9.5786 104.545 10.0308 104.801 10.4474 105.118C10.8641 105.435 11.2003 105.828 11.456 106.297C11.7164 106.766 11.8466 107.327 11.8466 107.98C11.8466 108.804 11.6335 109.536 11.2074 110.175C10.786 110.814 10.1728 111.318 9.3679 111.688C8.56771 112.057 7.59943 112.241 6.46307 112.241C5.37405 112.241 4.43182 112.069 3.63636 111.723C2.84091 111.377 2.21828 110.887 1.76847 110.253C1.31866 109.614 1.07008 108.856 1.02273 107.98H3.22443C3.26705 108.506 3.4375 108.944 3.7358 109.294C4.03883 109.64 4.42472 109.898 4.89347 110.068C5.36695 110.234 5.88542 110.317 6.44886 110.317C7.06913 110.317 7.62074 110.22 8.10369 110.026C8.59138 109.827 8.97491 109.552 9.25426 109.202C9.53362 108.847 9.6733 108.432 9.6733 107.959C9.6733 107.528 9.55019 107.175 9.30398 106.901C9.0625 106.626 8.73343 106.399 8.31676 106.219C7.90483 106.039 7.43845 105.88 6.91761 105.743L5.19886 105.274C4.03409 104.957 3.1108 104.491 2.42898 103.875C1.75189 103.259 1.41335 102.445 1.41335 101.432C1.41335 100.594 1.64063 99.8622 2.09517 99.2372C2.54972 98.6122 3.16525 98.1269 3.94176 97.7812C4.71828 97.4309 5.59422 97.2557 6.5696 97.2557C7.55445 97.2557 8.4233 97.4285 9.17614 97.7741C9.93371 98.1198 10.5303 98.5956 10.9659 99.2017C11.4015 99.803 11.6288 100.494 11.6477 101.276H9.53125ZM14.2987 116.091V101.091H16.3725V102.859H16.5501C16.6732 102.632 16.8507 102.369 17.0827 102.071C17.3147 101.773 17.6367 101.512 18.0487 101.29C18.4606 101.062 19.0051 100.949 19.6822 100.949C20.5629 100.949 21.3488 101.171 22.0401 101.616C22.7314 102.062 23.2736 102.703 23.6665 103.541C24.0643 104.379 24.2631 105.388 24.2631 106.567C24.2631 107.746 24.0666 108.757 23.6737 109.599C23.2807 110.437 22.7409 111.084 22.0543 111.538C21.3678 111.988 20.5842 112.213 19.7035 112.213C19.0406 112.213 18.4985 112.102 18.0771 111.879C17.6604 111.657 17.3337 111.396 17.0969 111.098C16.8602 110.8 16.6779 110.535 16.5501 110.303H16.4222V116.091H14.2987ZM16.3796 106.545C16.3796 107.312 16.4909 107.985 16.7134 108.562C16.936 109.14 17.2579 109.592 17.6793 109.919C18.1007 110.241 18.6168 110.402 19.2276 110.402C19.8621 110.402 20.3924 110.234 20.8185 109.898C21.2447 109.557 21.5666 109.095 21.7844 108.513C22.007 107.93 22.1183 107.275 22.1183 106.545C22.1183 105.826 22.0094 105.179 21.7915 104.607C21.5785 104.034 21.2565 103.581 20.8256 103.25C20.3995 102.919 19.8668 102.753 19.2276 102.753C18.6121 102.753 18.0913 102.911 17.6651 103.229C17.2437 103.546 16.9241 103.989 16.7063 104.557C16.4885 105.125 16.3796 105.788 16.3796 106.545ZM31.3441 112.22C30.2693 112.22 29.3436 111.991 28.5671 111.531C27.7953 111.067 27.1987 110.416 26.7773 109.578C26.3607 108.735 26.1523 107.748 26.1523 106.616C26.1523 105.499 26.3607 104.514 26.7773 103.662C27.1987 102.81 27.7859 102.144 28.5387 101.666C29.2963 101.188 30.1817 100.949 31.195 100.949C31.8105 100.949 32.4071 101.051 32.9847 101.254C33.5624 101.458 34.0808 101.777 34.5401 102.213C34.9994 102.649 35.3616 103.214 35.6268 103.911C35.8919 104.602 36.0245 105.442 36.0245 106.432V107.185H27.3526V105.594H33.9435C33.9435 105.035 33.8299 104.54 33.6026 104.109C33.3754 103.674 33.0558 103.33 32.6438 103.08C32.2366 102.829 31.7584 102.703 31.2092 102.703C30.6126 102.703 30.0917 102.85 29.6467 103.143C29.2063 103.432 28.8654 103.811 28.6239 104.28C28.3872 104.744 28.2688 105.248 28.2688 105.793V107.036C28.2688 107.765 28.3967 108.385 28.6523 108.896C28.9128 109.408 29.275 109.798 29.739 110.068C30.203 110.333 30.7451 110.466 31.3654 110.466C31.7679 110.466 32.1348 110.409 32.4663 110.295C32.7977 110.177 33.0842 110.002 33.3256 109.77C33.5671 109.538 33.7518 109.251 33.8796 108.911L35.8896 109.273C35.7286 109.865 35.4397 110.383 35.0231 110.828C34.6112 111.268 34.0927 111.612 33.4677 111.858C32.8474 112.099 32.1396 112.22 31.3441 112.22ZM40.5043 105.523V112H38.3807V101.091H40.419V102.866H40.554C40.8049 102.289 41.1979 101.825 41.733 101.474C42.2727 101.124 42.9522 100.949 43.7713 100.949C44.5147 100.949 45.1657 101.105 45.7244 101.418C46.2831 101.725 46.7164 102.185 47.0241 102.795C47.3319 103.406 47.4858 104.161 47.4858 105.061V112H45.3622V105.317C45.3622 104.526 45.1563 103.908 44.7443 103.463C44.3324 103.013 43.7666 102.788 43.0469 102.788C42.5545 102.788 42.1165 102.895 41.733 103.108C41.3542 103.321 41.0535 103.634 40.831 104.045C40.6132 104.453 40.5043 104.945 40.5043 105.523ZM54.4176 112.213C53.5369 112.213 52.7509 111.988 52.0597 111.538C51.3731 111.084 50.8333 110.437 50.4403 109.599C50.0521 108.757 49.858 107.746 49.858 106.567C49.858 105.388 50.0545 104.379 50.4474 103.541C50.8452 102.703 51.3897 102.062 52.081 101.616C52.7723 101.171 53.5559 100.949 54.4318 100.949C55.1089 100.949 55.6534 101.062 56.0653 101.29C56.482 101.512 56.804 101.773 57.0312 102.071C57.2633 102.369 57.4432 102.632 57.571 102.859H57.6989V97.4545H59.8224V112H57.7486V110.303H57.571C57.4432 110.535 57.2585 110.8 57.017 111.098C56.7803 111.396 56.4536 111.657 56.0369 111.879C55.6203 112.102 55.0805 112.213 54.4176 112.213ZM54.8864 110.402C55.4972 110.402 56.0133 110.241 56.4347 109.919C56.8608 109.592 57.1828 109.14 57.4006 108.562C57.6231 107.985 57.7344 107.312 57.7344 106.545C57.7344 105.788 57.6255 105.125 57.4077 104.557C57.1899 103.989 56.8703 103.546 56.4489 103.229C56.0275 102.911 55.5066 102.753 54.8864 102.753C54.2472 102.753 53.7145 102.919 53.2884 103.25C52.8622 103.581 52.5402 104.034 52.3224 104.607C52.1094 105.179 52.0028 105.826 52.0028 106.545C52.0028 107.275 52.1117 107.93 52.3295 108.513C52.5473 109.095 52.8693 109.557 53.2955 109.898C53.7263 110.234 54.2566 110.402 54.8864 110.402ZM62.8533 112V101.091H64.9769V112H62.8533ZM63.9258 99.4077C63.5565 99.4077 63.2392 99.2846 62.9741 99.0384C62.7137 98.7874 62.5835 98.4891 62.5835 98.1435C62.5835 97.7931 62.7137 97.4948 62.9741 97.2486C63.2392 96.9976 63.5565 96.8722 63.9258 96.8722C64.2951 96.8722 64.61 96.9976 64.8704 97.2486C65.1355 97.4948 65.2681 97.7931 65.2681 98.1435C65.2681 98.4891 65.1355 98.7874 64.8704 99.0384C64.61 99.2846 64.2951 99.4077 63.9258 99.4077ZM69.9574 105.523V112H67.8338V101.091H69.8722V102.866H70.0071C70.258 102.289 70.651 101.825 71.1861 101.474C71.7259 101.124 72.4053 100.949 73.2244 100.949C73.9678 100.949 74.6188 101.105 75.1776 101.418C75.7363 101.725 76.1695 102.185 76.4773 102.795C76.785 103.406 76.9389 104.161 76.9389 105.061V112H74.8153V105.317C74.8153 104.526 74.6094 103.908 74.1974 103.463C73.7855 103.013 73.2197 102.788 72.5 102.788C72.0076 102.788 71.5696 102.895 71.1861 103.108C70.8073 103.321 70.5066 103.634 70.2841 104.045C70.0663 104.453 69.9574 104.945 69.9574 105.523ZM84.3608 116.318C83.4943 116.318 82.7486 116.205 82.1236 115.977C81.5033 115.75 80.9967 115.449 80.6037 115.075C80.2107 114.701 79.9171 114.292 79.723 113.847L81.5483 113.094C81.6761 113.302 81.8466 113.522 82.0597 113.754C82.2775 113.991 82.571 114.192 82.9403 114.358C83.3144 114.524 83.795 114.607 84.3821 114.607C85.187 114.607 85.8523 114.41 86.3778 114.017C86.9034 113.629 87.1662 113.009 87.1662 112.156V110.011H87.0312C86.9034 110.243 86.7188 110.501 86.4773 110.786C86.2405 111.07 85.9138 111.316 85.4972 111.524C85.0805 111.732 84.5384 111.837 83.8707 111.837C83.009 111.837 82.2325 111.635 81.5412 111.233C80.8546 110.826 80.3101 110.227 79.9077 109.436C79.5099 108.641 79.3111 107.663 79.3111 106.503C79.3111 105.343 79.5076 104.348 79.9006 103.52C80.2983 102.691 80.8428 102.057 81.5341 101.616C82.2254 101.171 83.009 100.949 83.8849 100.949C84.562 100.949 85.1089 101.062 85.5256 101.29C85.9422 101.512 86.2666 101.773 86.4986 102.071C86.7353 102.369 86.9176 102.632 87.0455 102.859H87.2017V101.091H89.2827V112.241C89.2827 113.179 89.0649 113.948 88.6293 114.55C88.1937 115.151 87.6042 115.596 86.8608 115.885C86.1222 116.174 85.2888 116.318 84.3608 116.318ZM84.3395 110.075C84.9503 110.075 85.4664 109.933 85.8878 109.649C86.3139 109.36 86.6359 108.948 86.8537 108.413C87.0762 107.874 87.1875 107.227 87.1875 106.474C87.1875 105.741 87.0786 105.094 86.8608 104.536C86.643 103.977 86.3234 103.541 85.902 103.229C85.4806 102.911 84.9598 102.753 84.3395 102.753C83.7003 102.753 83.1676 102.919 82.7415 103.25C82.3153 103.577 81.9934 104.022 81.7756 104.585C81.5625 105.149 81.456 105.778 81.456 106.474C81.456 107.189 81.5649 107.817 81.7827 108.357C82.0005 108.896 82.3224 109.318 82.7486 109.621C83.1795 109.924 83.7098 110.075 84.3395 110.075ZM97.5941 97.4545H100.257L104.888 108.761H105.059L109.689 97.4545H112.353V112H110.265V101.474H110.13L105.84 111.979H104.107L99.8171 101.467H99.6822V112H97.5941V97.4545ZM120.075 112.22C119 112.22 118.074 111.991 117.298 111.531C116.526 111.067 115.929 110.416 115.508 109.578C115.091 108.735 114.883 107.748 114.883 106.616C114.883 105.499 115.091 104.514 115.508 103.662C115.929 102.81 116.516 102.144 117.269 101.666C118.027 101.188 118.912 100.949 119.925 100.949C120.541 100.949 121.138 101.051 121.715 101.254C122.293 101.458 122.811 101.777 123.271 102.213C123.73 102.649 124.092 103.214 124.357 103.911C124.622 104.602 124.755 105.442 124.755 106.432V107.185H116.083V105.594H122.674C122.674 105.035 122.56 104.54 122.333 104.109C122.106 103.674 121.786 103.33 121.374 103.08C120.967 102.829 120.489 102.703 119.94 102.703C119.343 102.703 118.822 102.85 118.377 103.143C117.937 103.432 117.596 103.811 117.354 104.28C117.118 104.744 116.999 105.248 116.999 105.793V107.036C116.999 107.765 117.127 108.385 117.383 108.896C117.643 109.408 118.005 109.798 118.469 110.068C118.933 110.333 119.476 110.466 120.096 110.466C120.498 110.466 120.865 110.409 121.197 110.295C121.528 110.177 121.815 110.002 122.056 109.77C122.298 109.538 122.482 109.251 122.61 108.911L124.62 109.273C124.459 109.865 124.17 110.383 123.754 110.828C123.342 111.268 122.823 111.612 122.198 111.858C121.578 112.099 120.87 112.22 120.075 112.22ZM130.286 112.241C129.595 112.241 128.97 112.114 128.411 111.858C127.852 111.598 127.409 111.221 127.083 110.729C126.761 110.236 126.6 109.633 126.6 108.918C126.6 108.302 126.718 107.795 126.955 107.398C127.192 107 127.511 106.685 127.914 106.453C128.316 106.221 128.766 106.046 129.263 105.928C129.76 105.809 130.267 105.719 130.783 105.658C131.436 105.582 131.967 105.52 132.374 105.473C132.781 105.421 133.077 105.338 133.262 105.224C133.446 105.111 133.539 104.926 133.539 104.67V104.621C133.539 104 133.364 103.52 133.013 103.179C132.667 102.838 132.151 102.668 131.465 102.668C130.75 102.668 130.186 102.826 129.775 103.143C129.367 103.456 129.086 103.804 128.929 104.188L126.934 103.733C127.17 103.07 127.516 102.535 127.971 102.128C128.43 101.716 128.958 101.418 129.554 101.233C130.151 101.044 130.778 100.949 131.436 100.949C131.872 100.949 132.334 101.001 132.821 101.105C133.314 101.205 133.773 101.389 134.199 101.659C134.63 101.929 134.983 102.315 135.257 102.817C135.532 103.314 135.669 103.96 135.669 104.756V112H133.596V110.509H133.51C133.373 110.783 133.167 111.053 132.892 111.318C132.618 111.583 132.265 111.804 131.834 111.979C131.403 112.154 130.887 112.241 130.286 112.241ZM130.748 110.537C131.335 110.537 131.837 110.421 132.253 110.189C132.675 109.957 132.994 109.654 133.212 109.28C133.435 108.901 133.546 108.496 133.546 108.065V106.659C133.47 106.735 133.323 106.806 133.105 106.872C132.892 106.934 132.649 106.988 132.374 107.036C132.099 107.078 131.832 107.118 131.571 107.156C131.311 107.189 131.093 107.218 130.918 107.241C130.506 107.294 130.13 107.381 129.789 107.504C129.453 107.627 129.183 107.805 128.979 108.037C128.78 108.264 128.681 108.567 128.681 108.946C128.681 109.472 128.875 109.869 129.263 110.139C129.651 110.404 130.146 110.537 130.748 110.537ZM140.621 105.523V112H138.498V101.091H140.536V102.866H140.671C140.922 102.289 141.315 101.825 141.85 101.474C142.39 101.124 143.069 100.949 143.888 100.949C144.632 100.949 145.283 101.105 145.842 101.418C146.4 101.725 146.834 102.185 147.141 102.795C147.449 103.406 147.603 104.161 147.603 105.061V112H145.479V105.317C145.479 104.526 145.273 103.908 144.862 103.463C144.45 103.013 143.884 102.788 143.164 102.788C142.672 102.788 142.234 102.895 141.85 103.108C141.471 103.321 141.171 103.634 140.948 104.045C140.73 104.453 140.621 104.945 140.621 105.523ZM150.451 112V101.091H152.575V112H150.451ZM151.523 99.4077C151.154 99.4077 150.837 99.2846 150.572 99.0384C150.311 98.7874 150.181 98.4891 150.181 98.1435C150.181 97.7931 150.311 97.4948 150.572 97.2486C150.837 96.9976 151.154 96.8722 151.523 96.8722C151.893 96.8722 152.208 96.9976 152.468 97.2486C152.733 97.4948 152.866 97.7931 152.866 98.1435C152.866 98.4891 152.733 98.7874 152.468 99.0384C152.208 99.2846 151.893 99.4077 151.523 99.4077ZM157.555 105.523V112H155.431V101.091H157.47V102.866H157.605C157.856 102.289 158.249 101.825 158.784 101.474C159.324 101.124 160.003 100.949 160.822 100.949C161.565 100.949 162.217 101.105 162.775 101.418C163.334 101.725 163.767 102.185 164.075 102.795C164.383 103.406 164.537 104.161 164.537 105.061V112H162.413V105.317C162.413 104.526 162.207 103.908 161.795 103.463C161.383 103.013 160.817 102.788 160.098 102.788C159.605 102.788 159.167 102.895 158.784 103.108C158.405 103.321 158.104 103.634 157.882 104.045C157.664 104.453 157.555 104.945 157.555 105.523ZM171.958 116.318C171.092 116.318 170.346 116.205 169.721 115.977C169.101 115.75 168.594 115.449 168.201 115.075C167.808 114.701 167.515 114.292 167.321 113.847L169.146 113.094C169.274 113.302 169.444 113.522 169.657 113.754C169.875 113.991 170.169 114.192 170.538 114.358C170.912 114.524 171.393 114.607 171.98 114.607C172.785 114.607 173.45 114.41 173.975 114.017C174.501 113.629 174.764 113.009 174.764 112.156V110.011H174.629C174.501 110.243 174.316 110.501 174.075 110.786C173.838 111.07 173.511 111.316 173.095 111.524C172.678 111.732 172.136 111.837 171.468 111.837C170.607 111.837 169.83 111.635 169.139 111.233C168.452 110.826 167.908 110.227 167.505 109.436C167.108 108.641 166.909 107.663 166.909 106.503C166.909 105.343 167.105 104.348 167.498 103.52C167.896 102.691 168.44 102.057 169.132 101.616C169.823 101.171 170.607 100.949 171.483 100.949C172.16 100.949 172.707 101.062 173.123 101.29C173.54 101.512 173.864 101.773 174.096 102.071C174.333 102.369 174.515 102.632 174.643 102.859H174.799V101.091H176.88V112.241C176.88 113.179 176.663 113.948 176.227 114.55C175.791 115.151 175.202 115.596 174.458 115.885C173.72 116.174 172.886 116.318 171.958 116.318ZM171.937 110.075C172.548 110.075 173.064 109.933 173.485 109.649C173.912 109.36 174.234 108.948 174.451 108.413C174.674 107.874 174.785 107.227 174.785 106.474C174.785 105.741 174.676 105.094 174.458 104.536C174.241 103.977 173.921 103.541 173.5 103.229C173.078 102.911 172.557 102.753 171.937 102.753C171.298 102.753 170.765 102.919 170.339 103.25C169.913 103.577 169.591 104.022 169.373 104.585C169.16 105.149 169.054 105.778 169.054 106.474C169.054 107.189 169.163 107.817 169.38 108.357C169.598 108.896 169.92 109.318 170.346 109.621C170.777 109.924 171.307 110.075 171.937 110.075ZM184.92 101.091V102.795H178.755V101.091H184.92ZM180.446 112V99.8267C180.446 99.1449 180.595 98.5791 180.893 98.1293C181.191 97.6747 181.587 97.3362 182.079 97.1136C182.572 96.8864 183.107 96.7727 183.684 96.7727C184.11 96.7727 184.475 96.8082 184.778 96.8793C185.081 96.9455 185.306 97.0071 185.453 97.0639L184.956 98.7827C184.856 98.7543 184.728 98.7211 184.572 98.6832C184.416 98.6406 184.226 98.6193 184.004 98.6193C183.488 98.6193 183.118 98.7472 182.896 99.0028C182.678 99.2585 182.569 99.6278 182.569 100.111V112H180.446ZM194.022 107.476V101.091H196.152V112H194.064V110.111H193.951C193.7 110.693 193.297 111.179 192.743 111.567C192.194 111.95 191.51 112.142 190.691 112.142C189.99 112.142 189.37 111.988 188.83 111.68C188.295 111.368 187.873 110.906 187.566 110.295C187.263 109.685 187.111 108.929 187.111 108.03V101.091H189.235V107.774C189.235 108.518 189.441 109.109 189.853 109.55C190.265 109.99 190.8 110.21 191.458 110.21C191.855 110.21 192.251 110.111 192.644 109.912C193.042 109.713 193.371 109.412 193.631 109.01C193.896 108.607 194.026 108.096 194.022 107.476ZM201.129 97.4545V112H199.006V97.4545H201.129ZM208.732 99.3438V97.4545H219.989V99.3438H215.451V112H213.263V99.3438H208.732ZM222.306 112V101.091H224.43V112H222.306ZM223.379 99.4077C223.01 99.4077 222.692 99.2846 222.427 99.0384C222.167 98.7874 222.037 98.4891 222.037 98.1435C222.037 97.7931 222.167 97.4948 222.427 97.2486C222.692 96.9976 223.01 96.8722 223.379 96.8722C223.748 96.8722 224.063 96.9976 224.324 97.2486C224.589 97.4948 224.721 97.7931 224.721 98.1435C224.721 98.4891 224.589 98.7874 224.324 99.0384C224.063 99.2846 223.748 99.4077 223.379 99.4077ZM227.287 112V101.091H229.325V102.866H229.46C229.688 102.265 230.059 101.796 230.575 101.46C231.091 101.119 231.709 100.949 232.429 100.949C233.158 100.949 233.769 101.119 234.261 101.46C234.759 101.801 235.125 102.27 235.362 102.866H235.476C235.736 102.284 236.151 101.82 236.719 101.474C237.287 101.124 237.964 100.949 238.75 100.949C239.74 100.949 240.547 101.259 241.172 101.879C241.802 102.5 242.116 103.435 242.116 104.685V112H239.993V104.884C239.993 104.145 239.792 103.61 239.389 103.278C238.987 102.947 238.506 102.781 237.947 102.781C237.256 102.781 236.719 102.994 236.335 103.42C235.952 103.842 235.76 104.384 235.76 105.047V112H233.643V104.749C233.643 104.157 233.459 103.681 233.089 103.321C232.72 102.961 232.24 102.781 231.648 102.781C231.245 102.781 230.874 102.888 230.533 103.101C230.196 103.309 229.924 103.6 229.716 103.974C229.512 104.348 229.411 104.782 229.411 105.274V112H227.287ZM249.664 112.22C248.59 112.22 247.664 111.991 246.887 111.531C246.116 111.067 245.519 110.416 245.098 109.578C244.681 108.735 244.473 107.748 244.473 106.616C244.473 105.499 244.681 104.514 245.098 103.662C245.519 102.81 246.106 102.144 246.859 101.666C247.617 101.188 248.502 100.949 249.515 100.949C250.131 100.949 250.727 101.051 251.305 101.254C251.883 101.458 252.401 101.777 252.86 102.213C253.32 102.649 253.682 103.214 253.947 103.911C254.212 104.602 254.345 105.442 254.345 106.432V107.185H245.673V105.594H252.264C252.264 105.035 252.15 104.54 251.923 104.109C251.696 103.674 251.376 103.33 250.964 103.08C250.557 102.829 250.079 102.703 249.529 102.703C248.933 102.703 248.412 102.85 247.967 103.143C247.527 103.432 247.186 103.811 246.944 104.28C246.708 104.744 246.589 105.248 246.589 105.793V107.036C246.589 107.765 246.717 108.385 246.973 108.896C247.233 109.408 247.595 109.798 248.059 110.068C248.523 110.333 249.065 110.466 249.686 110.466C250.088 110.466 250.455 110.409 250.787 110.295C251.118 110.177 251.404 110.002 251.646 109.77C251.887 109.538 252.072 109.251 252.2 108.911L254.21 109.273C254.049 109.865 253.76 110.383 253.343 110.828C252.931 111.268 252.413 111.612 251.788 111.858C251.168 112.099 250.46 112.22 249.664 112.22ZM258.1 112.135C257.712 112.135 257.378 111.998 257.099 111.723C256.819 111.444 256.68 111.107 256.68 110.714C256.68 110.326 256.819 109.995 257.099 109.72C257.378 109.441 257.712 109.301 258.1 109.301C258.488 109.301 258.822 109.441 259.102 109.72C259.381 109.995 259.521 110.326 259.521 110.714C259.521 110.975 259.454 111.214 259.322 111.432C259.194 111.645 259.023 111.815 258.81 111.943C258.597 112.071 258.361 112.135 258.1 112.135ZM258.1 104.195C257.712 104.195 257.378 104.055 257.099 103.776C256.819 103.496 256.68 103.162 256.68 102.774C256.68 102.386 256.819 102.054 257.099 101.78C257.378 101.5 257.712 101.361 258.1 101.361C258.488 101.361 258.822 101.5 259.102 101.78C259.381 102.054 259.521 102.386 259.521 102.774C259.521 103.035 259.454 103.274 259.322 103.491C259.194 103.705 259.023 103.875 258.81 104.003C258.597 104.131 258.361 104.195 258.1 104.195ZM295.522 112H293.192L298.427 97.4545H300.962L306.197 112H303.867L299.755 100.097H299.641L295.522 112ZM295.913 106.304H303.469V108.151H295.913V106.304ZM451.207 112V97.4545H456.534C457.566 97.4545 458.421 97.625 459.098 97.9659C459.775 98.3021 460.282 98.759 460.618 99.3366C460.954 99.9096 461.122 100.556 461.122 101.276C461.122 101.882 461.011 102.393 460.788 102.81C460.566 103.222 460.268 103.553 459.893 103.804C459.524 104.05 459.117 104.23 458.672 104.344V104.486C459.155 104.509 459.626 104.666 460.085 104.955C460.549 105.239 460.933 105.643 461.236 106.169C461.539 106.695 461.69 107.334 461.69 108.087C461.69 108.83 461.515 109.498 461.165 110.089C460.819 110.677 460.284 111.143 459.56 111.489C458.835 111.83 457.91 112 456.783 112H451.207ZM453.402 110.118H456.57C457.621 110.118 458.374 109.914 458.828 109.507C459.283 109.1 459.51 108.591 459.51 107.98C459.51 107.521 459.394 107.099 459.162 106.716C458.93 106.332 458.598 106.027 458.168 105.8C457.741 105.572 457.235 105.459 456.648 105.459H453.402V110.118ZM453.402 103.747H456.342C456.835 103.747 457.277 103.652 457.67 103.463C458.068 103.274 458.383 103.009 458.615 102.668C458.852 102.322 458.97 101.915 458.97 101.446C458.97 100.845 458.759 100.34 458.338 99.9332C457.917 99.526 457.27 99.3224 456.399 99.3224H453.402V103.747Z" fill="#375666"/>
<path d="M9.82386 9.90909C9.82386 10.983 9.62997 11.911 9.24219 12.6932C8.8544 13.4754 8.32244 14.0786 7.64631 14.5028C6.97017 14.9271 6.19792 15.1392 5.32955 15.1392C4.46117 15.1392 3.68892 14.9271 3.01278 14.5028C2.33665 14.0786 1.80469 13.4754 1.4169 12.6932C1.02912 11.911 0.835227 10.983 0.835227 9.90909C0.835227 8.83523 1.02912 7.9072 1.4169 7.125C1.80469 6.3428 2.33665 5.73958 3.01278 5.31534C3.68892 4.8911 4.46117 4.67898 5.32955 4.67898C6.19792 4.67898 6.97017 4.8911 7.64631 5.31534C8.32244 5.73958 8.8544 6.3428 9.24219 7.125C9.62997 7.9072 9.82386 8.83523 9.82386 9.90909ZM8.63068 9.90909C8.63068 9.02746 8.48319 8.28338 8.18821 7.67685C7.89654 7.07031 7.50047 6.61127 7 6.29972C6.50284 5.98816 5.94602 5.83239 5.32955 5.83239C4.71307 5.83239 4.15459 5.98816 3.65412 6.29972C3.15696 6.61127 2.76089 7.07031 2.46591 7.67685C2.17424 8.28338 2.02841 9.02746 2.02841 9.90909C2.02841 10.7907 2.17424 11.5348 2.46591 12.1413C2.76089 12.7479 3.15696 13.2069 3.65412 13.5185C4.15459 13.83 4.71307 13.9858 5.32955 13.9858C5.94602 13.9858 6.50284 13.83 7 13.5185C7.50047 13.2069 7.89654 12.7479 8.18821 12.1413C8.48319 11.5348 8.63068 10.7907 8.63068 9.90909ZM11.897 15V4.81818H13.13V13.9062H17.8629V15H11.897ZM22.9141 15H19.772V4.81818H23.0533C24.041 4.81818 24.8861 5.02202 25.5888 5.42969C26.2914 5.83404 26.83 6.41572 27.2045 7.17472C27.5791 7.9304 27.7663 8.83523 27.7663 9.8892C27.7663 10.9498 27.5774 11.8629 27.1996 12.6286C26.8217 13.3909 26.2715 13.9775 25.549 14.3885C24.8265 14.7962 23.9482 15 22.9141 15ZM21.005 13.9062H22.8345C23.6764 13.9062 24.3741 13.7438 24.9276 13.419C25.4811 13.0942 25.8937 12.6319 26.1655 12.032C26.4373 11.4321 26.5732 10.7178 26.5732 9.8892C26.5732 9.06723 26.4389 8.35961 26.1705 7.76633C25.902 7.16974 25.5009 6.71236 24.9673 6.39418C24.4337 6.07268 23.7692 5.91193 22.9737 5.91193H21.005V13.9062ZM33.772 4.81818H35.2436L38.7038 13.2699H38.8232L42.2834 4.81818H43.755V15H42.6016V7.2642H42.5021L39.3203 15H38.2067L35.0249 7.2642H34.9254V15H33.772V4.81818ZM46.2271 15V4.81818H52.372V5.91193H47.46V9.35227H52.0538V10.446H47.46V13.9062H52.4515V15H46.2271ZM55.0119 15H53.7193L57.4579 4.81818H58.7306L62.4693 15H61.1767L58.1341 6.42898H58.0545L55.0119 15ZM55.4892 11.0227H60.6994V12.1165H55.4892V11.0227ZM72.1291 4.81818V15H70.9359L65.3876 7.00568H65.2882V15H64.0552V4.81818H65.2484L70.8166 12.8324H70.916V4.81818H72.1291ZM75.8292 4.81818V15H74.5962V4.81818H75.8292ZM86.3752 4.81818V15H85.182L79.6337 7.00568H79.5343V15H78.3013V4.81818H79.4945L85.0627 12.8324H85.1621V4.81818H86.3752ZM95.8026 8C95.6932 7.66525 95.549 7.36529 95.37 7.10014C95.1944 6.83168 94.9839 6.60298 94.7386 6.41406C94.4967 6.22514 94.2216 6.08097 93.9134 5.98153C93.6051 5.8821 93.267 5.83239 92.8991 5.83239C92.2959 5.83239 91.7474 5.98816 91.2536 6.29972C90.7597 6.61127 90.367 7.07031 90.0753 7.67685C89.7836 8.28338 89.6378 9.02746 89.6378 9.90909C89.6378 10.7907 89.7853 11.5348 90.0803 12.1413C90.3752 12.7479 90.7746 13.2069 91.2784 13.5185C91.7822 13.83 92.349 13.9858 92.9787 13.9858C93.562 13.9858 94.0758 13.8615 94.5199 13.6129C94.9673 13.361 95.3153 13.0064 95.5639 12.549C95.8158 12.0883 95.9418 11.5464 95.9418 10.9233L96.3196 11.0028H93.2571V9.90909H97.1349V11.0028C97.1349 11.8414 96.956 12.5705 96.598 13.1903C96.2434 13.8101 95.7528 14.2907 95.1264 14.6321C94.5033 14.9702 93.7874 15.1392 92.9787 15.1392C92.0772 15.1392 91.285 14.9271 90.6023 14.5028C89.9228 14.0786 89.3925 13.4754 89.0114 12.6932C88.6335 11.911 88.4446 10.983 88.4446 9.90909C88.4446 9.10369 88.5523 8.3795 88.7678 7.73651C88.9865 7.0902 89.2947 6.54001 89.6925 6.08594C90.0902 5.63187 90.5608 5.28385 91.1044 5.0419C91.648 4.79995 92.2462 4.67898 92.8991 4.67898C93.4361 4.67898 93.9366 4.76018 94.4006 4.92258C94.8679 5.08168 95.2839 5.30871 95.6484 5.60369C96.0163 5.89536 96.3229 6.24503 96.5682 6.6527C96.8134 7.05705 96.9825 7.50616 97.0753 8H95.8026Z" fill="#6D8997"/>
<path d="M9.30682 74.8182V85H8.11364L2.56534 77.0057H2.46591V85H1.23295V74.8182H2.42614L7.99432 82.8324H8.09375V74.8182H9.30682ZM11.774 85V74.8182H17.9189V75.9119H13.0069V79.3523H17.6007V80.446H13.0069V83.9062H17.9984V85H11.774ZM21.9906 85L19.2065 74.8182H20.4593L22.5872 83.1108H22.6866L24.8542 74.8182H26.2463L28.4139 83.1108H28.5133L30.6412 74.8182H31.894L29.1099 85H27.8372L25.59 76.8864H25.5105L23.2633 85H21.9906ZM37.3677 74.8182H38.8393L42.2995 83.2699H42.4189L45.8791 74.8182H47.3507V85H46.1973V77.2642H46.0978L42.916 85H41.8024L38.6206 77.2642H38.5211V85H37.3677V74.8182ZM49.8228 85V74.8182H55.9677V75.9119H51.0558V79.3523H55.6495V80.446H51.0558V83.9062H56.0472V85H49.8228ZM58.6076 85H57.315L61.0536 74.8182H62.3263L66.065 85H64.7724L61.7298 76.429H61.6502L58.6076 85ZM59.0849 81.0227H64.2951V82.1165H59.0849V81.0227ZM75.7248 74.8182V85H74.5316L68.9833 77.0057H68.8839V85H67.6509V74.8182H68.8441L74.4123 82.8324H74.5117V74.8182H75.7248ZM79.4249 74.8182V85H78.1919V74.8182H79.4249ZM89.9709 74.8182V85H88.7777L83.2294 77.0057H83.13V85H81.897V74.8182H83.0902L88.6584 82.8324H88.7578V74.8182H89.9709ZM99.3983 78C99.2889 77.6652 99.1447 77.3653 98.9657 77.1001C98.7901 76.8317 98.5796 76.603 98.3343 76.4141C98.0924 76.2251 97.8173 76.081 97.5091 75.9815C97.2008 75.8821 96.8627 75.8324 96.4949 75.8324C95.8916 75.8324 95.3431 75.9882 94.8493 76.2997C94.3554 76.6113 93.9627 77.0703 93.671 77.6768C93.3793 78.2834 93.2335 79.0275 93.2335 79.9091C93.2335 80.7907 93.381 81.5348 93.676 82.1413C93.9709 82.7479 94.3703 83.2069 94.8741 83.5185C95.3779 83.83 95.9447 83.9858 96.5744 83.9858C97.1577 83.9858 97.6715 83.8615 98.1156 83.6129C98.563 83.361 98.911 83.0064 99.1596 82.549C99.4115 82.0883 99.5375 81.5464 99.5375 80.9233L99.9153 81.0028H96.8528V79.9091H100.731V81.0028C100.731 81.8414 100.552 82.5705 100.194 83.1903C99.8391 83.8101 99.3485 84.2907 98.7221 84.6321C98.099 84.9702 97.3831 85.1392 96.5744 85.1392C95.6729 85.1392 94.8807 84.9271 94.198 84.5028C93.5185 84.0786 92.9882 83.4754 92.6071 82.6932C92.2292 81.911 92.0403 80.983 92.0403 79.9091C92.0403 79.1037 92.148 78.3795 92.3635 77.7365C92.5822 77.0902 92.8904 76.54 93.2882 76.0859C93.6859 75.6319 94.1565 75.2839 94.7001 75.0419C95.2437 74.8 95.8419 74.679 96.4949 74.679C97.0318 74.679 97.5323 74.7602 97.9963 74.9226C98.4636 75.0817 98.8796 75.3087 99.2441 75.6037C99.612 75.8954 99.9186 76.245 100.164 76.6527C100.409 77.0571 100.578 77.5062 100.671 78H99.3983Z" fill="#6D8997"/>
<path d="M322 106.653C338.526 107.37 355.716 112.946 372.2 108.747C381.729 106.32 386.894 99.8392 390.586 91.3826C392.87 86.1535 394.614 81.0711 394.764 75.3488C394.834 72.7042 394.859 70.3165 392.508 68.6081C390.241 66.9608 386.677 66.1014 384.018 67.3429C380.8 68.8457 379.021 72.7476 378.143 75.916C377.9 76.7922 377.717 79.1914 377.405 77.1595C376.526 71.4376 371.751 63.9709 364.85 65.1178C361.502 65.6743 360.547 69.0963 360.605 71.9676C360.746 78.9666 366.644 84.2933 371.217 89.0484C386.439 104.877 412.934 118.996 435 108.223" stroke="#EE964B" stroke-width="3" stroke-linecap="round"/>
</g>
<defs>
<clipPath id="clip0_346_3310">
<rect width="463" height="118" fill="white"/>
</clipPath>
</defs>
</svg>
