<svg width="1158" height="378" viewBox="0 0 1158 378" fill="none" xmlns="http://www.w3.org/2000/svg">
<g clip-path="url(#clip0_340_3286)">
<rect width="1158" height="378" fill="white"/>
<rect x="0.64421" y="4.64421" width="335.633" height="76.0167" rx="9.01893" fill="#375666"/>
<path opacity="0.2" d="M47.2464 33.4697C37.0437 33.4697 32.9626 42.6522 32.9626 42.6522C32.9626 42.6522 37.0437 51.8346 47.2464 51.8346C57.4491 51.8346 61.5302 42.6522 61.5302 42.6522C61.5302 42.6522 57.4491 33.4697 47.2464 33.4697ZM47.2464 47.7535C46.2375 47.7535 45.2512 47.4543 44.4122 46.8938C43.5733 46.3332 42.9195 45.5365 42.5334 44.6044C42.1473 43.6722 42.0462 42.6465 42.2431 41.6569C42.4399 40.6674 42.9258 39.7584 43.6392 39.045C44.3526 38.3315 45.2616 37.8457 46.2512 37.6488C47.2408 37.452 48.2665 37.553 49.1986 37.9391C50.1308 38.3252 50.9275 38.9791 51.488 39.818C52.0486 40.6569 52.3478 41.6432 52.3478 42.6522C52.3478 44.0051 51.8103 45.3027 50.8536 46.2594C49.8969 47.2161 48.5994 47.7535 47.2464 47.7535Z" fill="#E3F2FA"/>
<path d="M47.2464 33.4697C37.0437 33.4697 32.9626 42.6522 32.9626 42.6522C32.9626 42.6522 37.0437 51.8346 47.2464 51.8346C57.4491 51.8346 61.5302 42.6522 61.5302 42.6522C61.5302 42.6522 57.4491 33.4697 47.2464 33.4697Z" stroke="#E3F2FA" stroke-width="2.04054" stroke-linecap="round" stroke-linejoin="round"/>
<path d="M47.2464 47.7535C50.0638 47.7535 52.3478 45.4695 52.3478 42.6521C52.3478 39.8347 50.0638 37.5508 47.2464 37.5508C44.429 37.5508 42.1451 39.8347 42.1451 42.6521C42.1451 45.4695 44.429 47.7535 47.2464 47.7535Z" stroke="#E3F2FA" stroke-width="2.04054" stroke-linecap="round" stroke-linejoin="round"/>
<rect x="21.9031" y="17.3089" width="50.6865" height="50.6865" rx="25.3433" stroke="#375666" stroke-width="2.57684"/>
<path d="M95.5926 50.377C94.496 50.377 93.5516 50.1427 92.7594 49.6741C91.9719 49.2007 91.3633 48.5364 90.9333 47.6814C90.5082 46.8215 90.2956 45.8143 90.2956 44.6597C90.2956 43.5196 90.5082 42.5148 90.9333 41.6453C91.3633 40.7757 91.9623 40.097 92.7304 39.6091C93.5033 39.1211 94.4067 38.8772 95.4405 38.8772C96.0685 38.8772 96.6772 38.9811 97.2665 39.1888C97.8559 39.3965 98.3849 39.7226 98.8535 40.167C99.322 40.6115 99.6916 41.1887 99.9621 41.8989C100.233 42.6042 100.368 43.4616 100.368 44.4713V45.2394H91.5203V43.6162H98.2448C98.2448 43.0462 98.1288 42.5414 97.8969 42.1018C97.6651 41.6573 97.339 41.3071 96.9187 41.0511C96.5033 40.795 96.0153 40.667 95.455 40.667C94.8463 40.667 94.3149 40.8168 93.8608 41.1163C93.4115 41.411 93.0637 41.7974 92.8173 42.2757C92.5758 42.7491 92.455 43.2636 92.455 43.8191V45.0872C92.455 45.8312 92.5855 46.464 92.8463 46.9857C93.112 47.5075 93.4816 47.906 93.955 48.1814C94.4284 48.4519 94.9815 48.5872 95.6144 48.5872C96.025 48.5872 96.3994 48.5292 96.7375 48.4132C97.0757 48.2925 97.368 48.1137 97.6143 47.877C97.8607 47.6403 98.0491 47.348 98.1796 47.0002L100.23 47.3698C100.066 47.9736 99.7713 48.5026 99.3462 48.9567C98.9259 49.406 98.3969 49.7562 97.7593 50.0074C97.1264 50.2538 96.4042 50.377 95.5926 50.377ZM103.823 54.3262C103.499 54.3262 103.204 54.2996 102.939 54.2465C102.673 54.1982 102.475 54.145 102.344 54.0871L102.866 52.3117C103.262 52.418 103.615 52.4639 103.924 52.4494C104.233 52.4349 104.506 52.319 104.743 52.1016C104.984 51.8842 105.197 51.5291 105.381 51.0364L105.649 50.2973L101.576 39.0221H103.895L106.714 47.6596H106.83L109.649 39.0221H111.975L107.388 51.6378C107.175 52.2175 106.905 52.7079 106.576 53.1088C106.248 53.5146 105.856 53.8189 105.402 54.0218C104.948 54.2247 104.422 54.3262 103.823 54.3262ZM118.429 50.377C117.333 50.377 116.388 50.1427 115.596 49.6741C114.808 49.2007 114.2 48.5364 113.77 47.6814C113.345 46.8215 113.132 45.8143 113.132 44.6597C113.132 43.5196 113.345 42.5148 113.77 41.6453C114.2 40.7757 114.799 40.097 115.567 39.6091C116.34 39.1211 117.243 38.8772 118.277 38.8772C118.905 38.8772 119.514 38.9811 120.103 39.1888C120.692 39.3965 121.221 39.7226 121.69 40.167C122.159 40.6115 122.528 41.1887 122.799 41.8989C123.069 42.6042 123.204 43.4616 123.204 44.4713V45.2394H114.357V43.6162H121.081C121.081 43.0462 120.965 42.5414 120.733 42.1018C120.502 41.6573 120.176 41.3071 119.755 41.0511C119.34 40.795 118.852 40.667 118.292 40.667C117.683 40.667 117.151 40.8168 116.697 41.1163C116.248 41.411 115.9 41.7974 115.654 42.2757C115.412 42.7491 115.292 43.2636 115.292 43.8191V45.0872C115.292 45.8312 115.422 46.464 115.683 46.9857C115.949 47.5075 116.318 47.906 116.792 48.1814C117.265 48.4519 117.818 48.5872 118.451 48.5872C118.862 48.5872 119.236 48.5292 119.574 48.4132C119.912 48.2925 120.205 48.1137 120.451 47.877C120.697 47.6403 120.886 47.348 121.016 47.0002L123.067 47.3698C122.903 47.9736 122.608 48.5026 122.183 48.9567C121.762 49.406 121.233 49.7562 120.596 50.0074C119.963 50.2538 119.241 50.377 118.429 50.377ZM133.949 41.7395L131.985 42.0873C131.903 41.8361 131.773 41.5969 131.594 41.3699C131.42 41.1428 131.183 40.9569 130.884 40.8119C130.584 40.667 130.21 40.5945 129.76 40.5945C129.147 40.5945 128.635 40.7322 128.224 41.0076C127.814 41.2781 127.608 41.6283 127.608 42.0583C127.608 42.4303 127.746 42.7298 128.021 42.9568C128.297 43.1839 128.741 43.3699 129.355 43.5148L131.123 43.9206C132.147 44.1573 132.91 44.522 133.413 45.0148C133.915 45.5075 134.166 46.1476 134.166 46.935C134.166 47.6017 133.973 48.1959 133.587 48.7176C133.205 49.2345 132.671 49.6403 131.985 49.935C131.304 50.2296 130.514 50.377 129.616 50.377C128.369 50.377 127.352 50.1113 126.565 49.5799C125.777 49.0437 125.294 48.2828 125.116 47.2973L127.21 46.9785C127.34 47.5244 127.608 47.9374 128.014 48.2176C128.42 48.493 128.949 48.6306 129.601 48.6306C130.311 48.6306 130.879 48.4833 131.304 48.1886C131.729 47.8891 131.942 47.5244 131.942 47.0944C131.942 46.7466 131.811 46.4543 131.55 46.2176C131.294 45.9809 130.901 45.8022 130.369 45.6814L128.485 45.2684C127.447 45.0317 126.678 44.6549 126.181 44.138C125.688 43.6211 125.442 42.9665 125.442 42.1742C125.442 41.5172 125.625 40.9424 125.992 40.4496C126.36 39.9569 126.867 39.5728 127.514 39.2975C128.161 39.0173 128.903 38.8772 129.739 38.8772C130.942 38.8772 131.888 39.1381 132.579 39.6598C133.27 40.1767 133.727 40.8699 133.949 41.7395ZM146.637 50.377C145.594 50.377 144.683 50.1379 143.905 49.6596C143.127 49.1813 142.524 48.5123 142.094 47.6524C141.664 46.7925 141.449 45.7877 141.449 44.638C141.449 43.4834 141.664 42.4737 142.094 41.609C142.524 40.7443 143.127 40.0728 143.905 39.5946C144.683 39.1163 145.594 38.8772 146.637 38.8772C147.68 38.8772 148.591 39.1163 149.369 39.5946C150.147 40.0728 150.75 40.7443 151.18 41.609C151.61 42.4737 151.825 43.4834 151.825 44.638C151.825 45.7877 151.61 46.7925 151.18 47.6524C150.75 48.5123 150.147 49.1813 149.369 49.6596C148.591 50.1379 147.68 50.377 146.637 50.377ZM146.644 48.5582C147.321 48.5582 147.881 48.3794 148.325 48.0219C148.77 47.6645 149.098 47.1886 149.311 46.5944C149.528 46.0002 149.637 45.3457 149.637 44.6307C149.637 43.9206 149.528 43.2684 149.311 42.6742C149.098 42.0752 148.77 41.5945 148.325 41.2322C147.881 40.8699 147.321 40.6887 146.644 40.6887C145.963 40.6887 145.398 40.8699 144.949 41.2322C144.504 41.5945 144.173 42.0752 143.956 42.6742C143.743 43.2684 143.637 43.9206 143.637 44.6307C143.637 45.3457 143.743 46.0002 143.956 46.5944C144.173 47.1886 144.504 47.6645 144.949 48.0219C145.398 48.3794 145.963 48.5582 146.644 48.5582ZM156.41 43.5438V50.1523H154.244V39.0221H156.323V40.8337H156.461C156.717 40.2443 157.118 39.7709 157.664 39.4134C158.215 39.0559 158.908 38.8772 159.744 38.8772C160.502 38.8772 161.166 39.0366 161.736 39.3554C162.306 39.6694 162.748 40.138 163.062 40.7612C163.376 41.3844 163.533 42.1549 163.533 43.0728V50.1523H161.367V43.3336C161.367 42.5269 161.157 41.8965 160.736 41.4424C160.316 40.9834 159.739 40.754 159.005 40.754C158.502 40.754 158.055 40.8627 157.664 41.08C157.277 41.2974 156.971 41.6163 156.744 42.0366C156.521 42.452 156.41 42.9544 156.41 43.5438ZM177.035 39.0221V40.7612H170.955V39.0221H177.035ZM172.586 36.3555H174.752V46.8843C174.752 47.3046 174.815 47.621 174.941 47.8335C175.066 48.0413 175.228 48.1838 175.426 48.2611C175.629 48.3335 175.849 48.3698 176.086 48.3698C176.26 48.3698 176.412 48.3577 176.542 48.3335C176.673 48.3094 176.774 48.2901 176.847 48.2756L177.238 50.0654C177.112 50.1137 176.934 50.162 176.702 50.2103C176.47 50.2635 176.18 50.2924 175.832 50.2973C175.262 50.3069 174.731 50.2055 174.238 49.9929C173.745 49.7804 173.347 49.4519 173.042 49.0074C172.738 48.563 172.586 48.005 172.586 47.3336V36.3555ZM181.837 43.5438V50.1523H179.671V35.312H181.808V40.8337H181.946C182.207 40.2347 182.606 39.7588 183.142 39.4062C183.678 39.0535 184.378 38.8772 185.243 38.8772C186.006 38.8772 186.673 39.0342 187.243 39.3482C187.818 39.6622 188.262 40.1308 188.576 40.754C188.895 41.3723 189.055 42.1452 189.055 43.0728V50.1523H186.888V43.3336C186.888 42.5172 186.678 41.8844 186.258 41.4351C185.837 40.981 185.253 40.754 184.504 40.754C183.992 40.754 183.533 40.8627 183.127 41.08C182.726 41.2974 182.41 41.6163 182.178 42.0366C181.951 42.452 181.837 42.9544 181.837 43.5438ZM196.743 50.377C195.646 50.377 194.702 50.1427 193.91 49.6741C193.122 49.2007 192.514 48.5364 192.084 47.6814C191.659 46.8215 191.446 45.8143 191.446 44.6597C191.446 43.5196 191.659 42.5148 192.084 41.6453C192.514 40.7757 193.113 40.097 193.881 39.6091C194.654 39.1211 195.557 38.8772 196.591 38.8772C197.219 38.8772 197.827 38.9811 198.417 39.1888C199.006 39.3965 199.535 39.7226 200.004 40.167C200.472 40.6115 200.842 41.1887 201.112 41.8989C201.383 42.6042 201.518 43.4616 201.518 44.4713V45.2394H192.671V43.6162H199.395C199.395 43.0462 199.279 42.5414 199.047 42.1018C198.815 41.6573 198.489 41.3071 198.069 41.0511C197.654 40.795 197.166 40.667 196.605 40.667C195.997 40.667 195.465 40.8168 195.011 41.1163C194.562 41.411 194.214 41.7974 193.968 42.2757C193.726 42.7491 193.605 43.2636 193.605 43.8191V45.0872C193.605 45.8312 193.736 46.464 193.997 46.9857C194.262 47.5075 194.632 47.906 195.105 48.1814C195.579 48.4519 196.132 48.5872 196.765 48.5872C197.175 48.5872 197.55 48.5292 197.888 48.4132C198.226 48.2925 198.518 48.1137 198.765 47.877C199.011 47.6403 199.199 47.348 199.33 47.0002L201.381 47.3698C201.216 47.9736 200.922 48.5026 200.497 48.9567C200.076 49.406 199.547 49.7562 198.91 50.0074C198.277 50.2538 197.555 50.377 196.743 50.377ZM209.322 50.1523V39.0221H211.417V40.7902H211.533C211.735 40.1912 212.093 39.7202 212.605 39.3772C213.122 39.0294 213.706 38.8554 214.359 38.8554C214.494 38.8554 214.653 38.8603 214.837 38.8699C215.025 38.8796 215.173 38.8917 215.279 38.9062V40.9786C215.192 40.9544 215.037 40.9279 214.815 40.8989C214.593 40.8651 214.371 40.8482 214.148 40.8482C213.636 40.8482 213.18 40.9569 212.779 41.1742C212.383 41.3868 212.069 41.6839 211.837 42.0655C211.605 42.4423 211.489 42.8723 211.489 43.3554V50.1523H209.322ZM221.444 50.377C220.4 50.377 219.49 50.1379 218.712 49.6596C217.934 49.1813 217.33 48.5123 216.9 47.6524C216.47 46.7925 216.255 45.7877 216.255 44.638C216.255 43.4834 216.47 42.4737 216.9 41.609C217.33 40.7443 217.934 40.0728 218.712 39.5946C219.49 39.1163 220.4 38.8772 221.444 38.8772C222.487 38.8772 223.398 39.1163 224.175 39.5946C224.953 40.0728 225.557 40.7443 225.987 41.609C226.417 42.4737 226.632 43.4834 226.632 44.638C226.632 45.7877 226.417 46.7925 225.987 47.6524C225.557 48.5123 224.953 49.1813 224.175 49.6596C223.398 50.1379 222.487 50.377 221.444 50.377ZM221.451 48.5582C222.127 48.5582 222.688 48.3794 223.132 48.0219C223.576 47.6645 223.905 47.1886 224.117 46.5944C224.335 46.0002 224.444 45.3457 224.444 44.6307C224.444 43.9206 224.335 43.2684 224.117 42.6742C223.905 42.0752 223.576 41.5945 223.132 41.2322C222.688 40.8699 222.127 40.6887 221.451 40.6887C220.77 40.6887 220.204 40.8699 219.755 41.2322C219.311 41.5945 218.98 42.0752 218.762 42.6742C218.55 43.2684 218.444 43.9206 218.444 44.6307C218.444 45.3457 218.55 46.0002 218.762 46.5944C218.98 47.1886 219.311 47.6645 219.755 48.0219C220.204 48.3794 220.77 48.5582 221.451 48.5582ZM232.289 50.3987C231.584 50.3987 230.946 50.2683 230.376 50.0074C229.806 49.7417 229.355 49.3577 229.021 48.8553C228.693 48.3529 228.529 47.7369 228.529 47.0075C228.529 46.3795 228.649 45.8626 228.891 45.4568C229.132 45.051 229.459 44.7297 229.869 44.493C230.28 44.2563 230.739 44.0776 231.246 43.9568C231.753 43.836 232.27 43.7442 232.797 43.6814C233.463 43.6042 234.004 43.5414 234.42 43.493C234.835 43.4399 235.137 43.3554 235.326 43.2394C235.514 43.1235 235.608 42.9351 235.608 42.6742V42.6235C235.608 41.9907 235.429 41.5003 235.072 41.1525C234.719 40.8047 234.193 40.6308 233.492 40.6308C232.763 40.6308 232.188 40.7926 231.768 41.1163C231.352 41.4351 231.065 41.7902 230.905 42.1815L228.869 41.7177C229.111 41.0414 229.463 40.4955 229.927 40.0801C230.396 39.6598 230.934 39.3554 231.543 39.167C232.152 38.9738 232.792 38.8772 233.463 38.8772C233.908 38.8772 234.379 38.9303 234.876 39.0366C235.379 39.1381 235.847 39.3265 236.282 39.6018C236.722 39.8772 237.082 40.2709 237.362 40.783C237.642 41.2902 237.782 41.9496 237.782 42.7612V50.1523H235.666V48.6306H235.579C235.439 48.9108 235.229 49.1862 234.949 49.4567C234.669 49.7272 234.309 49.9519 233.869 50.1306C233.429 50.3093 232.903 50.3987 232.289 50.3987ZM232.76 48.6596C233.359 48.6596 233.872 48.5413 234.297 48.3046C234.727 48.0678 235.053 47.7587 235.275 47.377C235.502 46.9906 235.615 46.5775 235.615 46.1379V44.7032C235.538 44.7805 235.388 44.8529 235.166 44.9206C234.949 44.9834 234.7 45.0389 234.42 45.0872C234.14 45.1307 233.867 45.1718 233.601 45.2104C233.335 45.2442 233.113 45.2732 232.934 45.2974C232.514 45.3505 232.13 45.4399 231.782 45.5655C231.439 45.6911 231.164 45.8722 230.956 46.1089C230.753 46.3408 230.652 46.65 230.652 47.0365C230.652 47.5727 230.85 47.9785 231.246 48.2538C231.642 48.5244 232.147 48.6596 232.76 48.6596ZM244.834 50.3697C243.936 50.3697 243.134 50.1403 242.429 49.6813C241.728 49.2176 241.178 48.5582 240.777 47.7031C240.38 46.8432 240.182 45.8118 240.182 44.609C240.182 43.4061 240.383 42.3771 240.784 41.5221C241.19 40.667 241.745 40.0124 242.45 39.5583C243.156 39.1042 243.955 38.8772 244.849 38.8772C245.54 38.8772 246.095 38.9931 246.516 39.225C246.941 39.4521 247.269 39.7178 247.501 40.0221C247.738 40.3264 247.921 40.5945 248.052 40.8264H248.182V35.312H250.349V50.1523H248.233V48.4205H248.052C247.921 48.6572 247.733 48.9277 247.487 49.2321C247.245 49.5364 246.912 49.8021 246.487 50.0292C246.062 50.2562 245.511 50.3697 244.834 50.3697ZM245.313 48.5219C245.936 48.5219 246.462 48.3577 246.892 48.0292C247.327 47.6959 247.656 47.2345 247.878 46.6452C248.105 46.0558 248.218 45.3698 248.218 44.5872C248.218 43.8143 248.107 43.138 247.885 42.5583C247.663 41.9786 247.337 41.5269 246.907 41.2032C246.477 40.8796 245.946 40.7177 245.313 40.7177C244.661 40.7177 244.117 40.8868 243.682 41.225C243.248 41.5631 242.919 42.0245 242.697 42.609C242.479 43.1935 242.371 43.8529 242.371 44.5872C242.371 45.3312 242.482 46.0002 242.704 46.5944C242.926 47.1886 243.255 47.6596 243.69 48.0075C244.129 48.3504 244.67 48.5219 245.313 48.5219Z" fill="#E3F2FA"/>
<rect x="0.64421" y="4.64421" width="335.633" height="76.0167" rx="9.01893" stroke="#375666" stroke-width="1.28842"/>
<rect x="0.64421" y="101.949" width="335.633" height="76.0167" rx="9.01893" fill="#375666"/>
<path opacity="0.2" d="M39.8112 151.474C39.7163 151.57 39.6031 151.647 39.4783 151.699C39.3535 151.751 39.2196 151.778 39.0843 151.778C38.949 151.778 38.815 151.751 38.6902 151.699C38.5654 151.647 38.4522 151.57 38.3573 151.474L35.7301 148.847C35.6337 148.752 35.5572 148.639 35.5049 148.514C35.4526 148.389 35.4257 148.255 35.4257 148.12C35.4257 147.984 35.4526 147.85 35.5049 147.726C35.5572 147.601 35.6337 147.488 35.7301 147.393L49.287 133.836L53.368 137.917L39.8112 151.474Z" fill="#E3F2FA"/>
<path d="M58.4694 139.957V146.079" stroke="#E3F2FA" stroke-width="2.04054" stroke-linecap="round" stroke-linejoin="round"/>
<path d="M55.4086 143.018H61.5302" stroke="#E3F2FA" stroke-width="2.04054" stroke-linecap="round" stroke-linejoin="round"/>
<path d="M41.6349 128.734V133.836" stroke="#E3F2FA" stroke-width="2.04054" stroke-linecap="round" stroke-linejoin="round"/>
<path d="M39.0842 131.285H44.1856" stroke="#E3F2FA" stroke-width="2.04054" stroke-linecap="round" stroke-linejoin="round"/>
<path d="M52.3478 147.099V151.18" stroke="#E3F2FA" stroke-width="2.04054" stroke-linecap="round" stroke-linejoin="round"/>
<path d="M50.3072 149.14H54.3883" stroke="#E3F2FA" stroke-width="2.04054" stroke-linecap="round" stroke-linejoin="round"/>
<path d="M54.6978 128.432L35.7329 147.397C35.3345 147.795 35.3345 148.441 35.7329 148.84L38.3707 151.477C38.7692 151.876 39.4152 151.876 39.8136 151.477L58.7785 132.512C59.1769 132.114 59.1769 131.468 58.7785 131.07L56.1407 128.432C55.7423 128.033 55.0963 128.033 54.6978 128.432Z" stroke="#E3F2FA" stroke-width="2.04054" stroke-linecap="round" stroke-linejoin="round"/>
<path d="M49.287 133.836L53.368 137.917" stroke="#E3F2FA" stroke-width="2.04054" stroke-linecap="round" stroke-linejoin="round"/>
<rect x="21.9031" y="114.614" width="50.6865" height="50.6865" rx="25.3433" stroke="#375666" stroke-width="2.57684"/>
<path d="M90.7956 147.457V136.327H92.8898V138.095H93.0057C93.2086 137.496 93.5661 137.025 94.0782 136.682C94.5951 136.334 95.1796 136.16 95.8318 136.16C95.967 136.16 96.1264 136.165 96.31 136.175C96.4984 136.184 96.6458 136.196 96.752 136.211V138.283C96.6651 138.259 96.5105 138.233 96.2883 138.204C96.0661 138.17 95.8438 138.153 95.6216 138.153C95.1096 138.153 94.653 138.262 94.2521 138.479C93.856 138.691 93.542 138.989 93.3101 139.37C93.0782 139.747 92.9623 140.177 92.9623 140.66V147.457H90.7956ZM103.025 147.682C101.929 147.682 100.984 147.447 100.192 146.979C99.4048 146.505 98.7961 145.841 98.3661 144.986C97.941 144.126 97.7285 143.119 97.7285 141.964C97.7285 140.824 97.941 139.819 98.3661 138.95C98.7961 138.08 99.3951 137.402 100.163 136.914C100.936 136.426 101.84 136.182 102.873 136.182C103.501 136.182 104.11 136.286 104.699 136.493C105.289 136.701 105.818 137.027 106.286 137.472C106.755 137.916 107.124 138.493 107.395 139.204C107.665 139.909 107.801 140.766 107.801 141.776V142.544H98.9531V140.921H105.678C105.678 140.351 105.562 139.846 105.33 139.406C105.098 138.962 104.772 138.612 104.352 138.356C103.936 138.1 103.448 137.972 102.888 137.972C102.279 137.972 101.748 138.121 101.294 138.421C100.844 138.716 100.497 139.102 100.25 139.58C100.009 140.054 99.8879 140.568 99.8879 141.124V142.392C99.8879 143.136 100.018 143.769 100.279 144.29C100.545 144.812 100.914 145.211 101.388 145.486C101.861 145.757 102.414 145.892 103.047 145.892C103.458 145.892 103.832 145.834 104.17 145.718C104.509 145.597 104.801 145.418 105.047 145.182C105.294 144.945 105.482 144.653 105.612 144.305L107.663 144.674C107.499 145.278 107.204 145.807 106.779 146.261C106.359 146.711 105.83 147.061 105.192 147.312C104.559 147.558 103.837 147.682 103.025 147.682ZM114.371 147.674C113.473 147.674 112.671 147.445 111.966 146.986C111.265 146.522 110.714 145.863 110.313 145.008C109.917 144.148 109.719 143.117 109.719 141.914C109.719 140.711 109.92 139.682 110.321 138.827C110.726 137.972 111.282 137.317 111.987 136.863C112.693 136.409 113.492 136.182 114.386 136.182C115.077 136.182 115.632 136.298 116.052 136.53C116.478 136.757 116.806 137.022 117.038 137.327C117.275 137.631 117.458 137.899 117.589 138.131H117.719V132.617H119.886V147.457H117.77V145.725H117.589C117.458 145.962 117.27 146.232 117.023 146.537C116.782 146.841 116.449 147.107 116.023 147.334C115.598 147.561 115.048 147.674 114.371 147.674ZM114.85 145.827C115.473 145.827 115.999 145.662 116.429 145.334C116.864 145.001 117.192 144.539 117.415 143.95C117.642 143.36 117.755 142.675 117.755 141.892C117.755 141.119 117.644 140.443 117.422 139.863C117.2 139.283 116.874 138.832 116.444 138.508C116.014 138.184 115.482 138.022 114.85 138.022C114.197 138.022 113.654 138.192 113.219 138.53C112.784 138.868 112.456 139.329 112.234 139.914C112.016 140.498 111.908 141.158 111.908 141.892C111.908 142.636 112.019 143.305 112.241 143.899C112.463 144.493 112.792 144.964 113.226 145.312C113.666 145.655 114.207 145.827 114.85 145.827ZM130.029 142.841V136.327H132.202V147.457H130.072V145.53H129.956C129.7 146.124 129.289 146.619 128.724 147.015C128.164 147.406 127.466 147.602 126.63 147.602C125.915 147.602 125.282 147.445 124.732 147.131C124.186 146.812 123.756 146.341 123.442 145.718C123.133 145.095 122.978 144.324 122.978 143.406V136.327H125.145V143.146C125.145 143.904 125.355 144.508 125.775 144.957C126.195 145.406 126.741 145.631 127.413 145.631C127.819 145.631 128.222 145.53 128.623 145.327C129.029 145.124 129.364 144.817 129.63 144.406C129.901 143.996 130.033 143.474 130.029 142.841ZM139.802 147.682C138.725 147.682 137.797 147.438 137.019 146.95C136.246 146.457 135.652 145.778 135.237 144.914C134.821 144.049 134.614 143.059 134.614 141.943C134.614 140.812 134.826 139.815 135.251 138.95C135.676 138.08 136.275 137.402 137.048 136.914C137.821 136.426 138.732 136.182 139.78 136.182C140.626 136.182 141.379 136.339 142.041 136.653C142.703 136.962 143.237 137.397 143.642 137.957C144.053 138.518 144.297 139.172 144.374 139.921H142.266C142.15 139.399 141.884 138.95 141.469 138.573C141.058 138.196 140.507 138.008 139.816 138.008C139.213 138.008 138.684 138.167 138.23 138.486C137.78 138.8 137.43 139.249 137.179 139.834C136.928 140.414 136.802 141.1 136.802 141.892C136.802 142.703 136.925 143.404 137.172 143.993C137.418 144.583 137.766 145.039 138.215 145.363C138.669 145.687 139.203 145.848 139.816 145.848C140.227 145.848 140.599 145.773 140.932 145.624C141.271 145.469 141.553 145.249 141.78 144.964C142.012 144.679 142.174 144.336 142.266 143.935H144.374C144.297 144.655 144.063 145.298 143.671 145.863C143.28 146.428 142.756 146.873 142.099 147.196C141.447 147.52 140.681 147.682 139.802 147.682ZM151.488 147.682C150.392 147.682 149.447 147.447 148.655 146.979C147.868 146.505 147.259 145.841 146.829 144.986C146.404 144.126 146.191 143.119 146.191 141.964C146.191 140.824 146.404 139.819 146.829 138.95C147.259 138.08 147.858 137.402 148.626 136.914C149.399 136.426 150.302 136.182 151.336 136.182C151.964 136.182 152.573 136.286 153.162 136.493C153.752 136.701 154.281 137.027 154.749 137.472C155.218 137.916 155.587 138.493 155.858 139.204C156.128 139.909 156.264 140.766 156.264 141.776V142.544H147.416V140.921H154.14C154.14 140.351 154.025 139.846 153.793 139.406C153.561 138.962 153.235 138.612 152.814 138.356C152.399 138.1 151.911 137.972 151.351 137.972C150.742 137.972 150.211 138.121 149.757 138.421C149.307 138.716 148.959 139.102 148.713 139.58C148.472 140.054 148.351 140.568 148.351 141.124V142.392C148.351 143.136 148.481 143.769 148.742 144.29C149.008 144.812 149.377 145.211 149.851 145.486C150.324 145.757 150.877 145.892 151.51 145.892C151.921 145.892 152.295 145.834 152.633 145.718C152.971 145.597 153.264 145.418 153.51 145.182C153.756 144.945 153.945 144.653 154.075 144.305L156.126 144.674C155.962 145.278 155.667 145.807 155.242 146.261C154.822 146.711 154.293 147.061 153.655 147.312C153.022 147.558 152.3 147.682 151.488 147.682ZM162.834 147.674C161.936 147.674 161.134 147.445 160.428 146.986C159.728 146.522 159.177 145.863 158.776 145.008C158.38 144.148 158.182 143.117 158.182 141.914C158.182 140.711 158.383 139.682 158.784 138.827C159.189 137.972 159.745 137.317 160.45 136.863C161.155 136.409 161.955 136.182 162.849 136.182C163.539 136.182 164.095 136.298 164.515 136.53C164.94 136.757 165.269 137.022 165.501 137.327C165.737 137.631 165.921 137.899 166.051 138.131H166.182V132.617H168.349V147.457H166.233V145.725H166.051C165.921 145.962 165.733 146.232 165.486 146.537C165.245 146.841 164.911 147.107 164.486 147.334C164.061 147.561 163.51 147.674 162.834 147.674ZM163.312 145.827C163.936 145.827 164.462 145.662 164.892 145.334C165.327 145.001 165.655 144.539 165.878 143.95C166.105 143.36 166.218 142.675 166.218 141.892C166.218 141.119 166.107 140.443 165.885 139.863C165.663 139.283 165.337 138.832 164.907 138.508C164.477 138.184 163.945 138.022 163.312 138.022C162.66 138.022 162.117 138.192 161.682 138.53C161.247 138.868 160.919 139.329 160.697 139.914C160.479 140.498 160.37 141.158 160.37 141.892C160.37 142.636 160.482 143.305 160.704 143.899C160.926 144.493 161.254 144.964 161.689 145.312C162.129 145.655 162.67 145.827 163.312 145.827ZM181.008 147.674C180.109 147.674 179.307 147.445 178.602 146.986C177.902 146.522 177.351 145.863 176.95 145.008C176.554 144.148 176.356 143.117 176.356 141.914C176.356 140.711 176.556 139.682 176.957 138.827C177.363 137.972 177.918 137.317 178.624 136.863C179.329 136.409 180.129 136.182 181.022 136.182C181.713 136.182 182.269 136.298 182.689 136.53C183.114 136.757 183.442 137.022 183.674 137.327C183.911 137.631 184.095 137.899 184.225 138.131H184.356V132.617H186.522V147.457H184.406V145.725H184.225C184.095 145.962 183.906 146.232 183.66 146.537C183.418 146.841 183.085 147.107 182.66 147.334C182.235 147.561 181.684 147.674 181.008 147.674ZM181.486 145.827C182.109 145.827 182.636 145.662 183.066 145.334C183.5 145.001 183.829 144.539 184.051 143.95C184.278 143.36 184.392 142.675 184.392 141.892C184.392 141.119 184.281 140.443 184.058 139.863C183.836 139.283 183.51 138.832 183.08 138.508C182.65 138.184 182.119 138.022 181.486 138.022C180.834 138.022 180.29 138.192 179.856 138.53C179.421 138.868 179.092 139.329 178.87 139.914C178.653 140.498 178.544 141.158 178.544 141.892C178.544 142.636 178.655 143.305 178.877 143.899C179.1 144.493 179.428 144.964 179.863 145.312C180.302 145.655 180.843 145.827 181.486 145.827ZM189.614 147.457V136.327H191.781V147.457H189.614ZM190.709 134.609C190.332 134.609 190.008 134.484 189.738 134.233C189.472 133.977 189.339 133.672 189.339 133.32C189.339 132.962 189.472 132.658 189.738 132.407C190.008 132.151 190.332 132.023 190.709 132.023C191.085 132.023 191.407 132.151 191.672 132.407C191.943 132.658 192.078 132.962 192.078 133.32C192.078 133.672 191.943 133.977 191.672 134.233C191.407 134.484 191.085 134.609 190.709 134.609ZM203.036 139.044L201.073 139.392C200.99 139.141 200.86 138.902 200.681 138.675C200.507 138.448 200.271 138.262 199.971 138.117C199.672 137.972 199.297 137.899 198.848 137.899C198.234 137.899 197.722 138.037 197.312 138.312C196.901 138.583 196.696 138.933 196.696 139.363C196.696 139.735 196.834 140.034 197.109 140.262C197.384 140.489 197.829 140.675 198.442 140.819L200.21 141.225C201.234 141.462 201.998 141.827 202.5 142.319C203.003 142.812 203.254 143.452 203.254 144.24C203.254 144.906 203.06 145.501 202.674 146.022C202.292 146.539 201.759 146.945 201.073 147.24C200.391 147.534 199.602 147.682 198.703 147.682C197.457 147.682 196.44 147.416 195.652 146.885C194.865 146.348 194.382 145.588 194.203 144.602L196.297 144.283C196.428 144.829 196.696 145.242 197.102 145.522C197.507 145.798 198.036 145.935 198.689 145.935C199.399 145.935 199.966 145.788 200.391 145.493C200.817 145.194 201.029 144.829 201.029 144.399C201.029 144.051 200.899 143.759 200.638 143.522C200.382 143.286 199.988 143.107 199.457 142.986L197.573 142.573C196.534 142.336 195.766 141.96 195.268 141.443C194.776 140.926 194.529 140.271 194.529 139.479C194.529 138.822 194.713 138.247 195.08 137.754C195.447 137.262 195.954 136.878 196.602 136.602C197.249 136.322 197.991 136.182 198.826 136.182C200.029 136.182 200.976 136.443 201.667 136.964C202.358 137.481 202.814 138.175 203.036 139.044ZM210.831 136.327V138.066H204.752V136.327H210.831ZM206.382 133.66H208.549V144.189C208.549 144.609 208.612 144.926 208.737 145.138C208.863 145.346 209.025 145.488 209.223 145.566C209.426 145.638 209.646 145.674 209.882 145.674C210.056 145.674 210.208 145.662 210.339 145.638C210.469 145.614 210.571 145.595 210.643 145.58L211.034 147.37C210.909 147.418 210.73 147.467 210.498 147.515C210.266 147.568 209.976 147.597 209.629 147.602C209.059 147.612 208.527 147.51 208.034 147.298C207.542 147.085 207.143 146.757 206.839 146.312C206.534 145.868 206.382 145.31 206.382 144.638V133.66ZM213.228 147.457V136.327H215.322V138.095H215.438C215.641 137.496 215.999 137.025 216.511 136.682C217.028 136.334 217.612 136.16 218.264 136.16C218.4 136.16 218.559 136.165 218.743 136.175C218.931 136.184 219.078 136.196 219.185 136.211V138.283C219.098 138.259 218.943 138.233 218.721 138.204C218.499 138.17 218.276 138.153 218.054 138.153C217.542 138.153 217.086 138.262 216.685 138.479C216.288 138.691 215.974 138.989 215.743 139.37C215.511 139.747 215.395 140.177 215.395 140.66V147.457H213.228ZM224.199 147.703C223.494 147.703 222.856 147.573 222.286 147.312C221.716 147.046 221.264 146.662 220.931 146.16C220.602 145.658 220.438 145.042 220.438 144.312C220.438 143.684 220.559 143.167 220.8 142.761C221.042 142.356 221.368 142.034 221.779 141.798C222.189 141.561 222.648 141.382 223.156 141.261C223.663 141.141 224.18 141.049 224.706 140.986C225.373 140.909 225.914 140.846 226.329 140.798C226.745 140.745 227.047 140.66 227.235 140.544C227.424 140.428 227.518 140.24 227.518 139.979V139.928C227.518 139.295 227.339 138.805 226.982 138.457C226.629 138.109 226.102 137.935 225.402 137.935C224.672 137.935 224.098 138.097 223.677 138.421C223.262 138.74 222.974 139.095 222.815 139.486L220.779 139.022C221.02 138.346 221.373 137.8 221.837 137.385C222.305 136.964 222.844 136.66 223.453 136.472C224.061 136.278 224.701 136.182 225.373 136.182C225.817 136.182 226.288 136.235 226.786 136.341C227.288 136.443 227.757 136.631 228.192 136.906C228.631 137.182 228.991 137.576 229.271 138.088C229.552 138.595 229.692 139.254 229.692 140.066V147.457H227.576V145.935H227.489C227.349 146.216 227.139 146.491 226.858 146.761C226.578 147.032 226.218 147.257 225.779 147.435C225.339 147.614 224.812 147.703 224.199 147.703ZM224.67 145.964C225.269 145.964 225.781 145.846 226.206 145.609C226.636 145.373 226.962 145.063 227.184 144.682C227.411 144.295 227.525 143.882 227.525 143.443V142.008C227.448 142.085 227.298 142.158 227.076 142.225C226.858 142.288 226.61 142.344 226.329 142.392C226.049 142.435 225.776 142.476 225.511 142.515C225.245 142.549 225.023 142.578 224.844 142.602C224.424 142.655 224.04 142.745 223.692 142.87C223.349 142.996 223.073 143.177 222.866 143.414C222.663 143.646 222.561 143.955 222.561 144.341C222.561 144.877 222.759 145.283 223.156 145.559C223.552 145.829 224.056 145.964 224.67 145.964ZM237.266 147.682C236.188 147.682 235.261 147.438 234.483 146.95C233.71 146.457 233.116 145.778 232.701 144.914C232.285 144.049 232.077 143.059 232.077 141.943C232.077 140.812 232.29 139.815 232.715 138.95C233.14 138.08 233.739 137.402 234.512 136.914C235.285 136.426 236.196 136.182 237.244 136.182C238.089 136.182 238.843 136.339 239.505 136.653C240.167 136.962 240.7 137.397 241.106 137.957C241.517 138.518 241.761 139.172 241.838 139.921H239.729C239.614 139.399 239.348 138.95 238.932 138.573C238.522 138.196 237.971 138.008 237.28 138.008C236.676 138.008 236.147 138.167 235.693 138.486C235.244 138.8 234.894 139.249 234.643 139.834C234.391 140.414 234.266 141.1 234.266 141.892C234.266 142.703 234.389 143.404 234.635 143.993C234.882 144.583 235.23 145.039 235.679 145.363C236.133 145.687 236.667 145.848 237.28 145.848C237.691 145.848 238.063 145.773 238.396 145.624C238.734 145.469 239.017 145.249 239.244 144.964C239.476 144.679 239.638 144.336 239.729 143.935H241.838C241.761 144.655 241.527 145.298 241.135 145.863C240.744 146.428 240.22 146.873 239.563 147.196C238.911 147.52 238.145 147.682 237.266 147.682ZM249.351 136.327V138.066H243.271V136.327H249.351ZM244.902 133.66H247.068V144.189C247.068 144.609 247.131 144.926 247.257 145.138C247.382 145.346 247.544 145.488 247.742 145.566C247.945 145.638 248.165 145.674 248.401 145.674C248.575 145.674 248.728 145.662 248.858 145.638C248.988 145.614 249.09 145.595 249.162 145.58L249.554 147.37C249.428 147.418 249.249 147.467 249.017 147.515C248.785 147.568 248.496 147.597 248.148 147.602C247.578 147.612 247.046 147.51 246.554 147.298C246.061 147.085 245.662 146.757 245.358 146.312C245.054 145.868 244.902 145.31 244.902 144.638V133.66ZM251.747 147.457V136.327H253.914V147.457H251.747ZM252.842 134.609C252.465 134.609 252.141 134.484 251.871 134.233C251.605 133.977 251.472 133.672 251.472 133.32C251.472 132.962 251.605 132.658 251.871 132.407C252.141 132.151 252.465 132.023 252.842 132.023C253.218 132.023 253.54 132.151 253.805 132.407C254.076 132.658 254.211 132.962 254.211 133.32C254.211 133.672 254.076 133.977 253.805 134.233C253.54 134.484 253.218 134.609 252.842 134.609ZM261.517 147.682C260.474 147.682 259.563 147.443 258.785 146.964C258.008 146.486 257.404 145.817 256.974 144.957C256.544 144.097 256.329 143.092 256.329 141.943C256.329 140.788 256.544 139.778 256.974 138.914C257.404 138.049 258.008 137.378 258.785 136.899C259.563 136.421 260.474 136.182 261.517 136.182C262.561 136.182 263.471 136.421 264.249 136.899C265.027 137.378 265.631 138.049 266.061 138.914C266.49 139.778 266.705 140.788 266.705 141.943C266.705 143.092 266.49 144.097 266.061 144.957C265.631 145.817 265.027 146.486 264.249 146.964C263.471 147.443 262.561 147.682 261.517 147.682ZM261.524 145.863C262.201 145.863 262.761 145.684 263.206 145.327C263.65 144.969 263.978 144.493 264.191 143.899C264.408 143.305 264.517 142.65 264.517 141.935C264.517 141.225 264.408 140.573 264.191 139.979C263.978 139.38 263.65 138.899 263.206 138.537C262.761 138.175 262.201 137.993 261.524 137.993C260.843 137.993 260.278 138.175 259.829 138.537C259.384 138.899 259.053 139.38 258.836 139.979C258.623 140.573 258.517 141.225 258.517 141.935C258.517 142.65 258.623 143.305 258.836 143.899C259.053 144.493 259.384 144.969 259.829 145.327C260.278 145.684 260.843 145.863 261.524 145.863ZM271.291 140.848V147.457H269.124V136.327H271.204V138.138H271.341C271.597 137.549 271.998 137.076 272.544 136.718C273.095 136.361 273.788 136.182 274.624 136.182C275.382 136.182 276.046 136.341 276.616 136.66C277.187 136.974 277.629 137.443 277.943 138.066C278.257 138.689 278.414 139.46 278.414 140.377V147.457H276.247V140.638C276.247 139.832 276.037 139.201 275.617 138.747C275.196 138.288 274.619 138.059 273.885 138.059C273.382 138.059 272.935 138.167 272.544 138.385C272.158 138.602 271.851 138.921 271.624 139.341C271.402 139.757 271.291 140.259 271.291 140.848ZM289.66 139.044L287.696 139.392C287.614 139.141 287.483 138.902 287.305 138.675C287.131 138.448 286.894 138.262 286.595 138.117C286.295 137.972 285.921 137.899 285.471 137.899C284.858 137.899 284.346 138.037 283.935 138.312C283.525 138.583 283.319 138.933 283.319 139.363C283.319 139.735 283.457 140.034 283.732 140.262C284.008 140.489 284.452 140.675 285.066 140.819L286.834 141.225C287.858 141.462 288.621 141.827 289.124 142.319C289.626 142.812 289.877 143.452 289.877 144.24C289.877 144.906 289.684 145.501 289.297 146.022C288.916 146.539 288.382 146.945 287.696 147.24C287.015 147.534 286.225 147.682 285.326 147.682C284.08 147.682 283.063 147.416 282.276 146.885C281.488 146.348 281.005 145.588 280.827 144.602L282.921 144.283C283.051 144.829 283.319 145.242 283.725 145.522C284.131 145.798 284.66 145.935 285.312 145.935C286.022 145.935 286.59 145.788 287.015 145.493C287.44 145.194 287.653 144.829 287.653 144.399C287.653 144.051 287.522 143.759 287.261 143.522C287.005 143.286 286.611 143.107 286.08 142.986L284.196 142.573C283.157 142.336 282.389 141.96 281.892 141.443C281.399 140.926 281.153 140.271 281.153 139.479C281.153 138.822 281.336 138.247 281.703 137.754C282.071 137.262 282.578 136.878 283.225 136.602C283.872 136.322 284.614 136.182 285.45 136.182C286.653 136.182 287.599 136.443 288.29 136.964C288.981 137.481 289.438 138.175 289.66 139.044Z" fill="#E3F2FA"/>
<rect x="0.64421" y="101.949" width="335.633" height="76.0167" rx="9.01893" stroke="#375666" stroke-width="1.28842"/>
<rect x="0.64421" y="199.255" width="335.633" height="76.0167" rx="9.01893" fill="#375666"/>
<path opacity="0.2" d="M52.3478 235.223C52.3478 234.546 52.6165 233.897 53.0949 233.419C53.5732 232.941 54.222 232.672 54.8985 232.672C55.575 232.672 56.2237 232.941 56.7021 233.419C57.1804 233.897 57.4492 234.546 57.4492 235.223V240.324C57.4492 243.03 56.3742 245.625 54.4609 247.539C52.5475 249.452 49.9524 250.527 47.2465 250.527C44.5405 250.527 41.9454 249.452 40.0321 247.539C38.1187 245.625 37.0437 243.03 37.0437 240.324V229.611C37.0437 228.935 37.3125 228.286 37.7908 227.808C38.2692 227.329 38.9179 227.061 39.5944 227.061C40.2709 227.061 40.9197 227.329 41.398 227.808C41.8764 228.286 42.1451 228.935 42.1451 229.611V225.53C42.1451 224.854 42.4138 224.205 42.8922 223.727C43.3705 223.248 44.0193 222.979 44.6958 222.979C45.3723 222.979 46.021 223.248 46.4994 223.727C46.9777 224.205 47.2465 224.854 47.2465 225.53V227.571C47.2465 226.894 47.5152 226.245 47.9935 225.767C48.4719 225.289 49.1207 225.02 49.7971 225.02C50.4736 225.02 51.1224 225.289 51.6007 225.767C52.0791 226.245 52.3478 226.894 52.3478 227.571V235.223Z" fill="#E3F2FA"/>
<path d="M47.2465 227.57C47.2465 226.894 47.5152 226.245 47.9935 225.767C48.4719 225.288 49.1207 225.02 49.7971 225.02C50.4736 225.02 51.1224 225.288 51.6007 225.767C52.0791 226.245 52.3478 226.894 52.3478 227.57V235.222" stroke="#E3F2FA" stroke-width="2.04054" stroke-linecap="round" stroke-linejoin="round"/>
<path d="M42.1451 229.611V225.53C42.1451 224.854 42.4138 224.205 42.8922 223.727C43.3705 223.248 44.0193 222.979 44.6958 222.979C45.3723 222.979 46.021 223.248 46.4994 223.727C46.9777 224.205 47.2465 224.854 47.2465 225.53V234.202" stroke="#E3F2FA" stroke-width="2.04054" stroke-linecap="round" stroke-linejoin="round"/>
<path d="M47.2465 242.875C47.2465 241.522 47.7839 240.224 48.7406 239.268C49.6973 238.311 50.9948 237.773 52.3478 237.773V235.223C52.3478 234.546 52.6165 233.897 53.0949 233.419C53.5732 232.941 54.222 232.672 54.8985 232.672C55.575 232.672 56.2237 232.941 56.7021 233.419C57.1804 233.897 57.4492 234.546 57.4492 235.223V240.324C57.4492 243.03 56.3742 245.625 54.4609 247.538C52.5475 249.452 49.9524 250.527 47.2465 250.527C44.5405 250.527 41.9454 249.452 40.0321 247.538C38.1187 245.625 37.0437 243.03 37.0437 240.324V229.611C37.0437 228.935 37.3125 228.286 37.7908 227.808C38.2692 227.329 38.9179 227.061 39.5944 227.061C40.2709 227.061 40.9197 227.329 41.398 227.808C41.8764 228.286 42.1451 228.935 42.1451 229.611V235.223" stroke="#E3F2FA" stroke-width="2.04054" stroke-linecap="round" stroke-linejoin="round"/>
<rect x="21.9031" y="211.919" width="50.6865" height="50.6865" rx="25.3433" stroke="#375666" stroke-width="2.57684"/>
<path d="M90.7956 244.763V233.632H92.8753V235.444H93.013C93.2449 234.831 93.6241 234.352 94.1506 234.009C94.6772 233.661 95.3076 233.488 96.0419 233.488C96.7859 233.488 97.409 233.661 97.9114 234.009C98.4187 234.357 98.7931 234.835 99.0346 235.444H99.1505C99.4162 234.85 99.8389 234.376 100.419 234.024C100.998 233.666 101.689 233.488 102.491 233.488C103.501 233.488 104.324 233.804 104.962 234.437C105.605 235.07 105.926 236.024 105.926 237.299V244.763H103.759V237.502C103.759 236.748 103.554 236.202 103.143 235.864C102.733 235.526 102.242 235.357 101.672 235.357C100.967 235.357 100.419 235.574 100.027 236.009C99.636 236.439 99.4404 236.992 99.4404 237.669V244.763H97.281V237.364C97.281 236.76 97.0926 236.275 96.7158 235.908C96.339 235.541 95.8487 235.357 95.2448 235.357C94.8342 235.357 94.455 235.466 94.1072 235.683C93.7642 235.896 93.4864 236.193 93.2738 236.574C93.0661 236.956 92.9623 237.398 92.9623 237.901V244.763H90.7956ZM115.88 240.147V233.632H118.054V244.763H115.924V242.835H115.808C115.552 243.429 115.141 243.925 114.576 244.321C114.016 244.712 113.318 244.908 112.482 244.908C111.767 244.908 111.134 244.751 110.583 244.437C110.037 244.118 109.607 243.647 109.293 243.024C108.984 242.4 108.83 241.63 108.83 240.712V233.632H110.996V240.451C110.996 241.21 111.206 241.813 111.627 242.263C112.047 242.712 112.593 242.937 113.264 242.937C113.67 242.937 114.074 242.835 114.475 242.632C114.88 242.429 115.216 242.123 115.482 241.712C115.752 241.301 115.885 240.78 115.88 240.147ZM129.306 236.35L127.342 236.698C127.26 236.446 127.13 236.207 126.951 235.98C126.777 235.753 126.54 235.567 126.241 235.422C125.941 235.277 125.567 235.205 125.117 235.205C124.504 235.205 123.992 235.343 123.581 235.618C123.171 235.888 122.965 236.239 122.965 236.669C122.965 237.041 123.103 237.34 123.378 237.567C123.654 237.794 124.098 237.98 124.712 238.125L126.48 238.531C127.504 238.768 128.267 239.132 128.77 239.625C129.272 240.118 129.523 240.758 129.523 241.545C129.523 242.212 129.33 242.806 128.943 243.328C128.562 243.845 128.028 244.251 127.342 244.545C126.661 244.84 125.871 244.987 124.973 244.987C123.726 244.987 122.709 244.722 121.922 244.19C121.134 243.654 120.651 242.893 120.473 241.908L122.567 241.589C122.697 242.135 122.965 242.548 123.371 242.828C123.777 243.103 124.306 243.241 124.958 243.241C125.668 243.241 126.236 243.094 126.661 242.799C127.086 242.499 127.299 242.135 127.299 241.705C127.299 241.357 127.168 241.065 126.907 240.828C126.651 240.591 126.258 240.413 125.726 240.292L123.842 239.879C122.803 239.642 122.035 239.265 121.538 238.748C121.045 238.231 120.799 237.577 120.799 236.785C120.799 236.128 120.982 235.553 121.349 235.06C121.717 234.567 122.224 234.183 122.871 233.908C123.518 233.628 124.26 233.488 125.096 233.488C126.299 233.488 127.245 233.748 127.936 234.27C128.627 234.787 129.084 235.48 129.306 236.35ZM136.594 244.987C135.516 244.987 134.589 244.743 133.811 244.255C133.038 243.763 132.444 243.084 132.029 242.219C131.613 241.355 131.405 240.364 131.405 239.248C131.405 238.118 131.618 237.12 132.043 236.256C132.468 235.386 133.067 234.707 133.84 234.219C134.613 233.731 135.524 233.488 136.572 233.488C137.417 233.488 138.171 233.645 138.833 233.959C139.495 234.268 140.028 234.702 140.434 235.263C140.845 235.823 141.089 236.478 141.166 237.227H139.057C138.941 236.705 138.676 236.256 138.26 235.879C137.85 235.502 137.299 235.314 136.608 235.314C136.004 235.314 135.475 235.473 135.021 235.792C134.572 236.106 134.222 236.555 133.971 237.14C133.719 237.719 133.594 238.405 133.594 239.198C133.594 240.009 133.717 240.71 133.963 241.299C134.21 241.888 134.558 242.345 135.007 242.669C135.461 242.992 135.995 243.154 136.608 243.154C137.019 243.154 137.391 243.079 137.724 242.929C138.062 242.775 138.345 242.555 138.572 242.27C138.804 241.985 138.966 241.642 139.057 241.241H141.166C141.089 241.961 140.854 242.603 140.463 243.169C140.072 243.734 139.548 244.178 138.891 244.502C138.239 244.825 137.473 244.987 136.594 244.987ZM145.65 229.922V244.763H143.483V229.922H145.65ZM153.362 244.987C152.265 244.987 151.32 244.753 150.528 244.284C149.741 243.811 149.132 243.147 148.702 242.292C148.277 241.432 148.065 240.425 148.065 239.27C148.065 238.13 148.277 237.125 148.702 236.256C149.132 235.386 149.731 234.707 150.499 234.219C151.272 233.731 152.176 233.488 153.209 233.488C153.837 233.488 154.446 233.591 155.035 233.799C155.625 234.007 156.154 234.333 156.622 234.777C157.091 235.222 157.46 235.799 157.731 236.509C158.002 237.215 158.137 238.072 158.137 239.082V239.85H149.289V238.227H156.014C156.014 237.657 155.898 237.152 155.666 236.712C155.434 236.268 155.108 235.917 154.688 235.661C154.272 235.405 153.784 235.277 153.224 235.277C152.615 235.277 152.084 235.427 151.63 235.727C151.18 236.021 150.833 236.408 150.586 236.886C150.345 237.359 150.224 237.874 150.224 238.429V239.698C150.224 240.442 150.354 241.074 150.615 241.596C150.881 242.118 151.25 242.516 151.724 242.792C152.197 243.062 152.75 243.198 153.383 243.198C153.794 243.198 154.168 243.14 154.506 243.024C154.845 242.903 155.137 242.724 155.383 242.487C155.63 242.251 155.818 241.958 155.948 241.611L157.999 241.98C157.835 242.584 157.54 243.113 157.115 243.567C156.695 244.016 156.166 244.367 155.528 244.618C154.895 244.864 154.173 244.987 153.362 244.987ZM165.941 244.763V233.632H168.021V235.444H168.158C168.39 234.831 168.769 234.352 169.296 234.009C169.823 233.661 170.453 233.488 171.187 233.488C171.931 233.488 172.554 233.661 173.057 234.009C173.564 234.357 173.938 234.835 174.18 235.444H174.296C174.562 234.85 174.984 234.376 175.564 234.024C176.144 233.666 176.835 233.488 177.636 233.488C178.646 233.488 179.47 233.804 180.107 234.437C180.75 235.07 181.071 236.024 181.071 237.299V244.763H178.905V237.502C178.905 236.748 178.699 236.202 178.289 235.864C177.878 235.526 177.388 235.357 176.818 235.357C176.112 235.357 175.564 235.574 175.173 236.009C174.781 236.439 174.586 236.992 174.586 237.669V244.763H172.426V237.364C172.426 236.76 172.238 236.275 171.861 235.908C171.484 235.541 170.994 235.357 170.39 235.357C169.98 235.357 169.6 235.466 169.253 235.683C168.91 235.896 168.632 236.193 168.419 236.574C168.211 236.956 168.108 237.398 168.108 237.901V244.763H165.941ZM188.772 244.987C187.675 244.987 186.731 244.753 185.939 244.284C185.151 243.811 184.543 243.147 184.113 242.292C183.688 241.432 183.475 240.425 183.475 239.27C183.475 238.13 183.688 237.125 184.113 236.256C184.543 235.386 185.142 234.707 185.91 234.219C186.683 233.731 187.586 233.488 188.62 233.488C189.248 233.488 189.857 233.591 190.446 233.799C191.035 234.007 191.564 234.333 192.033 234.777C192.501 235.222 192.871 235.799 193.142 236.509C193.412 237.215 193.547 238.072 193.547 239.082V239.85H184.7V238.227H191.424C191.424 237.657 191.308 237.152 191.076 236.712C190.845 236.268 190.518 235.917 190.098 235.661C189.683 235.405 189.195 235.277 188.634 235.277C188.026 235.277 187.494 235.427 187.04 235.727C186.591 236.021 186.243 236.408 185.997 236.886C185.755 237.359 185.634 237.874 185.634 238.429V239.698C185.634 240.442 185.765 241.074 186.026 241.596C186.291 242.118 186.661 242.516 187.134 242.792C187.608 243.062 188.161 243.198 188.794 243.198C189.204 243.198 189.579 243.14 189.917 243.024C190.255 242.903 190.547 242.724 190.794 242.487C191.04 242.251 191.229 241.958 191.359 241.611L193.41 241.98C193.245 242.584 192.951 243.113 192.526 243.567C192.105 244.016 191.576 244.367 190.939 244.618C190.306 244.864 189.584 244.987 188.772 244.987ZM195.951 244.763V233.632H198.031V235.444H198.169C198.401 234.831 198.78 234.352 199.306 234.009C199.833 233.661 200.463 233.488 201.198 233.488C201.942 233.488 202.565 233.661 203.067 234.009C203.574 234.357 203.949 234.835 204.19 235.444H204.306C204.572 234.85 204.995 234.376 205.574 234.024C206.154 233.666 206.845 233.488 207.647 233.488C208.656 233.488 209.48 233.804 210.118 234.437C210.76 235.07 211.081 236.024 211.081 237.299V244.763H208.915V237.502C208.915 236.748 208.71 236.202 208.299 235.864C207.888 235.526 207.398 235.357 206.828 235.357C206.123 235.357 205.574 235.574 205.183 236.009C204.792 236.439 204.596 236.992 204.596 237.669V244.763H202.437V237.364C202.437 236.76 202.248 236.275 201.871 235.908C201.495 235.541 201.004 235.357 200.401 235.357C199.99 235.357 199.611 235.466 199.263 235.683C198.92 235.896 198.642 236.193 198.43 236.574C198.222 236.956 198.118 237.398 198.118 237.901V244.763H195.951ZM218.674 244.987C217.63 244.987 216.72 244.748 215.942 244.27C215.164 243.792 214.56 243.123 214.13 242.263C213.7 241.403 213.485 240.398 213.485 239.248C213.485 238.094 213.7 237.084 214.13 236.219C214.56 235.355 215.164 234.683 215.942 234.205C216.72 233.727 217.63 233.488 218.674 233.488C219.717 233.488 220.628 233.727 221.406 234.205C222.183 234.683 222.787 235.355 223.217 236.219C223.647 237.084 223.862 238.094 223.862 239.248C223.862 240.398 223.647 241.403 223.217 242.263C222.787 243.123 222.183 243.792 221.406 244.27C220.628 244.748 219.717 244.987 218.674 244.987ZM218.681 243.169C219.357 243.169 219.918 242.99 220.362 242.632C220.807 242.275 221.135 241.799 221.348 241.205C221.565 240.611 221.674 239.956 221.674 239.241C221.674 238.531 221.565 237.879 221.348 237.285C221.135 236.686 220.807 236.205 220.362 235.843C219.918 235.48 219.357 235.299 218.681 235.299C218 235.299 217.435 235.48 216.985 235.843C216.541 236.205 216.21 236.686 215.993 237.285C215.78 237.879 215.674 238.531 215.674 239.241C215.674 239.956 215.78 240.611 215.993 241.205C216.21 241.799 216.541 242.275 216.985 242.632C217.435 242.99 218 243.169 218.681 243.169ZM226.28 244.763V233.632H228.375V235.401H228.491C228.693 234.802 229.051 234.331 229.563 233.988C230.08 233.64 230.664 233.466 231.317 233.466C231.452 233.466 231.611 233.471 231.795 233.48C231.983 233.49 232.131 233.502 232.237 233.517V235.589C232.15 235.565 231.995 235.538 231.773 235.509C231.551 235.475 231.329 235.459 231.106 235.459C230.594 235.459 230.138 235.567 229.737 235.785C229.341 235.997 229.027 236.294 228.795 236.676C228.563 237.053 228.447 237.483 228.447 237.966V244.763H226.28ZM235.82 248.937C235.496 248.937 235.202 248.91 234.936 248.857C234.67 248.809 234.472 248.755 234.342 248.697L234.864 246.922C235.26 247.028 235.612 247.074 235.922 247.06C236.231 247.045 236.504 246.929 236.74 246.712C236.982 246.495 237.195 246.139 237.378 245.647L237.646 244.908L233.574 233.632H235.893L238.711 242.27H238.827L241.646 233.632H243.972L239.385 246.248C239.173 246.828 238.902 247.318 238.574 247.719C238.245 248.125 237.854 248.429 237.4 248.632C236.946 248.835 236.419 248.937 235.82 248.937Z" fill="#E3F2FA"/>
<rect x="0.64421" y="199.255" width="335.633" height="76.0167" rx="9.01893" stroke="#375666" stroke-width="1.28842"/>
<rect x="0.64421" y="296.559" width="335.633" height="76.0167" rx="9.01893" fill="#375666"/>
<path opacity="0.2" d="M41.1248 338.648C43.3787 338.648 45.2059 336.821 45.2059 334.567C45.2059 332.313 43.3787 330.486 41.1248 330.486C38.8709 330.486 37.0437 332.313 37.0437 334.567C37.0437 336.821 38.8709 338.648 41.1248 338.648Z" fill="#E3F2FA"/>
<path d="M53.3681 326.405H41.1248C36.617 326.405 32.9626 330.06 32.9626 334.567C32.9626 339.075 36.617 342.73 41.1248 342.73H53.3681C57.8759 342.73 61.5302 339.075 61.5302 334.567C61.5302 330.06 57.8759 326.405 53.3681 326.405Z" stroke="#E3F2FA" stroke-width="2.04054" stroke-linecap="round" stroke-linejoin="round"/>
<path d="M41.1248 338.648C43.3787 338.648 45.2059 336.821 45.2059 334.567C45.2059 332.313 43.3787 330.486 41.1248 330.486C38.8709 330.486 37.0437 332.313 37.0437 334.567C37.0437 336.821 38.8709 338.648 41.1248 338.648Z" stroke="#E3F2FA" stroke-width="2.04054" stroke-linecap="round" stroke-linejoin="round"/>
<rect x="21.9031" y="309.224" width="50.6865" height="50.6865" rx="25.3433" stroke="#375666" stroke-width="2.57684"/>
<path d="M96.0926 330.937V332.676H89.8029V330.937H96.0926ZM91.5275 342.067V329.647C91.5275 328.952 91.6797 328.374 91.984 327.915C92.2884 327.452 92.6917 327.106 93.1941 326.879C93.6965 326.647 94.2424 326.531 94.8318 326.531C95.2666 326.531 95.6385 326.568 95.9477 326.64C96.2569 326.708 96.4863 326.771 96.6361 326.829L96.1289 328.582C96.0274 328.553 95.897 328.519 95.7376 328.481C95.5782 328.437 95.3849 328.415 95.1579 328.415C94.6313 328.415 94.2545 328.546 94.0275 328.807C93.8052 329.068 93.6941 329.444 93.6941 329.937V342.067H91.5275ZM101.228 342.314C100.523 342.314 99.8854 342.183 99.3154 341.922C98.7454 341.657 98.2937 341.273 97.9604 340.77C97.6319 340.268 97.4676 339.652 97.4676 338.923C97.4676 338.295 97.5884 337.778 97.8299 337.372C98.0715 336.966 98.3975 336.645 98.8082 336.408C99.2188 336.171 99.6777 335.993 100.185 335.872C100.692 335.751 101.209 335.659 101.736 335.596C102.402 335.519 102.943 335.456 103.359 335.408C103.774 335.355 104.076 335.27 104.265 335.154C104.453 335.039 104.547 334.85 104.547 334.589V334.539C104.547 333.906 104.368 333.415 104.011 333.068C103.658 332.72 103.132 332.546 102.431 332.546C101.702 332.546 101.127 332.708 100.707 333.031C100.291 333.35 100.004 333.705 99.8444 334.097L97.8082 333.633C98.0497 332.956 98.4024 332.411 98.8661 331.995C99.3347 331.575 99.8734 331.27 100.482 331.082C101.091 330.889 101.731 330.792 102.402 330.792C102.847 330.792 103.318 330.845 103.815 330.952C104.318 331.053 104.786 331.241 105.221 331.517C105.661 331.792 106.021 332.186 106.301 332.698C106.581 333.205 106.721 333.865 106.721 334.676V342.067H104.605V340.546H104.518C104.378 340.826 104.168 341.101 103.888 341.372C103.608 341.642 103.248 341.867 102.808 342.046C102.368 342.224 101.842 342.314 101.228 342.314ZM101.699 340.575C102.298 340.575 102.811 340.456 103.236 340.22C103.666 339.983 103.992 339.674 104.214 339.292C104.441 338.906 104.554 338.493 104.554 338.053V336.618C104.477 336.696 104.327 336.768 104.105 336.836C103.888 336.898 103.639 336.954 103.359 337.002C103.079 337.046 102.806 337.087 102.54 337.125C102.274 337.159 102.052 337.188 101.873 337.212C101.453 337.266 101.069 337.355 100.721 337.481C100.378 337.606 100.103 337.787 99.8951 338.024C99.6922 338.256 99.5908 338.565 99.5908 338.951C99.5908 339.488 99.7888 339.894 100.185 340.169C100.581 340.439 101.086 340.575 101.699 340.575ZM109.607 342.067V330.937H111.687V332.749H111.824C112.056 332.135 112.435 331.657 112.962 331.314C113.488 330.966 114.119 330.792 114.853 330.792C115.597 330.792 116.22 330.966 116.723 331.314C117.23 331.662 117.604 332.14 117.846 332.749H117.962C118.227 332.155 118.65 331.681 119.23 331.328C119.81 330.971 120.5 330.792 121.302 330.792C122.312 330.792 123.136 331.109 123.773 331.741C124.416 332.374 124.737 333.328 124.737 334.604V342.067H122.57V334.807C122.57 334.053 122.365 333.507 121.954 333.169C121.544 332.831 121.054 332.662 120.483 332.662C119.778 332.662 119.23 332.879 118.839 333.314C118.447 333.744 118.252 334.297 118.252 334.973V342.067H116.092V334.669C116.092 334.065 115.904 333.58 115.527 333.212C115.15 332.845 114.66 332.662 114.056 332.662C113.645 332.662 113.266 332.77 112.918 332.988C112.575 333.2 112.298 333.497 112.085 333.879C111.877 334.261 111.774 334.703 111.774 335.205V342.067H109.607ZM127.641 342.067V330.937H129.808V342.067H127.641ZM128.735 329.22C128.358 329.22 128.035 329.094 127.764 328.843C127.498 328.587 127.366 328.283 127.366 327.93C127.366 327.572 127.498 327.268 127.764 327.017C128.035 326.761 128.358 326.633 128.735 326.633C129.112 326.633 129.433 326.761 129.699 327.017C129.969 327.268 130.105 327.572 130.105 327.93C130.105 328.283 129.969 328.587 129.699 328.843C129.433 329.094 129.112 329.22 128.735 329.22ZM134.889 327.227V342.067H132.722V327.227H134.889ZM137.804 342.067V330.937H139.97V342.067H137.804ZM138.898 329.22C138.521 329.22 138.198 329.094 137.927 328.843C137.661 328.587 137.528 328.283 137.528 327.93C137.528 327.572 137.661 327.268 137.927 327.017C138.198 326.761 138.521 326.633 138.898 326.633C139.275 326.633 139.596 326.761 139.862 327.017C140.132 327.268 140.268 327.572 140.268 327.93C140.268 328.283 140.132 328.587 139.862 328.843C139.596 329.094 139.275 329.22 138.898 329.22ZM146.124 342.314C145.419 342.314 144.781 342.183 144.211 341.922C143.641 341.657 143.19 341.273 142.856 340.77C142.528 340.268 142.364 339.652 142.364 338.923C142.364 338.295 142.484 337.778 142.726 337.372C142.967 336.966 143.293 336.645 143.704 336.408C144.115 336.171 144.574 335.993 145.081 335.872C145.588 335.751 146.105 335.659 146.632 335.596C147.298 335.519 147.839 335.456 148.255 335.408C148.67 335.355 148.972 335.27 149.16 335.154C149.349 335.039 149.443 334.85 149.443 334.589V334.539C149.443 333.906 149.264 333.415 148.907 333.068C148.554 332.72 148.028 332.546 147.327 332.546C146.598 332.546 146.023 332.708 145.603 333.031C145.187 333.35 144.9 333.705 144.74 334.097L142.704 333.633C142.946 332.956 143.298 332.411 143.762 331.995C144.231 331.575 144.769 331.27 145.378 331.082C145.987 330.889 146.627 330.792 147.298 330.792C147.743 330.792 148.214 330.845 148.711 330.952C149.214 331.053 149.682 331.241 150.117 331.517C150.557 331.792 150.917 332.186 151.197 332.698C151.477 333.205 151.617 333.865 151.617 334.676V342.067H149.501V340.546H149.414C149.274 340.826 149.064 341.101 148.784 341.372C148.504 341.642 148.144 341.867 147.704 342.046C147.264 342.224 146.738 342.314 146.124 342.314ZM146.595 340.575C147.194 340.575 147.706 340.456 148.132 340.22C148.561 339.983 148.888 339.674 149.11 339.292C149.337 338.906 149.45 338.493 149.45 338.053V336.618C149.373 336.696 149.223 336.768 149.001 336.836C148.784 336.898 148.535 336.954 148.255 337.002C147.975 337.046 147.702 337.087 147.436 337.125C147.17 337.159 146.948 337.188 146.769 337.212C146.349 337.266 145.965 337.355 145.617 337.481C145.274 337.606 144.999 337.787 144.791 338.024C144.588 338.256 144.487 338.565 144.487 338.951C144.487 339.488 144.685 339.894 145.081 340.169C145.477 340.439 145.982 340.575 146.595 340.575ZM154.503 342.067V330.937H156.597V332.705H156.713C156.916 332.106 157.273 331.635 157.785 331.292C158.302 330.944 158.887 330.77 159.539 330.77C159.674 330.77 159.834 330.775 160.017 330.785C160.206 330.795 160.353 330.807 160.459 330.821V332.894C160.372 332.869 160.218 332.843 159.995 332.814C159.773 332.78 159.551 332.763 159.329 332.763C158.817 332.763 158.36 332.872 157.959 333.089C157.563 333.302 157.249 333.599 157.017 333.981C156.785 334.357 156.669 334.787 156.669 335.27V342.067H154.503ZM162.334 342.067V330.937H164.501V342.067H162.334ZM163.428 329.22C163.052 329.22 162.728 329.094 162.457 328.843C162.192 328.587 162.059 328.283 162.059 327.93C162.059 327.572 162.192 327.268 162.457 327.017C162.728 326.761 163.052 326.633 163.428 326.633C163.805 326.633 164.126 326.761 164.392 327.017C164.663 327.268 164.798 327.572 164.798 327.93C164.798 328.283 164.663 328.587 164.392 328.843C164.126 329.094 163.805 329.22 163.428 329.22ZM172.611 330.937V332.676H166.532V330.937H172.611ZM168.162 328.271H170.329V338.799C170.329 339.22 170.391 339.536 170.517 339.749C170.643 339.956 170.804 340.099 171.002 340.176C171.205 340.249 171.425 340.285 171.662 340.285C171.836 340.285 171.988 340.273 172.118 340.249C172.249 340.224 172.35 340.205 172.423 340.191L172.814 341.98C172.688 342.029 172.51 342.077 172.278 342.125C172.046 342.178 171.756 342.207 171.408 342.212C170.838 342.222 170.307 342.121 169.814 341.908C169.321 341.695 168.923 341.367 168.618 340.922C168.314 340.478 168.162 339.92 168.162 339.249V328.271ZM176.377 346.241C176.054 346.241 175.759 346.215 175.493 346.162C175.228 346.113 175.03 346.06 174.899 346.002L175.421 344.227C175.817 344.333 176.17 344.379 176.479 344.364C176.788 344.35 177.061 344.234 177.298 344.017C177.539 343.799 177.752 343.444 177.935 342.951L178.203 342.212L174.131 330.937H176.45L179.269 339.575H179.385L182.203 330.937H184.529L179.943 343.553C179.73 344.133 179.459 344.623 179.131 345.024C178.802 345.43 178.411 345.734 177.957 345.937C177.503 346.14 176.976 346.241 176.377 346.241ZM195.205 342.314C194.5 342.314 193.862 342.183 193.292 341.922C192.722 341.657 192.27 341.273 191.937 340.77C191.608 340.268 191.444 339.652 191.444 338.923C191.444 338.295 191.565 337.778 191.806 337.372C192.048 336.966 192.374 336.645 192.785 336.408C193.195 336.171 193.654 335.993 194.161 335.872C194.669 335.751 195.186 335.659 195.712 335.596C196.379 335.519 196.92 335.456 197.335 335.408C197.751 335.355 198.053 335.27 198.241 335.154C198.43 335.039 198.524 334.85 198.524 334.589V334.539C198.524 333.906 198.345 333.415 197.988 333.068C197.635 332.72 197.108 332.546 196.408 332.546C195.678 332.546 195.103 332.708 194.683 333.031C194.268 333.35 193.98 333.705 193.821 334.097L191.785 333.633C192.026 332.956 192.379 332.411 192.843 331.995C193.311 331.575 193.85 331.27 194.459 331.082C195.067 330.889 195.707 330.792 196.379 330.792C196.823 330.792 197.294 330.845 197.792 330.952C198.294 331.053 198.763 331.241 199.198 331.517C199.637 331.792 199.997 332.186 200.277 332.698C200.558 333.205 200.698 333.865 200.698 334.676V342.067H198.582V340.546H198.495C198.355 340.826 198.145 341.101 197.864 341.372C197.584 341.642 197.224 341.867 196.785 342.046C196.345 342.224 195.818 342.314 195.205 342.314ZM195.676 340.575C196.275 340.575 196.787 340.456 197.212 340.22C197.642 339.983 197.968 339.674 198.19 339.292C198.417 338.906 198.531 338.493 198.531 338.053V336.618C198.454 336.696 198.304 336.768 198.082 336.836C197.864 336.898 197.616 336.954 197.335 337.002C197.055 337.046 196.782 337.087 196.517 337.125C196.251 337.159 196.029 337.188 195.85 337.212C195.43 337.266 195.046 337.355 194.698 337.481C194.355 337.606 194.079 337.787 193.872 338.024C193.669 338.256 193.567 338.565 193.567 338.951C193.567 339.488 193.765 339.894 194.161 340.169C194.558 340.439 195.062 340.575 195.676 340.575ZM205.75 335.459V342.067H203.583V330.937H205.663V332.749H205.801C206.057 332.159 206.458 331.686 207.004 331.328C207.554 330.971 208.248 330.792 209.083 330.792C209.842 330.792 210.506 330.952 211.076 331.27C211.646 331.584 212.088 332.053 212.402 332.676C212.716 333.299 212.873 334.07 212.873 334.988V342.067H210.706V335.249C210.706 334.442 210.496 333.811 210.076 333.357C209.656 332.898 209.078 332.669 208.344 332.669C207.842 332.669 207.395 332.778 207.004 332.995C206.617 333.212 206.31 333.531 206.083 333.952C205.861 334.367 205.75 334.869 205.75 335.459ZM219.945 342.285C219.047 342.285 218.245 342.055 217.54 341.596C216.839 341.133 216.288 340.473 215.888 339.618C215.491 338.758 215.293 337.727 215.293 336.524C215.293 335.321 215.494 334.292 215.895 333.437C216.301 332.582 216.856 331.927 217.561 331.473C218.267 331.019 219.066 330.792 219.96 330.792C220.651 330.792 221.206 330.908 221.627 331.14C222.052 331.367 222.38 331.633 222.612 331.937C222.849 332.241 223.032 332.51 223.163 332.741H223.293V327.227H225.46V342.067H223.344V340.336H223.163C223.032 340.572 222.844 340.843 222.598 341.147C222.356 341.451 222.023 341.717 221.598 341.944C221.172 342.171 220.622 342.285 219.945 342.285ZM220.424 340.437C221.047 340.437 221.573 340.273 222.003 339.944C222.438 339.611 222.767 339.15 222.989 338.56C223.216 337.971 223.329 337.285 223.329 336.502C223.329 335.729 223.218 335.053 222.996 334.473C222.774 333.894 222.448 333.442 222.018 333.118C221.588 332.795 221.057 332.633 220.424 332.633C219.772 332.633 219.228 332.802 218.793 333.14C218.358 333.478 218.03 333.94 217.808 334.524C217.59 335.109 217.482 335.768 217.482 336.502C217.482 337.246 217.593 337.915 217.815 338.509C218.037 339.104 218.366 339.575 218.801 339.922C219.24 340.265 219.781 340.437 220.424 340.437ZM238.641 342.292C237.563 342.292 236.636 342.048 235.858 341.56C235.085 341.067 234.491 340.389 234.076 339.524C233.66 338.659 233.452 337.669 233.452 336.553C233.452 335.423 233.665 334.425 234.09 333.56C234.515 332.691 235.114 332.012 235.887 331.524C236.66 331.036 237.571 330.792 238.619 330.792C239.464 330.792 240.218 330.949 240.88 331.263C241.542 331.572 242.075 332.007 242.481 332.568C242.892 333.128 243.136 333.783 243.213 334.531H241.104C240.989 334.01 240.723 333.56 240.307 333.183C239.897 332.807 239.346 332.618 238.655 332.618C238.051 332.618 237.522 332.778 237.068 333.097C236.619 333.411 236.269 333.86 236.018 334.444C235.766 335.024 235.641 335.71 235.641 336.502C235.641 337.314 235.764 338.014 236.01 338.604C236.257 339.193 236.605 339.65 237.054 339.973C237.508 340.297 238.042 340.459 238.655 340.459C239.066 340.459 239.438 340.384 239.771 340.234C240.109 340.079 240.392 339.86 240.619 339.575C240.851 339.29 241.013 338.947 241.104 338.546H243.213C243.136 339.266 242.902 339.908 242.51 340.473C242.119 341.038 241.595 341.483 240.938 341.807C240.286 342.13 239.52 342.292 238.641 342.292ZM250.218 342.292C249.175 342.292 248.264 342.053 247.487 341.575C246.709 341.096 246.105 340.427 245.675 339.567C245.245 338.708 245.03 337.703 245.03 336.553C245.03 335.398 245.245 334.389 245.675 333.524C246.105 332.659 246.709 331.988 247.487 331.51C248.264 331.031 249.175 330.792 250.218 330.792C251.262 330.792 252.173 331.031 252.95 331.51C253.728 331.988 254.332 332.659 254.762 333.524C255.192 334.389 255.407 335.398 255.407 336.553C255.407 337.703 255.192 338.708 254.762 339.567C254.332 340.427 253.728 341.096 252.95 341.575C252.173 342.053 251.262 342.292 250.218 342.292ZM250.226 340.473C250.902 340.473 251.462 340.294 251.907 339.937C252.351 339.58 252.68 339.104 252.892 338.509C253.11 337.915 253.218 337.261 253.218 336.546C253.218 335.836 253.11 335.183 252.892 334.589C252.68 333.99 252.351 333.51 251.907 333.147C251.462 332.785 250.902 332.604 250.226 332.604C249.545 332.604 248.979 332.785 248.53 333.147C248.086 333.51 247.755 333.99 247.537 334.589C247.325 335.183 247.218 335.836 247.218 336.546C247.218 337.261 247.325 337.915 247.537 338.509C247.755 339.104 248.086 339.58 248.53 339.937C248.979 340.294 249.545 340.473 250.226 340.473ZM259.992 335.459V342.067H257.825V330.937H259.905V332.749H260.043C260.299 332.159 260.7 331.686 261.245 331.328C261.796 330.971 262.489 330.792 263.325 330.792C264.084 330.792 264.748 330.952 265.318 331.27C265.888 331.584 266.33 332.053 266.644 332.676C266.958 333.299 267.115 334.07 267.115 334.988V342.067H264.948V335.249C264.948 334.442 264.738 333.811 264.318 333.357C263.898 332.898 263.32 332.669 262.586 332.669C262.084 332.669 261.637 332.778 261.245 332.995C260.859 333.212 260.552 333.531 260.325 333.952C260.103 334.367 259.992 334.869 259.992 335.459ZM275.216 330.937V332.676H269.137V330.937H275.216ZM270.767 328.271H272.934V338.799C272.934 339.22 272.996 339.536 273.122 339.749C273.248 339.956 273.409 340.099 273.607 340.176C273.81 340.249 274.03 340.285 274.267 340.285C274.441 340.285 274.593 340.273 274.723 340.249C274.854 340.224 274.955 340.205 275.028 340.191L275.419 341.98C275.293 342.029 275.115 342.077 274.883 342.125C274.651 342.178 274.361 342.207 274.013 342.212C273.443 342.222 272.912 342.121 272.419 341.908C271.926 341.695 271.528 341.367 271.223 340.922C270.919 340.478 270.767 339.92 270.767 339.249V328.271ZM277.613 342.067V330.937H279.707V332.705H279.823C280.026 332.106 280.383 331.635 280.895 331.292C281.412 330.944 281.997 330.77 282.649 330.77C282.784 330.77 282.944 330.775 283.127 330.785C283.316 330.795 283.463 330.807 283.569 330.821V332.894C283.482 332.869 283.328 332.843 283.105 332.814C282.883 332.78 282.661 332.763 282.439 332.763C281.927 332.763 281.47 332.872 281.069 333.089C280.673 333.302 280.359 333.599 280.127 333.981C279.895 334.357 279.779 334.787 279.779 335.27V342.067H277.613ZM289.734 342.292C288.691 342.292 287.78 342.053 287.002 341.575C286.224 341.096 285.621 340.427 285.191 339.567C284.761 338.708 284.546 337.703 284.546 336.553C284.546 335.398 284.761 334.389 285.191 333.524C285.621 332.659 286.224 331.988 287.002 331.51C287.78 331.031 288.691 330.792 289.734 330.792C290.777 330.792 291.688 331.031 292.466 331.51C293.244 331.988 293.847 332.659 294.277 333.524C294.707 334.389 294.922 335.398 294.922 336.553C294.922 337.703 294.707 338.708 294.277 339.567C293.847 340.427 293.244 341.096 292.466 341.575C291.688 342.053 290.777 342.292 289.734 342.292ZM289.741 340.473C290.418 340.473 290.978 340.294 291.422 339.937C291.867 339.58 292.195 339.104 292.408 338.509C292.625 337.915 292.734 337.261 292.734 336.546C292.734 335.836 292.625 335.183 292.408 334.589C292.195 333.99 291.867 333.51 291.422 333.147C290.978 332.785 290.418 332.604 289.741 332.604C289.06 332.604 288.495 332.785 288.046 333.147C287.601 333.51 287.27 333.99 287.053 334.589C286.84 335.183 286.734 335.836 286.734 336.546C286.734 337.261 286.84 337.915 287.053 338.509C287.27 339.104 287.601 339.58 288.046 339.937C288.495 340.294 289.06 340.473 289.741 340.473ZM299.507 327.227V342.067H297.341V327.227H299.507Z" fill="#E3F2FA"/>
<rect x="0.64421" y="296.559" width="335.633" height="76.0167" rx="9.01893" stroke="#375666" stroke-width="1.28842"/>
<g opacity="0.3" filter="url(#filter0_d_340_3286)">
<circle cx="968.427" cy="187.334" r="185.533" fill="#8599A2"/>
<circle cx="968.427" cy="187.334" r="185.168" stroke="#375666" stroke-width="0.730547"/>
</g>
<path d="M916.342 186.352V193H913.152V181.5H916.192V183.529H916.327C916.581 182.86 917.008 182.331 917.607 181.942C918.206 181.547 918.932 181.35 919.786 181.35C920.584 181.35 921.281 181.525 921.875 181.874C922.469 182.224 922.93 182.723 923.26 183.372C923.589 184.016 923.754 184.784 923.754 185.678V193H920.565V186.247C920.57 185.543 920.39 184.994 920.025 184.6C919.661 184.2 919.159 184.001 918.521 184.001C918.091 184.001 917.712 184.093 917.383 184.278C917.058 184.462 916.804 184.732 916.619 185.086C916.439 185.436 916.347 185.857 916.342 186.352ZM931.509 193.225C930.326 193.225 929.307 192.985 928.454 192.506C927.605 192.022 926.952 191.338 926.492 190.454C926.033 189.566 925.804 188.515 925.804 187.302C925.804 186.119 926.033 185.081 926.492 184.188C926.952 183.294 927.598 182.598 928.431 182.099C929.27 181.6 930.253 181.35 931.381 181.35C932.14 181.35 932.846 181.473 933.5 181.717C934.159 181.957 934.733 182.319 935.222 182.803C935.716 183.287 936.101 183.896 936.375 184.63C936.65 185.358 936.787 186.212 936.787 187.19V188.066H927.076V186.09H933.785C933.785 185.63 933.685 185.224 933.485 184.869C933.286 184.515 933.009 184.238 932.654 184.038C932.305 183.833 931.898 183.731 931.434 183.731C930.95 183.731 930.52 183.843 930.146 184.068C929.777 184.288 929.487 184.585 929.278 184.959C929.068 185.328 928.961 185.74 928.956 186.194V188.074C928.956 188.643 929.06 189.134 929.27 189.549C929.485 189.963 929.787 190.282 930.176 190.507C930.565 190.731 931.027 190.844 931.561 190.844C931.915 190.844 932.24 190.794 932.534 190.694C932.829 190.594 933.081 190.444 933.291 190.245C933.5 190.045 933.66 189.801 933.77 189.511L936.72 189.706C936.57 190.414 936.263 191.033 935.799 191.563C935.339 192.087 934.745 192.496 934.017 192.79C933.293 193.08 932.457 193.225 931.509 193.225ZM941.055 193L937.925 181.5H941.152L942.934 189.227H943.039L944.895 181.5H948.062L949.949 189.182H950.046L951.798 181.5H955.018L951.896 193H948.519L946.542 185.768H946.4L944.424 193H941.055ZM961.599 193V181.5H964.639V183.529H964.773C965.013 182.855 965.412 182.324 965.971 181.934C966.53 181.545 967.199 181.35 967.978 181.35C968.766 181.35 969.438 181.547 969.992 181.942C970.546 182.331 970.915 182.86 971.1 183.529H971.22C971.454 182.87 971.878 182.344 972.492 181.949C973.111 181.55 973.842 181.35 974.686 181.35C975.759 181.35 976.63 181.692 977.299 182.376C977.973 183.055 978.31 184.018 978.31 185.266V193H975.128V185.895C975.128 185.256 974.958 184.777 974.619 184.457C974.279 184.138 973.855 183.978 973.346 183.978C972.767 183.978 972.315 184.163 971.991 184.532C971.666 184.897 971.504 185.378 971.504 185.977V193H968.412V185.827C968.412 185.263 968.25 184.814 967.925 184.48C967.606 184.145 967.184 183.978 966.66 183.978C966.306 183.978 965.986 184.068 965.702 184.248C965.422 184.422 965.2 184.669 965.035 184.989C964.871 185.303 964.788 185.673 964.788 186.097V193H961.599ZM986.07 193.225C984.887 193.225 983.869 192.985 983.015 192.506C982.167 192.022 981.513 191.338 981.054 190.454C980.595 189.566 980.365 188.515 980.365 187.302C980.365 186.119 980.595 185.081 981.054 184.188C981.513 183.294 982.159 182.598 982.993 182.099C983.831 181.6 984.815 181.35 985.943 181.35C986.701 181.35 987.408 181.473 988.062 181.717C988.72 181.957 989.294 182.319 989.784 182.803C990.278 183.287 990.662 183.896 990.937 184.63C991.211 185.358 991.348 186.212 991.348 187.19V188.066H981.638V186.09H988.346C988.346 185.63 988.246 185.224 988.047 184.869C987.847 184.515 987.57 184.238 987.215 184.038C986.866 183.833 986.459 183.731 985.995 183.731C985.511 183.731 985.082 183.843 984.707 184.068C984.338 184.288 984.048 184.585 983.839 184.959C983.629 185.328 983.522 185.74 983.517 186.194V188.074C983.517 188.643 983.622 189.134 983.831 189.549C984.046 189.963 984.348 190.282 984.737 190.507C985.127 190.731 985.588 190.844 986.122 190.844C986.477 190.844 986.801 190.794 987.096 190.694C987.39 190.594 987.642 190.444 987.852 190.245C988.062 190.045 988.221 189.801 988.331 189.511L991.281 189.706C991.131 190.414 990.824 191.033 990.36 191.563C989.901 192.087 989.307 192.496 988.578 192.79C987.854 193.08 987.018 193.225 986.07 193.225ZM996.709 193.217C995.975 193.217 995.321 193.09 994.747 192.835C994.173 192.576 993.719 192.194 993.385 191.69C993.055 191.181 992.891 190.547 992.891 189.788C992.891 189.149 993.008 188.613 993.243 188.178C993.477 187.744 993.797 187.395 994.201 187.13C994.605 186.866 995.064 186.666 995.578 186.531C996.098 186.396 996.642 186.302 997.211 186.247C997.879 186.177 998.419 186.112 998.828 186.052C999.237 185.987 999.534 185.892 999.719 185.768C999.903 185.643 999.996 185.458 999.996 185.214V185.169C999.996 184.694 999.846 184.328 999.547 184.068C999.252 183.808 998.833 183.679 998.289 183.679C997.715 183.679 997.258 183.806 996.919 184.061C996.579 184.31 996.355 184.625 996.245 185.004L993.295 184.764C993.445 184.066 993.739 183.462 994.178 182.952C994.618 182.438 995.184 182.044 995.878 181.77C996.577 181.49 997.385 181.35 998.304 181.35C998.943 181.35 999.554 181.425 1000.14 181.575C1000.73 181.725 1001.25 181.957 1001.7 182.271C1002.16 182.586 1002.52 182.99 1002.79 183.484C1003.05 183.973 1003.19 184.56 1003.19 185.243V193H1000.16V191.405H1000.07C999.886 191.765 999.639 192.082 999.329 192.356C999.02 192.626 998.648 192.838 998.214 192.993C997.78 193.142 997.278 193.217 996.709 193.217ZM997.622 191.016C998.092 191.016 998.506 190.924 998.865 190.739C999.225 190.549 999.507 190.295 999.711 189.975C999.916 189.656 1000.02 189.294 1000.02 188.89V187.669C999.918 187.734 999.781 187.794 999.606 187.849C999.437 187.899 999.245 187.946 999.03 187.991C998.815 188.031 998.601 188.069 998.386 188.104C998.171 188.133 997.977 188.161 997.802 188.186C997.428 188.241 997.101 188.328 996.821 188.448C996.542 188.568 996.325 188.73 996.17 188.935C996.015 189.134 995.938 189.384 995.938 189.683C995.938 190.118 996.095 190.449 996.41 190.679C996.729 190.904 997.133 191.016 997.622 191.016ZM1008.85 186.352V193H1005.66V181.5H1008.7V183.529H1008.83C1009.09 182.86 1009.52 182.331 1010.11 181.942C1010.71 181.547 1011.44 181.35 1012.29 181.35C1013.09 181.35 1013.79 181.525 1014.38 181.874C1014.98 182.224 1015.44 182.723 1015.77 183.372C1016.1 184.016 1016.26 184.784 1016.26 185.678V193H1013.07V186.247C1013.08 185.543 1012.9 184.994 1012.53 184.6C1012.17 184.2 1011.67 184.001 1011.03 184.001C1010.6 184.001 1010.22 184.093 1009.89 184.278C1009.57 184.462 1009.31 184.732 1009.13 185.086C1008.95 185.436 1008.85 185.857 1008.85 186.352ZM1018.77 193V181.5H1021.96V193H1018.77ZM1020.38 180.018C1019.9 180.018 1019.5 179.86 1019.16 179.546C1018.82 179.226 1018.66 178.845 1018.66 178.4C1018.66 177.961 1018.82 177.584 1019.16 177.27C1019.5 176.95 1019.9 176.791 1020.38 176.791C1020.85 176.791 1021.26 176.95 1021.59 177.27C1021.93 177.584 1022.1 177.961 1022.1 178.4C1022.1 178.845 1021.93 179.226 1021.59 179.546C1021.26 179.86 1020.85 180.018 1020.38 180.018ZM1027.71 186.352V193H1024.52V181.5H1027.56V183.529H1027.69C1027.95 182.86 1028.38 182.331 1028.97 181.942C1029.57 181.547 1030.3 181.35 1031.15 181.35C1031.95 181.35 1032.65 181.525 1033.24 181.874C1033.84 182.224 1034.3 182.723 1034.63 183.372C1034.96 184.016 1035.12 184.784 1035.12 185.678V193H1031.93V186.247C1031.94 185.543 1031.76 184.994 1031.39 184.6C1031.03 184.2 1030.53 184.001 1029.89 184.001C1029.46 184.001 1029.08 184.093 1028.75 184.278C1028.43 184.462 1028.17 184.732 1027.99 185.086C1027.81 185.436 1027.71 185.857 1027.71 186.352ZM1042.82 197.552C1041.78 197.552 1040.9 197.41 1040.16 197.125C1039.42 196.846 1038.84 196.464 1038.41 195.98C1037.97 195.496 1037.69 194.952 1037.56 194.348L1040.51 193.951C1040.6 194.18 1040.74 194.395 1040.94 194.595C1041.13 194.794 1041.39 194.954 1041.71 195.074C1042.03 195.199 1042.43 195.261 1042.89 195.261C1043.58 195.261 1044.16 195.091 1044.61 194.752C1045.06 194.418 1045.29 193.856 1045.29 193.067V190.964H1045.15C1045.01 191.283 1044.8 191.585 1044.52 191.869C1044.24 192.154 1043.88 192.386 1043.44 192.566C1043.01 192.745 1042.48 192.835 1041.87 192.835C1041.01 192.835 1040.22 192.636 1039.51 192.236C1038.81 191.832 1038.25 191.216 1037.83 190.387C1037.42 189.553 1037.21 188.5 1037.21 187.228C1037.21 185.925 1037.42 184.837 1037.84 183.963C1038.27 183.09 1038.83 182.436 1039.54 182.002C1040.25 181.567 1041.02 181.35 1041.86 181.35C1042.51 181.35 1043.05 181.46 1043.48 181.68C1043.92 181.894 1044.27 182.164 1044.53 182.488C1044.8 182.808 1045.01 183.122 1045.15 183.432H1045.27V181.5H1048.44V193.112C1048.44 194.091 1048.2 194.909 1047.72 195.568C1047.24 196.227 1046.58 196.721 1045.73 197.05C1044.88 197.385 1043.91 197.552 1042.82 197.552ZM1042.88 190.439C1043.4 190.439 1043.83 190.312 1044.19 190.058C1044.55 189.798 1044.82 189.429 1045.01 188.95C1045.2 188.465 1045.3 187.886 1045.3 187.213C1045.3 186.539 1045.21 185.955 1045.02 185.461C1044.83 184.961 1044.55 184.575 1044.19 184.3C1043.83 184.026 1043.4 183.888 1042.88 183.888C1042.36 183.888 1041.92 184.031 1041.56 184.315C1041.2 184.595 1040.93 184.984 1040.74 185.483C1040.56 185.982 1040.46 186.559 1040.46 187.213C1040.46 187.876 1040.56 188.45 1040.74 188.935C1040.93 189.414 1041.2 189.786 1041.56 190.05C1041.92 190.31 1042.36 190.439 1042.88 190.439Z" fill="#224757"/>
<g opacity="0.3" filter="url(#filter1_d_340_3286)">
<circle cx="670.573" cy="187.334" r="185.533" fill="#8599A2"/>
<circle cx="670.573" cy="187.334" r="185.168" stroke="#375666" stroke-width="0.730547"/>
</g>
<path d="M602.028 174.698V181.347H598.838V169.847H601.878V171.876H602.013C602.267 171.207 602.694 170.678 603.293 170.288C603.892 169.894 604.618 169.697 605.472 169.697C606.27 169.697 606.967 169.872 607.561 170.221C608.155 170.57 608.616 171.07 608.946 171.718C609.275 172.362 609.44 173.131 609.44 174.024V181.347H606.25V174.593C606.255 173.89 606.076 173.341 605.711 172.946C605.347 172.547 604.845 172.347 604.207 172.347C603.777 172.347 603.398 172.44 603.069 172.624C602.744 172.809 602.49 173.079 602.305 173.433C602.125 173.782 602.033 174.204 602.028 174.698ZM615.233 181.564C614.499 181.564 613.845 181.437 613.271 181.182C612.697 180.922 612.243 180.541 611.909 180.036C611.579 179.527 611.415 178.893 611.415 178.135C611.415 177.496 611.532 176.959 611.767 176.525C612.001 176.091 612.321 175.741 612.725 175.477C613.129 175.212 613.588 175.013 614.102 174.878C614.622 174.743 615.166 174.648 615.735 174.593C616.403 174.524 616.942 174.459 617.352 174.399C617.761 174.334 618.058 174.239 618.243 174.114C618.427 173.989 618.52 173.805 618.52 173.56V173.515C618.52 173.041 618.37 172.674 618.071 172.415C617.776 172.155 617.357 172.025 616.813 172.025C616.239 172.025 615.782 172.153 615.443 172.407C615.103 172.657 614.879 172.971 614.769 173.351L611.819 173.111C611.969 172.412 612.263 171.808 612.702 171.299C613.142 170.785 613.708 170.391 614.402 170.116C615.101 169.837 615.909 169.697 616.828 169.697C617.467 169.697 618.078 169.772 618.662 169.922C619.251 170.071 619.773 170.303 620.227 170.618C620.686 170.932 621.048 171.337 621.312 171.831C621.577 172.32 621.709 172.906 621.709 173.59V181.347H618.684V179.752H618.595C618.41 180.111 618.163 180.428 617.853 180.703C617.544 180.972 617.172 181.184 616.738 181.339C616.304 181.489 615.802 181.564 615.233 181.564ZM616.146 179.363C616.616 179.363 617.03 179.27 617.389 179.086C617.749 178.896 618.031 178.641 618.235 178.322C618.44 178.002 618.542 177.641 618.542 177.236V176.016C618.442 176.081 618.305 176.141 618.13 176.196C617.961 176.246 617.769 176.293 617.554 176.338C617.339 176.378 617.125 176.415 616.91 176.45C616.695 176.48 616.501 176.508 616.326 176.533C615.952 176.587 615.625 176.675 615.345 176.795C615.066 176.914 614.849 177.077 614.694 177.281C614.539 177.481 614.462 177.73 614.462 178.03C614.462 178.464 614.619 178.796 614.933 179.026C615.253 179.25 615.657 179.363 616.146 179.363ZM630.301 169.847V172.243H623.375V169.847H630.301ZM624.947 167.091H628.137V177.813C628.137 178.107 628.182 178.337 628.272 178.502C628.361 178.661 628.486 178.774 628.646 178.839C628.811 178.903 629 178.936 629.215 178.936C629.365 178.936 629.514 178.923 629.664 178.898C629.814 178.868 629.929 178.846 630.009 178.831L630.51 181.204C630.35 181.254 630.126 181.312 629.836 181.377C629.547 181.447 629.195 181.489 628.781 181.504C628.012 181.534 627.338 181.432 626.759 181.197C626.185 180.962 625.738 180.598 625.419 180.104C625.1 179.61 624.942 178.986 624.947 178.232V167.091ZM639.753 176.45V169.847H642.942V181.347H639.88V179.258H639.76C639.501 179.932 639.069 180.473 638.465 180.882C637.866 181.292 637.135 181.496 636.271 181.496C635.503 181.496 634.826 181.322 634.242 180.972C633.658 180.623 633.202 180.126 632.872 179.482C632.548 178.839 632.383 178.067 632.378 177.169V169.847H635.568V176.6C635.573 177.279 635.755 177.815 636.114 178.21C636.474 178.604 636.955 178.801 637.559 178.801C637.943 178.801 638.303 178.714 638.637 178.539C638.972 178.359 639.241 178.095 639.446 177.745C639.655 177.396 639.758 176.964 639.753 176.45ZM645.493 181.347V169.847H648.586V171.853H648.705C648.915 171.139 649.267 170.6 649.761 170.236C650.255 169.867 650.824 169.682 651.468 169.682C651.628 169.682 651.8 169.692 651.985 169.712C652.169 169.732 652.332 169.759 652.471 169.794V172.624C652.322 172.579 652.114 172.539 651.85 172.505C651.585 172.47 651.343 172.452 651.124 172.452C650.654 172.452 650.235 172.554 649.866 172.759C649.502 172.959 649.212 173.238 648.997 173.598C648.788 173.957 648.683 174.371 648.683 174.84V181.347H645.493ZM657.07 181.564C656.336 181.564 655.683 181.437 655.109 181.182C654.535 180.922 654.08 180.541 653.746 180.036C653.417 179.527 653.252 178.893 653.252 178.135C653.252 177.496 653.369 176.959 653.604 176.525C653.838 176.091 654.158 175.741 654.562 175.477C654.966 175.212 655.426 175.013 655.94 174.878C656.459 174.743 657.003 174.648 657.572 174.593C658.241 174.524 658.78 174.459 659.189 174.399C659.598 174.334 659.895 174.239 660.08 174.114C660.265 173.989 660.357 173.805 660.357 173.56V173.515C660.357 173.041 660.207 172.674 659.908 172.415C659.613 172.155 659.194 172.025 658.65 172.025C658.076 172.025 657.619 172.153 657.28 172.407C656.94 172.657 656.716 172.971 656.606 173.351L653.656 173.111C653.806 172.412 654.1 171.808 654.54 171.299C654.979 170.785 655.545 170.391 656.239 170.116C656.938 169.837 657.747 169.697 658.665 169.697C659.304 169.697 659.915 169.772 660.499 169.922C661.088 170.071 661.61 170.303 662.064 170.618C662.523 170.932 662.885 171.337 663.15 171.831C663.414 172.32 663.546 172.906 663.546 173.59V181.347H660.522V179.752H660.432C660.247 180.111 660 180.428 659.691 180.703C659.381 180.972 659.009 181.184 658.575 181.339C658.141 181.489 657.639 181.564 657.07 181.564ZM657.984 179.363C658.453 179.363 658.867 179.27 659.226 179.086C659.586 178.896 659.868 178.641 660.072 178.322C660.277 178.002 660.379 177.641 660.379 177.236V176.016C660.28 176.081 660.142 176.141 659.968 176.196C659.798 176.246 659.606 176.293 659.391 176.338C659.177 176.378 658.962 176.415 658.747 176.45C658.533 176.48 658.338 176.508 658.163 176.533C657.789 176.587 657.462 176.675 657.183 176.795C656.903 176.914 656.686 177.077 656.531 177.281C656.376 177.481 656.299 177.73 656.299 178.03C656.299 178.464 656.456 178.796 656.771 179.026C657.09 179.25 657.494 179.363 657.984 179.363ZM669.21 166.013V181.347H666.021V166.013H669.21ZM674.955 174.698V181.347H671.765V169.847H674.805V171.876H674.94C675.194 171.207 675.621 170.678 676.22 170.288C676.819 169.894 677.545 169.697 678.399 169.697C679.197 169.697 679.894 169.872 680.488 170.221C681.082 170.57 681.543 171.07 681.873 171.718C682.202 172.362 682.367 173.131 682.367 174.024V181.347H679.177V174.593C679.182 173.89 679.003 173.341 678.638 172.946C678.274 172.547 677.772 172.347 677.133 172.347C676.704 172.347 676.325 172.44 675.995 172.624C675.671 172.809 675.416 173.079 675.232 173.433C675.052 173.782 674.96 174.204 674.955 174.698ZM690.121 181.571C688.939 181.571 687.92 181.332 687.067 180.853C686.218 180.368 685.564 179.685 685.105 178.801C684.646 177.913 684.416 176.862 684.416 175.649C684.416 174.466 684.646 173.428 685.105 172.535C685.564 171.641 686.211 170.945 687.044 170.446C687.883 169.947 688.866 169.697 689.994 169.697C690.753 169.697 691.459 169.819 692.113 170.064C692.772 170.303 693.346 170.665 693.835 171.149C694.329 171.634 694.713 172.243 694.988 172.976C695.263 173.705 695.4 174.558 695.4 175.537V176.413H685.689V174.436H692.398C692.398 173.977 692.298 173.57 692.098 173.216C691.898 172.861 691.621 172.584 691.267 172.385C690.918 172.18 690.511 172.078 690.047 172.078C689.562 172.078 689.133 172.19 688.759 172.415C688.389 172.634 688.1 172.931 687.89 173.306C687.681 173.675 687.573 174.087 687.568 174.541V176.42C687.568 176.989 687.673 177.481 687.883 177.895C688.097 178.309 688.399 178.629 688.789 178.854C689.178 179.078 689.64 179.19 690.174 179.19C690.528 179.19 690.853 179.141 691.147 179.041C691.442 178.941 691.694 178.791 691.903 178.591C692.113 178.392 692.273 178.147 692.383 177.858L695.332 178.052C695.183 178.761 694.876 179.38 694.412 179.909C693.952 180.433 693.358 180.843 692.63 181.137C691.906 181.427 691.07 181.571 690.121 181.571ZM707.05 173.126L704.13 173.306C704.08 173.056 703.972 172.831 703.808 172.632C703.643 172.427 703.426 172.265 703.156 172.145C702.892 172.02 702.575 171.958 702.205 171.958C701.711 171.958 701.295 172.063 700.955 172.272C700.616 172.477 700.446 172.752 700.446 173.096C700.446 173.371 700.556 173.603 700.775 173.792C700.995 173.982 701.372 174.134 701.906 174.249L703.987 174.668C705.105 174.898 705.939 175.267 706.488 175.776C707.037 176.285 707.312 176.954 707.312 177.783C707.312 178.537 707.089 179.198 706.645 179.767C706.206 180.336 705.602 180.78 704.833 181.1C704.07 181.414 703.189 181.571 702.19 181.571C700.668 181.571 699.455 181.254 698.552 180.62C697.653 179.982 697.127 179.113 696.972 178.015L700.109 177.85C700.204 178.314 700.434 178.669 700.798 178.913C701.162 179.153 701.629 179.273 702.198 179.273C702.757 179.273 703.206 179.165 703.546 178.951C703.89 178.731 704.065 178.449 704.07 178.105C704.065 177.815 703.942 177.578 703.703 177.394C703.463 177.204 703.094 177.059 702.595 176.959L700.603 176.563C699.48 176.338 698.644 175.949 698.095 175.395C697.551 174.84 697.279 174.134 697.279 173.276C697.279 172.537 697.479 171.901 697.878 171.367C698.282 170.832 698.849 170.421 699.578 170.131C700.311 169.842 701.17 169.697 702.153 169.697C703.606 169.697 704.749 170.004 705.582 170.618C706.421 171.232 706.91 172.068 707.05 173.126ZM718.888 173.126L715.968 173.306C715.918 173.056 715.811 172.831 715.646 172.632C715.482 172.427 715.265 172.265 714.995 172.145C714.731 172.02 714.414 171.958 714.044 171.958C713.55 171.958 713.133 172.063 712.794 172.272C712.455 172.477 712.285 172.752 712.285 173.096C712.285 173.371 712.395 173.603 712.614 173.792C712.834 173.982 713.211 174.134 713.745 174.249L715.826 174.668C716.944 174.898 717.778 175.267 718.327 175.776C718.876 176.285 719.15 176.954 719.15 177.783C719.15 178.537 718.928 179.198 718.484 179.767C718.045 180.336 717.441 180.78 716.672 181.1C715.909 181.414 715.028 181.571 714.029 181.571C712.507 181.571 711.294 181.254 710.391 180.62C709.492 179.982 708.966 179.113 708.811 178.015L711.948 177.85C712.043 178.314 712.272 178.669 712.637 178.913C713.001 179.153 713.468 179.273 714.037 179.273C714.596 179.273 715.045 179.165 715.384 178.951C715.729 178.731 715.904 178.449 715.909 178.105C715.904 177.815 715.781 177.578 715.542 177.394C715.302 177.204 714.933 177.059 714.434 176.959L712.442 176.563C711.319 176.338 710.483 175.949 709.934 175.395C709.39 174.84 709.118 174.134 709.118 173.276C709.118 172.537 709.317 171.901 709.717 171.367C710.121 170.832 710.688 170.421 711.416 170.131C712.15 169.842 713.009 169.697 713.992 169.697C715.444 169.697 716.587 170.004 717.421 170.618C718.259 171.232 718.749 172.068 718.888 173.126ZM726.038 181.347V169.847H729.228V181.347H726.038ZM727.641 168.364C727.166 168.364 726.76 168.207 726.42 167.893C726.086 167.573 725.919 167.191 725.919 166.747C725.919 166.308 726.086 165.931 726.42 165.617C726.76 165.297 727.166 165.137 727.641 165.137C728.115 165.137 728.519 165.297 728.853 165.617C729.193 165.931 729.363 166.308 729.363 166.747C729.363 167.191 729.193 167.573 728.853 167.893C728.519 168.207 728.115 168.364 727.641 168.364ZM734.972 174.698V181.347H731.783V169.847H734.822V171.876H734.957C735.212 171.207 735.639 170.678 736.238 170.288C736.836 169.894 737.563 169.697 738.416 169.697C739.215 169.697 739.911 169.872 740.505 170.221C741.099 170.57 741.561 171.07 741.89 171.718C742.22 172.362 742.384 173.131 742.384 174.024V181.347H739.195V174.593C739.2 173.89 739.02 173.341 738.656 172.946C738.291 172.547 737.79 172.347 737.151 172.347C736.722 172.347 736.342 172.44 736.013 172.624C735.688 172.809 735.434 173.079 735.249 173.433C735.07 173.782 734.977 174.204 734.972 174.698ZM615.66 208.347V196.847H618.849V208.347H615.66ZM617.262 195.364C616.788 195.364 616.381 195.207 616.042 194.893C615.707 194.573 615.54 194.191 615.54 193.747C615.54 193.308 615.707 192.931 616.042 192.617C616.381 192.297 616.788 192.137 617.262 192.137C617.736 192.137 618.14 192.297 618.475 192.617C618.814 192.931 618.984 193.308 618.984 193.747C618.984 194.191 618.814 194.573 618.475 194.893C618.14 195.207 617.736 195.364 617.262 195.364ZM624.594 201.698V208.347H621.404V196.847H624.444V198.876H624.579C624.833 198.207 625.26 197.678 625.859 197.288C626.458 196.894 627.184 196.697 628.038 196.697C628.836 196.697 629.532 196.872 630.126 197.221C630.72 197.57 631.182 198.07 631.512 198.718C631.841 199.362 632.006 200.131 632.006 201.024V208.347H628.816V201.593C628.821 200.89 628.642 200.341 628.277 199.946C627.913 199.547 627.411 199.347 626.772 199.347C626.343 199.347 625.964 199.44 625.634 199.624C625.31 199.809 625.055 200.079 624.871 200.433C624.691 200.782 624.599 201.204 624.594 201.698ZM640.636 196.847V199.243H633.711V196.847H640.636ZM635.283 194.091H638.473V204.813C638.473 205.107 638.517 205.337 638.607 205.502C638.697 205.661 638.822 205.774 638.982 205.839C639.146 205.903 639.336 205.936 639.551 205.936C639.7 205.936 639.85 205.923 640 205.898C640.15 205.868 640.264 205.846 640.344 205.831L640.846 208.204C640.686 208.254 640.462 208.312 640.172 208.377C639.883 208.447 639.531 208.489 639.116 208.504C638.348 208.534 637.674 208.432 637.095 208.197C636.521 207.962 636.074 207.598 635.755 207.104C635.435 206.61 635.278 205.986 635.283 205.232V194.091ZM647.831 208.571C646.648 208.571 645.63 208.332 644.777 207.853C643.928 207.368 643.274 206.685 642.815 205.801C642.356 204.913 642.126 203.862 642.126 202.649C642.126 201.466 642.356 200.428 642.815 199.535C643.274 198.641 643.921 197.945 644.754 197.446C645.593 196.947 646.576 196.697 647.704 196.697C648.463 196.697 649.169 196.819 649.823 197.064C650.482 197.303 651.056 197.665 651.545 198.149C652.039 198.634 652.423 199.243 652.698 199.976C652.972 200.705 653.11 201.558 653.11 202.537V203.413H643.399V201.436H650.107C650.107 200.977 650.007 200.57 649.808 200.216C649.608 199.861 649.331 199.584 648.977 199.385C648.627 199.18 648.221 199.078 647.756 199.078C647.272 199.078 646.843 199.19 646.469 199.415C646.099 199.634 645.81 199.931 645.6 200.306C645.391 200.675 645.283 201.087 645.278 201.541V203.42C645.278 203.989 645.383 204.481 645.593 204.895C645.807 205.309 646.109 205.629 646.499 205.854C646.888 206.078 647.35 206.19 647.884 206.19C648.238 206.19 648.563 206.141 648.857 206.041C649.151 205.941 649.404 205.791 649.613 205.591C649.823 205.392 649.983 205.147 650.092 204.858L653.042 205.052C652.892 205.761 652.586 206.38 652.121 206.909C651.662 207.433 651.068 207.843 650.339 208.137C649.616 208.427 648.78 208.571 647.831 208.571ZM655.191 208.347V196.847H658.283V198.853H658.403C658.613 198.139 658.964 197.6 659.459 197.236C659.953 196.867 660.522 196.682 661.166 196.682C661.325 196.682 661.498 196.692 661.682 196.712C661.867 196.732 662.029 196.759 662.169 196.794V199.624C662.019 199.579 661.812 199.539 661.547 199.505C661.283 199.47 661.041 199.452 660.821 199.452C660.352 199.452 659.933 199.554 659.563 199.759C659.199 199.959 658.91 200.238 658.695 200.598C658.485 200.957 658.38 201.371 658.38 201.84V208.347H655.191ZM666.768 208.564C666.034 208.564 665.38 208.437 664.806 208.182C664.232 207.922 663.778 207.541 663.444 207.036C663.114 206.527 662.949 205.893 662.949 205.135C662.949 204.496 663.067 203.959 663.301 203.525C663.536 203.091 663.855 202.741 664.26 202.477C664.664 202.212 665.123 202.013 665.637 201.878C666.156 201.743 666.7 201.648 667.269 201.593C667.938 201.524 668.477 201.459 668.887 201.399C669.296 201.334 669.593 201.239 669.777 201.114C669.962 200.989 670.055 200.805 670.055 200.56V200.515C670.055 200.041 669.905 199.674 669.605 199.415C669.311 199.155 668.892 199.025 668.347 199.025C667.773 199.025 667.317 199.153 666.977 199.407C666.638 199.657 666.413 199.971 666.304 200.351L663.354 200.111C663.503 199.412 663.798 198.808 664.237 198.299C664.676 197.785 665.243 197.391 665.937 197.116C666.635 196.837 667.444 196.697 668.362 196.697C669.001 196.697 669.613 196.772 670.197 196.922C670.786 197.071 671.307 197.303 671.762 197.618C672.221 197.932 672.583 198.337 672.847 198.831C673.112 199.32 673.244 199.906 673.244 200.59V208.347H670.219V206.752H670.129C669.945 207.111 669.698 207.428 669.388 207.703C669.079 207.972 668.707 208.184 668.273 208.339C667.838 208.489 667.337 208.564 666.768 208.564ZM667.681 206.363C668.15 206.363 668.565 206.27 668.924 206.086C669.283 205.896 669.565 205.641 669.77 205.322C669.975 205.002 670.077 204.641 670.077 204.236V203.016C669.977 203.081 669.84 203.141 669.665 203.196C669.495 203.246 669.303 203.293 669.089 203.338C668.874 203.378 668.659 203.415 668.445 203.45C668.23 203.48 668.036 203.508 667.861 203.533C667.486 203.587 667.16 203.675 666.88 203.795C666.601 203.914 666.383 204.077 666.229 204.281C666.074 204.481 665.997 204.73 665.997 205.03C665.997 205.464 666.154 205.796 666.468 206.026C666.788 206.25 667.192 206.363 667.681 206.363ZM680.914 208.571C679.736 208.571 678.723 208.322 677.875 207.823C677.031 207.318 676.382 206.62 675.928 205.726C675.479 204.833 675.254 203.805 675.254 202.642C675.254 201.464 675.481 200.43 675.936 199.542C676.395 198.649 677.046 197.952 677.89 197.453C678.733 196.949 679.736 196.697 680.899 196.697C681.903 196.697 682.781 196.879 683.535 197.243C684.288 197.608 684.885 198.119 685.324 198.778C685.763 199.437 686.006 200.211 686.05 201.099H683.041C682.956 200.525 682.731 200.064 682.367 199.714C682.007 199.36 681.536 199.183 680.952 199.183C680.458 199.183 680.026 199.317 679.657 199.587C679.292 199.851 679.008 200.238 678.803 200.747C678.598 201.257 678.496 201.873 678.496 202.597C678.496 203.33 678.596 203.954 678.796 204.468C679 204.983 679.287 205.374 679.657 205.644C680.026 205.913 680.458 206.048 680.952 206.048C681.316 206.048 681.643 205.973 681.933 205.824C682.227 205.674 682.469 205.457 682.659 205.172C682.853 204.883 682.981 204.536 683.041 204.132H686.05C686.001 205.01 685.761 205.784 685.332 206.452C684.907 207.116 684.321 207.635 683.572 208.01C682.824 208.384 681.938 208.571 680.914 208.571ZM694.209 196.847V199.243H687.284V196.847H694.209ZM688.856 194.091H692.046V204.813C692.046 205.107 692.091 205.337 692.18 205.502C692.27 205.661 692.395 205.774 692.555 205.839C692.719 205.903 692.909 205.936 693.124 205.936C693.273 205.936 693.423 205.923 693.573 205.898C693.723 205.868 693.838 205.846 693.917 205.831L694.419 208.204C694.259 208.254 694.035 208.312 693.745 208.377C693.456 208.447 693.104 208.489 692.69 208.504C691.921 208.534 691.247 208.432 690.668 208.197C690.094 207.962 689.647 207.598 689.328 207.104C689.008 206.61 688.851 205.986 688.856 205.232V194.091ZM696.287 208.347V196.847H699.476V208.347H696.287ZM697.889 195.364C697.415 195.364 697.008 195.207 696.669 194.893C696.334 194.573 696.167 194.191 696.167 193.747C696.167 193.308 696.334 192.931 696.669 192.617C697.008 192.297 697.415 192.137 697.889 192.137C698.363 192.137 698.768 192.297 699.102 192.617C699.442 192.931 699.611 193.308 699.611 193.747C699.611 194.191 699.442 194.573 699.102 194.893C698.768 195.207 698.363 195.364 697.889 195.364ZM707.227 208.571C706.064 208.571 705.059 208.324 704.21 207.83C703.367 207.331 702.715 206.637 702.256 205.749C701.797 204.855 701.567 203.82 701.567 202.642C701.567 201.454 701.797 200.415 702.256 199.527C702.715 198.634 703.367 197.94 704.21 197.446C705.059 196.947 706.064 196.697 707.227 196.697C708.39 196.697 709.394 196.947 710.237 197.446C711.086 197.94 711.74 198.634 712.199 199.527C712.658 200.415 712.888 201.454 712.888 202.642C712.888 203.82 712.658 204.855 712.199 205.749C711.74 206.637 711.086 207.331 710.237 207.83C709.394 208.324 708.39 208.571 707.227 208.571ZM707.242 206.101C707.771 206.101 708.213 205.951 708.568 205.651C708.922 205.347 709.189 204.933 709.369 204.409C709.553 203.884 709.646 203.288 709.646 202.619C709.646 201.95 709.553 201.354 709.369 200.83C709.189 200.306 708.922 199.891 708.568 199.587C708.213 199.282 707.771 199.13 707.242 199.13C706.708 199.13 706.259 199.282 705.895 199.587C705.535 199.891 705.263 200.306 705.079 200.83C704.899 201.354 704.809 201.95 704.809 202.619C704.809 203.288 704.899 203.884 705.079 204.409C705.263 204.933 705.535 205.347 705.895 205.651C706.259 205.951 706.708 206.101 707.242 206.101ZM718.151 201.698V208.347H714.961V196.847H718.001V198.876H718.136C718.39 198.207 718.817 197.678 719.416 197.288C720.015 196.894 720.741 196.697 721.595 196.697C722.393 196.697 723.09 196.872 723.684 197.221C724.278 197.57 724.739 198.07 725.069 198.718C725.398 199.362 725.563 200.131 725.563 201.024V208.347H722.374V201.593C722.379 200.89 722.199 200.341 721.834 199.946C721.47 199.547 720.968 199.347 720.33 199.347C719.9 199.347 719.521 199.44 719.192 199.624C718.867 199.809 718.613 200.079 718.428 200.433C718.248 200.782 718.156 201.204 718.151 201.698Z" fill="#224757"/>
</g>
<defs>
<filter id="filter0_d_340_3286" x="779.521" y="0.114115" width="377.813" height="377.813" filterUnits="userSpaceOnUse" color-interpolation-filters="sRGB">
<feFlood flood-opacity="0" result="BackgroundImageFix"/>
<feColorMatrix in="SourceAlpha" type="matrix" values="0 0 0 0 0 0 0 0 0 0 0 0 0 0 0 0 0 0 127 0" result="hardAlpha"/>
<feOffset dy="1.68667"/>
<feGaussianBlur stdDeviation="1.68667"/>
<feComposite in2="hardAlpha" operator="out"/>
<feColorMatrix type="matrix" values="0 0 0 0 0 0 0 0 0 0.198134 0 0 0 0 0.491667 0 0 0 0.4 0"/>
<feBlend mode="normal" in2="BackgroundImageFix" result="effect1_dropShadow_340_3286"/>
<feBlend mode="normal" in="SourceGraphic" in2="effect1_dropShadow_340_3286" result="shape"/>
</filter>
<filter id="filter1_d_340_3286" x="481.666" y="0.114115" width="377.813" height="377.813" filterUnits="userSpaceOnUse" color-interpolation-filters="sRGB">
<feFlood flood-opacity="0" result="BackgroundImageFix"/>
<feColorMatrix in="SourceAlpha" type="matrix" values="0 0 0 0 0 0 0 0 0 0 0 0 0 0 0 0 0 0 127 0" result="hardAlpha"/>
<feOffset dy="1.68667"/>
<feGaussianBlur stdDeviation="1.68667"/>
<feComposite in2="hardAlpha" operator="out"/>
<feColorMatrix type="matrix" values="0 0 0 0 0 0 0 0 0 0.198134 0 0 0 0 0.491667 0 0 0 0.4 0"/>
<feBlend mode="normal" in2="BackgroundImageFix" result="effect1_dropShadow_340_3286"/>
<feBlend mode="normal" in="SourceGraphic" in2="effect1_dropShadow_340_3286" result="shape"/>
</filter>
<clipPath id="clip0_340_3286">
<rect width="1158" height="378" fill="white"/>
</clipPath>
</defs>
</svg>
