<svg width="510" height="364" viewBox="0 0 510 364" fill="none" xmlns="http://www.w3.org/2000/svg">
<g clip-path="url(#clip0_248_4031)">
<path d="M139.076 193.838C136.967 193.838 135.165 192.317 134.811 190.238L131.959 173.5C131.509 170.858 133.544 168.447 136.224 168.447L145.657 168.447C148.337 168.447 150.372 170.858 149.922 173.5L147.07 190.238C146.716 192.317 144.914 193.838 142.805 193.838L139.076 193.838Z" fill="#1B8CF5"/>
<path d="M169.098 193.838C166.989 193.838 165.187 192.317 164.833 190.238L161.981 173.5C161.531 170.858 163.566 168.447 166.246 168.447L175.68 168.447C178.36 168.447 180.395 170.858 179.945 173.5L177.093 190.238C176.738 192.317 174.937 193.838 172.828 193.838L169.098 193.838Z" fill="#1B8CF5"/>
<path d="M206.502 157.758C208.891 157.758 210.828 159.695 210.828 162.084L210.828 181.938C210.828 183.063 210.39 184.143 209.607 184.951L202.26 192.524C201.445 193.364 200.325 193.838 199.155 193.838L195.469 193.838C193.08 193.838 191.143 191.901 191.143 189.511L191.143 162.084C191.143 159.695 193.08 157.758 195.469 157.758L206.502 157.758Z" fill="#1B8CF5"/>
<path d="M228.589 158.672C227.241 155.803 229.334 152.506 232.505 152.506H281.18C284.35 152.506 286.444 155.803 285.096 158.672L276.182 177.649C275.469 179.167 273.943 180.136 272.266 180.136H241.419C239.742 180.136 238.216 179.167 237.503 177.649L228.589 158.672Z" fill="#9DCFFE"/>
<path d="M82.1148 143.279C75.4327 143.92 69.2997 139.476 67.9007 132.91L44.752 24.2761C43.172 16.8617 48.2247 9.72552 55.7658 8.95126C84.2911 6.02253 155.272 7.72595e-06 256.626 7.72437e-06C357.648 7.72279e-06 428.495 5.98306 457.204 8.92231C464.844 9.70445 469.92 17.004 468.176 24.4829L442.834 133.179C441.332 139.624 435.264 143.934 428.677 143.3C404.192 140.944 342.026 135.945 255.283 135.945C168.806 135.945 106.755 140.913 82.1148 143.279Z" fill="#E5E8F2"/>
<path d="M239.145 26.8493C236.403 27.4024 233.663 25.4382 233.506 22.6457L233.228 17.7086C233.12 15.8075 234.275 14.0757 236.12 13.6051C239.901 12.6404 247.021 11.2488 256.626 11.2488C266.29 11.2488 273.438 12.6575 277.202 13.6227C279.012 14.0871 280.161 15.7712 280.097 17.6395L279.925 22.6029C279.828 25.4099 277.111 27.4286 274.355 26.8877C270.024 26.0378 263.516 25.061 256.479 25.061C249.547 25.061 243.312 26.0087 239.145 26.8493Z" fill="#9DCFFE"/>
<rect x="131.098" y="50.4214" width="79.2977" height="38.2841" rx="4.32642" fill="#9DCFFE"/>
<path d="M93.4346 151.465C91.339 151.686 89.3965 150.379 88.8054 148.356L85.6242 137.47C84.8834 134.935 86.5439 132.349 89.1663 132.036C106.138 130.009 165.962 123.736 256.087 123.736C347.232 123.736 408.161 130.152 424.579 132.103C427.022 132.393 428.672 134.678 428.238 137.1L426.307 147.877C425.905 150.118 423.874 151.671 421.609 151.442C404.571 149.717 335.096 143.215 256.087 143.215C176.716 143.215 109.433 149.777 93.4346 151.465Z" fill="#DDE0EE"/>
<path fill-rule="evenodd" clip-rule="evenodd" d="M105.476 143.508C102.906 143.794 100.659 141.785 100.659 139.199V118.245C100.659 116.048 102.294 114.201 104.477 113.956C130.571 111.035 168.361 107.883 215.822 106.834C218.243 106.781 220.233 108.731 220.233 111.153V131.475C220.233 133.824 218.358 135.743 216.01 135.808C171.228 137.045 132.048 140.547 105.476 143.508Z" fill="#9DCFFE"/>
<path fill-rule="evenodd" clip-rule="evenodd" d="M298.434 126.359C295.864 126.072 293.617 128.081 293.617 130.667V151.622C293.617 153.818 295.253 155.666 297.436 155.91C323.529 158.832 361.32 161.983 408.78 163.032C411.201 163.086 413.192 161.135 413.192 158.713V138.391C413.192 136.042 411.317 134.123 408.969 134.059C364.186 132.821 325.006 129.319 298.434 126.359Z" fill="#9DCFFE"/>
<path fill-rule="evenodd" clip-rule="evenodd" d="M213.857 114.154C213.857 137.886 194.618 157.125 170.886 157.125C147.154 157.125 127.915 137.886 127.915 114.154C127.915 90.4221 147.154 71.1833 170.886 71.1833C194.618 71.1833 213.857 90.4221 213.857 114.154ZM166.713 145.85L164.928 118.264C154.548 118.465 145.478 119.164 139.484 119.743C141.87 133.371 152.899 144.027 166.713 145.85ZM139.439 108.925C141.953 93.8029 155.096 82.2736 170.931 82.2736C186.767 82.2736 199.91 93.8028 202.424 108.925C195.486 108.238 184.702 107.479 170.932 107.479C157.161 107.479 146.377 108.238 139.439 108.925ZM202.381 119.729C200 133.364 188.968 144.026 175.15 145.85L176.935 118.274C187.124 118.484 196.238 119.162 202.381 119.729Z" fill="#1B8CF5"/>
<rect x="225.692" y="119.842" width="62.3005" height="28.987" rx="4.32642" fill="#9DCFFE"/>
<rect x="240.402" y="316.694" width="132.653" height="32.8808" rx="4.32642" transform="rotate(-90 240.402 316.694)" fill="#9DCFFE"/>
<path d="M72.1124 341.267L52.9139 341.267C52.9139 341.267 52.6436 305.883 52.6435 246.814C52.6435 210.336 56.0467 182.664 58.6497 166.834C60.0811 158.129 68.0768 152.411 76.8568 153.275V153.275C78.9494 153.481 80.4203 155.427 80.0512 157.497C77.9809 169.106 72.1224 205.6 72.1224 246.814C72.1224 296.874 72.1124 341.267 72.1124 341.267Z" fill="url(#paint0_linear_248_4031)"/>
<rect x="66.7771" y="277.756" width="77.8756" height="14.2772" rx="4.32642" transform="rotate(-90 66.7771 277.756)" fill="#9DCFFE"/>
<path d="M437.695 341.267L456.893 341.267C456.893 341.267 457.164 305.883 457.164 246.814C457.164 210.336 453.761 182.664 451.158 166.834C449.726 158.129 441.731 152.411 432.951 153.275V153.275C430.858 153.481 429.387 155.427 429.756 157.497C431.826 169.106 437.685 205.6 437.685 246.814C437.685 296.874 437.695 341.267 437.695 341.267Z" fill="url(#paint1_linear_248_4031)"/>
<rect width="77.8756" height="14.2772" rx="4.32642" transform="matrix(4.37114e-08 -1 -1 -4.37114e-08 442.878 277.756)" fill="#9DCFFE"/>
<rect x="100.659" y="260.883" width="33.7461" height="19.0363" rx="4.32642" transform="rotate(-90 100.659 260.883)" fill="#9DCFFE"/>
<rect width="33.7461" height="19.0363" rx="4.32642" transform="matrix(4.37114e-08 -1 -1 -4.37114e-08 413.026 260.883)" fill="#9DCFFE"/>
<path d="M117.099 316.694C114.71 316.694 112.773 314.757 112.773 312.367L112.773 209.335C112.773 207.148 114.388 205.31 116.56 205.064C126.291 203.962 152.685 201.178 170.963 201.178C189.241 201.178 215.635 203.962 225.366 205.064C227.538 205.31 229.153 207.148 229.153 209.335L229.153 312.367C229.153 314.757 227.216 316.694 224.827 316.694L117.099 316.694Z" fill="#E5E8F2"/>
<path d="M396.586 316.694C398.975 316.694 400.912 314.757 400.912 312.367L400.912 209.332C400.912 207.147 399.299 205.309 397.128 205.062C387.427 203.959 361.141 201.178 342.722 201.178C324.303 201.178 298.017 203.959 288.316 205.062C286.145 205.309 284.532 207.147 284.532 209.332L284.532 312.367C284.532 314.757 286.469 316.694 288.858 316.694L396.586 316.694Z" fill="#E5E8F2"/>
<path d="M227.735 283.118C230.604 281.932 233.938 283.889 234.143 286.988L235.304 304.56C235.622 309.372 233.23 313.943 228.82 315.894C218.898 320.283 198.825 327.23 171.166 327.23C143.302 327.23 122.944 320.18 112.98 315.797C108.644 313.889 106.225 309.443 106.416 304.709L107.132 287.058C107.258 283.94 110.566 281.902 113.463 283.062C123.82 287.209 146.231 294.823 171.166 294.823C195.99 294.823 217.671 287.277 227.735 283.118Z" fill="#DDE0EE"/>
<path d="M399.493 283.118C402.363 281.932 405.697 283.889 405.901 286.988L407.063 304.56C407.38 309.372 404.988 313.943 400.579 315.894C390.656 320.283 370.584 327.23 342.925 327.23C315.06 327.23 294.703 320.18 284.739 315.797C280.402 313.889 277.983 309.443 278.175 304.709L278.89 287.058C279.017 283.94 282.324 281.902 285.222 283.062C295.578 287.209 317.989 294.823 342.925 294.823C367.749 294.823 389.429 287.277 399.493 283.118Z" fill="#DDE0EE"/>
<circle cx="256.842" cy="199.881" r="8.51749" fill="#1B8CF5"/>
<path d="M60.6483 162.88C63.7026 162.325 65.6479 159.415 65.0006 156.379L63.2951 148.38C62.6606 145.405 59.7672 143.405 56.763 143.896C52.5425 144.586 45.9888 145.691 37.6161 147.208C30.7652 148.45 25.4864 151.227 21.7445 153.917C16.814 157.461 15.6674 163.845 17.1048 169.825L17.3715 170.934C18.1974 174.37 22.8083 175.734 25.6143 173.662C29.5794 170.734 35.1805 167.501 41.6913 166.321C49.12 164.975 56.0666 163.713 60.6483 162.88Z" fill="#9DCFFE"/>
<path d="M448.71 162.88C445.656 162.325 443.711 159.415 444.358 156.379L446.064 148.38C446.698 145.405 449.591 143.405 452.596 143.896C456.816 144.586 463.37 145.691 471.743 147.208C478.593 148.45 483.872 151.227 487.614 153.917C492.545 157.461 493.691 163.845 492.254 169.825L491.987 170.934C491.161 174.37 486.55 175.734 483.744 173.662C479.779 170.734 474.178 167.501 467.667 166.321C460.239 164.975 453.292 163.713 448.71 162.88Z" fill="#9DCFFE"/>
</g>
<rect x="29" y="340" width="24" height="24" fill="#1B8CF5"/>
<path d="M64.1477 357.5V345.864H68.5114C69.4053 345.864 70.1553 346.03 70.7614 346.364C71.3712 346.697 71.8314 347.155 72.142 347.739C72.4564 348.318 72.6136 348.977 72.6136 349.716C72.6136 350.462 72.4564 351.125 72.142 351.705C71.8277 352.284 71.3636 352.741 70.75 353.074C70.1364 353.403 69.3807 353.568 68.483 353.568H65.5909V351.835H68.1989C68.7216 351.835 69.1496 351.744 69.483 351.562C69.8163 351.381 70.0625 351.131 70.2216 350.812C70.3845 350.494 70.4659 350.129 70.4659 349.716C70.4659 349.303 70.3845 348.939 70.2216 348.625C70.0625 348.311 69.8144 348.066 69.4773 347.892C69.1439 347.714 68.714 347.625 68.1875 347.625H66.2557V357.5H64.1477ZM74.3537 357.5V348.773H76.348V350.227H76.4389C76.598 349.723 76.8707 349.335 77.2571 349.062C77.6473 348.786 78.0923 348.648 78.5923 348.648C78.706 348.648 78.8329 348.653 78.973 348.665C79.117 348.672 79.2363 348.686 79.331 348.705V350.597C79.2438 350.566 79.1056 350.54 78.9162 350.517C78.7306 350.491 78.5507 350.477 78.3764 350.477C78.0014 350.477 77.6643 350.559 77.3651 350.722C77.0696 350.881 76.8366 351.102 76.6662 351.386C76.4957 351.67 76.4105 351.998 76.4105 352.369V357.5H74.3537ZM80.6974 357.5V348.773H82.7543V357.5H80.6974ZM81.7315 347.534C81.4058 347.534 81.1255 347.426 80.8906 347.21C80.6558 346.991 80.5384 346.727 80.5384 346.42C80.5384 346.11 80.6558 345.847 80.8906 345.631C81.1255 345.411 81.4058 345.301 81.7315 345.301C82.0611 345.301 82.3414 345.411 82.5724 345.631C82.8073 345.847 82.9247 346.11 82.9247 346.42C82.9247 346.727 82.8073 346.991 82.5724 347.21C82.3414 347.426 82.0611 347.534 81.7315 347.534ZM84.8693 357.5V348.773H86.8352V350.256H86.9375C87.1193 349.756 87.4205 349.366 87.8409 349.085C88.2614 348.801 88.7633 348.659 89.3466 348.659C89.9375 348.659 90.4356 348.803 90.8409 349.091C91.25 349.375 91.5379 349.763 91.7045 350.256H91.7955C91.9886 349.771 92.3144 349.384 92.7727 349.097C93.2348 348.805 93.7822 348.659 94.4148 348.659C95.2178 348.659 95.8731 348.913 96.3807 349.42C96.8883 349.928 97.142 350.669 97.142 351.642V357.5H95.0795V351.96C95.0795 351.419 94.9356 351.023 94.6477 350.773C94.3598 350.519 94.0076 350.392 93.5909 350.392C93.0947 350.392 92.7064 350.547 92.4261 350.858C92.1496 351.165 92.0114 351.564 92.0114 352.057V357.5H89.9943V351.875C89.9943 351.424 89.858 351.064 89.5852 350.795C89.3163 350.527 88.964 350.392 88.5284 350.392C88.233 350.392 87.964 350.468 87.7216 350.619C87.4792 350.767 87.286 350.977 87.142 351.25C86.9981 351.519 86.9261 351.833 86.9261 352.193V357.5H84.8693ZM101.74 357.676C101.187 357.676 100.689 357.578 100.246 357.381C99.8063 357.18 99.4579 356.884 99.2003 356.494C98.9465 356.104 98.8196 355.623 98.8196 355.051C98.8196 354.559 98.9105 354.152 99.0923 353.83C99.2741 353.508 99.5223 353.25 99.8366 353.057C100.151 352.864 100.505 352.718 100.899 352.619C101.297 352.517 101.708 352.443 102.132 352.398C102.643 352.345 103.058 352.297 103.376 352.256C103.695 352.21 103.926 352.142 104.07 352.051C104.217 351.956 104.291 351.811 104.291 351.614V351.58C104.291 351.152 104.164 350.82 103.911 350.585C103.657 350.35 103.291 350.233 102.814 350.233C102.31 350.233 101.911 350.343 101.615 350.562C101.323 350.782 101.126 351.042 101.024 351.341L99.1037 351.068C99.2552 350.538 99.5052 350.095 99.8537 349.739C100.202 349.379 100.628 349.11 101.132 348.932C101.636 348.75 102.193 348.659 102.803 348.659C103.223 348.659 103.642 348.708 104.058 348.807C104.475 348.905 104.856 349.068 105.2 349.295C105.545 349.519 105.821 349.824 106.03 350.21C106.242 350.597 106.348 351.08 106.348 351.659V357.5H104.371V356.301H104.303C104.178 356.544 104.001 356.771 103.774 356.983C103.551 357.191 103.268 357.36 102.928 357.489C102.59 357.614 102.195 357.676 101.74 357.676ZM102.274 356.165C102.687 356.165 103.045 356.083 103.348 355.92C103.651 355.754 103.884 355.534 104.047 355.261C104.214 354.989 104.297 354.691 104.297 354.369V353.341C104.232 353.394 104.123 353.443 103.967 353.489C103.816 353.534 103.645 353.574 103.456 353.608C103.267 353.642 103.079 353.672 102.893 353.699C102.708 353.725 102.547 353.748 102.411 353.767C102.104 353.809 101.829 353.877 101.587 353.972C101.344 354.066 101.153 354.199 101.013 354.369C100.873 354.536 100.803 354.752 100.803 355.017C100.803 355.396 100.941 355.682 101.217 355.875C101.494 356.068 101.846 356.165 102.274 356.165ZM108.416 357.5V348.773H110.411V350.227H110.501C110.661 349.723 110.933 349.335 111.32 349.062C111.71 348.786 112.155 348.648 112.655 348.648C112.768 348.648 112.895 348.653 113.036 348.665C113.179 348.672 113.299 348.686 113.393 348.705V350.597C113.306 350.566 113.168 350.54 112.979 350.517C112.793 350.491 112.613 350.477 112.439 350.477C112.064 350.477 111.727 350.559 111.428 350.722C111.132 350.881 110.899 351.102 110.729 351.386C110.558 351.67 110.473 351.998 110.473 352.369V357.5H108.416ZM116.304 360.773C116.024 360.773 115.764 360.75 115.526 360.705C115.291 360.663 115.103 360.614 114.963 360.557L115.44 358.955C115.74 359.042 116.007 359.083 116.241 359.08C116.476 359.076 116.683 359.002 116.861 358.858C117.043 358.718 117.196 358.483 117.321 358.153L117.497 357.682L114.332 348.773H116.514L118.526 355.364H118.616L120.634 348.773H122.821L119.327 358.557C119.164 359.019 118.948 359.415 118.679 359.744C118.41 360.078 118.08 360.331 117.69 360.506C117.304 360.684 116.842 360.773 116.304 360.773ZM130.412 345.864V357.5H128.304V345.864H130.412ZM134.661 352.386V357.5H132.604V348.773H134.57V350.256H134.672C134.873 349.767 135.193 349.379 135.632 349.091C136.075 348.803 136.623 348.659 137.274 348.659C137.876 348.659 138.401 348.788 138.848 349.045C139.299 349.303 139.647 349.676 139.893 350.165C140.143 350.653 140.267 351.246 140.263 351.943V357.5H138.206V352.261C138.206 351.678 138.054 351.222 137.751 350.892C137.452 350.562 137.037 350.398 136.507 350.398C136.147 350.398 135.827 350.477 135.547 350.636C135.27 350.792 135.053 351.017 134.893 351.312C134.738 351.608 134.661 351.966 134.661 352.386ZM146.712 348.773V350.364H141.695V348.773H146.712ZM142.933 346.682H144.99V354.875C144.99 355.152 145.032 355.364 145.115 355.511C145.202 355.655 145.316 355.754 145.456 355.807C145.596 355.86 145.751 355.886 145.922 355.886C146.051 355.886 146.168 355.877 146.274 355.858C146.384 355.839 146.467 355.822 146.524 355.807L146.871 357.415C146.761 357.453 146.604 357.494 146.399 357.54C146.198 357.585 145.952 357.612 145.661 357.619C145.145 357.634 144.681 357.557 144.268 357.386C143.856 357.212 143.528 356.943 143.286 356.58C143.047 356.216 142.929 355.761 142.933 355.216V346.682ZM152.202 357.67C151.327 357.67 150.571 357.489 149.935 357.125C149.302 356.758 148.815 356.239 148.474 355.568C148.134 354.894 147.963 354.1 147.963 353.188C147.963 352.29 148.134 351.502 148.474 350.824C148.819 350.142 149.3 349.612 149.918 349.233C150.535 348.85 151.26 348.659 152.094 348.659C152.632 348.659 153.139 348.746 153.616 348.92C154.098 349.091 154.522 349.356 154.889 349.716C155.26 350.076 155.552 350.534 155.764 351.091C155.976 351.644 156.082 352.303 156.082 353.068V353.699H148.929V352.312H154.111C154.107 351.919 154.022 351.568 153.855 351.261C153.688 350.951 153.455 350.706 153.156 350.528C152.861 350.35 152.516 350.261 152.122 350.261C151.702 350.261 151.332 350.364 151.014 350.568C150.696 350.769 150.448 351.034 150.27 351.364C150.096 351.689 150.007 352.047 150.003 352.438V353.648C150.003 354.155 150.096 354.591 150.281 354.955C150.467 355.314 150.726 355.591 151.06 355.784C151.393 355.973 151.783 356.068 152.23 356.068C152.529 356.068 152.8 356.027 153.043 355.943C153.285 355.856 153.495 355.729 153.673 355.562C153.851 355.396 153.986 355.189 154.077 354.943L155.997 355.159C155.876 355.667 155.645 356.11 155.304 356.489C154.967 356.864 154.535 357.155 154.009 357.364C153.482 357.568 152.88 357.67 152.202 357.67ZM157.822 357.5V348.773H159.817V350.227H159.908C160.067 349.723 160.339 349.335 160.726 349.062C161.116 348.786 161.561 348.648 162.061 348.648C162.175 348.648 162.302 348.653 162.442 348.665C162.586 348.672 162.705 348.686 162.8 348.705V350.597C162.713 350.566 162.574 350.54 162.385 350.517C162.199 350.491 162.019 350.477 161.845 350.477C161.47 350.477 161.133 350.559 160.834 350.722C160.538 350.881 160.305 351.102 160.135 351.386C159.964 351.67 159.879 351.998 159.879 352.369V357.5H157.822ZM166.521 357.676C165.968 357.676 165.47 357.578 165.027 357.381C164.588 357.18 164.239 356.884 163.982 356.494C163.728 356.104 163.601 355.623 163.601 355.051C163.601 354.559 163.692 354.152 163.874 353.83C164.055 353.508 164.304 353.25 164.618 353.057C164.932 352.864 165.286 352.718 165.68 352.619C166.078 352.517 166.489 352.443 166.913 352.398C167.425 352.345 167.839 352.297 168.158 352.256C168.476 352.21 168.707 352.142 168.851 352.051C168.999 351.956 169.072 351.811 169.072 351.614V351.58C169.072 351.152 168.946 350.82 168.692 350.585C168.438 350.35 168.072 350.233 167.595 350.233C167.091 350.233 166.692 350.343 166.396 350.562C166.105 350.782 165.908 351.042 165.805 351.341L163.885 351.068C164.036 350.538 164.286 350.095 164.635 349.739C164.983 349.379 165.41 349.11 165.913 348.932C166.417 348.75 166.974 348.659 167.584 348.659C168.004 348.659 168.423 348.708 168.839 348.807C169.256 348.905 169.637 349.068 169.982 349.295C170.326 349.519 170.603 349.824 170.811 350.21C171.023 350.597 171.129 351.08 171.129 351.659V357.5H169.152V356.301H169.084C168.959 356.544 168.783 356.771 168.555 356.983C168.332 357.191 168.05 357.36 167.709 357.489C167.372 357.614 166.976 357.676 166.521 357.676ZM167.055 356.165C167.468 356.165 167.826 356.083 168.129 355.92C168.432 355.754 168.665 355.534 168.828 355.261C168.995 354.989 169.078 354.691 169.078 354.369V353.341C169.014 353.394 168.904 353.443 168.749 353.489C168.597 353.534 168.427 353.574 168.237 353.608C168.048 353.642 167.86 353.672 167.675 353.699C167.489 353.725 167.328 353.748 167.192 353.767C166.885 353.809 166.61 353.877 166.368 353.972C166.125 354.066 165.934 354.199 165.794 354.369C165.654 354.536 165.584 354.752 165.584 355.017C165.584 355.396 165.722 355.682 165.999 355.875C166.275 356.068 166.627 356.165 167.055 356.165ZM177.004 357.67C176.133 357.67 175.385 357.479 174.76 357.097C174.139 356.714 173.66 356.186 173.322 355.511C172.989 354.833 172.822 354.053 172.822 353.17C172.822 352.284 172.993 351.502 173.334 350.824C173.675 350.142 174.156 349.612 174.777 349.233C175.402 348.85 176.141 348.659 176.993 348.659C177.701 348.659 178.328 348.79 178.874 349.051C179.423 349.309 179.86 349.674 180.186 350.148C180.512 350.617 180.697 351.167 180.743 351.795H178.777C178.697 351.375 178.508 351.025 178.209 350.744C177.913 350.46 177.518 350.318 177.021 350.318C176.601 350.318 176.232 350.432 175.913 350.659C175.595 350.883 175.347 351.205 175.169 351.625C174.995 352.045 174.908 352.549 174.908 353.136C174.908 353.731 174.995 354.242 175.169 354.67C175.343 355.095 175.588 355.422 175.902 355.653C176.22 355.881 176.593 355.994 177.021 355.994C177.324 355.994 177.595 355.937 177.834 355.824C178.076 355.706 178.279 355.538 178.442 355.318C178.605 355.098 178.716 354.831 178.777 354.517H180.743C180.694 355.134 180.512 355.682 180.197 356.159C179.883 356.633 179.455 357.004 178.913 357.273C178.372 357.538 177.735 357.67 177.004 357.67ZM186.79 348.773V350.364H181.773V348.773H186.79ZM183.011 346.682H185.068V354.875C185.068 355.152 185.11 355.364 185.193 355.511C185.28 355.655 185.394 355.754 185.534 355.807C185.674 355.86 185.83 355.886 186 355.886C186.129 355.886 186.246 355.877 186.352 355.858C186.462 355.839 186.545 355.822 186.602 355.807L186.949 357.415C186.839 357.453 186.682 357.494 186.477 357.54C186.277 357.585 186.03 357.612 185.739 357.619C185.223 357.634 184.759 357.557 184.347 357.386C183.934 357.212 183.606 356.943 183.364 356.58C183.125 356.216 183.008 355.761 183.011 355.216V346.682ZM188.51 357.5V348.773H190.567V357.5H188.51ZM189.544 347.534C189.218 347.534 188.938 347.426 188.703 347.21C188.468 346.991 188.351 346.727 188.351 346.42C188.351 346.11 188.468 345.847 188.703 345.631C188.938 345.411 189.218 345.301 189.544 345.301C189.874 345.301 190.154 345.411 190.385 345.631C190.62 345.847 190.737 346.11 190.737 346.42C190.737 346.727 190.62 346.991 190.385 347.21C190.154 347.426 189.874 347.534 189.544 347.534ZM196.489 357.67C195.636 357.67 194.898 357.483 194.273 357.108C193.648 356.733 193.163 356.208 192.818 355.534C192.477 354.86 192.307 354.072 192.307 353.17C192.307 352.269 192.477 351.479 192.818 350.801C193.163 350.123 193.648 349.597 194.273 349.222C194.898 348.847 195.636 348.659 196.489 348.659C197.341 348.659 198.08 348.847 198.705 349.222C199.33 349.597 199.813 350.123 200.153 350.801C200.498 351.479 200.67 352.269 200.67 353.17C200.67 354.072 200.498 354.86 200.153 355.534C199.813 356.208 199.33 356.733 198.705 357.108C198.08 357.483 197.341 357.67 196.489 357.67ZM196.5 356.023C196.962 356.023 197.348 355.896 197.659 355.642C197.97 355.384 198.201 355.04 198.352 354.608C198.508 354.176 198.585 353.695 198.585 353.165C198.585 352.631 198.508 352.148 198.352 351.716C198.201 351.28 197.97 350.934 197.659 350.676C197.348 350.419 196.962 350.29 196.5 350.29C196.027 350.29 195.633 350.419 195.318 350.676C195.008 350.934 194.775 351.28 194.619 351.716C194.468 352.148 194.392 352.631 194.392 353.165C194.392 353.695 194.468 354.176 194.619 354.608C194.775 355.04 195.008 355.384 195.318 355.642C195.633 355.896 196.027 356.023 196.5 356.023ZM204.473 352.386V357.5H202.416V348.773H204.382V350.256H204.484C204.685 349.767 205.005 349.379 205.445 349.091C205.888 348.803 206.435 348.659 207.087 348.659C207.689 348.659 208.214 348.788 208.661 349.045C209.111 349.303 209.46 349.676 209.706 350.165C209.956 350.653 210.079 351.246 210.075 351.943V357.5H208.018V352.261C208.018 351.678 207.867 351.222 207.564 350.892C207.265 350.562 206.85 350.398 206.32 350.398C205.96 350.398 205.64 350.477 205.359 350.636C205.083 350.792 204.865 351.017 204.706 351.312C204.551 351.608 204.473 351.966 204.473 352.386ZM219.064 351.08L217.189 351.284C217.136 351.095 217.043 350.917 216.911 350.75C216.782 350.583 216.607 350.449 216.388 350.347C216.168 350.244 215.899 350.193 215.581 350.193C215.153 350.193 214.793 350.286 214.501 350.472C214.214 350.657 214.071 350.898 214.075 351.193C214.071 351.447 214.164 351.653 214.354 351.812C214.547 351.972 214.865 352.102 215.308 352.205L216.797 352.523C217.623 352.701 218.236 352.983 218.638 353.369C219.043 353.756 219.248 354.261 219.251 354.886C219.248 355.436 219.087 355.92 218.768 356.341C218.454 356.758 218.017 357.083 217.456 357.318C216.895 357.553 216.251 357.67 215.524 357.67C214.456 357.67 213.596 357.447 212.945 357C212.293 356.549 211.905 355.922 211.78 355.119L213.786 354.926C213.876 355.32 214.07 355.617 214.365 355.818C214.661 356.019 215.045 356.119 215.518 356.119C216.007 356.119 216.399 356.019 216.695 355.818C216.994 355.617 217.143 355.369 217.143 355.074C217.143 354.824 217.047 354.617 216.854 354.455C216.664 354.292 216.369 354.167 215.967 354.08L214.479 353.767C213.642 353.593 213.022 353.299 212.621 352.886C212.219 352.47 212.02 351.943 212.024 351.307C212.02 350.769 212.166 350.303 212.462 349.909C212.761 349.511 213.176 349.205 213.706 348.989C214.24 348.769 214.856 348.659 215.553 348.659C216.575 348.659 217.38 348.877 217.967 349.312C218.558 349.748 218.924 350.337 219.064 351.08Z" fill="black"/>
<rect x="265" y="340" width="24" height="24" fill="#9DCFFE"/>
<path d="M306.472 349.062C306.419 348.566 306.195 348.18 305.801 347.903C305.411 347.627 304.903 347.489 304.278 347.489C303.839 347.489 303.462 347.555 303.148 347.688C302.833 347.82 302.593 348 302.426 348.227C302.259 348.455 302.174 348.714 302.17 349.006C302.17 349.248 302.225 349.458 302.335 349.636C302.449 349.814 302.602 349.966 302.795 350.091C302.989 350.212 303.203 350.314 303.438 350.398C303.672 350.481 303.909 350.551 304.148 350.608L305.239 350.881C305.678 350.983 306.1 351.121 306.506 351.295C306.915 351.47 307.28 351.689 307.602 351.955C307.928 352.22 308.186 352.54 308.375 352.915C308.564 353.29 308.659 353.729 308.659 354.233C308.659 354.915 308.485 355.515 308.136 356.034C307.788 356.549 307.284 356.953 306.625 357.244C305.97 357.532 305.176 357.676 304.244 357.676C303.339 357.676 302.553 357.536 301.886 357.256C301.223 356.975 300.705 356.566 300.33 356.028C299.958 355.491 299.758 354.835 299.727 354.062H301.801C301.831 354.468 301.956 354.805 302.176 355.074C302.396 355.343 302.682 355.544 303.034 355.676C303.39 355.809 303.788 355.875 304.227 355.875C304.686 355.875 305.087 355.807 305.432 355.67C305.78 355.53 306.053 355.337 306.25 355.091C306.447 354.841 306.547 354.549 306.551 354.216C306.547 353.913 306.458 353.663 306.284 353.466C306.11 353.265 305.866 353.098 305.551 352.966C305.241 352.83 304.877 352.708 304.46 352.602L303.136 352.261C302.178 352.015 301.42 351.642 300.864 351.142C300.311 350.638 300.034 349.97 300.034 349.136C300.034 348.451 300.22 347.85 300.591 347.335C300.966 346.82 301.475 346.42 302.119 346.136C302.763 345.848 303.492 345.705 304.307 345.705C305.133 345.705 305.856 345.848 306.477 346.136C307.102 346.42 307.593 346.816 307.949 347.324C308.305 347.828 308.489 348.407 308.5 349.062H306.472ZM314.311 357.67C313.436 357.67 312.68 357.489 312.044 357.125C311.411 356.758 310.925 356.239 310.584 355.568C310.243 354.894 310.072 354.1 310.072 353.188C310.072 352.29 310.243 351.502 310.584 350.824C310.929 350.142 311.41 349.612 312.027 349.233C312.644 348.85 313.37 348.659 314.203 348.659C314.741 348.659 315.249 348.746 315.726 348.92C316.207 349.091 316.631 349.356 316.999 349.716C317.37 350.076 317.661 350.534 317.874 351.091C318.086 351.644 318.192 352.303 318.192 353.068V353.699H311.038V352.312H316.22C316.216 351.919 316.131 351.568 315.964 351.261C315.798 350.951 315.565 350.706 315.266 350.528C314.97 350.35 314.625 350.261 314.232 350.261C313.811 350.261 313.442 350.364 313.124 350.568C312.805 350.769 312.557 351.034 312.379 351.364C312.205 351.689 312.116 352.047 312.112 352.438V353.648C312.112 354.155 312.205 354.591 312.391 354.955C312.576 355.314 312.836 355.591 313.169 355.784C313.502 355.973 313.893 356.068 314.339 356.068C314.639 356.068 314.91 356.027 315.152 355.943C315.394 355.856 315.605 355.729 315.783 355.562C315.961 355.396 316.095 355.189 316.186 354.943L318.107 355.159C317.985 355.667 317.754 356.11 317.413 356.489C317.076 356.864 316.644 357.155 316.118 357.364C315.591 357.568 314.989 357.67 314.311 357.67ZM323.739 357.67C322.867 357.67 322.119 357.479 321.494 357.097C320.873 356.714 320.394 356.186 320.057 355.511C319.723 354.833 319.557 354.053 319.557 353.17C319.557 352.284 319.727 351.502 320.068 350.824C320.409 350.142 320.89 349.612 321.511 349.233C322.136 348.85 322.875 348.659 323.727 348.659C324.436 348.659 325.063 348.79 325.608 349.051C326.157 349.309 326.595 349.674 326.92 350.148C327.246 350.617 327.432 351.167 327.477 351.795H325.511C325.432 351.375 325.242 351.025 324.943 350.744C324.648 350.46 324.252 350.318 323.756 350.318C323.335 350.318 322.966 350.432 322.648 350.659C322.33 350.883 322.081 351.205 321.903 351.625C321.729 352.045 321.642 352.549 321.642 353.136C321.642 353.731 321.729 354.242 321.903 354.67C322.078 355.095 322.322 355.422 322.636 355.653C322.955 355.881 323.328 355.994 323.756 355.994C324.059 355.994 324.33 355.937 324.568 355.824C324.811 355.706 325.013 355.538 325.176 355.318C325.339 355.098 325.451 354.831 325.511 354.517H327.477C327.428 355.134 327.246 355.682 326.932 356.159C326.617 356.633 326.189 357.004 325.648 357.273C325.106 357.538 324.47 357.67 323.739 357.67ZM332.973 357.67C332.121 357.67 331.382 357.483 330.757 357.108C330.132 356.733 329.647 356.208 329.303 355.534C328.962 354.86 328.791 354.072 328.791 353.17C328.791 352.269 328.962 351.479 329.303 350.801C329.647 350.123 330.132 349.597 330.757 349.222C331.382 348.847 332.121 348.659 332.973 348.659C333.825 348.659 334.564 348.847 335.189 349.222C335.814 349.597 336.297 350.123 336.638 350.801C336.982 351.479 337.155 352.269 337.155 353.17C337.155 354.072 336.982 354.86 336.638 355.534C336.297 356.208 335.814 356.733 335.189 357.108C334.564 357.483 333.825 357.67 332.973 357.67ZM332.984 356.023C333.446 356.023 333.833 355.896 334.143 355.642C334.454 355.384 334.685 355.04 334.837 354.608C334.992 354.176 335.07 353.695 335.07 353.165C335.07 352.631 334.992 352.148 334.837 351.716C334.685 351.28 334.454 350.934 334.143 350.676C333.833 350.419 333.446 350.29 332.984 350.29C332.511 350.29 332.117 350.419 331.803 350.676C331.492 350.934 331.259 351.28 331.104 351.716C330.952 352.148 330.876 352.631 330.876 353.165C330.876 353.695 330.952 354.176 331.104 354.608C331.259 355.04 331.492 355.384 331.803 355.642C332.117 355.896 332.511 356.023 332.984 356.023ZM340.957 352.386V357.5H338.901V348.773H340.866V350.256H340.969C341.17 349.767 341.49 349.379 341.929 349.091C342.372 348.803 342.92 348.659 343.571 348.659C344.173 348.659 344.698 348.788 345.145 349.045C345.596 349.303 345.944 349.676 346.19 350.165C346.44 350.653 346.563 351.246 346.56 351.943V357.5H344.503V352.261C344.503 351.678 344.351 351.222 344.048 350.892C343.749 350.562 343.334 350.398 342.804 350.398C342.444 350.398 342.124 350.477 341.844 350.636C341.567 350.792 341.349 351.017 341.19 351.312C341.035 351.608 340.957 351.966 340.957 352.386ZM351.889 357.653C351.204 357.653 350.59 357.477 350.048 357.125C349.507 356.773 349.079 356.261 348.764 355.591C348.45 354.92 348.293 354.106 348.293 353.148C348.293 352.178 348.452 351.36 348.77 350.693C349.092 350.023 349.526 349.517 350.071 349.176C350.616 348.831 351.224 348.659 351.895 348.659C352.406 348.659 352.827 348.746 353.156 348.92C353.486 349.091 353.747 349.297 353.94 349.54C354.134 349.778 354.283 350.004 354.389 350.216H354.474V345.864H356.537V357.5H354.514V356.125H354.389C354.283 356.337 354.13 356.562 353.929 356.801C353.728 357.036 353.463 357.237 353.134 357.403C352.804 357.57 352.389 357.653 351.889 357.653ZM352.463 355.966C352.899 355.966 353.27 355.848 353.577 355.614C353.884 355.375 354.116 355.044 354.276 354.619C354.435 354.195 354.514 353.701 354.514 353.136C354.514 352.572 354.435 352.081 354.276 351.665C354.12 351.248 353.889 350.924 353.582 350.693C353.279 350.462 352.906 350.347 352.463 350.347C352.005 350.347 351.622 350.466 351.315 350.705C351.009 350.943 350.777 351.273 350.622 351.693C350.467 352.114 350.389 352.595 350.389 353.136C350.389 353.682 350.467 354.169 350.622 354.597C350.781 355.021 351.014 355.356 351.321 355.602C351.632 355.845 352.012 355.966 352.463 355.966ZM361.24 357.676C360.687 357.676 360.189 357.578 359.746 357.381C359.306 357.18 358.958 356.884 358.7 356.494C358.446 356.104 358.32 355.623 358.32 355.051C358.32 354.559 358.411 354.152 358.592 353.83C358.774 353.508 359.022 353.25 359.337 353.057C359.651 352.864 360.005 352.718 360.399 352.619C360.797 352.517 361.208 352.443 361.632 352.398C362.143 352.345 362.558 352.297 362.876 352.256C363.195 352.21 363.426 352.142 363.57 352.051C363.717 351.956 363.791 351.811 363.791 351.614V351.58C363.791 351.152 363.664 350.82 363.411 350.585C363.157 350.35 362.791 350.233 362.314 350.233C361.81 350.233 361.411 350.343 361.115 350.562C360.823 350.782 360.626 351.042 360.524 351.341L358.604 351.068C358.755 350.538 359.005 350.095 359.354 349.739C359.702 349.379 360.128 349.11 360.632 348.932C361.136 348.75 361.693 348.659 362.303 348.659C362.723 348.659 363.142 348.708 363.558 348.807C363.975 348.905 364.356 349.068 364.7 349.295C365.045 349.519 365.321 349.824 365.53 350.21C365.742 350.597 365.848 351.08 365.848 351.659V357.5H363.871V356.301H363.803C363.678 356.544 363.501 356.771 363.274 356.983C363.051 357.191 362.768 357.36 362.428 357.489C362.09 357.614 361.695 357.676 361.24 357.676ZM361.774 356.165C362.187 356.165 362.545 356.083 362.848 355.92C363.151 355.754 363.384 355.534 363.547 355.261C363.714 354.989 363.797 354.691 363.797 354.369V353.341C363.732 353.394 363.623 353.443 363.467 353.489C363.316 353.534 363.145 353.574 362.956 353.608C362.767 353.642 362.579 353.672 362.393 353.699C362.208 353.725 362.047 353.748 361.911 353.767C361.604 353.809 361.329 353.877 361.087 353.972C360.844 354.066 360.653 354.199 360.513 354.369C360.373 354.536 360.303 354.752 360.303 355.017C360.303 355.396 360.441 355.682 360.717 355.875C360.994 356.068 361.346 356.165 361.774 356.165ZM367.916 357.5V348.773H369.911V350.227H370.001C370.161 349.723 370.433 349.335 370.82 349.062C371.21 348.786 371.655 348.648 372.155 348.648C372.268 348.648 372.395 348.653 372.536 348.665C372.679 348.672 372.799 348.686 372.893 348.705V350.597C372.806 350.566 372.668 350.54 372.479 350.517C372.293 350.491 372.113 350.477 371.939 350.477C371.564 350.477 371.227 350.559 370.928 350.722C370.632 350.881 370.399 351.102 370.229 351.386C370.058 351.67 369.973 351.998 369.973 352.369V357.5H367.916ZM375.804 360.773C375.524 360.773 375.264 360.75 375.026 360.705C374.791 360.663 374.603 360.614 374.463 360.557L374.94 358.955C375.24 359.042 375.507 359.083 375.741 359.08C375.976 359.076 376.183 359.002 376.361 358.858C376.543 358.718 376.696 358.483 376.821 358.153L376.997 357.682L373.832 348.773H376.014L378.026 355.364H378.116L380.134 348.773H382.321L378.827 358.557C378.664 359.019 378.448 359.415 378.179 359.744C377.91 360.078 377.58 360.331 377.19 360.506C376.804 360.684 376.342 360.773 375.804 360.773ZM389.912 345.864V357.5H387.804V345.864H389.912ZM394.161 352.386V357.5H392.104V348.773H394.07V350.256H394.172C394.373 349.767 394.693 349.379 395.132 349.091C395.575 348.803 396.123 348.659 396.774 348.659C397.376 348.659 397.901 348.788 398.348 349.045C398.799 349.303 399.147 349.676 399.393 350.165C399.643 350.653 399.767 351.246 399.763 351.943V357.5H397.706V352.261C397.706 351.678 397.554 351.222 397.251 350.892C396.952 350.562 396.537 350.398 396.007 350.398C395.647 350.398 395.327 350.477 395.047 350.636C394.77 350.792 394.553 351.017 394.393 351.312C394.238 351.608 394.161 351.966 394.161 352.386ZM406.212 348.773V350.364H401.195V348.773H406.212ZM402.433 346.682H404.49V354.875C404.49 355.152 404.532 355.364 404.615 355.511C404.702 355.655 404.816 355.754 404.956 355.807C405.096 355.86 405.251 355.886 405.422 355.886C405.551 355.886 405.668 355.877 405.774 355.858C405.884 355.839 405.967 355.822 406.024 355.807L406.371 357.415C406.261 357.453 406.104 357.494 405.899 357.54C405.698 357.585 405.452 357.612 405.161 357.619C404.645 357.634 404.181 357.557 403.768 357.386C403.356 357.212 403.028 356.943 402.786 356.58C402.547 356.216 402.429 355.761 402.433 355.216V346.682ZM411.702 357.67C410.827 357.67 410.071 357.489 409.435 357.125C408.802 356.758 408.315 356.239 407.974 355.568C407.634 354.894 407.463 354.1 407.463 353.188C407.463 352.29 407.634 351.502 407.974 350.824C408.319 350.142 408.8 349.612 409.418 349.233C410.035 348.85 410.76 348.659 411.594 348.659C412.132 348.659 412.639 348.746 413.116 348.92C413.598 349.091 414.022 349.356 414.389 349.716C414.76 350.076 415.052 350.534 415.264 351.091C415.476 351.644 415.582 352.303 415.582 353.068V353.699H408.429V352.312H413.611C413.607 351.919 413.522 351.568 413.355 351.261C413.188 350.951 412.955 350.706 412.656 350.528C412.361 350.35 412.016 350.261 411.622 350.261C411.202 350.261 410.832 350.364 410.514 350.568C410.196 350.769 409.948 351.034 409.77 351.364C409.596 351.689 409.507 352.047 409.503 352.438V353.648C409.503 354.155 409.596 354.591 409.781 354.955C409.967 355.314 410.226 355.591 410.56 355.784C410.893 355.973 411.283 356.068 411.73 356.068C412.029 356.068 412.3 356.027 412.543 355.943C412.785 355.856 412.995 355.729 413.173 355.562C413.351 355.396 413.486 355.189 413.577 354.943L415.497 355.159C415.376 355.667 415.145 356.11 414.804 356.489C414.467 356.864 414.035 357.155 413.509 357.364C412.982 357.568 412.38 357.67 411.702 357.67ZM417.322 357.5V348.773H419.317V350.227H419.408C419.567 349.723 419.839 349.335 420.226 349.062C420.616 348.786 421.061 348.648 421.561 348.648C421.675 348.648 421.802 348.653 421.942 348.665C422.086 348.672 422.205 348.686 422.3 348.705V350.597C422.213 350.566 422.074 350.54 421.885 350.517C421.699 350.491 421.519 350.477 421.345 350.477C420.97 350.477 420.633 350.559 420.334 350.722C420.038 350.881 419.805 351.102 419.635 351.386C419.464 351.67 419.379 351.998 419.379 352.369V357.5H417.322ZM426.021 357.676C425.468 357.676 424.97 357.578 424.527 357.381C424.088 357.18 423.739 356.884 423.482 356.494C423.228 356.104 423.101 355.623 423.101 355.051C423.101 354.559 423.192 354.152 423.374 353.83C423.555 353.508 423.804 353.25 424.118 353.057C424.432 352.864 424.786 352.718 425.18 352.619C425.578 352.517 425.989 352.443 426.413 352.398C426.925 352.345 427.339 352.297 427.658 352.256C427.976 352.21 428.207 352.142 428.351 352.051C428.499 351.956 428.572 351.811 428.572 351.614V351.58C428.572 351.152 428.446 350.82 428.192 350.585C427.938 350.35 427.572 350.233 427.095 350.233C426.591 350.233 426.192 350.343 425.896 350.562C425.605 350.782 425.408 351.042 425.305 351.341L423.385 351.068C423.536 350.538 423.786 350.095 424.135 349.739C424.483 349.379 424.91 349.11 425.413 348.932C425.917 348.75 426.474 348.659 427.084 348.659C427.504 348.659 427.923 348.708 428.339 348.807C428.756 348.905 429.137 349.068 429.482 349.295C429.826 349.519 430.103 349.824 430.311 350.21C430.523 350.597 430.629 351.08 430.629 351.659V357.5H428.652V356.301H428.584C428.459 356.544 428.283 356.771 428.055 356.983C427.832 357.191 427.55 357.36 427.209 357.489C426.872 357.614 426.476 357.676 426.021 357.676ZM426.555 356.165C426.968 356.165 427.326 356.083 427.629 355.92C427.932 355.754 428.165 355.534 428.328 355.261C428.495 354.989 428.578 354.691 428.578 354.369V353.341C428.514 353.394 428.404 353.443 428.249 353.489C428.097 353.534 427.927 353.574 427.737 353.608C427.548 353.642 427.36 353.672 427.175 353.699C426.989 353.725 426.828 353.748 426.692 353.767C426.385 353.809 426.11 353.877 425.868 353.972C425.625 354.066 425.434 354.199 425.294 354.369C425.154 354.536 425.084 354.752 425.084 355.017C425.084 355.396 425.222 355.682 425.499 355.875C425.775 356.068 426.127 356.165 426.555 356.165ZM436.504 357.67C435.633 357.67 434.885 357.479 434.26 357.097C433.639 356.714 433.16 356.186 432.822 355.511C432.489 354.833 432.322 354.053 432.322 353.17C432.322 352.284 432.493 351.502 432.834 350.824C433.175 350.142 433.656 349.612 434.277 349.233C434.902 348.85 435.641 348.659 436.493 348.659C437.201 348.659 437.828 348.79 438.374 349.051C438.923 349.309 439.36 349.674 439.686 350.148C440.012 350.617 440.197 351.167 440.243 351.795H438.277C438.197 351.375 438.008 351.025 437.709 350.744C437.413 350.46 437.018 350.318 436.521 350.318C436.101 350.318 435.732 350.432 435.413 350.659C435.095 350.883 434.847 351.205 434.669 351.625C434.495 352.045 434.408 352.549 434.408 353.136C434.408 353.731 434.495 354.242 434.669 354.67C434.843 355.095 435.088 355.422 435.402 355.653C435.72 355.881 436.093 355.994 436.521 355.994C436.824 355.994 437.095 355.937 437.334 355.824C437.576 355.706 437.779 355.538 437.942 355.318C438.105 355.098 438.216 354.831 438.277 354.517H440.243C440.194 355.134 440.012 355.682 439.697 356.159C439.383 356.633 438.955 357.004 438.413 357.273C437.872 357.538 437.235 357.67 436.504 357.67ZM446.29 348.773V350.364H441.273V348.773H446.29ZM442.511 346.682H444.568V354.875C444.568 355.152 444.61 355.364 444.693 355.511C444.78 355.655 444.894 355.754 445.034 355.807C445.174 355.86 445.33 355.886 445.5 355.886C445.629 355.886 445.746 355.877 445.852 355.858C445.962 355.839 446.045 355.822 446.102 355.807L446.449 357.415C446.339 357.453 446.182 357.494 445.977 357.54C445.777 357.585 445.53 357.612 445.239 357.619C444.723 357.634 444.259 357.557 443.847 357.386C443.434 357.212 443.106 356.943 442.864 356.58C442.625 356.216 442.508 355.761 442.511 355.216V346.682ZM448.01 357.5V348.773H450.067V357.5H448.01ZM449.044 347.534C448.718 347.534 448.438 347.426 448.203 347.21C447.968 346.991 447.851 346.727 447.851 346.42C447.851 346.11 447.968 345.847 448.203 345.631C448.438 345.411 448.718 345.301 449.044 345.301C449.374 345.301 449.654 345.411 449.885 345.631C450.12 345.847 450.237 346.11 450.237 346.42C450.237 346.727 450.12 346.991 449.885 347.21C449.654 347.426 449.374 347.534 449.044 347.534ZM455.989 357.67C455.136 357.67 454.398 357.483 453.773 357.108C453.148 356.733 452.663 356.208 452.318 355.534C451.977 354.86 451.807 354.072 451.807 353.17C451.807 352.269 451.977 351.479 452.318 350.801C452.663 350.123 453.148 349.597 453.773 349.222C454.398 348.847 455.136 348.659 455.989 348.659C456.841 348.659 457.58 348.847 458.205 349.222C458.83 349.597 459.313 350.123 459.653 350.801C459.998 351.479 460.17 352.269 460.17 353.17C460.17 354.072 459.998 354.86 459.653 355.534C459.313 356.208 458.83 356.733 458.205 357.108C457.58 357.483 456.841 357.67 455.989 357.67ZM456 356.023C456.462 356.023 456.848 355.896 457.159 355.642C457.47 355.384 457.701 355.04 457.852 354.608C458.008 354.176 458.085 353.695 458.085 353.165C458.085 352.631 458.008 352.148 457.852 351.716C457.701 351.28 457.47 350.934 457.159 350.676C456.848 350.419 456.462 350.29 456 350.29C455.527 350.29 455.133 350.419 454.818 350.676C454.508 350.934 454.275 351.28 454.119 351.716C453.968 352.148 453.892 352.631 453.892 353.165C453.892 353.695 453.968 354.176 454.119 354.608C454.275 355.04 454.508 355.384 454.818 355.642C455.133 355.896 455.527 356.023 456 356.023ZM463.973 352.386V357.5H461.916V348.773H463.882V350.256H463.984C464.185 349.767 464.505 349.379 464.945 349.091C465.388 348.803 465.935 348.659 466.587 348.659C467.189 348.659 467.714 348.788 468.161 349.045C468.611 349.303 468.96 349.676 469.206 350.165C469.456 350.653 469.579 351.246 469.575 351.943V357.5H467.518V352.261C467.518 351.678 467.367 351.222 467.064 350.892C466.765 350.562 466.35 350.398 465.82 350.398C465.46 350.398 465.14 350.477 464.859 350.636C464.583 350.792 464.365 351.017 464.206 351.312C464.051 351.608 463.973 351.966 463.973 352.386ZM478.564 351.08L476.689 351.284C476.636 351.095 476.543 350.917 476.411 350.75C476.282 350.583 476.107 350.449 475.888 350.347C475.668 350.244 475.399 350.193 475.081 350.193C474.653 350.193 474.293 350.286 474.001 350.472C473.714 350.657 473.571 350.898 473.575 351.193C473.571 351.447 473.664 351.653 473.854 351.812C474.047 351.972 474.365 352.102 474.808 352.205L476.297 352.523C477.123 352.701 477.736 352.983 478.138 353.369C478.543 353.756 478.748 354.261 478.751 354.886C478.748 355.436 478.587 355.92 478.268 356.341C477.954 356.758 477.517 357.083 476.956 357.318C476.395 357.553 475.751 357.67 475.024 357.67C473.956 357.67 473.096 357.447 472.445 357C471.793 356.549 471.405 355.922 471.28 355.119L473.286 354.926C473.376 355.32 473.57 355.617 473.865 355.818C474.161 356.019 474.545 356.119 475.018 356.119C475.507 356.119 475.899 356.019 476.195 355.818C476.494 355.617 476.643 355.369 476.643 355.074C476.643 354.824 476.547 354.617 476.354 354.455C476.164 354.292 475.869 354.167 475.467 354.08L473.979 353.767C473.142 353.593 472.522 353.299 472.121 352.886C471.719 352.47 471.52 351.943 471.524 351.307C471.52 350.769 471.666 350.303 471.962 349.909C472.261 349.511 472.676 349.205 473.206 348.989C473.74 348.769 474.356 348.659 475.053 348.659C476.075 348.659 476.88 348.877 477.467 349.312C478.058 349.748 478.424 350.337 478.564 351.08Z" fill="black"/>
<defs>
<linearGradient id="paint0_linear_248_4031" x1="66.7044" y1="341.267" x2="66.7044" y2="151.769" gradientUnits="userSpaceOnUse">
<stop offset="0.161458" stop-color="#DDE0EE" stop-opacity="0"/>
<stop offset="0.447917" stop-color="#DDE0EE"/>
</linearGradient>
<linearGradient id="paint1_linear_248_4031" x1="443.103" y1="341.267" x2="443.103" y2="151.769" gradientUnits="userSpaceOnUse">
<stop offset="0.161458" stop-color="#DDE0EE" stop-opacity="0"/>
<stop offset="0.447917" stop-color="#DDE0EE"/>
</linearGradient>
<clipPath id="clip0_248_4031">
<rect width="509.358" height="341.355" fill="white"/>
</clipPath>
</defs>
</svg>
