<svg width="510" height="342" viewBox="0 0 510 342" fill="none" xmlns="http://www.w3.org/2000/svg">
<g clip-path="url(#clip0_313_3146)">
<path d="M139.076 193.838C136.967 193.838 135.165 192.317 134.811 190.238L131.959 173.5C131.509 170.858 133.544 168.447 136.224 168.447L145.657 168.447C148.337 168.447 150.372 170.858 149.922 173.5L147.07 190.238C146.716 192.317 144.914 193.838 142.805 193.838L139.076 193.838Z" fill="#DDE0EE"/>
<path d="M169.098 193.838C166.989 193.838 165.187 192.317 164.833 190.238L161.981 173.5C161.531 170.858 163.566 168.447 166.246 168.447L175.68 168.447C178.359 168.447 180.395 170.858 179.945 173.5L177.093 190.238C176.738 192.317 174.937 193.838 172.828 193.838L169.098 193.838Z" fill="#DDE0EE"/>
<path d="M206.502 157.758C208.891 157.758 210.828 159.695 210.828 162.084L210.828 181.938C210.828 183.063 210.39 184.143 209.607 184.951L202.26 192.524C201.445 193.364 200.325 193.838 199.155 193.838L195.469 193.838C193.08 193.838 191.143 191.901 191.143 189.511L191.143 162.084C191.143 159.695 193.08 157.758 195.469 157.758L206.502 157.758Z" fill="#DDE0EE"/>
<path d="M228.589 158.672C227.241 155.803 229.334 152.506 232.505 152.506H281.18C284.35 152.506 286.444 155.803 285.096 158.672L276.182 177.649C275.469 179.167 273.943 180.136 272.266 180.136H241.419C239.742 180.136 238.216 179.167 237.503 177.649L228.589 158.672Z" fill="#1B8CF5"/>
<path d="M82.1147 143.279C75.4327 143.92 69.2997 139.476 67.9007 132.91L44.7519 24.2761C43.172 16.8617 48.2246 9.72552 55.7658 8.95126C84.2911 6.02253 155.272 7.72595e-06 256.626 7.72437e-06C357.648 7.72279e-06 428.495 5.98306 457.204 8.92231C464.844 9.70445 469.92 17.004 468.176 24.4829L442.834 133.179C441.332 139.624 435.264 143.934 428.677 143.3C404.192 140.944 342.026 135.945 255.283 135.945C168.806 135.945 106.755 140.913 82.1147 143.279Z" fill="#E5E8F2"/>
<path d="M239.145 26.8493C236.403 27.4024 233.663 25.4382 233.506 22.6457L233.227 17.7086C233.12 15.8075 234.275 14.0757 236.12 13.6051C239.901 12.6404 247.021 11.2488 256.626 11.2488C266.29 11.2488 273.438 12.6575 277.202 13.6227C279.012 14.0871 280.161 15.7712 280.097 17.6395L279.925 22.6029C279.828 25.4099 277.111 27.4286 274.355 26.8877C270.024 26.0378 263.516 25.061 256.479 25.061C249.547 25.061 243.312 26.0087 239.145 26.8493Z" fill="#1B8CF5"/>
<rect x="131.098" y="50.4214" width="79.2977" height="38.2841" rx="4.32642" fill="#1B8CF5"/>
<path d="M93.4346 151.465C91.339 151.686 89.3965 150.379 88.8054 148.356L85.6241 137.47C84.8833 134.935 86.5439 132.349 89.1663 132.036C106.138 130.009 165.962 123.736 256.087 123.736C347.232 123.736 408.161 130.152 424.579 132.103C427.022 132.393 428.672 134.678 428.238 137.1L426.307 147.877C425.905 150.118 423.874 151.671 421.609 151.442C404.571 149.717 335.096 143.215 256.087 143.215C176.716 143.215 109.433 149.777 93.4346 151.465Z" fill="#DDE0EE"/>
<path fill-rule="evenodd" clip-rule="evenodd" d="M105.476 143.508C102.906 143.794 100.659 141.785 100.659 139.199V118.245C100.659 116.048 102.295 114.201 104.477 113.956C130.571 111.035 168.361 107.883 215.822 106.834C218.243 106.781 220.234 108.731 220.234 111.153V131.475C220.234 133.824 218.358 135.743 216.011 135.808C171.228 137.045 132.048 140.547 105.476 143.508Z" fill="#1B8CF5"/>
<path fill-rule="evenodd" clip-rule="evenodd" d="M298.434 126.359C295.864 126.072 293.617 128.081 293.617 130.667V151.622C293.617 153.818 295.253 155.666 297.436 155.91C323.529 158.832 361.32 161.983 408.78 163.032C411.202 163.086 413.192 161.135 413.192 158.713V138.391C413.192 136.042 411.317 134.123 408.969 134.059C364.186 132.821 325.006 129.319 298.434 126.359Z" fill="#1B8CF5"/>
<path fill-rule="evenodd" clip-rule="evenodd" d="M213.857 114.154C213.857 137.886 194.618 157.125 170.886 157.125C147.154 157.125 127.915 137.886 127.915 114.154C127.915 90.4221 147.154 71.1833 170.886 71.1833C194.618 71.1833 213.857 90.4221 213.857 114.154ZM166.713 145.85L164.928 118.264C154.548 118.465 145.478 119.164 139.485 119.743C141.87 133.371 152.899 144.027 166.713 145.85ZM139.439 108.925C141.953 93.8029 155.096 82.2736 170.931 82.2736C186.767 82.2736 199.91 93.8028 202.424 108.925C195.486 108.238 184.702 107.479 170.932 107.479C157.161 107.479 146.377 108.238 139.439 108.925ZM202.381 119.729C200 133.364 188.968 144.026 175.15 145.85L176.935 118.274C187.124 118.484 196.238 119.162 202.381 119.729Z" fill="#DDE0EE"/>
<rect x="225.692" y="119.842" width="62.3005" height="28.987" rx="4.32642" fill="#1B8CF5"/>
<rect x="240.402" y="316.694" width="132.653" height="32.8808" rx="4.32642" transform="rotate(-90 240.402 316.694)" fill="#1B8CF5"/>
<path d="M72.1124 341.267L52.9139 341.267C52.9139 341.267 52.6435 305.883 52.6435 246.814C52.6435 210.336 56.0467 182.664 58.6496 166.834C60.0811 158.129 68.0768 152.411 76.8568 153.275V153.275C78.9493 153.481 80.4203 155.427 80.0511 157.497C77.9809 169.106 72.1223 205.6 72.1223 246.814C72.1224 296.874 72.1124 341.267 72.1124 341.267Z" fill="url(#paint0_linear_313_3146)"/>
<rect x="66.7771" y="277.756" width="77.8756" height="14.2772" rx="4.32642" transform="rotate(-90 66.7771 277.756)" fill="#1B8CF5"/>
<path d="M437.695 341.267L456.893 341.267C456.893 341.267 457.164 305.883 457.164 246.814C457.164 210.336 453.761 182.664 451.158 166.834C449.726 158.129 441.731 152.411 432.951 153.275V153.275C430.858 153.481 429.387 155.427 429.756 157.497C431.826 169.106 437.685 205.6 437.685 246.814C437.685 296.874 437.695 341.267 437.695 341.267Z" fill="url(#paint1_linear_313_3146)"/>
<rect width="77.8756" height="14.2772" rx="4.32642" transform="matrix(4.37114e-08 -1 -1 -4.37114e-08 442.878 277.756)" fill="#1B8CF5"/>
<rect x="100.659" y="260.883" width="33.7461" height="19.0363" rx="4.32642" transform="rotate(-90 100.659 260.883)" fill="#1B8CF5"/>
<rect width="33.7461" height="19.0363" rx="4.32642" transform="matrix(4.37114e-08 -1 -1 -4.37114e-08 413.026 260.883)" fill="#1B8CF5"/>
<path d="M117.099 316.694C114.71 316.694 112.773 314.757 112.773 312.367L112.773 209.335C112.773 207.148 114.388 205.31 116.56 205.064C126.291 203.962 152.685 201.178 170.963 201.178C189.241 201.178 215.635 203.962 225.366 205.064C227.539 205.31 229.153 207.148 229.153 209.335L229.153 312.367C229.153 314.757 227.216 316.694 224.827 316.694L117.099 316.694Z" fill="#E5E8F2"/>
<path d="M396.586 316.694C398.975 316.694 400.912 314.757 400.912 312.367L400.912 209.332C400.912 207.147 399.299 205.309 397.128 205.062C387.427 203.959 361.14 201.178 342.722 201.178C324.303 201.178 298.017 203.959 288.316 205.062C286.145 205.309 284.532 207.147 284.532 209.332L284.532 312.367C284.532 314.757 286.469 316.694 288.858 316.694L396.586 316.694Z" fill="#E5E8F2"/>
<path d="M227.735 283.118C230.604 281.932 233.938 283.889 234.143 286.988L235.304 304.56C235.622 309.372 233.23 313.943 228.82 315.894C218.898 320.283 198.825 327.23 171.166 327.23C143.302 327.23 122.944 320.18 112.98 315.797C108.644 313.889 106.225 309.443 106.416 304.709L107.132 287.058C107.258 283.94 110.565 281.902 113.463 283.062C123.82 287.209 146.231 294.823 171.166 294.823C195.99 294.823 217.67 287.277 227.735 283.118Z" fill="#DDE0EE"/>
<path d="M399.493 283.118C402.363 281.932 405.697 283.889 405.901 286.988L407.063 304.56C407.38 309.372 404.988 313.943 400.579 315.894C390.656 320.283 370.584 327.23 342.925 327.23C315.06 327.23 294.703 320.18 284.739 315.797C280.402 313.889 277.983 309.443 278.175 304.709L278.89 287.058C279.017 283.94 282.324 281.902 285.222 283.062C295.579 287.209 317.989 294.823 342.925 294.823C367.749 294.823 389.429 287.277 399.493 283.118Z" fill="#DDE0EE"/>
<circle cx="256.842" cy="199.881" r="8.51749" fill="#DDE0EE"/>
<path d="M60.6483 162.88C63.7026 162.325 65.6479 159.415 65.0006 156.379L63.2951 148.38C62.6606 145.405 59.7672 143.405 56.763 143.896C52.5425 144.586 45.9887 145.691 37.6161 147.208C30.7652 148.45 25.4864 151.227 21.7445 153.917C16.814 157.461 15.6674 163.845 17.1048 169.825L17.3714 170.934C18.1974 174.37 22.8083 175.734 25.6143 173.662C29.5794 170.734 35.1805 167.501 41.6913 166.321C49.12 164.975 56.0666 163.713 60.6483 162.88Z" fill="#1B8CF5"/>
<path d="M448.71 162.88C445.656 162.325 443.711 159.415 444.358 156.379L446.064 148.38C446.698 145.405 449.591 143.405 452.596 143.896C456.816 144.586 463.37 145.691 471.743 147.208C478.593 148.45 483.872 151.227 487.614 153.917C492.545 157.461 493.691 163.845 492.254 169.825L491.987 170.934C491.161 174.37 486.55 175.734 483.744 173.662C479.779 170.734 474.178 167.501 467.667 166.321C460.239 164.975 453.292 163.713 448.71 162.88Z" fill="#1B8CF5"/>
</g>
<defs>
<linearGradient id="paint0_linear_313_3146" x1="66.7044" y1="341.267" x2="66.7044" y2="151.769" gradientUnits="userSpaceOnUse">
<stop offset="0.161458" stop-color="#DDE0EE" stop-opacity="0"/>
<stop offset="0.447917" stop-color="#DDE0EE"/>
</linearGradient>
<linearGradient id="paint1_linear_313_3146" x1="443.103" y1="341.267" x2="443.103" y2="151.769" gradientUnits="userSpaceOnUse">
<stop offset="0.161458" stop-color="#DDE0EE" stop-opacity="0"/>
<stop offset="0.447917" stop-color="#DDE0EE"/>
</linearGradient>
<clipPath id="clip0_313_3146">
<rect width="509.358" height="341.355" fill="white"/>
</clipPath>
</defs>
</svg>
