<svg width="1556" height="734" viewBox="0 0 1556 734" fill="none" xmlns="http://www.w3.org/2000/svg">
<g clip-path="url(#clip0_417_2807)">
<rect width="1555.17" height="733.854" transform="translate(0.831055)" fill="white"/>
<path d="M9.91528 702.71V693.994H1415.87V702.71" stroke="#A9B4B9" stroke-width="1.41302"/>
<path d="M9.91528 693.994V702.709" stroke="#A9B4B9" stroke-width="1.41302"/>
<path d="M9.33105 728.113C7.93996 728.113 6.75506 727.734 5.77637 726.977C4.79767 726.214 4.0498 725.109 3.53276 723.662C3.01571 722.21 2.75719 720.456 2.75719 718.4C2.75719 716.356 3.01571 714.611 3.53276 713.165C4.05596 711.712 4.80691 710.604 5.7856 709.841C6.77045 709.071 7.95227 708.687 9.33105 708.687C10.7098 708.687 11.8886 709.071 12.8673 709.841C13.8521 710.604 14.6031 711.712 15.1201 713.165C15.6433 714.611 15.9049 716.356 15.9049 718.4C15.9049 720.456 15.6464 722.21 15.1294 723.662C14.6123 725.109 13.8644 726.214 12.8857 726.977C11.907 727.734 10.7222 728.113 9.33105 728.113ZM9.33105 726.082C10.7098 726.082 11.7809 725.417 12.5441 724.087C13.3074 722.758 13.689 720.862 13.689 718.4C13.689 716.762 13.5136 715.368 13.1627 714.217C12.818 713.066 12.3195 712.189 11.667 711.586C11.0207 710.983 10.242 710.681 9.33105 710.681C7.96458 710.681 6.89663 711.355 6.12722 712.703C5.35781 714.045 4.9731 715.944 4.9731 718.4C4.9731 720.037 5.14545 721.428 5.49015 722.573C5.83484 723.718 6.33034 724.589 6.97665 725.186C7.62911 725.783 8.41391 726.082 9.33105 726.082Z" fill="#A9B4B9"/>
<path d="M185.659 693.994V702.71" stroke="#A9B4B9" stroke-width="1.41302"/>
<path d="M361.403 693.994V702.709" stroke="#A9B4B9" stroke-width="1.41302"/>
<path d="M346.808 708.945V727.854H344.518V711.346H344.407L339.791 714.411V712.084L344.518 708.945H346.808ZM358.413 728.113C357.022 728.113 355.837 727.734 354.859 726.977C353.88 726.214 353.132 725.109 352.615 723.662C352.098 722.21 351.84 720.456 351.84 718.4C351.84 716.356 352.098 714.611 352.615 713.165C353.138 711.712 353.889 710.604 354.868 709.841C355.853 709.071 357.035 708.687 358.413 708.687C359.792 708.687 360.971 709.071 361.95 709.841C362.935 710.604 363.685 711.712 364.203 713.165C364.726 714.611 364.987 716.356 364.987 718.4C364.987 720.456 364.729 722.21 364.212 723.662C363.695 725.109 362.947 726.214 361.968 726.977C360.989 727.734 359.805 728.113 358.413 728.113ZM358.413 726.082C359.792 726.082 360.863 725.417 361.627 724.087C362.39 722.758 362.771 720.862 362.771 718.4C362.771 716.762 362.596 715.368 362.245 714.217C361.9 713.066 361.402 712.189 360.749 711.586C360.103 710.983 359.324 710.681 358.413 710.681C357.047 710.681 355.979 711.355 355.21 712.703C354.44 714.045 354.055 715.944 354.055 718.4C354.055 720.037 354.228 721.428 354.573 722.573C354.917 723.718 355.413 724.589 356.059 725.186C356.712 725.783 357.496 726.082 358.413 726.082ZM374.663 728.113C373.272 728.113 372.087 727.734 371.109 726.977C370.13 726.214 369.382 725.109 368.865 723.662C368.348 722.21 368.09 720.456 368.09 718.4C368.09 716.356 368.348 714.611 368.865 713.165C369.388 711.712 370.139 710.604 371.118 709.841C372.103 709.071 373.285 708.687 374.663 708.687C376.042 708.687 377.221 709.071 378.2 709.841C379.185 710.604 379.935 711.712 380.453 713.165C380.976 714.611 381.237 716.356 381.237 718.4C381.237 720.456 380.979 722.21 380.462 723.662C379.945 725.109 379.197 726.214 378.218 726.977C377.239 727.734 376.055 728.113 374.663 728.113ZM374.663 726.082C376.042 726.082 377.113 725.417 377.877 724.087C378.64 722.758 379.021 720.862 379.021 718.4C379.021 716.762 378.846 715.368 378.495 714.217C378.15 713.066 377.652 712.189 376.999 711.586C376.353 710.983 375.574 710.681 374.663 710.681C373.297 710.681 372.229 711.355 371.46 712.703C370.69 714.045 370.305 715.944 370.305 718.4C370.305 720.037 370.478 721.428 370.823 722.573C371.167 723.718 371.663 724.589 372.309 725.186C372.962 725.783 373.746 726.082 374.663 726.082Z" fill="#A9B4B9"/>
<path d="M537.147 693.994V702.71" stroke="#A9B4B9" stroke-width="1.41302"/>
<path d="M712.891 693.994V702.709" stroke="#A9B4B9" stroke-width="1.41302"/>
<path d="M690.819 727.854V726.192L697.061 719.36C697.793 718.56 698.397 717.864 698.871 717.273C699.345 716.676 699.695 716.116 699.923 715.593C700.157 715.064 700.274 714.51 700.274 713.931C700.274 713.266 700.114 712.691 699.794 712.204C699.48 711.718 699.049 711.343 698.501 711.078C697.953 710.813 697.338 710.681 696.655 710.681C695.928 710.681 695.294 710.832 694.753 711.133C694.217 711.429 693.802 711.844 693.506 712.38C693.217 712.915 693.072 713.543 693.072 714.263H690.893C690.893 713.155 691.149 712.183 691.66 711.346C692.171 710.509 692.866 709.856 693.746 709.388C694.633 708.921 695.627 708.687 696.729 708.687C697.836 708.687 698.818 708.921 699.674 709.388C700.529 709.856 701.2 710.487 701.687 711.281C702.173 712.075 702.416 712.958 702.416 713.931C702.416 714.627 702.29 715.307 702.037 715.971C701.791 716.63 701.36 717.366 700.745 718.178C700.135 718.984 699.289 719.969 698.206 721.133L693.959 725.675V725.823H702.748V727.854H690.819ZM712.729 728.113C711.338 728.113 710.153 727.734 709.175 726.977C708.196 726.214 707.448 725.109 706.931 723.662C706.414 722.21 706.155 720.456 706.155 718.4C706.155 716.356 706.414 714.611 706.931 713.165C707.454 711.712 708.205 710.604 709.184 709.841C710.169 709.071 711.35 708.687 712.729 708.687C714.108 708.687 715.287 709.071 716.265 709.841C717.25 710.604 718.001 711.712 718.518 713.165C719.042 714.611 719.303 716.356 719.303 718.4C719.303 720.456 719.045 722.21 718.528 723.662C718.01 725.109 717.263 726.214 716.284 726.977C715.305 727.734 714.12 728.113 712.729 728.113ZM712.729 726.082C714.108 726.082 715.179 725.417 715.942 724.087C716.706 722.758 717.087 720.862 717.087 718.4C717.087 716.762 716.912 715.368 716.561 714.217C716.216 713.066 715.718 712.189 715.065 711.586C714.419 710.983 713.64 710.681 712.729 710.681C711.363 710.681 710.295 711.355 709.525 712.703C708.756 714.045 708.371 715.944 708.371 718.4C708.371 720.037 708.544 721.428 708.888 722.573C709.233 723.718 709.729 724.589 710.375 725.186C711.027 725.783 711.812 726.082 712.729 726.082ZM728.979 728.113C727.588 728.113 726.403 727.734 725.425 726.977C724.446 726.214 723.698 725.109 723.181 723.662C722.664 722.21 722.405 720.456 722.405 718.4C722.405 716.356 722.664 714.611 723.181 713.165C723.704 711.712 724.455 710.604 725.434 709.841C726.419 709.071 727.6 708.687 728.979 708.687C730.358 708.687 731.537 709.071 732.515 709.841C733.5 710.604 734.251 711.712 734.768 713.165C735.292 714.611 735.553 716.356 735.553 718.4C735.553 720.456 735.295 722.21 734.778 723.662C734.26 725.109 733.513 726.214 732.534 726.977C731.555 727.734 730.37 728.113 728.979 728.113ZM728.979 726.082C730.358 726.082 731.429 725.417 732.192 724.087C732.956 722.758 733.337 720.862 733.337 718.4C733.337 716.762 733.162 715.368 732.811 714.217C732.466 713.066 731.968 712.189 731.315 711.586C730.669 710.983 729.89 710.681 728.979 710.681C727.613 710.681 726.545 711.355 725.775 712.703C725.006 714.045 724.621 715.944 724.621 718.4C724.621 720.037 724.794 721.428 725.138 722.573C725.483 723.718 725.979 724.589 726.625 725.186C727.277 725.783 728.062 726.082 728.979 726.082Z" fill="#A9B4B9"/>
<path d="M888.635 693.994V702.71" stroke="#A9B4B9" stroke-width="1.41302"/>
<path d="M1064.38 693.994V702.709" stroke="#A9B4B9" stroke-width="1.41302"/>
<path d="M1048.79 728.113C1047.57 728.113 1046.49 727.903 1045.53 727.485C1044.58 727.066 1043.83 726.485 1043.27 725.74C1042.72 724.989 1042.41 724.118 1042.36 723.127H1044.69C1044.74 723.736 1044.95 724.263 1045.32 724.706C1045.69 725.143 1046.17 725.481 1046.77 725.721C1047.37 725.961 1048.03 726.082 1048.75 726.082C1049.57 726.082 1050.29 725.94 1050.91 725.657C1051.54 725.374 1052.03 724.98 1052.39 724.475C1052.75 723.97 1052.93 723.385 1052.93 722.721C1052.93 722.025 1052.75 721.413 1052.41 720.883C1052.07 720.348 1051.56 719.929 1050.9 719.628C1050.23 719.326 1049.42 719.175 1048.46 719.175H1046.94V717.144H1048.46C1049.21 717.144 1049.87 717.009 1050.43 716.738C1051.01 716.467 1051.45 716.085 1051.77 715.593C1052.1 715.1 1052.26 714.522 1052.26 713.857C1052.26 713.217 1052.12 712.66 1051.84 712.186C1051.55 711.712 1051.15 711.343 1050.64 711.078C1050.13 710.813 1049.52 710.681 1048.83 710.681C1048.18 710.681 1047.56 710.801 1046.98 711.041C1046.41 711.275 1045.94 711.617 1045.58 712.066C1045.21 712.509 1045.02 713.045 1044.99 713.672H1042.77C1042.81 712.681 1043.11 711.814 1043.67 711.069C1044.23 710.318 1044.96 709.733 1045.86 709.314C1046.77 708.896 1047.78 708.687 1048.86 708.687C1050.03 708.687 1051.04 708.924 1051.87 709.398C1052.71 709.865 1053.35 710.484 1053.8 711.253C1054.25 712.023 1054.48 712.854 1054.48 713.746C1054.48 714.811 1054.2 715.719 1053.64 716.47C1053.08 717.221 1052.33 717.741 1051.38 718.03V718.178C1052.57 718.375 1053.5 718.883 1054.17 719.702C1054.84 720.514 1055.18 721.52 1055.18 722.721C1055.18 723.749 1054.9 724.672 1054.34 725.491C1053.79 726.303 1053.03 726.943 1052.07 727.411C1051.11 727.879 1050.02 728.113 1048.79 728.113ZM1065.12 728.113C1063.73 728.113 1062.55 727.734 1061.57 726.977C1060.59 726.214 1059.84 725.109 1059.33 723.662C1058.81 722.21 1058.55 720.456 1058.55 718.4C1058.55 716.356 1058.81 714.611 1059.33 713.165C1059.85 711.712 1060.6 710.604 1061.58 709.841C1062.56 709.071 1063.74 708.687 1065.12 708.687C1066.5 708.687 1067.68 709.071 1068.66 709.841C1069.64 710.604 1070.4 711.712 1070.91 713.165C1071.44 714.611 1071.7 716.356 1071.7 718.4C1071.7 720.456 1071.44 722.21 1070.92 723.662C1070.41 725.109 1069.66 726.214 1068.68 726.977C1067.7 727.734 1066.51 728.113 1065.12 728.113ZM1065.12 726.082C1066.5 726.082 1067.57 725.417 1068.34 724.087C1069.1 722.758 1069.48 720.862 1069.48 718.4C1069.48 716.762 1069.31 715.368 1068.96 714.217C1068.61 713.066 1068.11 712.189 1067.46 711.586C1066.81 710.983 1066.03 710.681 1065.12 710.681C1063.76 710.681 1062.69 711.355 1061.92 712.703C1061.15 714.045 1060.77 715.944 1060.77 718.4C1060.77 720.037 1060.94 721.428 1061.28 722.573C1061.63 723.718 1062.12 724.589 1062.77 725.186C1063.42 725.783 1064.21 726.082 1065.12 726.082ZM1081.37 728.113C1079.98 728.113 1078.8 727.734 1077.82 726.977C1076.84 726.214 1076.09 725.109 1075.58 723.662C1075.06 722.21 1074.8 720.456 1074.8 718.4C1074.8 716.356 1075.06 714.611 1075.58 713.165C1076.1 711.712 1076.85 710.604 1077.83 709.841C1078.81 709.071 1079.99 708.687 1081.37 708.687C1082.75 708.687 1083.93 709.071 1084.91 709.841C1085.89 710.604 1086.65 711.712 1087.16 713.165C1087.69 714.611 1087.95 716.356 1087.95 718.4C1087.95 720.456 1087.69 722.21 1087.17 723.662C1086.66 725.109 1085.91 726.214 1084.93 726.977C1083.95 727.734 1082.76 728.113 1081.37 728.113ZM1081.37 726.082C1082.75 726.082 1083.82 725.417 1084.59 724.087C1085.35 722.758 1085.73 720.862 1085.73 718.4C1085.73 716.762 1085.56 715.368 1085.21 714.217C1084.86 713.066 1084.36 712.189 1083.71 711.586C1083.06 710.983 1082.28 710.681 1081.37 710.681C1080.01 710.681 1078.94 711.355 1078.17 712.703C1077.4 714.045 1077.02 715.944 1077.02 718.4C1077.02 720.037 1077.19 721.428 1077.53 722.573C1077.88 723.718 1078.37 724.589 1079.02 725.186C1079.67 725.783 1080.46 726.082 1081.37 726.082Z" fill="#A9B4B9"/>
<path d="M1240.12 693.994V702.71" stroke="#A9B4B9" stroke-width="1.41302"/>
<path d="M1415.87 693.994V702.709" stroke="#A9B4B9" stroke-width="1.41302"/>
<path d="M1393.38 723.976V722.093L1401.69 708.945H1403.06V711.863H1402.14L1395.86 721.797V721.945H1407.05V723.976H1393.38ZM1402.28 727.854V723.404V722.527V708.945H1404.46V727.854H1402.28ZM1416.68 728.113C1415.28 728.113 1414.1 727.734 1413.12 726.977C1412.14 726.214 1411.39 725.109 1410.88 723.662C1410.36 722.21 1410.1 720.456 1410.1 718.4C1410.1 716.356 1410.36 714.611 1410.88 713.165C1411.4 711.712 1412.15 710.604 1413.13 709.841C1414.11 709.071 1415.3 708.687 1416.68 708.687C1418.05 708.687 1419.23 709.071 1420.21 709.841C1421.2 710.604 1421.95 711.712 1422.46 713.165C1422.99 714.611 1423.25 716.356 1423.25 718.4C1423.25 720.456 1422.99 722.21 1422.47 723.662C1421.96 725.109 1421.21 726.214 1420.23 726.977C1419.25 727.734 1418.07 728.113 1416.68 728.113ZM1416.68 726.082C1418.05 726.082 1419.12 725.417 1419.89 724.087C1420.65 722.758 1421.03 720.862 1421.03 718.4C1421.03 716.762 1420.86 715.368 1420.51 714.217C1420.16 713.066 1419.66 712.189 1419.01 711.586C1418.36 710.983 1417.59 710.681 1416.68 710.681C1415.31 710.681 1414.24 711.355 1413.47 712.703C1412.7 714.045 1412.32 715.944 1412.32 718.4C1412.32 720.037 1412.49 721.428 1412.83 722.573C1413.18 723.718 1413.67 724.589 1414.32 725.186C1414.97 725.783 1415.76 726.082 1416.68 726.082ZM1432.93 728.113C1431.53 728.113 1430.35 727.734 1429.37 726.977C1428.39 726.214 1427.64 725.109 1427.13 723.662C1426.61 722.21 1426.35 720.456 1426.35 718.4C1426.35 716.356 1426.61 714.611 1427.13 713.165C1427.65 711.712 1428.4 710.604 1429.38 709.841C1430.36 709.071 1431.55 708.687 1432.93 708.687C1434.3 708.687 1435.48 709.071 1436.46 709.841C1437.45 710.604 1438.2 711.712 1438.71 713.165C1439.24 714.611 1439.5 716.356 1439.5 718.4C1439.5 720.456 1439.24 722.21 1438.72 723.662C1438.21 725.109 1437.46 726.214 1436.48 726.977C1435.5 727.734 1434.32 728.113 1432.93 728.113ZM1432.93 726.082C1434.3 726.082 1435.37 725.417 1436.14 724.087C1436.9 722.758 1437.28 720.862 1437.28 718.4C1437.28 716.762 1437.11 715.368 1436.76 714.217C1436.41 713.066 1435.91 712.189 1435.26 711.586C1434.61 710.983 1433.84 710.681 1432.93 710.681C1431.56 710.681 1430.49 711.355 1429.72 712.703C1428.95 714.045 1428.57 715.944 1428.57 718.4C1428.57 720.037 1428.74 721.428 1429.08 722.573C1429.43 723.718 1429.92 724.589 1430.57 725.186C1431.22 725.783 1432.01 726.082 1432.93 726.082Z" fill="#A9B4B9"/>
<path d="M9.91504 5.45679V691.821" stroke="#A9B4B9" stroke-width="1.41302"/>
<path d="M9.91492 185.582H1415.87" stroke="#A9B4B9" stroke-width="1.41302"/>
<path d="M8.50208 351.971H1414.45" stroke="#A9B4B9" stroke-width="1.41302"/>
<path d="M9.91492 518.229H1415.87" stroke="#A9B4B9" stroke-width="1.41302"/>
<path d="M26.8434 227.089V207.589H28.9486V209.842H29.2071C29.3671 209.596 29.5887 209.282 29.8718 208.9C30.1611 208.513 30.5736 208.168 31.1091 207.866C31.6507 207.559 32.3832 207.405 33.3065 207.405C34.5006 207.405 35.5532 207.703 36.4642 208.3C37.3752 208.897 38.0861 209.744 38.597 210.839C39.1079 211.935 39.3633 213.228 39.3633 214.717C39.3633 216.219 39.1079 217.521 38.597 218.623C38.0861 219.718 37.3782 220.568 36.4734 221.171C35.5686 221.768 34.5253 222.067 33.3434 222.067C32.4325 222.067 31.7031 221.916 31.1552 221.614C30.6074 221.306 30.1858 220.959 29.8903 220.571C29.5949 220.177 29.3671 219.851 29.2071 219.592H29.0224V227.089H26.8434ZM28.9855 214.68C28.9855 215.751 29.1424 216.696 29.4564 217.515C29.7703 218.327 30.2289 218.964 30.8321 219.426C31.4353 219.881 32.1739 220.109 33.048 220.109C33.959 220.109 34.7192 219.869 35.3285 219.389C35.9441 218.903 36.4057 218.25 36.7135 217.432C37.0274 216.607 37.1843 215.69 37.1843 214.68C37.1843 213.683 37.0305 212.784 36.7227 211.984C36.4211 211.178 35.9625 210.541 35.347 210.073C34.7376 209.599 33.9713 209.362 33.048 209.362C32.1616 209.362 31.4168 209.587 30.8136 210.036C30.2104 210.479 29.7549 211.101 29.4471 211.901C29.1394 212.695 28.9855 213.621 28.9855 214.68ZM48.4486 222.067C47.1683 222.067 46.0449 221.762 45.0785 221.153C44.1183 220.543 43.3674 219.691 42.8257 218.595C42.2902 217.499 42.0224 216.219 42.0224 214.754C42.0224 213.277 42.2902 211.987 42.8257 210.885C43.3674 209.784 44.1183 208.928 45.0785 208.319C46.0449 207.709 47.1683 207.405 48.4486 207.405C49.7289 207.405 50.8491 207.709 51.8093 208.319C52.7757 208.928 53.5267 209.784 54.0622 210.885C54.6039 211.987 54.8747 213.277 54.8747 214.754C54.8747 216.219 54.6039 217.499 54.0622 218.595C53.5267 219.691 52.7757 220.543 51.8093 221.153C50.8491 221.762 49.7289 222.067 48.4486 222.067ZM48.4486 220.109C49.4211 220.109 50.2213 219.86 50.8491 219.361C51.477 218.863 51.9417 218.207 52.2433 217.395C52.5449 216.582 52.6957 215.702 52.6957 214.754C52.6957 213.806 52.5449 212.923 52.2433 212.104C51.9417 211.286 51.477 210.624 50.8491 210.119C50.2213 209.614 49.4211 209.362 48.4486 209.362C47.476 209.362 46.6758 209.614 46.048 210.119C45.4201 210.624 44.9554 211.286 44.6538 212.104C44.3522 212.923 44.2014 213.806 44.2014 214.754C44.2014 215.702 44.3522 216.582 44.6538 217.395C44.9554 218.207 45.4201 218.863 46.048 219.361C46.6758 219.86 47.476 220.109 48.4486 220.109ZM68.2463 210.765L66.2889 211.319C66.1658 210.993 65.9842 210.676 65.7442 210.368C65.5103 210.054 65.1902 209.796 64.784 209.593C64.3777 209.39 63.8576 209.288 63.2236 209.288C62.3557 209.288 61.6324 209.488 61.0538 209.888C60.4814 210.282 60.1952 210.784 60.1952 211.393C60.1952 211.935 60.3921 212.363 60.7861 212.677C61.18 212.991 61.7956 213.252 62.6327 213.461L64.7378 213.979C66.0058 214.286 66.9506 214.757 67.5723 215.391C68.194 216.019 68.5048 216.828 68.5048 217.819C68.5048 218.632 68.2709 219.358 67.8031 219.998C67.3415 220.639 66.6952 221.143 65.8642 221.513C65.0332 221.882 64.0669 222.067 62.9651 222.067C61.5186 222.067 60.3214 221.753 59.3734 221.125C58.4255 220.497 57.8254 219.58 57.573 218.373L59.6412 217.856C59.8382 218.62 60.2106 219.192 60.7584 219.574C61.3124 219.955 62.0356 220.146 62.9281 220.146C63.9438 220.146 64.7501 219.931 65.3472 219.5C65.9504 219.063 66.252 218.54 66.252 217.93C66.252 217.438 66.0796 217.025 65.735 216.693C65.3903 216.354 64.8609 216.102 64.1469 215.936L61.7832 215.382C60.4845 215.074 59.5304 214.597 58.921 213.951C58.3178 213.298 58.0162 212.483 58.0162 211.504C58.0162 210.704 58.2409 209.996 58.6902 209.38C59.1457 208.765 59.7643 208.282 60.546 207.931C61.3339 207.58 62.2264 207.405 63.2236 207.405C64.627 207.405 65.7288 207.712 66.529 208.328C67.3353 208.943 67.9078 209.756 68.2463 210.765ZM71.7848 221.771V207.589H73.9638V221.771H71.7848ZM72.8928 205.226C72.4681 205.226 72.1018 205.081 71.7941 204.792C71.4925 204.502 71.3417 204.155 71.3417 203.748C71.3417 203.342 71.4925 202.994 71.7941 202.705C72.1018 202.416 72.4681 202.271 72.8928 202.271C73.3175 202.271 73.6807 202.416 73.9823 202.705C74.2901 202.994 74.4439 203.342 74.4439 203.748C74.4439 204.155 74.2901 204.502 73.9823 204.792C73.6807 205.081 73.3175 205.226 72.8928 205.226ZM84.1224 207.589V209.436H76.7729V207.589H84.1224ZM78.915 204.192H81.094V217.709C81.094 218.324 81.1832 218.786 81.3617 219.094C81.5464 219.395 81.7803 219.598 82.0634 219.703C82.3527 219.801 82.6574 219.851 82.9775 219.851C83.2176 219.851 83.4145 219.838 83.5684 219.814C83.7223 219.783 83.8454 219.758 83.9377 219.74L84.3809 221.697C84.2332 221.753 84.027 221.808 83.7623 221.863C83.4976 221.925 83.1622 221.956 82.7559 221.956C82.1404 221.956 81.5372 221.823 80.9462 221.559C80.3615 221.294 79.8752 220.891 79.4874 220.349C79.1058 219.808 78.915 219.124 78.915 218.3V204.192ZM87.4001 221.771V207.589H89.5791V221.771H87.4001ZM88.508 205.226C88.0833 205.226 87.7171 205.081 87.4093 204.792C87.1077 204.502 86.9569 204.155 86.9569 203.748C86.9569 203.342 87.1077 202.994 87.4093 202.705C87.7171 202.416 88.0833 202.271 88.508 202.271C88.9328 202.271 89.2959 202.416 89.5975 202.705C89.9053 202.994 90.0592 203.342 90.0592 203.748C90.0592 204.155 89.9053 204.502 89.5975 204.792C89.2959 205.081 88.9328 205.226 88.508 205.226ZM105.167 207.589L99.9223 221.771H97.7064L92.462 207.589H94.8257L98.7405 218.89H98.8882L102.803 207.589H105.167ZM113.481 222.067C112.114 222.067 110.936 221.765 109.945 221.162C108.96 220.552 108.2 219.703 107.664 218.613C107.135 217.518 106.87 216.244 106.87 214.791C106.87 213.338 107.135 212.058 107.664 210.95C108.2 209.836 108.944 208.968 109.898 208.346C110.859 207.719 111.979 207.405 113.259 207.405C113.998 207.405 114.727 207.528 115.447 207.774C116.168 208.02 116.823 208.42 117.414 208.974C118.005 209.522 118.476 210.248 118.827 211.153C119.178 212.058 119.353 213.172 119.353 214.496V215.419H108.421V213.535H117.137C117.137 212.735 116.977 212.021 116.657 211.393C116.343 210.765 115.894 210.27 115.309 209.907C114.73 209.544 114.047 209.362 113.259 209.362C112.391 209.362 111.64 209.577 111.006 210.008C110.379 210.433 109.895 210.987 109.557 211.67C109.218 212.354 109.049 213.086 109.049 213.868V215.123C109.049 216.194 109.234 217.102 109.603 217.847C109.979 218.586 110.499 219.149 111.163 219.537C111.828 219.918 112.601 220.109 113.481 220.109C114.053 220.109 114.57 220.029 115.032 219.869C115.5 219.703 115.903 219.457 116.242 219.13C116.58 218.798 116.842 218.386 117.026 217.893L119.131 218.484C118.91 219.198 118.537 219.826 118.014 220.368C117.491 220.903 116.845 221.322 116.075 221.623C115.306 221.919 114.441 222.067 113.481 222.067Z" fill="#282A36"/>
<path d="M29.0224 388.536V397.067H26.8434V382.885H28.9486V385.101H29.1332C29.4656 384.381 29.9703 383.802 30.6474 383.365C31.3245 382.922 32.1986 382.701 33.2696 382.701C34.2298 382.701 35.07 382.898 35.7902 383.292C36.5103 383.679 37.0705 384.27 37.4706 385.064C37.8707 385.852 38.0707 386.849 38.0707 388.056V397.067H35.8917V388.204C35.8917 387.089 35.6024 386.221 35.0238 385.6C34.4452 384.972 33.6512 384.658 32.6417 384.658C31.9462 384.658 31.3245 384.809 30.7767 385.11C30.235 385.412 29.8072 385.852 29.4933 386.431C29.1794 387.009 29.0224 387.711 29.0224 388.536ZM47.9984 397.363C46.632 397.363 45.4532 397.061 44.4622 396.458C43.4774 395.848 42.7172 394.999 42.1817 393.909C41.6523 392.814 41.3877 391.54 41.3877 390.087C41.3877 388.634 41.6523 387.354 42.1817 386.246C42.7172 385.132 43.462 384.264 44.4161 383.642C45.3763 383.015 46.4966 382.701 47.7769 382.701C48.5155 382.701 49.2449 382.824 49.9651 383.07C50.6852 383.316 51.3408 383.716 51.9317 384.27C52.5226 384.818 52.9935 385.544 53.3443 386.449C53.6952 387.354 53.8706 388.468 53.8706 389.792V390.715H42.9388V388.831H51.6547C51.6547 388.031 51.4947 387.317 51.1746 386.689C50.8607 386.061 50.4113 385.566 49.8266 385.203C49.248 384.84 48.5647 384.658 47.7769 384.658C46.909 384.658 46.158 384.873 45.524 385.304C44.8962 385.729 44.413 386.283 44.0744 386.966C43.7359 387.65 43.5666 388.382 43.5666 389.164V390.419C43.5666 391.49 43.7513 392.398 44.1206 393.143C44.4961 393.882 45.0162 394.445 45.681 394.833C46.3457 395.214 47.1182 395.405 47.9984 395.405C48.5709 395.405 49.0879 395.325 49.5496 395.165C50.0174 394.999 50.4206 394.753 50.7591 394.427C51.0976 394.094 51.3592 393.682 51.5439 393.189L53.649 393.78C53.4274 394.494 53.055 395.122 52.5318 395.664C52.0086 396.199 51.3623 396.618 50.5929 396.919C49.8235 397.215 48.9587 397.363 47.9984 397.363ZM66.1227 391.269V382.885H68.3017V397.067H66.1227V394.667H65.975C65.6426 395.387 65.1256 395.999 64.4239 396.504C63.7222 397.003 62.8358 397.252 61.7648 397.252C60.8784 397.252 60.0905 397.058 59.4011 396.67C58.7118 396.276 58.1701 395.685 57.7761 394.897C57.3822 394.103 57.1852 393.103 57.1852 391.897V382.885H59.3642V391.749C59.3642 392.783 59.6535 393.608 60.2321 394.223C60.8169 394.839 61.5617 395.147 62.4665 395.147C63.0082 395.147 63.5591 395.008 64.1192 394.731C64.6855 394.454 65.1594 394.029 65.5411 393.457C65.9288 392.885 66.1227 392.155 66.1227 391.269ZM78.4603 382.885V384.732H71.1108V382.885H78.4603ZM73.2529 379.488H75.4319V393.005C75.4319 393.62 75.5211 394.082 75.6996 394.39C75.8843 394.691 76.1182 394.894 76.4013 394.999C76.6906 395.097 76.9953 395.147 77.3154 395.147C77.5554 395.147 77.7524 395.134 77.9063 395.11C78.0602 395.079 78.1833 395.054 78.2756 395.036L78.7188 396.993C78.5711 397.049 78.3649 397.104 78.1002 397.159C77.8355 397.221 77.5 397.252 77.0938 397.252C76.4783 397.252 75.875 397.119 75.2841 396.855C74.6994 396.59 74.2131 396.187 73.8253 395.645C73.4437 395.104 73.2529 394.42 73.2529 393.596V379.488ZM81.738 397.067V382.885H83.8431V385.027H83.9908C84.2493 384.326 84.7171 383.756 85.3942 383.319C86.0713 382.882 86.8346 382.664 87.684 382.664C87.844 382.664 88.0441 382.667 88.2841 382.673C88.5242 382.679 88.7058 382.688 88.8289 382.701V384.917C88.755 384.898 88.5857 384.87 88.3211 384.833C88.0625 384.79 87.7886 384.769 87.4993 384.769C86.8099 384.769 86.1944 384.913 85.6527 385.203C85.1172 385.486 84.6925 385.88 84.3786 386.385C84.0708 386.883 83.9169 387.453 83.9169 388.093V397.067H81.738ZM95.5851 397.4C94.6864 397.4 93.8708 397.23 93.1384 396.892C92.4059 396.547 91.8242 396.052 91.3933 395.405C90.9625 394.753 90.747 393.965 90.747 393.042C90.747 392.229 90.9071 391.57 91.2271 391.066C91.5472 390.555 91.975 390.155 92.5105 389.865C93.046 389.576 93.6369 389.361 94.2832 389.219C94.9357 389.071 95.5912 388.954 96.2499 388.868C97.1116 388.757 97.8102 388.674 98.3457 388.619C98.8874 388.557 99.2814 388.456 99.5276 388.314C99.7799 388.173 99.9061 387.927 99.9061 387.576V387.502C99.9061 386.591 99.6568 385.883 99.1582 385.378C98.6658 384.873 97.918 384.621 96.9146 384.621C95.8744 384.621 95.0588 384.849 94.4679 385.304C93.877 385.76 93.4615 386.246 93.2215 386.763L91.1533 386.025C91.5226 385.163 92.015 384.492 92.6305 384.012C93.2522 383.525 93.9293 383.187 94.6618 382.996C95.4004 382.799 96.1268 382.701 96.8408 382.701C97.2963 382.701 97.8195 382.756 98.4104 382.867C99.0074 382.971 99.583 383.19 100.137 383.522C100.697 383.855 101.162 384.356 101.531 385.027C101.9 385.698 102.085 386.597 102.085 387.723V397.067H99.9061V395.147H99.7953C99.6476 395.454 99.4014 395.784 99.0567 396.135C98.712 396.485 98.2534 396.784 97.681 397.03C97.1085 397.276 96.4099 397.4 95.5851 397.4ZM95.9175 395.442C96.7792 395.442 97.5055 395.273 98.0965 394.934C98.6935 394.596 99.1429 394.159 99.4445 393.623C99.7522 393.088 99.9061 392.525 99.9061 391.934V389.939C99.8138 390.05 99.6107 390.152 99.2967 390.244C98.989 390.33 98.632 390.407 98.2257 390.475C97.8256 390.536 97.4348 390.592 97.0531 390.641C96.6777 390.684 96.373 390.721 96.1391 390.752C95.5728 390.826 95.0434 390.946 94.551 391.112C94.0647 391.272 93.6708 391.515 93.3692 391.841C93.0737 392.161 92.926 392.598 92.926 393.152C92.926 393.909 93.2061 394.482 93.7662 394.87C94.3325 395.251 95.0496 395.442 95.9175 395.442ZM108.241 378.158V397.067H106.062V378.158H108.241Z" fill="#282A36"/>
<path d="M29.0224 555.802V564.334H26.8434V550.152H28.9486V552.368H29.1332C29.4656 551.647 29.9703 551.069 30.6474 550.632C31.3245 550.189 32.1986 549.967 33.2696 549.967C34.2298 549.967 35.07 550.164 35.7902 550.558C36.5103 550.946 37.0705 551.537 37.4706 552.331C37.8707 553.119 38.0707 554.116 38.0707 555.322V564.334H35.8917V555.47C35.8917 554.356 35.6024 553.488 35.0238 552.866C34.4452 552.238 33.6512 551.924 32.6417 551.924C31.9462 551.924 31.3245 552.075 30.7767 552.377C30.235 552.678 29.8072 553.119 29.4933 553.697C29.1794 554.276 29.0224 554.977 29.0224 555.802ZM47.9984 564.629C46.632 564.629 45.4532 564.327 44.4622 563.724C43.4774 563.115 42.7172 562.265 42.1817 561.176C41.6523 560.08 41.3877 558.806 41.3877 557.353C41.3877 555.901 41.6523 554.62 42.1817 553.513C42.7172 552.398 43.462 551.531 44.4161 550.909C45.3763 550.281 46.4966 549.967 47.7769 549.967C48.5155 549.967 49.2449 550.09 49.9651 550.336C50.6852 550.583 51.3408 550.983 51.9317 551.537C52.5226 552.085 52.9935 552.811 53.3443 553.716C53.6952 554.62 53.8706 555.735 53.8706 557.058V557.981H42.9388V556.098H51.6547C51.6547 555.298 51.4947 554.584 51.1746 553.956C50.8607 553.328 50.4113 552.832 49.8266 552.469C49.248 552.106 48.5647 551.924 47.7769 551.924C46.909 551.924 46.158 552.14 45.524 552.571C44.8962 552.995 44.413 553.549 44.0744 554.233C43.7359 554.916 43.5666 555.648 43.5666 556.43V557.686C43.5666 558.757 43.7513 559.665 44.1206 560.41C44.4961 561.148 45.0162 561.711 45.681 562.099C46.3457 562.481 47.1182 562.672 47.9984 562.672C48.5709 562.672 49.0879 562.592 49.5496 562.432C50.0174 562.265 50.4206 562.019 50.7591 561.693C51.0976 561.361 51.3592 560.948 51.5439 560.456L53.649 561.047C53.4274 561.761 53.055 562.388 52.5318 562.93C52.0086 563.466 51.3623 563.884 50.5929 564.186C49.8235 564.481 48.9587 564.629 47.9984 564.629ZM62.9097 569.947C61.8571 569.947 60.9523 569.812 60.1952 569.541C59.4381 569.276 58.8072 568.925 58.3024 568.488C57.8038 568.058 57.4068 567.596 57.1114 567.103L58.8472 565.885C59.0441 566.143 59.2934 566.439 59.595 566.771C59.8966 567.11 60.3091 567.402 60.8323 567.648C61.3616 567.901 62.0541 568.027 62.9097 568.027C64.0546 568.027 64.9994 567.75 65.7442 567.196C66.489 566.642 66.8614 565.774 66.8614 564.592V561.711H66.6767C66.5167 561.97 66.2889 562.29 65.9935 562.672C65.7042 563.047 65.2856 563.383 64.7378 563.678C64.1961 563.967 63.4636 564.112 62.5404 564.112C61.3955 564.112 60.3675 563.841 59.4565 563.299C58.5517 562.758 57.8346 561.97 57.3053 560.936C56.7821 559.902 56.5205 558.646 56.5205 557.169C56.5205 555.716 56.7759 554.451 57.2868 553.374C57.7977 552.291 58.5086 551.454 59.4196 550.863C60.3306 550.266 61.3832 549.967 62.5773 549.967C63.5006 549.967 64.2331 550.121 64.7747 550.429C65.3225 550.73 65.7411 551.075 66.0304 551.463C66.3259 551.844 66.5536 552.158 66.7136 552.405H66.9352V550.152H69.0404V564.74C69.0404 565.959 68.7634 566.95 68.2094 567.713C67.6616 568.482 66.9229 569.045 65.9935 569.402C65.0702 569.766 64.0422 569.947 62.9097 569.947ZM62.8358 562.155C63.7099 562.155 64.4485 561.955 65.0517 561.554C65.6549 561.154 66.1135 560.579 66.4274 559.828C66.7413 559.077 66.8983 558.178 66.8983 557.132C66.8983 556.11 66.7444 555.208 66.4367 554.427C66.1289 553.645 65.6734 553.032 65.0702 552.589C64.467 552.146 63.7222 551.924 62.8358 551.924C61.9125 551.924 61.1431 552.158 60.5276 552.626C59.9182 553.094 59.4596 553.722 59.1519 554.51C58.8502 555.298 58.6994 556.172 58.6994 557.132C58.6994 558.117 58.8533 558.988 59.1611 559.745C59.475 560.496 59.9367 561.087 60.546 561.518C61.1616 561.942 61.9248 562.155 62.8358 562.155ZM77.2023 564.666C76.3036 564.666 75.488 564.497 74.7555 564.158C74.0231 563.813 73.4414 563.318 73.0105 562.672C72.5796 562.019 72.3642 561.231 72.3642 560.308C72.3642 559.495 72.5243 558.837 72.8443 558.332C73.1644 557.821 73.5922 557.421 74.1277 557.132C74.6632 556.843 75.2541 556.627 75.9004 556.486C76.5529 556.338 77.2084 556.221 77.8671 556.135C78.7288 556.024 79.4274 555.941 79.9629 555.885C80.5046 555.824 80.8985 555.722 81.1448 555.581C81.3971 555.439 81.5233 555.193 81.5233 554.842V554.768C81.5233 553.857 81.274 553.149 80.7754 552.645C80.283 552.14 79.5351 551.888 78.5318 551.888C77.4916 551.888 76.676 552.115 76.0851 552.571C75.4942 553.026 75.0787 553.513 74.8386 554.03L72.7705 553.291C73.1398 552.429 73.6322 551.758 74.2477 551.278C74.8694 550.792 75.5465 550.453 76.279 550.263C77.0176 550.066 77.7439 549.967 78.458 549.967C78.9135 549.967 79.4367 550.022 80.0276 550.133C80.6246 550.238 81.2002 550.456 81.7541 550.789C82.3143 551.121 82.779 551.623 83.1483 552.294C83.5176 552.965 83.7023 553.863 83.7023 554.99V564.334H81.5233V562.413H81.4125C81.2648 562.721 81.0186 563.05 80.6739 563.401C80.3292 563.752 79.8706 564.05 79.2982 564.297C78.7257 564.543 78.0271 564.666 77.2023 564.666ZM77.5347 562.709C78.3964 562.709 79.1227 562.539 79.7136 562.201C80.3107 561.862 80.76 561.425 81.0617 560.89C81.3694 560.354 81.5233 559.791 81.5233 559.2V557.206C81.431 557.317 81.2279 557.418 80.9139 557.51C80.6062 557.597 80.2492 557.674 79.8429 557.741C79.4428 557.803 79.052 557.858 78.6703 557.907C78.2948 557.951 77.9902 557.987 77.7563 558.018C77.19 558.092 76.6606 558.212 76.1682 558.378C75.6819 558.538 75.288 558.781 74.9864 559.108C74.6909 559.428 74.5432 559.865 74.5432 560.419C74.5432 561.176 74.8233 561.748 75.3834 562.136C75.9497 562.518 76.6668 562.709 77.5347 562.709ZM93.847 550.152V551.998H86.4976V550.152H93.847ZM88.6396 546.754H90.8186V560.271C90.8186 560.887 90.9078 561.348 91.0863 561.656C91.271 561.958 91.5049 562.161 91.788 562.265C92.0773 562.364 92.382 562.413 92.7021 562.413C92.9422 562.413 93.1391 562.401 93.293 562.376C93.4469 562.345 93.57 562.321 93.6623 562.302L94.1055 564.26C93.9578 564.315 93.7516 564.37 93.4869 564.426C93.2222 564.487 92.8868 564.518 92.4805 564.518C91.865 564.518 91.2618 564.386 90.6709 564.121C90.0861 563.857 89.5998 563.453 89.212 562.912C88.8304 562.37 88.6396 561.687 88.6396 560.862V546.754ZM97.1247 564.334V550.152H99.3037V564.334H97.1247ZM98.2326 547.788C97.8079 547.788 97.4417 547.643 97.1339 547.354C96.8323 547.065 96.6815 546.717 96.6815 546.311C96.6815 545.905 96.8323 545.557 97.1339 545.268C97.4417 544.978 97.8079 544.834 98.2326 544.834C98.6574 544.834 99.0205 544.978 99.3221 545.268C99.6299 545.557 99.7838 545.905 99.7838 546.311C99.7838 546.717 99.6299 547.065 99.3221 547.354C99.0205 547.643 98.6574 547.788 98.2326 547.788ZM114.891 550.152L109.647 564.334H107.431L102.187 550.152H104.55L108.465 561.453H108.613L112.528 550.152H114.891ZM123.205 564.629C121.839 564.629 120.66 564.327 119.669 563.724C118.684 563.115 117.924 562.265 117.389 561.176C116.859 560.08 116.595 558.806 116.595 557.353C116.595 555.901 116.859 554.62 117.389 553.513C117.924 552.398 118.669 551.531 119.623 550.909C120.583 550.281 121.704 549.967 122.984 549.967C123.723 549.967 124.452 550.09 125.172 550.336C125.892 550.583 126.548 550.983 127.139 551.537C127.73 552.085 128.201 552.811 128.551 553.716C128.902 554.62 129.078 555.735 129.078 557.058V557.981H118.146V556.098H126.862C126.862 555.298 126.702 554.584 126.382 553.956C126.068 553.328 125.618 552.832 125.034 552.469C124.455 552.106 123.772 551.924 122.984 551.924C122.116 551.924 121.365 552.14 120.731 552.571C120.103 552.995 119.62 553.549 119.281 554.233C118.943 554.916 118.774 555.648 118.774 556.43V557.686C118.774 558.757 118.958 559.665 119.328 560.41C119.703 561.148 120.223 561.711 120.888 562.099C121.553 562.481 122.325 562.672 123.205 562.672C123.778 562.672 124.295 562.592 124.757 562.432C125.224 562.265 125.628 562.019 125.966 561.693C126.305 561.361 126.566 560.948 126.751 560.456L128.856 561.047C128.634 561.761 128.262 562.388 127.739 562.93C127.216 563.466 126.569 563.884 125.8 564.186C125.031 564.481 124.166 564.629 123.205 564.629Z" fill="#282A36"/>
<path d="M855.589 380.376C870.069 380.376 881.808 368.309 881.808 353.422C881.808 338.536 870.069 326.468 855.589 326.468C841.109 326.468 829.37 338.536 829.37 353.422C829.37 368.309 841.109 380.376 855.589 380.376Z" fill="#99A7E8"/>
<path d="M659.437 375.038C671.05 375.038 680.465 365.36 680.465 353.421C680.465 341.482 671.05 331.804 659.437 331.804C647.823 331.804 638.409 341.482 638.409 353.421C638.409 365.36 647.823 375.038 659.437 375.038Z" fill="#99A7E8"/>
<path d="M615.332 374.239C626.516 374.239 635.583 364.918 635.583 353.421C635.583 341.923 626.516 332.603 615.332 332.603C604.148 332.603 595.082 341.923 595.082 353.421C595.082 364.918 604.148 374.239 615.332 374.239Z" fill="#99A7E8"/>
<path d="M915.342 381.815C930.595 381.815 942.96 369.104 942.96 353.423C942.96 337.742 930.595 325.03 915.342 325.03C900.088 325.03 887.723 337.742 887.723 353.423C887.723 369.104 900.088 381.815 915.342 381.815Z" fill="#99A7E8"/>
<path d="M461.952 369.707C470.7 369.707 477.792 362.417 477.792 353.423C477.792 344.43 470.7 337.139 461.952 337.139C453.204 337.139 446.112 344.43 446.112 353.423C446.112 362.417 453.204 369.707 461.952 369.707Z" fill="#99A7E8"/>
<path d="M371.341 365.621C377.888 365.621 383.196 360.165 383.196 353.434C383.196 346.703 377.888 341.247 371.341 341.247C364.793 341.247 359.486 346.703 359.486 353.434C359.486 360.165 364.793 365.621 371.341 365.621Z" fill="#99A7E8"/>
<path d="M344.935 365.463C351.411 365.463 356.66 360.066 356.66 353.409C356.66 346.753 351.411 341.356 344.935 341.356C338.46 341.356 333.211 346.753 333.211 353.409C333.211 360.066 338.46 365.463 344.935 365.463Z" fill="#99A7E8"/>
<path d="M318.911 367.146C324.415 367.146 328.877 362.559 328.877 356.901C328.877 351.242 324.415 346.655 318.911 346.655C313.407 346.655 308.945 351.242 308.945 356.901C308.945 362.559 313.407 367.146 318.911 367.146Z" fill="#99A7E8"/>
<path d="M299.507 355.498C304.697 355.498 308.905 351.172 308.905 345.836C308.905 340.5 304.697 336.174 299.507 336.174C294.316 336.174 290.108 340.5 290.108 345.836C290.108 351.172 294.316 355.498 299.507 355.498Z" fill="#99A7E8"/>
<path d="M288.716 374.123C293.747 374.123 297.825 369.93 297.825 364.758C297.825 359.585 293.747 355.392 288.716 355.392C283.684 355.392 279.606 359.585 279.606 364.758C279.606 369.93 283.684 374.123 288.716 374.123Z" fill="#99A7E8"/>
<path d="M278.172 355.399C283.203 355.399 287.282 351.206 287.282 346.034C287.282 340.862 283.203 336.669 278.172 336.669C273.141 336.669 269.062 340.862 269.062 346.034C269.062 351.206 273.141 355.399 278.172 355.399Z" fill="#99A7E8"/>
<path d="M496.683 369.939C505.555 369.939 512.747 362.545 512.747 353.424C512.747 344.303 505.555 336.909 496.683 336.909C487.811 336.909 480.618 344.303 480.618 353.424C480.618 362.545 487.811 369.939 496.683 369.939Z" fill="#99A7E8"/>
<path d="M236.97 360.428C240.735 360.428 243.787 357.291 243.787 353.421C243.787 349.551 240.735 346.413 236.97 346.413C233.206 346.413 230.154 349.551 230.154 353.421C230.154 357.291 233.206 360.428 236.97 360.428Z" fill="#99A7E8"/>
<path d="M217.486 359.187C220.61 359.187 223.142 356.584 223.142 353.373C223.142 350.162 220.61 347.559 217.486 347.559C214.363 347.559 211.831 350.162 211.831 353.373C211.831 356.584 214.363 359.187 217.486 359.187Z" fill="#99A7E8"/>
<path d="M203.522 359.131C206.55 359.131 209.006 356.607 209.006 353.494C209.006 350.38 206.55 347.856 203.522 347.856C200.493 347.856 198.038 350.38 198.038 353.494C198.038 356.607 200.493 359.131 203.522 359.131Z" fill="#99A7E8"/>
<path d="M183.861 362.448C186.304 362.448 188.283 360.413 188.283 357.902C188.283 355.391 186.304 353.356 183.861 353.356C181.419 353.356 179.439 355.391 179.439 357.902C179.439 360.413 181.419 362.448 183.861 362.448Z" fill="#99A7E8"/>
<path d="M191.594 353.462C194.036 353.462 196.016 351.426 196.016 348.916C196.016 346.405 194.036 344.37 191.594 344.37C189.151 344.37 187.172 346.405 187.172 348.916C187.172 351.426 189.151 353.462 191.594 353.462Z" fill="#99A7E8"/>
<path d="M1207.73 556.341C1226.55 556.341 1241.81 540.655 1241.81 521.306C1241.81 501.957 1226.55 486.271 1207.73 486.271C1188.91 486.271 1173.65 501.957 1173.65 521.306C1173.65 540.655 1188.91 556.341 1207.73 556.341Z" fill="#99A7E8"/>
<path d="M775.399 546.501C788.935 546.501 799.907 535.22 799.907 521.306C799.907 507.391 788.935 496.111 775.399 496.111C761.864 496.111 750.892 507.391 750.892 521.306C750.892 535.22 761.864 546.501 775.399 546.501Z" fill="#99A7E8"/>
<path d="M721.267 544.377C733.661 544.377 743.708 534.048 743.708 521.307C743.708 508.565 733.661 498.236 721.267 498.236C708.873 498.236 698.826 508.565 698.826 521.307C698.826 534.048 708.873 544.377 721.267 544.377Z" fill="#99A7E8"/>
<path d="M673.652 544.28C685.995 544.28 696.001 533.994 696.001 521.305C696.001 508.616 685.995 498.33 673.652 498.33C661.309 498.33 651.303 508.616 651.303 521.305C651.303 533.994 661.309 544.28 673.652 544.28Z" fill="#99A7E8"/>
<path d="M627.546 542.826C639.106 542.826 648.478 533.192 648.478 521.307C648.478 509.423 639.106 499.789 627.546 499.789C615.986 499.789 606.614 509.423 606.614 521.307C606.614 533.192 615.986 542.826 627.546 542.826Z" fill="#99A7E8"/>
<path d="M402.822 535.428C410.409 535.428 416.56 529.105 416.56 521.306C416.56 513.506 410.409 507.184 402.822 507.184C395.236 507.184 389.085 513.506 389.085 521.306C389.085 529.105 395.236 535.428 402.822 535.428Z" fill="#99A7E8"/>
<path d="M325.495 532.541C331.531 532.541 336.424 527.511 336.424 521.307C336.424 515.102 331.531 510.072 325.495 510.072C319.46 510.072 314.567 515.102 314.567 521.307C314.567 527.511 319.46 532.541 325.495 532.541Z" fill="#99A7E8"/>
<path d="M286.836 530.967C292.027 530.967 296.235 526.641 296.235 521.305C296.235 515.969 292.027 511.643 286.836 511.643C281.645 511.643 277.437 515.969 277.437 521.305C277.437 526.641 281.645 530.967 286.836 530.967Z" fill="#99A7E8"/>
<path d="M265.746 530.064C270.452 530.064 274.267 526.142 274.267 521.304C274.267 516.466 270.452 512.544 265.746 512.544C261.04 512.544 257.225 516.466 257.225 521.304C257.225 526.142 261.04 530.064 265.746 530.064Z" fill="#99A7E8"/>
<path d="M245.843 526.098C249.872 526.098 253.138 522.74 253.138 518.598C253.138 514.457 249.872 511.099 245.843 511.099C241.814 511.099 238.548 514.457 238.548 518.598C238.548 522.74 241.814 526.098 245.843 526.098Z" fill="#99A7E8"/>
<path d="M231.123 535.194C235.065 535.194 238.26 531.91 238.26 527.858C238.26 523.806 235.065 520.521 231.123 520.521C227.182 520.521 223.987 523.806 223.987 527.858C223.987 531.91 227.182 535.194 231.123 535.194Z" fill="#99A7E8"/>
<path d="M230.994 517.617C234.579 517.617 237.485 514.629 237.485 510.944C237.485 507.258 234.579 504.271 230.994 504.271C227.409 504.271 224.503 507.258 224.503 510.944C224.503 514.629 227.409 517.617 230.994 517.617Z" fill="#99A7E8"/>
<path d="M216.151 540.707C219.554 540.707 222.312 537.871 222.312 534.373C222.312 530.875 219.554 528.04 216.151 528.04C212.748 528.04 209.99 530.875 209.99 534.373C209.99 537.871 212.748 540.707 216.151 540.707Z" fill="#99A7E8"/>
<path d="M217.576 525.205C220.979 525.205 223.738 522.369 223.738 518.871C223.738 515.373 220.979 512.538 217.576 512.538C214.174 512.538 211.415 515.373 211.415 518.871C211.415 522.369 214.174 525.205 217.576 525.205Z" fill="#99A7E8"/>
<path d="M205.002 516.52C208.404 516.52 211.163 513.685 211.163 510.187C211.163 506.688 208.404 503.853 205.002 503.853C201.599 503.853 198.841 506.688 198.841 510.187C198.841 513.685 201.599 516.52 205.002 516.52Z" fill="#99A7E8"/>
<path d="M204.191 531.38C207.409 531.38 210.017 528.699 210.017 525.391C210.017 522.084 207.409 519.403 204.191 519.403C200.974 519.403 198.366 522.084 198.366 525.391C198.366 528.699 200.974 531.38 204.191 531.38Z" fill="#99A7E8"/>
<path d="M191.108 537.156C194.231 537.156 196.763 534.553 196.763 531.342C196.763 528.131 194.231 525.528 191.108 525.528C187.984 525.528 185.452 528.131 185.452 531.342C185.452 534.553 187.984 537.156 191.108 537.156Z" fill="#99A7E8"/>
<path d="M192.772 522.729C195.609 522.729 197.908 520.364 197.908 517.448C197.908 514.532 195.609 512.168 192.772 512.168C189.935 512.168 187.635 514.532 187.635 517.448C187.635 520.364 189.935 522.729 192.772 522.729Z" fill="#99A7E8"/>
<path d="M180.241 519.3C182.98 519.3 185.201 517.017 185.201 514.201C185.201 511.385 182.98 509.102 180.241 509.102C177.501 509.102 175.28 511.385 175.28 514.201C175.28 517.017 177.501 519.3 180.241 519.3Z" fill="#99A7E8"/>
<path d="M179.024 531.237C181.466 531.237 183.446 529.201 183.446 526.691C183.446 524.18 181.466 522.145 179.024 522.145C176.581 522.145 174.602 524.18 174.602 526.691C174.602 529.201 176.581 531.237 179.024 531.237Z" fill="#99A7E8"/>
<path d="M169.593 524.308C171.934 524.308 173.832 522.357 173.832 519.95C173.832 517.543 171.934 515.592 169.593 515.592C167.252 515.592 165.354 517.543 165.354 519.95C165.354 522.357 167.252 524.308 169.593 524.308Z" fill="#99A7E8"/>
<path d="M1282.3 224.801C1301.81 224.801 1317.63 208.542 1317.63 188.485C1317.63 168.429 1301.81 152.17 1282.3 152.17C1262.79 152.17 1246.98 168.429 1246.98 188.485C1246.98 208.542 1262.79 224.801 1282.3 224.801Z" fill="#99A7E8"/>
<path d="M438.73 203.468C446.779 203.468 453.303 196.761 453.303 188.487C453.303 180.213 446.779 173.505 438.73 173.505C430.682 173.505 424.157 180.213 424.157 188.487C424.157 196.761 430.682 203.468 438.73 203.468Z" fill="#99A7E8"/>
<path d="M354.379 200.404C360.782 200.404 365.972 195.068 365.972 188.485C365.972 181.903 360.782 176.567 354.379 176.567C347.976 176.567 342.785 181.903 342.785 188.485C342.785 195.068 347.976 200.404 354.379 200.404Z" fill="#99A7E8"/>
<path d="M314.754 190.709C320.102 190.709 324.438 186.251 324.438 180.753C324.438 175.255 320.102 170.797 314.754 170.797C309.405 170.797 305.07 175.255 305.07 180.753C305.07 186.251 309.405 190.709 314.754 190.709Z" fill="#99A7E8"/>
<path d="M303.153 209.2C308.265 209.2 312.408 204.94 312.408 199.686C312.408 194.431 308.265 190.172 303.153 190.172C298.042 190.172 293.899 194.431 293.899 199.686C293.899 204.94 298.042 209.2 303.153 209.2Z" fill="#99A7E8"/>
<path d="M293.136 189.854C298.167 189.854 302.246 185.661 302.246 180.489C302.246 175.317 298.167 171.124 293.136 171.124C288.104 171.124 284.026 175.317 284.026 180.489C284.026 185.661 288.104 189.854 293.136 189.854Z" fill="#99A7E8"/>
<path d="M282.281 207.734C287.15 207.734 291.098 203.676 291.098 198.67C291.098 193.664 287.15 189.605 282.281 189.605C277.411 189.605 273.463 193.664 273.463 198.67C273.463 203.676 277.411 207.734 282.281 207.734Z" fill="#99A7E8"/>
<path d="M272.98 189.076C277.52 189.076 281.201 185.293 281.201 180.625C281.201 175.958 277.52 172.174 272.98 172.174C268.44 172.174 264.759 175.958 264.759 180.625C264.759 185.293 268.44 189.076 272.98 189.076Z" fill="#99A7E8"/>
<path d="M262.625 205.438C267.082 205.438 270.694 201.724 270.694 197.143C270.694 192.561 267.082 188.847 262.625 188.847C258.169 188.847 254.556 192.561 254.556 197.143C254.556 201.724 258.169 205.438 262.625 205.438Z" fill="#99A7E8"/>
<path d="M254.029 188.078C258.401 188.078 261.945 184.435 261.945 179.94C261.945 175.446 258.401 171.802 254.029 171.802C249.656 171.802 246.112 175.446 246.112 179.94C246.112 184.435 249.656 188.078 254.029 188.078Z" fill="#99A7E8"/>
<path d="M244.165 203.67C248.367 203.67 251.773 200.168 251.773 195.849C251.773 191.529 248.367 188.028 244.165 188.028C239.963 188.028 236.557 191.529 236.557 195.849C236.557 200.168 239.963 203.67 244.165 203.67Z" fill="#99A7E8"/>
<path d="M232.838 189.481C236.602 189.481 239.654 186.344 239.654 182.474C239.654 178.604 236.602 175.466 232.838 175.466C229.073 175.466 226.021 178.604 226.021 182.474C226.021 186.344 229.073 189.481 232.838 189.481Z" fill="#99A7E8"/>
<path d="M217.266 194.466C220.483 194.466 223.091 191.785 223.091 188.478C223.091 185.17 220.483 182.489 217.266 182.489C214.049 182.489 211.44 185.17 211.44 188.478C211.44 191.785 214.049 194.466 217.266 194.466Z" fill="#99A7E8"/>
<path d="M199.714 193.587C202.454 193.587 204.674 191.304 204.674 188.488C204.674 185.672 202.454 183.389 199.714 183.389C196.975 183.389 194.754 185.672 194.754 188.488C194.754 191.304 196.975 193.587 199.714 193.587Z" fill="#99A7E8"/>
<path d="M183.834 198.344C186.175 198.344 188.073 196.393 188.073 193.986C188.073 191.579 186.175 189.628 183.834 189.628C181.493 189.628 179.595 191.579 179.595 193.986C179.595 196.393 181.493 198.344 183.834 198.344Z" fill="#99A7E8"/>
<path d="M187.483 187.342C189.824 187.342 191.722 185.391 191.722 182.984C191.722 180.577 189.824 178.626 187.483 178.626C185.142 178.626 183.244 180.577 183.244 182.984C183.244 185.391 185.142 187.342 187.483 187.342Z" fill="#99A7E8"/>
<path d="M89.8819 189.321C91.7604 189.321 93.2833 187.755 93.2833 185.824C93.2833 183.893 91.7604 182.327 89.8819 182.327C88.0034 182.327 86.4806 183.893 86.4806 185.824C86.4806 187.755 88.0034 189.321 89.8819 189.321Z" fill="#E9671F"/>
<path d="M81.2699 188.991C82.9708 188.991 84.3497 187.573 84.3497 185.824C84.3497 184.076 82.9708 182.658 81.2699 182.658C79.5689 182.658 78.1901 184.076 78.1901 185.824C78.1901 187.573 79.5689 188.991 81.2699 188.991Z" fill="#E9671F"/>
<path d="M73.1886 185.403C74.7024 185.403 75.9295 184.142 75.9295 182.586C75.9295 181.029 74.7024 179.768 73.1886 179.768C71.6749 179.768 70.4478 181.029 70.4478 182.586C70.4478 184.142 71.6749 185.403 73.1886 185.403Z" fill="#E9671F"/>
<path d="M72.1274 191.88C73.6411 191.88 74.8683 190.619 74.8683 189.063C74.8683 187.506 73.6411 186.245 72.1274 186.245C70.6136 186.245 69.3865 187.506 69.3865 189.063C69.3865 190.619 70.6136 191.88 72.1274 191.88Z" fill="#E9671F"/>
<path d="M46.8221 187.449C47.6956 187.449 48.4038 186.721 48.4038 185.823C48.4038 184.925 47.6956 184.197 46.8221 184.197C45.9486 184.197 45.2405 184.925 45.2405 185.823C45.2405 186.721 45.9486 187.449 46.8221 187.449Z" fill="#E9671F"/>
<path d="M386.262 365.5C393.018 365.5 398.495 359.87 398.495 352.924C398.495 345.979 393.018 340.348 386.262 340.348C379.506 340.348 374.029 345.979 374.029 352.924C374.029 359.87 379.506 365.5 386.262 365.5Z" fill="#E9671F"/>
<path d="M203.316 359.382C206.538 359.382 209.151 356.696 209.151 353.383C209.151 350.07 206.538 347.385 203.316 347.385C200.093 347.385 197.481 350.07 197.481 353.383C197.481 356.696 200.093 359.382 203.316 359.382Z" fill="#E9671F"/>
<path d="M189.515 359.033C192.551 359.033 195.012 356.503 195.012 353.382C195.012 350.262 192.551 347.732 189.515 347.732C186.48 347.732 184.019 350.262 184.019 353.382C184.019 356.503 186.48 359.033 189.515 359.033Z" fill="#E9671F"/>
<path d="M178.039 358.763C180.929 358.763 183.272 356.354 183.272 353.383C183.272 350.412 180.929 348.004 178.039 348.004C175.149 348.004 172.807 350.412 172.807 353.383C172.807 356.354 175.149 358.763 178.039 358.763Z" fill="#E9671F"/>
<path d="M244.738 359.231C248.801 359.231 252.094 355.845 252.094 351.669C252.094 347.492 248.801 344.106 244.738 344.106C240.675 344.106 237.382 347.492 237.382 351.669C237.382 355.845 240.675 359.231 244.738 359.231Z" fill="#E9671F"/>
<path d="M145.457 358.829C148.628 358.829 151.198 356.186 151.198 352.926C151.198 349.667 148.628 347.024 145.457 347.024C142.286 347.024 139.716 349.667 139.716 352.926C139.716 356.186 142.286 358.829 145.457 358.829Z" fill="#E9671F"/>
<path d="M117.565 357.979C120.281 357.979 122.483 355.716 122.483 352.924C122.483 350.132 120.281 347.869 117.565 347.869C114.849 347.869 112.648 350.132 112.648 352.924C112.648 355.716 114.849 357.979 117.565 357.979Z" fill="#E9671F"/>
<path d="M260.262 358.713C264.325 358.713 267.618 355.327 267.618 351.15C267.618 346.974 264.325 343.588 260.262 343.588C256.199 343.588 252.906 346.974 252.906 351.15C252.906 355.327 256.199 358.713 260.262 358.713Z" fill="#E9671F"/>
<path d="M95.8842 356.8C98.1833 356.8 100.047 354.884 100.047 352.521C100.047 350.157 98.1833 348.241 95.8842 348.241C93.585 348.241 91.7212 350.157 91.7212 352.521C91.7212 354.884 93.585 356.8 95.8842 356.8Z" fill="#E9671F"/>
<path d="M87.2074 358.847C89.3278 358.847 91.0467 357.08 91.0467 354.9C91.0467 352.72 89.3278 350.953 87.2074 350.953C85.087 350.953 83.368 352.72 83.368 354.9C83.368 357.08 85.087 358.847 87.2074 358.847Z" fill="#E9671F"/>
<path d="M87.1324 349.951C89.1604 349.951 90.8044 348.261 90.8044 346.176C90.8044 344.091 89.1604 342.401 87.1324 342.401C85.1045 342.401 83.4604 344.091 83.4604 346.176C83.4604 348.261 85.1045 349.951 87.1324 349.951Z" fill="#E9671F"/>
<path d="M79.6097 362.574C81.6377 362.574 83.2817 360.884 83.2817 358.799C83.2817 356.714 81.6377 355.024 79.6097 355.024C77.5817 355.024 75.9377 356.714 75.9377 358.799C75.9377 360.884 77.5817 362.574 79.6097 362.574Z" fill="#E9671F"/>
<path d="M80.1147 354.032C82.0481 354.032 83.6154 352.421 83.6154 350.433C83.6154 348.446 82.0481 346.835 80.1147 346.835C78.1814 346.835 76.6141 348.446 76.6141 350.433C76.6141 352.421 78.1814 354.032 80.1147 354.032Z" fill="#E9671F"/>
<path d="M72.9279 357.598C74.8612 357.598 76.4285 355.987 76.4285 353.999C76.4285 352.012 74.8612 350.401 72.9279 350.401C70.9945 350.401 69.4272 352.012 69.4272 353.999C69.4272 355.987 70.9945 357.598 72.9279 357.598Z" fill="#E9671F"/>
<path d="M72.265 365.41C74.1012 365.41 75.5898 363.88 75.5898 361.992C75.5898 360.104 74.1012 358.574 72.265 358.574C70.4287 358.574 68.9401 360.104 68.9401 361.992C68.9401 363.88 70.4287 365.41 72.265 365.41Z" fill="#E9671F"/>
<path d="M73.7141 349.262C75.5503 349.262 77.0389 347.732 77.0389 345.844C77.0389 343.956 75.5503 342.426 73.7141 342.426C71.8778 342.426 70.3892 343.956 70.3892 345.844C70.3892 347.732 71.8778 349.262 73.7141 349.262Z" fill="#E9671F"/>
<path d="M66.7651 352.493C68.6014 352.493 70.09 350.962 70.09 349.075C70.09 347.187 68.6014 345.656 66.7651 345.656C64.9288 345.656 63.4402 347.187 63.4402 349.075C63.4402 350.962 64.9288 352.493 66.7651 352.493Z" fill="#E9671F"/>
<path d="M66.1602 360.841C67.8969 360.841 69.3047 359.394 69.3047 357.608C69.3047 355.823 67.8969 354.376 66.1602 354.376C64.4236 354.376 63.0157 355.823 63.0157 357.608C63.0157 359.394 64.4236 360.841 66.1602 360.841Z" fill="#E9671F"/>
<path d="M54.8464 354.329C56.4806 354.329 57.8054 352.967 57.8054 351.287C57.8054 349.607 56.4806 348.245 54.8464 348.245C53.2122 348.245 51.8875 349.607 51.8875 351.287C51.8875 352.967 53.2122 354.329 54.8464 354.329Z" fill="#E9671F"/>
<path d="M59.3278 362.569C60.962 362.569 62.2868 361.207 62.2868 359.527C62.2868 357.847 60.962 356.485 59.3278 356.485C57.6936 356.485 56.3688 357.847 56.3688 359.527C56.3688 361.207 57.6936 362.569 59.3278 362.569Z" fill="#E9671F"/>
<path d="M59.9439 349.553C61.5781 349.553 62.9028 348.191 62.9028 346.511C62.9028 344.831 61.5781 343.469 59.9439 343.469C58.3096 343.469 56.9849 344.831 56.9849 346.511C56.9849 348.191 58.3096 349.553 59.9439 349.553Z" fill="#E9671F"/>
<path d="M61.1116 355.735C62.5315 355.735 63.6825 354.551 63.6825 353.092C63.6825 351.632 62.5315 350.449 61.1116 350.449C59.6918 350.449 58.5408 351.632 58.5408 353.092C58.5408 354.551 59.6918 355.735 61.1116 355.735Z" fill="#E9671F"/>
<path d="M51.9557 347.936C53.3756 347.936 54.5266 346.752 54.5266 345.293C54.5266 343.833 53.3756 342.65 51.9557 342.65C50.5359 342.65 49.3849 343.833 49.3849 345.293C49.3849 346.752 50.5359 347.936 51.9557 347.936Z" fill="#E9671F"/>
<path d="M46.0402 347.626C47.3474 347.626 48.4072 346.537 48.4072 345.193C48.4072 343.849 47.3474 342.759 46.0402 342.759C44.7329 342.759 43.6731 343.849 43.6731 345.193C43.6731 346.537 44.7329 347.626 46.0402 347.626Z" fill="#E9671F"/>
<path d="M47.0099 363.217C48.3172 363.217 49.3769 362.128 49.3769 360.784C49.3769 359.44 48.3172 358.35 47.0099 358.35C45.7026 358.35 44.6428 359.44 44.6428 360.784C44.6428 362.128 45.7026 363.217 47.0099 363.217Z" fill="#E9671F"/>
<path d="M50.8533 358.733C52.1606 358.733 53.2203 357.644 53.2203 356.3C53.2203 354.956 52.1606 353.866 50.8533 353.866C49.546 353.866 48.4862 354.956 48.4862 356.3C48.4862 357.644 49.546 358.733 50.8533 358.733Z" fill="#E9671F"/>
<path d="M52.6212 364.318C53.9285 364.318 54.9883 363.228 54.9883 361.884C54.9883 360.54 53.9285 359.451 52.6212 359.451C51.3139 359.451 50.2542 360.54 50.2542 361.884C50.2542 363.228 51.3139 364.318 52.6212 364.318Z" fill="#E9671F"/>
<path d="M45.2432 357.633C46.5504 357.633 47.6102 356.543 47.6102 355.199C47.6102 353.855 46.5504 352.766 45.2432 352.766C43.9359 352.766 42.8761 353.855 42.8761 355.199C42.8761 356.543 43.9359 357.633 45.2432 357.633Z" fill="#E9671F"/>
<path d="M48.5978 352.877C49.9051 352.877 50.9648 351.788 50.9648 350.444C50.9648 349.1 49.9051 348.01 48.5978 348.01C47.2905 348.01 46.2307 349.1 46.2307 350.444C46.2307 351.788 47.2905 352.877 48.5978 352.877Z" fill="#E9671F"/>
<path d="M41.3669 361.427C42.5576 361.427 43.5228 360.435 43.5228 359.211C43.5228 357.987 42.5576 356.994 41.3669 356.994C40.1763 356.994 39.2111 357.987 39.2111 359.211C39.2111 360.435 40.1763 361.427 41.3669 361.427Z" fill="#E9671F"/>
<path d="M40.5387 347.45C41.7293 347.45 42.6945 346.458 42.6945 345.234C42.6945 344.01 41.7293 343.017 40.5387 343.017C39.348 343.017 38.3828 344.01 38.3828 345.234C38.3828 346.458 39.348 347.45 40.5387 347.45Z" fill="#E9671F"/>
<path d="M43.1159 352.201C44.3066 352.201 45.2718 351.209 45.2718 349.985C45.2718 348.761 44.3066 347.768 43.1159 347.768C41.9253 347.768 40.9601 348.761 40.9601 349.985C40.9601 351.209 41.9253 352.201 43.1159 352.201Z" fill="#E9671F"/>
<path d="M36.2998 361.389C37.3692 361.389 38.2361 360.497 38.2361 359.398C38.2361 358.299 37.3692 357.407 36.2998 357.407C35.2303 357.407 34.3634 358.299 34.3634 359.398C34.3634 360.497 35.2303 361.389 36.2998 361.389Z" fill="#E9671F"/>
<path d="M35.6492 356.446C36.7187 356.446 37.5856 355.555 37.5856 354.455C37.5856 353.356 36.7187 352.465 35.6492 352.465C34.5798 352.465 33.7129 353.356 33.7129 354.455C33.7129 355.555 34.5798 356.446 35.6492 356.446Z" fill="#E9671F"/>
<path d="M35.5064 347.866C36.5758 347.866 37.4428 346.975 37.4428 345.876C37.4428 344.776 36.5758 343.885 35.5064 343.885C34.437 343.885 33.5701 344.776 33.5701 345.876C33.5701 346.975 34.437 347.866 35.5064 347.866Z" fill="#E9671F"/>
<path d="M38.0484 352.113C39.1178 352.113 39.9848 351.221 39.9848 350.122C39.9848 349.023 39.1178 348.131 38.0484 348.131C36.979 348.131 36.1121 349.023 36.1121 350.122C36.1121 351.221 36.979 352.113 38.0484 352.113Z" fill="#E9671F"/>
<path d="M40.2687 356.044C41.2117 356.044 41.9761 355.258 41.9761 354.288C41.9761 353.319 41.2117 352.533 40.2687 352.533C39.3256 352.533 38.5612 353.319 38.5612 354.288C38.5612 355.258 39.3256 356.044 40.2687 356.044Z" fill="#E9671F"/>
<path d="M27.6496 358.656C28.5927 358.656 29.3571 357.87 29.3571 356.9C29.3571 355.931 28.5927 355.145 27.6496 355.145C26.7066 355.145 25.9421 355.931 25.9421 356.9C25.9421 357.87 26.7066 358.656 27.6496 358.656Z" fill="#E9671F"/>
<path d="M30.9284 348.284C31.8715 348.284 32.6359 347.498 32.6359 346.528C32.6359 345.559 31.8715 344.773 30.9284 344.773C29.9854 344.773 29.2209 345.559 29.2209 346.528C29.2209 347.498 29.9854 348.284 30.9284 348.284Z" fill="#E9671F"/>
<path d="M33.4278 351.998C34.3709 351.998 35.1353 351.212 35.1353 350.243C35.1353 349.273 34.3709 348.488 33.4278 348.488C32.4848 348.488 31.7203 349.273 31.7203 350.243C31.7203 351.212 32.4848 351.998 33.4278 351.998Z" fill="#E9671F"/>
<path d="M31.7619 360.252C32.705 360.252 33.4694 359.466 33.4694 358.496C33.4694 357.527 32.705 356.741 31.7619 356.741C30.8189 356.741 30.0544 357.527 30.0544 358.496C30.0544 359.466 30.8189 360.252 31.7619 360.252Z" fill="#E9671F"/>
<path d="M28.5473 352.078C29.4904 352.078 30.2548 351.292 30.2548 350.323C30.2548 349.353 29.4904 348.568 28.5473 348.568C27.6043 348.568 26.8398 349.353 26.8398 350.323C26.8398 351.292 27.6043 352.078 28.5473 352.078Z" fill="#E9671F"/>
<path d="M31.0465 355.795C31.9895 355.795 32.754 355.009 32.754 354.04C32.754 353.07 31.9895 352.284 31.0465 352.284C30.1035 352.284 29.339 353.07 29.339 354.04C29.339 355.009 30.1035 355.795 31.0465 355.795Z" fill="#E9671F"/>
<path d="M25.5134 354.748C26.3241 354.748 26.9814 354.072 26.9814 353.239C26.9814 352.405 26.3241 351.729 25.5134 351.729C24.7026 351.729 24.0454 352.405 24.0454 353.239C24.0454 354.072 24.7026 354.748 25.5134 354.748Z" fill="#E9671F"/>
<path d="M307.196 527.845C312.357 527.845 316.54 523.544 316.54 518.239C316.54 512.934 312.357 508.633 307.196 508.633C302.036 508.633 297.853 512.934 297.853 518.239C297.853 523.544 302.036 527.845 307.196 527.845Z" fill="#E9671F"/>
<path d="M223.918 526.062C228.12 526.062 231.526 522.56 231.526 518.24C231.526 513.921 228.12 510.419 223.918 510.419C219.716 510.419 216.309 513.921 216.309 518.24C216.309 522.56 219.716 526.062 223.918 526.062Z" fill="#E9671F"/>
<path d="M187.946 525.327C191.754 525.327 194.84 522.153 194.84 518.239C194.84 514.325 191.754 511.152 187.946 511.152C184.138 511.152 181.052 514.325 181.052 518.239C181.052 522.153 184.138 525.327 187.946 525.327Z" fill="#E9671F"/>
<path d="M149.379 524.055C152.504 524.055 155.037 521.451 155.037 518.239C155.037 515.027 152.504 512.423 149.379 512.423C146.255 512.423 143.722 515.027 143.722 518.239C143.722 521.451 146.255 524.055 149.379 524.055Z" fill="#E9671F"/>
<path d="M202.762 525.435C206.628 525.435 209.761 522.214 209.761 518.24C209.761 514.266 206.628 511.044 202.762 511.044C198.896 511.044 195.763 514.266 195.763 518.24C195.763 522.214 198.896 525.435 202.762 525.435Z" fill="#E9671F"/>
<path d="M137.387 523.805C140.376 523.805 142.8 521.313 142.8 518.24C142.8 515.166 140.376 512.674 137.387 512.674C134.397 512.674 131.973 515.166 131.973 518.24C131.973 521.313 134.397 523.805 137.387 523.805Z" fill="#E9671F"/>
<path d="M125.762 523.674C128.683 523.674 131.051 521.24 131.051 518.237C131.051 515.234 128.683 512.8 125.762 512.8C122.841 512.8 120.473 515.234 120.473 518.237C120.473 521.24 122.841 523.674 125.762 523.674Z" fill="#E9671F"/>
<path d="M108.001 520.191C110.486 520.191 112.501 518.12 112.501 515.565C112.501 513.01 110.486 510.939 108.001 510.939C105.516 510.939 103.502 513.01 103.502 515.565C103.502 518.12 105.516 520.191 108.001 520.191Z" fill="#E9671F"/>
<path d="M101.824 527.844C104.232 527.844 106.184 525.837 106.184 523.362C106.184 520.887 104.232 518.88 101.824 518.88C99.416 518.88 97.464 520.887 97.464 523.362C97.464 525.837 99.416 527.844 101.824 527.844Z" fill="#E9671F"/>
<path d="M98.4486 518.568C100.778 518.568 102.666 516.627 102.666 514.232C102.666 511.837 100.778 509.896 98.4486 509.896C96.1191 509.896 94.2307 511.837 94.2307 514.232C94.2307 516.627 96.1191 518.568 98.4486 518.568Z" fill="#E9671F"/>
<path d="M89.4403 517.218C91.6082 517.218 93.3655 515.411 93.3655 513.182C93.3655 510.954 91.6082 509.147 89.4403 509.147C87.2725 509.147 85.5151 510.954 85.5151 513.182C85.5151 515.411 87.2725 517.218 89.4403 517.218Z" fill="#E9671F"/>
<path d="M84.2383 527.546C86.4061 527.546 88.1635 525.739 88.1635 523.511C88.1635 521.282 86.4061 519.476 84.2383 519.476C82.0705 519.476 80.3131 521.282 80.3131 523.511C80.3131 525.739 82.0705 527.546 84.2383 527.546Z" fill="#E9671F"/>
<path d="M92.7937 525.551C94.9615 525.551 96.7189 523.744 96.7189 521.515C96.7189 519.287 94.9615 517.48 92.7937 517.48C90.6259 517.48 88.8685 519.287 88.8685 521.515C88.8685 523.744 90.6259 525.551 92.7937 525.551Z" fill="#E9671F"/>
<path d="M81.0604 519.149C83.1449 519.149 84.8347 517.412 84.8347 515.269C84.8347 513.126 83.1449 511.389 81.0604 511.389C78.9759 511.389 77.2861 513.126 77.2861 515.269C77.2861 517.412 78.9759 519.149 81.0604 519.149Z" fill="#E9671F"/>
<path d="M75.9035 525.7C77.9028 525.7 79.5235 524.033 79.5235 521.978C79.5235 519.923 77.9028 518.257 75.9035 518.257C73.9042 518.257 72.2834 519.923 72.2834 521.978C72.2834 524.033 73.9042 525.7 75.9035 525.7Z" fill="#E9671F"/>
<path d="M69.8591 520.232C71.682 520.232 73.1598 518.713 73.1598 516.839C73.1598 514.965 71.682 513.446 69.8591 513.446C68.0362 513.446 66.5585 514.965 66.5585 516.839C66.5585 518.713 68.0362 520.232 69.8591 520.232Z" fill="#E9671F"/>
<path d="M63.4404 523.216C65.0779 523.216 66.4053 521.851 66.4053 520.168C66.4053 518.484 65.0779 517.12 63.4404 517.12C61.803 517.12 60.4756 518.484 60.4756 520.168C60.4756 521.851 61.803 523.216 63.4404 523.216Z" fill="#E9671F"/>
<path d="M63.7675 515.964C65.4049 515.964 66.7323 514.6 66.7323 512.916C66.7323 511.233 65.4049 509.869 63.7675 509.869C62.13 509.869 60.8026 511.233 60.8026 512.916C60.8026 514.6 62.13 515.964 63.7675 515.964Z" fill="#E9671F"/>
<path d="M57.9426 519.137C59.4834 519.137 60.7325 517.853 60.7325 516.269C60.7325 514.685 59.4834 513.4 57.9426 513.4C56.4017 513.4 55.1526 514.685 55.1526 516.269C55.1526 517.853 56.4017 519.137 57.9426 519.137Z" fill="#E9671F"/>
<path d="M57.1895 525.778C58.7304 525.778 59.9795 524.494 59.9795 522.91C59.9795 521.326 58.7304 520.042 57.1895 520.042C55.6486 520.042 54.3995 521.326 54.3995 522.91C54.3995 524.494 55.6486 525.778 57.1895 525.778Z" fill="#E9671F"/>
<path d="M52.18 521.629C53.6214 521.629 54.7899 520.428 54.7899 518.946C54.7899 517.465 53.6214 516.263 52.18 516.263C50.7387 516.263 49.5702 517.465 49.5702 518.946C49.5702 520.428 50.7387 521.629 52.18 521.629Z" fill="#E9671F"/>
<path d="M52.7407 515.26C54.1821 515.26 55.3505 514.058 55.3505 512.577C55.3505 511.095 54.1821 509.894 52.7407 509.894C51.2993 509.894 50.1309 511.095 50.1309 512.577C50.1309 514.058 51.2993 515.26 52.7407 515.26Z" fill="#E9671F"/>
<path d="M50.606 527.345C51.9447 527.345 53.03 526.23 53.03 524.853C53.03 523.477 51.9447 522.362 50.606 522.362C49.2673 522.362 48.182 523.477 48.182 524.853C48.182 526.23 49.2673 527.345 50.606 527.345Z" fill="#E9671F"/>
<path d="M46.6935 523.06C47.9261 523.06 48.9254 522.033 48.9254 520.766C48.9254 519.498 47.9261 518.471 46.6935 518.471C45.4609 518.471 44.4617 519.498 44.4617 520.766C44.4617 522.033 45.4609 523.06 46.6935 523.06Z" fill="#E9671F"/>
<path d="M47.6278 517.606C48.8605 517.606 49.8597 516.578 49.8597 515.311C49.8597 514.044 48.8605 513.017 47.6278 513.017C46.3952 513.017 45.396 514.044 45.396 515.311C45.396 516.578 46.3952 517.606 47.6278 517.606Z" fill="#E9671F"/>
<path d="M44.1239 513.398C45.3566 513.398 46.3558 512.371 46.3558 511.104C46.3558 509.836 45.3566 508.809 44.1239 508.809C42.8913 508.809 41.8921 509.836 41.8921 511.104C41.8921 512.371 42.8913 513.398 44.1239 513.398Z" fill="#E9671F"/>
<path d="M38.8783 514.658C40.1109 514.658 41.1102 513.631 41.1102 512.364C41.1102 511.097 40.1109 510.069 38.8783 510.069C37.6457 510.069 36.6465 511.097 36.6465 512.364C36.6465 513.631 37.6457 514.658 38.8783 514.658Z" fill="#E9671F"/>
<path d="M41.34 523.663C42.5726 523.663 43.5719 522.635 43.5719 521.368C43.5719 520.101 42.5726 519.074 41.34 519.074C40.1074 519.074 39.1082 520.101 39.1082 521.368C39.1082 522.635 40.1074 523.663 41.34 523.663Z" fill="#E9671F"/>
<path d="M44.4975 527.685C45.6202 527.685 46.5303 526.749 46.5303 525.595C46.5303 524.441 45.6202 523.505 44.4975 523.505C43.3749 523.505 42.4648 524.441 42.4648 525.595C42.4648 526.749 43.3749 527.685 44.4975 527.685Z" fill="#E9671F"/>
<path d="M42.5098 518.26C43.6324 518.26 44.5425 517.325 44.5425 516.17C44.5425 515.016 43.6324 514.081 42.5098 514.081C41.3871 514.081 40.4771 515.016 40.4771 516.17C40.4771 517.325 41.3871 518.26 42.5098 518.26Z" fill="#E9671F"/>
<path d="M39.5137 528.447C40.6363 528.447 41.5464 527.512 41.5464 526.358C41.5464 525.203 40.6363 524.268 39.5137 524.268C38.391 524.268 37.481 525.203 37.481 526.358C37.481 527.512 38.391 528.447 39.5137 528.447Z" fill="#E9671F"/>
<path d="M36.2643 524.559C37.3869 524.559 38.297 523.624 38.297 522.469C38.297 521.315 37.3869 520.38 36.2643 520.38C35.1416 520.38 34.2316 521.315 34.2316 522.469C34.2316 523.624 35.1416 524.559 36.2643 524.559Z" fill="#E9671F"/>
<path d="M37.7087 519.648C38.8314 519.648 39.7414 518.713 39.7414 517.559C39.7414 516.405 38.8314 515.469 37.7087 515.469C36.5861 515.469 35.676 516.405 35.676 517.559C35.676 518.713 36.5861 519.648 37.7087 519.648Z" fill="#E9671F"/>
<path d="M29.7764 517.362C30.7848 517.362 31.6022 516.522 31.6022 515.485C31.6022 514.449 30.7848 513.608 29.7764 513.608C28.7681 513.608 27.9507 514.449 27.9507 515.485C27.9507 516.522 28.7681 517.362 29.7764 517.362Z" fill="#E9671F"/>
<path d="M34.1861 516.116C35.1944 516.116 36.0118 515.275 36.0118 514.239C36.0118 513.202 35.1944 512.362 34.1861 512.362C33.1778 512.362 32.3604 513.202 32.3604 514.239C32.3604 515.275 33.1778 516.116 34.1861 516.116Z" fill="#E9671F"/>
<path d="M34.7084 511.442C35.7168 511.442 36.5342 510.602 36.5342 509.565C36.5342 508.529 35.7168 507.688 34.7084 507.688C33.7001 507.688 32.8827 508.529 32.8827 509.565C32.8827 510.602 33.7001 511.442 34.7084 511.442Z" fill="#E9671F"/>
<path d="M33.0816 520.675C34.0899 520.675 34.9073 519.834 34.9073 518.798C34.9073 517.761 34.0899 516.921 33.0816 516.921C32.0733 516.921 31.2559 517.761 31.2559 518.798C31.2559 519.834 32.0733 520.675 33.0816 520.675Z" fill="#E9671F"/>
<path d="M28.6711 521.921C29.6794 521.921 30.4968 521.081 30.4968 520.044C30.4968 519.008 29.6794 518.167 28.6711 518.167C27.6627 518.167 26.8453 519.008 26.8453 520.044C26.8453 521.081 27.6627 521.921 28.6711 521.921Z" fill="#E9671F"/>
<path d="M31.7569 524.866C32.6461 524.866 33.3669 524.125 33.3669 523.211C33.3669 522.297 32.6461 521.556 31.7569 521.556C30.8678 521.556 30.147 522.297 30.147 523.211C30.147 524.125 30.8678 524.866 31.7569 524.866Z" fill="#E9671F"/>
<path d="M25.4297 518.835C26.1941 518.835 26.8138 518.198 26.8138 517.412C26.8138 516.627 26.1941 515.989 25.4297 515.989C24.6652 515.989 24.0455 516.627 24.0455 517.412C24.0455 518.198 24.6652 518.835 25.4297 518.835Z" fill="#E9671F"/>
<path d="M1401.99 75.4873C1400.54 75.4873 1399.12 75.2031 1397.78 74.6509C1396.45 74.0988 1395.24 73.2895 1394.22 72.2692C1393.2 71.2489 1392.39 70.0377 1391.84 68.7046C1391.28 67.3716 1391 65.9428 1391 64.4999C1391 63.0571 1391.28 61.6283 1391.84 60.2953C1392.39 58.9622 1393.2 57.751 1394.22 56.7307C1395.24 55.7104 1396.45 54.9011 1397.78 54.3489C1399.12 53.7968 1400.54 53.5126 1401.99 53.5126C1403.43 53.5126 1404.86 53.7968 1406.19 54.3489C1407.53 54.9011 1408.74 55.7104 1409.76 56.7307C1410.78 57.751 1411.59 58.9622 1412.14 60.2953C1412.69 61.6283 1412.97 63.0571 1412.97 64.4999C1412.97 65.9428 1412.69 67.3716 1412.14 68.7046C1411.59 70.0377 1410.78 71.2489 1409.76 72.2692C1408.74 73.2895 1407.53 74.0988 1406.19 74.6509C1404.86 75.2031 1403.43 75.4873 1401.99 75.4873V75.4873Z" fill="#E9671F"/>
<path d="M1422.88 74V55.0909H1429.62C1431.09 55.0909 1432.31 55.3587 1433.27 55.8942C1434.24 56.4297 1434.96 57.1622 1435.44 58.0916C1435.92 59.0149 1436.16 60.0552 1436.16 61.2124C1436.16 62.3757 1435.92 63.4221 1435.43 64.3516C1434.95 65.2749 1434.23 66.0073 1433.25 66.549C1432.29 67.0845 1431.07 67.3523 1429.61 67.3523H1424.97V64.9332H1429.35C1430.28 64.9332 1431.03 64.7732 1431.61 64.4531C1432.19 64.1269 1432.61 63.6837 1432.88 63.1236C1433.16 62.5634 1433.29 61.9264 1433.29 61.2124C1433.29 60.4983 1433.16 59.8643 1432.88 59.3104C1432.61 58.7564 1432.19 58.3224 1431.6 58.0085C1431.02 57.6946 1430.26 57.5376 1429.31 57.5376H1425.73V74H1422.88ZM1439.29 74V59.8182H1441.95V62.071H1442.1C1442.36 61.3078 1442.82 60.7076 1443.47 60.2706C1444.13 59.8274 1444.87 59.6058 1445.7 59.6058C1445.87 59.6058 1446.08 59.612 1446.31 59.6243C1446.55 59.6366 1446.74 59.652 1446.87 59.6705V62.3111C1446.76 62.2803 1446.57 62.2464 1446.28 62.2095C1446 62.1664 1445.72 62.1449 1445.43 62.1449C1444.78 62.1449 1444.2 62.2834 1443.69 62.5604C1443.18 62.8312 1442.78 63.2098 1442.49 63.696C1442.19 64.1761 1442.05 64.724 1442.05 65.3395V74H1439.29ZM1449.26 74V59.8182H1452.02V74H1449.26ZM1450.66 57.63C1450.18 57.63 1449.77 57.4699 1449.42 57.1499C1449.08 56.8236 1448.91 56.4358 1448.91 55.9865C1448.91 55.531 1449.08 55.1432 1449.42 54.8232C1449.77 54.4969 1450.18 54.3338 1450.66 54.3338C1451.14 54.3338 1451.55 54.4969 1451.89 54.8232C1452.23 55.1432 1452.4 55.531 1452.4 55.9865C1452.4 56.4358 1452.23 56.8236 1451.89 57.1499C1451.55 57.4699 1451.14 57.63 1450.66 57.63ZM1455.74 74V59.8182H1458.39V62.1264H1458.56C1458.86 61.3447 1459.34 60.7353 1460.01 60.2983C1460.68 59.8551 1461.49 59.6335 1462.42 59.6335C1463.37 59.6335 1464.17 59.8551 1464.81 60.2983C1465.45 60.7415 1465.93 61.3509 1466.24 62.1264H1466.38C1466.72 61.3693 1467.26 60.7661 1468 60.3168C1468.74 59.8613 1469.62 59.6335 1470.64 59.6335C1471.93 59.6335 1472.98 60.0367 1473.79 60.843C1474.61 61.6494 1475.02 62.8651 1475.02 64.4901V74H1472.26V64.7486C1472.26 63.7884 1471.99 63.0928 1471.47 62.6619C1470.95 62.2311 1470.32 62.0156 1469.6 62.0156C1468.7 62.0156 1468 62.2926 1467.5 62.8466C1467 63.3944 1466.75 64.0992 1466.75 64.9609V74H1464V64.5732C1464 63.8037 1463.76 63.1851 1463.28 62.7173C1462.8 62.2495 1462.18 62.0156 1461.41 62.0156C1460.88 62.0156 1460.4 62.1541 1459.96 62.4311C1459.52 62.7019 1459.17 63.0805 1458.9 63.5668C1458.63 64.053 1458.5 64.6162 1458.5 65.2564V74H1455.74ZM1482.84 74.3139C1481.95 74.3139 1481.13 74.1477 1480.41 73.8153C1479.68 73.4768 1479.1 72.9875 1478.68 72.3473C1478.26 71.7071 1478.05 70.9223 1478.05 69.9929C1478.05 69.1927 1478.21 68.5341 1478.51 68.017C1478.82 67.5 1479.24 67.0907 1479.76 66.7891C1480.28 66.4875 1480.87 66.2597 1481.51 66.1058C1482.16 65.9519 1482.82 65.835 1483.49 65.755C1484.34 65.6565 1485.03 65.5765 1485.56 65.5149C1486.09 65.4472 1486.47 65.3395 1486.71 65.1918C1486.95 65.044 1487.07 64.804 1487.07 64.4716V64.407C1487.07 63.6006 1486.84 62.9759 1486.39 62.5327C1485.94 62.0895 1485.27 61.8679 1484.38 61.8679C1483.45 61.8679 1482.71 62.0741 1482.18 62.4865C1481.65 62.8928 1481.28 63.3452 1481.08 63.8438L1478.49 63.2528C1478.79 62.3911 1479.24 61.6955 1479.83 61.1662C1480.43 60.6307 1481.12 60.2429 1481.89 60.0028C1482.67 59.7566 1483.48 59.6335 1484.34 59.6335C1484.91 59.6335 1485.51 59.7012 1486.14 59.8366C1486.78 59.9659 1487.38 60.206 1487.93 60.5568C1488.49 60.9077 1488.95 61.4093 1489.31 62.0618C1489.66 62.7081 1489.84 63.5483 1489.84 64.5824V74H1487.15V72.0611H1487.04C1486.86 72.4181 1486.59 72.7689 1486.23 73.1136C1485.88 73.4583 1485.42 73.7446 1484.86 73.9723C1484.3 74.2 1483.63 74.3139 1482.84 74.3139ZM1483.44 72.098C1484.21 72.098 1484.86 71.9472 1485.4 71.6456C1485.95 71.344 1486.36 70.95 1486.65 70.4638C1486.94 69.9714 1487.08 69.4451 1487.08 68.8849V67.0568C1486.98 67.1553 1486.79 67.2476 1486.51 67.3338C1486.23 67.4138 1485.92 67.4846 1485.56 67.5462C1485.2 67.6016 1484.85 67.6539 1484.52 67.7031C1484.18 67.7462 1483.89 67.7831 1483.67 67.8139C1483.13 67.8816 1482.64 67.9955 1482.2 68.1555C1481.76 68.3156 1481.41 68.5464 1481.15 68.848C1480.89 69.1435 1480.76 69.5374 1480.76 70.0298C1480.76 70.7131 1481.01 71.2301 1481.51 71.581C1482.02 71.9257 1482.66 72.098 1483.44 72.098ZM1493.52 74V59.8182H1496.19V62.071H1496.34C1496.59 61.3078 1497.05 60.7076 1497.7 60.2706C1498.36 59.8274 1499.11 59.6058 1499.94 59.6058C1500.11 59.6058 1500.31 59.612 1500.55 59.6243C1500.79 59.6366 1500.97 59.652 1501.11 59.6705V62.3111C1501 62.2803 1500.8 62.2464 1500.52 62.2095C1500.24 62.1664 1499.95 62.1449 1499.67 62.1449C1499.02 62.1449 1498.43 62.2834 1497.92 62.5604C1497.42 62.8312 1497.02 63.2098 1496.72 63.696C1496.43 64.1761 1496.28 64.724 1496.28 65.3395V74H1493.52ZM1505.67 79.3182C1505.26 79.3182 1504.89 79.2843 1504.55 79.2166C1504.21 79.1551 1503.96 79.0874 1503.79 79.0135L1504.46 76.7514C1504.96 76.8868 1505.41 76.9453 1505.8 76.9268C1506.2 76.9084 1506.55 76.7607 1506.85 76.4837C1507.16 76.2067 1507.43 75.7543 1507.66 75.1264L1508 74.1847L1502.81 59.8182H1505.77L1509.36 70.8239H1509.51L1513.1 59.8182H1516.06L1510.22 75.8928C1509.95 76.6314 1509.6 77.2562 1509.18 77.767C1508.76 78.2841 1508.27 78.6719 1507.69 78.9304C1507.11 79.1889 1506.44 79.3182 1505.67 79.3182Z" fill="#282A36"/>
<path d="M1401.99 126.487C1400.54 126.487 1399.12 126.203 1397.78 125.651C1396.45 125.099 1395.24 124.289 1394.22 123.269C1393.2 122.249 1392.39 121.038 1391.84 119.705C1391.28 118.372 1391 116.943 1391 115.5C1391 114.057 1391.28 112.628 1391.84 111.295C1392.39 109.962 1393.2 108.751 1394.22 107.731C1395.24 106.71 1396.45 105.901 1397.78 105.349C1399.12 104.797 1400.54 104.513 1401.99 104.513C1403.43 104.513 1404.86 104.797 1406.19 105.349C1407.53 105.901 1408.74 106.71 1409.76 107.731C1410.78 108.751 1411.59 109.962 1412.14 111.295C1412.69 112.628 1412.97 114.057 1412.97 115.5C1412.97 116.943 1412.69 118.372 1412.14 119.705C1411.59 121.038 1410.78 122.249 1409.76 123.269C1408.74 124.289 1407.53 125.099 1406.19 125.651C1404.86 126.203 1403.43 126.487 1401.99 126.487V126.487Z" fill="#99A7E8"/>
<path d="M1433.11 111.058C1433.01 110.184 1432.6 109.507 1431.89 109.027C1431.18 108.541 1430.28 108.298 1429.19 108.298C1428.42 108.298 1427.75 108.421 1427.18 108.667C1426.61 108.907 1426.17 109.239 1425.86 109.664C1425.55 110.083 1425.4 110.56 1425.4 111.095C1425.4 111.545 1425.5 111.932 1425.71 112.259C1425.93 112.585 1426.21 112.859 1426.55 113.08C1426.9 113.296 1427.28 113.477 1427.68 113.625C1428.08 113.767 1428.46 113.884 1428.83 113.976L1430.68 114.456C1431.28 114.604 1431.9 114.804 1432.54 115.056C1433.17 115.308 1433.76 115.641 1434.3 116.053C1434.84 116.466 1435.28 116.977 1435.61 117.586C1435.95 118.195 1436.12 118.925 1436.12 119.774C1436.12 120.845 1435.84 121.796 1435.29 122.627C1434.74 123.458 1433.94 124.114 1432.9 124.594C1431.86 125.074 1430.6 125.314 1429.12 125.314C1427.7 125.314 1426.48 125.089 1425.44 124.64C1424.41 124.191 1423.6 123.554 1423.02 122.729C1422.43 121.898 1422.11 120.913 1422.05 119.774H1424.91C1424.96 120.457 1425.19 121.027 1425.57 121.482C1425.97 121.932 1426.47 122.267 1427.08 122.489C1427.69 122.704 1428.37 122.812 1429.1 122.812C1429.91 122.812 1430.62 122.686 1431.25 122.433C1431.89 122.175 1432.38 121.818 1432.75 121.362C1433.11 120.901 1433.29 120.362 1433.29 119.746C1433.29 119.186 1433.13 118.728 1432.81 118.371C1432.5 118.014 1432.07 117.718 1431.53 117.484C1430.99 117.25 1430.39 117.044 1429.71 116.866L1427.48 116.256C1425.96 115.844 1424.76 115.238 1423.88 114.438C1422.99 113.637 1422.55 112.579 1422.55 111.261C1422.55 110.172 1422.85 109.221 1423.44 108.408C1424.03 107.596 1424.83 106.965 1425.84 106.516C1426.85 106.06 1427.99 105.832 1429.26 105.832C1430.54 105.832 1431.67 106.057 1432.65 106.506C1433.63 106.956 1434.41 107.574 1434.97 108.362C1435.54 109.144 1435.83 110.043 1435.86 111.058H1433.11ZM1445.42 125.286C1444.02 125.286 1442.82 124.988 1441.81 124.391C1440.8 123.787 1440.03 122.941 1439.48 121.852C1438.94 120.756 1438.67 119.473 1438.67 118.001C1438.67 116.549 1438.94 115.268 1439.48 114.161C1440.03 113.053 1440.79 112.188 1441.77 111.566C1442.76 110.944 1443.91 110.634 1445.22 110.634C1446.02 110.634 1446.8 110.766 1447.55 111.031C1448.3 111.295 1448.98 111.711 1449.57 112.277C1450.17 112.843 1450.64 113.579 1450.99 114.484C1451.33 115.382 1451.5 116.475 1451.5 117.761V118.74H1440.23V116.672H1448.8C1448.8 115.946 1448.65 115.302 1448.35 114.742C1448.06 114.176 1447.64 113.73 1447.11 113.403C1446.58 113.077 1445.96 112.914 1445.24 112.914C1444.47 112.914 1443.79 113.105 1443.21 113.487C1442.64 113.862 1442.2 114.354 1441.88 114.964C1441.57 115.567 1441.42 116.223 1441.42 116.93V118.546C1441.42 119.494 1441.59 120.3 1441.92 120.965C1442.26 121.63 1442.73 122.138 1443.33 122.489C1443.93 122.833 1444.64 123.006 1445.45 123.006C1445.97 123.006 1446.45 122.932 1446.88 122.784C1447.31 122.63 1447.68 122.402 1447.99 122.101C1448.31 121.799 1448.55 121.427 1448.71 120.984L1451.33 121.455C1451.12 122.224 1450.74 122.898 1450.2 123.477C1449.67 124.049 1448.99 124.495 1448.18 124.815C1447.37 125.129 1446.45 125.286 1445.42 125.286ZM1460.54 125.286C1459.17 125.286 1457.98 124.975 1456.99 124.354C1456.01 123.726 1455.25 122.861 1454.72 121.759C1454.19 120.657 1453.93 119.396 1453.93 117.974C1453.93 116.533 1454.2 115.262 1454.74 114.161C1455.28 113.053 1456.05 112.188 1457.03 111.566C1458.02 110.944 1459.18 110.634 1460.51 110.634C1461.59 110.634 1462.55 110.834 1463.39 111.234C1464.24 111.628 1464.92 112.182 1465.43 112.896C1465.96 113.61 1466.27 114.444 1466.37 115.398H1463.68C1463.53 114.733 1463.19 114.161 1462.66 113.68C1462.14 113.2 1461.44 112.96 1460.56 112.96C1459.79 112.96 1459.11 113.163 1458.54 113.57C1457.96 113.97 1457.52 114.542 1457.2 115.287C1456.88 116.026 1456.72 116.9 1456.72 117.909C1456.72 118.943 1456.87 119.836 1457.19 120.587C1457.5 121.338 1457.94 121.919 1458.52 122.332C1459.1 122.744 1459.78 122.95 1460.56 122.95C1461.08 122.95 1461.55 122.855 1461.98 122.664C1462.41 122.467 1462.77 122.187 1463.06 121.824C1463.36 121.461 1463.56 121.024 1463.68 120.513H1466.37C1466.27 121.43 1465.97 122.249 1465.47 122.969C1464.97 123.689 1464.3 124.255 1463.47 124.668C1462.64 125.08 1461.66 125.286 1460.54 125.286ZM1475.29 125.286C1473.96 125.286 1472.8 124.982 1471.81 124.372C1470.82 123.763 1470.05 122.91 1469.5 121.815C1468.95 120.719 1468.68 119.439 1468.68 117.974C1468.68 116.503 1468.95 115.216 1469.5 114.114C1470.05 113.013 1470.82 112.157 1471.81 111.548C1472.8 110.938 1473.96 110.634 1475.29 110.634C1476.62 110.634 1477.78 110.938 1478.77 111.548C1479.76 112.157 1480.53 113.013 1481.08 114.114C1481.63 115.216 1481.9 116.503 1481.9 117.974C1481.9 119.439 1481.63 120.719 1481.08 121.815C1480.53 122.91 1479.76 123.763 1478.77 124.372C1477.78 124.982 1476.62 125.286 1475.29 125.286ZM1475.3 122.969C1476.16 122.969 1476.88 122.741 1477.44 122.286C1478.01 121.83 1478.43 121.224 1478.7 120.467C1478.98 119.71 1479.11 118.875 1479.11 117.964C1479.11 117.06 1478.98 116.229 1478.7 115.472C1478.43 114.708 1478.01 114.096 1477.44 113.634C1476.88 113.173 1476.16 112.942 1475.3 112.942C1474.43 112.942 1473.71 113.173 1473.14 113.634C1472.57 114.096 1472.15 114.708 1471.88 115.472C1471.6 116.229 1471.47 117.06 1471.47 117.964C1471.47 118.875 1471.6 119.71 1471.88 120.467C1472.15 121.224 1472.57 121.83 1473.14 122.286C1473.71 122.741 1474.43 122.969 1475.3 122.969ZM1487.74 116.58V125H1484.98V110.818H1487.63V113.126H1487.81C1488.14 112.375 1488.65 111.772 1489.34 111.317C1490.04 110.861 1490.93 110.634 1491.99 110.634C1492.96 110.634 1493.8 110.837 1494.53 111.243C1495.26 111.643 1495.82 112.24 1496.22 113.034C1496.62 113.828 1496.82 114.81 1496.82 115.979V125H1494.06V116.312C1494.06 115.284 1493.79 114.481 1493.26 113.902C1492.72 113.317 1491.99 113.025 1491.05 113.025C1490.41 113.025 1489.84 113.163 1489.34 113.44C1488.85 113.717 1488.46 114.124 1488.17 114.659C1487.89 115.188 1487.74 115.829 1487.74 116.58ZM1505.83 125.277C1504.69 125.277 1503.66 124.985 1502.77 124.4C1501.87 123.809 1501.17 122.969 1500.66 121.879C1500.16 120.784 1499.9 119.469 1499.9 117.937C1499.9 116.404 1500.16 115.093 1500.67 114.004C1501.19 112.914 1501.9 112.08 1502.79 111.501C1503.69 110.923 1504.71 110.634 1505.85 110.634C1506.73 110.634 1507.44 110.781 1507.97 111.077C1508.52 111.366 1508.93 111.705 1509.23 112.092C1509.53 112.48 1509.76 112.822 1509.93 113.117H1510.1V106.091H1512.86V125H1510.16V122.793H1509.93C1509.76 123.095 1509.52 123.44 1509.21 123.827C1508.9 124.215 1508.48 124.554 1507.94 124.843C1507.39 125.132 1506.69 125.277 1505.83 125.277ZM1506.44 122.923C1507.23 122.923 1507.91 122.713 1508.45 122.295C1509.01 121.87 1509.43 121.282 1509.71 120.531C1510 119.78 1510.14 118.906 1510.14 117.909C1510.14 116.924 1510 116.062 1509.72 115.324C1509.44 114.585 1509.02 114.01 1508.47 113.597C1507.92 113.185 1507.25 112.979 1506.44 112.979C1505.61 112.979 1504.92 113.194 1504.36 113.625C1503.81 114.056 1503.39 114.644 1503.11 115.388C1502.83 116.133 1502.69 116.973 1502.69 117.909C1502.69 118.857 1502.83 119.71 1503.12 120.467C1503.4 121.224 1503.82 121.824 1504.37 122.267C1504.93 122.704 1505.62 122.923 1506.44 122.923ZM1520.93 125.314C1520.03 125.314 1519.21 125.148 1518.49 124.815C1517.76 124.477 1517.19 123.987 1516.76 123.347C1516.34 122.707 1516.13 121.922 1516.13 120.993C1516.13 120.193 1516.29 119.534 1516.59 119.017C1516.9 118.5 1517.32 118.091 1517.84 117.789C1518.36 117.487 1518.95 117.26 1519.6 117.106C1520.24 116.952 1520.9 116.835 1521.57 116.755C1522.42 116.656 1523.11 116.576 1523.64 116.515C1524.17 116.447 1524.55 116.339 1524.79 116.192C1525.03 116.044 1525.15 115.804 1525.15 115.472V115.407C1525.15 114.601 1524.93 113.976 1524.47 113.533C1524.02 113.089 1523.35 112.868 1522.46 112.868C1521.53 112.868 1520.8 113.074 1520.26 113.487C1519.73 113.893 1519.36 114.345 1519.16 114.844L1516.57 114.253C1516.87 113.391 1517.32 112.696 1517.92 112.166C1518.51 111.631 1519.2 111.243 1519.97 111.003C1520.75 110.757 1521.57 110.634 1522.42 110.634C1522.99 110.634 1523.59 110.701 1524.22 110.837C1524.86 110.966 1525.46 111.206 1526.01 111.557C1526.57 111.908 1527.03 112.409 1527.39 113.062C1527.75 113.708 1527.92 114.548 1527.92 115.582V125H1525.23V123.061H1525.12C1524.94 123.418 1524.67 123.769 1524.31 124.114C1523.96 124.458 1523.5 124.745 1522.94 124.972C1522.38 125.2 1521.71 125.314 1520.93 125.314ZM1521.53 123.098C1522.29 123.098 1522.94 122.947 1523.48 122.646C1524.03 122.344 1524.45 121.95 1524.73 121.464C1525.02 120.971 1525.16 120.445 1525.16 119.885V118.057C1525.06 118.155 1524.87 118.248 1524.59 118.334C1524.31 118.414 1524 118.485 1523.64 118.546C1523.28 118.602 1522.93 118.654 1522.6 118.703C1522.26 118.746 1521.97 118.783 1521.75 118.814C1521.21 118.882 1520.72 118.996 1520.28 119.156C1519.84 119.316 1519.49 119.546 1519.23 119.848C1518.97 120.143 1518.84 120.537 1518.84 121.03C1518.84 121.713 1519.09 122.23 1519.6 122.581C1520.1 122.926 1520.74 123.098 1521.53 123.098ZM1531.6 125V110.818H1534.27V113.071H1534.42C1534.68 112.308 1535.13 111.708 1535.78 111.271C1536.44 110.827 1537.19 110.606 1538.02 110.606C1538.19 110.606 1538.39 110.612 1538.63 110.624C1538.87 110.637 1539.05 110.652 1539.19 110.67V113.311C1539.08 113.28 1538.88 113.246 1538.6 113.21C1538.32 113.166 1538.03 113.145 1537.75 113.145C1537.1 113.145 1536.52 113.283 1536 113.56C1535.5 113.831 1535.1 114.21 1534.8 114.696C1534.51 115.176 1534.36 115.724 1534.36 116.339V125H1531.6ZM1543.76 130.318C1543.34 130.318 1542.97 130.284 1542.63 130.217C1542.29 130.155 1542.04 130.087 1541.87 130.013L1542.54 127.751C1543.04 127.887 1543.49 127.945 1543.89 127.927C1544.28 127.908 1544.63 127.761 1544.93 127.484C1545.24 127.207 1545.51 126.754 1545.74 126.126L1546.08 125.185L1540.89 110.818H1543.85L1547.44 121.824H1547.59L1551.18 110.818H1554.14L1548.3 126.893C1548.03 127.631 1547.68 128.256 1547.26 128.767C1546.85 129.284 1546.35 129.672 1545.77 129.93C1545.19 130.189 1544.52 130.318 1543.76 130.318Z" fill="#282A36"/>
<path d="M41.7827 12.2401H38.902C38.7912 11.6245 38.585 11.0829 38.2834 10.6151C37.9818 10.1473 37.6125 9.75024 37.1754 9.424C36.7384 9.09777 36.2491 8.85156 35.7074 8.68537C35.1719 8.51918 34.6025 8.43608 33.9993 8.43608C32.9098 8.43608 31.9342 8.70999 31.0724 9.25781C30.2169 9.80563 29.5398 10.6089 29.0412 11.6676C28.5488 12.7263 28.3026 14.0189 28.3026 15.5455C28.3026 17.0843 28.5488 18.383 29.0412 19.4418C29.5398 20.5005 30.2199 21.3007 31.0817 21.8423C31.9434 22.384 32.9129 22.6548 33.9901 22.6548C34.5871 22.6548 35.1534 22.5748 35.6889 22.4148C36.2306 22.2486 36.7199 22.0054 37.157 21.6854C37.594 21.3653 37.9633 20.9744 38.2649 20.5128C38.5727 20.045 38.785 19.5095 38.902 18.9062L41.7827 18.9155C41.6288 19.8449 41.3303 20.7005 40.8871 21.4822C40.45 22.2578 39.8868 22.9287 39.1974 23.495C38.5142 24.0552 37.7325 24.4891 36.8523 24.7969C35.9721 25.1046 35.0118 25.2585 33.9716 25.2585C32.3343 25.2585 30.8755 24.8707 29.5952 24.0952C28.3149 23.3134 27.3054 22.1963 26.5668 20.7436C25.8343 19.291 25.468 17.5582 25.468 15.5455C25.468 13.5265 25.8374 11.7938 26.576 10.3473C27.3146 8.89465 28.3241 7.78054 29.6044 7.00497C30.8847 6.22325 32.3404 5.83239 33.9716 5.83239C34.9749 5.83239 35.9105 5.97704 36.7784 6.26634C37.6525 6.54948 38.4373 6.96804 39.1328 7.52202C39.8284 8.06984 40.4039 8.74077 40.8594 9.5348C41.3149 10.3227 41.6226 11.2244 41.7827 12.2401ZM45.1966 25V6.09091H48.0495V22.544H56.6177V25H45.1966ZM72.0321 6.09091H74.8944V18.5277C74.8944 19.8511 74.5835 21.0237 73.9618 22.0455C73.3401 23.0611 72.4661 23.8613 71.3397 24.446C70.2132 25.0246 68.8929 25.3139 67.3787 25.3139C65.8707 25.3139 64.5534 25.0246 63.427 24.446C62.3006 23.8613 61.4266 23.0611 60.8049 22.0455C60.1832 21.0237 59.8723 19.8511 59.8723 18.5277V6.09091H62.7253V18.2969C62.7253 19.1525 62.9131 19.9126 63.2885 20.5774C63.6702 21.2422 64.2087 21.7654 64.9043 22.147C65.5998 22.5225 66.4247 22.7102 67.3787 22.7102C68.339 22.7102 69.1668 22.5225 69.8624 22.147C70.5641 21.7654 71.0996 21.2422 71.4689 20.5774C71.8444 19.9126 72.0321 19.1525 72.0321 18.2969V6.09091ZM89.3555 11.0582C89.257 10.1842 88.8507 9.5071 88.1367 9.02699C87.4227 8.54072 86.524 8.29759 85.4407 8.29759C84.6651 8.29759 83.9942 8.42069 83.4279 8.6669C82.8616 8.90696 82.4215 9.23935 82.1076 9.66406C81.7998 10.0826 81.646 10.5597 81.646 11.0952C81.646 11.5445 81.7506 11.9323 81.9599 12.2585C82.1753 12.5848 82.4554 12.8587 82.8001 13.0803C83.1509 13.2957 83.5264 13.4773 83.9265 13.625C84.3266 13.7666 84.7113 13.8835 85.0806 13.9759L86.9272 14.456C87.5304 14.6037 88.149 14.8037 88.783 15.0561C89.417 15.3085 90.0049 15.6409 90.5465 16.0533C91.0882 16.4657 91.5252 16.9766 91.8576 17.5859C92.1961 18.1953 92.3654 18.9247 92.3654 19.7741C92.3654 20.8452 92.0884 21.7962 91.5344 22.6271C90.9866 23.4581 90.1895 24.1136 89.1431 24.5938C88.1029 25.0739 86.8441 25.3139 85.3668 25.3139C83.9511 25.3139 82.7262 25.0893 81.6921 24.6399C80.658 24.1906 79.8486 23.5535 79.2638 22.7287C78.6791 21.8977 78.3559 20.9129 78.2944 19.7741H81.1566C81.212 20.4574 81.4336 21.0268 81.8214 21.4822C82.2153 21.9316 82.717 22.267 83.3263 22.4886C83.9419 22.7041 84.6159 22.8118 85.3484 22.8118C86.1547 22.8118 86.8718 22.6856 87.4996 22.4332C88.1336 22.1747 88.6322 21.8177 88.9954 21.3622C89.3585 20.9006 89.5401 20.362 89.5401 19.7464C89.5401 19.1863 89.3801 18.7277 89.06 18.3707C88.7461 18.0137 88.3183 17.7183 87.7766 17.4844C87.2411 17.2505 86.6348 17.0443 85.9577 16.8658L83.7234 16.2564C82.2092 15.844 81.0089 15.2377 80.1225 14.4375C79.2423 13.6373 78.8022 12.5786 78.8022 11.2614C78.8022 10.1719 79.0977 9.22088 79.6886 8.40838C80.2795 7.59588 81.0797 6.96496 82.0891 6.51562C83.0986 6.06013 84.2373 5.83239 85.5053 5.83239C86.7856 5.83239 87.9151 6.05705 88.8938 6.50639C89.8787 6.95573 90.6542 7.57434 91.2205 8.36221C91.7868 9.14394 92.0823 10.0426 92.1069 11.0582H89.3555ZM94.8422 8.54687V6.09091H109.476V8.54687H103.577V25H100.733V8.54687H94.8422ZM112.71 25V6.09091H124.565V8.54687H115.563V14.3082H123.947V16.755H115.563V22.544H124.676V25H112.71ZM128.376 25V6.09091H135.116C136.581 6.09091 137.797 6.34328 138.763 6.84801C139.736 7.35275 140.462 8.05137 140.942 8.94389C141.422 9.83026 141.662 10.8551 141.662 12.0185C141.662 13.1757 141.419 14.1944 140.933 15.0746C140.453 15.9486 139.727 16.6288 138.754 17.1151C137.788 17.6013 136.572 17.8445 135.107 17.8445H130.001V15.3885H134.849C135.772 15.3885 136.523 15.2562 137.101 14.9915C137.686 14.7268 138.114 14.3421 138.385 13.8374C138.656 13.3326 138.791 12.7263 138.791 12.0185C138.791 11.3044 138.653 10.6858 138.376 10.1626C138.105 9.63944 137.677 9.23935 137.092 8.96236C136.514 8.67921 135.753 8.53764 134.812 8.53764H131.229V25H128.376ZM137.711 16.4688L142.383 25L139.133 25L134.553 16.4688H137.711ZM155.447 11.0582C155.349 10.1842 154.943 9.5071 154.229 9.02699C153.515 8.54072 152.616 8.29759 151.532 8.29759C150.757 8.29759 150.086 8.42069 149.52 8.6669C148.953 8.90696 148.513 9.23935 148.199 9.66406C147.892 10.0826 147.738 10.5597 147.738 11.0952C147.738 11.5445 147.842 11.9323 148.052 12.2585C148.267 12.5848 148.547 12.8587 148.892 13.0803C149.243 13.2957 149.618 13.4773 150.018 13.625C150.418 13.7666 150.803 13.8835 151.172 13.9759L153.019 14.456C153.622 14.6037 154.241 14.8037 154.875 15.0561C155.509 15.3085 156.097 15.6409 156.638 16.0533C157.18 16.4657 157.617 16.9766 157.949 17.5859C158.288 18.1953 158.457 18.9247 158.457 19.7741C158.457 20.8452 158.18 21.7962 157.626 22.6271C157.078 23.4581 156.281 24.1136 155.235 24.5937C154.195 25.0739 152.936 25.3139 151.459 25.3139C150.043 25.3139 148.818 25.0893 147.784 24.6399C146.75 24.1906 145.94 23.5535 145.356 22.7287C144.771 21.8977 144.448 20.9129 144.386 19.7741H147.248C147.304 20.4574 147.525 21.0268 147.913 21.4822C148.307 21.9316 148.809 22.267 149.418 22.4886C150.034 22.7041 150.708 22.8118 151.44 22.8118C152.247 22.8118 152.964 22.6856 153.591 22.4332C154.225 22.1747 154.724 21.8177 155.087 21.3622C155.45 20.9006 155.632 20.362 155.632 19.7464C155.632 19.1863 155.472 18.7277 155.152 18.3707C154.838 18.0137 154.41 17.7183 153.868 17.4844C153.333 17.2505 152.727 17.0443 152.05 16.8658L149.815 16.2564C148.301 15.844 147.101 15.2377 146.214 14.4375C145.334 13.6373 144.894 12.5786 144.894 11.2614C144.894 10.1719 145.189 9.22088 145.78 8.40838C146.371 7.59588 147.171 6.96496 148.181 6.51562C149.19 6.06013 150.329 5.83239 151.597 5.83239C152.877 5.83239 154.007 6.05705 154.986 6.50639C155.97 6.95573 156.746 7.57434 157.312 8.36221C157.879 9.14394 158.174 10.0426 158.199 11.0582H155.447Z" fill="#A9B4B9"/>
<path d="M1284.08 669V650.091H1295.8V652.547H1286.93V658.308H1294.96V660.755H1286.93V669H1284.08ZM1299.31 669V650.091H1306.05C1307.52 650.091 1308.73 650.343 1309.7 650.848C1310.67 651.353 1311.4 652.051 1311.88 652.944C1312.36 653.83 1312.6 654.855 1312.6 656.018C1312.6 657.176 1312.35 658.194 1311.87 659.075C1311.39 659.949 1310.66 660.629 1309.69 661.115C1308.72 661.601 1307.51 661.844 1306.04 661.844H1300.94V659.388H1305.78C1306.71 659.388 1307.46 659.256 1308.04 658.991C1308.62 658.727 1309.05 658.342 1309.32 657.837C1309.59 657.333 1309.73 656.726 1309.73 656.018C1309.73 655.304 1309.59 654.686 1309.31 654.163C1309.04 653.639 1308.61 653.239 1308.03 652.962C1307.45 652.679 1306.69 652.538 1305.75 652.538H1302.16V669H1299.31ZM1308.65 660.469L1313.32 669H1310.07L1305.49 660.469H1308.65ZM1316.07 669V650.091H1327.92V652.547H1318.92V658.308H1327.31V660.755H1318.92V666.544H1328.04V669H1316.07ZM1338.69 662.869H1341.49L1343.47 665.445L1344.4 666.59L1347.55 670.699H1344.63L1342.53 667.957L1341.81 666.96L1338.69 662.869ZM1348.16 659.545C1348.16 661.564 1347.79 663.3 1347.05 664.753C1346.31 666.199 1345.3 667.313 1344.02 668.095C1342.74 668.871 1341.28 669.259 1339.65 669.259C1338.01 669.259 1336.55 668.871 1335.26 668.095C1333.98 667.313 1332.97 666.196 1332.23 664.744C1331.5 663.291 1331.13 661.558 1331.13 659.545C1331.13 657.527 1331.5 655.794 1332.23 654.347C1332.97 652.895 1333.98 651.781 1335.26 651.005C1336.55 650.223 1338.01 649.832 1339.65 649.832C1341.28 649.832 1342.74 650.223 1344.02 651.005C1345.3 651.781 1346.31 652.895 1347.05 654.347C1347.79 655.794 1348.16 657.527 1348.16 659.545ZM1345.34 659.545C1345.34 658.007 1345.09 656.711 1344.59 655.658C1344.1 654.6 1343.42 653.799 1342.56 653.258C1341.7 652.71 1340.73 652.436 1339.65 652.436C1338.56 652.436 1337.59 652.71 1336.73 653.258C1335.88 653.799 1335.2 654.6 1334.7 655.658C1334.21 656.711 1333.96 658.007 1333.96 659.545C1333.96 661.084 1334.21 662.383 1334.7 663.442C1335.2 664.494 1335.88 665.295 1336.73 665.842C1337.59 666.384 1338.56 666.655 1339.65 666.655C1340.73 666.655 1341.7 666.384 1342.56 665.842C1343.42 665.295 1344.1 664.494 1344.59 663.442C1345.09 662.383 1345.34 661.084 1345.34 659.545ZM1363.88 650.091H1366.74V662.528C1366.74 663.851 1366.43 665.024 1365.81 666.045C1365.19 667.061 1364.31 667.861 1363.19 668.446C1362.06 669.025 1360.74 669.314 1359.22 669.314C1357.72 669.314 1356.4 669.025 1355.27 668.446C1354.15 667.861 1353.27 667.061 1352.65 666.045C1352.03 665.024 1351.72 663.851 1351.72 662.528V650.091H1354.57V662.297C1354.57 663.152 1354.76 663.913 1355.13 664.577C1355.52 665.242 1356.05 665.765 1356.75 666.147C1357.45 666.522 1358.27 666.71 1359.22 666.71C1360.18 666.71 1361.01 666.522 1361.71 666.147C1362.41 665.765 1362.95 665.242 1363.31 664.577C1363.69 663.913 1363.88 663.152 1363.88 662.297V650.091ZM1370.89 669V650.091H1382.74V652.547H1373.74V658.308H1382.12V660.755H1373.74V666.544H1382.85V669H1370.89ZM1401.82 650.091V669H1399.19L1389.58 655.132H1389.41V669H1386.55V650.091H1389.19L1398.82 663.977H1398.99V650.091H1401.82ZM1421.68 656.24H1418.8C1418.69 655.625 1418.49 655.083 1418.18 654.615C1417.88 654.147 1417.51 653.75 1417.08 653.424C1416.64 653.098 1416.15 652.852 1415.61 652.685C1415.07 652.519 1414.5 652.436 1413.9 652.436C1412.81 652.436 1411.83 652.71 1410.97 653.258C1410.12 653.806 1409.44 654.609 1408.94 655.668C1408.45 656.726 1408.2 658.019 1408.2 659.545C1408.2 661.084 1408.45 662.383 1408.94 663.442C1409.44 664.5 1410.12 665.301 1410.98 665.842C1411.84 666.384 1412.81 666.655 1413.89 666.655C1414.49 666.655 1415.05 666.575 1415.59 666.415C1416.13 666.249 1416.62 666.005 1417.06 665.685C1417.49 665.365 1417.86 664.974 1418.17 664.513C1418.47 664.045 1418.69 663.509 1418.8 662.906L1421.68 662.915C1421.53 663.845 1421.23 664.701 1420.79 665.482C1420.35 666.258 1419.79 666.929 1419.1 667.495C1418.41 668.055 1417.63 668.489 1416.75 668.797C1415.87 669.105 1414.91 669.259 1413.87 669.259C1412.23 669.259 1410.78 668.871 1409.5 668.095C1408.22 667.313 1407.21 666.196 1406.47 664.744C1405.73 663.291 1405.37 661.558 1405.37 659.545C1405.37 657.527 1405.74 655.794 1406.48 654.347C1407.22 652.895 1408.22 651.781 1409.5 651.005C1410.79 650.223 1412.24 649.832 1413.87 649.832C1414.88 649.832 1415.81 649.977 1416.68 650.266C1417.55 650.549 1418.34 650.968 1419.03 651.522C1419.73 652.07 1420.3 652.741 1420.76 653.535C1421.22 654.323 1421.52 655.224 1421.68 656.24ZM1423.64 650.091H1426.88L1431.82 658.687H1432.02L1436.96 650.091H1440.2L1433.34 661.577V669H1430.5V661.577L1423.64 650.091Z" fill="#A9B4B9"/>
</g>
<defs>
<clipPath id="clip0_417_2807">
<rect width="1555.17" height="733.854" fill="white" transform="translate(0.831055)"/>
</clipPath>
</defs>
</svg>
