<svg width="2426" height="1687" viewBox="0 0 2426 1687" fill="none" xmlns="http://www.w3.org/2000/svg">
<g clip-path="url(#clip0_249_1798)">
<rect width="2426" height="1687" fill="white"/>
<rect x="510" y="699" width="110" height="112" rx="31" fill="#DEDEDE"/>
<rect x="687" y="699" width="111" height="112" rx="31" fill="#DEDEDE"/>
<rect x="865" y="699" width="109" height="112" rx="31" fill="#DEDEDE"/>
<rect x="459" y="1092" width="565" height="595" rx="74" fill="#EBEBEB"/>
<rect x="459" y="1557" width="565" height="130" rx="65" fill="#DEDEDE"/>
<rect width="2186.96" height="483.312" rx="28" transform="matrix(1 0 0.000623831 1 115.793 254.974)" fill="#EBEBEB"/>
<rect x="458.5" y="471.5" width="565" height="167" rx="83.5" fill="#005EA3" stroke="#005EA3"/>
<rect x="547" y="864" width="389" height="63" rx="21" fill="#DEDEDE"/>
<path fill-rule="evenodd" clip-rule="evenodd" d="M689.757 63.7934C691.678 59.8194 692.753 55.3772 692.753 50.6894C692.753 33.7401 678.707 20 661.381 20C644.056 20 630.01 33.7401 630.01 50.6894C630.01 56.6097 631.724 62.1385 634.692 66.8269L127.828 94.7495L129.382 125.603L1195.73 66.8589L1194.18 36.0056L689.757 63.7934Z" fill="#FF8E2D"/>
<path fill-rule="evenodd" clip-rule="evenodd" d="M1741.59 63.7934C1739.67 59.8194 1738.59 55.3772 1738.59 50.6894C1738.59 33.7401 1752.64 20 1769.96 20C1787.29 20 1801.33 33.7401 1801.33 50.6894C1801.33 56.6097 1799.62 62.1385 1796.65 66.8269L2303.52 94.7495L2301.96 125.603L1235.61 66.8589L1237.17 36.0056L1741.59 63.7934Z" fill="#FF8E2D"/>
<rect x="1054.21" y="699.259" width="310.986" height="321.898" rx="28" fill="#EBEBEB"/>
<rect x="1086.94" y="531.49" width="245.515" height="328.718" rx="10" fill="#005EA3"/>
<rect x="1100.58" y="902.491" width="218.236" height="15.0037" rx="7.50185" fill="#DADADA"/>
<rect x="1141.5" y="882.031" width="54.5589" height="54.5589" rx="20" fill="#005EA3"/>
<rect x="426.781" y="317.037" width="244.151" height="118.666" rx="15" transform="rotate(-9.24987 426.781 317.037)" fill="#FF8E2D"/>
<rect x="443.879" y="362.621" width="21.8236" height="21.8236" rx="10.9118" transform="rotate(-9.24987 443.879 362.621)" fill="#EBEBEB"/>
<rect width="2.72795" height="30.0074" rx="1.36397" transform="matrix(-0.986997 0.16074 0.16074 0.986997 664.008 322.626)" fill="#EBEBEB"/>
<path d="M1 210C274.492 190 751.856 150 1213 150C1674.14 150 2152.01 190 2425 210" stroke="#BDBBBB" stroke-width="7"/>
<rect x="426" y="189.484" width="214.445" height="11.8843" rx="5.94217" transform="rotate(-2.80243 426 189.484)" fill="#005EA3"/>
<circle cx="1208.5" cy="996.5" r="47.5" fill="white" stroke="#005EA3" stroke-width="10"/>
<circle cx="1208.5" cy="702.5" r="47.5" fill="white" stroke="#005EA3" stroke-width="10"/>
<circle cx="739.5" cy="555.5" r="47.5" fill="white" stroke="#005EA3" stroke-width="10"/>
<circle cx="532.5" cy="106.5" r="47.5" fill="white" stroke="#005EA3" stroke-width="10"/>
<circle cx="556.5" cy="356.5" r="47.5" fill="white" stroke="#FF8E2D" stroke-width="10"/>
<circle cx="742.5" cy="1334.5" r="47.5" fill="white" stroke="#BDBBBB" stroke-width="10"/>
<circle cx="1103.5" cy="52.5" r="47.5" fill="white" stroke="#FF8E2D" stroke-width="10"/>
<circle cx="745.5" cy="895.5" r="47.5" fill="white" stroke="#BDBBBB" stroke-width="10"/>
<circle cx="834.5" cy="801.5" r="47.5" fill="white" stroke="#BDBBBB" stroke-width="10"/>
<circle cx="99.5" cy="201.5" r="47.5" fill="white" stroke="#BDBBBB" stroke-width="10"/>
<path d="M1195.92 1019L1214.01 983.205V982.906H1192.94V975.364H1223.56V983.013L1205.45 1019H1195.92Z" fill="#005EA3"/>
<path d="M1208.98 725.597C1206.74 725.582 1204.57 725.206 1202.48 724.467C1200.41 723.729 1198.55 722.528 1196.9 720.866C1195.25 719.205 1193.94 717.003 1192.98 714.261C1192.03 711.52 1191.55 708.153 1191.55 704.162C1191.56 700.497 1191.98 697.223 1192.81 694.339C1193.65 691.442 1194.84 688.984 1196.39 686.967C1197.95 684.95 1199.82 683.416 1201.99 682.365C1204.16 681.3 1206.6 680.767 1209.3 680.767C1212.21 680.767 1214.78 681.335 1217.01 682.472C1219.24 683.594 1221.03 685.121 1222.38 687.053C1223.75 688.984 1224.57 691.151 1224.85 693.551H1215.75C1215.4 692.031 1214.65 690.838 1213.52 689.972C1212.38 689.105 1210.98 688.672 1209.3 688.672C1206.46 688.672 1204.3 689.908 1202.82 692.379C1201.36 694.851 1200.61 698.21 1200.58 702.457H1200.88C1201.54 701.165 1202.42 700.064 1203.52 699.155C1204.65 698.232 1205.92 697.528 1207.34 697.045C1208.77 696.548 1210.29 696.3 1211.88 696.3C1214.46 696.3 1216.76 696.911 1218.78 698.132C1220.8 699.339 1222.39 701.001 1223.55 703.118C1224.72 705.234 1225.3 707.656 1225.3 710.384C1225.3 713.338 1224.61 715.966 1223.23 718.267C1221.87 720.568 1219.96 722.372 1217.5 723.679C1215.06 724.972 1212.22 725.611 1208.98 725.597ZM1208.94 718.352C1210.36 718.352 1211.63 718.011 1212.75 717.33C1213.87 716.648 1214.75 715.724 1215.39 714.56C1216.03 713.395 1216.35 712.088 1216.35 710.639C1216.35 709.19 1216.03 707.891 1215.39 706.74C1214.77 705.589 1213.9 704.673 1212.79 703.991C1211.69 703.31 1210.42 702.969 1209 702.969C1207.94 702.969 1206.95 703.168 1206.04 703.565C1205.14 703.963 1204.36 704.517 1203.67 705.227C1203.01 705.937 1202.48 706.761 1202.1 707.699C1201.71 708.622 1201.52 709.609 1201.52 710.661C1201.52 712.067 1201.84 713.352 1202.48 714.517C1203.13 715.682 1204.01 716.612 1205.12 717.308C1206.25 718.004 1207.52 718.352 1208.94 718.352Z" fill="#005EA3"/>
<path d="M740.638 578.597C737.627 578.597 734.942 578.043 732.585 576.935C730.241 575.827 728.38 574.3 727.002 572.354C725.624 570.408 724.907 568.178 724.85 565.663H733.799C733.898 567.354 734.609 568.724 735.93 569.776C737.251 570.827 738.82 571.352 740.638 571.352C742.087 571.352 743.366 571.033 744.474 570.393C745.596 569.74 746.469 568.838 747.094 567.688C747.734 566.523 748.053 565.187 748.053 563.682C748.053 562.148 747.727 560.798 747.073 559.634C746.434 558.469 745.546 557.56 744.41 556.906C743.273 556.253 741.974 555.919 740.511 555.905C739.232 555.905 737.989 556.168 736.782 556.693C735.589 557.219 734.658 557.936 733.991 558.845L725.788 557.375L727.854 534.364H754.531V541.906H735.461L734.332 552.837H734.587C735.354 551.757 736.512 550.862 738.06 550.152C739.609 549.442 741.342 549.087 743.259 549.087C745.887 549.087 748.231 549.705 750.29 550.94C752.35 552.176 753.977 553.874 755.17 556.033C756.363 558.178 756.952 560.649 756.938 563.447C756.952 566.388 756.271 569.001 754.893 571.288C753.529 573.561 751.619 575.351 749.161 576.658C746.718 577.95 743.877 578.597 740.638 578.597Z" fill="#005EA3"/>
<path d="M517.14 126V119.352L532.673 104.97C533.994 103.692 535.102 102.541 535.997 101.518C536.906 100.496 537.595 99.4943 538.064 98.5142C538.532 97.5199 538.767 96.4474 538.767 95.2969C538.767 94.0185 538.476 92.9176 537.893 91.9943C537.311 91.0568 536.515 90.3395 535.507 89.8423C534.498 89.331 533.355 89.0753 532.077 89.0753C530.741 89.0753 529.577 89.3452 528.582 89.8849C527.588 90.4247 526.821 91.1989 526.281 92.2074C525.741 93.2159 525.471 94.4162 525.471 95.8082H516.714C516.714 92.9531 517.361 90.4744 518.653 88.3722C519.946 86.2699 521.757 84.6435 524.086 83.4929C526.416 82.3423 529.101 81.767 532.14 81.767C535.265 81.767 537.986 82.321 540.301 83.429C542.631 84.5227 544.442 86.0426 545.734 87.9886C547.027 89.9347 547.673 92.1648 547.673 94.679C547.673 96.3267 547.346 97.9531 546.693 99.5582C546.054 101.163 544.91 102.946 543.263 104.906C541.615 106.852 539.292 109.189 536.295 111.916L529.925 118.159V118.457H548.248V126H517.14Z" fill="#005EA3"/>
<path d="M539.044 371.33V364.064L557.262 335.364H563.526V345.42H559.819L548.334 363.595V363.936H574.222V371.33H539.044ZM559.989 379V369.114L560.159 365.896V335.364H568.81V379H559.989Z" fill="#FF8E2D"/>
<path d="M728.689 1313.36V1357H719.463V1322.12H719.208L709.215 1328.38V1320.2L720.017 1313.36H728.689ZM756.17 1357.96C752.505 1357.94 749.352 1357.04 746.71 1355.25C744.082 1353.46 742.058 1350.87 740.637 1347.48C739.231 1344.08 738.535 1340 738.549 1335.22C738.549 1330.47 739.252 1326.41 740.658 1323.06C742.079 1319.71 744.103 1317.16 746.731 1315.41C749.373 1313.65 752.519 1312.77 756.17 1312.77C759.82 1312.77 762.96 1313.65 765.587 1315.41C768.229 1317.17 770.261 1319.73 771.681 1323.08C773.102 1326.42 773.805 1330.47 773.79 1335.22C773.79 1340.01 773.08 1344.1 771.66 1347.5C770.254 1350.89 768.237 1353.48 765.609 1355.27C762.981 1357.06 759.835 1357.96 756.17 1357.96ZM756.17 1350.31C758.67 1350.31 760.665 1349.05 762.157 1346.54C763.648 1344.02 764.387 1340.25 764.373 1335.22C764.373 1331.91 764.032 1329.16 763.35 1326.96C762.683 1324.76 761.731 1323.1 760.495 1321.99C759.273 1320.88 757.832 1320.33 756.17 1320.33C753.684 1320.33 751.695 1321.57 750.204 1324.06C748.712 1326.55 747.96 1330.27 747.945 1335.22C747.945 1338.58 748.279 1341.38 748.947 1343.62C749.629 1345.85 750.587 1347.53 751.823 1348.65C753.059 1349.76 754.508 1350.31 756.17 1350.31Z" fill="#BDBBBB"/>
<path d="M1111.34 31.3636V75H1102.12V40.1207H1101.86L1091.87 46.3849V38.2031L1102.67 31.3636H1111.34Z" fill="#FF8E2D"/>
<path d="M745.021 872.767C747.265 872.767 749.424 873.143 751.498 873.896C753.586 874.649 755.447 875.849 757.08 877.497C758.728 879.145 760.028 881.332 760.979 884.06C761.945 886.773 762.435 890.104 762.45 894.053C762.45 897.76 762.031 901.07 761.192 903.982C760.369 906.879 759.183 909.344 757.634 911.375C756.086 913.406 754.218 914.955 752.031 916.02C749.843 917.071 747.4 917.597 744.701 917.597C741.789 917.597 739.218 917.036 736.988 915.913C734.758 914.777 732.961 913.236 731.597 911.29C730.248 909.33 729.431 907.128 729.147 904.685H738.245C738.6 906.276 739.346 907.511 740.482 908.392C741.619 909.259 743.025 909.692 744.701 909.692C747.542 909.692 749.701 908.456 751.178 905.984C752.656 903.499 753.401 900.097 753.415 895.778H753.117C752.464 897.057 751.583 898.158 750.475 899.081C749.367 899.99 748.096 900.693 746.661 901.19C745.241 901.688 743.728 901.936 742.123 901.936C739.552 901.936 737.258 901.332 735.241 900.125C733.224 898.918 731.633 897.256 730.468 895.139C729.303 893.023 728.721 890.608 728.721 887.895C728.707 884.969 729.381 882.362 730.745 880.075C732.109 877.788 734.012 875.999 736.455 874.706C738.913 873.399 741.768 872.753 745.021 872.767ZM745.085 880.011C743.65 880.011 742.371 880.352 741.249 881.034C740.141 881.716 739.261 882.632 738.607 883.783C737.968 884.933 737.656 886.219 737.67 887.639C737.67 889.074 737.982 890.366 738.607 891.517C739.246 892.653 740.113 893.562 741.207 894.244C742.315 894.912 743.579 895.246 744.999 895.246C746.065 895.246 747.052 895.047 747.961 894.649C748.87 894.251 749.658 893.705 750.326 893.009C751.008 892.298 751.54 891.482 751.924 890.558C752.308 889.635 752.499 888.655 752.499 887.618C752.485 886.24 752.158 884.976 751.519 883.825C750.88 882.675 749.999 881.751 748.877 881.055C747.755 880.359 746.491 880.011 745.085 880.011Z" fill="#BDBBBB"/>
<path d="M834.481 824.597C831.2 824.597 828.281 824.064 825.724 822.999C823.182 821.919 821.186 820.449 819.737 818.588C818.288 816.727 817.564 814.618 817.564 812.26C817.564 810.442 817.976 808.773 818.8 807.253C819.638 805.719 820.774 804.447 822.209 803.439C823.643 802.416 825.248 801.763 827.024 801.479V801.18C824.694 800.712 822.805 799.582 821.356 797.793C819.907 795.989 819.183 793.893 819.183 791.507C819.183 789.249 819.844 787.239 821.165 785.477C822.486 783.702 824.297 782.31 826.598 781.301C828.913 780.278 831.541 779.767 834.481 779.767C837.422 779.767 840.042 780.278 842.344 781.301C844.659 782.324 846.477 783.723 847.798 785.499C849.119 787.26 849.787 789.263 849.801 791.507C849.787 793.908 849.048 796.003 847.585 797.793C846.122 799.582 844.247 800.712 841.96 801.18V801.479C843.707 801.763 845.291 802.416 846.711 803.439C848.146 804.447 849.282 805.719 850.121 807.253C850.973 808.773 851.406 810.442 851.42 812.26C851.406 814.618 850.675 816.727 849.226 818.588C847.777 820.449 845.774 821.919 843.217 822.999C840.675 824.064 837.763 824.597 834.481 824.597ZM834.481 817.821C835.944 817.821 837.223 817.558 838.317 817.033C839.41 816.493 840.263 815.754 840.873 814.817C841.498 813.865 841.811 812.771 841.811 811.536C841.811 810.271 841.491 809.156 840.852 808.19C840.213 807.21 839.346 806.443 838.253 805.889C837.159 805.321 835.902 805.037 834.481 805.037C833.075 805.037 831.818 805.321 830.71 805.889C829.602 806.443 828.729 807.21 828.089 808.19C827.464 809.156 827.152 810.271 827.152 811.536C827.152 812.771 827.457 813.865 828.068 814.817C828.679 815.754 829.538 816.493 830.646 817.033C831.754 817.558 833.032 817.821 834.481 817.821ZM834.481 798.325C835.703 798.325 836.79 798.077 837.741 797.58C838.693 797.082 839.439 796.393 839.979 795.513C840.518 794.632 840.788 793.616 840.788 792.466C840.788 791.33 840.518 790.335 839.979 789.483C839.439 788.616 838.7 787.942 837.763 787.459C836.825 786.962 835.731 786.713 834.481 786.713C833.246 786.713 832.152 786.962 831.2 787.459C830.248 787.942 829.503 788.616 828.963 789.483C828.437 790.335 828.175 791.33 828.175 792.466C828.175 793.616 828.444 794.632 828.984 795.513C829.524 796.393 830.27 797.082 831.221 797.58C832.173 798.077 833.26 798.325 834.481 798.325Z" fill="#BDBBBB"/>
<path d="M99.3908 224.597C96.209 224.597 93.3752 224.05 90.8894 222.956C88.4178 221.848 86.4647 220.328 85.03 218.396C83.6096 216.45 82.878 214.206 82.8354 211.663H92.1252C92.182 212.729 92.53 213.666 93.1692 214.476C93.8226 215.271 94.6891 215.889 95.7686 216.33C96.8482 216.77 98.0627 216.99 99.4121 216.99C100.818 216.99 102.061 216.741 103.141 216.244C104.22 215.747 105.066 215.058 105.676 214.178C106.287 213.297 106.593 212.281 106.593 211.131C106.593 209.966 106.266 208.936 105.612 208.041C104.973 207.132 104.05 206.422 102.843 205.911C101.649 205.399 100.229 205.143 98.5811 205.143H94.5115V198.368H98.5811C99.9732 198.368 101.202 198.126 102.267 197.643C103.347 197.161 104.185 196.493 104.781 195.641C105.378 194.774 105.676 193.766 105.676 192.615C105.676 191.521 105.414 190.562 104.888 189.739C104.377 188.901 103.652 188.247 102.715 187.778C101.791 187.31 100.712 187.075 99.476 187.075C98.226 187.075 97.0826 187.303 96.0456 187.757C95.0087 188.197 94.1777 188.83 93.5527 189.653C92.9277 190.477 92.5939 191.443 92.5513 192.551H83.709C83.7516 190.037 84.4689 187.821 85.861 185.903C87.253 183.986 89.128 182.487 91.486 181.408C93.8581 180.314 96.5357 179.767 99.5186 179.767C102.53 179.767 105.165 180.314 107.423 181.408C109.682 182.501 111.436 183.979 112.686 185.839C113.95 187.686 114.575 189.76 114.561 192.061C114.575 194.504 113.816 196.543 112.281 198.176C110.762 199.81 108.78 200.847 106.337 201.287V201.628C109.547 202.04 111.99 203.155 113.666 204.973C115.357 206.777 116.195 209.036 116.181 211.749C116.195 214.234 115.477 216.443 114.029 218.375C112.594 220.307 110.612 221.827 108.084 222.935C105.556 224.043 102.658 224.597 99.3908 224.597Z" fill="#BDBBBB"/>
<circle cx="1544.5" cy="1214.5" r="47.5" fill="#005EA3" stroke="#005EA3" stroke-width="10"/>
<path d="M1636.79 1236.5V1192.86H1646.02V1210.87H1664.75V1192.86H1673.95V1236.5H1664.75V1218.47H1646.02V1236.5H1636.79ZM1696.17 1237.14C1692.87 1237.14 1690 1236.44 1687.59 1235.03C1685.19 1233.61 1683.33 1231.63 1682.03 1229.11C1680.72 1226.56 1680.07 1223.62 1680.07 1220.26C1680.07 1216.88 1680.72 1213.93 1682.03 1211.4C1683.33 1208.86 1685.19 1206.88 1687.59 1205.48C1690 1204.06 1692.87 1203.35 1696.17 1203.35C1699.48 1203.35 1702.34 1204.06 1704.74 1205.48C1707.15 1206.88 1709.02 1208.86 1710.32 1211.4C1711.63 1213.93 1712.28 1216.88 1712.28 1220.26C1712.28 1223.62 1711.63 1226.56 1710.32 1229.11C1709.02 1231.63 1707.15 1233.61 1704.74 1235.03C1702.34 1236.44 1699.48 1237.14 1696.17 1237.14ZM1696.22 1230.11C1697.72 1230.11 1698.98 1229.68 1699.99 1228.83C1701 1227.96 1701.76 1226.78 1702.27 1225.29C1702.79 1223.8 1703.06 1222.1 1703.06 1220.2C1703.06 1218.3 1702.79 1216.6 1702.27 1215.11C1701.76 1213.62 1701 1212.44 1699.99 1211.57C1698.98 1210.7 1697.72 1210.27 1696.22 1210.27C1694.7 1210.27 1693.42 1210.7 1692.38 1211.57C1691.36 1212.44 1690.59 1213.62 1690.06 1215.11C1689.55 1216.6 1689.29 1218.3 1689.29 1220.2C1689.29 1222.1 1689.55 1223.8 1690.06 1225.29C1690.59 1226.78 1691.36 1227.96 1692.38 1228.83C1693.42 1229.68 1694.7 1230.11 1696.22 1230.11ZM1718.18 1236.5V1203.77H1726.98V1209.48H1727.33C1727.92 1207.45 1728.92 1205.92 1730.33 1204.88C1731.74 1203.83 1733.36 1203.3 1735.19 1203.3C1735.64 1203.3 1736.13 1203.33 1736.66 1203.39C1737.18 1203.45 1737.64 1203.52 1738.04 1203.62V1211.68C1737.62 1211.55 1737.03 1211.44 1736.27 1211.34C1735.52 1211.24 1734.83 1211.19 1734.21 1211.19C1732.87 1211.19 1731.68 1211.48 1730.63 1212.06C1729.59 1212.63 1728.77 1213.42 1728.16 1214.45C1727.56 1215.47 1727.26 1216.65 1727.26 1217.98V1236.5H1718.18ZM1742.74 1236.5V1203.77H1751.81V1236.5H1742.74ZM1747.3 1199.55C1745.95 1199.55 1744.79 1199.11 1743.82 1198.21C1742.87 1197.3 1742.39 1196.22 1742.39 1194.95C1742.39 1193.7 1742.87 1192.63 1743.82 1191.73C1744.79 1190.83 1745.95 1190.37 1747.3 1190.37C1748.64 1190.37 1749.8 1190.83 1750.75 1191.73C1751.71 1192.63 1752.2 1193.7 1752.2 1194.95C1752.2 1196.22 1751.71 1197.3 1750.75 1198.21C1749.8 1199.11 1748.64 1199.55 1747.3 1199.55ZM1758.91 1236.5V1231.09L1774.94 1211.25V1211.02H1759.47V1203.77H1785.87V1209.67L1770.82 1229.02V1229.26H1786.42V1236.5H1758.91ZM1807.21 1237.14C1803.9 1237.14 1801.04 1236.44 1798.62 1235.03C1796.22 1233.61 1794.37 1231.63 1793.06 1229.11C1791.76 1226.56 1791.1 1223.62 1791.1 1220.26C1791.1 1216.88 1791.76 1213.93 1793.06 1211.4C1794.37 1208.86 1796.22 1206.88 1798.62 1205.48C1801.04 1204.06 1803.9 1203.35 1807.21 1203.35C1810.52 1203.35 1813.37 1204.06 1815.78 1205.48C1818.19 1206.88 1820.05 1208.86 1821.36 1211.4C1822.66 1213.93 1823.32 1216.88 1823.32 1220.26C1823.32 1223.62 1822.66 1226.56 1821.36 1229.11C1820.05 1231.63 1818.19 1233.61 1815.78 1235.03C1813.37 1236.44 1810.52 1237.14 1807.21 1237.14ZM1807.25 1230.11C1808.76 1230.11 1810.02 1229.68 1811.02 1228.83C1812.03 1227.96 1812.79 1226.78 1813.3 1225.29C1813.83 1223.8 1814.09 1222.1 1814.09 1220.2C1814.09 1218.3 1813.83 1216.6 1813.3 1215.11C1812.79 1213.62 1812.03 1212.44 1811.02 1211.57C1810.02 1210.7 1808.76 1210.27 1807.25 1210.27C1805.73 1210.27 1804.45 1210.7 1803.42 1211.57C1802.39 1212.44 1801.62 1213.62 1801.09 1215.11C1800.58 1216.6 1800.33 1218.3 1800.33 1220.2C1800.33 1222.1 1800.58 1223.8 1801.09 1225.29C1801.62 1226.78 1802.39 1227.96 1803.42 1228.83C1804.45 1229.68 1805.73 1230.11 1807.25 1230.11ZM1838.3 1217.58V1236.5H1829.22V1203.77H1837.87V1209.55H1838.25C1838.98 1207.64 1840.19 1206.14 1841.9 1205.03C1843.6 1203.91 1845.67 1203.35 1848.1 1203.35C1850.37 1203.35 1852.35 1203.84 1854.04 1204.84C1855.73 1205.83 1857.05 1207.25 1857.98 1209.1C1858.92 1210.93 1859.39 1213.12 1859.39 1215.66V1236.5H1850.31V1217.28C1850.33 1215.28 1849.82 1213.72 1848.78 1212.59C1847.74 1211.46 1846.31 1210.89 1844.5 1210.89C1843.28 1210.89 1842.2 1211.15 1841.26 1211.68C1840.33 1212.2 1839.61 1212.97 1839.08 1213.98C1838.57 1214.97 1838.31 1216.17 1838.3 1217.58ZM1904.27 1205.41C1904.1 1203.69 1903.37 1202.36 1902.08 1201.41C1900.79 1200.46 1899.03 1199.98 1896.82 1199.98C1895.31 1199.98 1894.04 1200.19 1893 1200.62C1891.96 1201.03 1891.17 1201.61 1890.62 1202.35C1890.08 1203.08 1889.81 1203.92 1889.81 1204.86C1889.78 1205.64 1889.94 1206.32 1890.3 1206.9C1890.67 1207.49 1891.17 1207.99 1891.81 1208.42C1892.45 1208.83 1893.19 1209.19 1894.02 1209.5C1894.86 1209.8 1895.76 1210.06 1896.71 1210.27L1900.63 1211.21C1902.53 1211.63 1904.28 1212.2 1905.87 1212.91C1907.46 1213.62 1908.84 1214.5 1910 1215.53C1911.17 1216.57 1912.07 1217.79 1912.71 1219.2C1913.36 1220.61 1913.7 1222.22 1913.71 1224.04C1913.7 1226.71 1913.02 1229.02 1911.67 1230.98C1910.33 1232.93 1908.4 1234.44 1905.87 1235.52C1903.36 1236.59 1900.32 1237.12 1896.77 1237.12C1893.25 1237.12 1890.18 1236.58 1887.57 1235.5C1884.97 1234.42 1882.94 1232.82 1881.47 1230.7C1880.03 1228.57 1879.27 1225.94 1879.19 1222.8H1888.12C1888.22 1224.26 1888.64 1225.48 1889.38 1226.46C1890.13 1227.43 1891.13 1228.16 1892.38 1228.66C1893.65 1229.14 1895.08 1229.38 1896.67 1229.38C1898.23 1229.38 1899.59 1229.16 1900.74 1228.7C1901.9 1228.25 1902.8 1227.62 1903.44 1226.81C1904.08 1226 1904.4 1225.07 1904.4 1224.01C1904.4 1223.03 1904.11 1222.21 1903.53 1221.54C1902.96 1220.87 1902.12 1220.31 1901.01 1219.84C1899.92 1219.37 1898.58 1218.94 1896.99 1218.56L1892.23 1217.37C1888.56 1216.47 1885.65 1215.07 1883.52 1213.17C1881.39 1211.27 1880.33 1208.7 1880.35 1205.48C1880.33 1202.84 1881.03 1200.53 1882.45 1198.55C1883.89 1196.58 1885.86 1195.04 1888.36 1193.93C1890.86 1192.82 1893.7 1192.27 1896.88 1192.27C1900.12 1192.27 1902.94 1192.82 1905.36 1193.93C1907.79 1195.04 1909.68 1196.58 1911.03 1198.55C1912.38 1200.53 1913.07 1202.81 1913.12 1205.41H1904.27ZM1925.35 1248.77C1924.2 1248.77 1923.12 1248.68 1922.11 1248.5C1921.12 1248.33 1920.29 1248.11 1919.64 1247.84L1921.69 1241.06C1922.75 1241.39 1923.71 1241.56 1924.56 1241.59C1925.43 1241.62 1926.17 1241.42 1926.8 1241C1927.44 1240.57 1927.96 1239.85 1928.36 1238.82L1928.89 1237.44L1917.15 1203.77H1926.69L1933.47 1227.81H1933.81L1940.65 1203.77H1950.26L1937.54 1240.04C1936.93 1241.8 1936.1 1243.33 1935.05 1244.64C1934.01 1245.96 1932.69 1246.98 1931.1 1247.69C1929.51 1248.41 1927.6 1248.77 1925.35 1248.77ZM1982.13 1213.11L1973.82 1213.62C1973.68 1212.91 1973.38 1212.27 1972.91 1211.7C1972.44 1211.12 1971.82 1210.65 1971.05 1210.31C1970.3 1209.96 1969.4 1209.78 1968.35 1209.78C1966.94 1209.78 1965.76 1210.08 1964.79 1210.68C1963.82 1211.26 1963.34 1212.04 1963.34 1213.02C1963.34 1213.8 1963.65 1214.46 1964.28 1215C1964.9 1215.54 1965.98 1215.97 1967.5 1216.3L1973.42 1217.49C1976.6 1218.15 1978.97 1219.2 1980.54 1220.65C1982.1 1222.1 1982.88 1224 1982.88 1226.36C1982.88 1228.5 1982.25 1230.38 1980.98 1232C1979.73 1233.62 1978.01 1234.89 1975.83 1235.8C1973.65 1236.69 1971.15 1237.14 1968.31 1237.14C1963.97 1237.14 1960.52 1236.24 1957.95 1234.43C1955.39 1232.62 1953.89 1230.14 1953.45 1227.02L1962.38 1226.55C1962.65 1227.87 1963.31 1228.88 1964.34 1229.58C1965.38 1230.26 1966.71 1230.6 1968.33 1230.6C1969.92 1230.6 1971.2 1230.29 1972.16 1229.68C1973.14 1229.06 1973.64 1228.25 1973.65 1227.27C1973.64 1226.45 1973.29 1225.78 1972.61 1225.25C1971.93 1224.71 1970.88 1224.3 1969.46 1224.01L1963.79 1222.88C1960.59 1222.25 1958.21 1221.14 1956.65 1219.56C1955.1 1217.98 1954.33 1215.97 1954.33 1213.53C1954.33 1211.43 1954.9 1209.62 1956.03 1208.1C1957.18 1206.58 1958.8 1205.41 1960.87 1204.58C1962.96 1203.76 1965.4 1203.35 1968.2 1203.35C1972.33 1203.35 1975.59 1204.22 1977.96 1205.97C1980.34 1207.71 1981.74 1210.09 1982.13 1213.11ZM2006 1203.77V1210.59H1986.29V1203.77H2006ZM1990.77 1195.93H1999.84V1226.44C1999.84 1227.28 1999.97 1227.93 2000.23 1228.4C2000.48 1228.86 2000.84 1229.18 2001.29 1229.36C2001.76 1229.55 2002.3 1229.64 2002.91 1229.64C2003.34 1229.64 2003.77 1229.6 2004.19 1229.53C2004.62 1229.45 2004.94 1229.38 2005.17 1229.34L2006.6 1236.1C2006.14 1236.24 2005.51 1236.4 2004.68 1236.59C2003.86 1236.78 2002.86 1236.9 2001.68 1236.95C1999.49 1237.03 1997.57 1236.74 1995.92 1236.07C1994.29 1235.41 1993.02 1234.37 1992.11 1232.96C1991.2 1231.56 1990.75 1229.78 1990.77 1227.64V1195.93ZM2026.48 1237.14C2023.11 1237.14 2020.21 1236.46 2017.79 1235.09C2015.37 1233.72 2013.51 1231.77 2012.2 1229.26C2010.9 1226.73 2010.24 1223.74 2010.24 1220.29C2010.24 1216.92 2010.9 1213.96 2012.2 1211.42C2013.51 1208.88 2015.35 1206.9 2017.72 1205.48C2020.11 1204.06 2022.91 1203.35 2026.12 1203.35C2028.28 1203.35 2030.29 1203.69 2032.15 1204.39C2034.02 1205.07 2035.65 1206.1 2037.05 1207.48C2038.45 1208.86 2039.55 1210.59 2040.33 1212.68C2041.11 1214.75 2041.5 1217.18 2041.5 1219.97V1222.46H2013.86V1216.83H2032.96C2032.96 1215.53 2032.67 1214.37 2032.1 1213.36C2031.54 1212.35 2030.75 1211.56 2029.74 1211C2028.74 1210.41 2027.59 1210.12 2026.27 1210.12C2024.89 1210.12 2023.67 1210.44 2022.6 1211.08C2021.55 1211.71 2020.73 1212.55 2020.13 1213.62C2019.53 1214.67 2019.23 1215.84 2019.21 1217.13V1222.48C2019.21 1224.1 2019.51 1225.5 2020.11 1226.68C2020.72 1227.86 2021.58 1228.77 2022.69 1229.4C2023.79 1230.04 2025.11 1230.36 2026.63 1230.36C2027.64 1230.36 2028.56 1230.22 2029.4 1229.94C2030.24 1229.65 2030.95 1229.23 2031.55 1228.66C2032.15 1228.09 2032.6 1227.39 2032.91 1226.57L2041.31 1227.12C2040.88 1229.14 2040.01 1230.9 2038.69 1232.41C2037.38 1233.9 2035.69 1235.07 2033.62 1235.9C2031.56 1236.73 2029.18 1237.14 2026.48 1237.14ZM2047.42 1236.5V1203.77H2056.07V1209.55H2056.46C2057.14 1207.63 2058.28 1206.12 2059.87 1205.01C2061.46 1203.9 2063.36 1203.35 2065.58 1203.35C2067.82 1203.35 2069.73 1203.91 2071.31 1205.03C2072.88 1206.14 2073.94 1207.64 2074.46 1209.55H2074.8C2075.47 1207.67 2076.68 1206.17 2078.42 1205.05C2080.19 1203.91 2082.27 1203.35 2084.67 1203.35C2087.72 1203.35 2090.2 1204.32 2092.1 1206.27C2094.02 1208.2 2094.98 1210.94 2094.98 1214.49V1236.5H2085.92V1216.28C2085.92 1214.46 2085.44 1213.1 2084.48 1212.19C2083.51 1211.28 2082.3 1210.83 2080.85 1210.83C2079.21 1210.83 2077.92 1211.35 2077 1212.4C2076.07 1213.44 2075.61 1214.81 2075.61 1216.51V1236.5H2066.81V1216.09C2066.81 1214.48 2066.35 1213.2 2065.43 1212.25C2064.52 1211.3 2063.32 1210.83 2061.83 1210.83C2060.82 1210.83 2059.91 1211.08 2059.1 1211.59C2058.3 1212.09 2057.67 1212.79 2057.2 1213.7C2056.73 1214.6 2056.5 1215.65 2056.5 1216.86V1236.5H2047.42Z" fill="black"/>
<circle cx="1544.5" cy="1389.5" r="47.5" fill="#FF8E2D" stroke="#FF8E2D" stroke-width="10"/>
<path d="M1660.46 1379.91C1660.29 1378.19 1659.56 1376.86 1658.27 1375.91C1656.98 1374.96 1655.22 1374.48 1653.01 1374.48C1651.5 1374.48 1650.23 1374.69 1649.19 1375.12C1648.16 1375.53 1647.36 1376.11 1646.81 1376.85C1646.27 1377.58 1646 1378.42 1646 1379.36C1645.97 1380.14 1646.13 1380.82 1646.49 1381.4C1646.86 1381.99 1647.36 1382.49 1648 1382.92C1648.64 1383.33 1649.38 1383.69 1650.22 1384C1651.05 1384.3 1651.95 1384.56 1652.9 1384.77L1656.82 1385.71C1658.72 1386.13 1660.47 1386.7 1662.06 1387.41C1663.65 1388.12 1665.03 1389 1666.2 1390.03C1667.36 1391.07 1668.26 1392.29 1668.9 1393.7C1669.56 1395.11 1669.89 1396.72 1669.9 1398.54C1669.89 1401.21 1669.21 1403.52 1667.86 1405.48C1666.52 1407.43 1664.59 1408.94 1662.06 1410.02C1659.55 1411.09 1656.52 1411.62 1652.96 1411.62C1649.44 1411.62 1646.37 1411.08 1643.76 1410C1641.16 1408.92 1639.13 1407.32 1637.67 1405.2C1636.22 1403.07 1635.46 1400.44 1635.39 1397.3H1644.31C1644.41 1398.76 1644.83 1399.98 1645.57 1400.96C1646.32 1401.93 1647.33 1402.66 1648.58 1403.16C1649.84 1403.64 1651.27 1403.88 1652.86 1403.88C1654.42 1403.88 1655.78 1403.66 1656.93 1403.2C1658.09 1402.75 1658.99 1402.12 1659.63 1401.31C1660.27 1400.5 1660.59 1399.57 1660.59 1398.51C1660.59 1397.53 1660.3 1396.71 1659.72 1396.04C1659.15 1395.37 1658.31 1394.81 1657.2 1394.34C1656.11 1393.87 1654.77 1393.44 1653.18 1393.06L1648.43 1391.87C1644.75 1390.97 1641.84 1389.57 1639.71 1387.67C1637.58 1385.77 1636.52 1383.2 1636.54 1379.98C1636.52 1377.34 1637.23 1375.03 1638.65 1373.05C1640.08 1371.08 1642.05 1369.54 1644.55 1368.43C1647.05 1367.32 1649.89 1366.77 1653.07 1366.77C1656.31 1366.77 1659.14 1367.32 1661.55 1368.43C1663.98 1369.54 1665.87 1371.08 1667.22 1373.05C1668.57 1375.03 1669.26 1377.31 1669.31 1379.91H1660.46ZM1675.94 1411V1378.27H1685.02V1411H1675.94ZM1680.5 1374.05C1679.15 1374.05 1677.99 1373.61 1677.03 1372.71C1676.07 1371.8 1675.6 1370.72 1675.6 1369.45C1675.6 1368.2 1676.07 1367.13 1677.03 1366.23C1677.99 1365.33 1679.15 1364.87 1680.5 1364.87C1681.85 1364.87 1683 1365.33 1683.95 1366.23C1684.92 1367.13 1685.4 1368.2 1685.4 1369.45C1685.4 1370.72 1684.92 1371.8 1683.95 1372.71C1683 1373.61 1681.85 1374.05 1680.5 1374.05ZM1692.29 1411V1378.27H1700.94V1384.05H1701.32C1702 1382.13 1703.14 1380.62 1704.73 1379.51C1706.32 1378.4 1708.22 1377.85 1710.44 1377.85C1712.68 1377.85 1714.59 1378.41 1716.17 1379.53C1717.75 1380.64 1718.8 1382.14 1719.32 1384.05H1719.67C1720.33 1382.17 1721.54 1380.67 1723.29 1379.55C1725.05 1378.41 1727.13 1377.85 1729.53 1377.85C1732.58 1377.85 1735.06 1378.82 1736.97 1380.77C1738.88 1382.7 1739.84 1385.44 1739.84 1388.99V1411H1730.79V1390.78C1730.79 1388.96 1730.3 1387.6 1729.34 1386.69C1728.37 1385.78 1727.17 1385.33 1725.72 1385.33C1724.07 1385.33 1722.78 1385.85 1721.86 1386.9C1720.94 1387.94 1720.48 1389.31 1720.48 1391.01V1411H1711.68V1390.59C1711.68 1388.98 1711.21 1387.7 1710.29 1386.75C1709.38 1385.8 1708.18 1385.33 1706.69 1385.33C1705.68 1385.33 1704.77 1385.58 1703.96 1386.09C1703.17 1386.59 1702.53 1387.29 1702.07 1388.2C1701.6 1389.1 1701.36 1390.15 1701.36 1391.36V1411H1692.29ZM1768 1397.07V1378.27H1777.08V1411H1768.36V1405.06H1768.02C1767.28 1406.97 1766.05 1408.51 1764.34 1409.68C1762.63 1410.84 1760.55 1411.43 1758.09 1411.43C1755.9 1411.43 1753.98 1410.93 1752.32 1409.93C1750.66 1408.94 1749.36 1407.53 1748.42 1405.69C1747.5 1403.86 1747.03 1401.67 1747.01 1399.11V1378.27H1756.09V1397.49C1756.1 1399.42 1756.62 1400.95 1757.64 1402.07C1758.67 1403.19 1760.04 1403.76 1761.76 1403.76C1762.85 1403.76 1763.87 1403.51 1764.83 1403.01C1765.78 1402.5 1766.54 1401.75 1767.13 1400.75C1767.72 1399.76 1768.01 1398.53 1768 1397.07ZM1793.41 1367.36V1411H1784.34V1367.36H1793.41ZM1810.02 1411.62C1807.93 1411.62 1806.07 1411.26 1804.43 1410.53C1802.8 1409.79 1801.51 1408.71 1800.56 1407.27C1799.62 1405.82 1799.15 1404.02 1799.15 1401.86C1799.15 1400.04 1799.48 1398.51 1800.15 1397.28C1800.82 1396.04 1801.73 1395.05 1802.88 1394.3C1804.03 1393.54 1805.34 1392.97 1806.8 1392.59C1808.28 1392.21 1809.83 1391.94 1811.44 1391.78C1813.35 1391.58 1814.88 1391.4 1816.05 1391.23C1817.21 1391.04 1818.06 1390.77 1818.58 1390.42C1819.11 1390.06 1819.37 1389.54 1819.37 1388.84V1388.71C1819.37 1387.36 1818.94 1386.32 1818.09 1385.58C1817.25 1384.84 1816.06 1384.47 1814.51 1384.47C1812.88 1384.47 1811.58 1384.84 1810.61 1385.56C1809.65 1386.27 1809.01 1387.16 1808.7 1388.24L1800.3 1387.56C1800.73 1385.57 1801.57 1383.86 1802.82 1382.41C1804.07 1380.94 1805.68 1379.82 1807.65 1379.04C1809.64 1378.24 1811.94 1377.85 1814.56 1377.85C1816.37 1377.85 1818.11 1378.06 1819.78 1378.49C1821.45 1378.91 1822.94 1379.57 1824.23 1380.47C1825.54 1381.36 1826.57 1382.51 1827.32 1383.92C1828.07 1385.31 1828.45 1386.98 1828.45 1388.93V1411H1819.84V1406.46H1819.58C1819.06 1407.48 1818.36 1408.39 1817.47 1409.17C1816.59 1409.93 1815.54 1410.54 1814.3 1410.98C1813.06 1411.4 1811.64 1411.62 1810.02 1411.62ZM1812.62 1405.35C1813.95 1405.35 1815.13 1405.09 1816.15 1404.57C1817.18 1404.03 1817.98 1403.3 1818.56 1402.39C1819.14 1401.48 1819.43 1400.45 1819.43 1399.3V1395.83C1819.15 1396.01 1818.76 1396.18 1818.26 1396.34C1817.78 1396.48 1817.23 1396.62 1816.62 1396.75C1816.01 1396.86 1815.4 1396.97 1814.79 1397.07C1814.18 1397.15 1813.62 1397.23 1813.13 1397.3C1812.06 1397.46 1811.13 1397.7 1810.34 1398.05C1809.54 1398.39 1808.92 1398.85 1808.48 1399.43C1808.04 1400 1807.82 1400.71 1807.82 1401.56C1807.82 1402.8 1808.27 1403.74 1809.16 1404.39C1810.07 1405.03 1811.22 1405.35 1812.62 1405.35ZM1852.9 1378.27V1385.09H1833.19V1378.27H1852.9ZM1837.66 1370.43H1846.74V1400.94C1846.74 1401.78 1846.87 1402.43 1847.12 1402.9C1847.38 1403.36 1847.73 1403.68 1848.19 1403.86C1848.66 1404.05 1849.2 1404.14 1849.81 1404.14C1850.23 1404.14 1850.66 1404.1 1851.09 1404.03C1851.51 1403.95 1851.84 1403.88 1852.07 1403.84L1853.49 1410.6C1853.04 1410.74 1852.4 1410.9 1851.58 1411.09C1850.75 1411.28 1849.75 1411.4 1848.57 1411.45C1846.38 1411.53 1844.47 1411.24 1842.82 1410.57C1841.19 1409.91 1839.91 1408.87 1839 1407.46C1838.1 1406.06 1837.65 1404.28 1837.66 1402.14V1370.43ZM1858.81 1411V1378.27H1867.89V1411H1858.81ZM1863.37 1374.05C1862.02 1374.05 1860.86 1373.61 1859.9 1372.71C1858.94 1371.8 1858.47 1370.72 1858.47 1369.45C1858.47 1368.2 1858.94 1367.13 1859.9 1366.23C1860.86 1365.33 1862.02 1364.87 1863.37 1364.87C1864.72 1364.87 1865.87 1365.33 1866.82 1366.23C1867.79 1367.13 1868.27 1368.2 1868.27 1369.45C1868.27 1370.72 1867.79 1371.8 1866.82 1372.71C1865.87 1373.61 1864.72 1374.05 1863.37 1374.05ZM1889.94 1411.64C1886.63 1411.64 1883.77 1410.94 1881.36 1409.53C1878.96 1408.11 1877.1 1406.13 1875.8 1403.61C1874.49 1401.06 1873.84 1398.12 1873.84 1394.76C1873.84 1391.38 1874.49 1388.43 1875.8 1385.9C1877.1 1383.36 1878.96 1381.38 1881.36 1379.98C1883.77 1378.56 1886.63 1377.85 1889.94 1377.85C1893.25 1377.85 1896.11 1378.56 1898.51 1379.98C1900.92 1381.38 1902.79 1383.36 1904.09 1385.9C1905.4 1388.43 1906.05 1391.38 1906.05 1394.76C1906.05 1398.12 1905.4 1401.06 1904.09 1403.61C1902.79 1406.13 1900.92 1408.11 1898.51 1409.53C1896.11 1410.94 1893.25 1411.64 1889.94 1411.64ZM1889.99 1404.61C1891.49 1404.61 1892.75 1404.18 1893.76 1403.33C1894.77 1402.46 1895.53 1401.28 1896.04 1399.79C1896.56 1398.3 1896.83 1396.6 1896.83 1394.7C1896.83 1392.8 1896.56 1391.1 1896.04 1389.61C1895.53 1388.12 1894.77 1386.94 1893.76 1386.07C1892.75 1385.2 1891.49 1384.77 1889.99 1384.77C1888.47 1384.77 1887.19 1385.2 1886.15 1386.07C1885.13 1386.94 1884.35 1388.12 1883.83 1389.61C1883.32 1391.1 1883.06 1392.8 1883.06 1394.7C1883.06 1396.6 1883.32 1398.3 1883.83 1399.79C1884.35 1401.28 1885.13 1402.46 1886.15 1403.33C1887.19 1404.18 1888.47 1404.61 1889.99 1404.61ZM1921.03 1392.08V1411H1911.95V1378.27H1920.6V1384.05H1920.99C1921.71 1382.14 1922.93 1380.64 1924.63 1379.53C1926.34 1378.41 1928.4 1377.85 1930.83 1377.85C1933.1 1377.85 1935.09 1378.34 1936.78 1379.34C1938.47 1380.33 1939.78 1381.75 1940.72 1383.6C1941.66 1385.43 1942.12 1387.62 1942.12 1390.16V1411H1933.05V1391.78C1933.06 1389.78 1932.55 1388.22 1931.51 1387.09C1930.48 1385.96 1929.05 1385.39 1927.23 1385.39C1926.01 1385.39 1924.93 1385.65 1923.99 1386.18C1923.07 1386.7 1922.34 1387.47 1921.82 1388.48C1921.31 1389.47 1921.05 1390.67 1921.03 1392.08ZM1963.34 1411V1367.36H1992.74V1374.97H1972.56V1385.37H1991.23V1392.97H1972.56V1403.39H1992.82V1411H1963.34ZM2008.98 1367.36V1411H1999.9V1367.36H2008.98ZM2031.17 1411.64C2027.8 1411.64 2024.9 1410.96 2022.47 1409.59C2020.06 1408.22 2018.2 1406.27 2016.89 1403.76C2015.58 1401.23 2014.93 1398.24 2014.93 1394.79C2014.93 1391.42 2015.58 1388.46 2016.89 1385.92C2018.2 1383.38 2020.04 1381.4 2022.41 1379.98C2024.8 1378.56 2027.59 1377.85 2030.8 1377.85C2032.96 1377.85 2034.97 1378.19 2036.83 1378.89C2038.71 1379.57 2040.34 1380.6 2041.73 1381.98C2043.14 1383.36 2044.23 1385.09 2045.02 1387.18C2045.8 1389.25 2046.19 1391.68 2046.19 1394.47V1396.96H2018.55V1391.33H2037.64C2037.64 1390.03 2037.36 1388.87 2036.79 1387.86C2036.22 1386.85 2035.43 1386.06 2034.43 1385.5C2033.43 1384.91 2032.27 1384.62 2030.95 1384.62C2029.57 1384.62 2028.35 1384.94 2027.29 1385.58C2026.24 1386.21 2025.41 1387.05 2024.82 1388.12C2024.22 1389.17 2023.91 1390.34 2023.9 1391.63V1396.98C2023.9 1398.6 2024.2 1400 2024.8 1401.18C2025.41 1402.36 2026.27 1403.27 2027.37 1403.9C2028.48 1404.54 2029.8 1404.86 2031.31 1404.86C2032.32 1404.86 2033.25 1404.72 2034.08 1404.44C2034.92 1404.15 2035.64 1403.73 2036.24 1403.16C2036.83 1402.59 2037.29 1401.89 2037.6 1401.07L2046 1401.62C2045.57 1403.64 2044.7 1405.4 2043.37 1406.91C2042.07 1408.4 2040.38 1409.57 2038.3 1410.4C2036.24 1411.23 2033.86 1411.64 2031.17 1411.64ZM2052.11 1411V1378.27H2060.76V1384.05H2061.14C2061.83 1382.13 2062.96 1380.62 2064.55 1379.51C2066.14 1378.4 2068.05 1377.85 2070.26 1377.85C2072.51 1377.85 2074.42 1378.41 2076 1379.53C2077.57 1380.64 2078.62 1382.14 2079.15 1384.05H2079.49C2080.16 1382.17 2081.36 1380.67 2083.11 1379.55C2084.87 1378.41 2086.95 1377.85 2089.35 1377.85C2092.41 1377.85 2094.89 1378.82 2096.79 1380.77C2098.71 1382.7 2099.67 1385.44 2099.67 1388.99V1411H2090.61V1390.78C2090.61 1388.96 2090.13 1387.6 2089.16 1386.69C2088.2 1385.78 2086.99 1385.33 2085.54 1385.33C2083.89 1385.33 2082.61 1385.85 2081.68 1386.9C2080.76 1387.94 2080.3 1389.31 2080.3 1391.01V1411H2071.5V1390.59C2071.5 1388.98 2071.04 1387.7 2070.11 1386.75C2069.21 1385.8 2068.01 1385.33 2066.51 1385.33C2065.51 1385.33 2064.6 1385.58 2063.79 1386.09C2062.99 1386.59 2062.36 1387.29 2061.89 1388.2C2061.42 1389.1 2061.19 1390.15 2061.19 1391.36V1411H2052.11ZM2121.75 1411.64C2118.39 1411.64 2115.49 1410.96 2113.06 1409.59C2110.64 1408.22 2108.78 1406.27 2107.48 1403.76C2106.17 1401.23 2105.52 1398.24 2105.52 1394.79C2105.52 1391.42 2106.17 1388.46 2107.48 1385.92C2108.78 1383.38 2110.62 1381.4 2112.99 1379.98C2115.38 1378.56 2118.18 1377.85 2121.39 1377.85C2123.55 1377.85 2125.56 1378.19 2127.42 1378.89C2129.29 1379.57 2130.93 1380.6 2132.32 1381.98C2133.73 1383.36 2134.82 1385.09 2135.6 1387.18C2136.38 1389.25 2136.77 1391.68 2136.77 1394.47V1396.96H2109.14V1391.33H2128.23C2128.23 1390.03 2127.94 1388.87 2127.38 1387.86C2126.81 1386.85 2126.02 1386.06 2125.01 1385.5C2124.02 1384.91 2122.86 1384.62 2121.54 1384.62C2120.16 1384.62 2118.94 1384.94 2117.87 1385.58C2116.82 1386.21 2116 1387.05 2115.4 1388.12C2114.81 1389.17 2114.5 1390.34 2114.49 1391.63V1396.98C2114.49 1398.6 2114.78 1400 2115.38 1401.18C2115.99 1402.36 2116.85 1403.27 2117.96 1403.9C2119.07 1404.54 2120.38 1404.86 2121.9 1404.86C2122.91 1404.86 2123.83 1404.72 2124.67 1404.44C2125.51 1404.15 2126.23 1403.73 2126.82 1403.16C2127.42 1402.59 2127.87 1401.89 2128.19 1401.07L2136.58 1401.62C2136.16 1403.64 2135.28 1405.4 2133.96 1406.91C2132.65 1408.4 2130.96 1409.57 2128.89 1410.4C2126.83 1411.23 2124.45 1411.64 2121.75 1411.64ZM2151.77 1392.08V1411H2142.7V1378.27H2151.35V1384.05H2151.73C2152.45 1382.14 2153.67 1380.64 2155.37 1379.53C2157.08 1378.41 2159.15 1377.85 2161.57 1377.85C2163.85 1377.85 2165.83 1378.34 2167.52 1379.34C2169.21 1380.33 2170.52 1381.75 2171.46 1383.6C2172.4 1385.43 2172.87 1387.62 2172.87 1390.16V1411H2163.79V1391.78C2163.8 1389.78 2163.29 1388.22 2162.26 1387.09C2161.22 1385.96 2159.79 1385.39 2157.97 1385.39C2156.75 1385.39 2155.67 1385.65 2154.73 1386.18C2153.81 1386.7 2153.09 1387.47 2152.56 1388.48C2152.05 1389.47 2151.79 1390.67 2151.77 1392.08ZM2197.43 1378.27V1385.09H2177.72V1378.27H2197.43ZM2182.19 1370.43H2191.27V1400.94C2191.27 1401.78 2191.4 1402.43 2191.65 1402.9C2191.91 1403.36 2192.26 1403.68 2192.72 1403.86C2193.19 1404.05 2193.73 1404.14 2194.34 1404.14C2194.76 1404.14 2195.19 1404.1 2195.62 1404.03C2196.04 1403.95 2196.37 1403.88 2196.6 1403.84L2198.02 1410.6C2197.57 1410.74 2196.93 1410.9 2196.11 1411.09C2195.28 1411.28 2194.28 1411.4 2193.1 1411.45C2190.92 1411.53 2189 1411.24 2187.35 1410.57C2185.72 1409.91 2184.45 1408.87 2183.54 1407.46C2182.63 1406.06 2182.18 1404.28 2182.19 1402.14V1370.43ZM2230.16 1387.61L2221.85 1388.12C2221.71 1387.41 2221.4 1386.77 2220.94 1386.2C2220.47 1385.62 2219.85 1385.15 2219.08 1384.81C2218.33 1384.46 2217.43 1384.28 2216.38 1384.28C2214.97 1384.28 2213.78 1384.58 2212.82 1385.18C2211.85 1385.76 2211.37 1386.54 2211.37 1387.52C2211.37 1388.3 2211.68 1388.96 2212.31 1389.5C2212.93 1390.04 2214 1390.47 2215.52 1390.8L2221.45 1391.99C2224.63 1392.65 2227 1393.7 2228.56 1395.15C2230.13 1396.6 2230.91 1398.5 2230.91 1400.86C2230.91 1403 2230.27 1404.88 2229.01 1406.5C2227.76 1408.12 2226.04 1409.39 2223.85 1410.3C2221.68 1411.19 2219.17 1411.64 2216.33 1411.64C2212 1411.64 2208.55 1410.74 2205.98 1408.93C2203.42 1407.12 2201.92 1404.64 2201.48 1401.52L2210.41 1401.05C2210.68 1402.37 2211.33 1403.38 2212.37 1404.08C2213.41 1404.76 2214.73 1405.1 2216.35 1405.1C2217.94 1405.1 2219.22 1404.79 2220.19 1404.18C2221.17 1403.56 2221.67 1402.75 2221.68 1401.77C2221.67 1400.95 2221.32 1400.28 2220.64 1399.75C2219.95 1399.21 2218.9 1398.8 2217.48 1398.51L2211.82 1397.38C2208.62 1396.75 2206.24 1395.64 2204.68 1394.06C2203.13 1392.48 2202.36 1390.47 2202.36 1388.03C2202.36 1385.93 2202.92 1384.12 2204.06 1382.6C2205.21 1381.08 2206.82 1379.91 2208.9 1379.08C2210.98 1378.26 2213.43 1377.85 2216.23 1377.85C2220.36 1377.85 2223.61 1378.72 2225.98 1380.47C2228.37 1382.21 2229.76 1384.59 2230.16 1387.61Z" fill="black"/>
<circle cx="1544.5" cy="1564.5" r="47.5" fill="#BDBBBB" stroke="#BDBBBB" stroke-width="10"/>
<path d="M1675.29 1557.64H1665.96C1665.79 1556.43 1665.44 1555.36 1664.92 1554.42C1664.39 1553.47 1663.72 1552.66 1662.89 1551.99C1662.07 1551.33 1661.12 1550.82 1660.04 1550.46C1658.97 1550.11 1657.82 1549.93 1656.57 1549.93C1654.31 1549.93 1652.34 1550.49 1650.66 1551.61C1648.99 1552.72 1647.69 1554.34 1646.76 1556.47C1645.84 1558.59 1645.38 1561.16 1645.38 1564.18C1645.38 1567.29 1645.84 1569.91 1646.76 1572.02C1647.7 1574.14 1649.01 1575.74 1650.68 1576.82C1652.36 1577.9 1654.3 1578.44 1656.5 1578.44C1657.74 1578.44 1658.88 1578.27 1659.93 1577.95C1661 1577.62 1661.94 1577.14 1662.77 1576.52C1663.59 1575.88 1664.27 1575.11 1664.81 1574.2C1665.37 1573.29 1665.75 1572.25 1665.96 1571.09L1675.29 1571.13C1675.05 1573.13 1674.45 1575.06 1673.48 1576.92C1672.53 1578.77 1671.25 1580.42 1669.63 1581.89C1668.02 1583.34 1666.1 1584.49 1663.87 1585.34C1661.66 1586.18 1659.15 1586.6 1656.35 1586.6C1652.46 1586.6 1648.98 1585.72 1645.91 1583.95C1642.86 1582.19 1640.44 1579.64 1638.67 1576.31C1636.91 1572.97 1636.03 1568.93 1636.03 1564.18C1636.03 1559.42 1636.92 1555.38 1638.71 1552.04C1640.5 1548.7 1642.93 1546.16 1646 1544.41C1649.07 1542.65 1652.52 1541.77 1656.35 1541.77C1658.88 1541.77 1661.22 1542.12 1663.38 1542.83C1665.56 1543.54 1667.48 1544.58 1669.16 1545.94C1670.83 1547.29 1672.2 1548.95 1673.25 1550.91C1674.31 1552.87 1675 1555.11 1675.29 1557.64ZM1691.07 1586.62C1688.98 1586.62 1687.12 1586.26 1685.49 1585.53C1683.86 1584.79 1682.56 1583.71 1681.61 1582.27C1680.67 1580.82 1680.21 1579.02 1680.21 1576.86C1680.21 1575.04 1680.54 1573.51 1681.21 1572.28C1681.87 1571.04 1682.78 1570.05 1683.93 1569.3C1685.08 1568.54 1686.39 1567.97 1687.85 1567.59C1689.33 1567.21 1690.88 1566.94 1692.5 1566.78C1694.4 1566.58 1695.94 1566.4 1697.1 1566.23C1698.27 1566.04 1699.11 1565.77 1699.64 1565.42C1700.16 1565.06 1700.43 1564.54 1700.43 1563.84V1563.71C1700.43 1562.36 1700 1561.32 1699.15 1560.58C1698.31 1559.84 1697.12 1559.47 1695.57 1559.47C1693.93 1559.47 1692.63 1559.84 1691.67 1560.56C1690.7 1561.27 1690.06 1562.16 1689.75 1563.24L1681.36 1562.56C1681.78 1560.57 1682.62 1558.86 1683.87 1557.41C1685.12 1555.94 1686.73 1554.82 1688.71 1554.04C1690.7 1553.24 1693 1552.85 1695.61 1552.85C1697.43 1552.85 1699.17 1553.06 1700.83 1553.49C1702.51 1553.91 1703.99 1554.57 1705.28 1555.47C1706.59 1556.36 1707.62 1557.51 1708.37 1558.92C1709.13 1560.31 1709.5 1561.98 1709.5 1563.93V1586H1700.89V1581.46H1700.64C1700.11 1582.48 1699.41 1583.39 1698.53 1584.17C1697.65 1584.93 1696.59 1585.54 1695.35 1585.98C1694.12 1586.4 1692.69 1586.62 1691.07 1586.62ZM1693.67 1580.35C1695.01 1580.35 1696.19 1580.09 1697.21 1579.57C1698.23 1579.03 1699.03 1578.3 1699.62 1577.39C1700.2 1576.48 1700.49 1575.45 1700.49 1574.3V1570.83C1700.21 1571.01 1699.81 1571.18 1699.32 1571.34C1698.83 1571.48 1698.29 1571.62 1697.68 1571.75C1697.07 1571.86 1696.46 1571.97 1695.84 1572.07C1695.23 1572.15 1694.68 1572.23 1694.18 1572.3C1693.12 1572.46 1692.19 1572.7 1691.39 1573.05C1690.6 1573.39 1689.98 1573.85 1689.54 1574.43C1689.1 1575 1688.88 1575.71 1688.88 1576.56C1688.88 1577.8 1689.32 1578.74 1690.22 1579.39C1691.13 1580.03 1692.28 1580.35 1693.67 1580.35ZM1716.54 1586V1553.27H1725.34V1558.98H1725.68C1726.28 1556.95 1727.28 1555.42 1728.69 1554.38C1730.1 1553.33 1731.71 1552.8 1733.55 1552.8C1734 1552.8 1734.49 1552.83 1735.02 1552.89C1735.54 1552.95 1736 1553.02 1736.4 1553.12V1561.18C1735.98 1561.05 1735.39 1560.94 1734.63 1560.84C1733.88 1560.74 1733.19 1560.69 1732.57 1560.69C1731.23 1560.69 1730.04 1560.98 1728.99 1561.56C1727.95 1562.13 1727.13 1562.92 1726.52 1563.95C1725.92 1564.97 1725.62 1566.15 1725.62 1567.48V1586H1716.54ZM1793.65 1557.64H1784.32C1784.15 1556.43 1783.8 1555.36 1783.28 1554.42C1782.75 1553.47 1782.08 1552.66 1781.25 1551.99C1780.43 1551.33 1779.48 1550.82 1778.4 1550.46C1777.33 1550.11 1776.17 1549.93 1774.92 1549.93C1772.67 1549.93 1770.7 1550.49 1769.02 1551.61C1767.35 1552.72 1766.05 1554.34 1765.12 1556.47C1764.2 1558.59 1763.74 1561.16 1763.74 1564.18C1763.74 1567.29 1764.2 1569.91 1765.12 1572.02C1766.06 1574.14 1767.37 1575.74 1769.04 1576.82C1770.72 1577.9 1772.66 1578.44 1774.86 1578.44C1776.1 1578.44 1777.24 1578.27 1778.29 1577.95C1779.36 1577.62 1780.3 1577.14 1781.12 1576.52C1781.95 1575.88 1782.63 1575.11 1783.17 1574.2C1783.72 1573.29 1784.11 1572.25 1784.32 1571.09L1793.65 1571.13C1793.41 1573.13 1792.81 1575.06 1791.84 1576.92C1790.89 1578.77 1789.61 1580.42 1787.99 1581.89C1786.38 1583.34 1784.46 1584.49 1782.23 1585.34C1780.02 1586.18 1777.51 1586.6 1774.71 1586.6C1770.82 1586.6 1767.34 1585.72 1764.27 1583.95C1761.22 1582.19 1758.8 1579.64 1757.03 1576.31C1755.27 1572.97 1754.38 1568.93 1754.38 1564.18C1754.38 1559.42 1755.28 1555.38 1757.07 1552.04C1758.86 1548.7 1761.29 1546.16 1764.36 1544.41C1767.42 1542.65 1770.88 1541.77 1774.71 1541.77C1777.24 1541.77 1779.58 1542.12 1781.74 1542.83C1783.92 1543.54 1785.84 1544.58 1787.52 1545.94C1789.19 1547.29 1790.56 1548.95 1791.61 1550.91C1792.67 1552.87 1793.36 1555.11 1793.65 1557.64ZM1814.89 1586.64C1811.58 1586.64 1808.71 1585.94 1806.3 1584.53C1803.9 1583.11 1802.04 1581.13 1800.74 1578.61C1799.43 1576.06 1798.78 1573.12 1798.78 1569.76C1798.78 1566.38 1799.43 1563.43 1800.74 1560.9C1802.04 1558.36 1803.9 1556.38 1806.3 1554.98C1808.71 1553.56 1811.58 1552.85 1814.89 1552.85C1818.2 1552.85 1821.05 1553.56 1823.45 1554.98C1825.87 1556.38 1827.73 1558.36 1829.03 1560.9C1830.34 1563.43 1830.99 1566.38 1830.99 1569.76C1830.99 1573.12 1830.34 1576.06 1829.03 1578.61C1827.73 1581.13 1825.87 1583.11 1823.45 1584.53C1821.05 1585.94 1818.2 1586.64 1814.89 1586.64ZM1814.93 1579.61C1816.43 1579.61 1817.69 1579.18 1818.7 1578.33C1819.71 1577.46 1820.47 1576.28 1820.98 1574.79C1821.5 1573.3 1821.77 1571.6 1821.77 1569.7C1821.77 1567.8 1821.5 1566.1 1820.98 1564.61C1820.47 1563.12 1819.71 1561.94 1818.7 1561.07C1817.69 1560.2 1816.43 1559.77 1814.93 1559.77C1813.41 1559.77 1812.13 1560.2 1811.09 1561.07C1810.07 1561.94 1809.3 1563.12 1808.77 1564.61C1808.26 1566.1 1808 1567.8 1808 1569.7C1808 1571.6 1808.26 1573.3 1808.77 1574.79C1809.3 1576.28 1810.07 1577.46 1811.09 1578.33C1812.13 1579.18 1813.41 1579.61 1814.93 1579.61ZM1836.9 1586V1553.27H1845.55V1559.05H1845.93C1846.61 1557.13 1847.75 1555.62 1849.34 1554.51C1850.93 1553.4 1852.83 1552.85 1855.05 1552.85C1857.29 1552.85 1859.2 1553.41 1860.78 1554.53C1862.36 1555.64 1863.41 1557.14 1863.93 1559.05H1864.27C1864.94 1557.17 1866.15 1555.67 1867.9 1554.55C1869.66 1553.41 1871.74 1552.85 1874.14 1552.85C1877.19 1552.85 1879.67 1553.82 1881.58 1555.77C1883.49 1557.7 1884.45 1560.44 1884.45 1563.99V1586H1875.4V1565.78C1875.4 1563.96 1874.91 1562.6 1873.95 1561.69C1872.98 1560.78 1871.77 1560.33 1870.33 1560.33C1868.68 1560.33 1867.39 1560.85 1866.47 1561.9C1865.55 1562.94 1865.08 1564.31 1865.08 1566.01V1586H1856.28V1565.59C1856.28 1563.98 1855.82 1562.7 1854.9 1561.75C1853.99 1560.8 1852.79 1560.33 1851.3 1560.33C1850.29 1560.33 1849.38 1560.58 1848.57 1561.09C1847.78 1561.59 1847.14 1562.29 1846.68 1563.2C1846.21 1564.1 1845.97 1565.15 1845.97 1566.36V1586H1836.9ZM1891.62 1598.27V1553.27H1900.57V1558.77H1900.98C1901.37 1557.89 1901.95 1556.99 1902.7 1556.09C1903.47 1555.16 1904.46 1554.39 1905.68 1553.78C1906.92 1553.16 1908.45 1552.85 1910.29 1552.85C1912.67 1552.85 1914.88 1553.47 1916.89 1554.72C1918.91 1555.96 1920.52 1557.83 1921.73 1560.33C1922.94 1562.81 1923.54 1565.93 1923.54 1569.68C1923.54 1573.33 1922.95 1576.41 1921.77 1578.93C1920.61 1581.43 1919.02 1583.32 1917 1584.62C1915 1585.89 1912.75 1586.53 1910.27 1586.53C1908.5 1586.53 1907.01 1586.24 1905.77 1585.66C1904.55 1585.08 1903.55 1584.35 1902.77 1583.46C1901.98 1582.57 1901.39 1581.67 1900.98 1580.76H1900.7V1598.27H1891.62ZM1900.51 1569.64C1900.51 1571.58 1900.78 1573.28 1901.32 1574.73C1901.86 1576.18 1902.64 1577.31 1903.66 1578.12C1904.68 1578.91 1905.93 1579.31 1907.39 1579.31C1908.87 1579.31 1910.12 1578.9 1911.14 1578.1C1912.16 1577.27 1912.94 1576.13 1913.46 1574.69C1914 1573.22 1914.27 1571.54 1914.27 1569.64C1914.27 1567.75 1914.01 1566.09 1913.48 1564.65C1912.96 1563.22 1912.18 1562.09 1911.16 1561.28C1910.14 1560.47 1908.88 1560.07 1907.39 1560.07C1905.91 1560.07 1904.66 1560.46 1903.64 1561.24C1902.63 1562.02 1901.86 1563.13 1901.32 1564.57C1900.78 1566 1900.51 1567.69 1900.51 1569.64ZM1944.38 1586.64C1941.07 1586.64 1938.21 1585.94 1935.79 1584.53C1933.39 1583.11 1931.54 1581.13 1930.23 1578.61C1928.92 1576.06 1928.27 1573.12 1928.27 1569.76C1928.27 1566.38 1928.92 1563.43 1930.23 1560.9C1931.54 1558.36 1933.39 1556.38 1935.79 1554.98C1938.21 1553.56 1941.07 1552.85 1944.38 1552.85C1947.69 1552.85 1950.54 1553.56 1952.94 1554.98C1955.36 1556.38 1957.22 1558.36 1958.53 1560.9C1959.83 1563.43 1960.49 1566.38 1960.49 1569.76C1960.49 1573.12 1959.83 1576.06 1958.53 1578.61C1957.22 1581.13 1955.36 1583.11 1952.94 1584.53C1950.54 1585.94 1947.69 1586.64 1944.38 1586.64ZM1944.42 1579.61C1945.93 1579.61 1947.18 1579.18 1948.19 1578.33C1949.2 1577.46 1949.96 1576.28 1950.47 1574.79C1951 1573.3 1951.26 1571.6 1951.26 1569.7C1951.26 1567.8 1951 1566.1 1950.47 1564.61C1949.96 1563.12 1949.2 1561.94 1948.19 1561.07C1947.18 1560.2 1945.93 1559.77 1944.42 1559.77C1942.9 1559.77 1941.62 1560.2 1940.59 1561.07C1939.56 1561.94 1938.79 1563.12 1938.26 1564.61C1937.75 1566.1 1937.5 1567.8 1937.5 1569.7C1937.5 1571.6 1937.75 1573.3 1938.26 1574.79C1938.79 1576.28 1939.56 1577.46 1940.59 1578.33C1941.62 1579.18 1942.9 1579.61 1944.42 1579.61ZM1975.46 1567.08V1586H1966.39V1553.27H1975.04V1559.05H1975.42C1976.15 1557.14 1977.36 1555.64 1979.07 1554.53C1980.77 1553.41 1982.84 1552.85 1985.27 1552.85C1987.54 1552.85 1989.52 1553.34 1991.21 1554.34C1992.9 1555.33 1994.21 1556.75 1995.15 1558.6C1996.09 1560.43 1996.56 1562.62 1996.56 1565.16V1586H1987.48V1566.78C1987.5 1564.78 1986.98 1563.22 1985.95 1562.09C1984.91 1560.96 1983.48 1560.39 1981.66 1560.39C1980.44 1560.39 1979.36 1560.65 1978.43 1561.18C1977.5 1561.7 1976.78 1562.47 1976.25 1563.48C1975.74 1564.47 1975.48 1565.67 1975.46 1567.08ZM2018.63 1586.64C2015.26 1586.64 2012.36 1585.96 2009.93 1584.59C2007.52 1583.22 2005.66 1581.27 2004.35 1578.76C2003.04 1576.23 2002.39 1573.24 2002.39 1569.79C2002.39 1566.42 2003.04 1563.46 2004.35 1560.92C2005.66 1558.38 2007.5 1556.4 2009.87 1554.98C2012.26 1553.56 2015.05 1552.85 2018.26 1552.85C2020.42 1552.85 2022.43 1553.19 2024.29 1553.89C2026.17 1554.57 2027.8 1555.6 2029.19 1556.98C2030.6 1558.36 2031.69 1560.09 2032.48 1562.18C2033.26 1564.25 2033.65 1566.68 2033.65 1569.47V1571.96H2006.01V1566.33H2025.1C2025.1 1565.03 2024.82 1563.87 2024.25 1562.86C2023.68 1561.85 2022.9 1561.06 2021.89 1560.5C2020.89 1559.91 2019.73 1559.62 2018.41 1559.62C2017.04 1559.62 2015.81 1559.94 2014.75 1560.58C2013.7 1561.21 2012.87 1562.05 2012.28 1563.12C2011.68 1564.17 2011.38 1565.34 2011.36 1566.63V1571.98C2011.36 1573.6 2011.66 1575 2012.26 1576.18C2012.87 1577.36 2013.73 1578.27 2014.83 1578.9C2015.94 1579.54 2017.26 1579.86 2018.78 1579.86C2019.78 1579.86 2020.71 1579.72 2021.55 1579.44C2022.38 1579.15 2023.1 1578.73 2023.7 1578.16C2024.29 1577.59 2024.75 1576.89 2025.06 1576.07L2033.46 1576.62C2033.03 1578.64 2032.16 1580.4 2030.84 1581.91C2029.53 1583.4 2027.84 1584.57 2025.76 1585.4C2023.7 1586.23 2021.33 1586.64 2018.63 1586.64ZM2048.65 1567.08V1586H2039.57V1553.27H2048.22V1559.05H2048.61C2049.33 1557.14 2050.54 1555.64 2052.25 1554.53C2053.95 1553.41 2056.02 1552.85 2058.45 1552.85C2060.72 1552.85 2062.7 1553.34 2064.39 1554.34C2066.08 1555.33 2067.4 1556.75 2068.34 1558.6C2069.27 1560.43 2069.74 1562.62 2069.74 1565.16V1586H2060.67V1566.78C2060.68 1564.78 2060.17 1563.22 2059.13 1562.09C2058.09 1560.96 2056.67 1560.39 2054.85 1560.39C2053.63 1560.39 2052.55 1560.65 2051.61 1561.18C2050.69 1561.7 2049.96 1562.47 2049.44 1563.48C2048.93 1564.47 2048.66 1565.67 2048.65 1567.08ZM2094.3 1553.27V1560.09H2074.59V1553.27H2094.3ZM2079.07 1545.43H2088.15V1575.94C2088.15 1576.78 2088.27 1577.43 2088.53 1577.9C2088.78 1578.36 2089.14 1578.68 2089.59 1578.86C2090.06 1579.05 2090.6 1579.14 2091.21 1579.14C2091.64 1579.14 2092.07 1579.1 2092.49 1579.03C2092.92 1578.95 2093.25 1578.88 2093.47 1578.84L2094.9 1585.6C2094.45 1585.74 2093.81 1585.9 2092.98 1586.09C2092.16 1586.28 2091.16 1586.4 2089.98 1586.45C2087.79 1586.53 2085.87 1586.24 2084.23 1585.57C2082.59 1584.91 2081.32 1583.87 2080.41 1582.46C2079.5 1581.06 2079.05 1579.28 2079.07 1577.14V1545.43ZM2127.04 1562.61L2118.73 1563.12C2118.58 1562.41 2118.28 1561.77 2117.81 1561.2C2117.34 1560.62 2116.72 1560.15 2115.96 1559.81C2115.2 1559.46 2114.3 1559.28 2113.25 1559.28C2111.84 1559.28 2110.66 1559.58 2109.69 1560.18C2108.73 1560.76 2108.24 1561.54 2108.24 1562.52C2108.24 1563.3 2108.56 1563.96 2109.18 1564.5C2109.81 1565.04 2110.88 1565.47 2112.4 1565.8L2118.32 1566.99C2121.5 1567.65 2123.88 1568.7 2125.44 1570.15C2127 1571.6 2127.78 1573.5 2127.78 1575.86C2127.78 1578 2127.15 1579.88 2125.89 1581.5C2124.64 1583.12 2122.92 1584.39 2120.73 1585.3C2118.56 1586.19 2116.05 1586.64 2113.21 1586.64C2108.88 1586.64 2105.42 1585.74 2102.85 1583.93C2100.3 1582.12 2098.8 1579.64 2098.36 1576.52L2107.28 1576.05C2107.55 1577.37 2108.21 1578.38 2109.24 1579.08C2110.28 1579.76 2111.61 1580.1 2113.23 1580.1C2114.82 1580.1 2116.1 1579.79 2117.06 1579.18C2118.04 1578.56 2118.54 1577.75 2118.56 1576.77C2118.54 1575.95 2118.19 1575.28 2117.51 1574.75C2116.83 1574.21 2115.78 1573.8 2114.36 1573.51L2108.69 1572.38C2105.49 1571.75 2103.12 1570.64 2101.55 1569.06C2100 1567.48 2099.23 1565.47 2099.23 1563.03C2099.23 1560.93 2099.8 1559.12 2100.94 1557.6C2102.09 1556.08 2103.7 1554.91 2105.77 1554.08C2107.86 1553.26 2110.3 1552.85 2113.1 1552.85C2117.23 1552.85 2120.49 1553.72 2122.86 1555.47C2125.25 1557.21 2126.64 1559.59 2127.04 1562.61Z" fill="black"/>
<rect x="1422.5" y="1092.5" width="880" height="594" rx="89.5" stroke="#B3B3B3"/>
</g>
<defs>
<clipPath id="clip0_249_1798">
<rect width="2426" height="1687" fill="white"/>
</clipPath>
</defs>
</svg>
