<svg width="560" height="64" viewBox="0 0 560 64" fill="none" xmlns="http://www.w3.org/2000/svg">
<circle cx="32" cy="32" r="24" fill="#6B6FFE"/>
<path opacity="0.48" d="M81.2074 43.0909V28.0909H84.1903V29.9233H84.3253C84.4579 29.6297 84.6496 29.3314 84.9006 29.0284C85.1563 28.7206 85.4877 28.465 85.8949 28.2614C86.3068 28.053 86.8182 27.9489 87.429 27.9489C88.2244 27.9489 88.9583 28.1572 89.6307 28.5739C90.303 28.9858 90.8404 29.6084 91.2429 30.4418C91.6454 31.2704 91.8466 32.3097 91.8466 33.5597C91.8466 34.7765 91.6501 35.804 91.2571 36.642C90.8688 37.4754 90.3385 38.1075 89.6662 38.5384C88.9986 38.9645 88.2505 39.1776 87.4219 39.1776C86.8348 39.1776 86.3352 39.0805 85.9233 38.8864C85.5161 38.6922 85.1823 38.4484 84.9219 38.1548C84.6615 37.8565 84.4626 37.5559 84.3253 37.2528H84.233V43.0909H81.2074ZM84.169 33.5455C84.169 34.1941 84.259 34.7599 84.4389 35.2429C84.6188 35.7259 84.8793 36.1023 85.2202 36.3722C85.5611 36.6373 85.9754 36.7699 86.4631 36.7699C86.9555 36.7699 87.3722 36.6349 87.7131 36.3651C88.054 36.0904 88.312 35.7116 88.4872 35.2287C88.6671 34.741 88.7571 34.1799 88.7571 33.5455C88.7571 32.9157 88.6695 32.3617 88.4943 31.8835C88.3191 31.4053 88.0611 31.0312 87.7202 30.7614C87.3793 30.4915 86.9602 30.3565 86.4631 30.3565C85.9706 30.3565 85.554 30.4867 85.2131 30.7472C84.8769 31.0076 84.6188 31.3769 84.4389 31.8551C84.259 32.3333 84.169 32.8968 84.169 33.5455ZM93.8636 39V28.0909H96.7969V29.9943H96.9105C97.1094 29.3172 97.4432 28.8059 97.9119 28.4602C98.3807 28.1098 98.9205 27.9347 99.5312 27.9347C99.6828 27.9347 99.8461 27.9441 100.021 27.9631C100.196 27.982 100.35 28.008 100.483 28.0412V30.7259C100.341 30.6832 100.144 30.6454 99.8935 30.6122C99.6425 30.5791 99.4129 30.5625 99.2045 30.5625C98.7595 30.5625 98.3617 30.6596 98.0114 30.8537C97.6657 31.0431 97.3911 31.3082 97.1875 31.6491C96.9886 31.9901 96.8892 32.383 96.8892 32.8281V39H93.8636ZM102.047 39V28.0909H105.073V39H102.047ZM103.567 26.6847C103.117 26.6847 102.731 26.5355 102.409 26.2372C102.092 25.9342 101.934 25.572 101.934 25.1506C101.934 24.7339 102.092 24.3764 102.409 24.0781C102.731 23.7751 103.117 23.6236 103.567 23.6236C104.017 23.6236 104.4 23.7751 104.718 24.0781C105.04 24.3764 105.201 24.7339 105.201 25.1506C105.201 25.572 105.04 25.9342 104.718 26.2372C104.4 26.5355 104.017 26.6847 103.567 26.6847ZM107.496 39V28.0909H110.38V30.0156H110.508C110.735 29.3764 111.114 28.8722 111.644 28.5028C112.174 28.1335 112.809 27.9489 113.548 27.9489C114.296 27.9489 114.933 28.1359 115.458 28.5099C115.984 28.8793 116.334 29.3812 116.509 30.0156H116.623C116.845 29.3906 117.248 28.8911 117.83 28.517C118.417 28.1383 119.111 27.9489 119.911 27.9489C120.929 27.9489 121.755 28.2732 122.39 28.9219C123.029 29.5658 123.349 30.4796 123.349 31.6634V39H120.33V32.2599C120.33 31.6539 120.169 31.1993 119.847 30.8963C119.525 30.5933 119.123 30.4418 118.64 30.4418C118.091 30.4418 117.662 30.617 117.354 30.9673C117.047 31.313 116.893 31.7699 116.893 32.3381V39H113.96V32.196C113.96 31.661 113.806 31.2348 113.498 30.9176C113.195 30.6004 112.795 30.4418 112.298 30.4418C111.961 30.4418 111.658 30.527 111.388 30.6974C111.123 30.8632 110.913 31.0975 110.756 31.4006C110.6 31.6989 110.522 32.0492 110.522 32.4517V39H107.496ZM128.849 39.206C128.153 39.206 127.533 39.0852 126.989 38.8438C126.444 38.5975 126.013 38.2353 125.696 37.7571C125.384 37.2741 125.227 36.6728 125.227 35.9531C125.227 35.3471 125.339 34.8381 125.561 34.4261C125.784 34.0142 126.087 33.6828 126.47 33.4318C126.854 33.1809 127.289 32.9915 127.777 32.8636C128.269 32.7358 128.786 32.6458 129.325 32.5938C129.96 32.5275 130.471 32.4659 130.859 32.4091C131.248 32.3475 131.529 32.2576 131.705 32.1392C131.88 32.0208 131.967 31.8456 131.967 31.6136V31.571C131.967 31.1212 131.825 30.7732 131.541 30.527C131.262 30.2808 130.864 30.1577 130.348 30.1577C129.804 30.1577 129.37 30.2784 129.048 30.5199C128.726 30.7566 128.513 31.0549 128.409 31.4148L125.611 31.1875C125.753 30.5246 126.032 29.9517 126.449 29.4688C126.866 28.9811 127.403 28.607 128.061 28.3466C128.724 28.0814 129.491 27.9489 130.362 27.9489C130.968 27.9489 131.548 28.0199 132.102 28.1619C132.661 28.304 133.156 28.5241 133.587 28.8224C134.022 29.1207 134.366 29.5043 134.616 29.973C134.867 30.437 134.993 30.9934 134.993 31.642V39H132.124V37.4872H132.038C131.863 37.8281 131.629 38.1288 131.335 38.3892C131.042 38.6449 130.689 38.8461 130.277 38.9929C129.865 39.1349 129.389 39.206 128.849 39.206ZM129.716 37.1179C130.161 37.1179 130.554 37.0303 130.895 36.8551C131.236 36.6752 131.503 36.4337 131.697 36.1307C131.892 35.8277 131.989 35.4844 131.989 35.1009V33.9432C131.894 34.0047 131.764 34.0616 131.598 34.1136C131.437 34.161 131.255 34.206 131.051 34.2486C130.848 34.2865 130.644 34.322 130.44 34.3551C130.237 34.3835 130.052 34.4096 129.886 34.4332C129.531 34.4853 129.221 34.5682 128.956 34.6818C128.691 34.7955 128.485 34.9493 128.338 35.1435C128.191 35.3329 128.118 35.5696 128.118 35.8537C128.118 36.2656 128.267 36.5805 128.565 36.7983C128.868 37.0114 129.252 37.1179 129.716 37.1179ZM137.34 39V28.0909H140.273V29.9943H140.387C140.586 29.3172 140.92 28.8059 141.388 28.4602C141.857 28.1098 142.397 27.9347 143.008 27.9347C143.159 27.9347 143.323 27.9441 143.498 27.9631C143.673 27.982 143.827 28.008 143.96 28.0412V30.7259C143.817 30.6832 143.621 30.6454 143.37 30.6122C143.119 30.5791 142.889 30.5625 142.681 30.5625C142.236 30.5625 141.838 30.6596 141.488 30.8537C141.142 31.0431 140.868 31.3082 140.664 31.6491C140.465 31.9901 140.366 32.383 140.366 32.8281V39H137.34ZM147.724 43.0909C147.34 43.0909 146.98 43.0601 146.644 42.9986C146.313 42.9418 146.038 42.8684 145.82 42.7784L146.502 40.5199C146.857 40.6288 147.177 40.688 147.461 40.6974C147.75 40.7069 147.998 40.6406 148.207 40.4986C148.42 40.3565 148.593 40.1151 148.725 39.7741L148.903 39.3125L144.989 28.0909H148.171L150.43 36.1023H150.543L152.823 28.0909H156.026L151.786 40.179C151.583 40.7661 151.306 41.2775 150.955 41.7131C150.61 42.1534 150.172 42.492 149.641 42.7287C149.111 42.9702 148.472 43.0909 147.724 43.0909Z" fill="black"/>
<circle cx="213" cy="32" r="24" fill="#FF7777"/>
<path opacity="0.48" d="M271.284 31.2017L268.514 31.3722C268.467 31.1354 268.365 30.9223 268.209 30.733C268.053 30.5388 267.847 30.3849 267.591 30.2713C267.34 30.1529 267.039 30.0938 266.689 30.0938C266.22 30.0938 265.825 30.1932 265.503 30.392C265.181 30.5862 265.02 30.8466 265.02 31.1733C265.02 31.4337 265.124 31.6539 265.332 31.8338C265.541 32.0137 265.898 32.1581 266.405 32.267L268.379 32.6648C269.44 32.8826 270.231 33.233 270.751 33.7159C271.272 34.1989 271.533 34.8333 271.533 35.6193C271.533 36.3343 271.322 36.9616 270.901 37.5014C270.484 38.0412 269.911 38.4626 269.182 38.7656C268.457 39.0639 267.622 39.2131 266.675 39.2131C265.231 39.2131 264.08 38.9124 263.223 38.3111C262.371 37.705 261.871 36.8812 261.724 35.8395L264.7 35.6832C264.79 36.1236 265.008 36.4598 265.354 36.6918C265.699 36.919 266.142 37.0327 266.682 37.0327C267.212 37.0327 267.638 36.9309 267.96 36.7273C268.287 36.5189 268.453 36.2514 268.457 35.9247C268.453 35.6501 268.337 35.4252 268.109 35.25C267.882 35.0701 267.532 34.9328 267.058 34.8381L265.169 34.4616C264.104 34.2486 263.311 33.8793 262.79 33.3537C262.274 32.8281 262.016 32.1581 262.016 31.3438C262.016 30.643 262.205 30.0393 262.584 29.5327C262.967 29.026 263.505 28.6354 264.196 28.3608C264.892 28.0862 265.706 27.9489 266.639 27.9489C268.017 27.9489 269.101 28.2401 269.892 28.8224C270.688 29.4048 271.152 30.1979 271.284 31.2017ZM278.409 39.2131C277.287 39.2131 276.321 38.9858 275.512 38.5312C274.707 38.072 274.087 37.4233 273.651 36.5852C273.215 35.7424 272.998 34.7457 272.998 33.5952C272.998 32.473 273.215 31.4882 273.651 30.6406C274.087 29.7931 274.7 29.1326 275.49 28.6591C276.286 28.1856 277.219 27.9489 278.289 27.9489C279.008 27.9489 279.678 28.0649 280.299 28.2969C280.924 28.5241 281.468 28.8674 281.932 29.3267C282.401 29.786 282.766 30.3636 283.026 31.0597C283.286 31.7509 283.417 32.5606 283.417 33.4886V34.3196H274.205V32.4446H280.569C280.569 32.009 280.474 31.6231 280.284 31.2869C280.095 30.9508 279.832 30.688 279.496 30.4986C279.165 30.3045 278.779 30.2074 278.338 30.2074C277.879 30.2074 277.472 30.3139 277.117 30.527C276.766 30.7353 276.492 31.017 276.293 31.3722C276.094 31.7225 275.992 32.1132 275.988 32.544V34.3267C275.988 34.8665 276.087 35.3329 276.286 35.7259C276.489 36.1188 276.776 36.4219 277.145 36.6349C277.515 36.848 277.953 36.9545 278.459 36.9545C278.795 36.9545 279.103 36.9072 279.382 36.8125C279.662 36.7178 279.901 36.5758 280.1 36.3864C280.299 36.197 280.45 35.965 280.554 35.6903L283.353 35.875C283.211 36.5473 282.919 37.1345 282.479 37.6364C282.043 38.1335 281.48 38.5218 280.789 38.8011C280.102 39.0758 279.309 39.2131 278.409 39.2131ZM290.32 39.2131C289.203 39.2131 288.241 38.9763 287.436 38.5028C286.636 38.0246 286.021 37.3617 285.59 36.5142C285.164 35.6667 284.951 34.6913 284.951 33.5881C284.951 32.4706 285.166 31.4905 285.597 30.6477C286.033 29.8002 286.65 29.1397 287.451 28.6662C288.251 28.188 289.203 27.9489 290.306 27.9489C291.257 27.9489 292.091 28.1217 292.806 28.4673C293.521 28.813 294.087 29.2983 294.503 29.9233C294.92 30.5483 295.15 31.2822 295.192 32.125H292.337C292.257 31.5805 292.043 31.1425 291.698 30.8111C291.357 30.4749 290.909 30.3068 290.355 30.3068C289.887 30.3068 289.477 30.4347 289.127 30.6903C288.781 30.9413 288.511 31.3082 288.317 31.7912C288.123 32.2741 288.026 32.8589 288.026 33.5455C288.026 34.2415 288.121 34.8333 288.31 35.321C288.504 35.8087 288.776 36.1804 289.127 36.4361C289.477 36.6918 289.887 36.8196 290.355 36.8196C290.701 36.8196 291.011 36.7486 291.286 36.6065C291.565 36.4645 291.795 36.2585 291.975 35.9886C292.159 35.714 292.28 35.3849 292.337 35.0014H295.192C295.145 35.8348 294.917 36.5687 294.51 37.2031C294.108 37.8329 293.551 38.3253 292.841 38.6804C292.131 39.0355 291.291 39.2131 290.32 39.2131ZM302.058 39.2131C300.955 39.2131 300.001 38.9787 299.196 38.5099C298.396 38.0365 297.778 37.3783 297.342 36.5355C296.907 35.688 296.689 34.7055 296.689 33.5881C296.689 32.4612 296.907 31.4763 297.342 30.6335C297.778 29.786 298.396 29.1278 299.196 28.6591C300.001 28.1856 300.955 27.9489 302.058 27.9489C303.161 27.9489 304.113 28.1856 304.913 28.6591C305.718 29.1278 306.339 29.786 306.774 30.6335C307.21 31.4763 307.428 32.4612 307.428 33.5881C307.428 34.7055 307.21 35.688 306.774 36.5355C306.339 37.3783 305.718 38.0365 304.913 38.5099C304.113 38.9787 303.161 39.2131 302.058 39.2131ZM302.072 36.8693C302.574 36.8693 302.993 36.7273 303.33 36.4432C303.666 36.1544 303.919 35.7614 304.089 35.2642C304.265 34.767 304.352 34.2012 304.352 33.5668C304.352 32.9323 304.265 32.3665 304.089 31.8693C303.919 31.3722 303.666 30.9792 303.33 30.6903C302.993 30.4015 302.574 30.2571 302.072 30.2571C301.566 30.2571 301.14 30.4015 300.794 30.6903C300.453 30.9792 300.195 31.3722 300.02 31.8693C299.849 32.3665 299.764 32.9323 299.764 33.5668C299.764 34.2012 299.849 34.767 300.02 35.2642C300.195 35.7614 300.453 36.1544 300.794 36.4432C301.14 36.7273 301.566 36.8693 302.072 36.8693ZM312.42 32.6932V39H309.395V28.0909H312.278V30.0156H312.406C312.648 29.3812 313.053 28.8793 313.621 28.5099C314.189 28.1359 314.878 27.9489 315.688 27.9489C316.445 27.9489 317.106 28.1146 317.669 28.446C318.232 28.7775 318.67 29.2509 318.983 29.8665C319.295 30.4773 319.452 31.2064 319.452 32.054V39H316.426V32.5938C316.431 31.9261 316.26 31.4053 315.915 31.0312C315.569 30.6525 315.093 30.4631 314.487 30.4631C314.08 30.4631 313.72 30.5507 313.408 30.7259C313.1 30.901 312.858 31.1567 312.683 31.4929C312.513 31.8243 312.425 32.2244 312.42 32.6932ZM325.856 39.1776C325.028 39.1776 324.277 38.9645 323.605 38.5384C322.937 38.1075 322.407 37.4754 322.014 36.642C321.626 35.804 321.431 34.7765 321.431 33.5597C321.431 32.3097 321.633 31.2704 322.035 30.4418C322.438 29.6084 322.973 28.9858 323.64 28.5739C324.313 28.1572 325.049 27.9489 325.849 27.9489C326.46 27.9489 326.969 28.053 327.376 28.2614C327.788 28.465 328.119 28.7206 328.37 29.0284C328.626 29.3314 328.82 29.6297 328.953 29.9233H329.045V24.4545H332.064V39H329.081V37.2528H328.953C328.811 37.5559 328.609 37.8565 328.349 38.1548C328.093 38.4484 327.76 38.6922 327.348 38.8864C326.94 39.0805 326.443 39.1776 325.856 39.1776ZM326.815 36.7699C327.303 36.7699 327.715 36.6373 328.051 36.3722C328.392 36.1023 328.652 35.7259 328.832 35.2429C329.017 34.7599 329.109 34.1941 329.109 33.5455C329.109 32.8968 329.019 32.3333 328.839 31.8551C328.659 31.3769 328.399 31.0076 328.058 30.7472C327.717 30.4867 327.303 30.3565 326.815 30.3565C326.318 30.3565 325.899 30.4915 325.558 30.7614C325.217 31.0312 324.959 31.4053 324.784 31.8835C324.609 32.3617 324.521 32.9157 324.521 33.5455C324.521 34.1799 324.609 34.741 324.784 35.2287C324.964 35.7116 325.222 36.0904 325.558 36.3651C325.899 36.6349 326.318 36.7699 326.815 36.7699ZM337.662 39.206C336.966 39.206 336.346 39.0852 335.801 38.8438C335.257 38.5975 334.826 38.2353 334.509 37.7571C334.196 37.2741 334.04 36.6728 334.04 35.9531C334.04 35.3471 334.151 34.8381 334.374 34.4261C334.596 34.0142 334.899 33.6828 335.283 33.4318C335.666 33.1809 336.102 32.9915 336.589 32.8636C337.082 32.7358 337.598 32.6458 338.138 32.5938C338.772 32.5275 339.284 32.4659 339.672 32.4091C340.06 32.3475 340.342 32.2576 340.517 32.1392C340.692 32.0208 340.78 31.8456 340.78 31.6136V31.571C340.78 31.1212 340.638 30.7732 340.354 30.527C340.074 30.2808 339.677 30.1577 339.161 30.1577C338.616 30.1577 338.183 30.2784 337.861 30.5199C337.539 30.7566 337.326 31.0549 337.222 31.4148L334.423 31.1875C334.565 30.5246 334.845 29.9517 335.261 29.4688C335.678 28.9811 336.215 28.607 336.874 28.3466C337.536 28.0814 338.304 27.9489 339.175 27.9489C339.781 27.9489 340.361 28.0199 340.915 28.1619C341.473 28.304 341.968 28.5241 342.399 28.8224C342.835 29.1207 343.178 29.5043 343.429 29.973C343.68 30.437 343.805 30.9934 343.805 31.642V39H340.936V37.4872H340.851C340.676 37.8281 340.441 38.1288 340.148 38.3892C339.854 38.6449 339.501 38.8461 339.089 38.9929C338.678 39.1349 338.202 39.206 337.662 39.206ZM338.528 37.1179C338.973 37.1179 339.366 37.0303 339.707 36.8551C340.048 36.6752 340.316 36.4337 340.51 36.1307C340.704 35.8277 340.801 35.4844 340.801 35.1009V33.9432C340.706 34.0047 340.576 34.0616 340.411 34.1136C340.25 34.161 340.067 34.206 339.864 34.2486C339.66 34.2865 339.456 34.322 339.253 34.3551C339.049 34.3835 338.865 34.4096 338.699 34.4332C338.344 34.4853 338.034 34.5682 337.768 34.6818C337.503 34.7955 337.297 34.9493 337.151 35.1435C337.004 35.3329 336.93 35.5696 336.93 35.8537C336.93 36.2656 337.08 36.5805 337.378 36.7983C337.681 37.0114 338.064 37.1179 338.528 37.1179ZM346.153 39V28.0909H349.086V29.9943H349.2C349.398 29.3172 349.732 28.8059 350.201 28.4602C350.67 28.1098 351.21 27.9347 351.82 27.9347C351.972 27.9347 352.135 27.9441 352.31 27.9631C352.486 27.982 352.639 28.008 352.772 28.0412V30.7259C352.63 30.6832 352.433 30.6454 352.183 30.6122C351.932 30.5791 351.702 30.5625 351.494 30.5625C351.049 30.5625 350.651 30.6596 350.3 30.8537C349.955 31.0431 349.68 31.3082 349.477 31.6491C349.278 31.9901 349.178 32.383 349.178 32.8281V39H346.153ZM356.536 43.0909C356.153 43.0909 355.793 43.0601 355.457 42.9986C355.125 42.9418 354.851 42.8684 354.633 42.7784L355.315 40.5199C355.67 40.6288 355.989 40.688 356.273 40.6974C356.562 40.7069 356.811 40.6406 357.019 40.4986C357.232 40.3565 357.405 40.1151 357.538 39.7741L357.715 39.3125L353.802 28.0909H356.984L359.242 36.1023H359.356L361.636 28.0909H364.839L360.599 40.179C360.395 40.7661 360.118 41.2775 359.768 41.7131C359.422 42.1534 358.984 42.492 358.454 42.7287C357.924 42.9702 357.284 43.0909 356.536 43.0909Z" fill="black"/>
<circle cx="422" cy="32" r="24" fill="#36BD2A"/>
<path opacity="0.48" d="M471.207 43.0909V28.0909H474.19V29.9233H474.325C474.458 29.6297 474.65 29.3314 474.901 29.0284C475.156 28.7206 475.488 28.465 475.895 28.2614C476.307 28.053 476.818 27.9489 477.429 27.9489C478.224 27.9489 478.958 28.1572 479.631 28.5739C480.303 28.9858 480.84 29.6084 481.243 30.4418C481.645 31.2704 481.847 32.3097 481.847 33.5597C481.847 34.7765 481.65 35.804 481.257 36.642C480.869 37.4754 480.339 38.1075 479.666 38.5384C478.999 38.9645 478.25 39.1776 477.422 39.1776C476.835 39.1776 476.335 39.0805 475.923 38.8864C475.516 38.6922 475.182 38.4484 474.922 38.1548C474.661 37.8565 474.463 37.5559 474.325 37.2528H474.233V43.0909H471.207ZM474.169 33.5455C474.169 34.1941 474.259 34.7599 474.439 35.2429C474.619 35.7259 474.879 36.1023 475.22 36.3722C475.561 36.6373 475.975 36.7699 476.463 36.7699C476.955 36.7699 477.372 36.6349 477.713 36.3651C478.054 36.0904 478.312 35.7116 478.487 35.2287C478.667 34.741 478.757 34.1799 478.757 33.5455C478.757 32.9157 478.67 32.3617 478.494 31.8835C478.319 31.4053 478.061 31.0312 477.72 30.7614C477.379 30.4915 476.96 30.3565 476.463 30.3565C475.971 30.3565 475.554 30.4867 475.213 30.7472C474.877 31.0076 474.619 31.3769 474.439 31.8551C474.259 32.3333 474.169 32.8968 474.169 33.5455ZM486.889 32.6932V39H483.864V24.4545H486.804V30.0156H486.932C487.178 29.3717 487.576 28.8674 488.125 28.5028C488.674 28.1335 489.363 27.9489 490.192 27.9489C490.949 27.9489 491.61 28.1146 492.173 28.446C492.741 28.7727 493.182 29.2438 493.494 29.8594C493.812 30.4702 493.968 31.2017 493.963 32.054V39H490.938V32.5938C490.942 31.9214 490.772 31.3982 490.426 31.0241C490.085 30.6501 489.607 30.4631 488.991 30.4631C488.58 30.4631 488.215 30.5507 487.898 30.7259C487.585 30.901 487.339 31.1567 487.159 31.4929C486.984 31.8243 486.894 32.2244 486.889 32.6932ZM497.821 43.0909C497.438 43.0909 497.078 43.0601 496.742 42.9986C496.41 42.9418 496.136 42.8684 495.918 42.7784L496.6 40.5199C496.955 40.6288 497.275 40.688 497.559 40.6974C497.847 40.7069 498.096 40.6406 498.304 40.4986C498.517 40.3565 498.69 40.1151 498.823 39.7741L499 39.3125L495.087 28.0909H498.269L500.527 36.1023H500.641L502.921 28.0909H506.124L501.884 40.179C501.68 40.7661 501.403 41.2775 501.053 41.7131C500.707 42.1534 500.269 42.492 499.739 42.7287C499.209 42.9702 498.569 43.0909 497.821 43.0909ZM516.749 31.2017L513.979 31.3722C513.932 31.1354 513.83 30.9223 513.674 30.733C513.517 30.5388 513.311 30.3849 513.056 30.2713C512.805 30.1529 512.504 30.0938 512.154 30.0938C511.685 30.0938 511.29 30.1932 510.968 30.392C510.646 30.5862 510.485 30.8466 510.485 31.1733C510.485 31.4337 510.589 31.6539 510.797 31.8338C511.006 32.0137 511.363 32.1581 511.87 32.267L513.844 32.6648C514.905 32.8826 515.695 33.233 516.216 33.7159C516.737 34.1989 516.998 34.8333 516.998 35.6193C516.998 36.3343 516.787 36.9616 516.365 37.5014C515.949 38.0412 515.376 38.4626 514.647 38.7656C513.922 39.0639 513.087 39.2131 512.14 39.2131C510.695 39.2131 509.545 38.9124 508.688 38.3111C507.836 37.705 507.336 36.8812 507.189 35.8395L510.165 35.6832C510.255 36.1236 510.473 36.4598 510.819 36.6918C511.164 36.919 511.607 37.0327 512.147 37.0327C512.677 37.0327 513.103 36.9309 513.425 36.7273C513.752 36.5189 513.917 36.2514 513.922 35.9247C513.917 35.6501 513.801 35.4252 513.574 35.25C513.347 35.0701 512.997 34.9328 512.523 34.8381L510.634 34.4616C509.569 34.2486 508.775 33.8793 508.255 33.3537C507.739 32.8281 507.48 32.1581 507.48 31.3438C507.48 30.643 507.67 30.0393 508.049 29.5327C508.432 29.026 508.97 28.6354 509.661 28.3608C510.357 28.0862 511.171 27.9489 512.104 27.9489C513.482 27.9489 514.566 28.2401 515.357 28.8224C516.152 29.4048 516.616 30.1979 516.749 31.2017ZM518.903 39V28.0909H521.928V39H518.903ZM520.423 26.6847C519.973 26.6847 519.587 26.5355 519.265 26.2372C518.948 25.9342 518.789 25.572 518.789 25.1506C518.789 24.7339 518.948 24.3764 519.265 24.0781C519.587 23.7751 519.973 23.6236 520.423 23.6236C520.872 23.6236 521.256 23.7751 521.573 24.0781C521.895 24.3764 522.056 24.7339 522.056 25.1506C522.056 25.572 521.895 25.9342 521.573 26.2372C521.256 26.5355 520.872 26.6847 520.423 26.6847ZM529.281 39.2131C528.163 39.2131 527.202 38.9763 526.397 38.5028C525.597 38.0246 524.982 37.3617 524.551 36.5142C524.125 35.6667 523.912 34.6913 523.912 33.5881C523.912 32.4706 524.127 31.4905 524.558 30.6477C524.993 29.8002 525.611 29.1397 526.412 28.6662C527.212 28.188 528.163 27.9489 529.267 27.9489C530.218 27.9489 531.052 28.1217 531.767 28.4673C532.482 28.813 533.047 29.2983 533.464 29.9233C533.881 30.5483 534.11 31.2822 534.153 32.125H531.298C531.217 31.5805 531.004 31.1425 530.659 30.8111C530.318 30.4749 529.87 30.3068 529.316 30.3068C528.848 30.3068 528.438 30.4347 528.088 30.6903C527.742 30.9413 527.472 31.3082 527.278 31.7912C527.084 32.2741 526.987 32.8589 526.987 33.5455C526.987 34.2415 527.082 34.8333 527.271 35.321C527.465 35.8087 527.737 36.1804 528.088 36.4361C528.438 36.6918 528.848 36.8196 529.316 36.8196C529.662 36.8196 529.972 36.7486 530.247 36.6065C530.526 36.4645 530.756 36.2585 530.936 35.9886C531.12 35.714 531.241 35.3849 531.298 35.0014H534.153C534.106 35.8348 533.878 36.5687 533.471 37.2031C533.069 37.8329 532.512 38.3253 531.802 38.6804C531.092 39.0355 530.252 39.2131 529.281 39.2131ZM539.201 39.206C538.505 39.206 537.885 39.0852 537.34 38.8438C536.796 38.5975 536.365 38.2353 536.048 37.7571C535.735 37.2741 535.579 36.6728 535.579 35.9531C535.579 35.3471 535.69 34.8381 535.913 34.4261C536.135 34.0142 536.438 33.6828 536.822 33.4318C537.205 33.1809 537.641 32.9915 538.129 32.8636C538.621 32.7358 539.137 32.6458 539.677 32.5938C540.311 32.5275 540.823 32.4659 541.211 32.4091C541.599 32.3475 541.881 32.2576 542.056 32.1392C542.231 32.0208 542.319 31.8456 542.319 31.6136V31.571C542.319 31.1212 542.177 30.7732 541.893 30.527C541.613 30.2808 541.216 30.1577 540.7 30.1577C540.155 30.1577 539.722 30.2784 539.4 30.5199C539.078 30.7566 538.865 31.0549 538.761 31.4148L535.962 31.1875C536.104 30.5246 536.384 29.9517 536.8 29.4688C537.217 28.9811 537.754 28.607 538.413 28.3466C539.076 28.0814 539.843 27.9489 540.714 27.9489C541.32 27.9489 541.9 28.0199 542.454 28.1619C543.013 28.304 543.507 28.5241 543.938 28.8224C544.374 29.1207 544.717 29.5043 544.968 29.973C545.219 30.437 545.344 30.9934 545.344 31.642V39H542.475V37.4872H542.39C542.215 37.8281 541.98 38.1288 541.687 38.3892C541.393 38.6449 541.04 38.8461 540.629 38.9929C540.217 39.1349 539.741 39.206 539.201 39.206ZM540.067 37.1179C540.513 37.1179 540.906 37.0303 541.246 36.8551C541.587 36.6752 541.855 36.4337 542.049 36.1307C542.243 35.8277 542.34 35.4844 542.34 35.1009V33.9432C542.246 34.0047 542.115 34.0616 541.95 34.1136C541.789 34.161 541.606 34.206 541.403 34.2486C541.199 34.2865 540.996 34.322 540.792 34.3551C540.588 34.3835 540.404 34.4096 540.238 34.4332C539.883 34.4853 539.573 34.5682 539.308 34.6818C539.042 34.7955 538.836 34.9493 538.69 35.1435C538.543 35.3329 538.469 35.5696 538.469 35.8537C538.469 36.2656 538.619 36.5805 538.917 36.7983C539.22 37.0114 539.603 37.1179 540.067 37.1179ZM550.717 24.4545V39H547.692V24.4545H550.717Z" fill="black"/>
</svg>
