<svg width="1408" height="612" viewBox="0 0 1408 612" fill="none" xmlns="http://www.w3.org/2000/svg">
<path d="M54.9304 6.09091V25H52.0774V6.09091H54.9304ZM74.3473 6.09091V25H71.7251L62.1136 11.1321H61.9382V25H59.0852V6.09091H61.7259L71.3466 19.9773H71.522V6.09091H74.3473ZM88.8223 11.0582C88.7238 10.1842 88.3175 9.5071 87.6035 9.02699C86.8895 8.54072 85.9908 8.29759 84.9075 8.29759C84.1319 8.29759 83.461 8.42069 82.8947 8.6669C82.3284 8.90696 81.8883 9.23935 81.5744 9.66406C81.2666 10.0826 81.1127 10.5597 81.1127 11.0952C81.1127 11.5445 81.2174 11.9323 81.4267 12.2585C81.6421 12.5848 81.9222 12.8587 82.2669 13.0803C82.6177 13.2957 82.9932 13.4773 83.3933 13.625C83.7934 13.7666 84.1781 13.8835 84.5474 13.9759L86.394 14.456C86.9972 14.6037 87.6158 14.8037 88.2498 15.0561C88.8838 15.3085 89.4717 15.6409 90.0133 16.0533C90.555 16.4657 90.992 16.9766 91.3244 17.5859C91.6629 18.1953 91.8322 18.9247 91.8322 19.7741C91.8322 20.8452 91.5552 21.7962 91.0012 22.6271C90.4534 23.4581 89.6563 24.1136 88.6099 24.5938C87.5697 25.0739 86.3109 25.3139 84.8336 25.3139C83.4179 25.3139 82.193 25.0893 81.1589 24.6399C80.1248 24.1906 79.3154 23.5535 78.7306 22.7287C78.1459 21.8977 77.8227 20.9129 77.7612 19.7741H80.6234C80.6788 20.4574 80.9004 21.0268 81.2882 21.4822C81.6821 21.9316 82.1838 22.267 82.7931 22.4886C83.4087 22.7041 84.0827 22.8118 84.8152 22.8118C85.6215 22.8118 86.3386 22.6856 86.9664 22.4332C87.6004 22.1747 88.099 21.8177 88.4622 21.3622C88.8253 20.9006 89.0069 20.362 89.0069 19.7464C89.0069 19.1863 88.8469 18.7277 88.5268 18.3707C88.2129 18.0137 87.7851 17.7183 87.2434 17.4844C86.7079 17.2505 86.1016 17.0443 85.4245 16.8658L83.1902 16.2564C81.676 15.844 80.4757 15.2377 79.5893 14.4375C78.7091 13.6373 78.269 12.5786 78.269 11.2614C78.269 10.1719 78.5645 9.22088 79.1554 8.40838C79.7463 7.59588 80.5465 6.96496 81.5559 6.51562C82.5654 6.06013 83.7041 5.83239 84.9721 5.83239C86.2524 5.83239 87.3819 6.05705 88.3606 6.50639C89.3455 6.95573 90.121 7.57434 90.6873 8.36221C91.2536 9.14394 91.5491 10.0426 91.5737 11.0582H88.8223ZM98.0945 6.09091V25H95.2415V6.09091H98.0945ZM108.371 25H102.249V6.09091H108.565C110.417 6.09091 112.009 6.46946 113.338 7.22656C114.668 7.97751 115.686 9.05776 116.394 10.4673C117.108 11.8707 117.465 13.5542 117.465 15.5178C117.465 17.4875 117.105 19.1802 116.385 20.5959C115.671 22.0116 114.637 23.1011 113.283 23.8643C111.929 24.6214 110.291 25 108.371 25ZM105.102 22.5071H108.214C109.654 22.5071 110.851 22.2363 111.805 21.6946C112.759 21.1468 113.473 20.3558 113.947 19.3217C114.421 18.2815 114.658 17.0135 114.658 15.5178C114.658 14.0343 114.421 12.7756 113.947 11.7415C113.48 10.7074 112.781 9.92258 111.852 9.38707C110.922 8.85156 109.768 8.58381 108.389 8.58381L105.102 8.58381V22.5071ZM121.013 25V6.09091H132.868V8.54687H123.866V14.3082H132.249V16.755H123.866V22.544H132.979V25H121.013ZM155.119 24.1598L153.458 22.5163L159.228 16.7457H144.732V14.3452H159.228L153.458 8.58381L155.119 6.93111L163.734 15.5455L155.119 24.1598ZM191.673 15.5455C191.673 17.5644 191.303 19.3002 190.565 20.7528C189.826 22.1993 188.814 23.3134 187.527 24.0952C186.247 24.8707 184.791 25.2585 183.16 25.2585C181.523 25.2585 180.061 24.8707 178.774 24.0952C177.494 23.3134 176.485 22.1963 175.746 20.7436C175.007 19.291 174.638 17.5582 174.638 15.5455C174.638 13.5265 175.007 11.7938 175.746 10.3473C176.485 8.89465 177.494 7.78054 178.774 7.00497C180.061 6.22325 181.523 5.83239 183.16 5.83239C184.791 5.83239 186.247 6.22325 187.527 7.00497C188.814 7.78054 189.826 8.89465 190.565 10.3473C191.303 11.7938 191.673 13.5265 191.673 15.5455ZM188.847 15.5455C188.847 14.0066 188.598 12.7109 188.1 11.6584C187.607 10.5997 186.93 9.79948 186.068 9.25781C185.213 8.70999 184.243 8.43608 183.16 8.43608C182.07 8.43608 181.098 8.70999 180.242 9.25781C179.387 9.79948 178.71 10.5997 178.211 11.6584C177.719 12.7109 177.472 14.0066 177.472 15.5455C177.472 17.0843 177.719 18.383 178.211 19.4418C178.71 20.4943 179.387 21.2945 180.242 21.8423C181.098 22.384 182.07 22.6548 183.16 22.6548C184.243 22.6548 185.213 22.384 186.068 21.8423C186.93 21.2945 187.607 20.4943 188.1 19.4418C188.598 18.383 188.847 17.0843 188.847 15.5455ZM207.39 6.09091H210.252V18.5277C210.252 19.8511 209.941 21.0237 209.319 22.0455C208.698 23.0611 207.824 23.8613 206.697 24.446C205.571 25.0246 204.25 25.3139 202.736 25.3139C201.228 25.3139 199.911 25.0246 198.784 24.446C197.658 23.8613 196.784 23.0611 196.162 22.0455C195.541 21.0237 195.23 19.8511 195.23 18.5277V6.09091H198.083V18.2969C198.083 19.1525 198.27 19.9126 198.646 20.5774C199.028 21.2422 199.566 21.7654 200.262 22.147C200.957 22.5225 201.782 22.7102 202.736 22.7102C203.696 22.7102 204.524 22.5225 205.22 22.147C205.922 21.7654 206.457 21.2422 206.826 20.5774C207.202 19.9126 207.39 19.1525 207.39 18.2969V6.09091ZM213.467 8.54687V6.09091H228.101V8.54687L222.202 8.54687V25H219.358V8.54687H213.467Z" fill="#A9B4B9"/>
<path d="M1029.93 6.09091V25H1027.08V6.09091H1029.93ZM1049.35 6.09091V25H1046.73L1037.11 11.1321H1036.94V25H1034.09V6.09091H1036.73L1046.35 19.9773H1046.52V6.09091H1049.35ZM1068.77 6.09091V25H1066.15L1056.54 11.1321H1056.36V25H1053.51V6.09091L1056.15 6.09091L1065.77 19.9773H1065.95V6.09091H1068.77ZM1089.36 15.5455C1089.36 17.5644 1088.99 19.3002 1088.25 20.7528C1087.51 22.1993 1086.5 23.3134 1085.21 24.0952C1083.93 24.8707 1082.48 25.2585 1080.85 25.2585C1079.21 25.2585 1077.75 24.8707 1076.46 24.0952C1075.18 23.3134 1074.17 22.1963 1073.43 20.7436C1072.69 19.291 1072.32 17.5582 1072.32 15.5455C1072.32 13.5265 1072.69 11.7938 1073.43 10.3473C1074.17 8.89465 1075.18 7.78054 1076.46 7.00497C1077.75 6.22325 1079.21 5.83239 1080.85 5.83239C1082.48 5.83239 1083.93 6.22325 1085.21 7.00497C1086.5 7.78054 1087.51 8.89465 1088.25 10.3473C1088.99 11.7938 1089.36 13.5265 1089.36 15.5455ZM1086.53 15.5455C1086.53 14.0066 1086.28 12.7109 1085.79 11.6584C1085.29 10.5997 1084.62 9.79948 1083.75 9.25781C1082.9 8.70999 1081.93 8.43608 1080.85 8.43608C1079.76 8.43608 1078.78 8.70999 1077.93 9.25781C1077.07 9.79948 1076.4 10.5997 1075.9 11.6584C1075.4 12.7109 1075.16 14.0066 1075.16 15.5455C1075.16 17.0843 1075.4 18.383 1075.9 19.4418C1076.4 20.4943 1077.07 21.2945 1077.93 21.8423C1078.78 22.384 1079.76 22.6548 1080.85 22.6548C1081.93 22.6548 1082.9 22.384 1083.75 21.8423C1084.62 21.2945 1085.29 20.4943 1085.79 19.4418C1086.28 18.383 1086.53 17.0843 1086.53 15.5455ZM1093.63 6.09091L1098.89 21.4915H1099.1L1104.37 6.09091H1107.45L1100.65 25H1097.35L1090.54 6.09091H1093.63ZM1109.85 25H1106.82L1113.62 6.09091H1116.92L1123.73 25H1120.7L1115.35 9.52557H1115.2L1109.85 25ZM1110.36 17.5952H1120.18V19.9957H1110.36V17.5952ZM1123.29 8.54687V6.09091H1137.92V8.54687H1132.02V25H1129.18V8.54687H1123.29ZM1144.01 6.09091V25H1141.16V6.09091H1144.01ZM1164.59 15.5455C1164.59 17.5644 1164.22 19.3002 1163.48 20.7528C1162.74 22.1993 1161.73 23.3134 1160.45 24.0952C1159.16 24.8707 1157.71 25.2585 1156.08 25.2585C1154.44 25.2585 1152.98 24.8707 1151.69 24.0952C1150.41 23.3134 1149.4 22.1963 1148.66 20.7436C1147.93 19.291 1147.56 17.5582 1147.56 15.5455C1147.56 13.5265 1147.93 11.7938 1148.66 10.3473C1149.4 8.89465 1150.41 7.78054 1151.69 7.00497C1152.98 6.22325 1154.44 5.83239 1156.08 5.83239C1157.71 5.83239 1159.16 6.22325 1160.45 7.00497C1161.73 7.78054 1162.74 8.89465 1163.48 10.3473C1164.22 11.7938 1164.59 13.5265 1164.59 15.5455ZM1161.77 15.5455C1161.77 14.0066 1161.52 12.7109 1161.02 11.6584C1160.53 10.5997 1159.85 9.79948 1158.99 9.25781C1158.13 8.70999 1157.16 8.43608 1156.08 8.43608C1154.99 8.43608 1154.02 8.70999 1153.16 9.25781C1152.3 9.79948 1151.63 10.5997 1151.13 11.6584C1150.64 12.7109 1150.39 14.0066 1150.39 15.5455C1150.39 17.0843 1150.64 18.383 1151.13 19.4418C1151.63 20.4943 1152.3 21.2945 1153.16 21.8423C1154.02 22.384 1154.99 22.6548 1156.08 22.6548C1157.16 22.6548 1158.13 22.384 1158.99 21.8423C1159.85 21.2945 1160.53 20.4943 1161.02 19.4418C1161.52 18.383 1161.77 17.0843 1161.77 15.5455ZM1183.41 6.09091V25H1180.79L1171.18 11.1321H1171V25H1168.15V6.09091L1170.79 6.09091L1180.41 19.9773H1180.58V6.09091H1183.41ZM1210.88 15.5455C1210.88 17.5644 1210.51 19.3002 1209.77 20.7528C1209.03 22.1993 1208.02 23.3134 1206.73 24.0952C1205.45 24.8707 1204 25.2585 1202.37 25.2585C1200.73 25.2585 1199.27 24.8707 1197.98 24.0952C1196.7 23.3134 1195.69 22.1963 1194.95 20.7436C1194.21 19.291 1193.84 17.5582 1193.84 15.5455C1193.84 13.5265 1194.21 11.7938 1194.95 10.3473C1195.69 8.89465 1196.7 7.78054 1197.98 7.00497C1199.27 6.22325 1200.73 5.83239 1202.37 5.83239C1204 5.83239 1205.45 6.22325 1206.73 7.00497C1208.02 7.78054 1209.03 8.89465 1209.77 10.3473C1210.51 11.7938 1210.88 13.5265 1210.88 15.5455ZM1208.05 15.5455C1208.05 14.0066 1207.8 12.7109 1207.3 11.6584C1206.81 10.5997 1206.14 9.79948 1205.27 9.25781C1204.42 8.70999 1203.45 8.43608 1202.37 8.43608C1201.28 8.43608 1200.3 8.70999 1199.45 9.25781C1198.59 9.79948 1197.91 10.5997 1197.42 11.6584C1196.92 12.7109 1196.68 14.0066 1196.68 15.5455C1196.68 17.0843 1196.92 18.383 1197.42 19.4418C1197.91 20.4943 1198.59 21.2945 1199.45 21.8423C1200.3 22.384 1201.28 22.6548 1202.37 22.6548C1203.45 22.6548 1204.42 22.384 1205.27 21.8423C1206.14 21.2945 1206.81 20.4943 1207.3 19.4418C1207.8 18.383 1208.05 17.0843 1208.05 15.5455ZM1214.43 25V6.09091H1226.16V8.54687H1217.29V14.3082H1225.32V16.755H1217.29V25H1214.43ZM1236.55 6.09091H1240.01L1246.03 20.7898H1246.25L1252.27 6.09091H1255.74V25H1253.02V11.3168H1252.85L1247.27 24.9723H1245.02L1239.44 11.3075H1239.26V25H1236.55V6.09091ZM1259.88 25V6.09091H1271.74V8.54687H1262.74V14.3082H1271.12V16.755H1262.74V22.544H1271.85V25H1259.88ZM1277.15 25H1274.12L1280.92 6.09091H1284.22L1291.02 25H1288L1282.65 9.52557H1282.5L1277.15 25ZM1277.66 17.5952H1287.48V19.9957H1277.66V17.5952ZM1309.02 6.09091V25H1306.4L1296.78 11.1321H1296.61V25H1293.76V6.09091H1296.4L1306.02 19.9773H1306.19V6.09091H1309.02ZM1316.03 6.09091V25H1313.18V6.09091H1316.03ZM1335.45 6.09091V25H1332.83L1323.22 11.1321H1323.04V25H1320.19V6.09091H1322.83L1332.45 19.9773H1332.62V6.09091H1335.45ZM1352.41 12.0646C1352.23 11.5045 1351.99 11.0028 1351.69 10.5597C1351.39 10.1103 1351.04 9.72869 1350.63 9.41477C1350.21 9.0947 1349.74 8.85156 1349.21 8.68537C1348.69 8.51918 1348.11 8.43608 1347.49 8.43608C1346.42 8.43608 1345.46 8.70999 1344.61 9.25781C1343.75 9.80563 1343.07 10.6089 1342.57 11.6676C1342.08 12.7202 1341.84 14.0097 1341.84 15.5362C1341.84 17.0689 1342.09 18.3646 1342.58 19.4233C1343.08 20.482 1343.77 21.2853 1344.63 21.8331C1345.5 22.3809 1346.49 22.6548 1347.6 22.6548C1348.63 22.6548 1349.52 22.4455 1350.28 22.027C1351.05 21.6084 1351.65 21.0175 1352.07 20.2543C1352.49 19.4848 1352.7 18.58 1352.7 17.5398L1353.44 17.6783H1348.03V15.3239H1355.46V17.4751C1355.46 19.0632 1355.13 20.442 1354.45 21.6115C1353.78 22.7749 1352.85 23.6735 1351.66 24.3075C1350.48 24.9415 1349.12 25.2585 1347.6 25.2585C1345.89 25.2585 1344.38 24.8646 1343.09 24.0767C1341.8 23.2888 1340.8 22.1716 1340.08 20.7251C1339.36 19.2725 1339 17.549 1339 15.5547C1339 14.0466 1339.21 12.6925 1339.63 11.4922C1340.05 10.2919 1340.64 9.2732 1341.39 8.43608C1342.16 7.5928 1343.05 6.94957 1344.08 6.50639C1345.11 6.05705 1346.24 5.83239 1347.47 5.83239C1348.49 5.83239 1349.44 5.98319 1350.32 6.2848C1351.21 6.58641 1352 7.0142 1352.68 7.56818C1353.38 8.12216 1353.96 8.78078 1354.41 9.54403C1354.87 10.3011 1355.17 11.1413 1355.33 12.0646H1352.41Z" fill="#A9B4B9"/>
<rect y="41" width="1408" height="240" rx="40" fill="#F8F1F1"/>
<path d="M86.6056 89.856C85.677 90.1238 85.1412 91.0937 85.409 92.0224C85.6768 92.951 86.6467 93.4868 87.5754 93.219L86.6056 89.856ZM90.8421 91L90.8421 89.25L90.8365 89.25L90.8421 91ZM104.678 105.71H106.428H104.678ZM90.8421 120.42L90.841 118.67C89.8747 118.671 89.0918 119.455 89.0921 120.421C89.0925 121.387 89.8759 122.17 90.8421 122.17L90.8421 120.42ZM48.5401 130.034C48.0072 130.841 48.2288 131.926 49.035 132.459C49.8413 132.992 50.927 132.771 51.4599 131.964L48.5401 130.034ZM86.8547 131.964C87.3877 132.771 88.4733 132.992 89.2796 132.459C90.0859 131.926 90.3075 130.841 89.7746 130.034L86.8547 131.964ZM108.54 131.964C109.072 132.771 110.158 132.993 110.964 132.46C111.771 131.928 111.993 130.842 111.46 130.036L108.54 131.964ZM81.2433 105.71C81.2433 112.97 75.7329 118.67 69.1575 118.67V122.17C77.8648 122.17 84.7433 114.698 84.7433 105.71H81.2433ZM69.1575 118.67C62.5821 118.67 57.0716 112.97 57.0716 105.71H53.5716C53.5716 114.698 60.4502 122.17 69.1575 122.17V118.67ZM57.0716 105.71C57.0716 98.4499 62.5821 92.75 69.1575 92.75V89.25C60.4502 89.25 53.5716 96.722 53.5716 105.71H57.0716ZM69.1575 92.75C75.7329 92.75 81.2433 98.4499 81.2433 105.71H84.7433C84.7433 96.722 77.8648 89.25 69.1575 89.25V92.75ZM87.5754 93.219C88.6434 92.911 89.7434 92.7536 90.8478 92.75L90.8365 89.25C89.4063 89.2546 87.9838 89.4586 86.6056 89.856L87.5754 93.219ZM90.8421 92.75C94.0117 92.75 97.0748 94.0877 99.3508 96.5075L101.9 94.1095C98.9868 91.0119 95.0116 89.25 90.8421 89.25V92.75ZM99.3508 96.5075C101.63 98.9309 102.928 102.239 102.928 105.71H106.428C106.428 101.378 104.81 97.2035 101.9 94.1095L99.3508 96.5075ZM102.928 105.71C102.928 109.181 101.63 112.489 99.3508 114.913L101.9 117.311C104.81 114.217 106.428 110.042 106.428 105.71H102.928ZM99.3508 114.913C97.0748 117.333 94.0117 118.67 90.8421 118.67V122.17C95.0116 122.17 98.9868 120.408 101.9 117.311L99.3508 114.913ZM51.4599 131.964C53.4691 128.925 56.1296 126.454 59.2093 124.753L57.5172 121.69C53.9282 123.672 50.8517 126.537 48.5401 130.034L51.4599 131.964ZM59.2093 124.753C62.2879 123.053 65.6997 122.17 69.1575 122.17V118.67C65.1004 118.67 61.1073 119.707 57.5172 121.69L59.2093 124.753ZM69.1575 122.17C72.6153 122.17 76.0267 123.053 79.1053 124.753L80.7975 121.69C77.2073 119.707 73.2146 118.67 69.1575 118.67V122.17ZM79.1053 124.753C82.185 126.454 84.8456 128.925 86.8547 131.964L89.7746 130.034C87.463 126.537 84.3865 123.672 80.7975 121.69L79.1053 124.753ZM90.8433 122.17C94.3006 122.168 97.7132 123.051 100.792 124.751L102.484 121.688C98.8937 119.705 94.8992 118.668 90.841 118.67L90.8433 122.17ZM100.792 124.751C103.872 126.452 106.532 128.923 108.54 131.964L111.46 130.036C109.15 126.537 106.074 123.67 102.484 121.688L100.792 124.751Z" fill="#224757"/>
<path d="M52.8764 186V159.818H62.2088C64.2457 159.818 65.9332 160.189 67.2713 160.93C68.6094 161.672 69.6108 162.686 70.2756 163.973C70.9403 165.251 71.2727 166.692 71.2727 168.294C71.2727 169.905 70.9361 171.354 70.2628 172.641C69.598 173.919 68.5923 174.933 67.2457 175.683C65.9077 176.425 64.2244 176.795 62.196 176.795H55.7784V173.446H61.8381C63.125 173.446 64.169 173.224 64.9702 172.781C65.7713 172.33 66.3594 171.716 66.7344 170.94C67.1094 170.165 67.2969 169.283 67.2969 168.294C67.2969 167.305 67.1094 166.428 66.7344 165.661C66.3594 164.893 65.767 164.293 64.9574 163.858C64.1563 163.423 63.0994 163.206 61.7869 163.206H56.8267V186H52.8764ZM83.8139 186.396C81.8793 186.396 80.2131 185.983 78.8153 185.156C77.4261 184.321 76.3523 183.149 75.5938 181.641C74.8438 180.124 74.4688 178.347 74.4688 176.31C74.4688 174.298 74.8438 172.526 75.5938 170.991C76.3523 169.457 77.4091 168.26 78.7642 167.399C80.1278 166.538 81.7216 166.108 83.5455 166.108C84.6534 166.108 85.7273 166.291 86.767 166.658C87.8068 167.024 88.7401 167.599 89.5668 168.384C90.3935 169.168 91.0455 170.186 91.5227 171.439C92 172.683 92.2386 174.196 92.2386 175.977V177.332H76.6293V174.469H88.4929C88.4929 173.463 88.2884 172.572 87.8793 171.797C87.4702 171.013 86.8949 170.395 86.1534 169.943C85.4205 169.491 84.5597 169.266 83.571 169.266C82.4972 169.266 81.5597 169.53 80.7585 170.058C79.9659 170.578 79.3523 171.26 78.9176 172.104C78.4915 172.939 78.2784 173.847 78.2784 174.827V177.064C78.2784 178.376 78.5085 179.493 78.9688 180.413C79.4375 181.334 80.0895 182.037 80.9247 182.523C81.7599 183 82.7358 183.239 83.8523 183.239C84.5767 183.239 85.2372 183.136 85.8338 182.932C86.4304 182.719 86.946 182.403 87.3807 181.986C87.8153 181.568 88.1477 181.053 88.3778 180.439L91.9957 181.091C91.706 182.156 91.1861 183.089 90.4361 183.891C89.6946 184.683 88.7614 185.301 87.6364 185.744C86.5199 186.179 85.2457 186.396 83.8139 186.396ZM104.751 186.396C102.91 186.396 101.304 185.974 99.9315 185.131C98.5593 184.287 97.494 183.107 96.7354 181.589C95.9769 180.072 95.5977 178.3 95.5977 176.271C95.5977 174.234 95.9769 172.453 96.7354 170.928C97.494 169.402 98.5593 168.217 99.9315 167.374C101.304 166.53 102.91 166.108 104.751 166.108C106.592 166.108 108.199 166.53 109.571 167.374C110.943 168.217 112.008 169.402 112.767 170.928C113.525 172.453 113.904 174.234 113.904 176.271C113.904 178.3 113.525 180.072 112.767 181.589C112.008 183.107 110.943 184.287 109.571 185.131C108.199 185.974 106.592 186.396 104.751 186.396ZM104.764 183.188C105.957 183.188 106.946 182.872 107.73 182.241C108.514 181.611 109.093 180.771 109.468 179.723C109.852 178.675 110.044 177.52 110.044 176.259C110.044 175.006 109.852 173.855 109.468 172.807C109.093 171.75 108.514 170.902 107.73 170.263C106.946 169.624 105.957 169.304 104.764 169.304C103.562 169.304 102.565 169.624 101.772 170.263C100.988 170.902 100.404 171.75 100.021 172.807C99.646 173.855 99.4585 175.006 99.4585 176.259C99.4585 177.52 99.646 178.675 100.021 179.723C100.404 180.771 100.988 181.611 101.772 182.241C102.565 182.872 103.562 183.188 104.764 183.188ZM118.171 193.364V166.364H121.904V169.547H122.224C122.445 169.138 122.765 168.665 123.183 168.128C123.6 167.591 124.18 167.122 124.921 166.722C125.663 166.312 126.643 166.108 127.862 166.108C129.447 166.108 130.862 166.509 132.106 167.31C133.35 168.111 134.326 169.266 135.033 170.774C135.749 172.283 136.107 174.098 136.107 176.22C136.107 178.342 135.754 180.162 135.046 181.679C134.339 183.187 133.367 184.351 132.131 185.169C130.896 185.979 129.485 186.384 127.9 186.384C126.707 186.384 125.731 186.183 124.972 185.783C124.222 185.382 123.634 184.913 123.208 184.376C122.782 183.839 122.454 183.362 122.224 182.945H121.994V193.364H118.171ZM121.917 176.182C121.917 177.562 122.117 178.773 122.518 179.812C122.918 180.852 123.498 181.666 124.256 182.254C125.015 182.834 125.944 183.124 127.043 183.124C128.185 183.124 129.14 182.821 129.907 182.216C130.674 181.602 131.254 180.771 131.646 179.723C132.046 178.675 132.246 177.494 132.246 176.182C132.246 174.886 132.05 173.723 131.658 172.692C131.275 171.661 130.695 170.847 129.92 170.25C129.153 169.653 128.194 169.355 127.043 169.355C125.935 169.355 124.998 169.641 124.231 170.212C123.472 170.783 122.897 171.58 122.505 172.602C122.113 173.625 121.917 174.818 121.917 176.182ZM144.212 159.818V186H140.39V159.818H144.212ZM157.818 186.396C155.883 186.396 154.217 185.983 152.819 185.156C151.43 184.321 150.356 183.149 149.598 181.641C148.848 180.124 148.473 178.347 148.473 176.31C148.473 174.298 148.848 172.526 149.598 170.991C150.356 169.457 151.413 168.26 152.768 167.399C154.132 166.538 155.725 166.108 157.549 166.108C158.657 166.108 159.731 166.291 160.771 166.658C161.811 167.024 162.744 167.599 163.571 168.384C164.397 169.168 165.049 170.186 165.527 171.439C166.004 172.683 166.243 174.196 166.243 175.977V177.332H150.633V174.469H162.497C162.497 173.463 162.292 172.572 161.883 171.797C161.474 171.013 160.899 170.395 160.157 169.943C159.424 169.491 158.564 169.266 157.575 169.266C156.501 169.266 155.564 169.53 154.762 170.058C153.97 170.578 153.356 171.26 152.922 172.104C152.495 172.939 152.282 173.847 152.282 174.827V177.064C152.282 178.376 152.512 179.493 152.973 180.413C153.441 181.334 154.093 182.037 154.929 182.523C155.764 183 156.74 183.239 157.856 183.239C158.581 183.239 159.241 183.136 159.838 182.932C160.434 182.719 160.95 182.403 161.385 181.986C161.819 181.568 162.152 181.053 162.382 180.439L166 181.091C165.71 182.156 165.19 183.089 164.44 183.891C163.699 184.683 162.765 185.301 161.64 185.744C160.524 186.179 159.25 186.396 157.818 186.396Z" fill="#224757"/>
<path d="M55.7798 225L50.5355 206.091H53.5362L57.2202 220.734H57.3956L61.2273 206.091H64.2003L68.032 220.744H68.2074L71.8821 206.091H74.892L69.6385 225H66.767L62.7876 210.837H62.6399L58.6605 225H55.7798ZM77.4934 225V206.091H80.3464V214.308H89.7733V206.091H92.6355V225H89.7733V216.755H80.3464V225H77.4934ZM113.216 215.545C113.216 217.564 112.846 219.3 112.108 220.753C111.369 222.199 110.357 223.313 109.07 224.095C107.79 224.871 106.334 225.259 104.703 225.259C103.066 225.259 101.604 224.871 100.317 224.095C99.037 223.313 98.0275 222.196 97.2889 220.744C96.5502 219.291 96.1809 217.558 96.1809 215.545C96.1809 213.527 96.5502 211.794 97.2889 210.347C98.0275 208.895 99.037 207.781 100.317 207.005C101.604 206.223 103.066 205.832 104.703 205.832C106.334 205.832 107.79 206.223 109.07 207.005C110.357 207.781 111.369 208.895 112.108 210.347C112.846 211.794 113.216 213.527 113.216 215.545ZM110.39 215.545C110.39 214.007 110.141 212.711 109.643 211.658C109.15 210.6 108.473 209.799 107.611 209.258C106.756 208.71 105.786 208.436 104.703 208.436C103.613 208.436 102.641 208.71 101.785 209.258C100.93 209.799 100.253 210.6 99.7541 211.658C99.2617 212.711 99.0154 214.007 99.0154 215.545C99.0154 217.084 99.2617 218.383 99.7541 219.442C100.253 220.494 100.93 221.295 101.785 221.842C102.641 222.384 103.613 222.655 104.703 222.655C105.786 222.655 106.756 222.384 107.611 221.842C108.473 221.295 109.15 220.494 109.643 219.442C110.141 218.383 110.39 217.084 110.39 215.545ZM119.57 219.562V219.386C119.583 218.241 119.696 217.33 119.912 216.653C120.134 215.976 120.447 215.429 120.854 215.01C121.26 214.591 121.749 214.21 122.322 213.865C122.691 213.631 123.023 213.37 123.319 213.08C123.614 212.791 123.848 212.459 124.021 212.083C124.193 211.708 124.279 211.292 124.279 210.837C124.279 210.289 124.15 209.815 123.891 209.415C123.633 209.015 123.288 208.707 122.857 208.491C122.433 208.27 121.959 208.159 121.435 208.159C120.961 208.159 120.509 208.258 120.078 208.455C119.647 208.652 119.29 208.959 119.007 209.378C118.724 209.79 118.561 210.323 118.518 210.975H115.711C115.754 209.867 116.034 208.932 116.551 208.168C117.068 207.399 117.751 206.817 118.601 206.423C119.456 206.029 120.401 205.832 121.435 205.832C122.568 205.832 123.559 206.045 124.408 206.469C125.258 206.888 125.916 207.476 126.384 208.233C126.858 208.984 127.095 209.861 127.095 210.864C127.095 211.554 126.987 212.175 126.772 212.729C126.557 213.277 126.249 213.767 125.849 214.197C125.455 214.628 124.981 215.01 124.427 215.342C123.904 215.669 123.479 216.007 123.153 216.358C122.833 216.709 122.599 217.124 122.451 217.604C122.303 218.085 122.223 218.679 122.211 219.386V219.562H119.57ZM120.964 225.175C120.46 225.175 120.026 224.997 119.663 224.64C119.299 224.277 119.118 223.84 119.118 223.329C119.118 222.824 119.299 222.393 119.663 222.036C120.026 221.673 120.46 221.491 120.964 221.491C121.463 221.491 121.894 221.673 122.257 222.036C122.626 222.393 122.811 222.824 122.811 223.329C122.811 223.667 122.725 223.978 122.553 224.261C122.386 224.538 122.165 224.76 121.888 224.926C121.611 225.092 121.303 225.175 120.964 225.175Z" fill="#A9B4B9"/>
<path d="M318 158.5C316.619 158.5 315.5 159.619 315.5 161C315.5 162.381 316.619 163.5 318 163.5V158.5ZM469.768 162.768C470.744 161.791 470.744 160.209 469.768 159.232L453.858 143.322C452.882 142.346 451.299 142.346 450.322 143.322C449.346 144.299 449.346 145.882 450.322 146.858L464.464 161L450.322 175.142C449.346 176.118 449.346 177.701 450.322 178.678C451.299 179.654 452.882 179.654 453.858 178.678L469.768 162.768ZM318 163.5H468V158.5H318V163.5Z" fill="#FF9900"/>
<path fill-rule="evenodd" clip-rule="evenodd" d="M619.607 113.742C620.656 115.877 622.177 117.746 624.054 119.207C624.357 119.446 624.602 119.75 624.771 120.096C624.941 120.443 625.03 120.822 625.034 121.208V122.256C625.034 123.083 625.362 123.876 625.947 124.461C626.532 125.046 627.325 125.374 628.152 125.374H639.405C640.232 125.374 641.025 125.046 641.61 124.461C642.195 123.876 642.523 123.083 642.523 122.256V121.203C642.524 120.816 642.614 120.434 642.785 120.086C642.956 119.738 643.205 119.434 643.511 119.196L643.522 119.189C646.128 117.142 648.024 114.327 648.941 111.143C649.857 107.958 649.748 104.566 648.628 101.447C647.509 98.3283 645.435 95.6412 642.703 93.7668C639.97 91.8926 636.717 90.9261 633.405 91.0044C624.836 91.2025 617.962 98.319 618 106.876L618 106.878L619.711 106.87L618 106.876C618.008 109.257 618.558 111.605 619.607 113.742ZM633.485 94.426C636.079 94.3645 638.627 95.1214 640.767 96.5892C642.907 98.057 644.53 100.161 645.407 102.604C646.284 105.046 646.369 107.702 645.652 110.196C644.934 112.688 643.451 114.891 641.413 116.493C640.695 117.049 640.115 117.761 639.714 118.575C639.312 119.391 639.103 120.288 639.101 121.198L639.101 121.201V121.952H635.49V114.523L640.615 109.398C641.284 108.73 641.284 107.646 640.615 106.978C639.947 106.309 638.863 106.309 638.195 106.978L633.778 111.395L629.362 106.978C628.693 106.309 627.61 106.309 626.942 106.978C626.273 107.646 626.273 108.73 626.942 109.398L632.067 114.523V121.952H628.456L628.456 121.201L628.456 121.189C628.45 120.289 628.241 119.401 627.845 118.592C627.449 117.783 626.876 117.073 626.169 116.516L625.11 117.86L626.16 116.509C624.69 115.366 623.5 113.904 622.679 112.233C621.859 110.562 621.429 108.726 621.423 106.865L621.423 106.862C621.392 100.158 626.792 94.5802 633.485 94.426Z" fill="#224757"/>
<path d="M626.745 127.577C625.8 127.577 625.034 128.344 625.034 129.289C625.034 130.234 625.8 131 626.745 131H640.812C641.757 131 642.523 130.234 642.523 129.289C642.523 128.344 641.757 127.577 640.812 127.577H626.745Z" fill="#224757"/>
<path d="M620.876 159.818H625.67L634.006 180.17H634.312L642.648 159.818H647.442V186H643.683V167.054H643.44L635.719 185.962H632.599L624.878 167.041H624.635V186H620.876V159.818ZM661.341 186.396C659.407 186.396 657.74 185.983 656.343 185.156C654.953 184.321 653.88 183.149 653.121 181.641C652.371 180.124 651.996 178.347 651.996 176.31C651.996 174.298 652.371 172.526 653.121 170.991C653.88 169.457 654.936 168.26 656.292 167.399C657.655 166.538 659.249 166.108 661.073 166.108C662.181 166.108 663.255 166.291 664.294 166.658C665.334 167.024 666.267 167.599 667.094 168.384C667.921 169.168 668.573 170.186 669.05 171.439C669.527 172.683 669.766 174.196 669.766 175.977V177.332H654.157V174.469H666.02C666.02 173.463 665.816 172.572 665.407 171.797C664.998 171.013 664.422 170.395 663.681 169.943C662.948 169.491 662.087 169.266 661.098 169.266C660.025 169.266 659.087 169.53 658.286 170.058C657.493 170.578 656.88 171.26 656.445 172.104C656.019 172.939 655.806 173.847 655.806 174.827V177.064C655.806 178.376 656.036 179.493 656.496 180.413C656.965 181.334 657.617 182.037 658.452 182.523C659.287 183 660.263 183.239 661.38 183.239C662.104 183.239 662.765 183.136 663.361 182.932C663.958 182.719 664.473 182.403 664.908 181.986C665.343 181.568 665.675 181.053 665.905 180.439L669.523 181.091C669.233 182.156 668.713 183.089 667.963 183.891C667.222 184.683 666.289 185.301 665.164 185.744C664.047 186.179 662.773 186.396 661.341 186.396ZM679.722 186.435C678.477 186.435 677.352 186.205 676.347 185.744C675.341 185.276 674.544 184.598 673.956 183.712C673.376 182.825 673.087 181.739 673.087 180.452C673.087 179.344 673.3 178.432 673.726 177.716C674.152 177 674.727 176.433 675.452 176.016C676.176 175.598 676.986 175.283 677.881 175.07C678.776 174.857 679.688 174.695 680.616 174.584C681.793 174.447 682.747 174.337 683.48 174.251C684.213 174.158 684.746 174.009 685.078 173.804C685.411 173.599 685.577 173.267 685.577 172.807V172.717C685.577 171.601 685.261 170.736 684.631 170.122C684.009 169.509 683.08 169.202 681.844 169.202C680.557 169.202 679.543 169.487 678.801 170.058C678.068 170.621 677.561 171.247 677.28 171.938L673.688 171.119C674.114 169.926 674.736 168.963 675.554 168.23C676.381 167.489 677.331 166.952 678.405 166.619C679.479 166.278 680.608 166.108 681.793 166.108C682.577 166.108 683.408 166.202 684.286 166.389C685.172 166.568 685.999 166.901 686.766 167.386C687.541 167.872 688.176 168.567 688.67 169.47C689.165 170.365 689.412 171.528 689.412 172.96V186H685.679V183.315H685.526C685.278 183.81 684.908 184.295 684.413 184.773C683.919 185.25 683.284 185.646 682.509 185.962C681.733 186.277 680.804 186.435 679.722 186.435ZM680.553 183.366C681.609 183.366 682.513 183.158 683.263 182.74C684.021 182.322 684.597 181.777 684.989 181.104C685.389 180.422 685.589 179.693 685.589 178.918V176.386C685.453 176.523 685.189 176.651 684.797 176.77C684.413 176.881 683.974 176.979 683.48 177.064C682.986 177.141 682.504 177.213 682.036 177.281C681.567 177.341 681.175 177.392 680.859 177.435C680.118 177.528 679.44 177.686 678.827 177.908C678.222 178.129 677.736 178.449 677.369 178.866C677.011 179.276 676.832 179.821 676.832 180.503C676.832 181.449 677.182 182.165 677.881 182.651C678.58 183.128 679.47 183.366 680.553 183.366ZM698.326 174.341V186H694.503V166.364H698.172V169.56H698.415C698.867 168.52 699.574 167.685 700.537 167.054C701.509 166.423 702.732 166.108 704.206 166.108C705.544 166.108 706.716 166.389 707.722 166.952C708.728 167.506 709.507 168.332 710.061 169.432C710.615 170.531 710.892 171.891 710.892 173.51V186H707.07V173.97C707.07 172.547 706.699 171.435 705.958 170.634C705.216 169.824 704.198 169.419 702.902 169.419C702.016 169.419 701.228 169.611 700.537 169.994C699.855 170.378 699.314 170.94 698.914 171.682C698.522 172.415 698.326 173.301 698.326 174.341ZM716.019 186V166.364H719.841V186H716.019ZM717.949 163.334C717.284 163.334 716.713 163.112 716.236 162.669C715.767 162.217 715.533 161.68 715.533 161.058C715.533 160.428 715.767 159.891 716.236 159.447C716.713 158.996 717.284 158.77 717.949 158.77C718.614 158.77 719.181 158.996 719.65 159.447C720.127 159.891 720.365 160.428 720.365 161.058C720.365 161.68 720.127 162.217 719.65 162.669C719.181 163.112 718.614 163.334 717.949 163.334ZM728.806 174.341V186H724.984V166.364H728.653V169.56H728.896C729.347 168.52 730.055 167.685 731.018 167.054C731.989 166.423 733.212 166.108 734.687 166.108C736.025 166.108 737.197 166.389 738.202 166.952C739.208 167.506 739.988 168.332 740.542 169.432C741.096 170.531 741.373 171.891 741.373 173.51V186H737.55V173.97C737.55 172.547 737.18 171.435 736.438 170.634C735.697 169.824 734.678 169.419 733.383 169.419C732.496 169.419 731.708 169.611 731.018 169.994C730.336 170.378 729.795 170.94 729.394 171.682C729.002 172.415 728.806 173.301 728.806 174.341ZM754.732 193.773C753.173 193.773 751.83 193.568 750.705 193.159C749.589 192.75 748.677 192.209 747.969 191.536C747.262 190.862 746.734 190.125 746.384 189.324L749.67 187.969C749.9 188.344 750.207 188.74 750.59 189.158C750.982 189.584 751.511 189.946 752.175 190.244C752.849 190.543 753.714 190.692 754.771 190.692C756.219 190.692 757.417 190.338 758.363 189.631C759.309 188.932 759.782 187.815 759.782 186.281V182.42H759.539C759.309 182.838 758.977 183.303 758.542 183.814C758.116 184.325 757.528 184.768 756.778 185.143C756.028 185.518 755.052 185.706 753.85 185.706C752.299 185.706 750.901 185.344 749.657 184.619C748.421 183.886 747.441 182.808 746.717 181.385C746.001 179.953 745.643 178.193 745.643 176.105C745.643 174.017 745.996 172.227 746.704 170.736C747.42 169.244 748.4 168.102 749.644 167.31C750.888 166.509 752.299 166.108 753.876 166.108C755.094 166.108 756.079 166.312 756.829 166.722C757.579 167.122 758.163 167.591 758.58 168.128C759.006 168.665 759.335 169.138 759.565 169.547H759.846V166.364H763.592V186.435C763.592 188.122 763.2 189.507 762.415 190.589C761.631 191.672 760.57 192.473 759.232 192.993C757.903 193.513 756.403 193.773 754.732 193.773ZM754.694 182.536C755.793 182.536 756.722 182.28 757.481 181.768C758.248 181.249 758.827 180.507 759.219 179.544C759.62 178.572 759.82 177.409 759.82 176.054C759.82 174.733 759.624 173.57 759.232 172.564C758.84 171.558 758.265 170.774 757.506 170.212C756.748 169.641 755.81 169.355 754.694 169.355C753.543 169.355 752.585 169.653 751.817 170.25C751.05 170.838 750.471 171.639 750.079 172.653C749.695 173.668 749.504 174.801 749.504 176.054C749.504 177.341 749.7 178.47 750.092 179.442C750.484 180.413 751.063 181.172 751.83 181.717C752.606 182.263 753.56 182.536 754.694 182.536Z" fill="#224757"/>
<path d="M623.78 225L618.536 206.091H621.536L625.22 220.734H625.396L629.227 206.091H632.2L636.032 220.744H636.207L639.882 206.091H642.892L637.638 225H634.767L630.788 210.837H630.64L626.661 225H623.78ZM645.493 225V206.091H648.346V214.308H657.773V206.091H660.635V225H657.773V216.755H648.346V225H645.493ZM663.331 206.091H666.572L671.512 214.687H671.715L676.655 206.091H679.895L673.035 217.577V225H670.192V217.577L663.331 206.091ZM685.387 219.562V219.386C685.399 218.241 685.513 217.33 685.728 216.653C685.95 215.976 686.264 215.429 686.67 215.01C687.076 214.591 687.566 214.21 688.138 213.865C688.507 213.631 688.84 213.37 689.135 213.08C689.431 212.791 689.665 212.459 689.837 212.083C690.009 211.708 690.096 211.292 690.096 210.837C690.096 210.289 689.966 209.815 689.708 209.415C689.449 209.015 689.105 208.707 688.674 208.491C688.249 208.27 687.775 208.159 687.252 208.159C686.778 208.159 686.325 208.258 685.895 208.455C685.464 208.652 685.107 208.959 684.824 209.378C684.54 209.79 684.377 210.323 684.334 210.975H681.527C681.57 209.867 681.85 208.932 682.368 208.168C682.885 207.399 683.568 206.817 684.417 206.423C685.273 206.029 686.218 205.832 687.252 205.832C688.384 205.832 689.375 206.045 690.225 206.469C691.074 206.888 691.733 207.476 692.201 208.233C692.675 208.984 692.912 209.861 692.912 210.864C692.912 211.554 692.804 212.175 692.588 212.729C692.373 213.277 692.065 213.767 691.665 214.197C691.271 214.628 690.797 215.01 690.243 215.342C689.72 215.669 689.295 216.007 688.969 216.358C688.649 216.709 688.415 217.124 688.267 217.604C688.12 218.085 688.04 218.679 688.027 219.386V219.562H685.387ZM686.781 225.175C686.276 225.175 685.842 224.997 685.479 224.64C685.116 224.277 684.934 223.84 684.934 223.329C684.934 222.824 685.116 222.393 685.479 222.036C685.842 221.673 686.276 221.491 686.781 221.491C687.279 221.491 687.71 221.673 688.074 222.036C688.443 222.393 688.627 222.824 688.627 223.329C688.627 223.667 688.541 223.978 688.369 224.261C688.203 224.538 687.981 224.76 687.704 224.926C687.427 225.092 687.119 225.175 686.781 225.175Z" fill="#A9B4B9"/>
<path d="M917 158.5C915.619 158.5 914.5 159.619 914.5 161C914.5 162.381 915.619 163.5 917 163.5V158.5ZM1068.77 162.768C1069.74 161.791 1069.74 160.209 1068.77 159.232L1052.86 143.322C1051.88 142.346 1050.3 142.346 1049.32 143.322C1048.35 144.299 1048.35 145.882 1049.32 146.858L1063.46 161L1049.32 175.142C1048.35 176.118 1048.35 177.701 1049.32 178.678C1050.3 179.654 1051.88 179.654 1052.86 178.678L1068.77 162.768ZM917 163.5H1067V158.5H917V163.5Z" fill="#FF9900"/>
<path fill-rule="evenodd" clip-rule="evenodd" d="M1230.29 90.9998L1230.29 90.9998C1229.62 91.0025 1228.96 91.1997 1228.4 91.5676C1227.85 91.9341 1227.41 92.4543 1227.14 93.0651L1221.08 106.676H1218.71C1217.77 106.676 1217 107.442 1217 108.387C1217 109.332 1217.77 110.098 1218.71 110.098H1220.48V127.547C1220.48 128.463 1220.85 129.341 1221.49 129.988C1222.14 130.636 1223.02 131 1223.94 131H1229.16C1230.08 131 1230.96 130.636 1231.6 129.988C1232.25 129.341 1232.62 128.463 1232.62 127.547V124.033H1253.58V127.547C1253.58 128.463 1253.94 129.341 1254.59 129.988C1255.24 130.636 1256.11 131 1257.03 131H1262.26C1263.17 131 1264.05 130.636 1264.7 129.988C1265.35 129.341 1265.71 128.463 1265.71 127.547V110.098H1267.48C1268.43 110.098 1269.19 109.332 1269.19 108.387C1269.19 107.442 1268.43 106.676 1267.48 106.676H1265.11L1259.06 93.0716L1259.05 93.0652C1258.79 92.4544 1258.35 91.9342 1257.79 91.5676C1257.23 91.1997 1256.57 91.0025 1255.91 90.9998L1230.29 90.9998ZM1261.36 106.676L1255.92 94.4406C1255.92 94.4352 1255.91 94.4306 1255.91 94.4273C1255.9 94.4242 1255.9 94.4225 1255.89 94.4223H1230.3C1230.29 94.4225 1230.29 94.4242 1230.28 94.4273C1230.28 94.4306 1230.28 94.4352 1230.27 94.4406L1230.27 94.4518L1224.83 106.676H1261.36ZM1223.91 110.098V127.547C1223.91 127.555 1223.91 127.563 1223.92 127.568C1223.92 127.574 1223.93 127.577 1223.94 127.577H1229.16C1229.17 127.577 1229.18 127.574 1229.18 127.568C1229.19 127.563 1229.19 127.555 1229.19 127.547V122.321C1229.19 121.376 1229.96 120.61 1230.9 120.61H1255.29C1256.23 120.61 1257 121.376 1257 122.321V127.547L1257 127.556C1257 127.561 1257.01 127.565 1257.01 127.568C1257.01 127.574 1257.02 127.577 1257.03 127.577H1262.26C1262.26 127.577 1262.27 127.574 1262.28 127.568C1262.28 127.563 1262.29 127.555 1262.29 127.547V110.098H1223.91Z" fill="#224757"/>
<path d="M1234.16 166.696C1234.02 165.486 1233.46 164.548 1232.47 163.884C1231.48 163.21 1230.24 162.874 1228.74 162.874C1227.66 162.874 1226.73 163.044 1225.95 163.385C1225.16 163.717 1224.56 164.178 1224.12 164.766C1223.69 165.345 1223.48 166.006 1223.48 166.747C1223.48 167.369 1223.63 167.906 1223.92 168.358C1224.21 168.81 1224.6 169.189 1225.08 169.496C1225.57 169.794 1226.09 170.045 1226.64 170.25C1227.19 170.446 1227.73 170.608 1228.24 170.736L1230.79 171.401C1231.63 171.605 1232.49 171.882 1233.36 172.232C1234.24 172.581 1235.06 173.041 1235.81 173.612C1236.56 174.183 1237.16 174.891 1237.62 175.734C1238.09 176.578 1238.32 177.588 1238.32 178.764C1238.32 180.247 1237.94 181.564 1237.17 182.714C1236.41 183.865 1235.31 184.773 1233.86 185.438C1232.42 186.102 1230.68 186.435 1228.63 186.435C1226.67 186.435 1224.98 186.124 1223.55 185.501C1222.11 184.879 1220.99 183.997 1220.18 182.855C1219.37 181.705 1218.93 180.341 1218.84 178.764H1222.8C1222.88 179.71 1223.19 180.499 1223.72 181.129C1224.27 181.751 1224.96 182.216 1225.81 182.523C1226.66 182.821 1227.59 182.97 1228.61 182.97C1229.72 182.97 1230.72 182.795 1231.59 182.446C1232.46 182.088 1233.15 181.594 1233.66 180.963C1234.16 180.324 1234.41 179.578 1234.41 178.726C1234.41 177.95 1234.19 177.315 1233.75 176.821C1233.31 176.327 1232.72 175.918 1231.97 175.594C1231.23 175.27 1230.39 174.984 1229.45 174.737L1226.36 173.893C1224.26 173.322 1222.6 172.483 1221.37 171.375C1220.15 170.267 1219.54 168.801 1219.54 166.977C1219.54 165.469 1219.95 164.152 1220.77 163.027C1221.59 161.902 1222.7 161.028 1224.1 160.406C1225.49 159.776 1227.07 159.46 1228.83 159.46C1230.6 159.46 1232.16 159.771 1233.52 160.393C1234.88 161.016 1235.95 161.872 1236.74 162.963C1237.52 164.045 1237.93 165.29 1237.97 166.696H1234.16ZM1251.01 186.396C1249.17 186.396 1247.56 185.974 1246.19 185.131C1244.82 184.287 1243.75 183.107 1242.99 181.589C1242.23 180.072 1241.86 178.3 1241.86 176.271C1241.86 174.234 1242.23 172.453 1242.99 170.928C1243.75 169.402 1244.82 168.217 1246.19 167.374C1247.56 166.53 1249.17 166.108 1251.01 166.108C1252.85 166.108 1254.46 166.53 1255.83 167.374C1257.2 168.217 1258.27 169.402 1259.02 170.928C1259.78 172.453 1260.16 174.234 1260.16 176.271C1260.16 178.3 1259.78 180.072 1259.02 181.589C1258.27 183.107 1257.2 184.287 1255.83 185.131C1254.46 185.974 1252.85 186.396 1251.01 186.396ZM1251.02 183.188C1252.21 183.188 1253.2 182.872 1253.99 182.241C1254.77 181.611 1255.35 180.771 1255.73 179.723C1256.11 178.675 1256.3 177.52 1256.3 176.259C1256.3 175.006 1256.11 173.855 1255.73 172.807C1255.35 171.75 1254.77 170.902 1253.99 170.263C1253.2 169.624 1252.21 169.304 1251.02 169.304C1249.82 169.304 1248.82 169.624 1248.03 170.263C1247.25 170.902 1246.66 171.75 1246.28 172.807C1245.9 173.855 1245.72 175.006 1245.72 176.259C1245.72 177.52 1245.9 178.675 1246.28 179.723C1246.66 180.771 1247.25 181.611 1248.03 182.241C1248.82 182.872 1249.82 183.188 1251.02 183.188ZM1268.25 159.818V186H1264.43V159.818H1268.25ZM1285.83 177.857V166.364H1289.67V186H1285.91V182.599H1285.7C1285.25 183.648 1284.53 184.521 1283.53 185.22C1282.54 185.911 1281.31 186.256 1279.84 186.256C1278.58 186.256 1277.46 185.979 1276.49 185.425C1275.52 184.862 1274.77 184.031 1274.21 182.932C1273.67 181.832 1273.39 180.473 1273.39 178.854V166.364H1277.22V178.393C1277.22 179.732 1277.59 180.797 1278.33 181.589C1279.07 182.382 1280.03 182.778 1281.22 182.778C1281.93 182.778 1282.65 182.599 1283.35 182.241C1284.07 181.884 1284.66 181.342 1285.13 180.618C1285.61 179.893 1285.84 178.973 1285.83 177.857ZM1303.97 166.364V169.432H1293.24V166.364H1303.97ZM1296.12 161.659H1299.94V180.234C1299.94 180.976 1300.05 181.534 1300.28 181.909C1300.5 182.276 1300.78 182.527 1301.13 182.663C1301.49 182.791 1301.88 182.855 1302.3 182.855C1302.6 182.855 1302.87 182.834 1303.1 182.791C1303.33 182.749 1303.51 182.714 1303.64 182.689L1304.33 185.847C1304.11 185.932 1303.79 186.017 1303.38 186.102C1302.97 186.196 1302.46 186.247 1301.85 186.256C1300.84 186.273 1299.9 186.094 1299.04 185.719C1298.17 185.344 1297.46 184.764 1296.93 183.98C1296.39 183.196 1296.12 182.212 1296.12 181.027V161.659ZM1308.2 186V166.364H1312.02V186H1308.2ZM1310.13 163.334C1309.46 163.334 1308.89 163.112 1308.42 162.669C1307.95 162.217 1307.71 161.68 1307.71 161.058C1307.71 160.428 1307.95 159.891 1308.42 159.447C1308.89 158.996 1309.46 158.77 1310.13 158.77C1310.79 158.77 1311.36 158.996 1311.83 159.447C1312.31 159.891 1312.55 160.428 1312.55 161.058C1312.55 161.68 1312.31 162.217 1311.83 162.669C1311.36 163.112 1310.79 163.334 1310.13 163.334ZM1325.43 186.396C1323.59 186.396 1321.99 185.974 1320.62 185.131C1319.24 184.287 1318.18 183.107 1317.42 181.589C1316.66 180.072 1316.28 178.3 1316.28 176.271C1316.28 174.234 1316.66 172.453 1317.42 170.928C1318.18 169.402 1319.24 168.217 1320.62 167.374C1321.99 166.53 1323.59 166.108 1325.43 166.108C1327.28 166.108 1328.88 166.53 1330.25 167.374C1331.63 168.217 1332.69 169.402 1333.45 170.928C1334.21 172.453 1334.59 174.234 1334.59 176.271C1334.59 178.3 1334.21 180.072 1333.45 181.589C1332.69 183.107 1331.63 184.287 1330.25 185.131C1328.88 185.974 1327.28 186.396 1325.43 186.396ZM1325.45 183.188C1326.64 183.188 1327.63 182.872 1328.41 182.241C1329.2 181.611 1329.78 180.771 1330.15 179.723C1330.54 178.675 1330.73 177.52 1330.73 176.259C1330.73 175.006 1330.54 173.855 1330.15 172.807C1329.78 171.75 1329.2 170.902 1328.41 170.263C1327.63 169.624 1326.64 169.304 1325.45 169.304C1324.25 169.304 1323.25 169.624 1322.46 170.263C1321.67 170.902 1321.09 171.75 1320.7 172.807C1320.33 173.855 1320.14 175.006 1320.14 176.259C1320.14 177.52 1320.33 178.675 1320.7 179.723C1321.09 180.771 1321.67 181.611 1322.46 182.241C1323.25 182.872 1324.25 183.188 1325.45 183.188ZM1342.68 174.341V186H1338.85V166.364H1342.52V169.56H1342.77C1343.22 168.52 1343.93 167.685 1344.89 167.054C1345.86 166.423 1347.08 166.108 1348.56 166.108C1349.9 166.108 1351.07 166.389 1352.07 166.952C1353.08 167.506 1353.86 168.332 1354.41 169.432C1354.97 170.531 1355.24 171.891 1355.24 173.51V186H1351.42V173.97C1351.42 172.547 1351.05 171.435 1350.31 170.634C1349.57 169.824 1348.55 169.419 1347.25 169.419C1346.37 169.419 1345.58 169.611 1344.89 169.994C1344.21 170.378 1343.67 170.94 1343.27 171.682C1342.87 172.415 1342.68 173.301 1342.68 174.341Z" fill="#224757"/>
<path d="M1219.08 225V206.091H1221.93V214.308H1231.36V206.091H1234.22V225H1231.36V216.755H1221.93V225H1219.08ZM1254.8 215.545C1254.8 217.564 1254.43 219.3 1253.69 220.753C1252.95 222.199 1251.94 223.313 1250.65 224.095C1249.37 224.871 1247.92 225.259 1246.29 225.259C1244.65 225.259 1243.19 224.871 1241.9 224.095C1240.62 223.313 1239.61 222.196 1238.87 220.744C1238.13 219.291 1237.76 217.558 1237.76 215.545C1237.76 213.527 1238.13 211.794 1238.87 210.347C1239.61 208.895 1240.62 207.781 1241.9 207.005C1243.19 206.223 1244.65 205.832 1246.29 205.832C1247.92 205.832 1249.37 206.223 1250.65 207.005C1251.94 207.781 1252.95 208.895 1253.69 210.347C1254.43 211.794 1254.8 213.527 1254.8 215.545ZM1251.97 215.545C1251.97 214.007 1251.73 212.711 1251.23 211.658C1250.73 210.6 1250.06 209.799 1249.2 209.258C1248.34 208.71 1247.37 208.436 1246.29 208.436C1245.2 208.436 1244.22 208.71 1243.37 209.258C1242.51 209.799 1241.84 210.6 1241.34 211.658C1240.85 212.711 1240.6 214.007 1240.6 215.545C1240.6 217.084 1240.85 218.383 1241.34 219.442C1241.84 220.494 1242.51 221.295 1243.37 221.842C1244.22 222.384 1245.2 222.655 1246.29 222.655C1247.37 222.655 1248.34 222.384 1249.2 221.842C1250.06 221.295 1250.73 220.494 1251.23 219.442C1251.73 218.383 1251.97 217.084 1251.97 215.545ZM1261.83 225L1256.59 206.091H1259.59L1263.27 220.734H1263.45L1267.28 206.091H1270.25L1274.08 220.744H1274.26L1277.93 206.091H1280.94L1275.69 225H1272.82L1268.84 210.837H1268.69L1264.71 225H1261.83ZM1286.34 219.562V219.386C1286.35 218.241 1286.47 217.33 1286.68 216.653C1286.91 215.976 1287.22 215.429 1287.63 215.01C1288.03 214.591 1288.52 214.21 1289.09 213.865C1289.46 213.631 1289.79 213.37 1290.09 213.08C1290.39 212.791 1290.62 212.459 1290.79 212.083C1290.96 211.708 1291.05 211.292 1291.05 210.837C1291.05 210.289 1290.92 209.815 1290.66 209.415C1290.4 209.015 1290.06 208.707 1289.63 208.491C1289.2 208.27 1288.73 208.159 1288.21 208.159C1287.73 208.159 1287.28 208.258 1286.85 208.455C1286.42 208.652 1286.06 208.959 1285.78 209.378C1285.5 209.79 1285.33 210.323 1285.29 210.975H1282.48C1282.53 209.867 1282.81 208.932 1283.32 208.168C1283.84 207.399 1284.52 206.817 1285.37 206.423C1286.23 206.029 1287.17 205.832 1288.21 205.832C1289.34 205.832 1290.33 206.045 1291.18 206.469C1292.03 206.888 1292.69 207.476 1293.16 208.233C1293.63 208.984 1293.87 209.861 1293.87 210.864C1293.87 211.554 1293.76 212.175 1293.54 212.729C1293.33 213.277 1293.02 213.767 1292.62 214.197C1292.23 214.628 1291.75 215.01 1291.2 215.342C1290.68 215.669 1290.25 216.007 1289.92 216.358C1289.6 216.709 1289.37 217.124 1289.22 217.604C1289.07 218.085 1288.99 218.679 1288.98 219.386V219.562H1286.34ZM1287.74 225.175C1287.23 225.175 1286.8 224.997 1286.43 224.64C1286.07 224.277 1285.89 223.84 1285.89 223.329C1285.89 222.824 1286.07 222.393 1286.43 222.036C1286.8 221.673 1287.23 221.491 1287.74 221.491C1288.23 221.491 1288.67 221.673 1289.03 222.036C1289.4 222.393 1289.58 222.824 1289.58 223.329C1289.58 223.667 1289.5 223.978 1289.32 224.261C1289.16 224.538 1288.94 224.76 1288.66 224.926C1288.38 225.092 1288.07 225.175 1287.74 225.175Z" fill="#A9B4B9"/>
<rect y="331" width="1408" height="240" rx="40" fill="white" fill-opacity="0.34"/>
<path d="M70 401H90M70 385H90M70 417.001H90M61.8182 381L53.9318 389L50 385M61.8182 397L53.9319 405L50.0001 401M61.8182 413L53.9319 421L50.0001 417" stroke="#224757" stroke-width="3.5" stroke-linecap="round" stroke-linejoin="round"/>
<path d="M56.8267 449.818V476H52.8764V449.818H56.8267ZM69.6236 476.384C68.0384 476.384 66.6236 475.979 65.3793 475.169C64.1435 474.351 63.1719 473.187 62.4645 471.679C61.7656 470.162 61.4162 468.342 61.4162 466.22C61.4162 464.098 61.7699 462.283 62.4773 460.774C63.1932 459.266 64.1733 458.111 65.4176 457.31C66.6619 456.509 68.0724 456.108 69.6491 456.108C70.8679 456.108 71.848 456.312 72.5895 456.722C73.3395 457.122 73.919 457.591 74.3281 458.128C74.7457 458.665 75.0696 459.138 75.2997 459.547H75.5298V449.818H79.3523V476H75.6193V472.945H75.2997C75.0696 473.362 74.7372 473.839 74.3026 474.376C73.8764 474.913 73.2884 475.382 72.5384 475.783C71.7884 476.183 70.8168 476.384 69.6236 476.384ZM70.4673 473.124C71.5668 473.124 72.4957 472.834 73.2543 472.254C74.0213 471.666 74.6009 470.852 74.9929 469.812C75.3935 468.773 75.5938 467.562 75.5938 466.182C75.5938 464.818 75.3977 463.625 75.0057 462.602C74.6136 461.58 74.0384 460.783 73.2798 460.212C72.5213 459.641 71.5838 459.355 70.4673 459.355C69.3168 459.355 68.358 459.653 67.5909 460.25C66.8239 460.847 66.2443 461.661 65.8523 462.692C65.4688 463.723 65.277 464.886 65.277 466.182C65.277 467.494 65.473 468.675 65.8651 469.723C66.2571 470.771 66.8366 471.602 67.6037 472.216C68.3793 472.821 69.3338 473.124 70.4673 473.124ZM93.271 476.396C91.3363 476.396 89.6701 475.983 88.2724 475.156C86.8832 474.321 85.8093 473.149 85.0508 471.641C84.3008 470.124 83.9258 468.347 83.9258 466.31C83.9258 464.298 84.3008 462.526 85.0508 460.991C85.8093 459.457 86.8661 458.26 88.2212 457.399C89.5849 456.538 91.1786 456.108 93.0025 456.108C94.1104 456.108 95.1843 456.291 96.2241 456.658C97.2638 457.024 98.1971 457.599 99.0238 458.384C99.8505 459.168 100.502 460.186 100.98 461.439C101.457 462.683 101.696 464.196 101.696 465.977V467.332H86.0863V464.469H97.9499C97.9499 463.463 97.7454 462.572 97.3363 461.797C96.9272 461.013 96.3519 460.395 95.6104 459.943C94.8775 459.491 94.0167 459.266 93.0281 459.266C91.9542 459.266 91.0167 459.53 90.2156 460.058C89.4229 460.578 88.8093 461.26 88.3746 462.104C87.9485 462.939 87.7354 463.847 87.7354 464.827V467.064C87.7354 468.376 87.9656 469.493 88.4258 470.413C88.8945 471.334 89.5465 472.037 90.3817 472.523C91.217 473 92.1928 473.239 93.3093 473.239C94.0337 473.239 94.6942 473.136 95.2908 472.932C95.8874 472.719 96.4031 472.403 96.8377 471.986C97.2724 471.568 97.6048 471.053 97.8349 470.439L101.453 471.091C101.163 472.156 100.643 473.089 99.8931 473.891C99.1516 474.683 98.2184 475.301 97.0934 475.744C95.9769 476.179 94.7028 476.396 93.271 476.396ZM111.651 476.435C110.407 476.435 109.282 476.205 108.276 475.744C107.271 475.276 106.474 474.598 105.886 473.712C105.306 472.825 105.016 471.739 105.016 470.452C105.016 469.344 105.229 468.432 105.656 467.716C106.082 467 106.657 466.433 107.381 466.016C108.106 465.598 108.915 465.283 109.81 465.07C110.705 464.857 111.617 464.695 112.546 464.584C113.722 464.447 114.677 464.337 115.41 464.251C116.143 464.158 116.675 464.009 117.008 463.804C117.34 463.599 117.506 463.267 117.506 462.807V462.717C117.506 461.601 117.191 460.736 116.56 460.122C115.938 459.509 115.009 459.202 113.773 459.202C112.487 459.202 111.472 459.487 110.731 460.058C109.998 460.621 109.491 461.247 109.21 461.938L105.617 461.119C106.043 459.926 106.665 458.963 107.484 458.23C108.31 457.489 109.261 456.952 110.335 456.619C111.408 456.278 112.538 456.108 113.722 456.108C114.506 456.108 115.337 456.202 116.215 456.389C117.102 456.568 117.928 456.901 118.695 457.386C119.471 457.872 120.106 458.567 120.6 459.47C121.094 460.365 121.342 461.528 121.342 462.96V476H117.609V473.315H117.455C117.208 473.81 116.837 474.295 116.343 474.773C115.849 475.25 115.214 475.646 114.438 475.962C113.663 476.277 112.734 476.435 111.651 476.435ZM112.482 473.366C113.539 473.366 114.442 473.158 115.192 472.74C115.951 472.322 116.526 471.777 116.918 471.104C117.319 470.422 117.519 469.693 117.519 468.918V466.386C117.383 466.523 117.119 466.651 116.727 466.77C116.343 466.881 115.904 466.979 115.41 467.064C114.915 467.141 114.434 467.213 113.965 467.281C113.496 467.341 113.104 467.392 112.789 467.435C112.048 467.528 111.37 467.686 110.756 467.908C110.151 468.129 109.665 468.449 109.299 468.866C108.941 469.276 108.762 469.821 108.762 470.503C108.762 471.449 109.112 472.165 109.81 472.651C110.509 473.128 111.4 473.366 112.482 473.366ZM135.599 456.364V459.432H124.873V456.364H135.599ZM127.75 451.659H131.572V470.234C131.572 470.976 131.683 471.534 131.904 471.909C132.126 472.276 132.412 472.527 132.761 472.663C133.119 472.791 133.507 472.855 133.924 472.855C134.231 472.855 134.5 472.834 134.73 472.791C134.96 472.749 135.139 472.714 135.267 472.689L135.957 475.847C135.735 475.932 135.42 476.017 135.011 476.102C134.602 476.196 134.091 476.247 133.477 476.256C132.471 476.273 131.534 476.094 130.664 475.719C129.795 475.344 129.092 474.764 128.555 473.98C128.018 473.196 127.75 472.212 127.75 471.027V451.659ZM139.827 476V456.364H143.65V476H139.827ZM141.758 453.334C141.093 453.334 140.522 453.112 140.045 452.669C139.576 452.217 139.342 451.68 139.342 451.058C139.342 450.428 139.576 449.891 140.045 449.447C140.522 448.996 141.093 448.77 141.758 448.77C142.423 448.77 142.989 448.996 143.458 449.447C143.935 449.891 144.174 450.428 144.174 451.058C144.174 451.68 143.935 452.217 143.458 452.669C142.989 453.112 142.423 453.334 141.758 453.334ZM157.064 476.396C155.223 476.396 153.616 475.974 152.244 475.131C150.872 474.287 149.806 473.107 149.048 471.589C148.289 470.072 147.91 468.3 147.91 466.271C147.91 464.234 148.289 462.453 149.048 460.928C149.806 459.402 150.872 458.217 152.244 457.374C153.616 456.53 155.223 456.108 157.064 456.108C158.904 456.108 160.511 456.53 161.883 457.374C163.255 458.217 164.321 459.402 165.079 460.928C165.838 462.453 166.217 464.234 166.217 466.271C166.217 468.3 165.838 470.072 165.079 471.589C164.321 473.107 163.255 474.287 161.883 475.131C160.511 475.974 158.904 476.396 157.064 476.396ZM157.076 473.188C158.27 473.188 159.258 472.872 160.042 472.241C160.826 471.611 161.406 470.771 161.781 469.723C162.164 468.675 162.356 467.52 162.356 466.259C162.356 465.006 162.164 463.855 161.781 462.807C161.406 461.75 160.826 460.902 160.042 460.263C159.258 459.624 158.27 459.304 157.076 459.304C155.875 459.304 154.877 459.624 154.085 460.263C153.301 460.902 152.717 461.75 152.333 462.807C151.958 463.855 151.771 465.006 151.771 466.259C151.771 467.52 151.958 468.675 152.333 469.723C152.717 470.771 153.301 471.611 154.085 472.241C154.877 472.872 155.875 473.188 157.076 473.188ZM174.306 464.341V476H170.484V456.364H174.153V459.56H174.396C174.847 458.52 175.555 457.685 176.518 457.054C177.489 456.423 178.712 456.108 180.187 456.108C181.525 456.108 182.697 456.389 183.702 456.952C184.708 457.506 185.488 458.332 186.042 459.432C186.596 460.531 186.873 461.891 186.873 463.51V476H183.05V463.97C183.05 462.547 182.68 461.435 181.938 460.634C181.197 459.824 180.178 459.419 178.883 459.419C177.996 459.419 177.208 459.611 176.518 459.994C175.836 460.378 175.295 460.94 174.894 461.682C174.502 462.415 174.306 463.301 174.306 464.341Z" fill="#224757"/>
<path d="M55.7798 515L50.5355 496.091H53.5362L57.2202 510.734H57.3956L61.2273 496.091H64.2003L68.032 510.744H68.2074L71.8821 496.091H74.892L69.6385 515H66.767L62.7876 500.837H62.6399L58.6605 515H55.7798ZM77.4934 515V496.091H80.3464V504.308H89.7733V496.091H92.6355V515H89.7733V506.755H80.3464V515H77.4934ZM98.3876 515H95.3592L102.164 496.091H105.46L112.265 515H109.236L103.89 499.526H103.743L98.3876 515ZM98.8954 507.595H108.719V509.996H98.8954V507.595ZM111.828 498.547V496.091H126.463V498.547H120.563V515H117.719V498.547H111.828ZM132.494 509.562V509.386C132.506 508.241 132.62 507.33 132.836 506.653C133.057 505.976 133.371 505.429 133.778 505.01C134.184 504.591 134.673 504.21 135.246 503.865C135.615 503.631 135.947 503.37 136.243 503.08C136.538 502.791 136.772 502.459 136.944 502.083C137.117 501.708 137.203 501.292 137.203 500.837C137.203 500.289 137.074 499.815 136.815 499.415C136.557 499.015 136.212 498.707 135.781 498.491C135.356 498.27 134.882 498.159 134.359 498.159C133.885 498.159 133.433 498.258 133.002 498.455C132.571 498.652 132.214 498.959 131.931 499.378C131.648 499.79 131.485 500.323 131.442 500.975H128.635C128.678 499.867 128.958 498.932 129.475 498.168C129.992 497.399 130.675 496.817 131.525 496.423C132.38 496.029 133.325 495.832 134.359 495.832C135.492 495.832 136.483 496.045 137.332 496.469C138.182 496.888 138.84 497.476 139.308 498.233C139.782 498.984 140.019 499.861 140.019 500.864C140.019 501.554 139.911 502.175 139.696 502.729C139.48 503.277 139.173 503.767 138.773 504.197C138.379 504.628 137.905 505.01 137.351 505.342C136.827 505.669 136.403 506.007 136.077 506.358C135.756 506.709 135.523 507.124 135.375 507.604C135.227 508.085 135.147 508.679 135.135 509.386V509.562H132.494ZM133.888 515.175C133.384 515.175 132.95 514.997 132.586 514.64C132.223 514.277 132.042 513.84 132.042 513.329C132.042 512.824 132.223 512.393 132.586 512.036C132.95 511.673 133.384 511.491 133.888 511.491C134.387 511.491 134.818 511.673 135.181 512.036C135.55 512.393 135.735 512.824 135.735 513.329C135.735 513.667 135.649 513.978 135.476 514.261C135.31 514.538 135.089 514.76 134.812 514.926C134.535 515.092 134.227 515.175 133.888 515.175Z" fill="#A9B4B9"/>
<path d="M340 448.5C338.619 448.5 337.5 449.619 337.5 451C337.5 452.381 338.619 453.5 340 453.5V448.5ZM1068.77 452.768C1069.74 451.791 1069.74 450.209 1068.77 449.232L1052.86 433.322C1051.88 432.346 1050.3 432.346 1049.32 433.322C1048.35 434.299 1048.35 435.882 1049.32 436.858L1063.46 451L1049.32 465.142C1048.35 466.118 1048.35 467.701 1049.32 468.678C1050.3 469.654 1051.88 469.654 1052.86 468.678L1068.77 452.768ZM340 453.5H1067V448.5H340V453.5Z" fill="#D1D1D1"/>
<path fill-rule="evenodd" clip-rule="evenodd" d="M1230.29 381L1230.29 381C1229.62 381.002 1228.96 381.2 1228.4 381.568C1227.85 381.934 1227.41 382.454 1227.14 383.065L1221.08 396.676H1218.71C1217.77 396.676 1217 397.442 1217 398.387C1217 399.332 1217.77 400.098 1218.71 400.098H1220.48V417.547C1220.48 418.463 1220.85 419.341 1221.49 419.988C1222.14 420.636 1223.02 421 1223.94 421H1229.16C1230.08 421 1230.96 420.636 1231.6 419.988C1232.25 419.341 1232.62 418.463 1232.62 417.547V414.033H1253.58V417.547C1253.58 418.463 1253.94 419.341 1254.59 419.988C1255.24 420.636 1256.11 421 1257.03 421H1262.26C1263.17 421 1264.05 420.636 1264.7 419.988C1265.35 419.341 1265.71 418.463 1265.71 417.547V400.098H1267.48C1268.43 400.098 1269.19 399.332 1269.19 398.387C1269.19 397.442 1268.43 396.676 1267.48 396.676H1265.11L1259.06 383.072L1259.05 383.065C1258.79 382.454 1258.35 381.934 1257.79 381.568C1257.23 381.2 1256.57 381.002 1255.91 381L1230.29 381ZM1261.36 396.676L1255.92 384.441C1255.92 384.435 1255.91 384.431 1255.91 384.427C1255.9 384.424 1255.9 384.422 1255.89 384.422H1230.3C1230.29 384.422 1230.29 384.424 1230.28 384.427C1230.28 384.431 1230.28 384.435 1230.27 384.441L1230.27 384.452L1224.83 396.676H1261.36ZM1223.91 400.098V417.547C1223.91 417.555 1223.91 417.563 1223.92 417.568C1223.92 417.574 1223.93 417.577 1223.94 417.577H1229.16C1229.17 417.577 1229.18 417.574 1229.18 417.568C1229.19 417.563 1229.19 417.555 1229.19 417.547V412.321C1229.19 411.376 1229.96 410.61 1230.9 410.61H1255.29C1256.23 410.61 1257 411.376 1257 412.321V417.547L1257 417.556C1257 417.561 1257.01 417.565 1257.01 417.568C1257.01 417.574 1257.02 417.577 1257.03 417.577H1262.26C1262.26 417.577 1262.27 417.574 1262.28 417.568C1262.28 417.563 1262.29 417.555 1262.29 417.547V400.098H1223.91Z" fill="#224757"/>
<path d="M1234.16 456.696C1234.02 455.486 1233.46 454.548 1232.47 453.884C1231.48 453.21 1230.24 452.874 1228.74 452.874C1227.66 452.874 1226.73 453.044 1225.95 453.385C1225.16 453.717 1224.56 454.178 1224.12 454.766C1223.69 455.345 1223.48 456.006 1223.48 456.747C1223.48 457.369 1223.63 457.906 1223.92 458.358C1224.21 458.81 1224.6 459.189 1225.08 459.496C1225.57 459.794 1226.09 460.045 1226.64 460.25C1227.19 460.446 1227.73 460.608 1228.24 460.736L1230.79 461.401C1231.63 461.605 1232.49 461.882 1233.36 462.232C1234.24 462.581 1235.06 463.041 1235.81 463.612C1236.56 464.183 1237.16 464.891 1237.62 465.734C1238.09 466.578 1238.32 467.588 1238.32 468.764C1238.32 470.247 1237.94 471.564 1237.17 472.714C1236.41 473.865 1235.31 474.773 1233.86 475.438C1232.42 476.102 1230.68 476.435 1228.63 476.435C1226.67 476.435 1224.98 476.124 1223.55 475.501C1222.11 474.879 1220.99 473.997 1220.18 472.855C1219.37 471.705 1218.93 470.341 1218.84 468.764H1222.8C1222.88 469.71 1223.19 470.499 1223.72 471.129C1224.27 471.751 1224.96 472.216 1225.81 472.523C1226.66 472.821 1227.59 472.97 1228.61 472.97C1229.72 472.97 1230.72 472.795 1231.59 472.446C1232.46 472.088 1233.15 471.594 1233.66 470.963C1234.16 470.324 1234.41 469.578 1234.41 468.726C1234.41 467.95 1234.19 467.315 1233.75 466.821C1233.31 466.327 1232.72 465.918 1231.97 465.594C1231.23 465.27 1230.39 464.984 1229.45 464.737L1226.36 463.893C1224.26 463.322 1222.6 462.483 1221.37 461.375C1220.15 460.267 1219.54 458.801 1219.54 456.977C1219.54 455.469 1219.95 454.152 1220.77 453.027C1221.59 451.902 1222.7 451.028 1224.1 450.406C1225.49 449.776 1227.07 449.46 1228.83 449.46C1230.6 449.46 1232.16 449.771 1233.52 450.393C1234.88 451.016 1235.95 451.872 1236.74 452.963C1237.52 454.045 1237.93 455.29 1237.97 456.696H1234.16ZM1251.01 476.396C1249.17 476.396 1247.56 475.974 1246.19 475.131C1244.82 474.287 1243.75 473.107 1242.99 471.589C1242.23 470.072 1241.86 468.3 1241.86 466.271C1241.86 464.234 1242.23 462.453 1242.99 460.928C1243.75 459.402 1244.82 458.217 1246.19 457.374C1247.56 456.53 1249.17 456.108 1251.01 456.108C1252.85 456.108 1254.46 456.53 1255.83 457.374C1257.2 458.217 1258.27 459.402 1259.02 460.928C1259.78 462.453 1260.16 464.234 1260.16 466.271C1260.16 468.3 1259.78 470.072 1259.02 471.589C1258.27 473.107 1257.2 474.287 1255.83 475.131C1254.46 475.974 1252.85 476.396 1251.01 476.396ZM1251.02 473.188C1252.21 473.188 1253.2 472.872 1253.99 472.241C1254.77 471.611 1255.35 470.771 1255.73 469.723C1256.11 468.675 1256.3 467.52 1256.3 466.259C1256.3 465.006 1256.11 463.855 1255.73 462.807C1255.35 461.75 1254.77 460.902 1253.99 460.263C1253.2 459.624 1252.21 459.304 1251.02 459.304C1249.82 459.304 1248.82 459.624 1248.03 460.263C1247.25 460.902 1246.66 461.75 1246.28 462.807C1245.9 463.855 1245.72 465.006 1245.72 466.259C1245.72 467.52 1245.9 468.675 1246.28 469.723C1246.66 470.771 1247.25 471.611 1248.03 472.241C1248.82 472.872 1249.82 473.188 1251.02 473.188ZM1268.25 449.818V476H1264.43V449.818H1268.25ZM1285.83 467.857V456.364H1289.67V476H1285.91V472.599H1285.7C1285.25 473.648 1284.53 474.521 1283.53 475.22C1282.54 475.911 1281.31 476.256 1279.84 476.256C1278.58 476.256 1277.46 475.979 1276.49 475.425C1275.52 474.862 1274.77 474.031 1274.21 472.932C1273.67 471.832 1273.39 470.473 1273.39 468.854V456.364H1277.22V468.393C1277.22 469.732 1277.59 470.797 1278.33 471.589C1279.07 472.382 1280.03 472.778 1281.22 472.778C1281.93 472.778 1282.65 472.599 1283.35 472.241C1284.07 471.884 1284.66 471.342 1285.13 470.618C1285.61 469.893 1285.84 468.973 1285.83 467.857ZM1303.97 456.364V459.432H1293.24V456.364H1303.97ZM1296.12 451.659H1299.94V470.234C1299.94 470.976 1300.05 471.534 1300.28 471.909C1300.5 472.276 1300.78 472.527 1301.13 472.663C1301.49 472.791 1301.88 472.855 1302.3 472.855C1302.6 472.855 1302.87 472.834 1303.1 472.791C1303.33 472.749 1303.51 472.714 1303.64 472.689L1304.33 475.847C1304.11 475.932 1303.79 476.017 1303.38 476.102C1302.97 476.196 1302.46 476.247 1301.85 476.256C1300.84 476.273 1299.9 476.094 1299.04 475.719C1298.17 475.344 1297.46 474.764 1296.93 473.98C1296.39 473.196 1296.12 472.212 1296.12 471.027V451.659ZM1308.2 476V456.364H1312.02V476H1308.2ZM1310.13 453.334C1309.46 453.334 1308.89 453.112 1308.42 452.669C1307.95 452.217 1307.71 451.68 1307.71 451.058C1307.71 450.428 1307.95 449.891 1308.42 449.447C1308.89 448.996 1309.46 448.77 1310.13 448.77C1310.79 448.77 1311.36 448.996 1311.83 449.447C1312.31 449.891 1312.55 450.428 1312.55 451.058C1312.55 451.68 1312.31 452.217 1311.83 452.669C1311.36 453.112 1310.79 453.334 1310.13 453.334ZM1325.43 476.396C1323.59 476.396 1321.99 475.974 1320.62 475.131C1319.24 474.287 1318.18 473.107 1317.42 471.589C1316.66 470.072 1316.28 468.3 1316.28 466.271C1316.28 464.234 1316.66 462.453 1317.42 460.928C1318.18 459.402 1319.24 458.217 1320.62 457.374C1321.99 456.53 1323.59 456.108 1325.43 456.108C1327.28 456.108 1328.88 456.53 1330.25 457.374C1331.63 458.217 1332.69 459.402 1333.45 460.928C1334.21 462.453 1334.59 464.234 1334.59 466.271C1334.59 468.3 1334.21 470.072 1333.45 471.589C1332.69 473.107 1331.63 474.287 1330.25 475.131C1328.88 475.974 1327.28 476.396 1325.43 476.396ZM1325.45 473.188C1326.64 473.188 1327.63 472.872 1328.41 472.241C1329.2 471.611 1329.78 470.771 1330.15 469.723C1330.54 468.675 1330.73 467.52 1330.73 466.259C1330.73 465.006 1330.54 463.855 1330.15 462.807C1329.78 461.75 1329.2 460.902 1328.41 460.263C1327.63 459.624 1326.64 459.304 1325.45 459.304C1324.25 459.304 1323.25 459.624 1322.46 460.263C1321.67 460.902 1321.09 461.75 1320.7 462.807C1320.33 463.855 1320.14 465.006 1320.14 466.259C1320.14 467.52 1320.33 468.675 1320.7 469.723C1321.09 470.771 1321.67 471.611 1322.46 472.241C1323.25 472.872 1324.25 473.188 1325.45 473.188ZM1342.68 464.341V476H1338.85V456.364H1342.52V459.56H1342.77C1343.22 458.52 1343.93 457.685 1344.89 457.054C1345.86 456.423 1347.08 456.108 1348.56 456.108C1349.9 456.108 1351.07 456.389 1352.07 456.952C1353.08 457.506 1353.86 458.332 1354.41 459.432C1354.97 460.531 1355.24 461.891 1355.24 463.51V476H1351.42V463.97C1351.42 462.547 1351.05 461.435 1350.31 460.634C1349.57 459.824 1348.55 459.419 1347.25 459.419C1346.37 459.419 1345.58 459.611 1344.89 459.994C1344.21 460.378 1343.67 460.94 1343.27 461.682C1342.87 462.415 1342.68 463.301 1342.68 464.341Z" fill="#224757"/>
<path d="M1219.08 515V496.091H1221.93V504.308H1231.36V496.091H1234.22V515H1231.36V506.755H1221.93V515H1219.08ZM1254.8 505.545C1254.8 507.564 1254.43 509.3 1253.69 510.753C1252.95 512.199 1251.94 513.313 1250.65 514.095C1249.37 514.871 1247.92 515.259 1246.29 515.259C1244.65 515.259 1243.19 514.871 1241.9 514.095C1240.62 513.313 1239.61 512.196 1238.87 510.744C1238.13 509.291 1237.76 507.558 1237.76 505.545C1237.76 503.527 1238.13 501.794 1238.87 500.347C1239.61 498.895 1240.62 497.781 1241.9 497.005C1243.19 496.223 1244.65 495.832 1246.29 495.832C1247.92 495.832 1249.37 496.223 1250.65 497.005C1251.94 497.781 1252.95 498.895 1253.69 500.347C1254.43 501.794 1254.8 503.527 1254.8 505.545ZM1251.97 505.545C1251.97 504.007 1251.73 502.711 1251.23 501.658C1250.73 500.6 1250.06 499.799 1249.2 499.258C1248.34 498.71 1247.37 498.436 1246.29 498.436C1245.2 498.436 1244.22 498.71 1243.37 499.258C1242.51 499.799 1241.84 500.6 1241.34 501.658C1240.85 502.711 1240.6 504.007 1240.6 505.545C1240.6 507.084 1240.85 508.383 1241.34 509.442C1241.84 510.494 1242.51 511.295 1243.37 511.842C1244.22 512.384 1245.2 512.655 1246.29 512.655C1247.37 512.655 1248.34 512.384 1249.2 511.842C1250.06 511.295 1250.73 510.494 1251.23 509.442C1251.73 508.383 1251.97 507.084 1251.97 505.545ZM1261.83 515L1256.59 496.091H1259.59L1263.27 510.734H1263.45L1267.28 496.091H1270.25L1274.08 510.744H1274.26L1277.93 496.091H1280.94L1275.69 515H1272.82L1268.84 500.837H1268.69L1264.71 515H1261.83ZM1286.34 509.562V509.386C1286.35 508.241 1286.47 507.33 1286.68 506.653C1286.91 505.976 1287.22 505.429 1287.63 505.01C1288.03 504.591 1288.52 504.21 1289.09 503.865C1289.46 503.631 1289.79 503.37 1290.09 503.08C1290.39 502.791 1290.62 502.459 1290.79 502.083C1290.96 501.708 1291.05 501.292 1291.05 500.837C1291.05 500.289 1290.92 499.815 1290.66 499.415C1290.4 499.015 1290.06 498.707 1289.63 498.491C1289.2 498.27 1288.73 498.159 1288.21 498.159C1287.73 498.159 1287.28 498.258 1286.85 498.455C1286.42 498.652 1286.06 498.959 1285.78 499.378C1285.5 499.79 1285.33 500.323 1285.29 500.975H1282.48C1282.53 499.867 1282.81 498.932 1283.32 498.168C1283.84 497.399 1284.52 496.817 1285.37 496.423C1286.23 496.029 1287.17 495.832 1288.21 495.832C1289.34 495.832 1290.33 496.045 1291.18 496.469C1292.03 496.888 1292.69 497.476 1293.16 498.233C1293.63 498.984 1293.87 499.861 1293.87 500.864C1293.87 501.554 1293.76 502.175 1293.54 502.729C1293.33 503.277 1293.02 503.767 1292.62 504.197C1292.23 504.628 1291.75 505.01 1291.2 505.342C1290.68 505.669 1290.25 506.007 1289.92 506.358C1289.6 506.709 1289.37 507.124 1289.22 507.604C1289.07 508.085 1288.99 508.679 1288.98 509.386V509.562H1286.34ZM1287.74 515.175C1287.23 515.175 1286.8 514.997 1286.43 514.64C1286.07 514.277 1285.89 513.84 1285.89 513.329C1285.89 512.824 1286.07 512.393 1286.43 512.036C1286.8 511.673 1287.23 511.491 1287.74 511.491C1288.23 511.491 1288.67 511.673 1289.03 512.036C1289.4 512.393 1289.58 512.824 1289.58 513.329C1289.58 513.667 1289.5 513.978 1289.32 514.261C1289.16 514.538 1288.94 514.76 1288.66 514.926C1288.38 515.092 1288.07 515.175 1287.74 515.175Z" fill="#A9B4B9"/>
<path d="M68.5028 596.545C68.5028 598.564 68.1335 600.3 67.3949 601.753C66.6563 603.199 65.6437 604.313 64.3572 605.095C63.0769 605.871 61.6212 606.259 59.9901 606.259C58.3527 606.259 56.8909 605.871 55.6044 605.095C54.3241 604.313 53.3146 603.196 52.576 601.744C51.8374 600.291 51.468 598.558 51.468 596.545C51.468 594.527 51.8374 592.794 52.576 591.347C53.3146 589.895 54.3241 588.781 55.6044 588.005C56.8909 587.223 58.3527 586.832 59.9901 586.832C61.6212 586.832 63.0769 587.223 64.3572 588.005C65.6437 588.781 66.6563 589.895 67.3949 591.347C68.1335 592.794 68.5028 594.527 68.5028 596.545ZM65.6776 596.545C65.6776 595.007 65.4283 593.711 64.9297 592.658C64.4373 591.6 63.7602 590.799 62.8984 590.258C62.0429 589.71 61.0734 589.436 59.9901 589.436C58.9006 589.436 57.928 589.71 57.0724 590.258C56.2169 590.799 55.5398 591.6 55.0412 592.658C54.5488 593.711 54.3026 595.007 54.3026 596.545C54.3026 598.084 54.5488 599.383 55.0412 600.442C55.5398 601.494 56.2169 602.295 57.0724 602.842C57.928 603.384 58.9006 603.655 59.9901 603.655C61.0734 603.655 62.0429 603.384 62.8984 602.842C63.7602 602.295 64.4373 601.494 64.9297 600.442C65.4283 599.383 65.6776 598.084 65.6776 596.545ZM84.2196 587.091H87.0819V599.528C87.0819 600.851 86.771 602.024 86.1493 603.045C85.5276 604.061 84.6536 604.861 83.5272 605.446C82.4007 606.025 81.0804 606.314 79.5662 606.314C78.0582 606.314 76.7409 606.025 75.6145 605.446C74.4881 604.861 73.6141 604.061 72.9924 603.045C72.3707 602.024 72.0598 600.851 72.0598 599.528V587.091H74.9128V599.297C74.9128 600.152 75.1006 600.913 75.476 601.577C75.8577 602.242 76.3962 602.765 77.0918 603.147C77.7873 603.522 78.6122 603.71 79.5662 603.71C80.5265 603.71 81.3543 603.522 82.0499 603.147C82.7516 602.765 83.2871 602.242 83.6564 601.577C84.0319 600.913 84.2196 600.152 84.2196 599.297V587.091ZM90.2972 589.547V587.091H104.931V589.547H99.0316V606H96.1879V589.547H90.2972ZM118.479 592.058C118.38 591.184 117.974 590.507 117.26 590.027C116.546 589.541 115.647 589.298 114.564 589.298C113.788 589.298 113.117 589.421 112.551 589.667C111.985 589.907 111.545 590.239 111.231 590.664C110.923 591.083 110.769 591.56 110.769 592.095C110.769 592.545 110.874 592.932 111.083 593.259C111.298 593.585 111.578 593.859 111.923 594.08C112.274 594.296 112.649 594.477 113.05 594.625C113.45 594.767 113.834 594.884 114.204 594.976L116.05 595.456C116.653 595.604 117.272 595.804 117.906 596.056C118.54 596.308 119.128 596.641 119.67 597.053C120.211 597.466 120.648 597.977 120.981 598.586C121.319 599.195 121.488 599.925 121.488 600.774C121.488 601.845 121.211 602.796 120.657 603.627C120.11 604.458 119.313 605.114 118.266 605.594C117.226 606.074 115.967 606.314 114.49 606.314C113.074 606.314 111.849 606.089 110.815 605.64C109.781 605.191 108.972 604.554 108.387 603.729C107.802 602.898 107.479 601.913 107.417 600.774H110.28C110.335 601.457 110.557 602.027 110.944 602.482C111.338 602.932 111.84 603.267 112.449 603.489C113.065 603.704 113.739 603.812 114.471 603.812C115.278 603.812 115.995 603.686 116.623 603.433C117.257 603.175 117.755 602.818 118.118 602.362C118.482 601.901 118.663 601.362 118.663 600.746C118.663 600.186 118.503 599.728 118.183 599.371C117.869 599.014 117.441 598.718 116.9 598.484C116.364 598.25 115.758 598.044 115.081 597.866L112.846 597.256C111.332 596.844 110.132 596.238 109.246 595.438C108.365 594.637 107.925 593.579 107.925 592.261C107.925 591.172 108.221 590.221 108.812 589.408C109.403 588.596 110.203 587.965 111.212 587.516C112.222 587.06 113.36 586.832 114.628 586.832C115.909 586.832 117.038 587.057 118.017 587.506C119.002 587.956 119.777 588.574 120.344 589.362C120.91 590.144 121.205 591.043 121.23 592.058H118.479ZM127.751 587.091V606H124.898V587.091H127.751ZM138.027 606H131.906V587.091H138.221C140.074 587.091 141.665 587.469 142.994 588.227C144.324 588.978 145.343 590.058 146.05 591.467C146.764 592.871 147.121 594.554 147.121 596.518C147.121 598.487 146.761 600.18 146.041 601.596C145.327 603.012 144.293 604.101 142.939 604.864C141.585 605.621 139.947 606 138.027 606ZM134.759 603.507H137.87C139.31 603.507 140.508 603.236 141.462 602.695C142.416 602.147 143.13 601.356 143.604 600.322C144.078 599.281 144.315 598.013 144.315 596.518C144.315 595.034 144.078 593.776 143.604 592.741C143.136 591.707 142.437 590.923 141.508 590.387C140.578 589.852 139.424 589.584 138.045 589.584H134.759V603.507ZM150.669 606V587.091H162.524V589.547H153.522V595.308H161.906V597.755H153.522V603.544H162.635V606H150.669ZM184.776 605.16L183.114 603.516L188.884 597.746H174.389V595.345H188.884L183.114 589.584L184.776 587.931L193.39 596.545L184.776 605.16ZM207.757 587.091V606H204.904V587.091H207.757ZM227.173 587.091V606H224.551L214.94 592.132H214.764V606H211.911V587.091H214.552L224.173 600.977H224.348V587.091H227.173Z" fill="#A9B4B9"/>
<path d="M1018.93 587.091V606H1016.08V587.091H1018.93ZM1038.35 587.091V606H1035.73L1026.11 592.132H1025.94V606H1023.09V587.091H1025.73L1035.35 600.977H1035.52V587.091H1038.35ZM1057.77 587.091V606H1055.15L1045.54 592.132H1045.36V606H1042.51V587.091H1045.15L1054.77 600.977H1054.95V587.091H1057.77ZM1078.36 596.545C1078.36 598.564 1077.99 600.3 1077.25 601.753C1076.51 603.199 1075.5 604.313 1074.21 605.095C1072.93 605.871 1071.48 606.259 1069.85 606.259C1068.21 606.259 1066.75 605.871 1065.46 605.095C1064.18 604.313 1063.17 603.196 1062.43 601.744C1061.69 600.291 1061.32 598.558 1061.32 596.545C1061.32 594.527 1061.69 592.794 1062.43 591.347C1063.17 589.895 1064.18 588.781 1065.46 588.005C1066.75 587.223 1068.21 586.832 1069.85 586.832C1071.48 586.832 1072.93 587.223 1074.21 588.005C1075.5 588.781 1076.51 589.895 1077.25 591.347C1077.99 592.794 1078.36 594.527 1078.36 596.545ZM1075.53 596.545C1075.53 595.007 1075.28 593.711 1074.79 592.658C1074.29 591.6 1073.62 590.799 1072.75 590.258C1071.9 589.71 1070.93 589.436 1069.85 589.436C1068.76 589.436 1067.78 589.71 1066.93 590.258C1066.07 590.799 1065.4 591.6 1064.9 592.658C1064.4 593.711 1064.16 595.007 1064.16 596.545C1064.16 598.084 1064.4 599.383 1064.9 600.442C1065.4 601.494 1066.07 602.295 1066.93 602.842C1067.78 603.384 1068.76 603.655 1069.85 603.655C1070.93 603.655 1071.9 603.384 1072.75 602.842C1073.62 602.295 1074.29 601.494 1074.79 600.442C1075.28 599.383 1075.53 598.084 1075.53 596.545ZM1082.63 587.091L1087.89 602.491H1088.1L1093.37 587.091H1096.45L1089.65 606H1086.35L1079.54 587.091H1082.63ZM1098.85 606H1095.82L1102.62 587.091H1105.92L1112.73 606H1109.7L1104.35 590.526H1104.2L1098.85 606ZM1099.36 598.595H1109.18V600.996H1099.36V598.595ZM1112.29 589.547V587.091H1126.92V589.547H1121.02V606H1118.18V589.547H1112.29ZM1133.01 587.091V606H1130.16V587.091H1133.01ZM1153.59 596.545C1153.59 598.564 1153.22 600.3 1152.48 601.753C1151.74 603.199 1150.73 604.313 1149.45 605.095C1148.16 605.871 1146.71 606.259 1145.08 606.259C1143.44 606.259 1141.98 605.871 1140.69 605.095C1139.41 604.313 1138.4 603.196 1137.66 601.744C1136.93 600.291 1136.56 598.558 1136.56 596.545C1136.56 594.527 1136.93 592.794 1137.66 591.347C1138.4 589.895 1139.41 588.781 1140.69 588.005C1141.98 587.223 1143.44 586.832 1145.08 586.832C1146.71 586.832 1148.16 587.223 1149.45 588.005C1150.73 588.781 1151.74 589.895 1152.48 591.347C1153.22 592.794 1153.59 594.527 1153.59 596.545ZM1150.77 596.545C1150.77 595.007 1150.52 593.711 1150.02 592.658C1149.53 591.6 1148.85 590.799 1147.99 590.258C1147.13 589.71 1146.16 589.436 1145.08 589.436C1143.99 589.436 1143.02 589.71 1142.16 590.258C1141.3 590.799 1140.63 591.6 1140.13 592.658C1139.64 593.711 1139.39 595.007 1139.39 596.545C1139.39 598.084 1139.64 599.383 1140.13 600.442C1140.63 601.494 1141.3 602.295 1142.16 602.842C1143.02 603.384 1143.99 603.655 1145.08 603.655C1146.16 603.655 1147.13 603.384 1147.99 602.842C1148.85 602.295 1149.53 601.494 1150.02 600.442C1150.52 599.383 1150.77 598.084 1150.77 596.545ZM1172.41 587.091V606H1169.79L1160.18 592.132H1160V606H1157.15V587.091H1159.79L1169.41 600.977H1169.58V587.091H1172.41ZM1199.88 596.545C1199.88 598.564 1199.51 600.3 1198.77 601.753C1198.03 603.199 1197.02 604.313 1195.73 605.095C1194.45 605.871 1193 606.259 1191.37 606.259C1189.73 606.259 1188.27 605.871 1186.98 605.095C1185.7 604.313 1184.69 603.196 1183.95 601.744C1183.21 600.291 1182.84 598.558 1182.84 596.545C1182.84 594.527 1183.21 592.794 1183.95 591.347C1184.69 589.895 1185.7 588.781 1186.98 588.005C1188.27 587.223 1189.73 586.832 1191.37 586.832C1193 586.832 1194.45 587.223 1195.73 588.005C1197.02 588.781 1198.03 589.895 1198.77 591.347C1199.51 592.794 1199.88 594.527 1199.88 596.545ZM1197.05 596.545C1197.05 595.007 1196.8 593.711 1196.3 592.658C1195.81 591.6 1195.14 590.799 1194.27 590.258C1193.42 589.71 1192.45 589.436 1191.37 589.436C1190.28 589.436 1189.3 589.71 1188.45 590.258C1187.59 590.799 1186.91 591.6 1186.42 592.658C1185.92 593.711 1185.68 595.007 1185.68 596.545C1185.68 598.084 1185.92 599.383 1186.42 600.442C1186.91 601.494 1187.59 602.295 1188.45 602.842C1189.3 603.384 1190.28 603.655 1191.37 603.655C1192.45 603.655 1193.42 603.384 1194.27 602.842C1195.14 602.295 1195.81 601.494 1196.3 600.442C1196.8 599.383 1197.05 598.084 1197.05 596.545ZM1203.43 606V587.091H1215.16V589.547H1206.29V595.308H1214.32V597.755H1206.29V606H1203.43ZM1235.86 592.058C1235.76 591.184 1235.36 590.507 1234.64 590.027C1233.93 589.541 1233.03 589.298 1231.95 589.298C1231.17 589.298 1230.5 589.421 1229.94 589.667C1229.37 589.907 1228.93 590.239 1228.62 590.664C1228.31 591.083 1228.15 591.56 1228.15 592.095C1228.15 592.545 1228.26 592.932 1228.47 593.259C1228.68 593.585 1228.96 593.859 1229.31 594.08C1229.66 594.296 1230.03 594.477 1230.43 594.625C1230.83 594.767 1231.22 594.884 1231.59 594.976L1233.44 595.456C1234.04 595.604 1234.66 595.804 1235.29 596.056C1235.92 596.308 1236.51 596.641 1237.05 597.053C1237.6 597.466 1238.03 597.977 1238.37 598.586C1238.7 599.195 1238.87 599.925 1238.87 600.774C1238.87 601.845 1238.6 602.796 1238.04 603.627C1237.49 604.458 1236.7 605.114 1235.65 605.594C1234.61 606.074 1233.35 606.314 1231.87 606.314C1230.46 606.314 1229.23 606.089 1228.2 605.64C1227.17 605.191 1226.36 604.554 1225.77 603.729C1225.19 602.898 1224.86 601.913 1224.8 600.774H1227.66C1227.72 601.457 1227.94 602.027 1228.33 602.482C1228.72 602.932 1229.22 603.267 1229.83 603.489C1230.45 603.704 1231.12 603.812 1231.86 603.812C1232.66 603.812 1233.38 603.686 1234.01 603.433C1234.64 603.175 1235.14 602.818 1235.5 602.362C1235.87 601.901 1236.05 601.362 1236.05 600.746C1236.05 600.186 1235.89 599.728 1235.57 599.371C1235.25 599.014 1234.83 598.718 1234.28 598.484C1233.75 598.25 1233.14 598.044 1232.47 597.866L1230.23 597.256C1228.72 596.844 1227.52 596.238 1226.63 595.438C1225.75 594.637 1225.31 593.579 1225.31 592.261C1225.31 591.172 1225.61 590.221 1226.2 589.408C1226.79 588.596 1227.59 587.965 1228.6 587.516C1229.61 587.06 1230.75 586.832 1232.01 586.832C1233.29 586.832 1234.42 587.057 1235.4 587.506C1236.39 587.956 1237.16 588.574 1237.73 589.362C1238.29 590.144 1238.59 591.043 1238.61 592.058H1235.86ZM1258.71 596.545C1258.71 598.564 1258.34 600.3 1257.6 601.753C1256.86 603.199 1255.85 604.313 1254.56 605.095C1253.28 605.871 1251.83 606.259 1250.2 606.259C1248.56 606.259 1247.1 605.871 1245.81 605.095C1244.53 604.313 1243.52 603.196 1242.78 601.744C1242.04 600.291 1241.67 598.558 1241.67 596.545C1241.67 594.527 1242.04 592.794 1242.78 591.347C1243.52 589.895 1244.53 588.781 1245.81 588.005C1247.1 587.223 1248.56 586.832 1250.2 586.832C1251.83 586.832 1253.28 587.223 1254.56 588.005C1255.85 588.781 1256.86 589.895 1257.6 591.347C1258.34 592.794 1258.71 594.527 1258.71 596.545ZM1255.88 596.545C1255.88 595.007 1255.63 593.711 1255.13 592.658C1254.64 591.6 1253.97 590.799 1253.1 590.258C1252.25 589.71 1251.28 589.436 1250.2 589.436C1249.11 589.436 1248.13 589.71 1247.28 590.258C1246.42 590.799 1245.74 591.6 1245.25 592.658C1244.75 593.711 1244.51 595.007 1244.51 596.545C1244.51 598.084 1244.75 599.383 1245.25 600.442C1245.74 601.494 1246.42 602.295 1247.28 602.842C1248.13 603.384 1249.11 603.655 1250.2 603.655C1251.28 603.655 1252.25 603.384 1253.1 602.842C1253.97 602.295 1254.64 601.494 1255.13 600.442C1255.63 599.383 1255.88 598.084 1255.88 596.545ZM1262.26 606V587.091H1265.12V603.544H1273.69V606H1262.26ZM1289.1 587.091H1291.96V599.528C1291.96 600.851 1291.65 602.024 1291.03 603.045C1290.41 604.061 1289.53 604.861 1288.41 605.446C1287.28 606.025 1285.96 606.314 1284.45 606.314C1282.94 606.314 1281.62 606.025 1280.5 605.446C1279.37 604.861 1278.49 604.061 1277.87 603.045C1277.25 602.024 1276.94 600.851 1276.94 599.528V587.091H1279.79V599.297C1279.79 600.152 1279.98 600.913 1280.36 601.577C1280.74 602.242 1281.28 602.765 1281.97 603.147C1282.67 603.522 1283.49 603.71 1284.45 603.71C1285.41 603.71 1286.24 603.522 1286.93 603.147C1287.63 602.765 1288.17 602.242 1288.54 601.577C1288.91 600.913 1289.1 600.152 1289.1 599.297V587.091ZM1295.18 589.547V587.091H1309.81V589.547H1303.91V606H1301.07V589.547H1295.18ZM1315.9 587.091V606H1313.05V587.091H1315.9ZM1336.48 596.545C1336.48 598.564 1336.11 600.3 1335.37 601.753C1334.63 603.199 1333.62 604.313 1332.33 605.095C1331.05 605.871 1329.6 606.259 1327.97 606.259C1326.33 606.259 1324.87 605.871 1323.58 605.095C1322.3 604.313 1321.29 603.196 1320.55 601.744C1319.81 600.291 1319.44 598.558 1319.44 596.545C1319.44 594.527 1319.81 592.794 1320.55 591.347C1321.29 589.895 1322.3 588.781 1323.58 588.005C1324.87 587.223 1326.33 586.832 1327.97 586.832C1329.6 586.832 1331.05 587.223 1332.33 588.005C1333.62 588.781 1334.63 589.895 1335.37 591.347C1336.11 592.794 1336.48 594.527 1336.48 596.545ZM1333.65 596.545C1333.65 595.007 1333.4 593.711 1332.91 592.658C1332.41 591.6 1331.74 590.799 1330.88 590.258C1330.02 589.71 1329.05 589.436 1327.97 589.436C1326.88 589.436 1325.9 589.71 1325.05 590.258C1324.19 590.799 1323.52 591.6 1323.02 592.658C1322.53 593.711 1322.28 595.007 1322.28 596.545C1322.28 598.084 1322.53 599.383 1323.02 600.442C1323.52 601.494 1324.19 602.295 1325.05 602.842C1325.9 603.384 1326.88 603.655 1327.97 603.655C1329.05 603.655 1330.02 603.384 1330.88 602.842C1331.74 602.295 1332.41 601.494 1332.91 600.442C1333.4 599.383 1333.65 598.084 1333.65 596.545ZM1355.3 587.091V606H1352.68L1343.06 592.132H1342.89V606H1340.04V587.091H1342.68L1352.3 600.977H1352.47V587.091H1355.3Z" fill="#A9B4B9"/>
</svg>
