<svg width="503" height="464" viewBox="0 0 503 464" fill="none" xmlns="http://www.w3.org/2000/svg">
<rect width="503" height="464" rx="10" fill="#224757"/>
<rect x="45" y="88.1836" width="406.726" height="13.3731" rx="6.68654" fill="#E3F2FA"/>
<path d="M50.2656 94.8711H445.145" stroke="white" stroke-width="0.526615" stroke-dasharray="5.27 5.27"/>
<circle cx="172.504" cy="93.4358" r="31.5881" fill="black"/>
<rect x="140.916" y="80.2852" width="63.1763" height="14.2954" fill="black"/>
<circle cx="172.504" cy="81.5881" r="29.513" fill="white" stroke="#151515" stroke-width="4.15026" stroke-dasharray="2.31 2.31"/>
<g filter="url(#filter0_i_1667_2555)">
<circle cx="172.504" cy="81.5863" r="27.4379" fill="#636262"/>
</g>
<line x1="163.54" y1="87.668" x2="169.821" y2="93.9493" stroke="#A1CAF0" stroke-width="2.24905" stroke-linecap="round"/>
<line x1="171.358" y1="82.4546" x2="175.8" y2="90.1476" stroke="#A1CAF0" stroke-width="2.24905" stroke-linecap="round"/>
<line x1="183.838" y1="82.8655" x2="181.539" y2="91.446" stroke="#A1CAF0" stroke-width="2.24905" stroke-linecap="round"/>
<path d="M199.409 142.003V137.075C199.409 134.896 198.544 132.807 197.003 131.266C195.463 129.726 193.374 128.86 191.195 128.86C189.016 128.86 186.927 129.726 185.387 131.266C183.846 132.807 182.981 134.896 182.981 137.075V110.789C182.981 108.61 182.115 106.521 180.575 104.98C179.034 103.44 176.945 102.574 174.766 102.574C172.588 102.574 170.498 103.44 168.958 104.98C167.417 106.521 166.552 108.61 166.552 110.789V160.609L157.557 145.002C156.468 143.112 154.672 141.732 152.566 141.166C150.459 140.6 148.214 140.894 146.324 141.983C144.434 143.072 143.054 144.868 142.488 146.974C141.922 149.081 142.216 151.326 143.305 153.216C156.694 181.433 164.827 191.29 182.981 191.29C187.296 191.29 191.568 190.44 195.555 188.789C199.541 187.138 203.163 184.717 206.214 181.666C209.266 178.615 211.686 174.993 213.337 171.006C214.988 167.02 215.838 162.747 215.838 158.432V142.003C215.838 139.825 214.973 137.735 213.432 136.195C211.892 134.654 209.802 133.789 207.624 133.789C205.445 133.789 203.356 134.654 201.815 136.195C200.275 137.735 199.409 139.825 199.409 142.003Z" fill="#B7D1FF"/>
<path d="M199.409 142.003V137.075C199.409 134.896 198.544 132.807 197.003 131.266C195.463 129.726 193.374 128.86 191.195 128.86C189.016 128.86 186.927 129.726 185.387 131.266C183.846 132.807 182.981 134.896 182.981 137.075V110.789C182.981 108.61 182.115 106.521 180.575 104.98C179.034 103.44 176.945 102.574 174.766 102.574C172.588 102.574 170.498 103.44 168.958 104.98C167.417 106.521 166.552 108.61 166.552 110.789V160.609L157.557 145.002C156.468 143.112 154.672 141.732 152.566 141.166C150.459 140.6 148.214 140.894 146.324 141.983C144.434 143.072 143.054 144.868 142.488 146.974C141.922 149.081 142.216 151.326 143.305 153.216C156.694 181.433 164.827 191.29 182.981 191.29C187.296 191.29 191.568 190.44 195.555 188.789C199.541 187.138 203.163 184.717 206.214 181.666C209.266 178.615 211.686 174.993 213.337 171.006C214.988 167.02 215.838 162.747 215.838 158.432V142.003C215.838 139.825 214.973 137.735 213.432 136.195C211.892 134.654 209.802 133.789 207.624 133.789C205.445 133.789 203.356 134.654 201.815 136.195C200.275 137.735 199.409 139.825 199.409 142.003V142.003Z" stroke="#3F95E4" stroke-width="5.08343" stroke-linecap="round" stroke-linejoin="round"/>
<rect x="50.4121" y="314.039" width="406.726" height="13.3731" rx="6.68654" fill="#E3F2FA"/>
<path d="M55.6777 320.727H450.557" stroke="white" stroke-width="0.526615" stroke-dasharray="5.27 5.27"/>
<path d="M186.313 264.326L205.632 259.15L200.455 239.831" stroke="#9ED1FF" stroke-width="3.15136" stroke-linecap="round" stroke-linejoin="round"/>
<path d="M138.206 262.516C140.605 258.328 143.804 254.658 147.62 251.717C151.436 248.776 155.794 246.62 160.444 245.374C165.094 244.128 169.945 243.816 174.72 244.455C179.496 245.095 184.101 246.673 188.273 249.1L205.632 259.148" stroke="#9ED1FF" stroke-width="3.15136" stroke-linecap="round" stroke-linejoin="round"/>
<path d="M140.802 362.971L121.484 357.794L116.307 377.113" stroke="#9ED1FF" stroke-width="3.15136" stroke-linecap="round" stroke-linejoin="round"/>
<path d="M181.56 388.59C177.388 391.017 172.783 392.595 168.008 393.235C163.233 393.874 158.381 393.562 153.731 392.316C149.081 391.07 144.723 388.914 140.908 385.973C137.092 383.032 133.893 379.362 131.493 375.174L121.484 357.793" stroke="#9ED1FF" stroke-width="3.15136" stroke-linecap="round" stroke-linejoin="round"/>
<circle cx="177.699" cy="327.324" r="31.7028" fill="black"/>
<rect x="145.996" y="314.117" width="63.4056" height="14.3473" fill="black"/>
<g filter="url(#filter1_d_1667_2555)">
<circle cx="177.699" cy="315.429" r="31.7028" fill="#CFCFCF"/>
<circle cx="177.699" cy="315.429" r="29.6201" stroke="#151515" stroke-width="4.16533" stroke-dasharray="2.31 2.31"/>
</g>
<g filter="url(#filter2_i_1667_2555)">
<circle cx="177.7" cy="315.428" r="27.5375" fill="#B6B6B6"/>
</g>
<path d="M196.142 297.822L195.671 296.051C194.986 293.475 196.05 290.752 198.301 289.324C199.096 288.819 199.998 288.506 200.935 288.407L202.172 288.277C205.113 287.968 208.058 288.813 210.388 290.633L218.09 296.648C219.882 298.048 221.416 299.751 222.622 301.68L226.859 308.456C229.246 312.274 233.97 313.914 238.21 312.398C240.044 311.742 242.034 311.661 243.916 312.165L259.577 316.361L260.178 316.522C269.366 318.984 276.53 326.179 278.953 335.377C279.488 337.407 279.78 339.492 279.822 341.59L280.352 367.574C280.517 375.658 277.813 383.539 272.721 389.82L271.814 390.939C271.078 391.847 270.26 392.683 269.369 393.438L258.099 402.994C257.418 403.571 257.267 404.561 257.743 405.316C258.663 406.771 257.199 408.559 255.59 407.945L237.807 401.15C237.235 400.931 236.689 400.648 236.18 400.307L212.37 384.328L188.84 365.429C186.614 363.641 184.896 361.301 183.857 358.642L181.266 352.013C180.24 349.386 181.019 346.398 183.197 344.607C185.439 342.764 188.629 342.626 191.022 344.268L200.039 350.457C200.663 350.885 201.325 351.255 202.016 351.563L214.98 357.331C217.826 358.597 220.984 356.336 220.702 353.233L217.551 338.021C215.465 327.948 211.133 318.475 204.877 310.309L197.627 300.845C196.938 299.945 196.433 298.918 196.142 297.822Z" fill="#B7D1FF" stroke="#3F95E4" stroke-width="1.60039"/>
<path fill-rule="evenodd" clip-rule="evenodd" d="M197.576 284.662C192.096 285.615 186.393 289.329 191.241 297.571C191.355 298.646 208.363 310.631 211.813 326.448C215.261 342.266 217.905 355.32 217.687 355.458C216.91 355.951 212.609 353.082 208.145 349.092C202.688 344.215 191.36 335.975 187.509 336.301C178.094 337.099 173.237 347.765 178.35 356.411C183.564 365.228 211.932 389.517 225.624 397.492C230.067 400.078 256.015 410.306 257.681 408.703C257.965 407.643 257.138 403.937 255.912 402.5C250.412 401.714 231.004 391.456 228.543 390.017C223.586 387.118 218.921 383.754 212.756 378.633C203.595 371.024 184.271 353.039 183.752 350.427C183.304 348.167 184.367 345.59 186.086 344.77C188.323 343.702 199.063 351.472 202.709 354.786C209.926 361.347 216.439 364.752 221.453 364.584C224.15 364.493 226.533 362.926 226.69 361.139C226.746 360.505 223.553 345.131 219.596 326.976C215.638 308.821 200.048 297.505 196.971 294.725C197.43 293.011 197.548 290.619 201.282 290.334C202.697 290.877 218.98 292.699 224.745 311.782C228.135 323.001 231.202 332.579 231.562 333.065C232.668 334.564 234.752 334.774 236.27 333.54C237.032 332.921 237.746 332.08 237.856 331.669C237.965 331.26 237.765 328.055 237.41 324.549C237.056 321.043 236.855 317.838 236.965 317.428C237.318 316.11 239.891 314.42 241.066 314.735C242.997 315.252 243.672 317.193 244.336 324.132C244.689 327.82 245.291 331.496 245.672 332.301C247.051 335.21 251.176 334.648 252.038 331.434C252.255 330.624 252.225 328.124 251.972 325.878C251.445 321.2 251.634 320.025 253.136 318.664C254.471 317.454 257.187 318.03 257.927 319.679C258.205 320.3 258.705 323.484 259.038 326.754C259.37 330.025 259.935 333.198 260.293 333.806C261.268 335.462 263.907 335.672 265.59 334.229C266.937 333.073 266.974 332.956 266.823 330.299C266.544 325.394 268.147 322.559 270.798 323.269C272.75 323.792 273.536 326.792 274.448 337.191C276.296 358.276 276.015 370.258 273.402 381.88C271.922 388.462 259.412 403 255.912 402.5C259.753 405.886 256.106 409.702 257.681 408.703L263.279 405.34L273.402 395.5L280.42 384.261C283.275 373.094 283.737 359.085 281.952 337.86C280.956 326.014 280.423 323.049 278.816 320.411C276.983 317.404 273.351 315.171 270.396 315.236C269.15 315.264 267.495 315.56 266.718 315.894C265.344 316.486 265.255 316.438 263.394 314.126C260.207 310.167 255.734 308.965 251.35 310.891L249.4 311.747L247.699 309.932C244.368 306.379 238.189 305.99 234.197 309.081L232.264 310.578L227.788 300.426C222.253 293.629 211.49 286.402 209.05 285.748C204.629 283.711 199.747 284.378 197.576 284.662Z" fill="#3F95E4"/>
<defs>
<filter id="filter0_i_1667_2555" x="145.066" y="54.1484" width="54.876" height="57.6418" filterUnits="userSpaceOnUse" color-interpolation-filters="sRGB">
<feFlood flood-opacity="0" result="BackgroundImageFix"/>
<feBlend mode="normal" in="SourceGraphic" in2="BackgroundImageFix" result="shape"/>
<feColorMatrix in="SourceAlpha" type="matrix" values="0 0 0 0 0 0 0 0 0 0 0 0 0 0 0 0 0 0 127 0" result="hardAlpha"/>
<feOffset dy="6.45597"/>
<feGaussianBlur stdDeviation="1.38342"/>
<feComposite in2="hardAlpha" operator="arithmetic" k2="-1" k3="1"/>
<feColorMatrix type="matrix" values="0 0 0 0 0 0 0 0 0 0 0 0 0 0 0 0 0 0 0.6 0"/>
<feBlend mode="normal" in2="shape" result="effect1_innerShadow_1667_2555"/>
</filter>
<filter id="filter1_d_1667_2555" x="144.145" y="283.727" width="67.1078" height="67.1088" filterUnits="userSpaceOnUse" color-interpolation-filters="sRGB">
<feFlood flood-opacity="0" result="BackgroundImageFix"/>
<feColorMatrix in="SourceAlpha" type="matrix" values="0 0 0 0 0 0 0 0 0 0 0 0 0 0 0 0 0 0 127 0" result="hardAlpha"/>
<feOffset dy="1.85126"/>
<feGaussianBlur stdDeviation="0.925629"/>
<feComposite in2="hardAlpha" operator="out"/>
<feColorMatrix type="matrix" values="0 0 0 0 0 0 0 0 0 0 0 0 0 0 0 0 0 0 0.25 0"/>
<feBlend mode="normal" in2="BackgroundImageFix" result="effect1_dropShadow_1667_2555"/>
<feBlend mode="normal" in="SourceGraphic" in2="effect1_dropShadow_1667_2555" result="shape"/>
</filter>
<filter id="filter2_i_1667_2555" x="150.162" y="285.114" width="55.0752" height="57.8511" filterUnits="userSpaceOnUse" color-interpolation-filters="sRGB">
<feFlood flood-opacity="0" result="BackgroundImageFix"/>
<feBlend mode="normal" in="SourceGraphic" in2="BackgroundImageFix" result="shape"/>
<feColorMatrix in="SourceAlpha" type="matrix" values="0 0 0 0 0 0 0 0 0 0 0 0 0 0 0 0 0 0 127 0" result="hardAlpha"/>
<feOffset dy="-6.4794"/>
<feGaussianBlur stdDeviation="1.38844"/>
<feComposite in2="hardAlpha" operator="arithmetic" k2="-1" k3="1"/>
<feColorMatrix type="matrix" values="0 0 0 0 0 0 0 0 0 0 0 0 0 0 0 0 0 0 0.6 0"/>
<feBlend mode="normal" in2="shape" result="effect1_innerShadow_1667_2555"/>
</filter>
</defs>
</svg>
