<svg width="503" height="464" viewBox="0 0 503 464" fill="none" xmlns="http://www.w3.org/2000/svg">
<rect width="503" height="464" rx="10" fill="#224757"/>
<rect x="48" y="316.039" width="406.726" height="13.3731" rx="6.68654" fill="#E3F2FA"/>
<path d="M53.2656 322.727H448.145" stroke="white" stroke-width="0.526615" stroke-dasharray="5.27 5.27"/>
<circle cx="175.289" cy="329.324" r="31.7028" fill="black"/>
<rect x="143.586" y="316.117" width="63.4056" height="14.3473" fill="black"/>
<g filter="url(#filter0_d_1667_2556)">
<circle cx="175.289" cy="317.429" r="31.7028" fill="#CFCFCF"/>
<circle cx="175.289" cy="317.429" r="29.6201" stroke="#151515" stroke-width="4.16533" stroke-dasharray="2.31 2.31"/>
</g>
<g filter="url(#filter1_i_1667_2556)">
<circle cx="175.289" cy="317.428" r="27.5375" fill="#B6B6B6"/>
</g>
<path d="M193.728 299.822L193.257 298.051C192.572 295.475 193.636 292.752 195.887 291.324C196.682 290.819 197.584 290.506 198.521 290.407L199.758 290.277C202.699 289.968 205.644 290.813 207.974 292.633L215.675 298.648C217.468 300.048 219.002 301.751 220.208 303.68L224.445 310.456C226.832 314.274 231.556 315.914 235.796 314.398C237.63 313.742 239.62 313.661 241.502 314.165L257.163 318.361L257.764 318.522C266.952 320.984 274.116 328.179 276.539 337.377C277.074 339.407 277.366 341.492 277.408 343.59L277.938 369.574C278.103 377.658 275.399 385.539 270.307 391.82L269.4 392.939C268.664 393.847 267.846 394.683 266.955 395.438L255.685 404.994C255.004 405.571 254.853 406.561 255.329 407.316C256.249 408.771 254.785 410.559 253.176 409.945L235.393 403.15C234.821 402.931 234.275 402.648 233.766 402.307L209.956 386.328L186.426 367.429C184.2 365.641 182.482 363.301 181.442 360.642L178.852 354.013C177.825 351.386 178.605 348.398 180.783 346.607C183.025 344.764 186.215 344.626 188.608 346.268L197.625 352.457C198.249 352.885 198.911 353.255 199.602 353.563L212.566 359.331C215.412 360.597 218.57 358.336 218.288 355.233L215.137 340.021C213.051 329.948 208.719 320.475 202.463 312.309L195.213 302.845C194.524 301.945 194.019 300.918 193.728 299.822Z" fill="#B7D1FF" stroke="#3F95E4" stroke-width="1.60039"/>
<path fill-rule="evenodd" clip-rule="evenodd" d="M195.162 286.662C189.682 287.615 183.979 291.329 188.827 299.571C188.941 300.646 205.949 312.631 209.399 328.448C212.847 344.266 215.491 357.32 215.273 357.458C214.496 357.951 210.195 355.082 205.731 351.092C200.274 346.215 188.946 337.975 185.095 338.301C175.68 339.099 170.823 349.765 175.936 358.411C181.15 367.228 209.517 391.517 223.21 399.492C227.653 402.078 253.601 412.306 255.267 410.703C255.551 409.643 254.724 405.937 253.498 404.5C247.998 403.714 228.59 393.456 226.129 392.017C221.172 389.118 216.507 385.754 210.341 380.633C201.181 373.024 181.857 355.039 181.338 352.427C180.89 350.167 181.953 347.59 183.672 346.77C185.909 345.702 196.649 353.472 200.295 356.786C207.512 363.347 214.025 366.752 219.039 366.584C221.736 366.493 224.119 364.926 224.276 363.139C224.332 362.505 221.139 347.131 217.182 328.976C213.224 310.821 197.634 299.505 194.557 296.725C195.016 295.011 195.134 292.619 198.868 292.334C200.283 292.877 216.566 294.699 222.331 313.782C225.721 325.001 228.788 334.579 229.147 335.065C230.254 336.564 232.338 336.774 233.856 335.54C234.618 334.921 235.332 334.08 235.441 333.669C235.551 333.26 235.351 330.055 234.996 326.549C234.642 323.043 234.441 319.838 234.551 319.428C234.904 318.11 237.477 316.42 238.652 316.735C240.583 317.252 241.258 319.193 241.922 326.132C242.275 329.82 242.877 333.496 243.258 334.301C244.637 337.21 248.762 336.648 249.624 333.434C249.841 332.624 249.811 330.124 249.558 327.878C249.031 323.2 249.22 322.025 250.722 320.664C252.057 319.454 254.773 320.03 255.513 321.679C255.791 322.3 256.291 325.484 256.624 328.754C256.956 332.025 257.521 335.198 257.879 335.806C258.854 337.462 261.493 337.672 263.176 336.229C264.523 335.073 264.56 334.956 264.409 332.299C264.129 327.394 265.733 324.559 268.384 325.269C270.336 325.792 271.122 328.792 272.033 339.191C273.882 360.276 273.601 372.258 270.988 383.88C269.508 390.462 256.998 405 253.498 404.5C257.339 407.886 253.692 411.702 255.267 410.703L260.865 407.34L270.988 397.5L278.006 386.261C280.861 375.094 281.323 361.085 279.538 339.86C278.542 328.014 278.009 325.049 276.402 322.411C274.569 319.404 270.937 317.171 267.982 317.236C266.736 317.264 265.081 317.56 264.304 317.894C262.93 318.486 262.841 318.438 260.98 316.126C257.793 312.167 253.32 310.965 248.936 312.891L246.986 313.747L245.285 311.932C241.954 308.379 235.775 307.99 231.783 311.081L229.85 312.578L225.374 302.426C219.839 295.629 209.076 288.402 206.636 287.748C202.215 285.711 197.333 286.378 195.162 286.662Z" fill="#3F95E4"/>
<path opacity="0.2" d="M339.911 169.682C344.371 169.682 347.986 166.066 347.986 161.606C347.986 157.147 344.371 153.531 339.911 153.531C335.451 153.531 331.836 157.147 331.836 161.606C331.836 166.066 335.451 169.682 339.911 169.682Z" fill="#E3F2FA"/>
<path opacity="0.2" d="M302.996 178.908C307.456 178.908 311.071 175.293 311.071 170.833C311.071 166.373 307.456 162.758 302.996 162.758C298.536 162.758 294.921 166.373 294.921 170.833C294.921 175.293 298.536 178.908 302.996 178.908Z" fill="#E3F2FA"/>
<path d="M339.911 169.682C344.371 169.682 347.986 166.066 347.986 161.606C347.986 157.147 344.371 153.531 339.911 153.531C335.451 153.531 331.836 157.147 331.836 161.606C331.836 166.066 335.451 169.682 339.911 169.682Z" stroke="#E3F2FA" stroke-width="4.61437" stroke-linecap="round" stroke-linejoin="round"/>
<path d="M302.996 178.908C307.456 178.908 311.071 175.293 311.071 170.833C311.071 166.373 307.456 162.758 302.996 162.758C298.536 162.758 294.921 166.373 294.921 170.833C294.921 175.293 298.536 178.908 302.996 178.908Z" stroke="#E3F2FA" stroke-width="4.61437" stroke-linecap="round" stroke-linejoin="round"/>
<path d="M347.986 135.074L311.071 144.303" stroke="#E3F2FA" stroke-width="4.61437" stroke-linecap="round" stroke-linejoin="round"/>
<path d="M311.071 170.831V130.455L347.986 121.227V161.602" stroke="#E3F2FA" stroke-width="4.61437" stroke-linecap="round" stroke-linejoin="round"/>
<path d="M77.915 209.457V246.372" stroke="#E3F2FA" stroke-width="4.61437" stroke-linecap="round" stroke-linejoin="round"/>
<path d="M70.9932 202.535L77.9147 209.457L84.8363 202.535" stroke="#E3F2FA" stroke-width="4.61437" stroke-linecap="round" stroke-linejoin="round"/>
<path d="M70.9932 253.293L77.9147 246.371L84.8363 253.293" stroke="#E3F2FA" stroke-width="4.61437" stroke-linecap="round" stroke-linejoin="round"/>
<path d="M61.9385 218.688L93.893 237.145" stroke="#E3F2FA" stroke-width="4.61437" stroke-linecap="round" stroke-linejoin="round"/>
<path d="M52.4775 221.224L61.937 218.686L59.3991 209.227" stroke="#E3F2FA" stroke-width="4.61437" stroke-linecap="round" stroke-linejoin="round"/>
<path d="M96.4295 246.603L93.8916 237.143L103.351 234.605" stroke="#E3F2FA" stroke-width="4.61437" stroke-linecap="round" stroke-linejoin="round"/>
<path d="M61.9385 237.145L93.893 218.688" stroke="#E3F2FA" stroke-width="4.61437" stroke-linecap="round" stroke-linejoin="round"/>
<path d="M59.3991 246.603L61.937 237.143L52.4775 234.605" stroke="#E3F2FA" stroke-width="4.61437" stroke-linecap="round" stroke-linejoin="round"/>
<path d="M103.351 221.224L93.8916 218.686L96.4295 209.227" stroke="#E3F2FA" stroke-width="4.61437" stroke-linecap="round" stroke-linejoin="round"/>
<path d="M231.608 116.985C234.793 116.985 237.376 114.403 237.376 111.217C237.376 108.032 234.793 105.449 231.608 105.449C228.422 105.449 225.84 108.032 225.84 111.217C225.84 114.403 228.422 116.985 231.608 116.985Z" stroke="#E3F2FA" stroke-width="4.61437" stroke-linecap="round" stroke-linejoin="round"/>
<path d="M231.607 105.451V70.8438" stroke="#E3F2FA" stroke-width="4.61437" stroke-linecap="round" stroke-linejoin="round"/>
<path d="M266.304 80.0745C265.768 80.6108 265.132 81.0362 264.432 81.3265C263.732 81.6167 262.981 81.7661 262.223 81.7661C261.465 81.7661 260.714 81.6167 260.014 81.3265C259.314 81.0362 258.678 80.6108 258.142 80.0745C257.606 79.5382 256.97 79.1128 256.27 78.8225C255.57 78.5322 254.819 78.3828 254.061 78.3828C253.303 78.3828 252.553 78.5322 251.853 78.8225C251.152 79.1128 250.516 79.5382 249.98 80.0745" stroke="#E3F2FA" stroke-width="4.61437" stroke-linecap="round" stroke-linejoin="round"/>
<path d="M266.304 91.6096C265.768 92.1459 265.132 92.5714 264.432 92.8616C263.732 93.1519 262.981 93.3013 262.223 93.3013C261.465 93.3013 260.714 93.1519 260.014 92.8616C259.314 92.5714 258.678 92.1459 258.142 91.6096C257.606 91.0733 256.97 90.6479 256.27 90.3576C255.57 90.0674 254.819 89.918 254.061 89.918C253.303 89.918 252.553 90.0674 251.853 90.3576C251.152 90.6479 250.516 91.0733 249.98 91.6096" stroke="#E3F2FA" stroke-width="4.61437" stroke-linecap="round" stroke-linejoin="round"/>
<path d="M222.378 99.3934V70.842C222.378 68.3944 223.351 66.047 225.081 64.3163C226.812 62.5856 229.159 61.6133 231.607 61.6133C234.055 61.6133 236.402 62.5856 238.133 64.3163C239.863 66.047 240.836 68.3944 240.836 70.842V99.3934C243.297 101.315 245.097 103.957 245.985 106.951C246.873 109.945 246.804 113.141 245.788 116.094C244.771 119.047 242.859 121.609 240.317 123.422C237.775 125.236 234.73 126.211 231.607 126.211C228.484 126.211 225.439 125.236 222.897 123.422C220.355 121.609 218.443 119.047 217.427 116.094C216.41 113.141 216.341 109.945 217.229 106.951C218.117 103.957 219.917 101.315 222.378 99.3934V99.3934Z" stroke="#E3F2FA" stroke-width="4.61437" stroke-linecap="round" stroke-linejoin="round"/>
<path opacity="0.2" d="M240.836 99.3934V70.842C240.836 68.3944 239.863 66.047 238.133 64.3163C236.402 62.5856 234.055 61.6133 231.607 61.6133C229.159 61.6133 226.812 62.5856 225.081 64.3163C223.351 66.047 222.378 68.3944 222.378 70.842V99.3934C219.917 101.315 218.117 103.957 217.229 106.951C216.341 109.945 216.41 113.141 217.427 116.094C218.443 119.047 220.355 121.609 222.897 123.422C225.439 125.236 228.484 126.211 231.607 126.211C234.73 126.211 237.775 125.236 240.317 123.422C242.859 121.609 244.771 119.047 245.788 116.094C246.804 113.141 246.873 109.945 245.985 106.951C245.097 103.957 243.297 101.315 240.836 99.3934V99.3934ZM231.607 116.986C230.466 116.986 229.351 116.647 228.403 116.014C227.454 115.38 226.715 114.479 226.278 113.425C225.842 112.371 225.727 111.211 225.95 110.092C226.172 108.974 226.722 107.946 227.528 107.139C228.335 106.332 229.363 105.783 230.482 105.561C231.601 105.338 232.76 105.452 233.814 105.889C234.868 106.325 235.769 107.065 236.403 108.013C237.037 108.962 237.375 110.077 237.375 111.218C237.367 112.745 236.757 114.208 235.677 115.288C234.597 116.368 233.134 116.978 231.607 116.986Z" fill="#E3F2FA"/>
<path d="M145.348 165.46C145.785 166.647 146.54 167.692 147.53 168.48C148.519 169.268 149.706 169.77 150.961 169.931C152.216 170.092 153.491 169.906 154.648 169.394C155.804 168.881 156.798 168.061 157.522 167.022C158.245 165.984 158.67 164.768 158.75 163.505C158.83 162.242 158.563 160.982 157.977 159.86C157.39 158.739 156.508 157.8 155.426 157.144C154.343 156.489 153.102 156.144 151.837 156.145H119.536" stroke="#E3F2FA" stroke-width="4.61437" stroke-linecap="round" stroke-linejoin="round"/>
<path d="M136.118 128.372C136.556 127.184 137.31 126.14 138.3 125.352C139.29 124.563 140.476 124.061 141.731 123.9C142.986 123.739 144.262 123.925 145.418 124.438C146.575 124.951 147.569 125.771 148.292 126.809C149.015 127.847 149.44 129.064 149.52 130.327C149.6 131.589 149.333 132.85 148.747 133.971C148.161 135.093 147.279 136.032 146.196 136.687C145.114 137.342 143.872 137.688 142.607 137.687H114.921" stroke="#E3F2FA" stroke-width="4.61437" stroke-linecap="round" stroke-linejoin="round"/>
<path d="M161.498 137.602C161.935 136.415 162.69 135.37 163.679 134.582C164.669 133.794 165.856 133.292 167.111 133.131C168.366 132.969 169.641 133.155 170.798 133.668C171.954 134.181 172.948 135.001 173.671 136.04C174.395 137.078 174.819 138.294 174.9 139.557C174.98 140.82 174.712 142.08 174.126 143.202C173.54 144.323 172.658 145.262 171.576 145.917C170.493 146.572 169.252 146.918 167.987 146.917H117.229" stroke="#E3F2FA" stroke-width="4.61437" stroke-linecap="round" stroke-linejoin="round"/>
<path opacity="0.2" d="M391.785 200.732L408.685 249.558C409.406 251.663 412.405 251.606 413.069 249.472L419.875 227.38C419.977 227.019 420.172 226.691 420.44 226.428C420.708 226.165 421.04 225.976 421.403 225.881L443.466 219.074C445.6 218.411 445.658 215.412 443.552 214.691L394.726 197.791C394.316 197.646 393.874 197.621 393.45 197.718C393.026 197.814 392.638 198.028 392.33 198.336C392.023 198.643 391.808 199.031 391.712 199.455C391.615 199.879 391.641 200.322 391.785 200.732V200.732Z" fill="#E3F2FA"/>
<path d="M391.785 200.732L408.685 249.558C409.406 251.663 412.405 251.606 413.069 249.472L419.875 227.38C419.977 227.019 420.172 226.691 420.44 226.428C420.708 226.165 421.04 225.976 421.403 225.881L443.466 219.074C445.6 218.411 445.658 215.412 443.552 214.691L394.726 197.791C394.316 197.646 393.874 197.621 393.45 197.718C393.026 197.814 392.638 198.028 392.33 198.336C392.023 198.643 391.808 199.031 391.712 199.455C391.615 199.879 391.641 200.322 391.785 200.732V200.732Z" stroke="#E3F2FA" stroke-width="4.61437" stroke-linecap="round" stroke-linejoin="round"/>
<defs>
<filter id="filter0_d_1667_2556" x="141.735" y="285.727" width="67.1078" height="67.1088" filterUnits="userSpaceOnUse" color-interpolation-filters="sRGB">
<feFlood flood-opacity="0" result="BackgroundImageFix"/>
<feColorMatrix in="SourceAlpha" type="matrix" values="0 0 0 0 0 0 0 0 0 0 0 0 0 0 0 0 0 0 127 0" result="hardAlpha"/>
<feOffset dy="1.85126"/>
<feGaussianBlur stdDeviation="0.925629"/>
<feComposite in2="hardAlpha" operator="out"/>
<feColorMatrix type="matrix" values="0 0 0 0 0 0 0 0 0 0 0 0 0 0 0 0 0 0 0.25 0"/>
<feBlend mode="normal" in2="BackgroundImageFix" result="effect1_dropShadow_1667_2556"/>
<feBlend mode="normal" in="SourceGraphic" in2="effect1_dropShadow_1667_2556" result="shape"/>
</filter>
<filter id="filter1_i_1667_2556" x="147.752" y="287.114" width="55.0752" height="57.8511" filterUnits="userSpaceOnUse" color-interpolation-filters="sRGB">
<feFlood flood-opacity="0" result="BackgroundImageFix"/>
<feBlend mode="normal" in="SourceGraphic" in2="BackgroundImageFix" result="shape"/>
<feColorMatrix in="SourceAlpha" type="matrix" values="0 0 0 0 0 0 0 0 0 0 0 0 0 0 0 0 0 0 127 0" result="hardAlpha"/>
<feOffset dy="-6.4794"/>
<feGaussianBlur stdDeviation="1.38844"/>
<feComposite in2="hardAlpha" operator="arithmetic" k2="-1" k3="1"/>
<feColorMatrix type="matrix" values="0 0 0 0 0 0 0 0 0 0 0 0 0 0 0 0 0 0 0.6 0"/>
<feBlend mode="normal" in2="shape" result="effect1_innerShadow_1667_2556"/>
</filter>
</defs>
</svg>
