<svg width="1717" height="732" viewBox="0 0 1717 732" fill="none" xmlns="http://www.w3.org/2000/svg">
<g clip-path="url(#clip0_1667_2442)">
<path opacity="0.5" d="M2.58239 731.555V705.373H7.32528V727.579H18.8565V731.555H2.58239ZM31.4616 731.938C29.4929 731.938 27.7926 731.529 26.3608 730.711C24.9375 729.884 23.8423 728.717 23.0753 727.208C22.3082 725.691 21.9247 723.906 21.9247 721.852C21.9247 719.832 22.3082 718.059 23.0753 716.533C23.8509 714.999 24.9332 713.806 26.3224 712.954C27.7116 712.093 29.3438 711.663 31.2188 711.663C32.429 711.663 33.571 711.859 34.6449 712.251C35.7273 712.634 36.6818 713.231 37.5085 714.04C38.3438 714.85 39 715.881 39.4773 717.134C39.9545 718.379 40.1932 719.862 40.1932 721.583V723.002H24.098V719.883H35.7571C35.7486 718.996 35.5568 718.208 35.1818 717.518C34.8068 716.819 34.2827 716.269 33.6094 715.869C32.9446 715.468 32.169 715.268 31.2827 715.268C30.3366 715.268 29.5057 715.498 28.7898 715.958C28.0739 716.41 27.5156 717.006 27.1151 717.748C26.723 718.481 26.5227 719.286 26.5142 720.164V722.887C26.5142 724.029 26.723 725.009 27.1406 725.827C27.5582 726.637 28.142 727.259 28.892 727.694C29.642 728.12 30.5199 728.333 31.5256 728.333C32.1989 728.333 32.8082 728.239 33.3537 728.052C33.8991 727.856 34.3722 727.57 34.7727 727.195C35.1733 726.82 35.4759 726.356 35.6804 725.802L40.0014 726.288C39.7287 727.43 39.2088 728.427 38.4418 729.279C37.6832 730.123 36.7116 730.779 35.527 731.248C34.3423 731.708 32.9872 731.938 31.4616 731.938ZM49.7589 731.951C48.5146 731.951 47.3938 731.729 46.3967 731.286C45.408 730.835 44.6239 730.17 44.0444 729.292C43.4734 728.414 43.1879 727.332 43.1879 726.045C43.1879 724.937 43.3924 724.021 43.8015 723.296C44.2106 722.572 44.7688 721.992 45.4762 721.558C46.1836 721.123 46.9805 720.795 47.8668 720.573C48.7617 720.343 49.6864 720.177 50.641 720.075C51.7915 719.955 52.7248 719.849 53.4407 719.755C54.1566 719.653 54.6765 719.499 55.0004 719.295C55.3327 719.082 55.4989 718.754 55.4989 718.31V718.234C55.4989 717.271 55.2134 716.525 54.6424 715.996C54.0714 715.468 53.2489 715.204 52.1751 715.204C51.0415 715.204 50.1424 715.451 49.4776 715.945C48.8214 716.44 48.3782 717.023 48.1481 717.697L43.8271 717.083C44.168 715.89 44.7305 714.893 45.5146 714.092C46.2987 713.282 47.2575 712.677 48.391 712.276C49.5245 711.867 50.7773 711.663 52.1495 711.663C53.0955 711.663 54.0373 711.773 54.9748 711.995C55.9123 712.217 56.7688 712.583 57.5444 713.094C58.32 713.597 58.9421 714.283 59.4109 715.153C59.8881 716.022 60.1268 717.109 60.1268 718.413V731.555H55.6779V728.857H55.5245C55.2433 729.403 54.8469 729.914 54.3356 730.391C53.8327 730.86 53.1978 731.239 52.4308 731.529C51.6722 731.81 50.7816 731.951 49.7589 731.951ZM50.9606 728.55C51.8896 728.55 52.695 728.367 53.3768 728.001C54.0586 727.626 54.5827 727.131 54.9492 726.518C55.3242 725.904 55.5117 725.235 55.5117 724.511V722.197C55.3668 722.316 55.1197 722.427 54.7702 722.529C54.4293 722.631 54.0458 722.721 53.6197 722.798C53.1935 722.874 52.7717 722.942 52.354 723.002C51.9364 723.062 51.5742 723.113 51.2674 723.156C50.5771 723.249 49.9592 723.403 49.4137 723.616C48.8683 723.829 48.4379 724.127 48.1225 724.511C47.8072 724.886 47.6495 725.371 47.6495 725.968C47.6495 726.82 47.9606 727.464 48.5827 727.898C49.2049 728.333 49.9975 728.55 50.9606 728.55ZM80.3001 717.109L76.0813 717.569C75.962 717.143 75.7532 716.742 75.4549 716.367C75.1651 715.992 74.7731 715.69 74.2788 715.46C73.7844 715.229 73.1793 715.114 72.4634 715.114C71.5004 715.114 70.6907 715.323 70.0344 715.741C69.3867 716.158 69.0671 716.7 69.0756 717.364C69.0671 717.935 69.2759 718.4 69.7021 718.758C70.1367 719.116 70.8526 719.41 71.8498 719.64L75.1992 720.356C77.0572 720.756 78.4379 721.391 79.3413 722.261C80.2532 723.13 80.7134 724.268 80.7219 725.674C80.7134 726.91 80.3512 728.001 79.6353 728.947C78.9279 729.884 77.9435 730.617 76.6822 731.146C75.4208 731.674 73.9719 731.938 72.3356 731.938C69.9322 731.938 67.9975 731.435 66.5316 730.43C65.0657 729.415 64.1921 728.005 63.9109 726.198L68.4237 725.763C68.6282 726.65 69.0629 727.319 69.7276 727.771C70.3924 728.222 71.2575 728.448 72.3228 728.448C73.4222 728.448 74.3043 728.222 74.9691 727.771C75.6424 727.319 75.979 726.761 75.979 726.096C75.979 725.533 75.7617 725.069 75.3271 724.702C74.9009 724.336 74.2362 724.055 73.3327 723.859L69.9833 723.156C68.0998 722.763 66.7063 722.103 65.8029 721.174C64.8995 720.237 64.4521 719.052 64.4606 717.62C64.4521 716.41 64.7802 715.362 65.445 714.475C66.1183 713.58 67.0515 712.89 68.2447 712.404C69.4464 711.91 70.8313 711.663 72.3995 711.663C74.7006 711.663 76.5117 712.153 77.8327 713.133C79.1623 714.113 79.9847 715.438 80.3001 717.109ZM94.3434 711.918V715.498H83.055V711.918H94.3434ZM85.842 707.214H90.4698V725.648C90.4698 726.271 90.5636 726.748 90.7511 727.08C90.9471 727.404 91.2028 727.626 91.5181 727.745C91.8335 727.864 92.1829 727.924 92.5664 727.924C92.8562 727.924 93.1204 727.903 93.359 727.86C93.6062 727.817 93.7937 727.779 93.9215 727.745L94.7014 731.363C94.4542 731.448 94.1005 731.542 93.6403 731.644C93.1886 731.746 92.6346 731.806 91.9783 731.823C90.8192 731.857 89.7752 731.683 88.8462 731.299C87.9173 730.907 87.18 730.302 86.6346 729.484C86.0977 728.665 85.8335 727.643 85.842 726.415V707.214ZM128.864 705.373V731.555H124.645L112.308 713.721H112.091V731.555H107.348V705.373H111.592L123.916 723.219H124.146V705.373H128.864ZM139.478 731.951C138.233 731.951 137.113 731.729 136.115 731.286C135.127 730.835 134.343 730.17 133.763 729.292C133.192 728.414 132.907 727.332 132.907 726.045C132.907 724.937 133.111 724.021 133.52 723.296C133.929 722.572 134.488 721.992 135.195 721.558C135.902 721.123 136.699 720.795 137.586 720.573C138.48 720.343 139.405 720.177 140.36 720.075C141.51 719.955 142.444 719.849 143.159 719.755C143.875 719.653 144.395 719.499 144.719 719.295C145.051 719.082 145.218 718.754 145.218 718.31V718.234C145.218 717.271 144.932 716.525 144.361 715.996C143.79 715.468 142.968 715.204 141.894 715.204C140.76 715.204 139.861 715.451 139.196 715.945C138.54 716.44 138.097 717.023 137.867 717.697L133.546 717.083C133.887 715.89 134.449 714.893 135.233 714.092C136.017 713.282 136.976 712.677 138.11 712.276C139.243 711.867 140.496 711.663 141.868 711.663C142.814 711.663 143.756 711.773 144.694 711.995C145.631 712.217 146.488 712.583 147.263 713.094C148.039 713.597 148.661 714.283 149.13 715.153C149.607 716.022 149.846 717.109 149.846 718.413V731.555H145.397V728.857H145.243C144.962 729.403 144.566 729.914 144.054 730.391C143.551 730.86 142.917 731.239 142.15 731.529C141.391 731.81 140.5 731.951 139.478 731.951ZM140.679 728.55C141.608 728.55 142.414 728.367 143.096 728.001C143.777 727.626 144.301 727.131 144.668 726.518C145.043 725.904 145.23 725.235 145.23 724.511V722.197C145.086 722.316 144.838 722.427 144.489 722.529C144.148 722.631 143.765 722.721 143.338 722.798C142.912 722.874 142.49 722.942 142.073 723.002C141.655 723.062 141.293 723.113 140.986 723.156C140.296 723.249 139.678 723.403 139.132 723.616C138.587 723.829 138.157 724.127 137.841 724.511C137.526 724.886 137.368 725.371 137.368 725.968C137.368 726.82 137.679 727.464 138.301 727.898C138.924 728.333 139.716 728.55 140.679 728.55ZM164.304 711.918V715.498H153.016V711.918H164.304ZM155.803 707.214H160.431V725.648C160.431 726.271 160.525 726.748 160.712 727.08C160.908 727.404 161.164 727.626 161.479 727.745C161.794 727.864 162.144 727.924 162.527 727.924C162.817 727.924 163.081 727.903 163.32 727.86C163.567 727.817 163.755 727.779 163.882 727.745L164.662 731.363C164.415 731.448 164.061 731.542 163.601 731.644C163.15 731.746 162.596 731.806 161.939 731.823C160.78 731.857 159.736 731.683 158.807 731.299C157.878 730.907 157.141 730.302 156.596 729.484C156.059 728.665 155.794 727.643 155.803 726.415V707.214ZM180.69 723.296V711.918H185.318V731.555H180.831V728.065H180.626C180.183 729.164 179.455 730.063 178.44 730.762C177.435 731.461 176.195 731.81 174.72 731.81C173.433 731.81 172.295 731.525 171.307 730.954C170.327 730.374 169.56 729.535 169.006 728.435C168.452 727.327 168.175 725.989 168.175 724.421V711.918H172.803V723.705C172.803 724.95 173.143 725.938 173.825 726.671C174.507 727.404 175.402 727.771 176.51 727.771C177.192 727.771 177.852 727.604 178.491 727.272C179.131 726.94 179.655 726.445 180.064 725.789C180.482 725.124 180.69 724.293 180.69 723.296ZM190.077 731.555V711.918H194.564V715.191H194.769C195.127 714.058 195.74 713.184 196.61 712.57C197.488 711.948 198.489 711.637 199.614 711.637C199.87 711.637 200.155 711.65 200.471 711.675C200.794 711.692 201.063 711.722 201.276 711.765V716.022C201.08 715.954 200.769 715.894 200.343 715.843C199.925 715.783 199.52 715.754 199.128 715.754C198.284 715.754 197.526 715.937 196.853 716.303C196.188 716.661 195.664 717.16 195.28 717.799C194.897 718.438 194.705 719.175 194.705 720.011V731.555H190.077ZM209.65 731.951C208.405 731.951 207.284 731.729 206.287 731.286C205.299 730.835 204.515 730.17 203.935 729.292C203.364 728.414 203.078 727.332 203.078 726.045C203.078 724.937 203.283 724.021 203.692 723.296C204.101 722.572 204.659 721.992 205.367 721.558C206.074 721.123 206.871 720.795 207.757 720.573C208.652 720.343 209.577 720.177 210.532 720.075C211.682 719.955 212.615 719.849 213.331 719.755C214.047 719.653 214.567 719.499 214.891 719.295C215.223 719.082 215.39 718.754 215.39 718.31V718.234C215.39 717.271 215.104 716.525 214.533 715.996C213.962 715.468 213.14 715.204 212.066 715.204C210.932 715.204 210.033 715.451 209.368 715.945C208.712 716.44 208.269 717.023 208.039 717.697L203.718 717.083C204.059 715.89 204.621 714.893 205.405 714.092C206.189 713.282 207.148 712.677 208.282 712.276C209.415 711.867 210.668 711.663 212.04 711.663C212.986 711.663 213.928 711.773 214.865 711.995C215.803 712.217 216.659 712.583 217.435 713.094C218.211 713.597 218.833 714.283 219.301 715.153C219.779 716.022 220.017 717.109 220.017 718.413V731.555H215.569V728.857H215.415C215.134 729.403 214.738 729.914 214.226 730.391C213.723 730.86 213.088 731.239 212.321 731.529C211.563 731.81 210.672 731.951 209.65 731.951ZM210.851 728.55C211.78 728.55 212.586 728.367 213.267 728.001C213.949 727.626 214.473 727.131 214.84 726.518C215.215 725.904 215.402 725.235 215.402 724.511V722.197C215.257 722.316 215.01 722.427 214.661 722.529C214.32 722.631 213.936 722.721 213.51 722.798C213.084 722.874 212.662 722.942 212.245 723.002C211.827 723.062 211.465 723.113 211.158 723.156C210.468 723.249 209.85 723.403 209.304 723.616C208.759 723.829 208.328 724.127 208.013 724.511C207.698 724.886 207.54 725.371 207.54 725.968C207.54 726.82 207.851 727.464 208.473 727.898C209.096 728.333 209.888 728.55 210.851 728.55ZM229.299 705.373V731.555H224.671V705.373H229.299Z" fill="#224757"/>
<path d="M1439.58 0.872869H1445.39L1453.16 19.8445H1453.47L1461.24 0.872869H1467.04V27.0547H1462.49V9.06747H1462.25L1455.01 26.978H1451.61L1444.38 9.02912H1444.13V27.0547H1439.58V0.872869ZM1480.57 27.4382C1478.65 27.4382 1476.99 27.0163 1475.58 26.1726C1474.18 25.3288 1473.09 24.1484 1472.31 22.6314C1471.54 21.1143 1471.16 19.3416 1471.16 17.3132C1471.16 15.2848 1471.54 13.5078 1472.31 11.9822C1473.09 10.4567 1474.18 9.27202 1475.58 8.42827C1476.99 7.58452 1478.65 7.16264 1480.57 7.16264C1482.49 7.16264 1484.15 7.58452 1485.55 8.42827C1486.96 9.27202 1488.05 10.4567 1488.81 11.9822C1489.59 13.5078 1489.98 15.2848 1489.98 17.3132C1489.98 19.3416 1489.59 21.1143 1488.81 22.6314C1488.05 24.1484 1486.96 25.3288 1485.55 26.1726C1484.15 27.0163 1482.49 27.4382 1480.57 27.4382ZM1480.59 23.7308C1481.63 23.7308 1482.5 23.4453 1483.2 22.8743C1483.9 22.2947 1484.42 21.5192 1484.76 20.5476C1485.11 19.576 1485.29 18.4936 1485.29 17.3004C1485.29 16.0987 1485.11 15.0121 1484.76 14.0405C1484.42 13.0604 1483.9 12.2805 1483.2 11.701C1482.5 11.1214 1481.63 10.8317 1480.59 10.8317C1479.53 10.8317 1478.64 11.1214 1477.93 11.701C1477.24 12.2805 1476.71 13.0604 1476.36 14.0405C1476.02 15.0121 1475.85 16.0987 1475.85 17.3004C1475.85 18.4936 1476.02 19.576 1476.36 20.5476C1476.71 21.5192 1477.24 22.2947 1477.93 22.8743C1478.64 23.4453 1479.53 23.7308 1480.59 23.7308ZM1509.43 12.6087L1505.21 13.0689C1505.09 12.6428 1504.88 12.2422 1504.58 11.8672C1504.29 11.4922 1503.9 11.1896 1503.4 10.9595C1502.91 10.7294 1502.3 10.6143 1501.59 10.6143C1500.63 10.6143 1499.82 10.8232 1499.16 11.2408C1498.51 11.6584 1498.19 12.1996 1498.2 12.8643C1498.19 13.4354 1498.4 13.8999 1498.83 14.2578C1499.26 14.6158 1499.98 14.9098 1500.97 15.1399L1504.32 15.8558C1506.18 16.2564 1507.56 16.8913 1508.47 17.7607C1509.38 18.63 1509.84 19.7678 1509.85 21.174C1509.84 22.4098 1509.48 23.5007 1508.76 24.4467C1508.05 25.3842 1507.07 26.1172 1505.81 26.6456C1504.55 27.174 1503.1 27.4382 1501.46 27.4382C1499.06 27.4382 1497.12 26.9354 1495.66 25.9297C1494.19 24.9155 1493.32 23.505 1493.04 21.6982L1497.55 21.2635C1497.75 22.1499 1498.19 22.8189 1498.85 23.2706C1499.52 23.7223 1500.38 23.9482 1501.45 23.9482C1502.55 23.9482 1503.43 23.7223 1504.09 23.2706C1504.77 22.8189 1505.1 22.2607 1505.1 21.5959C1505.1 21.0334 1504.89 20.5689 1504.45 20.2024C1504.03 19.8359 1503.36 19.5547 1502.46 19.3587L1499.11 18.6555C1497.22 18.2635 1495.83 17.603 1494.93 16.674C1494.02 15.7365 1493.58 14.5518 1493.59 13.12C1493.58 11.9098 1493.91 10.8615 1494.57 9.97514C1495.24 9.08026 1496.18 8.38991 1497.37 7.90412C1498.57 7.4098 1499.96 7.16264 1501.52 7.16264C1503.83 7.16264 1505.64 7.6527 1506.96 8.63281C1508.29 9.61293 1509.11 10.9382 1509.43 12.6087ZM1523.47 7.41832V10.9979H1512.18V7.41832H1523.47ZM1514.97 2.71378H1519.59V21.1484C1519.59 21.7706 1519.69 22.2479 1519.88 22.5803C1520.07 22.9041 1520.33 23.1257 1520.64 23.245C1520.96 23.3643 1521.31 23.424 1521.69 23.424C1521.98 23.424 1522.25 23.4027 1522.48 23.3601C1522.73 23.3175 1522.92 23.2791 1523.05 23.245L1523.83 26.8629C1523.58 26.9482 1523.23 27.0419 1522.77 27.1442C1522.31 27.2464 1521.76 27.3061 1521.1 27.3232C1519.94 27.3572 1518.9 27.1825 1517.97 26.799C1517.04 26.407 1516.31 25.8018 1515.76 24.9837C1515.22 24.1655 1514.96 23.1428 1514.97 21.9155V2.71378ZM1557.99 0.872869V27.0547H1553.77L1541.43 9.22088H1541.22V27.0547H1536.47V0.872869H1540.72L1553.04 18.7195H1553.27V0.872869H1557.99ZM1568.6 27.451C1567.36 27.451 1566.24 27.2294 1565.24 26.7862C1564.25 26.3345 1563.47 25.6697 1562.89 24.7919C1562.32 23.9141 1562.03 22.8317 1562.03 21.5447C1562.03 20.4368 1562.24 19.5206 1562.65 18.7962C1563.05 18.0717 1563.61 17.4922 1564.32 17.0575C1565.03 16.6229 1565.82 16.2947 1566.71 16.0732C1567.61 15.843 1568.53 15.6768 1569.48 15.5746C1570.64 15.4553 1571.57 15.3487 1572.28 15.255C1573 15.1527 1573.52 14.9993 1573.84 14.7947C1574.18 14.5817 1574.34 14.2536 1574.34 13.8104V13.7337C1574.34 12.7706 1574.06 12.0249 1573.49 11.4964C1572.92 10.968 1572.09 10.7038 1571.02 10.7038C1569.89 10.7038 1568.99 10.951 1568.32 11.4453C1567.67 11.9396 1567.22 12.5234 1566.99 13.1967L1562.67 12.5831C1563.01 11.3899 1563.57 10.3928 1564.36 9.59162C1565.14 8.78196 1566.1 8.17685 1567.23 7.77628C1568.37 7.36719 1569.62 7.16264 1570.99 7.16264C1571.94 7.16264 1572.88 7.27344 1573.82 7.49503C1574.76 7.71662 1575.61 8.0831 1576.39 8.59446C1577.16 9.0973 1577.79 9.78338 1578.25 10.6527C1578.73 11.522 1578.97 12.6087 1578.97 13.9126V27.0547H1574.52V24.3572H1574.37C1574.09 24.9027 1573.69 25.4141 1573.18 25.8913C1572.68 26.3601 1572.04 26.7393 1571.27 27.0291C1570.52 27.3104 1569.63 27.451 1568.6 27.451ZM1569.8 24.0504C1570.73 24.0504 1571.54 23.8672 1572.22 23.5007C1572.9 23.1257 1573.43 22.6314 1573.79 22.0178C1574.17 21.4041 1574.36 20.7351 1574.36 20.0107V17.6967C1574.21 17.8161 1573.96 17.9268 1573.61 18.0291C1573.27 18.1314 1572.89 18.2209 1572.46 18.2976C1572.04 18.3743 1571.62 18.4425 1571.2 18.5021C1570.78 18.5618 1570.42 18.6129 1570.11 18.6555C1569.42 18.7493 1568.8 18.9027 1568.26 19.1158C1567.71 19.3288 1567.28 19.6271 1566.97 20.0107C1566.65 20.3857 1566.49 20.8714 1566.49 21.468C1566.49 22.3203 1566.8 22.9638 1567.43 23.3984C1568.05 23.8331 1568.84 24.0504 1569.8 24.0504ZM1593.43 7.41832V10.9979H1582.14V7.41832H1593.43ZM1584.93 2.71378H1589.56V21.1484C1589.56 21.7706 1589.65 22.2479 1589.84 22.5803C1590.03 22.9041 1590.29 23.1257 1590.6 23.245C1590.92 23.3643 1591.27 23.424 1591.65 23.424C1591.94 23.424 1592.21 23.4027 1592.44 23.3601C1592.69 23.3175 1592.88 23.2791 1593.01 23.245L1593.79 26.8629C1593.54 26.9482 1593.19 27.0419 1592.73 27.1442C1592.27 27.2464 1591.72 27.3061 1591.06 27.3232C1589.91 27.3572 1588.86 27.1825 1587.93 26.799C1587 26.407 1586.27 25.8018 1585.72 24.9837C1585.18 24.1655 1584.92 23.1428 1584.93 21.9155V2.71378ZM1609.82 18.7962V7.41832H1614.44V27.0547H1609.96V23.5646H1609.75C1609.31 24.6641 1608.58 25.5632 1607.57 26.2621C1606.56 26.9609 1605.32 27.3104 1603.85 27.3104C1602.56 27.3104 1601.42 27.0249 1600.43 26.4538C1599.45 25.8743 1598.68 25.0348 1598.13 23.9354C1597.58 22.8274 1597.3 21.4893 1597.3 19.9212V7.41832H1601.93V19.2053C1601.93 20.4496 1602.27 21.4382 1602.95 22.1712C1603.63 22.9041 1604.53 23.2706 1605.63 23.2706C1606.32 23.2706 1606.98 23.1044 1607.62 22.772C1608.26 22.4396 1608.78 21.9453 1609.19 21.2891C1609.61 20.6243 1609.82 19.7933 1609.82 18.7962ZM1619.2 27.0547V7.41832H1623.69V10.6911H1623.89C1624.25 9.55753 1624.87 8.68395 1625.73 8.07031C1626.61 7.44815 1627.61 7.13707 1628.74 7.13707C1628.99 7.13707 1629.28 7.14986 1629.6 7.17542C1629.92 7.19247 1630.19 7.2223 1630.4 7.26491V11.522C1630.2 11.4538 1629.89 11.3942 1629.47 11.343C1629.05 11.2834 1628.65 11.2536 1628.25 11.2536C1627.41 11.2536 1626.65 11.4368 1625.98 11.8033C1625.31 12.1612 1624.79 12.6598 1624.41 13.299C1624.02 13.9382 1623.83 14.6754 1623.83 15.5107V27.0547H1619.2ZM1638.77 27.451C1637.53 27.451 1636.41 27.2294 1635.41 26.7862C1634.42 26.3345 1633.64 25.6697 1633.06 24.7919C1632.49 23.9141 1632.2 22.8317 1632.2 21.5447C1632.2 20.4368 1632.41 19.5206 1632.82 18.7962C1633.23 18.0717 1633.78 17.4922 1634.49 17.0575C1635.2 16.6229 1636 16.2947 1636.88 16.0732C1637.78 15.843 1638.7 15.6768 1639.66 15.5746C1640.81 15.4553 1641.74 15.3487 1642.46 15.255C1643.17 15.1527 1643.69 14.9993 1644.02 14.7947C1644.35 14.5817 1644.51 14.2536 1644.51 13.8104V13.7337C1644.51 12.7706 1644.23 12.0249 1643.66 11.4964C1643.09 10.968 1642.26 10.7038 1641.19 10.7038C1640.06 10.7038 1639.16 10.951 1638.49 11.4453C1637.84 11.9396 1637.39 12.5234 1637.16 13.1967L1632.84 12.5831C1633.18 11.3899 1633.75 10.3928 1634.53 9.59162C1635.31 8.78196 1636.27 8.17685 1637.41 7.77628C1638.54 7.36719 1639.79 7.16264 1641.17 7.16264C1642.11 7.16264 1643.05 7.27344 1643.99 7.49503C1644.93 7.71662 1645.78 8.0831 1646.56 8.59446C1647.34 9.0973 1647.96 9.78338 1648.43 10.6527C1648.9 11.522 1649.14 12.6087 1649.14 13.9126V27.0547H1644.69V24.3572H1644.54C1644.26 24.9027 1643.86 25.4141 1643.35 25.8913C1642.85 26.3601 1642.21 26.7393 1641.45 27.0291C1640.69 27.3104 1639.8 27.451 1638.77 27.451ZM1639.98 24.0504C1640.91 24.0504 1641.71 23.8672 1642.39 23.5007C1643.07 23.1257 1643.6 22.6314 1643.96 22.0178C1644.34 21.4041 1644.53 20.7351 1644.53 20.0107V17.6967C1644.38 17.8161 1644.14 17.9268 1643.79 18.0291C1643.44 18.1314 1643.06 18.2209 1642.64 18.2976C1642.21 18.3743 1641.79 18.4425 1641.37 18.5021C1640.95 18.5618 1640.59 18.6129 1640.28 18.6555C1639.59 18.7493 1638.97 18.9027 1638.43 19.1158C1637.88 19.3288 1637.45 19.6271 1637.14 20.0107C1636.82 20.3857 1636.67 20.8714 1636.67 21.468C1636.67 22.3203 1636.98 22.9638 1637.6 23.3984C1638.22 23.8331 1639.01 24.0504 1639.98 24.0504ZM1658.42 0.872869V27.0547H1653.8V0.872869H1658.42Z" fill="#224757"/>
<path opacity="0.5" d="M231.442 522.545V524.818H222.033V522.545H231.442ZM224.851 540V520.136C224.851 519.136 225.086 518.303 225.556 517.636C226.025 516.97 226.635 516.47 227.385 516.136C228.135 515.803 228.927 515.636 229.76 515.636C230.419 515.636 230.957 515.689 231.374 515.795C231.791 515.902 232.101 516 232.306 516.091L231.533 518.409C231.397 518.364 231.207 518.307 230.965 518.239C230.73 518.17 230.419 518.136 230.033 518.136C229.147 518.136 228.507 518.36 228.113 518.807C227.726 519.254 227.533 519.909 227.533 520.773V540H224.851ZM241.573 540.364C239.997 540.364 238.614 539.989 237.425 539.239C236.243 538.489 235.319 537.439 234.652 536.091C233.993 534.742 233.664 533.167 233.664 531.364C233.664 529.545 233.993 527.958 234.652 526.602C235.319 525.246 236.243 524.193 237.425 523.443C238.614 522.693 239.997 522.318 241.573 522.318C243.149 522.318 244.527 522.693 245.709 523.443C246.899 524.193 247.823 525.246 248.482 526.602C249.149 527.958 249.482 529.545 249.482 531.364C249.482 533.167 249.149 534.742 248.482 536.091C247.823 537.439 246.899 538.489 245.709 539.239C244.527 539.989 243.149 540.364 241.573 540.364ZM241.573 537.955C242.77 537.955 243.755 537.648 244.527 537.034C245.3 536.42 245.872 535.614 246.243 534.614C246.614 533.614 246.8 532.53 246.8 531.364C246.8 530.197 246.614 529.11 246.243 528.102C245.872 527.095 245.3 526.28 244.527 525.659C243.755 525.038 242.77 524.727 241.573 524.727C240.376 524.727 239.391 525.038 238.618 525.659C237.846 526.28 237.274 527.095 236.902 528.102C236.531 529.11 236.346 530.197 236.346 531.364C236.346 532.53 236.531 533.614 236.902 534.614C237.274 535.614 237.846 536.42 238.618 537.034C239.391 537.648 240.376 537.955 241.573 537.955ZM253.576 540V522.545H256.167V525.182H256.348C256.667 524.318 257.242 523.617 258.076 523.08C258.909 522.542 259.848 522.273 260.894 522.273C261.091 522.273 261.337 522.277 261.632 522.284C261.928 522.292 262.151 522.303 262.303 522.318V525.045C262.212 525.023 262.004 524.989 261.678 524.943C261.36 524.89 261.023 524.864 260.667 524.864C259.818 524.864 259.06 525.042 258.394 525.398C257.735 525.746 257.212 526.231 256.826 526.852C256.447 527.466 256.257 528.167 256.257 528.955V540H253.576ZM272.042 540.364C270.405 540.364 268.996 539.977 267.814 539.205C266.632 538.432 265.723 537.367 265.087 536.011C264.451 534.655 264.132 533.106 264.132 531.364C264.132 529.591 264.458 528.027 265.11 526.67C265.769 525.307 266.685 524.242 267.86 523.477C269.042 522.705 270.42 522.318 271.996 522.318C273.223 522.318 274.329 522.545 275.314 523C276.299 523.455 277.106 524.091 277.735 524.909C278.364 525.727 278.754 526.682 278.905 527.773H276.223C276.019 526.977 275.564 526.273 274.86 525.659C274.163 525.038 273.223 524.727 272.042 524.727C270.996 524.727 270.079 525 269.292 525.545C268.511 526.083 267.901 526.845 267.462 527.83C267.03 528.807 266.814 529.955 266.814 531.273C266.814 532.621 267.026 533.795 267.451 534.795C267.882 535.795 268.489 536.572 269.269 537.125C270.057 537.678 270.981 537.955 272.042 537.955C272.739 537.955 273.371 537.833 273.939 537.591C274.507 537.348 274.989 537 275.382 536.545C275.776 536.091 276.057 535.545 276.223 534.909H278.905C278.754 535.939 278.379 536.867 277.78 537.693C277.189 538.511 276.405 539.163 275.428 539.648C274.458 540.125 273.329 540.364 272.042 540.364ZM290.144 540.364C288.462 540.364 287.011 539.992 285.792 539.25C284.579 538.5 283.644 537.455 282.985 536.114C282.333 534.765 282.007 533.197 282.007 531.409C282.007 529.621 282.333 528.045 282.985 526.682C283.644 525.311 284.56 524.242 285.735 523.477C286.917 522.705 288.295 522.318 289.871 522.318C290.78 522.318 291.678 522.47 292.564 522.773C293.451 523.076 294.257 523.568 294.985 524.25C295.712 524.924 296.292 525.818 296.723 526.932C297.155 528.045 297.371 529.417 297.371 531.045V532.182H283.917V529.864H294.644C294.644 528.879 294.447 528 294.053 527.227C293.667 526.455 293.114 525.845 292.394 525.398C291.682 524.951 290.841 524.727 289.871 524.727C288.803 524.727 287.879 524.992 287.098 525.523C286.326 526.045 285.731 526.727 285.314 527.568C284.898 528.409 284.689 529.311 284.689 530.273V531.818C284.689 533.136 284.917 534.254 285.371 535.17C285.833 536.08 286.473 536.773 287.292 537.25C288.11 537.72 289.06 537.955 290.144 537.955C290.848 537.955 291.485 537.856 292.053 537.659C292.629 537.455 293.125 537.152 293.542 536.75C293.958 536.341 294.28 535.833 294.507 535.227L297.098 535.955C296.826 536.833 296.367 537.606 295.723 538.273C295.079 538.932 294.284 539.447 293.337 539.818C292.39 540.182 291.326 540.364 290.144 540.364ZM308.042 540.364C306.587 540.364 305.303 539.996 304.189 539.261C303.076 538.519 302.204 537.473 301.576 536.125C300.947 534.769 300.632 533.167 300.632 531.318C300.632 529.485 300.947 527.894 301.576 526.545C302.204 525.197 303.079 524.155 304.201 523.42C305.322 522.686 306.617 522.318 308.087 522.318C309.223 522.318 310.121 522.508 310.78 522.886C311.447 523.258 311.954 523.682 312.303 524.159C312.659 524.629 312.935 525.015 313.132 525.318H313.36V516.727H316.042V540H313.451V537.318H313.132C312.935 537.636 312.655 538.038 312.292 538.523C311.928 539 311.409 539.428 310.735 539.807C310.06 540.178 309.163 540.364 308.042 540.364ZM308.405 537.955C309.481 537.955 310.39 537.674 311.132 537.114C311.875 536.545 312.439 535.761 312.826 534.761C313.212 533.754 313.405 532.591 313.405 531.273C313.405 529.97 313.216 528.83 312.837 527.852C312.458 526.867 311.898 526.102 311.155 525.557C310.413 525.004 309.496 524.727 308.405 524.727C307.269 524.727 306.322 525.019 305.564 525.602C304.814 526.178 304.25 526.962 303.871 527.955C303.5 528.939 303.314 530.045 303.314 531.273C303.314 532.515 303.504 533.644 303.882 534.659C304.269 535.667 304.837 536.47 305.587 537.068C306.345 537.659 307.284 537.955 308.405 537.955Z" fill="#224757"/>
<path opacity="0.5" d="M404.455 504V486.545H407.136V504H404.455ZM405.818 483.636C405.295 483.636 404.845 483.458 404.466 483.102C404.095 482.746 403.909 482.318 403.909 481.818C403.909 481.318 404.095 480.89 404.466 480.534C404.845 480.178 405.295 480 405.818 480C406.341 480 406.788 480.178 407.159 480.534C407.538 480.89 407.727 481.318 407.727 481.818C407.727 482.318 407.538 482.746 407.159 483.102C406.788 483.458 406.341 483.636 405.818 483.636ZM419.094 510.909C417.798 510.909 416.685 510.742 415.753 510.409C414.821 510.083 414.045 509.652 413.423 509.114C412.81 508.583 412.321 508.015 411.957 507.409L414.094 505.909C414.336 506.227 414.643 506.591 415.014 507C415.385 507.417 415.893 507.777 416.537 508.08C417.188 508.39 418.041 508.545 419.094 508.545C420.503 508.545 421.666 508.205 422.582 507.523C423.499 506.841 423.957 505.773 423.957 504.318V500.773H423.73C423.533 501.091 423.253 501.485 422.889 501.955C422.533 502.417 422.018 502.83 421.344 503.193C420.677 503.549 419.776 503.727 418.639 503.727C417.23 503.727 415.965 503.394 414.844 502.727C413.73 502.061 412.848 501.091 412.196 499.818C411.552 498.545 411.23 497 411.23 495.182C411.23 493.394 411.545 491.837 412.173 490.511C412.802 489.178 413.677 488.148 414.798 487.42C415.92 486.686 417.215 486.318 418.685 486.318C419.821 486.318 420.723 486.508 421.389 486.886C422.063 487.258 422.579 487.682 422.935 488.159C423.298 488.629 423.579 489.015 423.776 489.318H424.048V486.545H426.639V504.5C426.639 506 426.298 507.22 425.616 508.159C424.942 509.106 424.033 509.799 422.889 510.239C421.753 510.686 420.488 510.909 419.094 510.909ZM419.003 501.318C420.079 501.318 420.988 501.072 421.73 500.58C422.473 500.087 423.037 499.379 423.423 498.455C423.81 497.53 424.003 496.424 424.003 495.136C424.003 493.879 423.813 492.769 423.435 491.807C423.056 490.845 422.495 490.091 421.753 489.545C421.01 489 420.094 488.727 419.003 488.727C417.866 488.727 416.92 489.015 416.162 489.591C415.412 490.167 414.848 490.939 414.469 491.909C414.098 492.879 413.912 493.955 413.912 495.136C413.912 496.348 414.101 497.42 414.48 498.352C414.866 499.277 415.435 500.004 416.185 500.534C416.942 501.057 417.882 501.318 419.003 501.318ZM434.23 493.5V504H431.548V486.545H434.139V489.273H434.366C434.776 488.386 435.397 487.674 436.23 487.136C437.063 486.591 438.139 486.318 439.457 486.318C440.639 486.318 441.673 486.561 442.56 487.045C443.446 487.523 444.135 488.25 444.628 489.227C445.12 490.197 445.366 491.424 445.366 492.909V504H442.685V493.091C442.685 491.72 442.329 490.652 441.616 489.886C440.904 489.114 439.927 488.727 438.685 488.727C437.829 488.727 437.063 488.913 436.389 489.284C435.723 489.655 435.196 490.197 434.81 490.909C434.423 491.621 434.23 492.485 434.23 493.5ZM457.358 504.364C455.782 504.364 454.4 503.989 453.21 503.239C452.028 502.489 451.104 501.439 450.438 500.091C449.778 498.742 449.449 497.167 449.449 495.364C449.449 493.545 449.778 491.958 450.438 490.602C451.104 489.246 452.028 488.193 453.21 487.443C454.4 486.693 455.782 486.318 457.358 486.318C458.934 486.318 460.313 486.693 461.494 487.443C462.684 488.193 463.608 489.246 464.267 490.602C464.934 491.958 465.267 493.545 465.267 495.364C465.267 497.167 464.934 498.742 464.267 500.091C463.608 501.439 462.684 502.489 461.494 503.239C460.313 503.989 458.934 504.364 457.358 504.364ZM457.358 501.955C458.555 501.955 459.54 501.648 460.312 501.034C461.085 500.42 461.657 499.614 462.028 498.614C462.4 497.614 462.585 496.53 462.585 495.364C462.585 494.197 462.4 493.11 462.028 492.102C461.657 491.095 461.085 490.28 460.312 489.659C459.54 489.038 458.555 488.727 457.358 488.727C456.161 488.727 455.176 489.038 454.403 489.659C453.631 490.28 453.059 491.095 452.688 492.102C452.316 493.11 452.131 494.197 452.131 495.364C452.131 496.53 452.316 497.614 452.688 498.614C453.059 499.614 453.631 500.42 454.403 501.034C455.176 501.648 456.161 501.955 457.358 501.955ZM469.361 504V486.545H471.952V489.182H472.134C472.452 488.318 473.027 487.617 473.861 487.08C474.694 486.542 475.634 486.273 476.679 486.273C476.876 486.273 477.122 486.277 477.418 486.284C477.713 486.292 477.937 486.303 478.088 486.318V489.045C477.997 489.023 477.789 488.989 477.463 488.943C477.145 488.89 476.808 488.864 476.452 488.864C475.603 488.864 474.846 489.042 474.179 489.398C473.52 489.746 472.997 490.231 472.611 490.852C472.232 491.466 472.043 492.167 472.043 492.955V504H469.361ZM486.403 504.409C485.297 504.409 484.294 504.201 483.392 503.784C482.491 503.36 481.775 502.75 481.244 501.955C480.714 501.152 480.449 500.182 480.449 499.045C480.449 498.045 480.646 497.235 481.04 496.614C481.434 495.985 481.96 495.492 482.619 495.136C483.278 494.78 484.006 494.515 484.801 494.341C485.604 494.159 486.411 494.015 487.222 493.909C488.282 493.773 489.142 493.67 489.801 493.602C490.468 493.527 490.953 493.402 491.256 493.227C491.566 493.053 491.722 492.75 491.722 492.318V492.227C491.722 491.106 491.415 490.235 490.801 489.614C490.195 488.992 489.275 488.682 488.04 488.682C486.759 488.682 485.756 488.962 485.028 489.523C484.301 490.083 483.79 490.682 483.494 491.318L480.949 490.409C481.403 489.348 482.009 488.523 482.767 487.932C483.532 487.333 484.366 486.917 485.267 486.682C486.176 486.439 487.07 486.318 487.949 486.318C488.509 486.318 489.153 486.386 489.881 486.523C490.616 486.652 491.324 486.92 492.006 487.33C492.695 487.739 493.267 488.356 493.722 489.182C494.176 490.008 494.403 491.114 494.403 492.5V504H491.722V501.636H491.585C491.403 502.015 491.1 502.42 490.676 502.852C490.252 503.284 489.688 503.652 488.983 503.955C488.278 504.258 487.419 504.409 486.403 504.409ZM486.812 502C487.873 502 488.767 501.792 489.494 501.375C490.229 500.958 490.782 500.42 491.153 499.761C491.532 499.102 491.722 498.409 491.722 497.682V495.227C491.608 495.364 491.358 495.489 490.972 495.602C490.593 495.708 490.153 495.803 489.653 495.886C489.161 495.962 488.68 496.03 488.21 496.091C487.748 496.144 487.373 496.189 487.085 496.227C486.388 496.318 485.737 496.466 485.131 496.67C484.532 496.867 484.047 497.167 483.676 497.568C483.313 497.962 483.131 498.5 483.131 499.182C483.131 500.114 483.475 500.818 484.165 501.295C484.862 501.765 485.744 502 486.812 502ZM501.98 493.5V504H499.298V486.545H501.889V489.273H502.116C502.526 488.386 503.147 487.674 503.98 487.136C504.813 486.591 505.889 486.318 507.207 486.318C508.389 486.318 509.423 486.561 510.31 487.045C511.196 487.523 511.885 488.25 512.378 489.227C512.87 490.197 513.116 491.424 513.116 492.909V504H510.435V493.091C510.435 491.72 510.079 490.652 509.366 489.886C508.654 489.114 507.677 488.727 506.435 488.727C505.579 488.727 504.813 488.913 504.139 489.284C503.473 489.655 502.946 490.197 502.56 490.909C502.173 491.621 501.98 492.485 501.98 493.5ZM525.108 504.364C523.472 504.364 522.063 503.977 520.881 503.205C519.699 502.432 518.79 501.367 518.153 500.011C517.517 498.655 517.199 497.106 517.199 495.364C517.199 493.591 517.525 492.027 518.176 490.67C518.835 489.307 519.752 488.242 520.926 487.477C522.108 486.705 523.487 486.318 525.062 486.318C526.29 486.318 527.396 486.545 528.381 487C529.366 487.455 530.172 488.091 530.801 488.909C531.43 489.727 531.82 490.682 531.972 491.773H529.29C529.085 490.977 528.631 490.273 527.926 489.659C527.229 489.038 526.29 488.727 525.108 488.727C524.063 488.727 523.146 489 522.358 489.545C521.578 490.083 520.968 490.845 520.528 491.83C520.097 492.807 519.881 493.955 519.881 495.273C519.881 496.621 520.093 497.795 520.517 498.795C520.949 499.795 521.555 500.572 522.335 501.125C523.123 501.678 524.047 501.955 525.108 501.955C525.805 501.955 526.438 501.833 527.006 501.591C527.574 501.348 528.055 501 528.449 500.545C528.843 500.091 529.123 499.545 529.29 498.909H531.972C531.82 499.939 531.445 500.867 530.847 501.693C530.256 502.511 529.472 503.163 528.494 503.648C527.525 504.125 526.396 504.364 525.108 504.364ZM543.21 504.364C541.528 504.364 540.078 503.992 538.858 503.25C537.646 502.5 536.71 501.455 536.051 500.114C535.4 498.765 535.074 497.197 535.074 495.409C535.074 493.621 535.4 492.045 536.051 490.682C536.71 489.311 537.627 488.242 538.801 487.477C539.983 486.705 541.362 486.318 542.938 486.318C543.847 486.318 544.744 486.47 545.631 486.773C546.517 487.076 547.324 487.568 548.051 488.25C548.778 488.924 549.358 489.818 549.79 490.932C550.222 492.045 550.438 493.417 550.438 495.045V496.182H536.983V493.864H547.71C547.71 492.879 547.513 492 547.119 491.227C546.733 490.455 546.18 489.845 545.46 489.398C544.748 488.951 543.907 488.727 542.938 488.727C541.869 488.727 540.945 488.992 540.165 489.523C539.392 490.045 538.797 490.727 538.381 491.568C537.964 492.409 537.756 493.311 537.756 494.273V495.818C537.756 497.136 537.983 498.254 538.438 499.17C538.9 500.08 539.54 500.773 540.358 501.25C541.176 501.72 542.127 501.955 543.21 501.955C543.915 501.955 544.551 501.856 545.119 501.659C545.695 501.455 546.191 501.152 546.608 500.75C547.025 500.341 547.347 499.833 547.574 499.227L550.165 499.955C549.892 500.833 549.434 501.606 548.79 502.273C548.146 502.932 547.35 503.447 546.403 503.818C545.456 504.182 544.392 504.364 543.21 504.364Z" fill="#224757"/>
<path opacity="0.5" d="M655.091 504.409C653.985 504.409 652.981 504.201 652.08 503.784C651.178 503.36 650.462 502.75 649.932 501.955C649.402 501.152 649.136 500.182 649.136 499.045C649.136 498.045 649.333 497.235 649.727 496.614C650.121 495.985 650.648 495.492 651.307 495.136C651.966 494.78 652.693 494.515 653.489 494.341C654.292 494.159 655.098 494.015 655.909 493.909C656.97 493.773 657.83 493.67 658.489 493.602C659.155 493.527 659.64 493.402 659.943 493.227C660.254 493.053 660.409 492.75 660.409 492.318V492.227C660.409 491.106 660.102 490.235 659.489 489.614C658.883 488.992 657.962 488.682 656.727 488.682C655.447 488.682 654.443 488.962 653.716 489.523C652.989 490.083 652.477 490.682 652.182 491.318L649.636 490.409C650.091 489.348 650.697 488.523 651.455 487.932C652.22 487.333 653.053 486.917 653.955 486.682C654.864 486.439 655.758 486.318 656.636 486.318C657.197 486.318 657.841 486.386 658.568 486.523C659.303 486.652 660.011 486.92 660.693 487.33C661.383 487.739 661.955 488.356 662.409 489.182C662.864 490.008 663.091 491.114 663.091 492.5V504H660.409V501.636H660.273C660.091 502.015 659.788 502.42 659.364 502.852C658.939 503.284 658.375 503.652 657.67 503.955C656.966 504.258 656.106 504.409 655.091 504.409ZM655.5 502C656.561 502 657.455 501.792 658.182 501.375C658.917 500.958 659.47 500.42 659.841 499.761C660.22 499.102 660.409 498.409 660.409 497.682V495.227C660.295 495.364 660.045 495.489 659.659 495.602C659.28 495.708 658.841 495.803 658.341 495.886C657.848 495.962 657.367 496.03 656.898 496.091C656.436 496.144 656.061 496.189 655.773 496.227C655.076 496.318 654.424 496.466 653.818 496.67C653.22 496.867 652.735 497.167 652.364 497.568C652 497.962 651.818 498.5 651.818 499.182C651.818 500.114 652.163 500.818 652.852 501.295C653.549 501.765 654.432 502 655.5 502ZM674.577 504.364C673.122 504.364 671.838 503.996 670.724 503.261C669.611 502.519 668.74 501.473 668.111 500.125C667.482 498.769 667.168 497.167 667.168 495.318C667.168 493.485 667.482 491.894 668.111 490.545C668.74 489.197 669.615 488.155 670.736 487.42C671.857 486.686 673.152 486.318 674.622 486.318C675.759 486.318 676.656 486.508 677.315 486.886C677.982 487.258 678.49 487.682 678.838 488.159C679.194 488.629 679.471 489.015 679.668 489.318H679.895V480.727H682.577V504H679.986V501.318H679.668C679.471 501.636 679.19 502.038 678.827 502.523C678.463 503 677.944 503.428 677.27 503.807C676.596 504.178 675.698 504.364 674.577 504.364ZM674.94 501.955C676.016 501.955 676.925 501.674 677.668 501.114C678.41 500.545 678.974 499.761 679.361 498.761C679.747 497.754 679.94 496.591 679.94 495.273C679.94 493.97 679.751 492.83 679.372 491.852C678.993 490.867 678.433 490.102 677.69 489.557C676.948 489.004 676.031 488.727 674.94 488.727C673.804 488.727 672.857 489.019 672.099 489.602C671.349 490.178 670.785 490.962 670.406 491.955C670.035 492.939 669.849 494.045 669.849 495.273C669.849 496.515 670.039 497.644 670.418 498.659C670.804 499.667 671.372 500.47 672.122 501.068C672.88 501.659 673.819 501.955 674.94 501.955ZM694.452 504.364C692.997 504.364 691.713 503.996 690.599 503.261C689.486 502.519 688.615 501.473 687.986 500.125C687.357 498.769 687.043 497.167 687.043 495.318C687.043 493.485 687.357 491.894 687.986 490.545C688.615 489.197 689.49 488.155 690.611 487.42C691.732 486.686 693.027 486.318 694.497 486.318C695.634 486.318 696.531 486.508 697.19 486.886C697.857 487.258 698.365 487.682 698.713 488.159C699.069 488.629 699.346 489.015 699.543 489.318H699.77V480.727H702.452V504H699.861V501.318H699.543C699.346 501.636 699.065 502.038 698.702 502.523C698.338 503 697.819 503.428 697.145 503.807C696.471 504.178 695.573 504.364 694.452 504.364ZM694.815 501.955C695.891 501.955 696.8 501.674 697.543 501.114C698.285 500.545 698.849 499.761 699.236 498.761C699.622 497.754 699.815 496.591 699.815 495.273C699.815 493.97 699.626 492.83 699.247 491.852C698.868 490.867 698.308 490.102 697.565 489.557C696.823 489.004 695.906 488.727 694.815 488.727C693.679 488.727 692.732 489.019 691.974 489.602C691.224 490.178 690.66 490.962 690.281 491.955C689.91 492.939 689.724 494.045 689.724 495.273C689.724 496.515 689.914 497.644 690.293 498.659C690.679 499.667 691.247 500.47 691.997 501.068C692.755 501.659 693.694 501.955 694.815 501.955ZM707.736 504V486.545H710.418V504H707.736ZM709.099 483.636C708.577 483.636 708.126 483.458 707.747 483.102C707.376 482.746 707.19 482.318 707.19 481.818C707.19 481.318 707.376 480.89 707.747 480.534C708.126 480.178 708.577 480 709.099 480C709.622 480 710.069 480.178 710.44 480.534C710.819 480.89 711.009 481.318 711.009 481.818C711.009 482.318 710.819 482.746 710.44 483.102C710.069 483.458 709.622 483.636 709.099 483.636ZM722.42 504.364C720.784 504.364 719.375 503.977 718.193 503.205C717.011 502.432 716.102 501.367 715.466 500.011C714.83 498.655 714.511 497.106 714.511 495.364C714.511 493.591 714.837 492.027 715.489 490.67C716.148 489.307 717.064 488.242 718.239 487.477C719.42 486.705 720.799 486.318 722.375 486.318C723.602 486.318 724.708 486.545 725.693 487C726.678 487.455 727.485 488.091 728.114 488.909C728.742 489.727 729.133 490.682 729.284 491.773H726.602C726.398 490.977 725.943 490.273 725.239 489.659C724.542 489.038 723.602 488.727 722.42 488.727C721.375 488.727 720.458 489 719.67 489.545C718.89 490.083 718.28 490.845 717.841 491.83C717.409 492.807 717.193 493.955 717.193 495.273C717.193 496.621 717.405 497.795 717.83 498.795C718.261 499.795 718.867 500.572 719.648 501.125C720.436 501.678 721.36 501.955 722.42 501.955C723.117 501.955 723.75 501.833 724.318 501.591C724.886 501.348 725.367 501 725.761 500.545C726.155 500.091 726.436 499.545 726.602 498.909H729.284C729.133 499.939 728.758 500.867 728.159 501.693C727.568 502.511 726.784 503.163 725.807 503.648C724.837 504.125 723.708 504.364 722.42 504.364ZM740.795 486.545V488.818H731.75V486.545H740.795ZM734.386 482.364H737.068V499C737.068 499.758 737.178 500.326 737.398 500.705C737.625 501.076 737.913 501.326 738.261 501.455C738.617 501.576 738.992 501.636 739.386 501.636C739.682 501.636 739.924 501.621 740.114 501.591C740.303 501.553 740.455 501.523 740.568 501.5L741.114 503.909C740.932 503.977 740.678 504.045 740.352 504.114C740.027 504.189 739.614 504.227 739.114 504.227C738.356 504.227 737.614 504.064 736.886 503.739C736.167 503.413 735.568 502.917 735.091 502.25C734.621 501.583 734.386 500.742 734.386 499.727V482.364ZM744.83 504V486.545H747.511V504H744.83ZM746.193 483.636C745.67 483.636 745.22 483.458 744.841 483.102C744.47 482.746 744.284 482.318 744.284 481.818C744.284 481.318 744.47 480.89 744.841 480.534C745.22 480.178 745.67 480 746.193 480C746.716 480 747.163 480.178 747.534 480.534C747.913 480.89 748.102 481.318 748.102 481.818C748.102 482.318 747.913 482.746 747.534 483.102C747.163 483.458 746.716 483.636 746.193 483.636ZM759.514 504.364C757.938 504.364 756.556 503.989 755.366 503.239C754.185 502.489 753.26 501.439 752.594 500.091C751.935 498.742 751.605 497.167 751.605 495.364C751.605 493.545 751.935 491.958 752.594 490.602C753.26 489.246 754.185 488.193 755.366 487.443C756.556 486.693 757.938 486.318 759.514 486.318C761.09 486.318 762.469 486.693 763.651 487.443C764.84 488.193 765.764 489.246 766.423 490.602C767.09 491.958 767.423 493.545 767.423 495.364C767.423 497.167 767.09 498.742 766.423 500.091C765.764 501.439 764.84 502.489 763.651 503.239C762.469 503.989 761.09 504.364 759.514 504.364ZM759.514 501.955C760.711 501.955 761.696 501.648 762.469 501.034C763.241 500.42 763.813 499.614 764.185 498.614C764.556 497.614 764.741 496.53 764.741 495.364C764.741 494.197 764.556 493.11 764.185 492.102C763.813 491.095 763.241 490.28 762.469 489.659C761.696 489.038 760.711 488.727 759.514 488.727C758.317 488.727 757.332 489.038 756.56 489.659C755.787 490.28 755.215 491.095 754.844 492.102C754.473 493.11 754.287 494.197 754.287 495.364C754.287 496.53 754.473 497.614 754.844 498.614C755.215 499.614 755.787 500.42 756.56 501.034C757.332 501.648 758.317 501.955 759.514 501.955ZM774.199 493.5V504H771.517V486.545H774.108V489.273H774.335C774.744 488.386 775.366 487.674 776.199 487.136C777.032 486.591 778.108 486.318 779.426 486.318C780.608 486.318 781.642 486.561 782.528 487.045C783.415 487.523 784.104 488.25 784.597 489.227C785.089 490.197 785.335 491.424 785.335 492.909V504H782.653V493.091C782.653 491.72 782.297 490.652 781.585 489.886C780.873 489.114 779.896 488.727 778.653 488.727C777.797 488.727 777.032 488.913 776.358 489.284C775.691 489.655 775.165 490.197 774.778 490.909C774.392 491.621 774.199 492.485 774.199 493.5Z" fill="#224757"/>
<path opacity="0.5" d="M893.759 532.545V508.545H896.35V511.318H896.668C896.865 511.015 897.138 510.629 897.487 510.159C897.843 509.682 898.35 509.258 899.009 508.886C899.676 508.508 900.577 508.318 901.714 508.318C903.183 508.318 904.479 508.686 905.6 509.42C906.721 510.155 907.596 511.197 908.225 512.545C908.854 513.894 909.168 515.485 909.168 517.318C909.168 519.167 908.854 520.769 908.225 522.125C907.596 523.473 906.725 524.519 905.612 525.261C904.498 525.996 903.214 526.364 901.759 526.364C900.638 526.364 899.74 526.178 899.066 525.807C898.392 525.428 897.873 525 897.509 524.523C897.146 524.038 896.865 523.636 896.668 523.318H896.441V532.545H893.759ZM896.396 517.273C896.396 518.591 896.589 519.754 896.975 520.761C897.362 521.761 897.926 522.545 898.668 523.114C899.411 523.674 900.32 523.955 901.396 523.955C902.517 523.955 903.452 523.659 904.202 523.068C904.96 522.47 905.528 521.667 905.907 520.659C906.293 519.644 906.487 518.515 906.487 517.273C906.487 516.045 906.297 514.939 905.918 513.955C905.547 512.962 904.983 512.178 904.225 511.602C903.475 511.019 902.532 510.727 901.396 510.727C900.305 510.727 899.388 511.004 898.646 511.557C897.903 512.102 897.343 512.867 896.964 513.852C896.585 514.83 896.396 515.97 896.396 517.273ZM915.941 502.727V526H913.259V502.727H915.941ZM925.989 526.409C924.883 526.409 923.879 526.201 922.978 525.784C922.076 525.36 921.361 524.75 920.83 523.955C920.3 523.152 920.035 522.182 920.035 521.045C920.035 520.045 920.232 519.235 920.626 518.614C921.02 517.985 921.546 517.492 922.205 517.136C922.864 516.78 923.592 516.515 924.387 516.341C925.19 516.159 925.997 516.015 926.808 515.909C927.868 515.773 928.728 515.67 929.387 515.602C930.054 515.527 930.539 515.402 930.842 515.227C931.152 515.053 931.308 514.75 931.308 514.318V514.227C931.308 513.106 931.001 512.235 930.387 511.614C929.781 510.992 928.861 510.682 927.626 510.682C926.345 510.682 925.342 510.962 924.614 511.523C923.887 512.083 923.376 512.682 923.08 513.318L920.535 512.409C920.989 511.348 921.595 510.523 922.353 509.932C923.118 509.333 923.951 508.917 924.853 508.682C925.762 508.439 926.656 508.318 927.535 508.318C928.095 508.318 928.739 508.386 929.467 508.523C930.201 508.652 930.91 508.92 931.592 509.33C932.281 509.739 932.853 510.356 933.308 511.182C933.762 512.008 933.989 513.114 933.989 514.5V526H931.308V523.636H931.171C930.989 524.015 930.686 524.42 930.262 524.852C929.838 525.284 929.273 525.652 928.569 525.955C927.864 526.258 927.004 526.409 925.989 526.409ZM926.398 524C927.459 524 928.353 523.792 929.08 523.375C929.815 522.958 930.368 522.42 930.739 521.761C931.118 521.102 931.308 520.409 931.308 519.682V517.227C931.194 517.364 930.944 517.489 930.558 517.602C930.179 517.708 929.739 517.803 929.239 517.886C928.747 517.962 928.266 518.03 927.796 518.091C927.334 518.144 926.959 518.189 926.671 518.227C925.974 518.318 925.323 518.466 924.717 518.67C924.118 518.867 923.633 519.167 923.262 519.568C922.898 519.962 922.717 520.5 922.717 521.182C922.717 522.114 923.061 522.818 923.751 523.295C924.448 523.765 925.33 524 926.398 524ZM939.987 532.545C939.532 532.545 939.127 532.508 938.771 532.432C938.415 532.364 938.168 532.295 938.032 532.227L938.714 529.864C939.365 530.03 939.941 530.091 940.441 530.045C940.941 530 941.384 529.777 941.771 529.375C942.165 528.981 942.524 528.341 942.85 527.455L943.35 526.091L936.896 508.545H939.805L944.623 522.455H944.805L949.623 508.545H952.532L945.123 528.545C944.79 529.447 944.377 530.193 943.884 530.784C943.392 531.383 942.82 531.826 942.168 532.114C941.524 532.402 940.797 532.545 939.987 532.545ZM963.844 508.545V510.818H954.435V508.545H963.844ZM957.254 526V506.136C957.254 505.136 957.488 504.303 957.958 503.636C958.428 502.97 959.038 502.47 959.788 502.136C960.538 501.803 961.329 501.636 962.163 501.636C962.822 501.636 963.36 501.689 963.776 501.795C964.193 501.902 964.504 502 964.708 502.091L963.935 504.409C963.799 504.364 963.61 504.307 963.367 504.239C963.132 504.17 962.822 504.136 962.435 504.136C961.549 504.136 960.909 504.36 960.515 504.807C960.129 505.254 959.935 505.909 959.935 506.773V526H957.254ZM978.603 518.864V508.545H981.285V526H978.603V523.045H978.421C978.012 523.932 977.376 524.686 976.512 525.307C975.648 525.92 974.558 526.227 973.239 526.227C972.148 526.227 971.179 525.989 970.33 525.511C969.482 525.027 968.815 524.299 968.33 523.33C967.845 522.352 967.603 521.121 967.603 519.636V508.545H970.285V519.455C970.285 520.727 970.641 521.742 971.353 522.5C972.073 523.258 972.989 523.636 974.103 523.636C974.77 523.636 975.448 523.466 976.137 523.125C976.834 522.784 977.417 522.261 977.887 521.557C978.364 520.852 978.603 519.955 978.603 518.864ZM988.879 502.727V526H986.197V502.727H988.879Z" fill="#224757"/>
<path opacity="0.5" d="M1082.05 609.509L1079.64 610.191C1079.49 609.79 1079.27 609.399 1078.97 609.021C1078.69 608.634 1078.29 608.316 1077.79 608.066C1077.29 607.816 1076.65 607.691 1075.87 607.691C1074.8 607.691 1073.91 607.937 1073.2 608.43C1072.5 608.915 1072.14 609.532 1072.14 610.282C1072.14 610.949 1072.39 611.475 1072.87 611.862C1073.36 612.248 1074.11 612.57 1075.14 612.827L1077.73 613.464C1079.29 613.843 1080.46 614.422 1081.22 615.202C1081.99 615.975 1082.37 616.971 1082.37 618.191C1082.37 619.191 1082.08 620.085 1081.51 620.873C1080.94 621.661 1080.14 622.282 1079.12 622.737C1078.1 623.191 1076.91 623.418 1075.55 623.418C1073.77 623.418 1072.3 623.032 1071.13 622.259C1069.97 621.487 1069.23 620.358 1068.92 618.873L1071.46 618.237C1071.7 619.176 1072.16 619.88 1072.84 620.35C1073.52 620.82 1074.41 621.055 1075.51 621.055C1076.76 621.055 1077.75 620.79 1078.48 620.259C1079.23 619.721 1079.6 619.077 1079.6 618.327C1079.6 617.721 1079.39 617.214 1078.96 616.805C1078.54 616.388 1077.89 616.077 1077.01 615.873L1074.1 615.191C1072.5 614.812 1071.33 614.225 1070.58 613.43C1069.83 612.627 1069.46 611.623 1069.46 610.418C1069.46 609.433 1069.74 608.562 1070.29 607.805C1070.85 607.047 1071.61 606.452 1072.58 606.021C1073.54 605.589 1074.64 605.373 1075.87 605.373C1077.6 605.373 1078.95 605.752 1079.94 606.509C1080.93 607.267 1081.64 608.267 1082.05 609.509ZM1086.41 629.6L1086.41 605.6L1089 605.6L1089 608.373L1089.32 608.373C1089.51 608.07 1089.79 607.683 1090.13 607.214C1090.49 606.737 1091 606.312 1091.66 605.941C1092.32 605.562 1093.23 605.373 1094.36 605.373C1095.83 605.373 1097.13 605.74 1098.25 606.475C1099.37 607.21 1100.24 608.252 1100.87 609.6C1101.5 610.949 1101.82 612.54 1101.82 614.373C1101.82 616.221 1101.5 617.824 1100.87 619.18C1100.24 620.528 1099.37 621.574 1098.26 622.316C1097.15 623.051 1095.86 623.418 1094.41 623.418C1093.29 623.418 1092.39 623.233 1091.71 622.862C1091.04 622.483 1090.52 622.055 1090.16 621.577C1089.79 621.093 1089.51 620.691 1089.32 620.373L1089.09 620.373L1089.09 629.6L1086.41 629.6ZM1089.04 614.327C1089.04 615.646 1089.24 616.808 1089.62 617.816C1090.01 618.816 1090.57 619.6 1091.32 620.168C1092.06 620.729 1092.97 621.009 1094.04 621.009C1095.17 621.009 1096.1 620.714 1096.85 620.123C1097.61 619.524 1098.18 618.721 1098.56 617.714C1098.94 616.699 1099.13 615.57 1099.13 614.327C1099.13 613.1 1098.95 611.994 1098.57 611.009C1098.2 610.017 1097.63 609.233 1096.87 608.657C1096.12 608.074 1095.18 607.782 1094.04 607.782C1092.95 607.782 1092.04 608.058 1091.29 608.612C1090.55 609.157 1089.99 609.922 1089.61 610.907C1089.23 611.884 1089.04 613.024 1089.04 614.327ZM1113 623.418C1111.42 623.418 1110.04 623.043 1108.85 622.293C1107.67 621.543 1106.74 620.494 1106.08 619.146C1105.42 617.797 1105.09 616.221 1105.09 614.418C1105.09 612.6 1105.42 611.013 1106.08 609.657C1106.74 608.301 1107.67 607.248 1108.85 606.498C1110.04 605.748 1111.42 605.373 1113 605.373C1114.57 605.373 1115.95 605.748 1117.13 606.498C1118.32 607.248 1119.25 608.301 1119.91 609.657C1120.57 611.013 1120.91 612.6 1120.91 614.418C1120.91 616.221 1120.57 617.797 1119.91 619.146C1119.25 620.494 1118.32 621.543 1117.13 622.293C1115.95 623.043 1114.57 623.418 1113 623.418ZM1113 621.009C1114.2 621.009 1115.18 620.702 1115.95 620.089C1116.73 619.475 1117.3 618.668 1117.67 617.668C1118.04 616.668 1118.23 615.585 1118.23 614.418C1118.23 613.252 1118.04 612.165 1117.67 611.157C1117.3 610.149 1116.73 609.335 1115.95 608.714C1115.18 608.093 1114.2 607.782 1113 607.782C1111.8 607.782 1110.82 608.093 1110.04 608.714C1109.27 609.335 1108.7 610.149 1108.33 611.157C1107.96 612.165 1107.77 613.252 1107.77 614.418C1107.77 615.585 1107.96 616.668 1108.33 617.668C1108.7 618.668 1109.27 619.475 1110.04 620.089C1110.82 620.702 1111.8 621.009 1113 621.009ZM1127.68 612.555L1127.68 623.055L1125 623.055L1125 605.6L1127.59 605.6L1127.59 608.327L1127.82 608.327C1128.23 607.441 1128.85 606.729 1129.68 606.191C1130.52 605.646 1131.59 605.373 1132.91 605.373C1134.09 605.373 1135.13 605.615 1136.01 606.1C1136.9 606.577 1137.59 607.305 1138.08 608.282C1138.57 609.252 1138.82 610.479 1138.82 611.964L1138.82 623.055L1136.14 623.055L1136.14 612.146C1136.14 610.774 1135.78 609.706 1135.07 608.941C1134.36 608.168 1133.38 607.782 1132.14 607.782C1131.28 607.782 1130.52 607.968 1129.84 608.339C1129.18 608.71 1128.65 609.252 1128.26 609.964C1127.88 610.676 1127.68 611.54 1127.68 612.555ZM1151.31 605.6L1151.31 607.873L1142.27 607.873L1142.27 605.6L1151.31 605.6ZM1144.9 601.418L1147.58 601.418L1147.58 618.055C1147.58 618.812 1147.69 619.38 1147.91 619.759C1148.14 620.13 1148.43 620.38 1148.78 620.509C1149.13 620.63 1149.51 620.691 1149.9 620.691C1150.2 620.691 1150.44 620.676 1150.63 620.646C1150.82 620.608 1150.97 620.577 1151.08 620.555L1151.63 622.964C1151.45 623.032 1151.19 623.1 1150.87 623.168C1150.54 623.244 1150.13 623.282 1149.63 623.282C1148.87 623.282 1148.13 623.119 1147.4 622.793C1146.68 622.468 1146.08 621.971 1145.61 621.305C1145.14 620.638 1144.9 619.797 1144.9 618.782L1144.9 601.418ZM1160.48 623.464C1159.38 623.464 1158.37 623.255 1157.47 622.839C1156.57 622.415 1155.85 621.805 1155.32 621.009C1154.79 620.206 1154.53 619.237 1154.53 618.1C1154.53 617.1 1154.72 616.29 1155.12 615.668C1155.51 615.04 1156.04 614.547 1156.7 614.191C1157.36 613.835 1158.08 613.57 1158.88 613.396C1159.68 613.214 1160.49 613.07 1161.3 612.964C1162.36 612.827 1163.22 612.725 1163.88 612.657C1164.55 612.581 1165.03 612.456 1165.33 612.282C1165.64 612.108 1165.8 611.805 1165.8 611.373L1165.8 611.282C1165.8 610.161 1165.49 609.29 1164.88 608.668C1164.27 608.047 1163.35 607.737 1162.12 607.737C1160.84 607.737 1159.83 608.017 1159.11 608.577C1158.38 609.138 1157.87 609.737 1157.57 610.373L1155.03 609.464C1155.48 608.403 1156.09 607.577 1156.85 606.987C1157.61 606.388 1158.44 605.971 1159.35 605.737C1160.25 605.494 1161.15 605.373 1162.03 605.373C1162.59 605.373 1163.23 605.441 1163.96 605.577C1164.69 605.706 1165.4 605.975 1166.08 606.384C1166.77 606.793 1167.35 607.411 1167.8 608.237C1168.25 609.062 1168.48 610.168 1168.48 611.555L1168.48 623.055L1165.8 623.055L1165.8 620.691L1165.66 620.691C1165.48 621.07 1165.18 621.475 1164.75 621.907C1164.33 622.339 1163.77 622.706 1163.06 623.009C1162.36 623.312 1161.5 623.464 1160.48 623.464ZM1160.89 621.055C1161.95 621.055 1162.85 620.846 1163.57 620.43C1164.31 620.013 1164.86 619.475 1165.23 618.816C1165.61 618.157 1165.8 617.464 1165.8 616.737L1165.8 614.282C1165.69 614.418 1165.44 614.543 1165.05 614.657C1164.67 614.763 1164.23 614.858 1163.73 614.941C1163.24 615.017 1162.76 615.085 1162.29 615.146C1161.83 615.199 1161.45 615.244 1161.16 615.282C1160.47 615.373 1159.81 615.521 1159.21 615.725C1158.61 615.922 1158.13 616.221 1157.75 616.623C1157.39 617.017 1157.21 617.555 1157.21 618.237C1157.21 619.168 1157.55 619.873 1158.24 620.35C1158.94 620.82 1159.82 621.055 1160.89 621.055ZM1176.06 612.555L1176.06 623.055L1173.38 623.055L1173.38 605.6L1175.97 605.6L1175.97 608.327L1176.19 608.327C1176.6 607.441 1177.22 606.729 1178.06 606.191C1178.89 605.646 1179.97 605.373 1181.29 605.373C1182.47 605.373 1183.5 605.615 1184.39 606.1C1185.27 606.577 1185.96 607.305 1186.46 608.282C1186.95 609.252 1187.19 610.479 1187.19 611.964L1187.19 623.055L1184.51 623.055L1184.51 612.146C1184.51 610.774 1184.16 609.706 1183.44 608.941C1182.73 608.168 1181.76 607.782 1180.51 607.782C1179.66 607.782 1178.89 607.968 1178.22 608.339C1177.55 608.71 1177.02 609.252 1176.64 609.964C1176.25 610.676 1176.06 611.54 1176.06 612.555ZM1199.41 623.418C1197.73 623.418 1196.28 623.047 1195.06 622.305C1193.85 621.555 1192.91 620.509 1192.25 619.168C1191.6 617.82 1191.28 616.252 1191.28 614.464C1191.28 612.676 1191.6 611.1 1192.25 609.737C1192.91 608.365 1193.83 607.297 1195 606.532C1196.19 605.759 1197.56 605.373 1199.14 605.373C1200.05 605.373 1200.95 605.524 1201.83 605.827C1202.72 606.13 1203.53 606.623 1204.25 607.305C1204.98 607.979 1205.56 608.873 1205.99 609.987C1206.42 611.1 1206.64 612.471 1206.64 614.1L1206.64 615.237L1193.19 615.237L1193.19 612.918L1203.91 612.918C1203.91 611.933 1203.72 611.055 1203.32 610.282C1202.94 609.509 1202.38 608.899 1201.66 608.452C1200.95 608.005 1200.11 607.782 1199.14 607.782C1198.07 607.782 1197.15 608.047 1196.37 608.577C1195.6 609.1 1195 609.782 1194.58 610.623C1194.17 611.464 1193.96 612.365 1193.96 613.327L1193.96 614.873C1193.96 616.191 1194.19 617.308 1194.64 618.225C1195.1 619.134 1195.74 619.827 1196.56 620.305C1197.38 620.774 1198.33 621.009 1199.41 621.009C1200.12 621.009 1200.75 620.911 1201.32 620.714C1201.9 620.509 1202.39 620.206 1202.81 619.805C1203.23 619.396 1203.55 618.888 1203.78 618.282L1206.37 619.009C1206.1 619.888 1205.64 620.661 1204.99 621.327C1204.35 621.987 1203.55 622.502 1202.61 622.873C1201.66 623.237 1200.6 623.418 1199.41 623.418ZM1217.81 623.418C1216.24 623.418 1214.85 623.043 1213.66 622.293C1212.48 621.543 1211.56 620.494 1210.89 619.146C1210.23 617.797 1209.9 616.221 1209.9 614.418C1209.9 612.6 1210.23 611.013 1210.89 609.657C1211.56 608.301 1212.48 607.248 1213.66 606.498C1214.85 605.748 1216.24 605.373 1217.81 605.373C1219.39 605.373 1220.77 605.748 1221.95 606.498C1223.14 607.248 1224.06 608.301 1224.72 609.657C1225.39 611.013 1225.72 612.6 1225.72 614.418C1225.72 616.221 1225.39 617.797 1224.72 619.146C1224.06 620.494 1223.14 621.543 1221.95 622.293C1220.77 623.043 1219.39 623.418 1217.81 623.418ZM1217.81 621.009C1219.01 621.009 1219.99 620.702 1220.77 620.089C1221.54 619.475 1222.11 618.668 1222.48 617.668C1222.85 616.668 1223.04 615.585 1223.04 614.418C1223.04 613.252 1222.85 612.165 1222.48 611.157C1222.11 610.149 1221.54 609.335 1220.77 608.714C1219.99 608.093 1219.01 607.782 1217.81 607.782C1216.61 607.782 1215.63 608.093 1214.86 608.714C1214.08 609.335 1213.51 610.149 1213.14 611.157C1212.77 612.165 1212.58 613.252 1212.58 614.418C1212.58 615.585 1212.77 616.668 1213.14 617.668C1213.51 618.668 1214.08 619.475 1214.86 620.089C1215.63 620.702 1216.61 621.009 1217.81 621.009ZM1240.81 615.918L1240.81 605.6L1243.5 605.6L1243.5 623.055L1240.81 623.055L1240.81 620.1L1240.63 620.1C1240.22 620.987 1239.59 621.74 1238.72 622.362C1237.86 622.975 1236.77 623.282 1235.45 623.282C1234.36 623.282 1233.39 623.043 1232.54 622.566C1231.69 622.081 1231.03 621.354 1230.54 620.384C1230.06 619.407 1229.81 618.176 1229.81 616.691L1229.81 605.6L1232.5 605.6L1232.5 616.509C1232.5 617.782 1232.85 618.797 1233.56 619.555C1234.28 620.312 1235.2 620.691 1236.31 620.691C1236.98 620.691 1237.66 620.521 1238.35 620.18C1239.04 619.839 1239.63 619.316 1240.1 618.612C1240.58 617.907 1240.81 617.009 1240.81 615.918ZM1260.77 609.509L1258.36 610.191C1258.21 609.79 1257.99 609.399 1257.69 609.021C1257.4 608.634 1257.01 608.316 1256.51 608.066C1256.01 607.816 1255.37 607.691 1254.59 607.691C1253.52 607.691 1252.63 607.937 1251.92 608.43C1251.21 608.915 1250.86 609.532 1250.86 610.282C1250.86 610.949 1251.1 611.475 1251.59 611.862C1252.07 612.248 1252.83 612.57 1253.86 612.827L1256.45 613.464C1258.01 613.843 1259.18 614.422 1259.94 615.202C1260.71 615.975 1261.09 616.971 1261.09 618.191C1261.09 619.191 1260.8 620.085 1260.23 620.873C1259.66 621.661 1258.86 622.282 1257.84 622.737C1256.82 623.191 1255.63 623.418 1254.27 623.418C1252.49 623.418 1251.02 623.032 1249.85 622.259C1248.68 621.487 1247.95 620.358 1247.63 618.873L1250.18 618.237C1250.42 619.176 1250.88 619.88 1251.56 620.35C1252.24 620.82 1253.13 621.055 1254.23 621.055C1255.48 621.055 1256.47 620.79 1257.2 620.259C1257.95 619.721 1258.32 619.077 1258.32 618.327C1258.32 617.721 1258.1 617.214 1257.68 616.805C1257.26 616.388 1256.6 616.077 1255.73 615.873L1252.82 615.191C1251.22 614.812 1250.04 614.225 1249.29 613.43C1248.55 612.627 1248.18 611.623 1248.18 610.418C1248.18 609.433 1248.46 608.562 1249.01 607.805C1249.57 607.047 1250.33 606.452 1251.29 606.021C1252.26 605.589 1253.36 605.373 1254.59 605.373C1256.32 605.373 1257.67 605.752 1258.66 606.509C1259.65 607.267 1260.35 608.267 1260.77 609.509Z" fill="#224757"/>
<path d="M1350.11 526L1350.11 508.545L1354.23 508.545L1354.23 526L1350.11 526ZM1352.18 506.068C1351.53 506.068 1350.97 505.852 1350.5 505.42C1350.03 504.981 1349.8 504.455 1349.8 503.841C1349.8 503.22 1350.03 502.693 1350.5 502.261C1350.97 501.822 1351.53 501.602 1352.18 501.602C1352.84 501.602 1353.4 501.822 1353.86 502.261C1354.33 502.693 1354.57 503.22 1354.57 503.841C1354.57 504.455 1354.33 504.981 1353.86 505.42C1353.4 505.852 1352.84 506.068 1352.18 506.068ZM1362.57 515.773L1362.57 526L1358.46 526L1358.46 508.545L1362.39 508.545L1362.39 511.511L1362.59 511.511C1363 510.534 1363.64 509.758 1364.51 509.182C1365.4 508.606 1366.5 508.318 1367.8 508.318C1369 508.318 1370.05 508.576 1370.95 509.091C1371.85 509.606 1372.54 510.352 1373.04 511.33C1373.54 512.307 1373.78 513.492 1373.78 514.886L1373.78 526L1369.66 526L1369.66 515.523C1369.66 514.356 1369.36 513.443 1368.75 512.784C1368.15 512.125 1367.32 511.795 1366.26 511.795C1365.54 511.795 1364.9 511.955 1364.34 512.273C1363.79 512.583 1363.36 513.034 1363.04 513.625C1362.73 514.216 1362.57 514.932 1362.57 515.773ZM1386.67 508.545L1386.67 511.727L1376.64 511.727L1376.64 508.545L1386.67 508.545ZM1379.12 504.364L1383.23 504.364L1383.23 520.75C1383.23 521.303 1383.31 521.727 1383.48 522.023C1383.65 522.311 1383.88 522.508 1384.16 522.614C1384.44 522.72 1384.75 522.773 1385.09 522.773C1385.35 522.773 1385.59 522.754 1385.8 522.716C1386.02 522.678 1386.18 522.644 1386.3 522.614L1386.99 525.83C1386.77 525.905 1386.46 525.989 1386.05 526.08C1385.65 526.17 1385.15 526.223 1384.57 526.239C1383.54 526.269 1382.61 526.114 1381.79 525.773C1380.96 525.424 1380.31 524.886 1379.82 524.159C1379.34 523.432 1379.11 522.523 1379.12 521.432L1379.12 504.364ZM1401.24 518.659L1401.24 508.545L1405.35 508.545L1405.35 526L1401.36 526L1401.36 522.898L1401.18 522.898C1400.79 523.875 1400.14 524.674 1399.24 525.295C1398.34 525.917 1397.24 526.227 1395.93 526.227C1394.79 526.227 1393.78 525.973 1392.9 525.466C1392.03 524.951 1391.34 524.205 1390.85 523.227C1390.36 522.242 1390.11 521.053 1390.11 519.659L1390.11 508.545L1394.23 508.545L1394.23 519.023C1394.23 520.129 1394.53 521.008 1395.14 521.659C1395.74 522.311 1396.54 522.636 1397.52 522.636C1398.13 522.636 1398.72 522.489 1399.28 522.193C1399.85 521.898 1400.32 521.458 1400.68 520.875C1401.05 520.284 1401.24 519.545 1401.24 518.659ZM1409.58 526L1409.58 508.545L1413.7 508.545L1413.7 526L1409.58 526ZM1411.65 506.068C1411 506.068 1410.44 505.852 1409.97 505.42C1409.5 504.981 1409.26 504.455 1409.26 503.841C1409.26 503.22 1409.5 502.693 1409.97 502.261C1410.44 501.822 1411 501.602 1411.65 501.602C1412.31 501.602 1412.87 501.822 1413.33 502.261C1413.8 502.693 1414.04 503.22 1414.04 503.841C1414.04 504.455 1413.8 504.981 1413.33 505.42C1412.87 505.852 1412.31 506.068 1411.65 506.068ZM1426.64 508.545L1426.64 511.727L1416.61 511.727L1416.61 508.545L1426.64 508.545ZM1419.09 504.364L1423.2 504.364L1423.2 520.75C1423.2 521.303 1423.28 521.727 1423.45 522.023C1423.62 522.311 1423.85 522.508 1424.13 522.614C1424.41 522.72 1424.72 522.773 1425.06 522.773C1425.32 522.773 1425.55 522.754 1425.77 522.716C1425.99 522.678 1426.15 522.644 1426.27 522.614L1426.96 525.83C1426.74 525.905 1426.43 525.989 1426.02 526.08C1425.62 526.17 1425.12 526.223 1424.54 526.239C1423.51 526.269 1422.58 526.114 1421.76 525.773C1420.93 525.424 1420.27 524.886 1419.79 524.159C1419.31 523.432 1419.08 522.523 1419.09 521.432L1419.09 504.364ZM1430.08 526L1430.08 508.545L1434.2 508.545L1434.2 526L1430.08 526ZM1432.15 506.068C1431.5 506.068 1430.94 505.852 1430.47 505.42C1430 504.981 1429.76 504.455 1429.76 503.841C1429.76 503.22 1430 502.693 1430.47 502.261C1430.94 501.822 1431.5 501.602 1432.15 501.602C1432.81 501.602 1433.37 501.822 1433.83 502.261C1434.3 502.693 1434.54 503.22 1434.54 503.841C1434.54 504.455 1434.3 504.981 1433.83 505.42C1433.37 505.852 1432.81 506.068 1432.15 506.068ZM1454.02 508.545L1447.8 526L1443.26 526L1437.04 508.545L1441.43 508.545L1445.44 521.511L1445.62 521.511L1449.64 508.545L1454.02 508.545ZM1464 526.341C1462.25 526.341 1460.74 525.977 1459.46 525.25C1458.2 524.515 1457.22 523.477 1456.54 522.136C1455.86 520.788 1455.52 519.201 1455.52 517.375C1455.52 515.58 1455.86 514.004 1456.54 512.648C1457.23 511.284 1458.19 510.223 1459.43 509.466C1460.66 508.701 1462.11 508.318 1463.78 508.318C1464.86 508.318 1465.87 508.492 1466.83 508.841C1467.79 509.182 1468.64 509.712 1469.37 510.432C1470.11 511.152 1470.7 512.068 1471.12 513.182C1471.55 514.288 1471.76 515.606 1471.76 517.136L1471.76 518.398L1457.45 518.398L1457.45 515.625L1467.82 515.625C1467.81 514.837 1467.64 514.136 1467.3 513.523C1466.97 512.902 1466.5 512.413 1465.91 512.057C1465.32 511.701 1464.63 511.523 1463.84 511.523C1463 511.523 1462.26 511.727 1461.62 512.136C1460.99 512.538 1460.49 513.068 1460.13 513.727C1459.79 514.379 1459.61 515.095 1459.6 515.875L1459.6 518.295C1459.6 519.311 1459.79 520.182 1460.16 520.909C1460.53 521.629 1461.05 522.182 1461.71 522.568C1462.38 522.947 1463.16 523.136 1464.05 523.136C1464.65 523.136 1465.19 523.053 1465.68 522.886C1466.16 522.712 1466.58 522.458 1466.94 522.125C1467.3 521.792 1467.57 521.379 1467.75 520.886L1471.59 521.318C1471.35 522.333 1470.88 523.22 1470.2 523.977C1469.53 524.727 1468.66 525.311 1467.61 525.727C1466.56 526.136 1465.35 526.341 1464 526.341Z" fill="#224757"/>
<path d="M1447.48 429.344V411.889H1451.59V429.344H1447.48ZM1449.55 409.412C1448.89 409.412 1448.33 409.196 1447.86 408.764C1447.39 408.325 1447.16 407.798 1447.16 407.185C1447.16 406.563 1447.39 406.037 1447.86 405.605C1448.33 405.166 1448.89 404.946 1449.55 404.946C1450.2 404.946 1450.76 405.166 1451.23 405.605C1451.7 406.037 1451.93 406.563 1451.93 407.185C1451.93 407.798 1451.7 408.325 1451.23 408.764C1450.76 409.196 1450.2 409.412 1449.55 409.412ZM1455.82 429.344V411.889H1459.75V414.855H1459.96C1460.32 413.855 1460.92 413.075 1461.76 412.514C1462.6 411.946 1463.61 411.662 1464.78 411.662C1465.96 411.662 1466.95 411.95 1467.76 412.526C1468.58 413.094 1469.16 413.87 1469.49 414.855H1469.67C1470.06 413.885 1470.71 413.113 1471.63 412.537C1472.55 411.954 1473.65 411.662 1474.91 411.662C1476.52 411.662 1477.83 412.17 1478.84 413.185C1479.86 414.2 1480.37 415.681 1480.37 417.628V429.344H1476.24V418.264C1476.24 417.181 1475.95 416.389 1475.38 415.889C1474.8 415.382 1474.1 415.128 1473.26 415.128C1472.27 415.128 1471.49 415.438 1470.93 416.06C1470.38 416.673 1470.1 417.473 1470.1 418.457V429.344H1466.07V418.094C1466.07 417.192 1465.8 416.473 1465.25 415.935C1464.71 415.397 1464.01 415.128 1463.14 415.128C1462.55 415.128 1462.01 415.279 1461.53 415.582C1461.04 415.878 1460.65 416.298 1460.37 416.844C1460.08 417.382 1459.93 418.01 1459.93 418.73V429.344H1455.82ZM1484.54 429.344V411.889H1488.65V429.344H1484.54ZM1486.61 409.412C1485.96 409.412 1485.4 409.196 1484.93 408.764C1484.46 408.325 1484.22 407.798 1484.22 407.185C1484.22 406.563 1484.46 406.037 1484.93 405.605C1485.4 405.166 1485.96 404.946 1486.61 404.946C1487.27 404.946 1487.83 405.166 1488.29 405.605C1488.76 406.037 1488.99 406.563 1488.99 407.185C1488.99 407.798 1488.76 408.325 1488.29 408.764C1487.83 409.196 1487.27 409.412 1486.61 409.412ZM1501.6 411.889V415.071H1491.56V411.889H1501.6ZM1494.04 407.707H1498.16V424.094C1498.16 424.647 1498.24 425.071 1498.41 425.366C1498.58 425.654 1498.81 425.851 1499.09 425.957C1499.37 426.063 1499.68 426.116 1500.02 426.116C1500.28 426.116 1500.51 426.098 1500.72 426.06C1500.94 426.022 1501.11 425.988 1501.22 425.957L1501.92 429.173C1501.7 429.249 1501.38 429.332 1500.97 429.423C1500.57 429.514 1500.08 429.567 1499.5 429.582C1498.47 429.613 1497.54 429.457 1496.71 429.116C1495.89 428.768 1495.23 428.23 1494.75 427.503C1494.27 426.776 1494.03 425.866 1494.04 424.776V407.707ZM1510.06 429.696C1508.96 429.696 1507.96 429.499 1507.07 429.105C1506.19 428.704 1505.5 428.113 1504.98 427.332C1504.48 426.552 1504.22 425.59 1504.22 424.446C1504.22 423.461 1504.4 422.647 1504.77 422.003C1505.13 421.359 1505.63 420.844 1506.26 420.457C1506.88 420.071 1507.59 419.779 1508.38 419.582C1509.18 419.378 1510 419.23 1510.85 419.139C1511.87 419.033 1512.7 418.938 1513.33 418.855C1513.97 418.764 1514.43 418.628 1514.72 418.446C1515.02 418.257 1515.16 417.965 1515.16 417.571V417.503C1515.16 416.647 1514.91 415.984 1514.4 415.514C1513.9 415.045 1513.16 414.81 1512.21 414.81C1511.2 414.81 1510.4 415.029 1509.81 415.469C1509.23 415.908 1508.83 416.427 1508.63 417.026L1504.79 416.48C1505.09 415.42 1505.59 414.533 1506.29 413.821C1506.99 413.101 1507.84 412.563 1508.85 412.207C1509.85 411.844 1510.97 411.662 1512.19 411.662C1513.03 411.662 1513.87 411.76 1514.7 411.957C1515.53 412.154 1516.29 412.48 1516.98 412.935C1517.67 413.382 1518.23 413.991 1518.64 414.764C1519.07 415.537 1519.28 416.503 1519.28 417.662V429.344H1515.32V426.946H1515.19C1514.94 427.431 1514.58 427.885 1514.13 428.31C1513.68 428.726 1513.12 429.063 1512.44 429.321C1511.76 429.571 1510.97 429.696 1510.06 429.696ZM1511.13 426.673C1511.96 426.673 1512.67 426.51 1513.28 426.185C1513.88 425.851 1514.35 425.412 1514.68 424.866C1515.01 424.321 1515.18 423.726 1515.18 423.082V421.026C1515.05 421.132 1514.83 421.23 1514.52 421.321C1514.21 421.412 1513.87 421.491 1513.49 421.56C1513.12 421.628 1512.74 421.688 1512.37 421.741C1512 421.795 1511.68 421.84 1511.4 421.878C1510.79 421.961 1510.24 422.098 1509.76 422.287C1509.27 422.476 1508.89 422.741 1508.61 423.082C1508.33 423.416 1508.19 423.848 1508.19 424.378C1508.19 425.135 1508.46 425.707 1509.02 426.094C1509.57 426.48 1510.27 426.673 1511.13 426.673ZM1532.13 411.889V415.071H1522.1V411.889H1532.13ZM1524.57 407.707H1528.69V424.094C1528.69 424.647 1528.77 425.071 1528.94 425.366C1529.11 425.654 1529.34 425.851 1529.62 425.957C1529.9 426.063 1530.21 426.116 1530.55 426.116C1530.81 426.116 1531.04 426.098 1531.26 426.06C1531.48 426.022 1531.64 425.988 1531.76 425.957L1532.45 429.173C1532.23 429.249 1531.91 429.332 1531.51 429.423C1531.1 429.514 1530.61 429.567 1530.03 429.582C1529 429.613 1528.07 429.457 1527.24 429.116C1526.42 428.768 1525.76 428.23 1525.28 427.503C1524.8 426.776 1524.57 425.866 1524.57 424.776V407.707ZM1535.57 429.344V411.889H1539.68V429.344H1535.57ZM1537.64 409.412C1536.99 409.412 1536.43 409.196 1535.96 408.764C1535.49 408.325 1535.25 407.798 1535.25 407.185C1535.25 406.563 1535.49 406.037 1535.96 405.605C1536.43 405.166 1536.99 404.946 1537.64 404.946C1538.3 404.946 1538.86 405.166 1539.32 405.605C1539.79 406.037 1540.03 406.563 1540.03 407.185C1540.03 407.798 1539.79 408.325 1539.32 408.764C1538.86 409.196 1538.3 409.412 1537.64 409.412ZM1551.53 429.685C1549.82 429.685 1548.35 429.31 1547.1 428.56C1545.85 427.81 1544.88 426.76 1544.19 425.412C1543.51 424.063 1543.16 422.488 1543.16 420.685C1543.16 418.882 1543.51 417.302 1544.19 415.946C1544.88 414.59 1545.85 413.537 1547.1 412.787C1548.35 412.037 1549.82 411.662 1551.53 411.662C1553.23 411.662 1554.71 412.037 1555.96 412.787C1557.21 413.537 1558.18 414.59 1558.86 415.946C1559.55 417.302 1559.89 418.882 1559.89 420.685C1559.89 422.488 1559.55 424.063 1558.86 425.412C1558.18 426.76 1557.21 427.81 1555.96 428.56C1554.71 429.31 1553.23 429.685 1551.53 429.685ZM1551.55 426.389C1552.48 426.389 1553.25 426.135 1553.87 425.628C1554.49 425.113 1554.95 424.423 1555.26 423.56C1555.57 422.696 1555.72 421.734 1555.72 420.673C1555.72 419.605 1555.57 418.639 1555.26 417.776C1554.95 416.904 1554.49 416.211 1553.87 415.696C1553.25 415.181 1552.48 414.923 1551.55 414.923C1550.6 414.923 1549.82 415.181 1549.19 415.696C1548.57 416.211 1548.1 416.904 1547.79 417.776C1547.49 418.639 1547.33 419.605 1547.33 420.673C1547.33 421.734 1547.49 422.696 1547.79 423.56C1548.1 424.423 1548.57 425.113 1549.19 425.628C1549.82 426.135 1550.6 426.389 1551.55 426.389ZM1567.5 419.116V429.344H1563.38V411.889H1567.31V414.855H1567.52C1567.92 413.878 1568.56 413.101 1569.44 412.526C1570.33 411.95 1571.42 411.662 1572.72 411.662C1573.93 411.662 1574.98 411.92 1575.87 412.435C1576.77 412.95 1577.47 413.696 1577.96 414.673C1578.46 415.651 1578.71 416.836 1578.7 418.23V429.344H1574.59V418.866C1574.59 417.7 1574.28 416.787 1573.68 416.128C1573.08 415.469 1572.25 415.139 1571.19 415.139C1570.47 415.139 1569.83 415.298 1569.27 415.616C1568.72 415.927 1568.28 416.378 1567.96 416.969C1567.65 417.56 1567.5 418.276 1567.5 419.116Z" fill="#224757"/>
<path d="M1517.67 304.469V287.014H1521.78V304.469H1517.67ZM1519.74 284.537C1519.08 284.537 1518.52 284.321 1518.05 283.889C1517.58 283.45 1517.35 282.923 1517.35 282.31C1517.35 281.688 1517.58 281.162 1518.05 280.73C1518.52 280.291 1519.08 280.071 1519.74 280.071C1520.4 280.071 1520.96 280.291 1521.42 280.73C1521.89 281.162 1522.12 281.688 1522.12 282.31C1522.12 282.923 1521.89 283.45 1521.42 283.889C1520.96 284.321 1520.4 284.537 1519.74 284.537ZM1530.13 294.241V304.469H1526.01V287.014H1529.94V289.98H1530.15C1530.55 289.003 1531.19 288.226 1532.07 287.651C1532.96 287.075 1534.05 286.787 1535.35 286.787C1536.56 286.787 1537.61 287.045 1538.5 287.56C1539.4 288.075 1540.1 288.821 1540.59 289.798C1541.09 290.776 1541.34 291.961 1541.33 293.355V304.469H1537.22V293.991C1537.22 292.825 1536.91 291.912 1536.31 291.253C1535.71 290.594 1534.88 290.264 1533.82 290.264C1533.1 290.264 1532.46 290.423 1531.9 290.741C1531.35 291.052 1530.91 291.503 1530.59 292.094C1530.28 292.685 1530.13 293.401 1530.13 294.241ZM1559.31 291.628L1555.56 292.037C1555.45 291.658 1555.27 291.302 1555 290.969C1554.74 290.635 1554.39 290.366 1553.96 290.162C1553.52 289.957 1552.98 289.855 1552.34 289.855C1551.49 289.855 1550.77 290.041 1550.18 290.412C1549.61 290.783 1549.32 291.264 1549.33 291.855C1549.32 292.363 1549.51 292.776 1549.89 293.094C1550.27 293.412 1550.91 293.673 1551.8 293.878L1554.77 294.514C1556.42 294.87 1557.65 295.435 1558.46 296.207C1559.27 296.98 1559.67 297.991 1559.68 299.241C1559.67 300.34 1559.35 301.31 1558.72 302.151C1558.09 302.984 1557.21 303.635 1556.09 304.105C1554.97 304.575 1553.68 304.81 1552.23 304.81C1550.09 304.81 1548.37 304.363 1547.07 303.469C1545.77 302.567 1544.99 301.313 1544.74 299.707L1548.75 299.321C1548.93 300.109 1549.32 300.704 1549.91 301.105C1550.5 301.507 1551.27 301.707 1552.22 301.707C1553.19 301.707 1553.98 301.507 1554.57 301.105C1555.17 300.704 1555.47 300.207 1555.47 299.616C1555.47 299.116 1555.27 298.704 1554.89 298.378C1554.51 298.052 1553.92 297.802 1553.11 297.628L1550.14 297.003C1548.46 296.654 1547.22 296.067 1546.42 295.241C1545.62 294.408 1545.22 293.355 1545.23 292.082C1545.22 291.007 1545.51 290.075 1546.1 289.287C1546.7 288.491 1547.53 287.878 1548.59 287.446C1549.66 287.007 1550.89 286.787 1552.28 286.787C1554.33 286.787 1555.94 287.223 1557.11 288.094C1558.3 288.965 1559.03 290.143 1559.31 291.628ZM1571.79 287.014V290.196H1561.76V287.014H1571.79ZM1564.23 282.832H1568.35V299.219C1568.35 299.772 1568.43 300.196 1568.6 300.491C1568.77 300.779 1569 300.976 1569.28 301.082C1569.56 301.188 1569.87 301.241 1570.21 301.241C1570.47 301.241 1570.7 301.223 1570.92 301.185C1571.14 301.147 1571.3 301.113 1571.42 301.082L1572.11 304.298C1571.89 304.374 1571.57 304.457 1571.17 304.548C1570.76 304.639 1570.27 304.692 1569.69 304.707C1568.66 304.738 1567.73 304.582 1566.9 304.241C1566.08 303.893 1565.42 303.355 1564.94 302.628C1564.46 301.901 1564.23 300.991 1564.23 299.901V282.832ZM1575.23 304.469V287.014H1579.34V304.469H1575.23ZM1577.3 284.537C1576.65 284.537 1576.09 284.321 1575.62 283.889C1575.15 283.45 1574.91 282.923 1574.91 282.31C1574.91 281.688 1575.15 281.162 1575.62 280.73C1576.09 280.291 1576.65 280.071 1577.3 280.071C1577.96 280.071 1578.52 280.291 1578.98 280.73C1579.45 281.162 1579.69 281.688 1579.69 282.31C1579.69 282.923 1579.45 283.45 1578.98 283.889C1578.52 284.321 1577.96 284.537 1577.3 284.537ZM1587.69 294.241V304.469H1583.57V287.014H1587.51V289.98H1587.71C1588.11 289.003 1588.75 288.226 1589.63 287.651C1590.52 287.075 1591.61 286.787 1592.92 286.787C1594.12 286.787 1595.17 287.045 1596.06 287.56C1596.96 288.075 1597.66 288.821 1598.15 289.798C1598.65 290.776 1598.9 291.961 1598.89 293.355V304.469H1594.78V293.991C1594.78 292.825 1594.48 291.912 1593.87 291.253C1593.27 290.594 1592.44 290.264 1591.38 290.264C1590.66 290.264 1590.02 290.423 1589.46 290.741C1588.91 291.052 1588.47 291.503 1588.15 292.094C1587.84 292.685 1587.69 293.401 1587.69 294.241ZM1610.69 304.81C1608.95 304.81 1607.45 304.427 1606.2 303.662C1604.96 302.897 1604 301.84 1603.32 300.491C1602.66 299.135 1602.32 297.575 1602.32 295.81C1602.32 294.037 1602.67 292.473 1603.35 291.116C1604.03 289.753 1604.99 288.692 1606.23 287.935C1607.48 287.17 1608.96 286.787 1610.67 286.787C1612.08 286.787 1613.34 287.048 1614.43 287.571C1615.53 288.086 1616.4 288.817 1617.05 289.764C1617.7 290.704 1618.07 291.802 1618.17 293.06H1614.23C1614.07 292.219 1613.7 291.518 1613.1 290.957C1612.51 290.389 1611.71 290.105 1610.72 290.105C1609.88 290.105 1609.14 290.332 1608.51 290.787C1607.87 291.234 1607.37 291.878 1607.02 292.719C1606.67 293.56 1606.5 294.567 1606.5 295.741C1606.5 296.931 1606.67 297.954 1607.02 298.81C1607.37 299.658 1607.85 300.313 1608.48 300.776C1609.12 301.23 1609.87 301.457 1610.72 301.457C1611.33 301.457 1611.87 301.344 1612.35 301.116C1612.83 300.882 1613.24 300.545 1613.56 300.105C1613.89 299.666 1614.11 299.132 1614.23 298.503H1618.17C1618.07 299.738 1617.7 300.832 1617.07 301.787C1616.45 302.734 1615.59 303.476 1614.51 304.014C1613.42 304.545 1612.15 304.81 1610.69 304.81ZM1630.26 287.014V290.196H1620.23V287.014H1630.26ZM1622.7 282.832H1626.82V299.219C1626.82 299.772 1626.9 300.196 1627.07 300.491C1627.24 300.779 1627.47 300.976 1627.75 301.082C1628.03 301.188 1628.34 301.241 1628.68 301.241C1628.94 301.241 1629.17 301.223 1629.38 301.185C1629.6 301.147 1629.77 301.113 1629.88 301.082L1630.58 304.298C1630.36 304.374 1630.04 304.457 1629.63 304.548C1629.23 304.639 1628.74 304.692 1628.16 304.707C1627.13 304.738 1626.2 304.582 1625.37 304.241C1624.55 303.893 1623.89 303.355 1623.41 302.628C1622.93 301.901 1622.69 300.991 1622.7 299.901V282.832Z" fill="#224757"/>
<path d="M1562.01 163.6L1562.01 166.782L1551.69 166.782L1551.69 163.6L1562.01 163.6ZM1554.27 181.055L1554.27 161.952C1554.27 160.778 1554.51 159.801 1555 159.021C1555.49 158.24 1556.15 157.657 1556.98 157.271C1557.8 156.884 1558.72 156.691 1559.73 156.691C1560.44 156.691 1561.07 156.748 1561.62 156.862C1562.18 156.975 1562.58 157.077 1562.85 157.168L1562.03 160.35C1561.86 160.297 1561.64 160.244 1561.37 160.191C1561.11 160.13 1560.81 160.1 1560.49 160.1C1559.72 160.1 1559.18 160.286 1558.86 160.657C1558.55 161.021 1558.4 161.543 1558.4 162.225L1558.4 181.055L1554.27 181.055ZM1565.23 181.055L1565.23 163.6L1569.22 163.6L1569.22 166.509L1569.4 166.509C1569.72 165.502 1570.26 164.725 1571.04 164.18C1571.82 163.627 1572.71 163.35 1573.71 163.35C1573.94 163.35 1574.19 163.362 1574.47 163.384C1574.76 163.399 1575 163.426 1575.19 163.464L1575.19 167.248C1575.01 167.187 1574.73 167.134 1574.36 167.089C1573.98 167.036 1573.62 167.009 1573.28 167.009C1572.53 167.009 1571.85 167.172 1571.25 167.498C1570.66 167.816 1570.2 168.259 1569.86 168.827C1569.51 169.396 1569.34 170.051 1569.34 170.793L1569.34 181.055L1565.23 181.055ZM1584.93 181.396C1583.18 181.396 1581.67 181.032 1580.39 180.305C1579.13 179.57 1578.15 178.532 1577.47 177.191C1576.79 175.843 1576.45 174.255 1576.45 172.43C1576.45 170.634 1576.79 169.058 1577.47 167.702C1578.16 166.339 1579.12 165.278 1580.36 164.521C1581.59 163.755 1583.04 163.373 1584.71 163.373C1585.79 163.373 1586.8 163.547 1587.76 163.896C1588.72 164.236 1589.57 164.767 1590.3 165.486C1591.04 166.206 1591.63 167.123 1592.05 168.236C1592.48 169.343 1592.69 170.661 1592.69 172.191L1592.69 173.452L1578.38 173.452L1578.38 170.68L1588.75 170.68C1588.74 169.892 1588.57 169.191 1588.23 168.577C1587.9 167.956 1587.43 167.468 1586.84 167.111C1586.25 166.755 1585.56 166.577 1584.77 166.577C1583.93 166.577 1583.19 166.782 1582.55 167.191C1581.92 167.593 1581.42 168.123 1581.06 168.782C1580.71 169.433 1580.54 170.149 1580.53 170.93L1580.53 173.35C1580.53 174.365 1580.71 175.237 1581.09 175.964C1581.46 176.683 1581.98 177.237 1582.64 177.623C1583.31 178.002 1584.09 178.191 1584.98 178.191C1585.58 178.191 1586.12 178.108 1586.61 177.941C1587.09 177.767 1587.51 177.513 1587.87 177.18C1588.23 176.846 1588.5 176.433 1588.68 175.941L1592.52 176.373C1592.28 177.388 1591.81 178.274 1591.13 179.032C1590.46 179.782 1589.59 180.365 1588.54 180.782C1587.49 181.191 1586.28 181.396 1584.93 181.396ZM1603.9 181.396C1602.15 181.396 1600.63 181.032 1599.36 180.305C1598.1 179.57 1597.12 178.532 1596.44 177.191C1595.76 175.843 1595.42 174.255 1595.42 172.43C1595.42 170.634 1595.76 169.058 1596.44 167.702C1597.13 166.339 1598.09 165.278 1599.33 164.521C1600.56 163.755 1602.01 163.373 1603.68 163.373C1604.76 163.373 1605.77 163.547 1606.73 163.896C1607.69 164.236 1608.54 164.767 1609.27 165.486C1610.01 166.206 1610.6 167.123 1611.02 168.236C1611.44 169.343 1611.66 170.661 1611.66 172.191L1611.66 173.452L1597.35 173.452L1597.35 170.68L1607.71 170.68C1607.71 169.892 1607.54 169.191 1607.2 168.577C1606.87 167.956 1606.4 167.468 1605.8 167.111C1605.21 166.755 1604.52 166.577 1603.74 166.577C1602.9 166.577 1602.16 166.782 1601.52 167.191C1600.88 167.593 1600.39 168.123 1600.03 168.782C1599.68 169.433 1599.51 170.149 1599.5 170.93L1599.5 173.35C1599.5 174.365 1599.68 175.236 1600.05 175.964C1600.43 176.683 1600.94 177.236 1601.61 177.623C1602.28 178.002 1603.06 178.191 1603.95 178.191C1604.55 178.191 1605.09 178.108 1605.58 177.941C1606.06 177.767 1606.48 177.513 1606.84 177.18C1607.19 176.846 1607.46 176.433 1607.65 175.941L1611.49 176.373C1611.24 177.388 1610.78 178.274 1610.1 179.032C1609.43 179.782 1608.56 180.365 1607.51 180.782C1606.46 181.191 1605.25 181.396 1603.9 181.396ZM1621.61 181.361C1620.24 181.361 1619.02 181.009 1617.93 180.305C1616.85 179.6 1615.99 178.577 1615.36 177.236C1614.74 175.896 1614.42 174.267 1614.42 172.35C1614.42 170.411 1614.74 168.774 1615.38 167.441C1616.02 166.1 1616.89 165.089 1617.98 164.407C1619.07 163.718 1620.28 163.373 1621.63 163.373C1622.65 163.373 1623.49 163.547 1624.15 163.896C1624.81 164.236 1625.33 164.649 1625.72 165.134C1626.1 165.611 1626.4 166.062 1626.61 166.486L1626.78 166.486L1626.78 157.782L1630.91 157.782L1630.91 181.055L1626.86 181.055L1626.86 178.305L1626.61 178.305C1626.4 178.729 1626.1 179.18 1625.69 179.657C1625.29 180.127 1624.76 180.528 1624.1 180.861C1623.44 181.195 1622.61 181.361 1621.61 181.361ZM1622.76 177.986C1623.63 177.986 1624.38 177.752 1624.99 177.282C1625.6 176.805 1626.07 176.142 1626.39 175.293C1626.71 174.445 1626.86 173.456 1626.86 172.327C1626.86 171.199 1626.71 170.218 1626.39 169.384C1626.08 168.551 1625.61 167.903 1625 167.441C1624.39 166.979 1623.65 166.748 1622.76 166.748C1621.85 166.748 1621.08 166.986 1620.47 167.464C1619.85 167.941 1619.39 168.6 1619.08 169.441C1618.77 170.282 1618.61 171.244 1618.61 172.327C1618.61 173.418 1618.77 174.392 1619.08 175.248C1619.4 176.096 1619.86 176.767 1620.48 177.259C1621.1 177.744 1621.86 177.986 1622.76 177.986ZM1642.91 181.396C1641.2 181.396 1639.73 181.021 1638.48 180.271C1637.23 179.521 1636.26 178.471 1635.57 177.123C1634.88 175.774 1634.54 174.199 1634.54 172.396C1634.54 170.593 1634.88 169.013 1635.57 167.657C1636.26 166.301 1637.23 165.248 1638.48 164.498C1639.73 163.748 1641.2 163.373 1642.91 163.373C1644.61 163.373 1646.09 163.748 1647.34 164.498C1648.59 165.248 1649.55 166.301 1650.24 167.657C1650.93 169.013 1651.27 170.593 1651.27 172.396C1651.27 174.199 1650.93 175.774 1650.24 177.123C1649.55 178.471 1648.59 179.521 1647.34 180.271C1646.09 181.021 1644.61 181.396 1642.91 181.396ZM1642.93 178.1C1643.85 178.1 1644.63 177.846 1645.25 177.339C1645.87 176.824 1646.33 176.134 1646.63 175.271C1646.94 174.407 1647.1 173.445 1647.1 172.384C1647.1 171.316 1646.94 170.35 1646.63 169.486C1646.33 168.615 1645.87 167.922 1645.25 167.407C1644.63 166.892 1643.85 166.634 1642.93 166.634C1641.98 166.634 1641.19 166.892 1640.57 167.407C1639.94 167.922 1639.48 168.615 1639.17 169.486C1638.87 170.35 1638.71 171.316 1638.71 172.384C1638.71 173.445 1638.87 174.407 1639.17 175.271C1639.48 176.134 1639.94 176.824 1640.57 177.339C1641.19 177.846 1641.98 178.1 1642.93 178.1ZM1654.76 181.055L1654.76 163.6L1658.69 163.6L1658.69 166.566L1658.9 166.566C1659.26 165.566 1659.86 164.786 1660.71 164.225C1661.55 163.657 1662.55 163.373 1663.72 163.373C1664.9 163.373 1665.89 163.661 1666.71 164.236C1667.52 164.805 1668.1 165.581 1668.43 166.566L1668.61 166.566C1669 165.596 1669.65 164.824 1670.57 164.248C1671.49 163.665 1672.59 163.373 1673.85 163.373C1675.46 163.373 1676.77 163.88 1677.78 164.896C1678.8 165.911 1679.31 167.392 1679.31 169.339L1679.31 181.055L1675.18 181.055L1675.18 169.975C1675.18 168.892 1674.89 168.1 1674.32 167.6C1673.74 167.093 1673.04 166.839 1672.21 166.839C1671.21 166.839 1670.44 167.149 1669.88 167.771C1669.32 168.384 1669.05 169.183 1669.05 170.168L1669.05 181.055L1665.01 181.055L1665.01 169.805C1665.01 168.903 1664.74 168.183 1664.19 167.646C1663.66 167.108 1662.95 166.839 1662.08 166.839C1661.49 166.839 1660.95 166.99 1660.47 167.293C1659.98 167.589 1659.6 168.009 1659.31 168.555C1659.02 169.093 1658.88 169.721 1658.88 170.441L1658.88 181.055L1654.76 181.055Z" fill="#224757"/>
<path d="M94.9372 666.892C98.1767 673.505 106.164 676.239 112.777 673C119.39 669.76 122.124 661.773 118.885 655.16C115.645 648.547 107.658 645.813 101.045 649.052C94.4323 652.292 91.6976 660.279 94.9372 666.892ZM924.878 562.391L925.278 559.923L925.278 559.923L924.878 562.391ZM1542.52 55.4591C1541.53 54.4954 1539.95 54.5156 1538.99 55.5044L1523.28 71.6166C1522.32 72.6053 1522.34 74.1881 1523.33 75.1519C1524.32 76.1156 1525.9 76.0953 1526.86 75.1066L1540.82 60.7846L1555.15 74.7445C1556.13 75.7083 1557.72 75.688 1558.68 74.6993C1559.64 73.7106 1559.62 72.1278 1558.64 71.164L1542.52 55.4591ZM106.911 661.026C108.702 662.77 108.701 662.771 108.701 662.771C108.702 662.77 108.703 662.769 108.705 662.767C108.709 662.763 108.715 662.757 108.725 662.747C108.745 662.727 108.776 662.695 108.82 662.652C108.907 662.565 109.042 662.431 109.227 662.252C109.596 661.895 110.161 661.358 110.93 660.656C112.468 659.253 114.821 657.191 118.046 654.594C124.496 649.399 134.435 642.059 148.322 633.549C176.095 616.53 219.671 594.825 282.729 576.247C408.84 539.093 612.946 514.428 924.479 564.859L925.278 559.923C613.15 509.396 408.273 534.048 281.316 571.451C217.839 590.152 173.859 612.036 145.71 629.285C131.636 637.91 121.523 645.374 114.91 650.7C111.604 653.363 109.173 655.491 107.56 656.962C106.754 657.698 106.152 658.269 105.748 658.661C105.546 658.857 105.393 659.008 105.288 659.112C105.236 659.164 105.196 659.204 105.168 659.233C105.154 659.247 105.143 659.258 105.135 659.267C105.131 659.271 105.127 659.275 105.125 659.277C105.122 659.28 105.12 659.282 106.911 661.026ZM924.479 564.859C1080.79 590.163 1197.78 571.199 1285.32 528.3C1372.85 485.401 1430.69 418.682 1468.89 348.88C1507.08 279.1 1525.67 206.195 1534.71 150.778C1539.24 123.06 1541.38 99.6945 1542.39 83.2488C1542.89 75.0255 1543.12 68.5307 1543.21 64.0855C1543.26 61.8629 1543.28 60.1525 1543.28 58.9945C1543.28 58.4155 1543.28 57.9745 1543.28 57.6767C1543.28 57.5277 1543.28 57.4146 1543.28 57.3378C1543.28 57.2994 1543.28 57.2702 1543.28 57.25C1543.28 57.24 1543.28 57.2318 1543.28 57.2268C1543.28 57.2209 1543.28 57.2173 1540.78 57.2493C1538.28 57.2814 1538.28 57.2824 1538.28 57.2858C1538.28 57.29 1538.28 57.2956 1538.28 57.304C1538.28 57.3207 1538.28 57.3466 1538.28 57.3816C1538.28 57.4516 1538.28 57.5579 1538.28 57.6999C1538.28 57.9839 1538.28 58.4108 1538.28 58.9754C1538.28 60.1049 1538.26 61.7855 1538.21 63.9775C1538.12 68.3614 1537.9 74.7898 1537.4 82.9423C1536.4 99.2484 1534.27 122.445 1529.78 149.972C1520.79 205.044 1502.34 277.355 1464.51 346.48C1426.69 415.584 1369.53 481.46 1283.12 523.81C1196.7 566.16 1080.8 585.099 925.278 559.923L924.479 564.859Z" fill="url(#paint0_linear_1667_2442)"/>
<circle cx="268.215" cy="578.055" r="9.5" fill="#F4FCFF" stroke="#C5F2FE" stroke-width="5"/>
<circle cx="470" cy="541.055" r="9.5" fill="#F4FCFF" stroke="#C5F2FE" stroke-width="5"/>
<circle cx="712" cy="539.055" r="9.5" fill="#F4FCFF" stroke="#C5F2FE" stroke-width="5"/>
<circle cx="939.805" cy="566.055" r="9.5" fill="#F4FCFF" stroke="#C5F2FE" stroke-width="5"/>
<circle cx="1154.23" cy="568.055" r="9.5" fill="#F4FCFF" stroke="#C5F2FE" stroke-width="5"/>
<circle cx="1312.41" cy="512.379" r="9.5" fill="#F4FCFF" stroke="#53D8FB" stroke-width="5"/>
<circle cx="1420" cy="418.344" r="9.5" fill="#F4FCFF" stroke="#53D8FB" stroke-width="5"/>
<circle cx="1492.29" cy="293.469" r="9.5" fill="#F4FCFF" stroke="#53D8FB" stroke-width="5"/>
<circle cx="1529" cy="169.055" r="9.5" fill="#F4FCFF" stroke="#53D8FB" stroke-width="5"/>
<path d="M1601.7 481.541C1628.74 448.281 1682.57 358.948 1698.66 299.567C1717.82 228.89 1712.32 157.791 1671.57 101.885C1645 65.4348 1594.13 62.5598 1549.36 86.3552C1456.69 135.601 1384.14 232.668 1321.68 318.182C1285.15 368.192 1252.34 435.315 1276.86 489.073C1298.36 536.195 1350.89 579.156 1406.85 574.367C1476.62 568.397 1566.94 507.317 1589.77 445.93" stroke="#53D8FB" stroke-width="6" stroke-linecap="round"/>
</g>
<defs>
<linearGradient id="paint0_linear_1667_2442" x1="1531.5" y1="81.0002" x2="1091" y2="595.5" gradientUnits="userSpaceOnUse">
<stop stop-color="#53D8FB"/>
<stop offset="1" stop-color="#53D8FB" stop-opacity="0.34"/>
</linearGradient>
<clipPath id="clip0_1667_2442">
<rect width="1717" height="732" fill="white"/>
</clipPath>
</defs>
</svg>
