<svg width="2500" height="240" viewBox="0 0 2500 240" fill="none" xmlns="http://www.w3.org/2000/svg">
<rect width="800" height="240" rx="40" fill="#F8F1F1"/>
<path d="M73.9375 73.6797C73.1187 73.6797 72.293 74.0235 71.6797 74.6672L71.2466 75.1202L70.8136 74.6672C70.2012 74.0236 69.3761 73.6797 68.5566 73.6797C66.8472 73.6797 65.6214 75.1523 65.6214 76.7875C65.6214 77.5898 65.913 78.3914 66.4956 79.0039L70.7472 83.4633C70.8845 83.6075 71.0648 83.6796 71.245 83.6796C71.4252 83.6796 71.6055 83.6075 71.7428 83.4633L75.9944 79.0039C76.5788 78.3913 76.8709 77.5891 76.8709 76.7859C76.875 75.2187 75.6484 73.6797 73.9375 73.6797ZM81.875 56.25C81.563 56.25 81.257 56.2755 80.9586 56.3246C80.2097 54.0973 78.1016 52.4879 75.625 52.4879C75.1205 52.4879 74.6313 52.5547 74.1656 52.6799C73.1719 51.0727 71.3984 50 69.375 50C67.3516 50 65.5703 51.0773 64.5781 52.6906C64.1172 52.5664 63.6328 52.5 63.1328 52.5C60.0313 52.5 57.5008 55.0234 57.5008 58.125V67.625C57.0914 67.5469 56.6727 67.5 56.2508 67.5C56.2506 67.5 56.251 67.5 56.2508 67.5C52.8461 67.5 50 70.2461 50 73.7555C50 75.3406 50.5905 76.843 51.6758 78.0094L58.0234 84.825C61.0859 88.1172 65.4219 90 69.9141 90H72.4984C80.7734 90 87.5 83.2734 87.5 75V61.875C87.5 58.7734 84.9766 56.25 81.875 56.25ZM83.75 75C83.75 81.2039 78.7039 86.25 72.5703 86.25H69.9141C66.4445 86.25 63.1305 84.8078 60.7656 82.2688L54.5344 75.5789C54.0523 75.0547 53.8016 74.375 53.8016 73.7031C53.8016 71.9758 55.2438 71.25 56.2508 71.25C56.9196 71.25 57.5867 71.5169 58.0805 72.0453L60.168 74.2867C60.2969 74.4251 60.46 74.487 60.6203 74.487C60.9411 74.487 61.2504 74.2392 61.2504 73.8607V58.125C61.2504 57.0898 62.0902 56.25 63.0551 56.25C64.0199 56.25 64.9301 57.0898 64.9301 58.125V70C64.9301 70.6903 65.4898 71.25 66.1801 71.25C66.8704 71.25 67.5 70.6875 67.5 70L67.5001 55.625C67.5001 54.5898 68.34 53.75 69.3751 53.75C70.4103 53.75 71.2501 54.5898 71.2501 55.625V70C71.2501 70.6903 71.8097 71.25 72.4298 71.25C73.1203 71.25 73.679 70.6903 73.679 70L73.6796 58.1094C73.6796 57.0742 74.5195 56.2344 75.5546 56.2344C76.5898 56.2344 77.4296 57.0742 77.4296 58.1094V70C77.4296 70.6903 77.9893 71.25 78.6796 71.25C79.3699 71.25 79.9296 70.6903 79.9296 70V61.875C79.9296 60.8398 80.7695 60 81.8046 60C82.9141 60 83.75 60.8438 83.75 61.875V75Z" fill="#224757"/>
<path d="M74.0085 118.818V145H70.3778L57.0696 125.798H56.8267V145H52.8764V118.818H56.5327L69.8537 138.045H70.0966V118.818H74.0085ZM96.6076 118.818H100.571V136.038C100.571 137.871 100.14 139.494 99.2795 140.909C98.4187 142.315 97.2085 143.423 95.6488 144.233C94.0891 145.034 92.261 145.435 90.1644 145.435C88.0763 145.435 86.2525 145.034 84.6928 144.233C83.1332 143.423 81.9229 142.315 81.0621 140.909C80.2013 139.494 79.771 137.871 79.771 136.038V118.818H83.7212V135.719C83.7212 136.903 83.9812 137.956 84.5011 138.876C85.0295 139.797 85.7752 140.521 86.7383 141.05C87.7013 141.57 88.8434 141.83 90.1644 141.83C91.494 141.83 92.6403 141.57 93.6033 141.05C94.5749 140.521 95.3164 139.797 95.8278 138.876C96.3477 137.956 96.6076 136.903 96.6076 135.719V118.818ZM110.264 118.818V145H106.314V118.818H110.264Z" fill="#224757"/>
<path d="M67.3395 165.091V184H64.7173L55.1058 170.132H54.9304V184H52.0774V165.091H54.718L64.3388 178.977H64.5142V165.091H67.3395ZM73.0985 184H70.0701L76.8748 165.091H80.171L86.9757 184H83.9473L78.6014 168.526H78.4537L73.0985 184ZM73.6064 176.595H83.4302V178.996H73.6064V176.595ZM86.5394 167.547V165.091H101.174V167.547H95.2738V184H92.43V167.547H86.5394ZM116.567 165.091H119.43V177.528C119.43 178.851 119.119 180.024 118.497 181.045C117.875 182.061 117.001 182.861 115.875 183.446C114.748 184.025 113.428 184.314 111.914 184.314C110.406 184.314 109.089 184.025 107.962 183.446C106.836 182.861 105.962 182.061 105.34 181.045C104.718 180.024 104.407 178.851 104.407 177.528V165.091H107.26V177.297C107.26 178.152 107.448 178.913 107.824 179.577C108.205 180.242 108.744 180.765 109.439 181.147C110.135 181.522 110.96 181.71 111.914 181.71C112.874 181.71 113.702 181.522 114.398 181.147C115.099 180.765 115.635 180.242 116.004 179.577C116.38 178.913 116.567 178.152 116.567 177.297V165.091ZM123.577 184V165.091H130.317C131.782 165.091 132.998 165.343 133.964 165.848C134.937 166.353 135.663 167.051 136.143 167.944C136.624 168.83 136.864 169.855 136.864 171.018C136.864 172.176 136.621 173.194 136.134 174.075C135.654 174.949 134.928 175.629 133.955 176.115C132.989 176.601 131.773 176.844 130.308 176.844H125.202V174.388H130.05C130.973 174.388 131.724 174.256 132.303 173.991C132.887 173.727 133.315 173.342 133.586 172.837C133.857 172.333 133.992 171.726 133.992 171.018C133.992 170.304 133.854 169.686 133.577 169.163C133.306 168.639 132.878 168.239 132.293 167.962C131.715 167.679 130.955 167.538 130.013 167.538H126.43V184H123.577ZM132.912 175.469L137.584 184H134.334L129.754 175.469H132.912ZM141.933 184H138.904L145.709 165.091H149.005L155.81 184H152.781L147.435 168.526H147.288L141.933 184ZM142.44 176.595H152.264V178.996H142.44V176.595ZM158.54 184V165.091H161.393V181.544H169.961V184H158.54ZM192.257 165.091H195.119V177.528C195.119 178.851 194.808 180.024 194.186 181.045C193.565 182.061 192.691 182.861 191.564 183.446C190.438 184.025 189.118 184.314 187.603 184.314C186.095 184.314 184.778 184.025 183.652 183.446C182.525 182.861 181.651 182.061 181.029 181.045C180.408 180.024 180.097 178.851 180.097 177.528V165.091H182.95V177.297C182.95 178.152 183.138 178.913 183.513 179.577C183.895 180.242 184.433 180.765 185.129 181.147C185.824 181.522 186.649 181.71 187.603 181.71C188.564 181.71 189.391 181.522 190.087 181.147C190.789 180.765 191.324 180.242 191.694 179.577C192.069 178.913 192.257 178.152 192.257 177.297V165.091ZM209.58 170.058C209.482 169.184 209.075 168.507 208.361 168.027C207.647 167.541 206.749 167.298 205.665 167.298C204.89 167.298 204.219 167.421 203.653 167.667C203.086 167.907 202.646 168.239 202.332 168.664C202.024 169.083 201.871 169.56 201.871 170.095C201.871 170.545 201.975 170.932 202.184 171.259C202.4 171.585 202.68 171.859 203.025 172.08C203.376 172.296 203.751 172.477 204.151 172.625C204.551 172.767 204.936 172.884 205.305 172.976L207.152 173.456C207.755 173.604 208.374 173.804 209.008 174.056C209.642 174.308 210.229 174.641 210.771 175.053C211.313 175.466 211.75 175.977 212.082 176.586C212.421 177.195 212.59 177.925 212.59 178.774C212.59 179.845 212.313 180.796 211.759 181.627C211.211 182.458 210.414 183.114 209.368 183.594C208.327 184.074 207.069 184.314 205.591 184.314C204.176 184.314 202.951 184.089 201.917 183.64C200.883 183.191 200.073 182.554 199.488 181.729C198.904 180.898 198.581 179.913 198.519 178.774H201.381C201.437 179.457 201.658 180.027 202.046 180.482C202.44 180.932 202.942 181.267 203.551 181.489C204.166 181.704 204.84 181.812 205.573 181.812C206.379 181.812 207.096 181.686 207.724 181.433C208.358 181.175 208.857 180.818 209.22 180.362C209.583 179.901 209.765 179.362 209.765 178.746C209.765 178.186 209.605 177.728 209.285 177.371C208.971 177.014 208.543 176.718 208.001 176.484C207.466 176.25 206.859 176.044 206.182 175.866L203.948 175.256C202.434 174.844 201.233 174.238 200.347 173.438C199.467 172.637 199.027 171.579 199.027 170.261C199.027 169.172 199.322 168.221 199.913 167.408C200.504 166.596 201.304 165.965 202.314 165.516C203.323 165.06 204.462 164.832 205.73 164.832C207.01 164.832 208.14 165.057 209.118 165.506C210.103 165.956 210.879 166.574 211.445 167.362C212.011 168.144 212.307 169.043 212.331 170.058H209.58ZM215.999 184V165.091H227.854V167.547H218.852V173.308H227.236V175.755H218.852V181.544H227.965V184H215.999ZM231.665 184V165.091H238.405C239.87 165.091 241.086 165.343 242.052 165.848C243.025 166.353 243.751 167.051 244.231 167.944C244.711 168.83 244.952 169.855 244.952 171.018C244.952 172.176 244.708 173.194 244.222 174.075C243.742 174.949 243.016 175.629 242.043 176.115C241.077 176.601 239.861 176.844 238.396 176.844H233.29V174.388H238.138C239.061 174.388 239.812 174.256 240.39 173.991C240.975 173.727 241.403 173.342 241.674 172.837C241.945 172.333 242.08 171.726 242.08 171.018C242.08 170.304 241.942 169.686 241.665 169.163C241.394 168.639 240.966 168.239 240.381 167.962C239.803 167.679 239.042 167.538 238.101 167.538H234.518V184H231.665ZM241 175.469L245.672 184H242.422L237.842 175.469H241ZM258.157 165.091V184H255.304V165.091H258.157ZM277.574 165.091V184H274.952L265.34 170.132H265.165V184H262.312V165.091H264.952L274.573 178.977H274.749V165.091H277.574ZM280.803 167.547V165.091H295.437V167.547H289.537V184H286.694V167.547H280.803ZM298.671 184V165.091H310.526V167.547H301.524V173.308H309.908V175.755H301.524V181.544H310.637V184H298.671ZM314.337 184V165.091H321.077C322.542 165.091 323.758 165.343 324.724 165.848C325.697 166.353 326.423 167.051 326.903 167.944C327.383 168.83 327.623 169.855 327.623 171.018C327.623 172.176 327.38 173.194 326.894 174.075C326.414 174.949 325.688 175.629 324.715 176.115C323.749 176.601 322.533 176.844 321.068 176.844H315.962V174.388H320.809C321.733 174.388 322.484 174.256 323.062 173.991C323.647 173.727 324.075 173.342 324.346 172.837C324.617 172.333 324.752 171.726 324.752 171.018C324.752 170.304 324.613 169.686 324.336 169.163C324.066 168.639 323.638 168.239 323.053 167.962C322.474 167.679 321.714 167.538 320.773 167.538H317.19V184H314.337ZM323.672 175.469L328.344 184H325.094L320.514 175.469H323.672ZM331.095 184V165.091H342.821V167.547H333.948V173.308H341.981V175.755H333.948V184H331.095ZM345.565 184H342.537L349.342 165.091H352.638L359.442 184H356.414L351.068 168.526H350.92L345.565 184ZM346.073 176.595H355.897V178.996H346.073V176.595ZM376.99 171.24H374.109C373.998 170.625 373.792 170.083 373.49 169.615C373.189 169.147 372.819 168.75 372.382 168.424C371.945 168.098 371.456 167.852 370.914 167.685C370.379 167.519 369.81 167.436 369.206 167.436C368.117 167.436 367.141 167.71 366.279 168.258C365.424 168.806 364.747 169.609 364.248 170.668C363.756 171.726 363.51 173.019 363.51 174.545C363.51 176.084 363.756 177.383 364.248 178.442C364.747 179.5 365.427 180.301 366.289 180.842C367.15 181.384 368.12 181.655 369.197 181.655C369.794 181.655 370.36 181.575 370.896 181.415C371.438 181.249 371.927 181.005 372.364 180.685C372.801 180.365 373.17 179.974 373.472 179.513C373.78 179.045 373.992 178.509 374.109 177.906L376.99 177.915C376.836 178.845 376.537 179.701 376.094 180.482C375.657 181.258 375.094 181.929 374.404 182.495C373.721 183.055 372.94 183.489 372.059 183.797C371.179 184.105 370.219 184.259 369.179 184.259C367.541 184.259 366.083 183.871 364.802 183.095C363.522 182.313 362.512 181.196 361.774 179.744C361.041 178.291 360.675 176.558 360.675 174.545C360.675 172.527 361.044 170.794 361.783 169.347C362.522 167.895 363.531 166.781 364.811 166.005C366.092 165.223 367.547 164.832 369.179 164.832C370.182 164.832 371.118 164.977 371.985 165.266C372.859 165.549 373.644 165.968 374.34 166.522C375.035 167.07 375.611 167.741 376.066 168.535C376.522 169.323 376.83 170.224 376.99 171.24ZM380.404 184V165.091H392.259V167.547H383.257V173.308H391.64V175.755H383.257V181.544H392.369V184H380.404ZM406.383 170.058C406.284 169.184 405.878 168.507 405.164 168.027C404.45 167.541 403.551 167.298 402.468 167.298C401.692 167.298 401.022 167.421 400.455 167.667C399.889 167.907 399.449 168.239 399.135 168.664C398.827 169.083 398.673 169.56 398.673 170.095C398.673 170.545 398.778 170.932 398.987 171.259C399.203 171.585 399.483 171.859 399.827 172.08C400.178 172.296 400.554 172.477 400.954 172.625C401.354 172.767 401.739 172.884 402.108 172.976L403.955 173.456C404.558 173.604 405.176 173.804 405.81 174.056C406.444 174.308 407.032 174.641 407.574 175.053C408.116 175.466 408.553 175.977 408.885 176.586C409.223 177.195 409.393 177.925 409.393 178.774C409.393 179.845 409.116 180.796 408.562 181.627C408.014 182.458 407.217 183.114 406.17 183.594C405.13 184.074 403.871 184.314 402.394 184.314C400.978 184.314 399.754 184.089 398.719 183.64C397.685 183.191 396.876 182.554 396.291 181.729C395.706 180.898 395.383 179.913 395.322 178.774H398.184C398.239 179.457 398.461 180.027 398.849 180.482C399.243 180.932 399.744 181.267 400.354 181.489C400.969 181.704 401.643 181.812 402.376 181.812C403.182 181.812 403.899 181.686 404.527 181.433C405.161 181.175 405.66 180.818 406.023 180.362C406.386 179.901 406.567 179.362 406.567 178.746C406.567 178.186 406.407 177.728 406.087 177.371C405.773 177.014 405.346 176.718 404.804 176.484C404.268 176.25 403.662 176.044 402.985 175.866L400.751 175.256C399.237 174.844 398.036 174.238 397.15 173.438C396.27 172.637 395.83 171.579 395.83 170.261C395.83 169.172 396.125 168.221 396.716 167.408C397.307 166.596 398.107 165.965 399.116 165.516C400.126 165.06 401.265 164.832 402.533 164.832C403.813 164.832 404.942 165.057 405.921 165.506C406.906 165.956 407.682 166.574 408.248 167.362C408.814 168.144 409.11 169.043 409.134 170.058H406.383Z" fill="#A9B4B9"/>
<path d="M390 117.5C388.619 117.5 387.5 118.619 387.5 120C387.5 121.381 388.619 122.5 390 122.5V117.5ZM501.768 121.768C502.744 120.791 502.744 119.209 501.768 118.232L485.858 102.322C484.882 101.346 483.299 101.346 482.322 102.322C481.346 103.299 481.346 104.882 482.322 105.858L496.464 120L482.322 134.142C481.346 135.118 481.346 136.701 482.322 137.678C483.299 138.654 484.882 138.654 485.858 137.678L501.768 121.768ZM390 122.5H500V117.5H390V122.5Z" fill="#FF9900"/>
<path d="M561.352 101H552.876V74.8182H561.621C564.186 74.8182 566.389 75.3423 568.23 76.3906C570.071 77.4304 571.482 78.9261 572.462 80.8778C573.45 82.821 573.945 85.152 573.945 87.8707C573.945 90.598 573.446 92.9418 572.449 94.902C571.46 96.8622 570.028 98.3707 568.153 99.4276C566.278 100.476 564.011 101 561.352 101ZM556.827 97.5483H561.135C563.129 97.5483 564.787 97.1733 566.108 96.4233C567.429 95.6648 568.418 94.5696 569.074 93.1378C569.73 91.6974 570.058 89.9418 570.058 87.8707C570.058 85.8168 569.73 84.0739 569.074 82.642C568.426 81.2102 567.459 80.1236 566.172 79.3821C564.885 78.6406 563.287 78.2699 561.378 78.2699H556.827V97.5483ZM578.55 101V81.3636H582.373V101H578.55ZM580.48 78.3338C579.816 78.3338 579.245 78.1122 578.767 77.669C578.299 77.2173 578.064 76.6804 578.064 76.0582C578.064 75.4276 578.299 74.8906 578.767 74.4474C579.245 73.9957 579.816 73.7699 580.48 73.7699C581.145 73.7699 581.712 73.9957 582.181 74.4474C582.658 74.8906 582.897 75.4276 582.897 76.0582C582.897 76.6804 582.658 77.2173 582.181 77.669C581.712 78.1122 581.145 78.3338 580.48 78.3338ZM587.515 101V81.3636H591.21V84.483H591.414C591.772 83.4261 592.403 82.5952 593.306 81.9901C594.218 81.3764 595.249 81.0696 596.4 81.0696C596.638 81.0696 596.92 81.0781 597.244 81.0952C597.576 81.1122 597.836 81.1335 598.023 81.1591V84.8153C597.87 84.7727 597.597 84.7259 597.205 84.6747C596.813 84.6151 596.421 84.5852 596.029 84.5852C595.126 84.5852 594.32 84.777 593.613 85.1605C592.914 85.5355 592.36 86.0597 591.951 86.733C591.542 87.3977 591.337 88.1562 591.337 89.0085V101H587.515ZM609.091 101.396C607.157 101.396 605.49 100.983 604.093 100.156C602.703 99.321 601.63 98.1491 600.871 96.6406C600.121 95.1236 599.746 93.3466 599.746 91.3097C599.746 89.2983 600.121 87.5256 600.871 85.9915C601.63 84.4574 602.686 83.2599 604.042 82.3991C605.405 81.5384 606.999 81.108 608.823 81.108C609.931 81.108 611.005 81.2912 612.044 81.6577C613.084 82.0241 614.017 82.5994 614.844 83.3835C615.671 84.1676 616.323 85.1861 616.8 86.4389C617.277 87.6832 617.516 89.196 617.516 90.9773V92.3324H601.907V89.4688H613.77C613.77 88.4631 613.566 87.5724 613.157 86.7969C612.748 86.0128 612.172 85.3949 611.431 84.9432C610.698 84.4915 609.837 84.2656 608.848 84.2656C607.775 84.2656 606.837 84.5298 606.036 85.0582C605.243 85.5781 604.63 86.2599 604.195 87.1037C603.769 87.9389 603.556 88.8466 603.556 89.8267V92.0639C603.556 93.3764 603.786 94.4929 604.246 95.4134C604.715 96.3338 605.367 97.0369 606.202 97.5227C607.037 98 608.013 98.2386 609.13 98.2386C609.854 98.2386 610.515 98.1364 611.111 97.9318C611.708 97.7187 612.223 97.4034 612.658 96.9858C613.093 96.5682 613.425 96.0526 613.655 95.4389L617.273 96.0909C616.983 97.1562 616.463 98.0895 615.713 98.8906C614.972 99.6832 614.039 100.301 612.914 100.744C611.797 101.179 610.523 101.396 609.091 101.396ZM630.028 101.396C628.128 101.396 626.491 100.966 625.119 100.105C623.756 99.2358 622.707 98.0384 621.974 96.5128C621.241 94.9872 620.875 93.2401 620.875 91.2713C620.875 89.277 621.25 87.517 622 85.9915C622.75 84.4574 623.807 83.2599 625.17 82.3991C626.534 81.5384 628.141 81.108 629.99 81.108C631.482 81.108 632.811 81.3849 633.979 81.9389C635.146 82.4844 636.088 83.2514 636.804 84.2401C637.528 85.2287 637.959 86.3835 638.095 87.7045H634.375C634.17 86.7841 633.702 85.9915 632.969 85.3267C632.244 84.6619 631.273 84.3295 630.054 84.3295C628.989 84.3295 628.055 84.6108 627.254 85.1733C626.462 85.7273 625.844 86.5199 625.401 87.5511C624.957 88.5739 624.736 89.7841 624.736 91.1818C624.736 92.6136 624.953 93.8494 625.388 94.8892C625.822 95.929 626.436 96.7344 627.229 97.3054C628.03 97.8764 628.972 98.1619 630.054 98.1619C630.778 98.1619 631.435 98.0298 632.023 97.7656C632.619 97.4929 633.118 97.1051 633.518 96.6023C633.928 96.0994 634.213 95.4943 634.375 94.7869H638.095C637.959 96.0568 637.545 97.1903 636.855 98.1875C636.165 99.1847 635.24 99.9687 634.081 100.54C632.93 101.111 631.58 101.396 630.028 101.396ZM651.349 81.3636V84.4318H640.623V81.3636H651.349ZM643.5 76.6591H647.322V95.2344C647.322 95.9759 647.433 96.5341 647.654 96.9091C647.876 97.2756 648.162 97.527 648.511 97.6634C648.869 97.7912 649.257 97.8551 649.674 97.8551C649.981 97.8551 650.25 97.8338 650.48 97.7912C650.71 97.7486 650.889 97.7145 651.017 97.6889L651.707 100.847C651.485 100.932 651.17 101.017 650.761 101.102C650.352 101.196 649.841 101.247 649.227 101.256C648.221 101.273 647.284 101.094 646.414 100.719C645.545 100.344 644.842 99.7642 644.305 98.9801C643.768 98.196 643.5 97.2116 643.5 96.027V76.6591Z" fill="#224757"/>
<path d="M556.827 138.818V165H552.876V138.818H556.827ZM566.095 153.341V165H562.273V145.364H565.942V148.56H566.185C566.636 147.52 567.344 146.685 568.307 146.054C569.278 145.423 570.501 145.108 571.976 145.108C573.314 145.108 574.486 145.389 575.491 145.952C576.497 146.506 577.277 147.332 577.831 148.432C578.385 149.531 578.662 150.891 578.662 152.51V165H574.839V152.97C574.839 151.547 574.469 150.435 573.727 149.634C572.986 148.824 571.967 148.419 570.672 148.419C569.786 148.419 568.997 148.611 568.307 148.994C567.625 149.378 567.084 149.94 566.683 150.682C566.291 151.415 566.095 152.301 566.095 153.341ZM592.955 145.364V148.432H582.229V145.364H592.955ZM585.105 140.659H588.928V159.234C588.928 159.976 589.038 160.534 589.26 160.909C589.482 161.276 589.767 161.527 590.116 161.663C590.474 161.791 590.862 161.855 591.28 161.855C591.587 161.855 591.855 161.834 592.085 161.791C592.315 161.749 592.494 161.714 592.622 161.689L593.312 164.847C593.091 164.932 592.776 165.017 592.366 165.102C591.957 165.196 591.446 165.247 590.832 165.256C589.827 165.273 588.889 165.094 588.02 164.719C587.151 164.344 586.447 163.764 585.911 162.98C585.374 162.196 585.105 161.212 585.105 160.027V140.659ZM609.622 156.857V145.364H613.457V165H609.699V161.599H609.494C609.042 162.648 608.318 163.521 607.321 164.22C606.332 164.911 605.1 165.256 603.626 165.256C602.365 165.256 601.248 164.979 600.277 164.425C599.314 163.862 598.555 163.031 598.001 161.932C597.456 160.832 597.183 159.473 597.183 157.854V145.364H601.005V157.393C601.005 158.732 601.376 159.797 602.118 160.589C602.859 161.382 603.822 161.778 605.007 161.778C605.723 161.778 606.434 161.599 607.142 161.241C607.858 160.884 608.45 160.342 608.919 159.618C609.396 158.893 609.63 157.973 609.622 156.857ZM618.593 165V145.364H622.415V165H618.593ZM620.523 142.334C619.859 142.334 619.288 142.112 618.81 141.669C618.342 141.217 618.107 140.68 618.107 140.058C618.107 139.428 618.342 138.891 618.81 138.447C619.288 137.996 619.859 137.77 620.523 137.77C621.188 137.77 621.755 137.996 622.224 138.447C622.701 138.891 622.94 139.428 622.94 140.058C622.94 140.68 622.701 141.217 622.224 141.669C621.755 142.112 621.188 142.334 620.523 142.334ZM636.724 145.364V148.432H625.998V145.364H636.724ZM628.875 140.659H632.697V159.234C632.697 159.976 632.808 160.534 633.029 160.909C633.251 161.276 633.537 161.527 633.886 161.663C634.244 161.791 634.632 161.855 635.049 161.855C635.356 161.855 635.625 161.834 635.855 161.791C636.085 161.749 636.264 161.714 636.392 161.689L637.082 164.847C636.86 164.932 636.545 165.017 636.136 165.102C635.727 165.196 635.216 165.247 634.602 165.256C633.596 165.273 632.659 165.094 631.789 164.719C630.92 164.344 630.217 163.764 629.68 162.98C629.143 162.196 628.875 161.212 628.875 160.027V140.659ZM640.952 165V145.364H644.775V165H640.952ZM642.883 142.334C642.218 142.334 641.647 142.112 641.17 141.669C640.701 141.217 640.467 140.68 640.467 140.058C640.467 139.428 640.701 138.891 641.17 138.447C641.647 137.996 642.218 137.77 642.883 137.77C643.548 137.77 644.114 137.996 644.583 138.447C645.06 138.891 645.299 139.428 645.299 140.058C645.299 140.68 645.06 141.217 644.583 141.669C644.114 142.112 643.548 142.334 642.883 142.334ZM666.716 145.364L659.595 165H655.504L648.37 145.364H652.474L657.447 160.474H657.652L662.612 145.364H666.716ZM678.103 165.396C676.168 165.396 674.502 164.983 673.104 164.156C671.715 163.321 670.641 162.149 669.883 160.641C669.133 159.124 668.758 157.347 668.758 155.31C668.758 153.298 669.133 151.526 669.883 149.991C670.641 148.457 671.698 147.26 673.053 146.399C674.417 145.538 676.011 145.108 677.835 145.108C678.942 145.108 680.016 145.291 681.056 145.658C682.096 146.024 683.029 146.599 683.856 147.384C684.683 148.168 685.335 149.186 685.812 150.439C686.289 151.683 686.528 153.196 686.528 154.977V156.332H670.918V153.469H682.782C682.782 152.463 682.577 151.572 682.168 150.797C681.759 150.013 681.184 149.395 680.442 148.943C679.71 148.491 678.849 148.266 677.86 148.266C676.786 148.266 675.849 148.53 675.048 149.058C674.255 149.578 673.641 150.26 673.207 151.104C672.781 151.939 672.567 152.847 672.567 153.827V156.064C672.567 157.376 672.798 158.493 673.258 159.413C673.727 160.334 674.379 161.037 675.214 161.523C676.049 162 677.025 162.239 678.141 162.239C678.866 162.239 679.526 162.136 680.123 161.932C680.719 161.719 681.235 161.403 681.67 160.986C682.104 160.568 682.437 160.053 682.667 159.439L686.285 160.091C685.995 161.156 685.475 162.089 684.725 162.891C683.984 163.683 683.05 164.301 681.925 164.744C680.809 165.179 679.535 165.396 678.103 165.396Z" fill="#224757"/>
<g opacity="0.7">
<rect x="850" width="800" height="240" rx="40" fill="#F8F1F1"/>
<g clip-path="url(#clip0_413_10214)">
<path d="M940 50C942.758 50 945 52.2383 945 55V77.5C945 80.2578 942.758 82.5 940 82.5H912.5C909.742 82.5 907.5 80.2578 907.5 77.5V55C907.5 52.2383 909.742 50 912.5 50H940ZM912.5 78.75H940C940.688 78.75 941.25 78.1875 941.25 77.5V60H911.25V77.5C911.25 78.1875 911.812 78.75 912.5 78.75ZM903.75 79.375C903.75 83.1719 906.828 86.25 910.625 86.25H935.625C936.664 86.25 937.5 87.0859 937.5 88.125C937.5 89.1641 936.664 90 935.625 90H910.625C904.757 90 900 85.2422 900 79.375V59.375C900 58.3359 900.84 57.5 901.875 57.5C902.91 57.5 903.75 58.3359 903.75 59.375V79.375Z" fill="#5E6C72"/>
</g>
<path d="M920.595 127.089C920.348 126.314 920.016 125.619 919.598 125.006C919.189 124.384 918.699 123.855 918.128 123.42C917.557 122.977 916.905 122.641 916.172 122.411C915.447 122.18 914.651 122.065 913.781 122.065C912.307 122.065 910.977 122.445 909.793 123.203C908.608 123.962 907.67 125.074 906.98 126.54C906.298 127.997 905.957 129.783 905.957 131.896C905.957 134.018 906.303 135.812 906.993 137.278C907.683 138.744 908.629 139.857 909.831 140.615C911.033 141.374 912.401 141.753 913.935 141.753C915.358 141.753 916.598 141.463 917.655 140.884C918.72 140.304 919.543 139.486 920.122 138.429C920.71 137.364 921.004 136.111 921.004 134.67L922.027 134.862H914.536V131.602H924.827V134.581C924.827 136.78 924.358 138.689 923.42 140.308C922.491 141.919 921.205 143.163 919.56 144.041C917.923 144.919 916.048 145.358 913.935 145.358C911.565 145.358 909.486 144.812 907.696 143.722C905.915 142.631 904.526 141.084 903.528 139.081C902.531 137.07 902.033 134.683 902.033 131.922C902.033 129.834 902.322 127.959 902.902 126.297C903.482 124.635 904.295 123.224 905.344 122.065C906.401 120.898 907.641 120.007 909.064 119.393C910.496 118.771 912.06 118.46 913.756 118.46C915.17 118.46 916.487 118.669 917.706 119.087C918.933 119.504 920.024 120.097 920.979 120.864C921.942 121.631 922.739 122.543 923.369 123.599C924 124.648 924.426 125.811 924.648 127.089H920.595ZM946.678 118.818H950.641V136.038C950.641 137.871 950.211 139.494 949.35 140.909C948.489 142.315 947.279 143.423 945.719 144.233C944.159 145.034 942.331 145.435 940.235 145.435C938.147 145.435 936.323 145.034 934.763 144.233C933.203 143.423 931.993 142.315 931.132 140.909C930.272 139.494 929.841 137.871 929.841 136.038V118.818H933.792V135.719C933.792 136.903 934.051 137.956 934.571 138.876C935.1 139.797 935.846 140.521 936.809 141.05C937.772 141.57 938.914 141.83 940.235 141.83C941.564 141.83 942.711 141.57 943.674 141.05C944.645 140.521 945.387 139.797 945.898 138.876C946.418 137.956 946.678 136.903 946.678 135.719V118.818ZM960.335 118.818V145H956.384V118.818H960.335Z" fill="#5E6C72"/>
<path d="M914.874 171.065C914.696 170.504 914.456 170.003 914.154 169.56C913.859 169.11 913.505 168.729 913.092 168.415C912.68 168.095 912.209 167.852 911.68 167.685C911.156 167.519 910.581 167.436 909.953 167.436C908.888 167.436 907.928 167.71 907.072 168.258C906.217 168.806 905.54 169.609 905.041 170.668C904.549 171.72 904.303 173.01 904.303 174.536C904.303 176.069 904.552 177.365 905.05 178.423C905.549 179.482 906.232 180.285 907.1 180.833C907.968 181.381 908.956 181.655 910.064 181.655C911.092 181.655 911.987 181.446 912.751 181.027C913.52 180.608 914.114 180.018 914.533 179.254C914.957 178.485 915.17 177.58 915.17 176.54L915.908 176.678H910.498V174.324H917.93V176.475C917.93 178.063 917.592 179.442 916.915 180.612C916.244 181.775 915.314 182.674 914.126 183.308C912.945 183.942 911.59 184.259 910.064 184.259C908.353 184.259 906.851 183.865 905.558 183.077C904.272 182.289 903.268 181.172 902.548 179.725C901.828 178.272 901.468 176.549 901.468 174.555C901.468 173.047 901.677 171.692 902.096 170.492C902.514 169.292 903.102 168.273 903.859 167.436C904.623 166.593 905.518 165.95 906.546 165.506C907.58 165.057 908.71 164.832 909.935 164.832C910.956 164.832 911.907 164.983 912.788 165.285C913.674 165.586 914.462 166.014 915.151 166.568C915.847 167.122 916.422 167.781 916.878 168.544C917.333 169.301 917.641 170.141 917.801 171.065H914.874ZM921.552 184V165.091H928.292C929.757 165.091 930.973 165.343 931.939 165.848C932.912 166.353 933.638 167.051 934.118 167.944C934.598 168.83 934.838 169.855 934.838 171.018C934.838 172.176 934.595 173.194 934.109 174.075C933.629 174.949 932.902 175.629 931.93 176.115C930.963 176.601 929.748 176.844 928.283 176.844H923.177V174.388H928.024C928.948 174.388 929.699 174.256 930.277 173.991C930.862 173.727 931.29 173.342 931.561 172.837C931.831 172.333 931.967 171.726 931.967 171.018C931.967 170.304 931.828 169.686 931.551 169.163C931.28 168.639 930.853 168.239 930.268 167.962C929.689 167.679 928.929 167.538 927.987 167.538H924.405V184H921.552ZM930.887 175.469L935.558 184H932.308L927.729 175.469H930.887ZM939.907 184H936.879L943.683 165.091H946.98L953.784 184H950.756L945.41 168.526H945.262L939.907 184ZM940.415 176.595H950.239V178.996H940.415V176.595ZM956.515 184V165.091H963.255C964.726 165.091 965.945 165.359 966.911 165.894C967.878 166.43 968.601 167.162 969.081 168.092C969.561 169.015 969.801 170.055 969.801 171.212C969.801 172.376 969.558 173.422 969.072 174.352C968.592 175.275 967.865 176.007 966.893 176.549C965.926 177.085 964.711 177.352 963.246 177.352H958.611V174.933H962.987C963.917 174.933 964.671 174.773 965.249 174.453C965.828 174.127 966.253 173.684 966.523 173.124C966.794 172.563 966.93 171.926 966.93 171.212C966.93 170.498 966.794 169.864 966.523 169.31C966.253 168.756 965.825 168.322 965.24 168.009C964.661 167.695 963.898 167.538 962.95 167.538H959.368V184H956.515ZM973.146 184V165.091H975.999V173.308H985.426V165.091H988.288V184H985.426V175.755H975.999V184H973.146ZM995.296 165.091V184H992.443V165.091H995.296ZM1015.16 171.24H1012.28C1012.16 170.625 1011.96 170.083 1011.66 169.615C1011.35 169.147 1010.99 168.75 1010.55 168.424C1010.11 168.098 1009.62 167.852 1009.08 167.685C1008.54 167.519 1007.98 167.436 1007.37 167.436C1006.28 167.436 1005.31 167.71 1004.45 168.258C1003.59 168.806 1002.91 169.609 1002.41 170.668C1001.92 171.726 1001.68 173.019 1001.68 174.545C1001.68 176.084 1001.92 177.383 1002.41 178.442C1002.91 179.5 1003.59 180.301 1004.45 180.842C1005.32 181.384 1006.29 181.655 1007.36 181.655C1007.96 181.655 1008.53 181.575 1009.06 181.415C1009.6 181.249 1010.09 181.005 1010.53 180.685C1010.97 180.365 1011.34 179.974 1011.64 179.513C1011.95 179.045 1012.16 178.509 1012.28 177.906L1015.16 177.915C1015 178.845 1014.7 179.701 1014.26 180.482C1013.82 181.258 1013.26 181.929 1012.57 182.495C1011.89 183.055 1011.11 183.489 1010.23 183.797C1009.35 184.105 1008.38 184.259 1007.34 184.259C1005.71 184.259 1004.25 183.871 1002.97 183.095C1001.69 182.313 1000.68 181.196 999.94 179.744C999.207 178.291 998.841 176.558 998.841 174.545C998.841 172.527 999.21 170.794 999.949 169.347C1000.69 167.895 1001.7 166.781 1002.98 166.005C1004.26 165.223 1005.71 164.832 1007.34 164.832C1008.35 164.832 1009.28 164.977 1010.15 165.266C1011.03 165.549 1011.81 165.968 1012.51 166.522C1013.2 167.07 1013.78 167.741 1014.23 168.535C1014.69 169.323 1015 170.224 1015.16 171.24ZM1020.04 184H1017.01L1023.82 165.091H1027.11L1033.92 184H1030.89L1025.54 168.526H1025.4L1020.04 184ZM1020.55 176.595H1030.37V178.996H1020.55V176.595ZM1036.65 184V165.091H1039.5V181.544H1048.07V184H1036.65ZM1070.36 165.091H1073.23V177.528C1073.23 178.851 1072.92 180.024 1072.29 181.045C1071.67 182.061 1070.8 182.861 1069.67 183.446C1068.55 184.025 1067.22 184.314 1065.71 184.314C1064.2 184.314 1062.89 184.025 1061.76 183.446C1060.63 182.861 1059.76 182.061 1059.14 181.045C1058.52 180.024 1058.2 178.851 1058.2 177.528V165.091H1061.06V177.297C1061.06 178.152 1061.25 178.913 1061.62 179.577C1062 180.242 1062.54 180.765 1063.24 181.147C1063.93 181.522 1064.76 181.71 1065.71 181.71C1066.67 181.71 1067.5 181.522 1068.19 181.147C1068.9 180.765 1069.43 180.242 1069.8 179.577C1070.18 178.913 1070.36 178.152 1070.36 177.297V165.091ZM1087.69 170.058C1087.59 169.184 1087.18 168.507 1086.47 168.027C1085.75 167.541 1084.86 167.298 1083.77 167.298C1083 167.298 1082.33 167.421 1081.76 167.667C1081.19 167.907 1080.75 168.239 1080.44 168.664C1080.13 169.083 1079.98 169.56 1079.98 170.095C1079.98 170.545 1080.08 170.932 1080.29 171.259C1080.51 171.585 1080.79 171.859 1081.13 172.08C1081.48 172.296 1081.86 172.477 1082.26 172.625C1082.66 172.767 1083.04 172.884 1083.41 172.976L1085.26 173.456C1085.86 173.604 1086.48 173.804 1087.12 174.056C1087.75 174.308 1088.34 174.641 1088.88 175.053C1089.42 175.466 1089.86 175.977 1090.19 176.586C1090.53 177.195 1090.7 177.925 1090.7 178.774C1090.7 179.845 1090.42 180.796 1089.87 181.627C1089.32 182.458 1088.52 183.114 1087.48 183.594C1086.43 184.074 1085.18 184.314 1083.7 184.314C1082.28 184.314 1081.06 184.089 1080.02 183.64C1078.99 183.191 1078.18 182.554 1077.6 181.729C1077.01 180.898 1076.69 179.913 1076.63 178.774H1079.49C1079.54 179.457 1079.77 180.027 1080.15 180.482C1080.55 180.932 1081.05 181.267 1081.66 181.489C1082.27 181.704 1082.95 181.812 1083.68 181.812C1084.49 181.812 1085.2 181.686 1085.83 181.433C1086.47 181.175 1086.96 180.818 1087.33 180.362C1087.69 179.901 1087.87 179.362 1087.87 178.746C1087.87 178.186 1087.71 177.728 1087.39 177.371C1087.08 177.014 1086.65 176.718 1086.11 176.484C1085.57 176.25 1084.97 176.044 1084.29 175.866L1082.06 175.256C1080.54 174.844 1079.34 174.238 1078.45 173.438C1077.57 172.637 1077.13 171.579 1077.13 170.261C1077.13 169.172 1077.43 168.221 1078.02 167.408C1078.61 166.596 1079.41 165.965 1080.42 165.516C1081.43 165.06 1082.57 164.832 1083.84 164.832C1085.12 164.832 1086.25 165.057 1087.23 165.506C1088.21 165.956 1088.99 166.574 1089.55 167.362C1090.12 168.144 1090.41 169.043 1090.44 170.058H1087.69ZM1094.11 184V165.091H1105.96V167.547H1096.96V173.308H1105.34V175.755H1096.96V181.544H1106.07V184H1094.11ZM1109.77 184V165.091H1116.51C1117.98 165.091 1119.19 165.343 1120.16 165.848C1121.13 166.353 1121.86 167.051 1122.34 167.944C1122.82 168.83 1123.06 169.855 1123.06 171.018C1123.06 172.176 1122.82 173.194 1122.33 174.075C1121.85 174.949 1121.12 175.629 1120.15 176.115C1119.18 176.601 1117.97 176.844 1116.5 176.844H1111.4V174.388H1116.25C1117.17 174.388 1117.92 174.256 1118.5 173.991C1119.08 173.727 1119.51 173.342 1119.78 172.837C1120.05 172.333 1120.19 171.726 1120.19 171.018C1120.19 170.304 1120.05 169.686 1119.77 169.163C1119.5 168.639 1119.07 168.239 1118.49 167.962C1117.91 167.679 1117.15 167.538 1116.21 167.538H1112.63V184H1109.77ZM1119.11 175.469L1123.78 184H1120.53L1115.95 175.469H1119.11ZM1136.26 165.091V184H1133.41V165.091H1136.26ZM1155.68 165.091V184H1153.06L1143.45 170.132H1143.27V184H1140.42V165.091H1143.06L1152.68 178.977H1152.86V165.091H1155.68ZM1158.91 167.547V165.091H1173.54V167.547H1167.64V184H1164.8V167.547H1158.91ZM1176.78 184V165.091H1188.63V167.547H1179.63V173.308H1188.02V175.755H1179.63V181.544H1188.74V184H1176.78ZM1192.44 184V165.091H1199.18C1200.65 165.091 1201.87 165.343 1202.83 165.848C1203.8 166.353 1204.53 167.051 1205.01 167.944C1205.49 168.83 1205.73 169.855 1205.73 171.018C1205.73 172.176 1205.49 173.194 1205 174.075C1204.52 174.949 1203.79 175.629 1202.82 176.115C1201.86 176.601 1200.64 176.844 1199.18 176.844H1194.07V174.388H1198.92C1199.84 174.388 1200.59 174.256 1201.17 173.991C1201.75 173.727 1202.18 173.342 1202.45 172.837C1202.72 172.333 1202.86 171.726 1202.86 171.018C1202.86 170.304 1202.72 169.686 1202.44 169.163C1202.17 168.639 1201.75 168.239 1201.16 167.962C1200.58 167.679 1199.82 167.538 1198.88 167.538H1195.3V184H1192.44ZM1201.78 175.469L1206.45 184H1203.2L1198.62 175.469H1201.78ZM1209.2 184V165.091H1220.93V167.547H1212.06V173.308H1220.09V175.755H1212.06V184H1209.2ZM1223.67 184H1220.64L1227.45 165.091H1230.75L1237.55 184H1234.52L1229.18 168.526H1229.03L1223.67 184ZM1224.18 176.595H1234V178.996H1224.18V176.595ZM1255.1 171.24H1252.22C1252.11 170.625 1251.9 170.083 1251.6 169.615C1251.3 169.147 1250.93 168.75 1250.49 168.424C1250.05 168.098 1249.56 167.852 1249.02 167.685C1248.49 167.519 1247.92 167.436 1247.31 167.436C1246.22 167.436 1245.25 167.71 1244.39 168.258C1243.53 168.806 1242.85 169.609 1242.36 170.668C1241.86 171.726 1241.62 173.019 1241.62 174.545C1241.62 176.084 1241.86 177.383 1242.36 178.442C1242.85 179.5 1243.53 180.301 1244.4 180.842C1245.26 181.384 1246.23 181.655 1247.3 181.655C1247.9 181.655 1248.47 181.575 1249 181.415C1249.55 181.249 1250.03 181.005 1250.47 180.685C1250.91 180.365 1251.28 179.974 1251.58 179.513C1251.89 179.045 1252.1 178.509 1252.22 177.906L1255.1 177.915C1254.94 178.845 1254.64 179.701 1254.2 180.482C1253.76 181.258 1253.2 181.929 1252.51 182.495C1251.83 183.055 1251.05 183.489 1250.17 183.797C1249.29 184.105 1248.33 184.259 1247.29 184.259C1245.65 184.259 1244.19 183.871 1242.91 183.095C1241.63 182.313 1240.62 181.196 1239.88 179.744C1239.15 178.291 1238.78 176.558 1238.78 174.545C1238.78 172.527 1239.15 170.794 1239.89 169.347C1240.63 167.895 1241.64 166.781 1242.92 166.005C1244.2 165.223 1245.65 164.832 1247.29 164.832C1248.29 164.832 1249.22 164.977 1250.09 165.266C1250.97 165.549 1251.75 165.968 1252.45 166.522C1253.14 167.07 1253.72 167.741 1254.17 168.535C1254.63 169.323 1254.94 170.224 1255.1 171.24ZM1258.51 184V165.091H1270.37V167.547H1261.36V173.308H1269.75V175.755H1261.36V181.544H1270.48V184H1258.51ZM1284.49 170.058C1284.39 169.184 1283.99 168.507 1283.27 168.027C1282.56 167.541 1281.66 167.298 1280.58 167.298C1279.8 167.298 1279.13 167.421 1278.56 167.667C1278 167.907 1277.56 168.239 1277.24 168.664C1276.93 169.083 1276.78 169.56 1276.78 170.095C1276.78 170.545 1276.89 170.932 1277.09 171.259C1277.31 171.585 1277.59 171.859 1277.93 172.08C1278.29 172.296 1278.66 172.477 1279.06 172.625C1279.46 172.767 1279.85 172.884 1280.22 172.976L1282.06 173.456C1282.67 173.604 1283.28 173.804 1283.92 174.056C1284.55 174.308 1285.14 174.641 1285.68 175.053C1286.22 175.466 1286.66 175.977 1286.99 176.586C1287.33 177.195 1287.5 177.925 1287.5 178.774C1287.5 179.845 1287.22 180.796 1286.67 181.627C1286.12 182.458 1285.32 183.114 1284.28 183.594C1283.24 184.074 1281.98 184.314 1280.5 184.314C1279.09 184.314 1277.86 184.089 1276.83 183.64C1275.79 183.191 1274.98 182.554 1274.4 181.729C1273.81 180.898 1273.49 179.913 1273.43 178.774H1276.29C1276.35 179.457 1276.57 180.027 1276.96 180.482C1277.35 180.932 1277.85 181.267 1278.46 181.489C1279.08 181.704 1279.75 181.812 1280.48 181.812C1281.29 181.812 1282.01 181.686 1282.63 181.433C1283.27 181.175 1283.77 180.818 1284.13 180.362C1284.49 179.901 1284.67 179.362 1284.67 178.746C1284.67 178.186 1284.51 177.728 1284.19 177.371C1283.88 177.014 1283.45 176.718 1282.91 176.484C1282.38 176.25 1281.77 176.044 1281.09 175.866L1278.86 175.256C1277.34 174.844 1276.14 174.238 1275.26 173.438C1274.38 172.637 1273.94 171.579 1273.94 170.261C1273.94 169.172 1274.23 168.221 1274.82 167.408C1275.41 166.596 1276.21 165.965 1277.22 165.516C1278.23 165.06 1279.37 164.832 1280.64 164.832C1281.92 164.832 1283.05 165.057 1284.03 165.506C1285.01 165.956 1285.79 166.574 1286.36 167.362C1286.92 168.144 1287.22 169.043 1287.24 170.058H1284.49Z" fill="#B9B9B9"/>
<path d="M1240 117.5C1238.62 117.5 1237.5 118.619 1237.5 120C1237.5 121.381 1238.62 122.5 1240 122.5V117.5ZM1351.77 121.768C1352.74 120.791 1352.74 119.209 1351.77 118.232L1335.86 102.322C1334.88 101.346 1333.3 101.346 1332.32 102.322C1331.35 103.299 1331.35 104.882 1332.32 105.858L1346.46 120L1332.32 134.142C1331.35 135.118 1331.35 136.701 1332.32 137.678C1333.3 138.654 1334.88 138.654 1335.86 137.678L1351.77 121.768ZM1240 122.5H1350V117.5H1240V122.5Z" fill="#B9B9B9"/>
<path d="M1402.88 74.8182H1407.67L1416.01 95.1705H1416.31L1424.65 74.8182H1429.44V101H1425.68V82.054H1425.44L1417.72 100.962H1414.6L1406.88 82.0412H1406.63V101H1402.88V74.8182ZM1443.34 101.396C1441.41 101.396 1439.74 100.983 1438.34 100.156C1436.95 99.321 1435.88 98.1491 1435.12 96.6406C1434.37 95.1236 1434 93.3466 1434 91.3097C1434 89.2983 1434.37 87.5256 1435.12 85.9915C1435.88 84.4574 1436.94 83.2599 1438.29 82.3991C1439.66 81.5384 1441.25 81.108 1443.07 81.108C1444.18 81.108 1445.25 81.2912 1446.29 81.6577C1447.33 82.0241 1448.27 82.5994 1449.09 83.3835C1449.92 84.1676 1450.57 85.1861 1451.05 86.4389C1451.53 87.6832 1451.77 89.196 1451.77 90.9773V92.3324H1436.16V89.4688H1448.02C1448.02 88.4631 1447.82 87.5724 1447.41 86.7969C1447 86.0128 1446.42 85.3949 1445.68 84.9432C1444.95 84.4915 1444.09 84.2656 1443.1 84.2656C1442.02 84.2656 1441.09 84.5298 1440.29 85.0582C1439.49 85.5781 1438.88 86.2599 1438.44 87.1037C1438.02 87.9389 1437.81 88.8466 1437.81 89.8267V92.0639C1437.81 93.3764 1438.04 94.4929 1438.5 95.4134C1438.96 96.3338 1439.62 97.0369 1440.45 97.5227C1441.29 98 1442.26 98.2386 1443.38 98.2386C1444.1 98.2386 1444.76 98.1364 1445.36 97.9318C1445.96 97.7187 1446.47 97.4034 1446.91 96.9858C1447.34 96.5682 1447.68 96.0526 1447.91 95.4389L1451.52 96.0909C1451.23 97.1562 1450.71 98.0895 1449.96 98.8906C1449.22 99.6832 1448.29 100.301 1447.16 100.744C1446.05 101.179 1444.77 101.396 1443.34 101.396ZM1465.17 81.3636V84.4318H1454.45V81.3636H1465.17ZM1457.32 76.6591H1461.15V95.2344C1461.15 95.9759 1461.26 96.5341 1461.48 96.9091C1461.7 97.2756 1461.99 97.527 1462.34 97.6634C1462.69 97.7912 1463.08 97.8551 1463.5 97.8551C1463.81 97.8551 1464.07 97.8338 1464.3 97.7912C1464.53 97.7486 1464.71 97.7145 1464.84 97.6889L1465.53 100.847C1465.31 100.932 1464.99 101.017 1464.59 101.102C1464.18 101.196 1463.66 101.247 1463.05 101.256C1462.05 101.273 1461.11 101.094 1460.24 100.719C1459.37 100.344 1458.67 99.7642 1458.13 98.9801C1457.59 98.196 1457.32 97.2116 1457.32 96.027V76.6591ZM1475.12 101.435C1473.87 101.435 1472.75 101.205 1471.74 100.744C1470.74 100.276 1469.94 99.598 1469.35 98.7116C1468.77 97.8253 1468.48 96.7386 1468.48 95.4517C1468.48 94.3437 1468.69 93.4318 1469.12 92.7159C1469.55 92 1470.12 91.4332 1470.85 91.0156C1471.57 90.598 1472.38 90.2827 1473.28 90.0696C1474.17 89.8565 1475.08 89.6946 1476.01 89.5838C1477.19 89.4474 1478.14 89.3366 1478.87 89.2514C1479.61 89.1577 1480.14 89.0085 1480.47 88.804C1480.81 88.5994 1480.97 88.267 1480.97 87.8068V87.7173C1480.97 86.6009 1480.66 85.7358 1480.03 85.1222C1479.4 84.5085 1478.47 84.2017 1477.24 84.2017C1475.95 84.2017 1474.94 84.4872 1474.2 85.0582C1473.46 85.6207 1472.96 86.2472 1472.67 86.9375L1469.08 86.1193C1469.51 84.9261 1470.13 83.9631 1470.95 83.2301C1471.78 82.4886 1472.73 81.9517 1473.8 81.6193C1474.87 81.2784 1476 81.108 1477.19 81.108C1477.97 81.108 1478.8 81.2017 1479.68 81.3892C1480.57 81.5682 1481.39 81.9006 1482.16 82.3864C1482.94 82.8722 1483.57 83.5668 1484.06 84.4702C1484.56 85.3651 1484.81 86.5284 1484.81 87.9602V101H1481.07V98.3153H1480.92C1480.67 98.8097 1480.3 99.2955 1479.81 99.7727C1479.31 100.25 1478.68 100.646 1477.9 100.962C1477.13 101.277 1476.2 101.435 1475.12 101.435ZM1475.95 98.3665C1477 98.3665 1477.91 98.1577 1478.66 97.7401C1479.42 97.3224 1479.99 96.777 1480.38 96.1037C1480.78 95.4219 1480.98 94.6932 1480.98 93.9176V91.3864C1480.85 91.5227 1480.58 91.6506 1480.19 91.7699C1479.81 91.8807 1479.37 91.9787 1478.87 92.0639C1478.38 92.1406 1477.9 92.2131 1477.43 92.2812C1476.96 92.3409 1476.57 92.392 1476.25 92.4347C1475.51 92.5284 1474.83 92.6861 1474.22 92.9077C1473.62 93.1293 1473.13 93.4489 1472.76 93.8665C1472.41 94.2756 1472.23 94.821 1472.23 95.5028C1472.23 96.4489 1472.58 97.1648 1473.28 97.6506C1473.97 98.1278 1474.86 98.3665 1475.95 98.3665ZM1489.9 108.364V81.3636H1493.63V84.5469H1493.95C1494.17 84.1378 1494.49 83.6648 1494.91 83.1278C1495.33 82.5909 1495.91 82.1222 1496.65 81.7216C1497.39 81.3125 1498.37 81.108 1499.59 81.108C1501.17 81.108 1502.59 81.5085 1503.83 82.3097C1505.08 83.1108 1506.05 84.2656 1506.76 85.7741C1507.48 87.2827 1507.83 89.098 1507.83 91.2202C1507.83 93.3423 1507.48 95.1619 1506.77 96.679C1506.07 98.1875 1505.09 99.3509 1503.86 100.169C1502.62 100.979 1501.21 101.384 1499.63 101.384C1498.43 101.384 1497.46 101.183 1496.7 100.783C1495.95 100.382 1495.36 99.9134 1494.93 99.3764C1494.51 98.8395 1494.18 98.3622 1493.95 97.9446H1493.72V108.364H1489.9ZM1493.64 91.1818C1493.64 92.5625 1493.84 93.7727 1494.24 94.8125C1494.64 95.8523 1495.22 96.6662 1495.98 97.2543C1496.74 97.8338 1497.67 98.1236 1498.77 98.1236C1499.91 98.1236 1500.87 97.821 1501.63 97.2159C1502.4 96.6023 1502.98 95.7713 1503.37 94.723C1503.77 93.6747 1503.97 92.4943 1503.97 91.1818C1503.97 89.8864 1503.78 88.723 1503.38 87.6918C1503 86.6605 1502.42 85.8466 1501.65 85.25C1500.88 84.6534 1499.92 84.3551 1498.77 84.3551C1497.66 84.3551 1496.72 84.6406 1495.96 85.2116C1495.2 85.7827 1494.62 86.5795 1494.23 87.6023C1493.84 88.625 1493.64 89.8182 1493.64 91.1818ZM1515.94 89.3409V101H1512.12V74.8182H1515.89V84.5597H1516.13C1516.59 83.5028 1517.29 82.6634 1518.24 82.0412C1519.19 81.419 1520.42 81.108 1521.95 81.108C1523.29 81.108 1524.47 81.3849 1525.48 81.9389C1526.49 82.4929 1527.27 83.3196 1527.83 84.419C1528.39 85.5099 1528.67 86.8736 1528.67 88.5099V101H1524.85V88.9702C1524.85 87.5298 1524.48 86.4134 1523.74 85.6207C1523 84.8196 1521.96 84.419 1520.64 84.419C1519.74 84.419 1518.93 84.6108 1518.21 84.9943C1517.51 85.3778 1516.95 85.9403 1516.54 86.6818C1516.14 87.4148 1515.94 88.3011 1515.94 89.3409ZM1542.04 101.396C1540.2 101.396 1538.6 100.974 1537.22 100.131C1535.85 99.2869 1534.79 98.1065 1534.03 96.5895C1533.27 95.0724 1532.89 93.2997 1532.89 91.2713C1532.89 89.2344 1533.27 87.4531 1534.03 85.9276C1534.79 84.402 1535.85 83.2173 1537.22 82.3736C1538.6 81.5298 1540.2 81.108 1542.04 81.108C1543.88 81.108 1545.49 81.5298 1546.86 82.3736C1548.24 83.2173 1549.3 84.402 1550.06 85.9276C1550.82 87.4531 1551.2 89.2344 1551.2 91.2713C1551.2 93.2997 1550.82 95.0724 1550.06 96.5895C1549.3 98.1065 1548.24 99.2869 1546.86 100.131C1545.49 100.974 1543.88 101.396 1542.04 101.396ZM1542.06 98.1875C1543.25 98.1875 1544.24 97.8722 1545.02 97.2415C1545.81 96.6108 1546.39 95.7713 1546.76 94.723C1547.14 93.6747 1547.34 92.5199 1547.34 91.2585C1547.34 90.0057 1547.14 88.8551 1546.76 87.8068C1546.39 86.75 1545.81 85.902 1545.02 85.2628C1544.24 84.6236 1543.25 84.304 1542.06 84.304C1540.86 84.304 1539.86 84.6236 1539.07 85.2628C1538.28 85.902 1537.7 86.75 1537.31 87.8068C1536.94 88.8551 1536.75 90.0057 1536.75 91.2585C1536.75 92.5199 1536.94 93.6747 1537.31 94.723C1537.7 95.7713 1538.28 96.6108 1539.07 97.2415C1539.86 97.8722 1540.86 98.1875 1542.06 98.1875ZM1555.46 101V81.3636H1559.16V84.483H1559.36C1559.72 83.4261 1560.35 82.5952 1561.26 81.9901C1562.17 81.3764 1563.2 81.0696 1564.35 81.0696C1564.59 81.0696 1564.87 81.0781 1565.19 81.0952C1565.53 81.1122 1565.79 81.1335 1565.97 81.1591V84.8153C1565.82 84.7727 1565.55 84.7259 1565.15 84.6747C1564.76 84.6151 1564.37 84.5852 1563.98 84.5852C1563.07 84.5852 1562.27 84.777 1561.56 85.1605C1560.86 85.5355 1560.31 86.0597 1559.9 86.733C1559.49 87.3977 1559.29 88.1562 1559.29 89.0085V101H1555.46Z" fill="#5E6C72"/>
<path d="M1402.88 165V138.818H1419.29V142.219H1406.83V150.196H1418.43V153.584H1406.83V161.599H1419.44V165H1402.88ZM1427.28 145.364L1431.61 153.009L1435.98 145.364H1440.16L1434.04 155.182L1440.22 165H1436.04L1431.61 157.662L1427.2 165H1423.01L1429.12 155.182L1423.08 145.364H1427.28ZM1444.09 172.364V145.364H1447.82V148.547H1448.14C1448.36 148.138 1448.68 147.665 1449.1 147.128C1449.52 146.591 1450.1 146.122 1450.84 145.722C1451.58 145.312 1452.56 145.108 1453.78 145.108C1455.36 145.108 1456.78 145.509 1458.02 146.31C1459.27 147.111 1460.24 148.266 1460.95 149.774C1461.67 151.283 1462.03 153.098 1462.03 155.22C1462.03 157.342 1461.67 159.162 1460.96 160.679C1460.26 162.187 1459.29 163.351 1458.05 164.169C1456.81 164.979 1455.4 165.384 1453.82 165.384C1452.62 165.384 1451.65 165.183 1450.89 164.783C1450.14 164.382 1449.55 163.913 1449.13 163.376C1448.7 162.839 1448.37 162.362 1448.14 161.945H1447.91V172.364H1444.09ZM1447.83 155.182C1447.83 156.562 1448.04 157.773 1448.44 158.812C1448.84 159.852 1449.42 160.666 1450.17 161.254C1450.93 161.834 1451.86 162.124 1452.96 162.124C1454.1 162.124 1455.06 161.821 1455.82 161.216C1456.59 160.602 1457.17 159.771 1457.56 158.723C1457.96 157.675 1458.16 156.494 1458.16 155.182C1458.16 153.886 1457.97 152.723 1457.58 151.692C1457.19 150.661 1456.61 149.847 1455.84 149.25C1455.07 148.653 1454.11 148.355 1452.96 148.355C1451.85 148.355 1450.92 148.641 1450.15 149.212C1449.39 149.783 1448.81 150.58 1448.42 151.602C1448.03 152.625 1447.83 153.818 1447.83 155.182ZM1470.13 138.818V165H1466.31V138.818H1470.13ZM1483.54 165.396C1481.7 165.396 1480.1 164.974 1478.72 164.131C1477.35 163.287 1476.29 162.107 1475.53 160.589C1474.77 159.072 1474.39 157.3 1474.39 155.271C1474.39 153.234 1474.77 151.453 1475.53 149.928C1476.29 148.402 1477.35 147.217 1478.72 146.374C1480.1 145.53 1481.7 145.108 1483.54 145.108C1485.38 145.108 1486.99 145.53 1488.36 146.374C1489.74 147.217 1490.8 148.402 1491.56 149.928C1492.32 151.453 1492.7 153.234 1492.7 155.271C1492.7 157.3 1492.32 159.072 1491.56 160.589C1490.8 162.107 1489.74 163.287 1488.36 164.131C1486.99 164.974 1485.38 165.396 1483.54 165.396ZM1483.56 162.188C1484.75 162.188 1485.74 161.872 1486.52 161.241C1487.31 160.611 1487.89 159.771 1488.26 158.723C1488.64 157.675 1488.84 156.52 1488.84 155.259C1488.84 154.006 1488.64 152.855 1488.26 151.807C1487.89 150.75 1487.31 149.902 1486.52 149.263C1485.74 148.624 1484.75 148.304 1483.56 148.304C1482.36 148.304 1481.36 148.624 1480.57 149.263C1479.78 149.902 1479.2 150.75 1478.81 151.807C1478.44 152.855 1478.25 154.006 1478.25 155.259C1478.25 156.52 1478.44 157.675 1478.81 158.723C1479.2 159.771 1479.78 160.611 1480.57 161.241C1481.36 161.872 1482.36 162.188 1483.56 162.188ZM1496.96 165V145.364H1500.66V148.483H1500.86C1501.22 147.426 1501.85 146.595 1502.76 145.99C1503.67 145.376 1504.7 145.07 1505.85 145.07C1506.09 145.07 1506.37 145.078 1506.69 145.095C1507.03 145.112 1507.29 145.134 1507.47 145.159V148.815C1507.32 148.773 1507.05 148.726 1506.65 148.675C1506.26 148.615 1505.87 148.585 1505.48 148.585C1504.57 148.585 1503.77 148.777 1503.06 149.161C1502.36 149.536 1501.81 150.06 1501.4 150.733C1500.99 151.398 1500.79 152.156 1500.79 153.009V165H1496.96ZM1516.32 165.435C1515.07 165.435 1513.95 165.205 1512.94 164.744C1511.94 164.276 1511.14 163.598 1510.55 162.712C1509.97 161.825 1509.68 160.739 1509.68 159.452C1509.68 158.344 1509.9 157.432 1510.32 156.716C1510.75 156 1511.32 155.433 1512.05 155.016C1512.77 154.598 1513.58 154.283 1514.48 154.07C1515.37 153.857 1516.29 153.695 1517.21 153.584C1518.39 153.447 1519.34 153.337 1520.08 153.251C1520.81 153.158 1521.34 153.009 1521.68 152.804C1522.01 152.599 1522.17 152.267 1522.17 151.807V151.717C1522.17 150.601 1521.86 149.736 1521.23 149.122C1520.61 148.509 1519.68 148.202 1518.44 148.202C1517.15 148.202 1516.14 148.487 1515.4 149.058C1514.67 149.621 1514.16 150.247 1513.88 150.938L1510.29 150.119C1510.71 148.926 1511.33 147.963 1512.15 147.23C1512.98 146.489 1513.93 145.952 1515 145.619C1516.08 145.278 1517.21 145.108 1518.39 145.108C1519.17 145.108 1520.01 145.202 1520.88 145.389C1521.77 145.568 1522.6 145.901 1523.36 146.386C1524.14 146.872 1524.77 147.567 1525.27 148.47C1525.76 149.365 1526.01 150.528 1526.01 151.96V165H1522.28V162.315H1522.12C1521.88 162.81 1521.51 163.295 1521.01 163.773C1520.52 164.25 1519.88 164.646 1519.11 164.962C1518.33 165.277 1517.4 165.435 1516.32 165.435ZM1517.15 162.366C1518.21 162.366 1519.11 162.158 1519.86 161.74C1520.62 161.322 1521.19 160.777 1521.59 160.104C1521.99 159.422 1522.19 158.693 1522.19 157.918V155.386C1522.05 155.523 1521.79 155.651 1521.39 155.77C1521.01 155.881 1520.57 155.979 1520.08 156.064C1519.58 156.141 1519.1 156.213 1518.63 156.281C1518.16 156.341 1517.77 156.392 1517.46 156.435C1516.72 156.528 1516.04 156.686 1515.42 156.908C1514.82 157.129 1514.33 157.449 1513.97 157.866C1513.61 158.276 1513.43 158.821 1513.43 159.503C1513.43 160.449 1513.78 161.165 1514.48 161.651C1515.18 162.128 1516.07 162.366 1517.15 162.366ZM1540.27 145.364V148.432H1529.54V145.364H1540.27ZM1532.42 140.659H1536.24V159.234C1536.24 159.976 1536.35 160.534 1536.57 160.909C1536.79 161.276 1537.08 161.527 1537.43 161.663C1537.79 161.791 1538.17 161.855 1538.59 161.855C1538.9 161.855 1539.17 161.834 1539.4 161.791C1539.63 161.749 1539.81 161.714 1539.93 161.689L1540.62 164.847C1540.4 164.932 1540.09 165.017 1539.68 165.102C1539.27 165.196 1538.76 165.247 1538.14 165.256C1537.14 165.273 1536.2 165.094 1535.33 164.719C1534.46 164.344 1533.76 163.764 1533.22 162.98C1532.69 162.196 1532.42 161.212 1532.42 160.027V140.659ZM1552.56 165.396C1550.71 165.396 1549.11 164.974 1547.74 164.131C1546.36 163.287 1545.3 162.107 1544.54 160.589C1543.78 159.072 1543.4 157.3 1543.4 155.271C1543.4 153.234 1543.78 151.453 1544.54 149.928C1545.3 148.402 1546.36 147.217 1547.74 146.374C1549.11 145.53 1550.71 145.108 1552.56 145.108C1554.4 145.108 1556 145.53 1557.38 146.374C1558.75 147.217 1559.81 148.402 1560.57 149.928C1561.33 151.453 1561.71 153.234 1561.71 155.271C1561.71 157.3 1561.33 159.072 1560.57 160.589C1559.81 162.107 1558.75 163.287 1557.38 164.131C1556 164.974 1554.4 165.396 1552.56 165.396ZM1552.57 162.188C1553.76 162.188 1554.75 161.872 1555.53 161.241C1556.32 160.611 1556.9 159.771 1557.27 158.723C1557.66 157.675 1557.85 156.52 1557.85 155.259C1557.85 154.006 1557.66 152.855 1557.27 151.807C1556.9 150.75 1556.32 149.902 1555.53 149.263C1554.75 148.624 1553.76 148.304 1552.57 148.304C1551.37 148.304 1550.37 148.624 1549.58 149.263C1548.79 149.902 1548.21 150.75 1547.83 151.807C1547.45 152.855 1547.26 154.006 1547.26 155.259C1547.26 156.52 1547.45 157.675 1547.83 158.723C1548.21 159.771 1548.79 160.611 1549.58 161.241C1550.37 161.872 1551.37 162.188 1552.57 162.188ZM1565.98 165V145.364H1569.67V148.483H1569.88C1570.23 147.426 1570.86 146.595 1571.77 145.99C1572.68 145.376 1573.71 145.07 1574.86 145.07C1575.1 145.07 1575.38 145.078 1575.7 145.095C1576.04 145.112 1576.3 145.134 1576.48 145.159V148.815C1576.33 148.773 1576.06 148.726 1575.67 148.675C1575.27 148.615 1574.88 148.585 1574.49 148.585C1573.59 148.585 1572.78 148.777 1572.07 149.161C1571.38 149.536 1570.82 150.06 1570.41 150.733C1570 151.398 1569.8 152.156 1569.8 153.009V165H1565.98ZM1582.81 172.364C1582.24 172.364 1581.72 172.317 1581.25 172.223C1580.78 172.138 1580.43 172.044 1580.2 171.942L1581.12 168.81C1581.82 168.997 1582.44 169.078 1582.99 169.053C1583.53 169.027 1584.01 168.822 1584.43 168.439C1584.86 168.055 1585.23 167.429 1585.55 166.56L1586.03 165.256L1578.84 145.364H1582.93L1587.91 160.602H1588.11L1593.08 145.364H1597.19L1589.1 167.621C1588.72 168.643 1588.24 169.509 1587.66 170.216C1587.08 170.932 1586.39 171.469 1585.59 171.827C1584.79 172.185 1583.86 172.364 1582.81 172.364Z" fill="#5E6C72"/>
</g>
<g opacity="0.4">
<rect x="1700" width="800" height="240" rx="40" fill="#F8F1F1"/>
<path d="M1760.64 61.7422L1768.14 68.6172C1768.53 68.9766 1768.75 69.4766 1768.75 70C1768.75 70.5234 1768.53 71.0234 1768.14 71.3828L1760.64 78.2578C1759.87 78.9531 1758.7 78.8359 1757.99 78.1406C1757.29 77.375 1757.34 76.1953 1758.11 75.4922L1764.1 70L1758.11 64.5078C1757.34 63.8047 1757.29 62.625 1757.99 61.8594C1758.7 61.0938 1759.87 61.0469 1760.64 61.7422ZM1780.62 76.25C1781.66 76.25 1782.5 77.0859 1782.5 78.125C1782.5 79.1641 1781.66 80 1780.62 80H1769.38C1768.34 80 1767.5 79.1641 1767.5 78.125C1767.5 77.0859 1768.34 76.25 1769.38 76.25H1780.62ZM1785 52.5C1787.76 52.5 1790 54.7383 1790 57.5V82.5C1790 85.2578 1787.76 87.5 1785 87.5H1755C1752.24 87.5 1750 85.2578 1750 82.5V57.5C1750 54.7383 1752.24 52.5 1755 52.5H1785ZM1785 56.25H1755C1754.31 56.25 1753.75 56.8094 1753.75 57.5V82.5C1753.75 83.1875 1754.31 83.75 1755 83.75H1785C1785.69 83.75 1786.25 83.1875 1786.25 82.5V57.5C1786.25 56.8094 1785.69 56.25 1785 56.25Z" fill="#5E6C72"/>
<path d="M1774.62 127.332H1770.63C1770.48 126.48 1770.19 125.73 1769.78 125.082C1769.36 124.435 1768.85 123.885 1768.24 123.433C1767.64 122.982 1766.96 122.641 1766.21 122.411C1765.47 122.18 1764.68 122.065 1763.85 122.065C1762.34 122.065 1760.99 122.445 1759.79 123.203C1758.61 123.962 1757.67 125.074 1756.98 126.54C1756.3 128.006 1755.96 129.795 1755.96 131.909C1755.96 134.04 1756.3 135.838 1756.98 137.304C1757.67 138.77 1758.61 139.878 1759.81 140.628C1761 141.378 1762.34 141.753 1763.83 141.753C1764.66 141.753 1765.44 141.642 1766.18 141.42C1766.93 141.19 1767.61 140.854 1768.22 140.411C1768.82 139.967 1769.33 139.426 1769.75 138.787C1770.18 138.139 1770.47 137.398 1770.63 136.562L1774.62 136.575C1774.41 137.862 1774 139.047 1773.38 140.129C1772.78 141.203 1772 142.132 1771.04 142.916C1770.1 143.692 1769.01 144.293 1767.8 144.719C1766.58 145.145 1765.25 145.358 1763.81 145.358C1761.54 145.358 1759.52 144.821 1757.75 143.747C1755.97 142.665 1754.58 141.118 1753.55 139.107C1752.54 137.095 1752.03 134.696 1752.03 131.909C1752.03 129.114 1752.54 126.714 1753.57 124.712C1754.59 122.7 1755.99 121.158 1757.76 120.084C1759.53 119.001 1761.55 118.46 1763.81 118.46C1765.2 118.46 1766.49 118.661 1767.69 119.061C1768.9 119.453 1769.99 120.033 1770.95 120.8C1771.92 121.558 1772.71 122.487 1773.34 123.587C1773.97 124.678 1774.4 125.926 1774.62 127.332ZM1779.35 145V118.818H1783.3V141.599H1795.16V145H1779.35ZM1803.62 118.818V145H1799.67V118.818H1803.62Z" fill="#5E6C72"/>
<path d="M1767.78 171.24H1764.9C1764.79 170.625 1764.58 170.083 1764.28 169.615C1763.98 169.147 1763.61 168.75 1763.18 168.424C1762.74 168.098 1762.25 167.852 1761.71 167.685C1761.17 167.519 1760.6 167.436 1760 167.436C1758.91 167.436 1757.93 167.71 1757.07 168.258C1756.22 168.806 1755.54 169.609 1755.04 170.668C1754.55 171.726 1754.3 173.019 1754.3 174.545C1754.3 176.084 1754.55 177.383 1755.04 178.442C1755.54 179.5 1756.22 180.301 1757.08 180.842C1757.94 181.384 1758.91 181.655 1759.99 181.655C1760.59 181.655 1761.15 181.575 1761.69 181.415C1762.23 181.249 1762.72 181.005 1763.16 180.685C1763.59 180.365 1763.96 179.974 1764.26 179.513C1764.57 179.045 1764.79 178.509 1764.9 177.906L1767.78 177.915C1767.63 178.845 1767.33 179.701 1766.89 180.482C1766.45 181.258 1765.89 181.929 1765.2 182.495C1764.51 183.055 1763.73 183.489 1762.85 183.797C1761.97 184.105 1761.01 184.259 1759.97 184.259C1758.33 184.259 1756.88 183.871 1755.6 183.095C1754.31 182.313 1753.31 181.196 1752.57 179.744C1751.83 178.291 1751.47 176.558 1751.47 174.545C1751.47 172.527 1751.84 170.794 1752.58 169.347C1753.31 167.895 1754.32 166.781 1755.6 166.005C1756.88 165.223 1758.34 164.832 1759.97 164.832C1760.97 164.832 1761.91 164.977 1762.78 165.266C1763.65 165.549 1764.44 165.968 1765.13 166.522C1765.83 167.07 1766.4 167.741 1766.86 168.535C1767.31 169.323 1767.62 170.224 1767.78 171.24ZM1787.62 174.545C1787.62 176.564 1787.25 178.3 1786.51 179.753C1785.78 181.199 1784.76 182.313 1783.48 183.095C1782.2 183.871 1780.74 184.259 1779.11 184.259C1777.47 184.259 1776.01 183.871 1774.72 183.095C1773.44 182.313 1772.43 181.196 1771.7 179.744C1770.96 178.291 1770.59 176.558 1770.59 174.545C1770.59 172.527 1770.96 170.794 1771.7 169.347C1772.43 167.895 1773.44 166.781 1774.72 166.005C1776.01 165.223 1777.47 164.832 1779.11 164.832C1780.74 164.832 1782.2 165.223 1783.48 166.005C1784.76 166.781 1785.78 167.895 1786.51 169.347C1787.25 170.794 1787.62 172.527 1787.62 174.545ZM1784.8 174.545C1784.8 173.007 1784.55 171.711 1784.05 170.658C1783.56 169.6 1782.88 168.799 1782.02 168.258C1781.16 167.71 1780.19 167.436 1779.11 167.436C1778.02 167.436 1777.05 167.71 1776.19 168.258C1775.34 168.799 1774.66 169.6 1774.16 170.658C1773.67 171.711 1773.42 173.007 1773.42 174.545C1773.42 176.084 1773.67 177.383 1774.16 178.442C1774.66 179.494 1775.34 180.295 1776.19 180.842C1777.05 181.384 1778.02 181.655 1779.11 181.655C1780.19 181.655 1781.16 181.384 1782.02 180.842C1782.88 180.295 1783.56 179.494 1784.05 178.442C1784.55 177.383 1784.8 176.084 1784.8 174.545ZM1791.18 165.091H1794.64L1800.66 179.79H1800.88L1806.9 165.091H1810.37V184H1807.65V170.317H1807.48L1801.9 183.972H1799.65L1794.07 170.308H1793.89V184H1791.18V165.091ZM1814.51 165.091H1817.98L1824 179.79H1824.22L1830.24 165.091H1833.7V184H1830.98V170.317H1830.81L1825.23 183.972H1822.98L1817.4 170.308H1817.23V184H1814.51V165.091ZM1839.44 184H1836.42L1843.22 165.091H1846.52L1853.32 184H1850.29L1844.95 168.526H1844.8L1839.44 184ZM1839.95 176.595H1849.78V178.996H1839.95V176.595ZM1871.31 165.091V184H1868.69L1859.08 170.132H1858.91V184H1856.05V165.091H1858.69L1868.31 178.977H1868.49V165.091H1871.31ZM1881.6 184H1875.48V165.091H1881.79C1883.64 165.091 1885.24 165.469 1886.56 166.227C1887.89 166.978 1888.91 168.058 1889.62 169.467C1890.33 170.871 1890.69 172.554 1890.69 174.518C1890.69 176.487 1890.33 178.18 1889.61 179.596C1888.9 181.012 1887.86 182.101 1886.51 182.864C1885.16 183.621 1883.52 184 1881.6 184ZM1878.33 181.507H1881.44C1882.88 181.507 1884.08 181.236 1885.03 180.695C1885.99 180.147 1886.7 179.356 1887.17 178.322C1887.65 177.281 1887.88 176.013 1887.88 174.518C1887.88 173.034 1887.65 171.776 1887.17 170.741C1886.71 169.707 1886.01 168.923 1885.08 168.387C1884.15 167.852 1882.99 167.584 1881.62 167.584H1878.33V181.507ZM1902.37 173.345V175.746H1893.99V173.345H1902.37ZM1906.27 184V165.091H1909.13V181.544H1917.7V184H1906.27ZM1923.8 165.091V184H1920.95V165.091H1923.8ZM1943.22 165.091V184H1940.6L1930.99 170.132H1930.81V184H1927.96V165.091H1930.6L1940.22 178.977H1940.4V165.091H1943.22ZM1947.38 184V165.091H1959.24V167.547H1950.24V173.308H1958.62V175.755H1950.24V181.544H1959.35V184H1947.38ZM1972.78 165.091V184H1969.93V165.091H1972.78ZM1992.2 165.091V184H1989.58L1979.97 170.132H1979.79V184H1976.94V165.091H1979.58L1989.2 178.977H1989.37V165.091H1992.2ZM1995.43 167.547V165.091H2010.06V167.547H2004.16V184H2001.32V167.547H1995.43ZM2013.3 184V165.091H2025.15V167.547H2016.15V173.308H2024.53V175.755H2016.15V181.544H2025.26V184H2013.3ZM2028.96 184V165.091H2035.7C2037.17 165.091 2038.38 165.343 2039.35 165.848C2040.32 166.353 2041.05 167.051 2041.53 167.944C2042.01 168.83 2042.25 169.855 2042.25 171.018C2042.25 172.176 2042.01 173.194 2041.52 174.075C2041.04 174.949 2040.31 175.629 2039.34 176.115C2038.37 176.601 2037.16 176.844 2035.69 176.844H2030.59V174.388H2035.43C2036.36 174.388 2037.11 174.256 2037.69 173.991C2038.27 173.727 2038.7 173.342 2038.97 172.837C2039.24 172.333 2039.38 171.726 2039.38 171.018C2039.38 170.304 2039.24 169.686 2038.96 169.163C2038.69 168.639 2038.26 168.239 2037.68 167.962C2037.1 167.679 2036.34 167.538 2035.4 167.538H2031.82V184H2028.96ZM2038.3 175.469L2042.97 184H2039.72L2035.14 175.469H2038.3ZM2045.72 184V165.091H2057.45V167.547H2048.57V173.308H2056.61V175.755H2048.57V184H2045.72ZM2060.19 184H2057.16L2063.97 165.091H2067.26L2074.07 184H2071.04L2065.69 168.526H2065.55L2060.19 184ZM2060.7 176.595H2070.52V178.996H2060.7V176.595ZM2091.61 171.24H2088.73C2088.62 170.625 2088.42 170.083 2088.12 169.615C2087.81 169.147 2087.44 168.75 2087.01 168.424C2086.57 168.098 2086.08 167.852 2085.54 167.685C2085 167.519 2084.43 167.436 2083.83 167.436C2082.74 167.436 2081.77 167.71 2080.9 168.258C2080.05 168.806 2079.37 169.609 2078.87 170.668C2078.38 171.726 2078.13 173.019 2078.13 174.545C2078.13 176.084 2078.38 177.383 2078.87 178.442C2079.37 179.5 2080.05 180.301 2080.91 180.842C2081.78 181.384 2082.74 181.655 2083.82 181.655C2084.42 181.655 2084.99 181.575 2085.52 181.415C2086.06 181.249 2086.55 181.005 2086.99 180.685C2087.43 180.365 2087.8 179.974 2088.1 179.513C2088.4 179.045 2088.62 178.509 2088.73 177.906L2091.61 177.915C2091.46 178.845 2091.16 179.701 2090.72 180.482C2090.28 181.258 2089.72 181.929 2089.03 182.495C2088.35 183.055 2087.56 183.489 2086.68 183.797C2085.8 184.105 2084.84 184.259 2083.8 184.259C2082.17 184.259 2080.71 183.871 2079.43 183.095C2078.15 182.313 2077.14 181.196 2076.4 179.744C2075.67 178.291 2075.3 176.558 2075.3 174.545C2075.3 172.527 2075.67 170.794 2076.41 169.347C2077.15 167.895 2078.16 166.781 2079.44 166.005C2080.72 165.223 2082.17 164.832 2083.8 164.832C2084.81 164.832 2085.74 164.977 2086.61 165.266C2087.48 165.549 2088.27 165.968 2088.96 166.522C2089.66 167.07 2090.24 167.741 2090.69 168.535C2091.15 169.323 2091.45 170.224 2091.61 171.24ZM2095.03 184V165.091H2106.88V167.547H2097.88V173.308H2106.27V175.755H2097.88V181.544H2106.99V184H2095.03ZM2121.01 170.058C2120.91 169.184 2120.5 168.507 2119.79 168.027C2119.08 167.541 2118.18 167.298 2117.09 167.298C2116.32 167.298 2115.65 167.421 2115.08 167.667C2114.51 167.907 2114.07 168.239 2113.76 168.664C2113.45 169.083 2113.3 169.56 2113.3 170.095C2113.3 170.545 2113.4 170.932 2113.61 171.259C2113.83 171.585 2114.11 171.859 2114.45 172.08C2114.8 172.296 2115.18 172.477 2115.58 172.625C2115.98 172.767 2116.36 172.884 2116.73 172.976L2118.58 173.456C2119.18 173.604 2119.8 173.804 2120.44 174.056C2121.07 174.308 2121.66 174.641 2122.2 175.053C2122.74 175.466 2123.18 175.977 2123.51 176.586C2123.85 177.195 2124.02 177.925 2124.02 178.774C2124.02 179.845 2123.74 180.796 2123.19 181.627C2122.64 182.458 2121.84 183.114 2120.8 183.594C2119.76 184.074 2118.5 184.314 2117.02 184.314C2115.6 184.314 2114.38 184.089 2113.34 183.64C2112.31 183.191 2111.5 182.554 2110.92 181.729C2110.33 180.898 2110.01 179.913 2109.95 178.774H2112.81C2112.86 179.457 2113.09 180.027 2113.47 180.482C2113.87 180.932 2114.37 181.267 2114.98 181.489C2115.59 181.704 2116.27 181.812 2117 181.812C2117.81 181.812 2118.52 181.686 2119.15 181.433C2119.79 181.175 2120.28 180.818 2120.65 180.362C2121.01 179.901 2121.19 179.362 2121.19 178.746C2121.19 178.186 2121.03 177.728 2120.71 177.371C2120.4 177.014 2119.97 176.718 2119.43 176.484C2118.89 176.25 2118.29 176.044 2117.61 175.866L2115.38 175.256C2113.86 174.844 2112.66 174.238 2111.77 173.438C2110.89 172.637 2110.45 171.579 2110.45 170.261C2110.45 169.172 2110.75 168.221 2111.34 167.408C2111.93 166.596 2112.73 165.965 2113.74 165.516C2114.75 165.06 2115.89 164.832 2117.16 164.832C2118.44 164.832 2119.57 165.057 2120.55 165.506C2121.53 165.956 2122.31 166.574 2122.87 167.362C2123.44 168.144 2123.73 169.043 2123.76 170.058H2121.01Z" fill="#B9B9B9"/>
<path d="M2090 117.5C2088.62 117.5 2087.5 118.619 2087.5 120C2087.5 121.381 2088.62 122.5 2090 122.5V117.5ZM2201.77 121.768C2202.74 120.791 2202.74 119.209 2201.77 118.232L2185.86 102.322C2184.88 101.346 2183.3 101.346 2182.32 102.322C2181.35 103.299 2181.35 104.882 2182.32 105.858L2196.46 120L2182.32 134.142C2181.35 135.118 2181.35 136.701 2182.32 137.678C2183.3 138.654 2184.88 138.654 2185.86 137.678L2201.77 121.768ZM2090 122.5H2200V117.5H2090V122.5Z" fill="#B9B9B9"/>
<path d="M2274.62 83.3324H2270.63C2270.48 82.4801 2270.19 81.7301 2269.78 81.0824C2269.36 80.4347 2268.85 79.8849 2268.24 79.4332C2267.64 78.9815 2266.96 78.6406 2266.21 78.4105C2265.47 78.1804 2264.68 78.0653 2263.85 78.0653C2262.34 78.0653 2260.99 78.4446 2259.79 79.2031C2258.61 79.9616 2257.67 81.0739 2256.98 82.5398C2256.3 84.0057 2255.96 85.7955 2255.96 87.9091C2255.96 90.0398 2256.3 91.8381 2256.98 93.304C2257.67 94.7699 2258.61 95.8778 2259.81 96.6278C2261 97.3778 2262.34 97.7528 2263.83 97.7528C2264.66 97.7528 2265.44 97.642 2266.18 97.4205C2266.93 97.1903 2267.61 96.8537 2268.22 96.4105C2268.82 95.9673 2269.33 95.4261 2269.75 94.7869C2270.18 94.1392 2270.47 93.3977 2270.63 92.5625L2274.62 92.5753C2274.41 93.8622 2274 95.0469 2273.38 96.1293C2272.78 97.2031 2272 98.1321 2271.04 98.9162C2270.1 99.6918 2269.01 100.293 2267.8 100.719C2266.58 101.145 2265.25 101.358 2263.81 101.358C2261.54 101.358 2259.52 100.821 2257.75 99.7472C2255.97 98.6648 2254.58 97.1179 2253.55 95.1065C2252.54 93.0952 2252.03 90.696 2252.03 87.9091C2252.03 85.1136 2252.54 82.7145 2253.57 80.7116C2254.59 78.7003 2255.99 77.1577 2257.76 76.0838C2259.53 75.0014 2261.55 74.4602 2263.81 74.4602C2265.2 74.4602 2266.49 74.6605 2267.69 75.0611C2268.9 75.4531 2269.99 76.0327 2270.95 76.7997C2271.92 77.5582 2272.71 78.4872 2273.34 79.5866C2273.97 80.6776 2274.4 81.9261 2274.62 83.3324ZM2287.31 101.396C2285.47 101.396 2283.87 100.974 2282.49 100.131C2281.12 99.2869 2280.06 98.1065 2279.3 96.5895C2278.54 95.0724 2278.16 93.2997 2278.16 91.2713C2278.16 89.2344 2278.54 87.4531 2279.3 85.9276C2280.06 84.402 2281.12 83.2173 2282.49 82.3736C2283.87 81.5298 2285.47 81.108 2287.31 81.108C2289.15 81.108 2290.76 81.5298 2292.13 82.3736C2293.51 83.2173 2294.57 84.402 2295.33 85.9276C2296.09 87.4531 2296.47 89.2344 2296.47 91.2713C2296.47 93.2997 2296.09 95.0724 2295.33 96.5895C2294.57 98.1065 2293.51 99.2869 2292.13 100.131C2290.76 100.974 2289.15 101.396 2287.31 101.396ZM2287.33 98.1875C2288.52 98.1875 2289.51 97.8722 2290.29 97.2415C2291.08 96.6108 2291.66 95.7713 2292.03 94.723C2292.41 93.6747 2292.61 92.5199 2292.61 91.2585C2292.61 90.0057 2292.41 88.8551 2292.03 87.8068C2291.66 86.75 2291.08 85.902 2290.29 85.2628C2289.51 84.6236 2288.52 84.304 2287.33 84.304C2286.12 84.304 2285.13 84.6236 2284.33 85.2628C2283.55 85.902 2282.97 86.75 2282.58 87.8068C2282.21 88.8551 2282.02 90.0057 2282.02 91.2585C2282.02 92.5199 2282.21 93.6747 2282.58 94.723C2282.97 95.7713 2283.55 96.6108 2284.33 97.2415C2285.13 97.8722 2286.12 98.1875 2287.33 98.1875ZM2308.08 101.384C2306.5 101.384 2305.08 100.979 2303.84 100.169C2302.6 99.3509 2301.63 98.1875 2300.93 96.679C2300.23 95.1619 2299.88 93.3423 2299.88 91.2202C2299.88 89.098 2300.23 87.2827 2300.94 85.7741C2301.65 84.2656 2302.63 83.1108 2303.88 82.3097C2305.12 81.5085 2306.53 81.108 2308.11 81.108C2309.33 81.108 2310.31 81.3125 2311.05 81.7216C2311.8 82.1222 2312.38 82.5909 2312.79 83.1278C2313.21 83.6648 2313.53 84.1378 2313.76 84.5469H2313.99V74.8182H2317.81V101H2314.08V97.9446H2313.76C2313.53 98.3622 2313.2 98.8395 2312.76 99.3764C2312.34 99.9134 2311.75 100.382 2311 100.783C2310.25 101.183 2309.28 101.384 2308.08 101.384ZM2308.93 98.1236C2310.03 98.1236 2310.96 97.8338 2311.72 97.2543C2312.48 96.6662 2313.06 95.8523 2313.45 94.8125C2313.85 93.7727 2314.05 92.5625 2314.05 91.1818C2314.05 89.8182 2313.86 88.625 2313.47 87.6023C2313.07 86.5795 2312.5 85.7827 2311.74 85.2116C2310.98 84.6406 2310.04 84.3551 2308.93 84.3551C2307.78 84.3551 2306.82 84.6534 2306.05 85.25C2305.28 85.8466 2304.71 86.6605 2304.31 87.6918C2303.93 88.723 2303.74 89.8864 2303.74 91.1818C2303.74 92.4943 2303.93 93.6747 2304.33 94.723C2304.72 95.7713 2305.3 96.6023 2306.06 97.2159C2306.84 97.821 2307.79 98.1236 2308.93 98.1236ZM2323.27 101V81.3636H2327.09V101H2323.27ZM2325.2 78.3338C2324.53 78.3338 2323.96 78.1122 2323.49 77.669C2323.02 77.2173 2322.78 76.6804 2322.78 76.0582C2322.78 75.4276 2323.02 74.8906 2323.49 74.4474C2323.96 73.9957 2324.53 73.7699 2325.2 73.7699C2325.86 73.7699 2326.43 73.9957 2326.9 74.4474C2327.38 74.8906 2327.62 75.4276 2327.62 76.0582C2327.62 76.6804 2327.38 77.2173 2326.9 77.669C2326.43 78.1122 2325.86 78.3338 2325.2 78.3338ZM2341.58 81.3636V84.4318H2330.48V81.3636H2341.58ZM2333.52 101V79.0881C2333.52 77.8608 2333.79 76.8423 2334.33 76.0327C2334.87 75.2145 2335.58 74.6051 2336.47 74.2045C2337.35 73.7955 2338.31 73.5909 2339.35 73.5909C2340.12 73.5909 2340.78 73.6548 2341.32 73.7827C2341.87 73.902 2342.27 74.0128 2342.54 74.1151L2341.64 77.2088C2341.46 77.1577 2341.23 77.098 2340.95 77.0298C2340.67 76.9531 2340.33 76.9148 2339.93 76.9148C2339 76.9148 2338.34 77.1449 2337.94 77.6051C2337.54 78.0653 2337.35 78.7301 2337.35 79.5994V101H2333.52ZM2345.52 101V81.3636H2349.35V101H2345.52ZM2347.45 78.3338C2346.79 78.3338 2346.22 78.1122 2345.74 77.669C2345.27 77.2173 2345.04 76.6804 2345.04 76.0582C2345.04 75.4276 2345.27 74.8906 2345.74 74.4474C2346.22 73.9957 2346.79 73.7699 2347.45 73.7699C2348.12 73.7699 2348.68 73.9957 2349.15 74.4474C2349.63 74.8906 2349.87 75.4276 2349.87 76.0582C2349.87 76.6804 2349.63 77.2173 2349.15 77.669C2348.68 78.1122 2348.12 78.3338 2347.45 78.3338ZM2362.95 101.396C2361.02 101.396 2359.35 100.983 2357.95 100.156C2356.56 99.321 2355.49 98.1491 2354.73 96.6406C2353.98 95.1236 2353.61 93.3466 2353.61 91.3097C2353.61 89.2983 2353.98 87.5256 2354.73 85.9915C2355.49 84.4574 2356.55 83.2599 2357.9 82.3991C2359.26 81.5384 2360.86 81.108 2362.68 81.108C2363.79 81.108 2364.86 81.2912 2365.9 81.6577C2366.94 82.0241 2367.88 82.5994 2368.7 83.3835C2369.53 84.1676 2370.18 85.1861 2370.66 86.4389C2371.14 87.6832 2371.38 89.196 2371.38 90.9773V92.3324H2355.77V89.4688H2367.63C2367.63 88.4631 2367.43 87.5724 2367.02 86.7969C2366.61 86.0128 2366.03 85.3949 2365.29 84.9432C2364.56 84.4915 2363.7 84.2656 2362.71 84.2656C2361.63 84.2656 2360.7 84.5298 2359.9 85.0582C2359.1 85.5781 2358.49 86.2599 2358.05 87.1037C2357.63 87.9389 2357.42 88.8466 2357.42 89.8267V92.0639C2357.42 93.3764 2357.65 94.4929 2358.11 95.4134C2358.57 96.3338 2359.23 97.0369 2360.06 97.5227C2360.9 98 2361.87 98.2386 2362.99 98.2386C2363.71 98.2386 2364.37 98.1364 2364.97 97.9318C2365.57 97.7187 2366.08 97.4034 2366.52 96.9858C2366.95 96.5682 2367.28 96.0526 2367.51 95.4389L2371.13 96.0909C2370.84 97.1562 2370.32 98.0895 2369.57 98.8906C2368.83 99.6832 2367.9 100.301 2366.77 100.744C2365.66 101.179 2364.38 101.396 2362.95 101.396ZM2382.97 101.384C2381.38 101.384 2379.97 100.979 2378.72 100.169C2377.49 99.3509 2376.52 98.1875 2375.81 96.679C2375.11 95.1619 2374.76 93.3423 2374.76 91.2202C2374.76 89.098 2375.11 87.2827 2375.82 85.7741C2376.54 84.2656 2377.52 83.1108 2378.76 82.3097C2380.01 81.5085 2381.42 81.108 2382.99 81.108C2384.21 81.108 2385.19 81.3125 2385.93 81.7216C2386.68 82.1222 2387.26 82.5909 2387.67 83.1278C2388.09 83.6648 2388.41 84.1378 2388.64 84.5469H2388.87V74.8182H2392.7V101H2388.96V97.9446H2388.64C2388.41 98.3622 2388.08 98.8395 2387.65 99.3764C2387.22 99.9134 2386.63 100.382 2385.88 100.783C2385.13 101.183 2384.16 101.384 2382.97 101.384ZM2383.81 98.1236C2384.91 98.1236 2385.84 97.8338 2386.6 97.2543C2387.37 96.6662 2387.94 95.8523 2388.34 94.8125C2388.74 93.7727 2388.94 92.5625 2388.94 91.1818C2388.94 89.8182 2388.74 88.625 2388.35 87.6023C2387.96 86.5795 2387.38 85.7827 2386.62 85.2116C2385.87 84.6406 2384.93 84.3551 2383.81 84.3551C2382.66 84.3551 2381.7 84.6534 2380.93 85.25C2380.17 85.8466 2379.59 86.6605 2379.2 87.6918C2378.81 88.723 2378.62 89.8864 2378.62 91.1818C2378.62 92.4943 2378.82 93.6747 2379.21 94.723C2379.6 95.7713 2380.18 96.6023 2380.95 97.2159C2381.72 97.821 2382.68 98.1236 2383.81 98.1236Z" fill="#5E6C72"/>
<path d="M2267.16 145.696C2267.02 144.486 2266.46 143.548 2265.47 142.884C2264.48 142.21 2263.24 141.874 2261.74 141.874C2260.66 141.874 2259.73 142.044 2258.95 142.385C2258.16 142.717 2257.56 143.178 2257.12 143.766C2256.69 144.345 2256.48 145.006 2256.48 145.747C2256.48 146.369 2256.63 146.906 2256.92 147.358C2257.21 147.81 2257.6 148.189 2258.08 148.496C2258.57 148.794 2259.09 149.045 2259.64 149.25C2260.19 149.446 2260.73 149.608 2261.24 149.736L2263.79 150.401C2264.63 150.605 2265.49 150.882 2266.36 151.232C2267.24 151.581 2268.06 152.041 2268.81 152.612C2269.56 153.183 2270.16 153.891 2270.62 154.734C2271.09 155.578 2271.32 156.588 2271.32 157.764C2271.32 159.247 2270.94 160.564 2270.17 161.714C2269.41 162.865 2268.31 163.773 2266.86 164.438C2265.42 165.102 2263.68 165.435 2261.63 165.435C2259.67 165.435 2257.98 165.124 2256.55 164.501C2255.11 163.879 2253.99 162.997 2253.18 161.855C2252.37 160.705 2251.93 159.341 2251.84 157.764H2255.8C2255.88 158.71 2256.19 159.499 2256.72 160.129C2257.27 160.751 2257.96 161.216 2258.81 161.523C2259.66 161.821 2260.59 161.97 2261.61 161.97C2262.72 161.97 2263.72 161.795 2264.59 161.446C2265.46 161.088 2266.15 160.594 2266.66 159.963C2267.16 159.324 2267.41 158.578 2267.41 157.726C2267.41 156.95 2267.19 156.315 2266.75 155.821C2266.31 155.327 2265.72 154.918 2264.97 154.594C2264.23 154.27 2263.39 153.984 2262.45 153.737L2259.36 152.893C2257.26 152.322 2255.6 151.483 2254.37 150.375C2253.15 149.267 2252.54 147.801 2252.54 145.977C2252.54 144.469 2252.95 143.152 2253.77 142.027C2254.59 140.902 2255.7 140.028 2257.1 139.406C2258.49 138.776 2260.07 138.46 2261.83 138.46C2263.6 138.46 2265.16 138.771 2266.52 139.393C2267.88 140.016 2268.95 140.872 2269.74 141.963C2270.52 143.045 2270.93 144.29 2270.97 145.696H2267.16ZM2284.9 145.364V148.432H2274.18V145.364H2284.9ZM2277.05 140.659H2280.88V159.234C2280.88 159.976 2280.99 160.534 2281.21 160.909C2281.43 161.276 2281.72 161.527 2282.07 161.663C2282.42 161.791 2282.81 161.855 2283.23 161.855C2283.54 161.855 2283.8 161.834 2284.03 161.791C2284.26 161.749 2284.44 161.714 2284.57 161.689L2285.26 164.847C2285.04 164.932 2284.72 165.017 2284.32 165.102C2283.91 165.196 2283.4 165.247 2282.78 165.256C2281.78 165.273 2280.84 165.094 2279.97 164.719C2279.1 164.344 2278.4 163.764 2277.86 162.98C2277.32 162.196 2277.05 161.212 2277.05 160.027V140.659ZM2289.13 165V145.364H2292.83V148.483H2293.03C2293.39 147.426 2294.02 146.595 2294.92 145.99C2295.84 145.376 2296.87 145.07 2298.02 145.07C2298.26 145.07 2298.54 145.078 2298.86 145.095C2299.19 145.112 2299.45 145.134 2299.64 145.159V148.815C2299.49 148.773 2299.21 148.726 2298.82 148.675C2298.43 148.615 2298.04 148.585 2297.65 148.585C2296.74 148.585 2295.94 148.777 2295.23 149.161C2294.53 149.536 2293.98 150.06 2293.57 150.733C2293.16 151.398 2292.95 152.156 2292.95 153.009V165H2289.13ZM2302.95 165V145.364H2306.77V165H2302.95ZM2304.88 142.334C2304.21 142.334 2303.64 142.112 2303.17 141.669C2302.7 141.217 2302.46 140.68 2302.46 140.058C2302.46 139.428 2302.7 138.891 2303.17 138.447C2303.64 137.996 2304.21 137.77 2304.88 137.77C2305.54 137.77 2306.11 137.996 2306.58 138.447C2307.06 138.891 2307.3 139.428 2307.3 140.058C2307.3 140.68 2307.06 141.217 2306.58 141.669C2306.11 142.112 2305.54 142.334 2304.88 142.334ZM2320.18 165.396C2318.28 165.396 2316.65 164.966 2315.28 164.105C2313.91 163.236 2312.86 162.038 2312.13 160.513C2311.4 158.987 2311.03 157.24 2311.03 155.271C2311.03 153.277 2311.41 151.517 2312.16 149.991C2312.91 148.457 2313.96 147.26 2315.33 146.399C2316.69 145.538 2318.3 145.108 2320.15 145.108C2321.64 145.108 2322.97 145.385 2324.13 145.939C2325.3 146.484 2326.24 147.251 2326.96 148.24C2327.68 149.229 2328.12 150.384 2328.25 151.705H2324.53C2324.33 150.784 2323.86 149.991 2323.12 149.327C2322.4 148.662 2321.43 148.33 2320.21 148.33C2319.14 148.33 2318.21 148.611 2317.41 149.173C2316.62 149.727 2316 150.52 2315.56 151.551C2315.11 152.574 2314.89 153.784 2314.89 155.182C2314.89 156.614 2315.11 157.849 2315.54 158.889C2315.98 159.929 2316.59 160.734 2317.38 161.305C2318.19 161.876 2319.13 162.162 2320.21 162.162C2320.93 162.162 2321.59 162.03 2322.18 161.766C2322.78 161.493 2323.27 161.105 2323.67 160.602C2324.08 160.099 2324.37 159.494 2324.53 158.787H2328.25C2328.12 160.057 2327.7 161.19 2327.01 162.188C2326.32 163.185 2325.4 163.969 2324.24 164.54C2323.09 165.111 2321.74 165.396 2320.18 165.396ZM2341.51 145.364V148.432H2330.78V145.364H2341.51ZM2333.66 140.659H2337.48V159.234C2337.48 159.976 2337.59 160.534 2337.81 160.909C2338.03 161.276 2338.32 161.527 2338.67 161.663C2339.03 161.791 2339.41 161.855 2339.83 161.855C2340.14 161.855 2340.41 161.834 2340.64 161.791C2340.87 161.749 2341.05 161.714 2341.17 161.689L2341.86 164.847C2341.64 164.932 2341.33 165.017 2340.92 165.102C2340.51 165.196 2340 165.247 2339.38 165.256C2338.38 165.273 2337.44 165.094 2336.57 164.719C2335.7 164.344 2335 163.764 2334.46 162.98C2333.92 162.196 2333.66 161.212 2333.66 160.027V140.659Z" fill="#5E6C72"/>
</g>
<defs>
<clipPath id="clip0_413_10214">
<rect width="45" height="40" fill="white" transform="translate(900 50)"/>
</clipPath>
</defs>
</svg>
