<svg width="760" height="200" viewBox="0 0 760 200" fill="none" xmlns="http://www.w3.org/2000/svg">
<rect width="760" height="200" rx="30" fill="#F8F1F1"/>
<g clip-path="url(#clip0_413_10230)">
<path d="M70 30C72.7578 30 75 32.2383 75 35V57.5C75 60.2578 72.7578 62.5 70 62.5H42.5C39.7422 62.5 37.5 60.2578 37.5 57.5V35C37.5 32.2383 39.7422 30 42.5 30H70ZM42.5 58.75H70C70.6875 58.75 71.25 58.1875 71.25 57.5V40H41.25V57.5C41.25 58.1875 41.8125 58.75 42.5 58.75ZM33.75 59.375C33.75 63.1719 36.8281 66.25 40.625 66.25H65.625C66.6641 66.25 67.5 67.0859 67.5 68.125C67.5 69.1641 66.6641 70 65.625 70H40.625C34.757 70 30 65.2422 30 59.375V39.375C30 38.3359 30.8398 37.5 31.875 37.5C32.9102 37.5 33.75 38.3359 33.75 39.375V59.375Z" fill="#224757"/>
</g>
<path d="M50.5952 107.089C50.348 106.314 50.0156 105.619 49.598 105.006C49.1889 104.384 48.6989 103.855 48.1278 103.42C47.5568 102.977 46.9048 102.641 46.1719 102.411C45.4474 102.18 44.6506 102.065 43.7812 102.065C42.3068 102.065 40.9773 102.445 39.7926 103.203C38.608 103.962 37.6705 105.074 36.9801 106.54C36.2983 107.997 35.9574 109.783 35.9574 111.896C35.9574 114.018 36.3026 115.812 36.9929 117.278C37.6832 118.744 38.6293 119.857 39.831 120.615C41.0327 121.374 42.4006 121.753 43.9347 121.753C45.358 121.753 46.598 121.463 47.6548 120.884C48.7202 120.304 49.5426 119.486 50.1222 118.429C50.7102 117.364 51.0043 116.111 51.0043 114.67L52.027 114.862H44.5355V111.602H54.8267V114.581C54.8267 116.78 54.358 118.689 53.4205 120.308C52.4915 121.919 51.2045 123.163 49.5597 124.041C47.9233 124.919 46.0483 125.358 43.9347 125.358C41.5653 125.358 39.4858 124.812 37.696 123.722C35.9148 122.631 34.5256 121.084 33.5284 119.081C32.5313 117.07 32.0327 114.683 32.0327 111.922C32.0327 109.834 32.3224 107.959 32.902 106.297C33.4815 104.635 34.2955 103.224 35.3438 102.065C36.4006 100.898 37.6406 100.007 39.0639 99.3935C40.4957 98.7713 42.0597 98.4602 43.7557 98.4602C45.1705 98.4602 46.4872 98.669 47.706 99.0866C48.9332 99.5043 50.0241 100.097 50.9787 100.864C51.9418 101.631 52.7386 102.543 53.3693 103.599C54 104.648 54.4261 105.811 54.6477 107.089H50.5952ZM76.6779 98.8182H80.641V116.038C80.641 117.871 80.2106 119.494 79.3498 120.909C78.489 122.315 77.2788 123.423 75.7191 124.233C74.1594 125.034 72.3313 125.435 70.2347 125.435C68.1467 125.435 66.3228 125.034 64.7631 124.233C63.2035 123.423 61.9933 122.315 61.1325 120.909C60.2717 119.494 59.8413 117.871 59.8413 116.038V98.8182H63.7915V115.719C63.7915 116.903 64.0515 117.956 64.5714 118.876C65.0998 119.797 65.8455 120.521 66.8086 121.05C67.7717 121.57 68.9137 121.83 70.2347 121.83C71.5643 121.83 72.7106 121.57 73.6737 121.05C74.6452 120.521 75.3867 119.797 75.8981 118.876C76.418 117.956 76.6779 116.903 76.6779 115.719V98.8182ZM90.3345 98.8182V125H86.3842V98.8182H90.3345Z" fill="#224757"/>
<path d="M44.8743 151.065C44.6958 150.504 44.4557 150.003 44.1541 149.56C43.8587 149.11 43.5047 148.729 43.0923 148.415C42.6799 148.095 42.209 147.852 41.6797 147.685C41.1565 147.519 40.581 147.436 39.9531 147.436C38.8883 147.436 37.928 147.71 37.0724 148.258C36.2169 148.806 35.5398 149.609 35.0412 150.668C34.5488 151.72 34.3026 153.01 34.3026 154.536C34.3026 156.069 34.5518 157.365 35.0504 158.423C35.549 159.482 36.2322 160.285 37.1001 160.833C37.968 161.381 38.956 161.655 40.0639 161.655C41.0919 161.655 41.9875 161.446 42.7507 161.027C43.5201 160.608 44.1141 160.018 44.5327 159.254C44.9574 158.485 45.1697 157.58 45.1697 156.54L45.9084 156.678H40.4979V154.324H47.9304V156.475C47.9304 158.063 47.5919 159.442 46.9148 160.612C46.2438 161.775 45.3144 162.674 44.1264 163.308C42.9446 163.942 41.5904 164.259 40.0639 164.259C38.3527 164.259 36.8509 163.865 35.5582 163.077C34.2718 162.289 33.2685 161.172 32.5483 159.725C31.8281 158.272 31.468 156.549 31.468 154.555C31.468 153.047 31.6773 151.692 32.0959 150.492C32.5144 149.292 33.1023 148.273 33.8594 147.436C34.6226 146.593 35.5182 145.95 36.5462 145.506C37.5803 145.057 38.7098 144.832 39.9347 144.832C40.9564 144.832 41.9074 144.983 42.7876 145.285C43.674 145.586 44.4619 146.014 45.1513 146.568C45.8468 147.122 46.4223 147.781 46.8778 148.544C47.3333 149.301 47.6411 150.141 47.8011 151.065H44.8743ZM51.552 164V145.091H58.2921C59.757 145.091 60.9727 145.343 61.9391 145.848C62.9116 146.353 63.638 147.051 64.1181 147.944C64.5982 148.83 64.8382 149.855 64.8382 151.018C64.8382 152.176 64.5951 153.194 64.1088 154.075C63.6287 154.949 62.9024 155.629 61.9299 156.115C60.9635 156.601 59.7478 156.844 58.2828 156.844H53.177V154.388H58.0243C58.9476 154.388 59.6986 154.256 60.2772 153.991C60.8619 153.727 61.2897 153.342 61.5605 152.837C61.8314 152.333 61.9668 151.726 61.9668 151.018C61.9668 150.304 61.8283 149.686 61.5513 149.163C61.2805 148.639 60.8527 148.239 60.2679 147.962C59.6893 147.679 58.9292 147.538 57.9874 147.538H54.405V164H51.552ZM60.8865 155.469L65.5584 164H62.3084L57.7289 155.469H60.8865ZM69.9071 164H66.8787L73.6834 145.091H76.9796L83.7843 164H80.7559L75.41 148.526H75.2623L69.9071 164ZM70.415 156.595H80.2388V158.996H70.415V156.595ZM86.5149 164V145.091H93.255C94.7261 145.091 95.9448 145.359 96.9112 145.894C97.8776 146.43 98.6009 147.162 99.081 148.092C99.5611 149.015 99.8011 150.055 99.8011 151.212C99.8011 152.376 99.558 153.422 99.0717 154.352C98.5916 155.275 97.8653 156.007 96.8928 156.549C95.9264 157.085 94.7107 157.352 93.2457 157.352H88.6108V154.933H92.9872C93.9167 154.933 94.6707 154.773 95.2493 154.453C95.8279 154.127 96.2526 153.684 96.5234 153.124C96.7943 152.563 96.9297 151.926 96.9297 151.212C96.9297 150.498 96.7943 149.864 96.5234 149.31C96.2526 148.756 95.8248 148.322 95.2401 148.009C94.6615 147.695 93.8982 147.538 92.9503 147.538H89.3679V164H86.5149ZM103.146 164V145.091H105.999V153.308H115.426V145.091H118.288V164H115.426V155.755H105.999V164H103.146ZM125.296 145.091V164H122.443V145.091H125.296ZM145.156 151.24H142.275C142.164 150.625 141.958 150.083 141.656 149.615C141.355 149.147 140.986 148.75 140.548 148.424C140.111 148.098 139.622 147.852 139.08 147.685C138.545 147.519 137.976 147.436 137.372 147.436C136.283 147.436 135.307 147.71 134.445 148.258C133.59 148.806 132.913 149.609 132.414 150.668C131.922 151.726 131.676 153.019 131.676 154.545C131.676 156.084 131.922 157.383 132.414 158.442C132.913 159.5 133.593 160.301 134.455 160.842C135.316 161.384 136.286 161.655 137.363 161.655C137.96 161.655 138.526 161.575 139.062 161.415C139.604 161.249 140.093 161.005 140.53 160.685C140.967 160.365 141.336 159.974 141.638 159.513C141.946 159.045 142.158 158.509 142.275 157.906L145.156 157.915C145.002 158.845 144.703 159.701 144.26 160.482C143.823 161.258 143.26 161.929 142.57 162.495C141.887 163.055 141.106 163.489 140.225 163.797C139.345 164.105 138.385 164.259 137.345 164.259C135.707 164.259 134.249 163.871 132.968 163.095C131.688 162.313 130.678 161.196 129.94 159.744C129.207 158.291 128.841 156.558 128.841 154.545C128.841 152.527 129.21 150.794 129.949 149.347C130.688 147.895 131.697 146.781 132.977 146.005C134.258 145.223 135.713 144.832 137.345 144.832C138.348 144.832 139.284 144.977 140.151 145.266C141.026 145.549 141.81 145.968 142.506 146.522C143.201 147.07 143.777 147.741 144.232 148.535C144.688 149.323 144.996 150.224 145.156 151.24ZM150.04 164H147.012L153.816 145.091H157.112L163.917 164H160.889L155.543 148.526H155.395L150.04 164ZM150.548 156.595H160.372V158.996H150.548V156.595ZM166.648 164V145.091H169.501V161.544H178.069V164H166.648ZM200.364 145.091H203.226V157.528C203.226 158.851 202.916 160.024 202.294 161.045C201.672 162.061 200.798 162.861 199.672 163.446C198.545 164.025 197.225 164.314 195.711 164.314C194.203 164.314 192.885 164.025 191.759 163.446C190.633 162.861 189.759 162.061 189.137 161.045C188.515 160.024 188.204 158.851 188.204 157.528V145.091H191.057V157.297C191.057 158.152 191.245 158.913 191.621 159.577C192.002 160.242 192.541 160.765 193.236 161.147C193.932 161.522 194.757 161.71 195.711 161.71C196.671 161.71 197.499 161.522 198.194 161.147C198.896 160.765 199.432 160.242 199.801 159.577C200.176 158.913 200.364 158.152 200.364 157.297V145.091ZM217.688 150.058C217.589 149.184 217.183 148.507 216.469 148.027C215.755 147.541 214.856 147.298 213.773 147.298C212.997 147.298 212.326 147.421 211.76 147.667C211.194 147.907 210.754 148.239 210.44 148.664C210.132 149.083 209.978 149.56 209.978 150.095C209.978 150.545 210.083 150.932 210.292 151.259C210.507 151.585 210.787 151.859 211.132 152.08C211.483 152.296 211.858 152.477 212.259 152.625C212.659 152.767 213.043 152.884 213.413 152.976L215.259 153.456C215.862 153.604 216.481 153.804 217.115 154.056C217.749 154.308 218.337 154.641 218.879 155.053C219.42 155.466 219.857 155.977 220.19 156.586C220.528 157.195 220.697 157.925 220.697 158.774C220.697 159.845 220.42 160.796 219.866 161.627C219.319 162.458 218.522 163.114 217.475 163.594C216.435 164.074 215.176 164.314 213.699 164.314C212.283 164.314 211.058 164.089 210.024 163.64C208.99 163.191 208.181 162.554 207.596 161.729C207.011 160.898 206.688 159.913 206.626 158.774H209.489C209.544 159.457 209.766 160.027 210.153 160.482C210.547 160.932 211.049 161.267 211.658 161.489C212.274 161.704 212.948 161.812 213.68 161.812C214.487 161.812 215.204 161.686 215.832 161.433C216.466 161.175 216.964 160.818 217.327 160.362C217.691 159.901 217.872 159.362 217.872 158.746C217.872 158.186 217.712 157.728 217.392 157.371C217.078 157.014 216.65 156.718 216.109 156.484C215.573 156.25 214.967 156.044 214.29 155.866L212.055 155.256C210.541 154.844 209.341 154.238 208.455 153.438C207.574 152.637 207.134 151.579 207.134 150.261C207.134 149.172 207.43 148.221 208.021 147.408C208.612 146.596 209.412 145.965 210.421 145.516C211.431 145.06 212.569 144.832 213.837 144.832C215.118 144.832 216.247 145.057 217.226 145.506C218.211 145.956 218.986 146.574 219.553 147.362C220.119 148.144 220.414 149.043 220.439 150.058H217.688ZM224.107 164V145.091H235.962V147.547H226.96V153.308H235.343V155.755H226.96V161.544H236.073V164H224.107ZM239.773 164V145.091H246.513C247.978 145.091 249.193 145.343 250.16 145.848C251.132 146.353 251.859 147.051 252.339 147.944C252.819 148.83 253.059 149.855 253.059 151.018C253.059 152.176 252.816 153.194 252.33 154.075C251.849 154.949 251.123 155.629 250.151 156.115C249.184 156.601 247.969 156.844 246.504 156.844H241.398V154.388H246.245C247.168 154.388 247.919 154.256 248.498 153.991C249.083 153.727 249.51 153.342 249.781 152.837C250.052 152.333 250.188 151.726 250.188 151.018C250.188 150.304 250.049 149.686 249.772 149.163C249.501 148.639 249.073 148.239 248.489 147.962C247.91 147.679 247.15 147.538 246.208 147.538H242.626V164H239.773ZM249.107 155.469L253.779 164H250.529L245.95 155.469H249.107ZM266.264 145.091V164H263.411V145.091H266.264ZM285.681 145.091V164H283.059L273.448 150.132H273.272V164H270.419V145.091H273.06L282.681 158.977H282.856V145.091H285.681ZM288.911 147.547V145.091H303.545V147.547H297.645V164H294.801V147.547H288.911ZM306.779 164V145.091H318.634V147.547H309.632V153.308H318.015V155.755H309.632V161.544H318.744V164H306.779ZM322.445 164V145.091H329.185C330.65 145.091 331.865 145.343 332.832 145.848C333.804 146.353 334.531 147.051 335.011 147.944C335.491 148.83 335.731 149.855 335.731 151.018C335.731 152.176 335.488 153.194 335.001 154.075C334.521 154.949 333.795 155.629 332.822 156.115C331.856 156.601 330.64 156.844 329.175 156.844H324.07V154.388H328.917C329.84 154.388 330.591 154.256 331.17 153.991C331.754 153.727 332.182 153.342 332.453 152.837C332.724 152.333 332.859 151.726 332.859 151.018C332.859 150.304 332.721 149.686 332.444 149.163C332.173 148.639 331.745 148.239 331.161 147.962C330.582 147.679 329.822 147.538 328.88 147.538H325.298V164H322.445ZM331.779 155.469L336.451 164H333.201L328.621 155.469H331.779ZM339.202 164V145.091H350.928V147.547H342.055V153.308H350.088V155.755H342.055V164H339.202ZM353.673 164H350.644L357.449 145.091H360.745L367.55 164H364.521L359.176 148.526H359.028L353.673 164ZM354.181 156.595H364.004V158.996H354.181V156.595ZM385.097 151.24H382.216C382.106 150.625 381.899 150.083 381.598 149.615C381.296 149.147 380.927 148.75 380.49 148.424C380.053 148.098 379.564 147.852 379.022 147.685C378.486 147.519 377.917 147.436 377.314 147.436C376.224 147.436 375.249 147.71 374.387 148.258C373.531 148.806 372.854 149.609 372.356 150.668C371.863 151.726 371.617 153.019 371.617 154.545C371.617 156.084 371.863 157.383 372.356 158.442C372.854 159.5 373.534 160.301 374.396 160.842C375.258 161.384 376.227 161.655 377.305 161.655C377.902 161.655 378.468 161.575 379.003 161.415C379.545 161.249 380.034 161.005 380.471 160.685C380.908 160.365 381.278 159.974 381.579 159.513C381.887 159.045 382.099 158.509 382.216 157.906L385.097 157.915C384.943 158.845 384.645 159.701 384.202 160.482C383.765 161.258 383.201 161.929 382.512 162.495C381.829 163.055 381.047 163.489 380.167 163.797C379.287 164.105 378.326 164.259 377.286 164.259C375.649 164.259 374.19 163.871 372.91 163.095C371.629 162.313 370.62 161.196 369.881 159.744C369.149 158.291 368.782 156.558 368.782 154.545C368.782 152.527 369.152 150.794 369.89 149.347C370.629 147.895 371.639 146.781 372.919 146.005C374.199 145.223 375.655 144.832 377.286 144.832C378.289 144.832 379.225 144.977 380.093 145.266C380.967 145.549 381.752 145.968 382.447 146.522C383.143 147.07 383.718 147.741 384.174 148.535C384.629 149.323 384.937 150.224 385.097 151.24ZM388.511 164V145.091H400.366V147.547H391.364V153.308H399.748V155.755H391.364V161.544H400.477V164H388.511ZM414.49 150.058C414.392 149.184 413.985 148.507 413.271 148.027C412.557 147.541 411.659 147.298 410.575 147.298C409.8 147.298 409.129 147.421 408.563 147.667C407.996 147.907 407.556 148.239 407.242 148.664C406.935 149.083 406.781 149.56 406.781 150.095C406.781 150.545 406.885 150.932 407.095 151.259C407.31 151.585 407.59 151.859 407.935 152.08C408.286 152.296 408.661 152.477 409.061 152.625C409.461 152.767 409.846 152.884 410.215 152.976L412.062 153.456C412.665 153.604 413.284 153.804 413.918 154.056C414.552 154.308 415.14 154.641 415.681 155.053C416.223 155.466 416.66 155.977 416.992 156.586C417.331 157.195 417.5 157.925 417.5 158.774C417.5 159.845 417.223 160.796 416.669 161.627C416.121 162.458 415.324 163.114 414.278 163.594C413.238 164.074 411.979 164.314 410.502 164.314C409.086 164.314 407.861 164.089 406.827 163.64C405.793 163.191 404.983 162.554 404.399 161.729C403.814 160.898 403.491 159.913 403.429 158.774H406.291C406.347 159.457 406.568 160.027 406.956 160.482C407.35 160.932 407.852 161.267 408.461 161.489C409.077 161.704 409.751 161.812 410.483 161.812C411.289 161.812 412.007 161.686 412.634 161.433C413.268 161.175 413.767 160.818 414.13 160.362C414.493 159.901 414.675 159.362 414.675 158.746C414.675 158.186 414.515 157.728 414.195 157.371C413.881 157.014 413.453 156.718 412.911 156.484C412.376 156.25 411.77 156.044 411.093 155.866L408.858 155.256C407.344 154.844 406.144 154.238 405.257 153.438C404.377 152.637 403.937 151.579 403.937 150.261C403.937 149.172 404.232 148.221 404.823 147.408C405.414 146.596 406.214 145.965 407.224 145.516C408.233 145.06 409.372 144.832 410.64 144.832C411.92 144.832 413.05 145.057 414.029 145.506C415.013 145.956 415.789 146.574 416.355 147.362C416.922 148.144 417.217 149.043 417.242 150.058H414.49Z" fill="#A9B4B9"/>
<path d="M370 97.5C368.619 97.5 367.5 98.6193 367.5 100C367.5 101.381 368.619 102.5 370 102.5V97.5ZM481.768 101.768C482.744 100.791 482.744 99.2085 481.768 98.2322L465.858 82.3223C464.882 81.346 463.299 81.346 462.322 82.3223C461.346 83.2986 461.346 84.8816 462.322 85.8579L476.464 100L462.322 114.142C461.346 115.118 461.346 116.701 462.322 117.678C463.299 118.654 464.882 118.654 465.858 117.678L481.768 101.768ZM370 102.5H480V97.5H370V102.5Z" fill="#FF9900"/>
<path d="M532.876 54.8182H537.67L546.006 75.1705H546.312L554.648 54.8182H559.442V81H555.683V62.054H555.44L547.719 80.9616H544.599L536.878 62.0412H536.635V81H532.876V54.8182ZM573.341 81.3963C571.407 81.3963 569.74 80.983 568.343 80.1562C566.953 79.321 565.88 78.1491 565.121 76.6406C564.371 75.1236 563.996 73.3466 563.996 71.3097C563.996 69.2983 564.371 67.5256 565.121 65.9915C565.88 64.4574 566.936 63.2599 568.292 62.3991C569.655 61.5384 571.249 61.108 573.073 61.108C574.181 61.108 575.255 61.2912 576.294 61.6577C577.334 62.0241 578.267 62.5994 579.094 63.3835C579.921 64.1676 580.573 65.1861 581.05 66.4389C581.527 67.6832 581.766 69.196 581.766 70.9773V72.3324H566.157V69.4688H578.02C578.02 68.4631 577.816 67.5724 577.407 66.7969C576.998 66.0128 576.422 65.3949 575.681 64.9432C574.948 64.4915 574.087 64.2656 573.098 64.2656C572.025 64.2656 571.087 64.5298 570.286 65.0582C569.493 65.5781 568.88 66.2599 568.445 67.1037C568.019 67.9389 567.806 68.8466 567.806 69.8267V72.0639C567.806 73.3764 568.036 74.4929 568.496 75.4134C568.965 76.3338 569.617 77.0369 570.452 77.5227C571.287 78 572.263 78.2386 573.38 78.2386C574.104 78.2386 574.765 78.1364 575.361 77.9318C575.958 77.7187 576.473 77.4034 576.908 76.9858C577.343 76.5682 577.675 76.0526 577.905 75.4389L581.523 76.0909C581.233 77.1562 580.713 78.0895 579.963 78.8906C579.222 79.6832 578.289 80.3011 577.164 80.7443C576.047 81.179 574.773 81.3963 573.341 81.3963ZM595.173 61.3636V64.4318H584.447V61.3636H595.173ZM587.324 56.6591H591.146V75.2344C591.146 75.9759 591.257 76.5341 591.479 76.9091C591.7 77.2756 591.986 77.527 592.335 77.6634C592.693 77.7912 593.081 77.8551 593.499 77.8551C593.805 77.8551 594.074 77.8338 594.304 77.7912C594.534 77.7486 594.713 77.7145 594.841 77.6889L595.531 80.8466C595.31 80.9318 594.994 81.017 594.585 81.1023C594.176 81.196 593.665 81.2472 593.051 81.2557C592.045 81.2727 591.108 81.0938 590.239 80.7188C589.369 80.3438 588.666 79.7642 588.129 78.9801C587.592 78.196 587.324 77.2116 587.324 76.027V56.6591ZM605.116 81.4347C603.872 81.4347 602.747 81.2045 601.741 80.7443C600.735 80.2756 599.939 79.598 599.35 78.7116C598.771 77.8253 598.481 76.7386 598.481 75.4517C598.481 74.3437 598.694 73.4318 599.12 72.7159C599.547 72 600.122 71.4332 600.846 71.0156C601.571 70.598 602.38 70.2827 603.275 70.0696C604.17 69.8565 605.082 69.6946 606.011 69.5838C607.187 69.4474 608.142 69.3366 608.875 69.2514C609.608 69.1577 610.14 69.0085 610.473 68.804C610.805 68.5994 610.971 68.267 610.971 67.8068V67.7173C610.971 66.6009 610.656 65.7358 610.025 65.1222C609.403 64.5085 608.474 64.2017 607.238 64.2017C605.951 64.2017 604.937 64.4872 604.196 65.0582C603.463 65.6207 602.956 66.2472 602.674 66.9375L599.082 66.1193C599.508 64.9261 600.13 63.9631 600.949 63.2301C601.775 62.4886 602.725 61.9517 603.799 61.6193C604.873 61.2784 606.002 61.108 607.187 61.108C607.971 61.108 608.802 61.2017 609.68 61.3892C610.566 61.5682 611.393 61.9006 612.16 62.3864C612.936 62.8722 613.571 63.5668 614.065 64.4702C614.559 65.3651 614.806 66.5284 614.806 67.9602V81H611.074V78.3153H610.92C610.673 78.8097 610.302 79.2955 609.808 79.7727C609.314 80.25 608.679 80.6463 607.903 80.9616C607.127 81.277 606.199 81.4347 605.116 81.4347ZM605.947 78.3665C607.004 78.3665 607.907 78.1577 608.657 77.7401C609.416 77.3224 609.991 76.777 610.383 76.1037C610.784 75.4219 610.984 74.6932 610.984 73.9176V71.3864C610.848 71.5227 610.583 71.6506 610.191 71.7699C609.808 71.8807 609.369 71.9787 608.875 72.0639C608.38 72.1406 607.899 72.2131 607.43 72.2812C606.961 72.3409 606.569 72.392 606.254 72.4347C605.512 72.5284 604.835 72.6861 604.221 72.9077C603.616 73.1293 603.13 73.4489 602.764 73.8665C602.406 74.2756 602.227 74.821 602.227 75.5028C602.227 76.4489 602.576 77.1648 603.275 77.6506C603.974 78.1278 604.865 78.3665 605.947 78.3665ZM619.898 88.3636V61.3636H623.631V64.5469H623.95C624.172 64.1378 624.491 63.6648 624.909 63.1278C625.327 62.5909 625.906 62.1222 626.648 61.7216C627.389 61.3125 628.369 61.108 629.588 61.108C631.173 61.108 632.588 61.5085 633.832 62.3097C635.077 63.1108 636.053 64.2656 636.76 65.7741C637.476 67.2827 637.834 69.098 637.834 71.2202C637.834 73.3423 637.48 75.1619 636.773 76.679C636.065 78.1875 635.094 79.3509 633.858 80.169C632.622 80.9787 631.212 81.3835 629.626 81.3835C628.433 81.3835 627.457 81.1832 626.699 80.7827C625.949 80.3821 625.361 79.9134 624.935 79.3764C624.509 78.8395 624.18 78.3622 623.95 77.9446H623.72V88.3636H619.898ZM623.643 71.1818C623.643 72.5625 623.844 73.7727 624.244 74.8125C624.645 75.8523 625.224 76.6662 625.983 77.2543C626.741 77.8338 627.67 78.1236 628.77 78.1236C629.912 78.1236 630.866 77.821 631.634 77.2159C632.401 76.6023 632.98 75.7713 633.372 74.723C633.773 73.6747 633.973 72.4943 633.973 71.1818C633.973 69.8864 633.777 68.723 633.385 67.6918C633.001 66.6605 632.422 65.8466 631.646 65.25C630.879 64.6534 629.92 64.3551 628.77 64.3551C627.662 64.3551 626.724 64.6406 625.957 65.2116C625.199 65.7827 624.624 66.5795 624.232 67.6023C623.839 68.625 623.643 69.8182 623.643 71.1818ZM645.939 69.3409V81H642.116V54.8182H645.888V64.5597H646.131C646.591 63.5028 647.294 62.6634 648.24 62.0412C649.186 61.419 650.422 61.108 651.947 61.108C653.294 61.108 654.47 61.3849 655.476 61.9389C656.49 62.4929 657.274 63.3196 657.828 64.419C658.391 65.5099 658.672 66.8736 658.672 68.5099V81H654.849V68.9702C654.849 67.5298 654.479 66.4134 653.737 65.6207C652.996 64.8196 651.964 64.419 650.643 64.419C649.74 64.419 648.93 64.6108 648.214 64.9943C647.507 65.3778 646.949 65.9403 646.54 66.6818C646.139 67.4148 645.939 68.3011 645.939 69.3409ZM672.044 81.3963C670.203 81.3963 668.597 80.9744 667.224 80.1307C665.852 79.2869 664.787 78.1065 664.028 76.5895C663.27 75.0724 662.891 73.2997 662.891 71.2713C662.891 69.2344 663.27 67.4531 664.028 65.9276C664.787 64.402 665.852 63.2173 667.224 62.3736C668.597 61.5298 670.203 61.108 672.044 61.108C673.885 61.108 675.491 61.5298 676.864 62.3736C678.236 63.2173 679.301 64.402 680.06 65.9276C680.818 67.4531 681.197 69.2344 681.197 71.2713C681.197 73.2997 680.818 75.0724 680.06 76.5895C679.301 78.1065 678.236 79.2869 676.864 80.1307C675.491 80.9744 673.885 81.3963 672.044 81.3963ZM672.057 78.1875C673.25 78.1875 674.239 77.8722 675.023 77.2415C675.807 76.6108 676.386 75.7713 676.761 74.723C677.145 73.6747 677.337 72.5199 677.337 71.2585C677.337 70.0057 677.145 68.8551 676.761 67.8068C676.386 66.75 675.807 65.902 675.023 65.2628C674.239 64.6236 673.25 64.304 672.057 64.304C670.855 64.304 669.858 64.6236 669.065 65.2628C668.281 65.902 667.697 66.75 667.314 67.8068C666.939 68.8551 666.751 70.0057 666.751 71.2585C666.751 72.5199 666.939 73.6747 667.314 74.723C667.697 75.7713 668.281 76.6108 669.065 77.2415C669.858 77.8722 670.855 78.1875 672.057 78.1875ZM685.464 81V61.3636H689.159V64.483H689.363C689.721 63.4261 690.352 62.5952 691.255 61.9901C692.167 61.3764 693.199 61.0696 694.349 61.0696C694.588 61.0696 694.869 61.0781 695.193 61.0952C695.525 61.1122 695.785 61.1335 695.973 61.1591V64.8153C695.819 64.7727 695.547 64.7259 695.154 64.6747C694.762 64.6151 694.37 64.5852 693.978 64.5852C693.075 64.5852 692.27 64.777 691.562 65.1605C690.863 65.5355 690.309 66.0597 689.9 66.733C689.491 67.3977 689.287 68.1562 689.287 69.0085V81H685.464Z" fill="#224757"/>
<path d="M532.876 145V118.818H549.291V122.219H536.827V130.196H548.435V133.584H536.827V141.599H549.445V145H532.876ZM557.278 125.364L561.612 133.009L565.984 125.364H570.164L564.041 135.182L570.216 145H566.035L561.612 137.662L557.201 145H553.008L559.119 135.182L553.085 125.364H557.278ZM574.089 152.364V125.364H577.822V128.547H578.142C578.363 128.138 578.683 127.665 579.1 127.128C579.518 126.591 580.098 126.122 580.839 125.722C581.581 125.312 582.561 125.108 583.779 125.108C585.365 125.108 586.779 125.509 588.024 126.31C589.268 127.111 590.244 128.266 590.951 129.774C591.667 131.283 592.025 133.098 592.025 135.22C592.025 137.342 591.672 139.162 590.964 140.679C590.257 142.187 589.285 143.351 588.049 144.169C586.814 144.979 585.403 145.384 583.818 145.384C582.625 145.384 581.649 145.183 580.89 144.783C580.14 144.382 579.552 143.913 579.126 143.376C578.7 142.839 578.372 142.362 578.142 141.945H577.912V152.364H574.089ZM577.835 135.182C577.835 136.562 578.035 137.773 578.436 138.812C578.836 139.852 579.416 140.666 580.174 141.254C580.933 141.834 581.862 142.124 582.961 142.124C584.103 142.124 585.058 141.821 585.825 141.216C586.592 140.602 587.172 139.771 587.564 138.723C587.964 137.675 588.164 136.494 588.164 135.182C588.164 133.886 587.968 132.723 587.576 131.692C587.193 130.661 586.613 129.847 585.838 129.25C585.071 128.653 584.112 128.355 582.961 128.355C581.853 128.355 580.916 128.641 580.149 129.212C579.39 129.783 578.815 130.58 578.423 131.602C578.031 132.625 577.835 133.818 577.835 135.182ZM600.13 118.818V145H596.308V118.818H600.13ZM613.544 145.396C611.703 145.396 610.097 144.974 608.724 144.131C607.352 143.287 606.287 142.107 605.528 140.589C604.77 139.072 604.391 137.3 604.391 135.271C604.391 133.234 604.77 131.453 605.528 129.928C606.287 128.402 607.352 127.217 608.724 126.374C610.097 125.53 611.703 125.108 613.544 125.108C615.385 125.108 616.991 125.53 618.364 126.374C619.736 127.217 620.801 128.402 621.56 129.928C622.318 131.453 622.697 133.234 622.697 135.271C622.697 137.3 622.318 139.072 621.56 140.589C620.801 142.107 619.736 143.287 618.364 144.131C616.991 144.974 615.385 145.396 613.544 145.396ZM613.557 142.188C614.75 142.188 615.739 141.872 616.523 141.241C617.307 140.611 617.886 139.771 618.261 138.723C618.645 137.675 618.837 136.52 618.837 135.259C618.837 134.006 618.645 132.855 618.261 131.807C617.886 130.75 617.307 129.902 616.523 129.263C615.739 128.624 614.75 128.304 613.557 128.304C612.355 128.304 611.358 128.624 610.565 129.263C609.781 129.902 609.197 130.75 608.814 131.807C608.439 132.855 608.251 134.006 608.251 135.259C608.251 136.52 608.439 137.675 608.814 138.723C609.197 139.771 609.781 140.611 610.565 141.241C611.358 141.872 612.355 142.188 613.557 142.188ZM626.964 145V125.364H630.659V128.483H630.863C631.221 127.426 631.852 126.595 632.755 125.99C633.667 125.376 634.699 125.07 635.849 125.07C636.088 125.07 636.369 125.078 636.693 125.095C637.025 125.112 637.285 125.134 637.473 125.159V128.815C637.319 128.773 637.047 128.726 636.654 128.675C636.262 128.615 635.87 128.585 635.478 128.585C634.575 128.585 633.77 128.777 633.062 129.161C632.363 129.536 631.809 130.06 631.4 130.733C630.991 131.398 630.787 132.156 630.787 133.009V145H626.964ZM646.319 145.435C645.075 145.435 643.95 145.205 642.944 144.744C641.939 144.276 641.142 143.598 640.554 142.712C639.974 141.825 639.684 140.739 639.684 139.452C639.684 138.344 639.897 137.432 640.324 136.716C640.75 136 641.325 135.433 642.049 135.016C642.774 134.598 643.583 134.283 644.478 134.07C645.373 133.857 646.285 133.695 647.214 133.584C648.39 133.447 649.345 133.337 650.078 133.251C650.811 133.158 651.343 133.009 651.676 132.804C652.008 132.599 652.174 132.267 652.174 131.807V131.717C652.174 130.601 651.859 129.736 651.228 129.122C650.606 128.509 649.677 128.202 648.441 128.202C647.154 128.202 646.14 128.487 645.399 129.058C644.666 129.621 644.159 130.247 643.877 130.938L640.285 130.119C640.711 128.926 641.333 127.963 642.152 127.23C642.978 126.489 643.929 125.952 645.002 125.619C646.076 125.278 647.206 125.108 648.39 125.108C649.174 125.108 650.005 125.202 650.883 125.389C651.77 125.568 652.596 125.901 653.363 126.386C654.139 126.872 654.774 127.567 655.268 128.47C655.762 129.365 656.01 130.528 656.01 131.96V145H652.277V142.315H652.123C651.876 142.81 651.505 143.295 651.011 143.773C650.517 144.25 649.882 144.646 649.106 144.962C648.331 145.277 647.402 145.435 646.319 145.435ZM647.15 142.366C648.207 142.366 649.11 142.158 649.86 141.74C650.619 141.322 651.194 140.777 651.586 140.104C651.987 139.422 652.187 138.693 652.187 137.918V135.386C652.051 135.523 651.787 135.651 651.395 135.77C651.011 135.881 650.572 135.979 650.078 136.064C649.583 136.141 649.102 136.213 648.633 136.281C648.164 136.341 647.772 136.392 647.457 136.435C646.716 136.528 646.038 136.686 645.424 136.908C644.819 137.129 644.333 137.449 643.967 137.866C643.609 138.276 643.43 138.821 643.43 139.503C643.43 140.449 643.779 141.165 644.478 141.651C645.177 142.128 646.068 142.366 647.15 142.366ZM670.267 125.364V128.432H659.541V125.364H670.267ZM662.418 120.659H666.24V139.234C666.24 139.976 666.351 140.534 666.572 140.909C666.794 141.276 667.08 141.527 667.429 141.663C667.787 141.791 668.175 141.855 668.592 141.855C668.899 141.855 669.168 141.834 669.398 141.791C669.628 141.749 669.807 141.714 669.935 141.689L670.625 144.847C670.403 144.932 670.088 145.017 669.679 145.102C669.27 145.196 668.759 145.247 668.145 145.256C667.139 145.273 666.202 145.094 665.332 144.719C664.463 144.344 663.76 143.764 663.223 142.98C662.686 142.196 662.418 141.212 662.418 140.027V120.659ZM682.556 145.396C680.715 145.396 679.108 144.974 677.736 144.131C676.364 143.287 675.299 142.107 674.54 140.589C673.782 139.072 673.402 137.3 673.402 135.271C673.402 133.234 673.782 131.453 674.54 129.928C675.299 128.402 676.364 127.217 677.736 126.374C679.108 125.53 680.715 125.108 682.556 125.108C684.397 125.108 686.003 125.53 687.375 126.374C688.748 127.217 689.813 128.402 690.571 129.928C691.33 131.453 691.709 133.234 691.709 135.271C691.709 137.3 691.33 139.072 690.571 140.589C689.813 142.107 688.748 143.287 687.375 144.131C686.003 144.974 684.397 145.396 682.556 145.396ZM682.569 142.188C683.762 142.188 684.75 141.872 685.534 141.241C686.319 140.611 686.898 139.771 687.273 138.723C687.657 137.675 687.848 136.52 687.848 135.259C687.848 134.006 687.657 132.855 687.273 131.807C686.898 130.75 686.319 129.902 685.534 129.263C684.75 128.624 683.762 128.304 682.569 128.304C681.367 128.304 680.37 128.624 679.577 129.263C678.793 129.902 678.209 130.75 677.826 131.807C677.451 132.855 677.263 134.006 677.263 135.259C677.263 136.52 677.451 137.675 677.826 138.723C678.209 139.771 678.793 140.611 679.577 141.241C680.37 141.872 681.367 142.188 682.569 142.188ZM695.976 145V125.364H699.67V128.483H699.875C700.233 127.426 700.864 126.595 701.767 125.99C702.679 125.376 703.71 125.07 704.861 125.07C705.099 125.07 705.381 125.078 705.705 125.095C706.037 125.112 706.297 125.134 706.484 125.159V128.815C706.331 128.773 706.058 128.726 705.666 128.675C705.274 128.615 704.882 128.585 704.49 128.585C703.587 128.585 702.781 128.777 702.074 129.161C701.375 129.536 700.821 130.06 700.412 130.733C700.003 131.398 699.798 132.156 699.798 133.009V145H695.976ZM712.806 152.364C712.235 152.364 711.715 152.317 711.246 152.223C710.778 152.138 710.428 152.044 710.198 151.942L711.119 148.81C711.817 148.997 712.44 149.078 712.985 149.053C713.531 149.027 714.012 148.822 714.43 148.439C714.856 148.055 715.231 147.429 715.555 146.56L716.028 145.256L708.843 125.364H712.934L717.907 140.602H718.112L723.085 125.364H727.188L719.096 147.621C718.721 148.643 718.244 149.509 717.664 150.216C717.085 150.932 716.394 151.469 715.593 151.827C714.792 152.185 713.863 152.364 712.806 152.364Z" fill="#224757"/>
<defs>
<clipPath id="clip0_413_10230">
<rect width="45" height="40" fill="white" transform="translate(30 30)"/>
</clipPath>
</defs>
</svg>
