<svg width="760" height="200" viewBox="0 0 760 200" fill="none" xmlns="http://www.w3.org/2000/svg">
<rect width="760" height="200" rx="30" fill="#F8F1F1"/>
<path d="M40.6406 41.7422L48.1406 48.6172C48.5312 48.9766 48.75 49.4766 48.75 50C48.75 50.5234 48.5312 51.0234 48.1406 51.3828L40.6406 58.2578C39.875 58.9531 38.6953 58.8359 37.9922 58.1406C37.293 57.375 37.3445 56.1953 38.1094 55.4922L44.1016 50L38.1094 44.5078C37.3445 43.8047 37.293 42.625 37.9922 41.8594C38.6953 41.0938 39.875 41.0469 40.6406 41.7422ZM60.625 56.25C61.6641 56.25 62.5 57.0859 62.5 58.125C62.5 59.1641 61.6641 60 60.625 60H49.375C48.3359 60 47.5 59.1641 47.5 58.125C47.5 57.0859 48.3359 56.25 49.375 56.25H60.625ZM65 32.5C67.7578 32.5 70 34.7383 70 37.5V62.5C70 65.2578 67.7578 67.5 65 67.5H35C32.2383 67.5 30 65.2578 30 62.5V37.5C30 34.7383 32.2383 32.5 35 32.5H65ZM65 36.25H35C34.3094 36.25 33.75 36.8094 33.75 37.5V62.5C33.75 63.1875 34.3094 63.75 35 63.75H65C65.6875 63.75 66.25 63.1875 66.25 62.5V37.5C66.25 36.8094 65.6875 36.25 65 36.25Z" fill="#224757"/>
<path d="M54.6222 107.332H50.6335C50.4801 106.48 50.1946 105.73 49.777 105.082C49.3594 104.435 48.848 103.885 48.2429 103.433C47.6378 102.982 46.9602 102.641 46.2102 102.411C45.4688 102.18 44.6804 102.065 43.8452 102.065C42.3366 102.065 40.9858 102.445 39.7926 103.203C38.608 103.962 37.6705 105.074 36.9801 106.54C36.2983 108.006 35.9574 109.795 35.9574 111.909C35.9574 114.04 36.2983 115.838 36.9801 117.304C37.6705 118.77 38.6122 119.878 39.8054 120.628C40.9986 121.378 42.3409 121.753 43.8324 121.753C44.6591 121.753 45.4432 121.642 46.1847 121.42C46.9347 121.19 47.6122 120.854 48.2173 120.411C48.8224 119.967 49.3338 119.426 49.7514 118.787C50.1776 118.139 50.4716 117.398 50.6335 116.562L54.6222 116.575C54.4091 117.862 53.9957 119.047 53.3821 120.129C52.777 121.203 51.9972 122.132 51.0426 122.916C50.0966 123.692 49.0142 124.293 47.7955 124.719C46.5767 125.145 45.2472 125.358 43.8068 125.358C41.5398 125.358 39.5199 124.821 37.7472 123.747C35.9744 122.665 34.5767 121.118 33.554 119.107C32.5398 117.095 32.0327 114.696 32.0327 111.909C32.0327 109.114 32.544 106.714 33.5668 104.712C34.5895 102.7 35.9872 101.158 37.7599 100.084C39.5327 99.0014 41.5483 98.4602 43.8068 98.4602C45.196 98.4602 46.4915 98.6605 47.6932 99.0611C48.9034 99.4531 49.9901 100.033 50.9531 100.8C51.9162 101.558 52.7131 102.487 53.3438 103.587C53.9744 104.678 54.4006 105.926 54.6222 107.332ZM59.3491 125V98.8182H63.2994V121.599H75.163V125H59.3491ZM83.6197 98.8182V125H79.6694V98.8182H83.6197Z" fill="#224757"/>
<path d="M47.7827 151.24H44.902C44.7912 150.625 44.585 150.083 44.2834 149.615C43.9818 149.147 43.6125 148.75 43.1754 148.424C42.7384 148.098 42.2491 147.852 41.7074 147.685C41.1719 147.519 40.6025 147.436 39.9993 147.436C38.9098 147.436 37.9342 147.71 37.0724 148.258C36.2169 148.806 35.5398 149.609 35.0412 150.668C34.5488 151.726 34.3026 153.019 34.3026 154.545C34.3026 156.084 34.5488 157.383 35.0412 158.442C35.5398 159.5 36.2199 160.301 37.0817 160.842C37.9434 161.384 38.9129 161.655 39.9901 161.655C40.5871 161.655 41.1534 161.575 41.6889 161.415C42.2306 161.249 42.7199 161.005 43.157 160.685C43.594 160.365 43.9633 159.974 44.2649 159.513C44.5727 159.045 44.785 158.509 44.902 157.906L47.7827 157.915C47.6288 158.845 47.3303 159.701 46.8871 160.482C46.45 161.258 45.8868 161.929 45.1974 162.495C44.5142 163.055 43.7325 163.489 42.8523 163.797C41.9721 164.105 41.0118 164.259 39.9716 164.259C38.3343 164.259 36.8755 163.871 35.5952 163.095C34.3149 162.313 33.3054 161.196 32.5668 159.744C31.8343 158.291 31.468 156.558 31.468 154.545C31.468 152.527 31.8374 150.794 32.576 149.347C33.3146 147.895 34.3241 146.781 35.6044 146.005C36.8847 145.223 38.3404 144.832 39.9716 144.832C40.9749 144.832 41.9105 144.977 42.7784 145.266C43.6525 145.549 44.4373 145.968 45.1328 146.522C45.8284 147.07 46.4039 147.741 46.8594 148.535C47.3149 149.323 47.6226 150.224 47.7827 151.24ZM67.622 154.545C67.622 156.564 67.2527 158.3 66.514 159.753C65.7754 161.199 64.7628 162.313 63.4764 163.095C62.1961 163.871 60.7404 164.259 59.1092 164.259C57.4719 164.259 56.01 163.871 54.7235 163.095C53.4432 162.313 52.4338 161.196 51.6951 159.744C50.9565 158.291 50.5872 156.558 50.5872 154.545C50.5872 152.527 50.9565 150.794 51.6951 149.347C52.4338 147.895 53.4432 146.781 54.7235 146.005C56.01 145.223 57.4719 144.832 59.1092 144.832C60.7404 144.832 62.1961 145.223 63.4764 146.005C64.7628 146.781 65.7754 147.895 66.514 149.347C67.2527 150.794 67.622 152.527 67.622 154.545ZM64.7967 154.545C64.7967 153.007 64.5474 151.711 64.0488 150.658C63.5564 149.6 62.8793 148.799 62.0176 148.258C61.162 147.71 60.1925 147.436 59.1092 147.436C58.0197 147.436 57.0472 147.71 56.1916 148.258C55.336 148.799 54.6589 149.6 54.1603 150.658C53.6679 151.711 53.4217 153.007 53.4217 154.545C53.4217 156.084 53.6679 157.383 54.1603 158.442C54.6589 159.494 55.336 160.295 56.1916 160.842C57.0472 161.384 58.0197 161.655 59.1092 161.655C60.1925 161.655 61.162 161.384 62.0176 160.842C62.8793 160.295 63.5564 159.494 64.0488 158.442C64.5474 157.383 64.7967 156.084 64.7967 154.545ZM71.179 145.091H74.6413L80.6612 159.79H80.8828L86.9027 145.091H90.3651V164H87.6506V150.317H87.4751L81.8984 163.972H79.6456L74.0689 150.308H73.8935V164H71.179V145.091ZM94.513 145.091H97.9753L103.995 159.79H104.217L110.237 145.091H113.699V164H110.985V150.317H110.809L105.232 163.972H102.98L97.4029 150.308H97.2275V164H94.513V145.091ZM119.444 164H116.416L123.221 145.091H126.517L133.321 164H130.293L124.947 148.526H124.799L119.444 164ZM119.952 156.595H129.776V158.996H119.952V156.595ZM151.314 145.091V164H148.692L139.08 150.132H138.905V164H136.052V145.091H138.693L148.313 158.977H148.489V145.091H151.314ZM161.597 164H155.476V145.091H161.791C163.644 145.091 165.235 145.469 166.565 146.227C167.894 146.978 168.913 148.058 169.621 149.467C170.335 150.871 170.692 152.554 170.692 154.518C170.692 156.487 170.332 158.18 169.612 159.596C168.897 161.012 167.863 162.101 166.509 162.864C165.155 163.621 163.518 164 161.597 164ZM158.329 161.507H161.44C162.881 161.507 164.078 161.236 165.032 160.695C165.986 160.147 166.7 159.356 167.174 158.322C167.648 157.281 167.885 156.013 167.885 154.518C167.885 153.034 167.648 151.776 167.174 150.741C166.706 149.707 166.008 148.923 165.078 148.387C164.149 147.852 162.995 147.584 161.616 147.584H158.329V161.507ZM182.374 153.345V155.746H173.99V153.345H182.374ZM186.275 164V145.091H189.128V161.544H197.696V164H186.275ZM203.803 145.091V164H200.95V145.091H203.803ZM223.22 145.091V164H220.598L210.987 150.132H210.811V164H207.958V145.091H210.599L220.22 158.977H220.395V145.091H223.22ZM227.382 164V145.091H239.237V147.547H230.235V153.308H238.619V155.755H230.235V161.544H239.348V164H227.382ZM252.782 145.091V164H249.929V145.091H252.782ZM272.199 145.091V164H269.577L259.965 150.132H259.79V164H256.937V145.091H259.577L269.198 158.977H269.374V145.091H272.199ZM275.428 147.547V145.091H290.062V147.547H284.162V164H281.319V147.547H275.428ZM293.296 164V145.091H305.151V147.547H296.149V153.308H304.533V155.755H296.149V161.544H305.262V164H293.296ZM308.962 164V145.091H315.702C317.167 145.091 318.383 145.343 319.349 145.848C320.322 146.353 321.048 147.051 321.528 147.944C322.008 148.83 322.248 149.855 322.248 151.018C322.248 152.176 322.005 153.194 321.519 154.075C321.039 154.949 320.313 155.629 319.34 156.115C318.374 156.601 317.158 156.844 315.693 156.844H310.587V154.388H315.434C316.358 154.388 317.109 154.256 317.687 153.991C318.272 153.727 318.7 153.342 318.971 152.837C319.242 152.333 319.377 151.726 319.377 151.018C319.377 150.304 319.238 149.686 318.961 149.163C318.691 148.639 318.263 148.239 317.678 147.962C317.099 147.679 316.339 147.538 315.398 147.538H311.815V164H308.962ZM318.297 155.469L322.969 164H319.719L315.139 155.469H318.297ZM325.72 164V145.091H337.446V147.547H328.573V153.308H336.606V155.755H328.573V164H325.72ZM340.19 164H337.162L343.967 145.091H347.263L354.067 164H351.039L345.693 148.526H345.545L340.19 164ZM340.698 156.595H350.522V158.996H340.698V156.595ZM371.615 151.24H368.734C368.623 150.625 368.417 150.083 368.115 149.615C367.814 149.147 367.444 148.75 367.007 148.424C366.57 148.098 366.081 147.852 365.539 147.685C365.004 147.519 364.435 147.436 363.831 147.436C362.742 147.436 361.766 147.71 360.904 148.258C360.049 148.806 359.372 149.609 358.873 150.668C358.381 151.726 358.135 153.019 358.135 154.545C358.135 156.084 358.381 157.383 358.873 158.442C359.372 159.5 360.052 160.301 360.914 160.842C361.775 161.384 362.745 161.655 363.822 161.655C364.419 161.655 364.985 161.575 365.521 161.415C366.063 161.249 366.552 161.005 366.989 160.685C367.426 160.365 367.795 159.974 368.097 159.513C368.405 159.045 368.617 158.509 368.734 157.906L371.615 157.915C371.461 158.845 371.162 159.701 370.719 160.482C370.282 161.258 369.719 161.929 369.029 162.495C368.346 163.055 367.565 163.489 366.684 163.797C365.804 164.105 364.844 164.259 363.804 164.259C362.166 164.259 360.708 163.871 359.427 163.095C358.147 162.313 357.137 161.196 356.399 159.744C355.666 158.291 355.3 156.558 355.3 154.545C355.3 152.527 355.669 150.794 356.408 149.347C357.147 147.895 358.156 146.781 359.436 146.005C360.717 145.223 362.172 144.832 363.804 144.832C364.807 144.832 365.743 144.977 366.61 145.266C367.484 145.549 368.269 145.968 368.965 146.522C369.66 147.07 370.236 147.741 370.691 148.535C371.147 149.323 371.455 150.224 371.615 151.24ZM375.029 164V145.091H386.884V147.547H377.882V153.308H386.265V155.755H377.882V161.544H386.994V164H375.029ZM401.008 150.058C400.909 149.184 400.503 148.507 399.789 148.027C399.075 147.541 398.176 147.298 397.093 147.298C396.317 147.298 395.647 147.421 395.08 147.667C394.514 147.907 394.074 148.239 393.76 148.664C393.452 149.083 393.298 149.56 393.298 150.095C393.298 150.545 393.403 150.932 393.612 151.259C393.828 151.585 394.108 151.859 394.452 152.08C394.803 152.296 395.179 152.477 395.579 152.625C395.979 152.767 396.364 152.884 396.733 152.976L398.58 153.456C399.183 153.604 399.801 153.804 400.435 154.056C401.069 154.308 401.657 154.641 402.199 155.053C402.741 155.466 403.178 155.977 403.51 156.586C403.848 157.195 404.018 157.925 404.018 158.774C404.018 159.845 403.741 160.796 403.187 161.627C402.639 162.458 401.842 163.114 400.795 163.594C399.755 164.074 398.496 164.314 397.019 164.314C395.603 164.314 394.379 164.089 393.344 163.64C392.31 163.191 391.501 162.554 390.916 161.729C390.331 160.898 390.008 159.913 389.947 158.774H392.809C392.864 159.457 393.086 160.027 393.474 160.482C393.868 160.932 394.369 161.267 394.979 161.489C395.594 161.704 396.268 161.812 397.001 161.812C397.807 161.812 398.524 161.686 399.152 161.433C399.786 161.175 400.285 160.818 400.648 160.362C401.011 159.901 401.192 159.362 401.192 158.746C401.192 158.186 401.032 157.728 400.712 157.371C400.398 157.014 399.971 156.718 399.429 156.484C398.893 156.25 398.287 156.044 397.61 155.866L395.376 155.256C393.862 154.844 392.661 154.238 391.775 153.438C390.895 152.637 390.455 151.579 390.455 150.261C390.455 149.172 390.75 148.221 391.341 147.408C391.932 146.596 392.732 145.965 393.741 145.516C394.751 145.06 395.89 144.832 397.158 144.832C398.438 144.832 399.567 145.057 400.546 145.506C401.531 145.956 402.307 146.574 402.873 147.362C403.439 148.144 403.735 149.043 403.759 150.058H401.008Z" fill="#A9B4B9"/>
<path d="M370 97.5C368.619 97.5 367.5 98.6193 367.5 100C367.5 101.381 368.619 102.5 370 102.5V97.5ZM481.768 101.768C482.744 100.791 482.744 99.2085 481.768 98.2322L465.858 82.3223C464.882 81.346 463.299 81.346 462.322 82.3223C461.346 83.2986 461.346 84.8816 462.322 85.8579L476.464 100L462.322 114.142C461.346 115.118 461.346 116.701 462.322 117.678C463.299 118.654 464.882 118.654 465.858 117.678L481.768 101.768ZM370 102.5H480V97.5H370V102.5Z" fill="#FF9900"/>
<path d="M554.622 63.3324H550.634C550.48 62.4801 550.195 61.7301 549.777 61.0824C549.359 60.4347 548.848 59.8849 548.243 59.4332C547.638 58.9815 546.96 58.6406 546.21 58.4105C545.469 58.1804 544.68 58.0653 543.845 58.0653C542.337 58.0653 540.986 58.4446 539.793 59.2031C538.608 59.9616 537.67 61.0739 536.98 62.5398C536.298 64.0057 535.957 65.7955 535.957 67.9091C535.957 70.0398 536.298 71.8381 536.98 73.304C537.67 74.7699 538.612 75.8778 539.805 76.6278C540.999 77.3778 542.341 77.7528 543.832 77.7528C544.659 77.7528 545.443 77.642 546.185 77.4205C546.935 77.1903 547.612 76.8537 548.217 76.4105C548.822 75.9673 549.334 75.4261 549.751 74.7869C550.178 74.1392 550.472 73.3977 550.634 72.5625L554.622 72.5753C554.409 73.8622 553.996 75.0469 553.382 76.1293C552.777 77.2031 551.997 78.1321 551.043 78.9162C550.097 79.6918 549.014 80.2926 547.795 80.7188C546.577 81.1449 545.247 81.358 543.807 81.358C541.54 81.358 539.52 80.821 537.747 79.7472C535.974 78.6648 534.577 77.1179 533.554 75.1065C532.54 73.0952 532.033 70.696 532.033 67.9091C532.033 65.1136 532.544 62.7145 533.567 60.7116C534.589 58.7003 535.987 57.1577 537.76 56.0838C539.533 55.0014 541.548 54.4602 543.807 54.4602C545.196 54.4602 546.491 54.6605 547.693 55.0611C548.903 55.4531 549.99 56.0327 550.953 56.7997C551.916 57.5582 552.713 58.4872 553.344 59.5866C553.974 60.6776 554.401 61.9261 554.622 63.3324ZM567.314 81.3963C565.473 81.3963 563.866 80.9744 562.494 80.1307C561.122 79.2869 560.056 78.1065 559.298 76.5895C558.539 75.0724 558.16 73.2997 558.16 71.2713C558.16 69.2344 558.539 67.4531 559.298 65.9276C560.056 64.402 561.122 63.2173 562.494 62.3736C563.866 61.5298 565.473 61.108 567.314 61.108C569.154 61.108 570.761 61.5298 572.133 62.3736C573.505 63.2173 574.571 64.402 575.329 65.9276C576.088 67.4531 576.467 69.2344 576.467 71.2713C576.467 73.2997 576.088 75.0724 575.329 76.5895C574.571 78.1065 573.505 79.2869 572.133 80.1307C570.761 80.9744 569.154 81.3963 567.314 81.3963ZM567.326 78.1875C568.52 78.1875 569.508 77.8722 570.292 77.2415C571.076 76.6108 571.656 75.7713 572.031 74.723C572.414 73.6747 572.606 72.5199 572.606 71.2585C572.606 70.0057 572.414 68.8551 572.031 67.8068C571.656 66.75 571.076 65.902 570.292 65.2628C569.508 64.6236 568.52 64.304 567.326 64.304C566.125 64.304 565.127 64.6236 564.335 65.2628C563.551 65.902 562.967 66.75 562.583 67.8068C562.208 68.8551 562.021 70.0057 562.021 71.2585C562.021 72.5199 562.208 73.6747 562.583 74.723C562.967 75.7713 563.551 76.6108 564.335 77.2415C565.127 77.8722 566.125 78.1875 567.326 78.1875ZM588.085 81.3835C586.499 81.3835 585.085 80.9787 583.84 80.169C582.604 79.3509 581.633 78.1875 580.925 76.679C580.227 75.1619 579.877 73.3423 579.877 71.2202C579.877 69.098 580.231 67.2827 580.938 65.7741C581.654 64.2656 582.634 63.1108 583.879 62.3097C585.123 61.5085 586.533 61.108 588.11 61.108C589.329 61.108 590.309 61.3125 591.05 61.7216C591.8 62.1222 592.38 62.5909 592.789 63.1278C593.207 63.6648 593.531 64.1378 593.761 64.5469H593.991V54.8182H597.813V81H594.08V77.9446H593.761C593.531 78.3622 593.198 78.8395 592.763 79.3764C592.337 79.9134 591.749 80.3821 590.999 80.7827C590.249 81.1832 589.278 81.3835 588.085 81.3835ZM588.928 78.1236C590.028 78.1236 590.957 77.8338 591.715 77.2543C592.482 76.6662 593.062 75.8523 593.454 74.8125C593.854 73.7727 594.055 72.5625 594.055 71.1818C594.055 69.8182 593.859 68.625 593.467 67.6023C593.075 66.5795 592.499 65.7827 591.741 65.2116C590.982 64.6406 590.045 64.3551 588.928 64.3551C587.778 64.3551 586.819 64.6534 586.052 65.25C585.285 65.8466 584.705 66.6605 584.313 67.6918C583.93 68.723 583.738 69.8864 583.738 71.1818C583.738 72.4943 583.934 73.6747 584.326 74.723C584.718 75.7713 585.298 76.6023 586.065 77.2159C586.84 77.821 587.795 78.1236 588.928 78.1236ZM603.269 81V61.3636H607.091V81H603.269ZM605.199 58.3338C604.534 58.3338 603.963 58.1122 603.486 57.669C603.017 57.2173 602.783 56.6804 602.783 56.0582C602.783 55.4276 603.017 54.8906 603.486 54.4474C603.963 53.9957 604.534 53.7699 605.199 53.7699C605.864 53.7699 606.431 53.9957 606.9 54.4474C607.377 54.8906 607.615 55.4276 607.615 56.0582C607.615 56.6804 607.377 57.2173 606.9 57.669C606.431 58.1122 605.864 58.3338 605.199 58.3338ZM621.579 61.3636V64.4318H610.482V61.3636H621.579ZM613.525 81V59.0881C613.525 57.8608 613.793 56.8423 614.33 56.0327C614.867 55.2145 615.579 54.6051 616.465 54.2045C617.352 53.7955 618.315 53.5909 619.354 53.5909C620.121 53.5909 620.778 53.6548 621.323 53.7827C621.869 53.902 622.273 54.0128 622.538 54.1151L621.643 57.2088C621.464 57.1577 621.234 57.098 620.952 57.0298C620.671 56.9531 620.33 56.9148 619.93 56.9148C619.001 56.9148 618.336 57.1449 617.935 57.6051C617.543 58.0653 617.347 58.7301 617.347 59.5994V81H613.525ZM625.523 81V61.3636H629.345V81H625.523ZM627.453 58.3338C626.788 58.3338 626.217 58.1122 625.74 57.669C625.271 57.2173 625.037 56.6804 625.037 56.0582C625.037 55.4276 625.271 54.8906 625.74 54.4474C626.217 53.9957 626.788 53.7699 627.453 53.7699C628.118 53.7699 628.685 53.9957 629.153 54.4474C629.631 54.8906 629.869 55.4276 629.869 56.0582C629.869 56.6804 629.631 57.2173 629.153 57.669C628.685 58.1122 628.118 58.3338 627.453 58.3338ZM642.951 81.3963C641.016 81.3963 639.35 80.983 637.952 80.1562C636.563 79.321 635.489 78.1491 634.73 76.6406C633.98 75.1236 633.605 73.3466 633.605 71.3097C633.605 69.2983 633.98 67.5256 634.73 65.9915C635.489 64.4574 636.546 63.2599 637.901 62.3991C639.265 61.5384 640.858 61.108 642.682 61.108C643.79 61.108 644.864 61.2912 645.904 61.6577C646.944 62.0241 647.877 62.5994 648.703 63.3835C649.53 64.1676 650.182 65.1861 650.659 66.4389C651.137 67.6832 651.375 69.196 651.375 70.9773V72.3324H635.766V69.4688H647.63C647.63 68.4631 647.425 67.5724 647.016 66.7969C646.607 66.0128 646.032 65.3949 645.29 64.9432C644.557 64.4915 643.696 64.2656 642.708 64.2656C641.634 64.2656 640.696 64.5298 639.895 65.0582C639.103 65.5781 638.489 66.2599 638.054 67.1037C637.628 67.9389 637.415 68.8466 637.415 69.8267V72.0639C637.415 73.3764 637.645 74.4929 638.105 75.4134C638.574 76.3338 639.226 77.0369 640.061 77.5227C640.897 78 641.873 78.2386 642.989 78.2386C643.713 78.2386 644.374 78.1364 644.971 77.9318C645.567 77.7187 646.083 77.4034 646.517 76.9858C646.952 76.5682 647.284 76.0526 647.515 75.4389L651.132 76.0909C650.843 77.1562 650.323 78.0895 649.573 78.8906C648.831 79.6832 647.898 80.3011 646.773 80.7443C645.657 81.179 644.382 81.3963 642.951 81.3963ZM662.967 81.3835C661.382 81.3835 659.967 80.9787 658.723 80.169C657.487 79.3509 656.516 78.1875 655.808 76.679C655.109 75.1619 654.76 73.3423 654.76 71.2202C654.76 69.098 655.114 67.2827 655.821 65.7741C656.537 64.2656 657.517 63.1108 658.761 62.3097C660.006 61.5085 661.416 61.108 662.993 61.108C664.212 61.108 665.192 61.3125 665.933 61.7216C666.683 62.1222 667.263 62.5909 667.672 63.1278C668.089 63.6648 668.413 64.1378 668.643 64.5469H668.874V54.8182H672.696V81H668.963V77.9446H668.643C668.413 78.3622 668.081 78.8395 667.646 79.3764C667.22 79.9134 666.632 80.3821 665.882 80.7827C665.132 81.1832 664.161 81.3835 662.967 81.3835ZM663.811 78.1236C664.911 78.1236 665.839 77.8338 666.598 77.2543C667.365 76.6662 667.945 75.8523 668.337 74.8125C668.737 73.7727 668.938 72.5625 668.938 71.1818C668.938 69.8182 668.741 68.625 668.349 67.6023C667.957 66.5795 667.382 65.7827 666.624 65.2116C665.865 64.6406 664.928 64.3551 663.811 64.3551C662.661 64.3551 661.702 64.6534 660.935 65.25C660.168 65.8466 659.588 66.6605 659.196 67.6918C658.813 68.723 658.621 69.8864 658.621 71.1818C658.621 72.4943 658.817 73.6747 659.209 74.723C659.601 75.7713 660.18 76.6023 660.947 77.2159C661.723 77.821 662.678 78.1236 663.811 78.1236Z" fill="#224757"/>
<path d="M547.156 125.696C547.02 124.486 546.457 123.548 545.469 122.884C544.48 122.21 543.236 121.874 541.736 121.874C540.662 121.874 539.733 122.044 538.949 122.385C538.165 122.717 537.555 123.178 537.121 123.766C536.695 124.345 536.482 125.006 536.482 125.747C536.482 126.369 536.626 126.906 536.916 127.358C537.214 127.81 537.602 128.189 538.08 128.496C538.565 128.794 539.085 129.045 539.639 129.25C540.193 129.446 540.726 129.608 541.237 129.736L543.794 130.401C544.629 130.605 545.486 130.882 546.364 131.232C547.241 131.581 548.055 132.041 548.805 132.612C549.555 133.183 550.161 133.891 550.621 134.734C551.089 135.578 551.324 136.588 551.324 137.764C551.324 139.247 550.94 140.564 550.173 141.714C549.415 142.865 548.311 143.773 546.862 144.438C545.422 145.102 543.679 145.435 541.634 145.435C539.673 145.435 537.977 145.124 536.545 144.501C535.114 143.879 533.993 142.997 533.183 141.855C532.374 140.705 531.926 139.341 531.841 137.764H535.804C535.881 138.71 536.188 139.499 536.724 140.129C537.27 140.751 537.964 141.216 538.808 141.523C539.661 141.821 540.594 141.97 541.608 141.97C542.724 141.97 543.717 141.795 544.587 141.446C545.464 141.088 546.155 140.594 546.658 139.963C547.161 139.324 547.412 138.578 547.412 137.726C547.412 136.95 547.19 136.315 546.747 135.821C546.313 135.327 545.72 134.918 544.97 134.594C544.229 134.27 543.389 133.984 542.452 133.737L539.358 132.893C537.261 132.322 535.599 131.483 534.372 130.375C533.153 129.267 532.544 127.801 532.544 125.977C532.544 124.469 532.953 123.152 533.771 122.027C534.589 120.902 535.697 120.028 537.095 119.406C538.493 118.776 540.07 118.46 541.825 118.46C543.598 118.46 545.162 118.771 546.517 119.393C547.881 120.016 548.955 120.872 549.739 121.963C550.523 123.045 550.932 124.29 550.966 125.696H547.156ZM564.904 125.364V128.432H554.178V125.364H564.904ZM557.054 120.659H560.877V139.234C560.877 139.976 560.988 140.534 561.209 140.909C561.431 141.276 561.716 141.527 562.066 141.663C562.424 141.791 562.811 141.855 563.229 141.855C563.536 141.855 563.804 141.834 564.034 141.791C564.265 141.749 564.444 141.714 564.571 141.689L565.262 144.847C565.04 144.932 564.725 145.017 564.316 145.102C563.907 145.196 563.395 145.247 562.782 145.256C561.776 145.273 560.838 145.094 559.969 144.719C559.1 144.344 558.397 143.764 557.86 142.98C557.323 142.196 557.054 141.212 557.054 140.027V120.659ZM569.132 145V125.364H572.827V128.483H573.031C573.389 127.426 574.02 126.595 574.923 125.99C575.835 125.376 576.866 125.07 578.017 125.07C578.256 125.07 578.537 125.078 578.861 125.095C579.193 125.112 579.453 125.134 579.641 125.159V128.815C579.487 128.773 579.214 128.726 578.822 128.675C578.43 128.615 578.038 128.585 577.646 128.585C576.743 128.585 575.938 128.777 575.23 129.161C574.531 129.536 573.977 130.06 573.568 130.733C573.159 131.398 572.955 132.156 572.955 133.009V145H569.132ZM582.949 145V125.364H586.771V145H582.949ZM584.879 122.334C584.214 122.334 583.643 122.112 583.166 121.669C582.697 121.217 582.463 120.68 582.463 120.058C582.463 119.428 582.697 118.891 583.166 118.447C583.643 117.996 584.214 117.77 584.879 117.77C585.544 117.77 586.11 117.996 586.579 118.447C587.056 118.891 587.295 119.428 587.295 120.058C587.295 120.68 587.056 121.217 586.579 121.669C586.11 122.112 585.544 122.334 584.879 122.334ZM600.185 145.396C598.284 145.396 596.648 144.966 595.276 144.105C593.912 143.236 592.864 142.038 592.131 140.513C591.398 138.987 591.031 137.24 591.031 135.271C591.031 133.277 591.406 131.517 592.156 129.991C592.906 128.457 593.963 127.26 595.327 126.399C596.69 125.538 598.297 125.108 600.146 125.108C601.638 125.108 602.967 125.385 604.135 125.939C605.303 126.484 606.244 127.251 606.96 128.24C607.685 129.229 608.115 130.384 608.251 131.705H604.531C604.327 130.784 603.858 129.991 603.125 129.327C602.401 128.662 601.429 128.33 600.21 128.33C599.145 128.33 598.212 128.611 597.411 129.173C596.618 129.727 596 130.52 595.557 131.551C595.114 132.574 594.892 133.784 594.892 135.182C594.892 136.614 595.109 137.849 595.544 138.889C595.979 139.929 596.592 140.734 597.385 141.305C598.186 141.876 599.128 142.162 600.21 142.162C600.935 142.162 601.591 142.03 602.179 141.766C602.776 141.493 603.274 141.105 603.675 140.602C604.084 140.099 604.369 139.494 604.531 138.787H608.251C608.115 140.057 607.702 141.19 607.011 142.188C606.321 143.185 605.396 143.969 604.237 144.54C603.087 145.111 601.736 145.396 600.185 145.396ZM621.505 125.364V128.432H610.779V125.364H621.505ZM613.656 120.659H617.478V139.234C617.478 139.976 617.589 140.534 617.811 140.909C618.032 141.276 618.318 141.527 618.667 141.663C619.025 141.791 619.413 141.855 619.831 141.855C620.137 141.855 620.406 141.834 620.636 141.791C620.866 141.749 621.045 141.714 621.173 141.689L621.863 144.847C621.642 144.932 621.326 145.017 620.917 145.102C620.508 145.196 619.997 145.247 619.383 145.256C618.377 145.273 617.44 145.094 616.571 144.719C615.701 144.344 614.998 143.764 614.461 142.98C613.924 142.196 613.656 141.212 613.656 140.027V120.659Z" fill="#224757"/>
</svg>
