<svg width="463" height="183" viewBox="0 0 463 183" fill="none" xmlns="http://www.w3.org/2000/svg">
<g clip-path="url(#clip0_346_3310)">
<rect width="463" height="183" fill="white"/>
<path d="M6.30682 59H1.59801V44.4545H6.45597C7.88116 44.4545 9.10511 44.7457 10.1278 45.3281C11.1506 45.9058 11.9342 46.7367 12.4787 47.821C13.0279 48.9006 13.3026 50.1955 13.3026 51.706C13.3026 53.2211 13.0256 54.5232 12.4716 55.6122C11.9223 56.7012 11.1269 57.5393 10.0852 58.1264C9.04356 58.7088 7.78409 59 6.30682 59ZM3.79261 57.0824H6.18608C7.29403 57.0824 8.21496 56.8741 8.94886 56.4574C9.68277 56.036 10.232 55.4276 10.5966 54.6321C10.9612 53.8319 11.1435 52.8565 11.1435 51.706C11.1435 50.5649 10.9612 49.5966 10.5966 48.8011C10.2367 48.0057 9.69934 47.402 8.98438 46.9901C8.26941 46.5781 7.38163 46.3722 6.32102 46.3722H3.79261V57.0824ZM20.5629 59.2202C19.488 59.2202 18.5624 58.9905 17.7859 58.5312C17.0141 58.0672 16.4175 57.4162 15.9961 56.5781C15.5794 55.7353 15.3711 54.7481 15.3711 53.6165C15.3711 52.4991 15.5794 51.5142 15.9961 50.6619C16.4175 49.8097 17.0046 49.1444 17.7575 48.6662C18.515 48.188 19.4004 47.9489 20.4137 47.9489C21.0292 47.9489 21.6258 48.0507 22.2035 48.2543C22.7811 48.4579 23.2996 48.7775 23.7589 49.2131C24.2182 49.6487 24.5804 50.2145 24.8455 50.9105C25.1107 51.6018 25.2433 52.4422 25.2433 53.4318V54.1847H16.5714V52.5938H23.1623C23.1623 52.035 23.0487 51.5402 22.8214 51.1094C22.5941 50.6738 22.2745 50.3305 21.8626 50.0795C21.4554 49.8286 20.9772 49.7031 20.4279 49.7031C19.8313 49.7031 19.3105 49.8499 18.8654 50.1435C18.4251 50.4323 18.0842 50.8111 17.8427 51.2798C17.6059 51.7438 17.4876 52.2481 17.4876 52.7926V54.0355C17.4876 54.7647 17.6154 55.3849 17.8711 55.8963C18.1315 56.4077 18.4937 56.7983 18.9577 57.0682C19.4218 57.3333 19.9639 57.4659 20.5842 57.4659C20.9866 57.4659 21.3536 57.4091 21.685 57.2955C22.0165 57.1771 22.3029 57.0019 22.5444 56.7699C22.7859 56.5379 22.9705 56.2514 23.0984 55.9105L25.1083 56.2727C24.9473 56.8646 24.6585 57.383 24.2418 57.8281C23.8299 58.2685 23.3114 58.6117 22.6864 58.858C22.0662 59.0994 21.3583 59.2202 20.5629 59.2202ZM35.7741 50.7543L33.8494 51.0952C33.7689 50.849 33.6411 50.6146 33.4659 50.392C33.2955 50.1695 33.0634 49.9872 32.7699 49.8452C32.4763 49.7031 32.1094 49.6321 31.669 49.6321C31.0677 49.6321 30.5658 49.767 30.1634 50.0369C29.7609 50.3021 29.5597 50.6454 29.5597 51.0668C29.5597 51.4313 29.6946 51.7249 29.9645 51.9474C30.2344 52.17 30.67 52.3523 31.2713 52.4943L33.0043 52.892C34.008 53.1241 34.7562 53.4815 35.2486 53.9645C35.741 54.4474 35.9872 55.0748 35.9872 55.8466C35.9872 56.5 35.7978 57.0824 35.419 57.5938C35.045 58.1004 34.5218 58.4981 33.8494 58.7869C33.1818 59.0758 32.4077 59.2202 31.527 59.2202C30.3054 59.2202 29.3087 58.9598 28.5369 58.4389C27.7652 57.9134 27.2917 57.1676 27.1165 56.2017L29.169 55.8892C29.2969 56.4242 29.5597 56.8291 29.9574 57.1037C30.3551 57.3736 30.8736 57.5085 31.5128 57.5085C32.2088 57.5085 32.7652 57.3641 33.1818 57.0753C33.5985 56.7817 33.8068 56.4242 33.8068 56.0028C33.8068 55.6619 33.679 55.3755 33.4233 55.1435C33.1723 54.9115 32.7865 54.7363 32.2656 54.6179L30.419 54.2131C29.401 53.9811 28.6482 53.6117 28.1605 53.1051C27.6776 52.5985 27.4361 51.9569 27.4361 51.1804C27.4361 50.5365 27.616 49.973 27.9759 49.4901C28.3357 49.0071 28.8329 48.6307 29.4673 48.3608C30.1018 48.0862 30.8286 47.9489 31.6477 47.9489C32.8267 47.9489 33.7547 48.2045 34.4318 48.7159C35.1089 49.2225 35.5563 49.902 35.7741 50.7543ZM43.4144 48.0909V49.7955H37.4556V48.0909H43.4144ZM39.0536 45.4773H41.1772V55.7969C41.1772 56.2088 41.2388 56.5189 41.3619 56.7273C41.485 56.9309 41.6436 57.0705 41.8377 57.1463C42.0366 57.2173 42.252 57.2528 42.484 57.2528C42.6545 57.2528 42.8036 57.241 42.9315 57.2173C43.0593 57.1937 43.1587 57.1747 43.2298 57.1605L43.6133 58.9148C43.4902 58.9621 43.315 59.0095 43.0877 59.0568C42.8604 59.1089 42.5763 59.1373 42.2354 59.142C41.6767 59.1515 41.1559 59.0521 40.6729 58.8438C40.19 58.6354 39.7994 58.3134 39.5011 57.8778C39.2028 57.4422 39.0536 56.8954 39.0536 56.2372V45.4773ZM45.7635 59V48.0909H47.8871V59H45.7635ZM46.8359 46.4077C46.4666 46.4077 46.1494 46.2846 45.8842 46.0384C45.6238 45.7874 45.4936 45.4891 45.4936 45.1435C45.4936 44.7931 45.6238 44.4948 45.8842 44.2486C46.1494 43.9976 46.4666 43.8722 46.8359 43.8722C47.2053 43.8722 47.5201 43.9976 47.7805 44.2486C48.0457 44.4948 48.1783 44.7931 48.1783 45.1435C48.1783 45.4891 48.0457 45.7874 47.7805 46.0384C47.5201 46.2846 47.2053 46.4077 46.8359 46.4077ZM52.8675 52.5227V59H50.744V48.0909H52.7823V49.8665H52.9173C53.1682 49.2888 53.5612 48.8248 54.0962 48.4744C54.636 48.1241 55.3155 47.9489 56.1346 47.9489C56.878 47.9489 57.529 48.1051 58.0877 48.4176C58.6464 48.7254 59.0797 49.1847 59.3874 49.7955C59.6952 50.4062 59.8491 51.1615 59.8491 52.0611V59H57.7255V52.3168C57.7255 51.526 57.5195 50.9081 57.1076 50.4631C56.6957 50.0133 56.1299 49.7884 55.4102 49.7884C54.9177 49.7884 54.4798 49.8949 54.0962 50.108C53.7174 50.321 53.4168 50.6335 53.1942 51.0455C52.9764 51.4527 52.8675 51.9451 52.8675 52.5227ZM65.8718 59.2415C65.1805 59.2415 64.5555 59.1136 63.9968 58.858C63.4381 58.5975 62.9954 58.2211 62.6687 57.7287C62.3467 57.2363 62.1857 56.6326 62.1857 55.9176C62.1857 55.3021 62.3041 54.7955 62.5408 54.3977C62.7776 54 63.0972 53.6851 63.4996 53.4531C63.9021 53.2211 64.3519 53.0459 64.8491 52.9276C65.3462 52.8092 65.8529 52.7192 66.369 52.6577C67.0224 52.5819 67.5527 52.5204 67.9599 52.473C68.3671 52.4209 68.663 52.3381 68.8477 52.2244C69.0323 52.1108 69.1246 51.9261 69.1246 51.6705V51.6207C69.1246 51.0005 68.9495 50.5199 68.5991 50.179C68.2534 49.8381 67.7373 49.6676 67.0508 49.6676C66.3358 49.6676 65.7724 49.8262 65.3604 50.1435C64.9532 50.456 64.6715 50.804 64.5153 51.1875L62.5195 50.733C62.7563 50.0701 63.1019 49.535 63.5565 49.1278C64.0157 48.7159 64.5437 48.4176 65.1403 48.233C65.7369 48.0436 66.3642 47.9489 67.0224 47.9489C67.458 47.9489 67.9196 48.0009 68.4073 48.1051C68.8997 48.2045 69.359 48.3892 69.7852 48.6591C70.216 48.929 70.5688 49.3149 70.8434 49.8168C71.118 50.3139 71.2553 50.9602 71.2553 51.7557V59H69.1815V57.5085H69.0962C68.9589 57.7831 68.753 58.053 68.4783 58.3182C68.2037 58.5833 67.851 58.8035 67.4201 58.9787C66.9892 59.1539 66.4731 59.2415 65.8718 59.2415ZM66.3335 57.5369C66.9206 57.5369 67.4225 57.4209 67.8391 57.1889C68.2605 56.9569 68.5801 56.6539 68.7979 56.2798C69.0205 55.901 69.1317 55.4962 69.1317 55.0653V53.6591C69.056 53.7348 68.9092 53.8059 68.6914 53.8722C68.4783 53.9337 68.2345 53.9882 67.9599 54.0355C67.6853 54.0781 67.4177 54.1184 67.1573 54.1562C66.8969 54.1894 66.6791 54.2178 66.5039 54.2415C66.092 54.2936 65.7156 54.3812 65.3746 54.5043C65.0385 54.6274 64.7686 54.8049 64.565 55.0369C64.3661 55.2642 64.2667 55.5672 64.2667 55.946C64.2667 56.4716 64.4608 56.8693 64.8491 57.1392C65.2373 57.4044 65.7321 57.5369 66.3335 57.5369ZM79.1761 48.0909V49.7955H73.2173V48.0909H79.1761ZM74.8153 45.4773H76.9389V55.7969C76.9389 56.2088 77.0005 56.5189 77.1236 56.7273C77.2467 56.9309 77.4053 57.0705 77.5994 57.1463C77.7983 57.2173 78.0137 57.2528 78.2457 57.2528C78.4162 57.2528 78.5653 57.241 78.6932 57.2173C78.821 57.1937 78.9205 57.1747 78.9915 57.1605L79.375 58.9148C79.2519 58.9621 79.0767 59.0095 78.8494 59.0568C78.6222 59.1089 78.3381 59.1373 77.9972 59.142C77.4384 59.1515 76.9176 59.0521 76.4347 58.8438C75.9517 58.6354 75.5611 58.3134 75.2628 57.8778C74.9645 57.4422 74.8153 56.8954 74.8153 56.2372V45.4773ZM81.5252 59V48.0909H83.6488V59H81.5252ZM82.5977 46.4077C82.2283 46.4077 81.9111 46.2846 81.646 46.0384C81.3855 45.7874 81.2553 45.4891 81.2553 45.1435C81.2553 44.7931 81.3855 44.4948 81.646 44.2486C81.9111 43.9976 82.2283 43.8722 82.5977 43.8722C82.967 43.8722 83.2818 43.9976 83.5423 44.2486C83.8074 44.4948 83.94 44.7931 83.94 45.1435C83.94 45.4891 83.8074 45.7874 83.5423 46.0384C83.2818 46.2846 82.967 46.4077 82.5977 46.4077ZM91.1009 59.2202C90.0781 59.2202 89.1856 58.9858 88.4233 58.517C87.661 58.0483 87.0691 57.3925 86.6477 56.5497C86.2263 55.7069 86.0156 54.7221 86.0156 53.5952C86.0156 52.4635 86.2263 51.474 86.6477 50.6264C87.0691 49.7789 87.661 49.1207 88.4233 48.652C89.1856 48.1832 90.0781 47.9489 91.1009 47.9489C92.1236 47.9489 93.0161 48.1832 93.7784 48.652C94.5407 49.1207 95.1326 49.7789 95.554 50.6264C95.9754 51.474 96.1861 52.4635 96.1861 53.5952C96.1861 54.7221 95.9754 55.7069 95.554 56.5497C95.1326 57.3925 94.5407 58.0483 93.7784 58.517C93.0161 58.9858 92.1236 59.2202 91.1009 59.2202ZM91.108 57.4375C91.7708 57.4375 92.3201 57.2623 92.7557 56.9119C93.1913 56.5616 93.5133 56.0952 93.7216 55.5128C93.9347 54.9304 94.0412 54.2888 94.0412 53.5881C94.0412 52.892 93.9347 52.2528 93.7216 51.6705C93.5133 51.0833 93.1913 50.6122 92.7557 50.2571C92.3201 49.902 91.7708 49.7244 91.108 49.7244C90.4403 49.7244 89.8864 49.902 89.446 50.2571C89.0104 50.6122 88.6861 51.0833 88.473 51.6705C88.2647 52.2528 88.1605 52.892 88.1605 53.5881C88.1605 54.2888 88.2647 54.9304 88.473 55.5128C88.6861 56.0952 89.0104 56.5616 89.446 56.9119C89.8864 57.2623 90.4403 57.4375 91.108 57.4375ZM100.68 52.5227V59H98.5565V48.0909H100.595V49.8665H100.73C100.981 49.2888 101.374 48.8248 101.909 48.4744C102.449 48.1241 103.128 47.9489 103.947 47.9489C104.69 47.9489 105.342 48.1051 105.9 48.4176C106.459 48.7254 106.892 49.1847 107.2 49.7955C107.508 50.4062 107.662 51.1615 107.662 52.0611V59H105.538V52.3168C105.538 51.526 105.332 50.9081 104.92 50.4631C104.508 50.0133 103.942 49.7884 103.223 49.7884C102.73 49.7884 102.292 49.8949 101.909 50.108C101.53 50.321 101.229 50.6335 101.007 51.0455C100.789 51.4527 100.68 51.9451 100.68 52.5227ZM111.909 59.1349C111.52 59.1349 111.187 58.9976 110.907 58.723C110.628 58.4437 110.488 58.1075 110.488 57.7145C110.488 57.3262 110.628 56.9948 110.907 56.7202C111.187 56.4408 111.52 56.3011 111.909 56.3011C112.297 56.3011 112.631 56.4408 112.91 56.7202C113.19 56.9948 113.329 57.3262 113.329 57.7145C113.329 57.9749 113.263 58.214 113.13 58.4318C113.002 58.6449 112.832 58.8153 112.619 58.9432C112.406 59.071 112.169 59.1349 111.909 59.1349ZM111.909 51.1946C111.52 51.1946 111.187 51.0549 110.907 50.7756C110.628 50.4962 110.488 50.1624 110.488 49.7741C110.488 49.3859 110.628 49.0545 110.907 48.7798C111.187 48.5005 111.52 48.3608 111.909 48.3608C112.297 48.3608 112.631 48.5005 112.91 48.7798C113.19 49.0545 113.329 49.3859 113.329 49.7741C113.329 50.0346 113.263 50.2737 113.13 50.4915C113.002 50.7045 112.832 50.875 112.619 51.0028C112.406 51.1307 112.169 51.1946 111.909 51.1946ZM144.038 59H141.708L146.942 44.4545H149.478L154.712 59H152.383L148.271 47.0966H148.157L144.038 59ZM144.428 53.304H151.985V55.1506H144.428V53.304ZM209.743 59V44.4545H215.069C216.101 44.4545 216.956 44.625 217.633 44.9659C218.31 45.3021 218.817 45.759 219.153 46.3366C219.489 46.9096 219.657 47.5559 219.657 48.2756C219.657 48.8816 219.546 49.393 219.324 49.8097C219.101 50.2216 218.803 50.553 218.429 50.804C218.059 51.0502 217.652 51.2301 217.207 51.3438V51.4858C217.69 51.5095 218.161 51.6657 218.62 51.9545C219.084 52.2386 219.468 52.6435 219.771 53.169C220.074 53.6946 220.225 54.3338 220.225 55.0866C220.225 55.83 220.05 56.4976 219.7 57.0895C219.354 57.6766 218.819 58.143 218.095 58.4886C217.37 58.8295 216.445 59 215.318 59H209.743ZM211.937 57.1179H215.105C216.156 57.1179 216.909 56.9143 217.363 56.5071C217.818 56.0999 218.045 55.5909 218.045 54.9801C218.045 54.5208 217.929 54.0994 217.697 53.7159C217.465 53.3324 217.134 53.027 216.703 52.7997C216.277 52.5724 215.77 52.4588 215.183 52.4588H211.937V57.1179ZM211.937 50.7472H214.877C215.37 50.7472 215.813 50.6525 216.206 50.4631C216.603 50.2737 216.918 50.0085 217.15 49.6676C217.387 49.322 217.505 48.9148 217.505 48.446C217.505 47.8447 217.295 47.3404 216.873 46.9332C216.452 46.526 215.806 46.3224 214.934 46.3224H211.937V50.7472Z" fill="#375666"/>
<path d="M164 50C173.404 50 182.762 51 192.151 51C194.44 51 196.763 50.6667 199 50.6667" stroke="#EE964B" stroke-width="3" stroke-linecap="round"/>
<path d="M190 43C193.401 43.5356 197.884 46.2687 200.281 48.6667C203.511 51.8974 194.893 57.2298 193.427 60" stroke="#EE964B" stroke-width="3" stroke-linecap="round"/>
<path d="M9.53125 166.276C9.45549 165.603 9.14299 165.082 8.59375 164.713C8.04451 164.339 7.35322 164.152 6.51989 164.152C5.9233 164.152 5.4072 164.247 4.97159 164.436C4.53598 164.621 4.19744 164.876 3.95597 165.203C3.71922 165.525 3.60085 165.892 3.60085 166.304C3.60085 166.65 3.68134 166.948 3.84233 167.199C4.00805 167.45 4.22349 167.661 4.48864 167.831C4.75852 167.997 5.04735 168.136 5.35511 168.25C5.66288 168.359 5.95881 168.449 6.2429 168.52L7.66335 168.889C8.12737 169.003 8.60322 169.157 9.09091 169.351C9.5786 169.545 10.0308 169.801 10.4474 170.118C10.8641 170.435 11.2003 170.828 11.456 171.297C11.7164 171.766 11.8466 172.327 11.8466 172.98C11.8466 173.804 11.6335 174.536 11.2074 175.175C10.786 175.814 10.1728 176.318 9.3679 176.688C8.56771 177.057 7.59943 177.241 6.46307 177.241C5.37405 177.241 4.43182 177.069 3.63636 176.723C2.84091 176.377 2.21828 175.887 1.76847 175.253C1.31866 174.614 1.07008 173.856 1.02273 172.98H3.22443C3.26705 173.506 3.4375 173.944 3.7358 174.294C4.03883 174.64 4.42472 174.898 4.89347 175.068C5.36695 175.234 5.88542 175.317 6.44886 175.317C7.06913 175.317 7.62074 175.22 8.10369 175.026C8.59138 174.827 8.97491 174.552 9.25426 174.202C9.53362 173.847 9.6733 173.432 9.6733 172.959C9.6733 172.528 9.55019 172.175 9.30398 171.901C9.0625 171.626 8.73343 171.399 8.31676 171.219C7.90483 171.039 7.43845 170.88 6.91761 170.743L5.19886 170.274C4.03409 169.957 3.1108 169.491 2.42898 168.875C1.75189 168.259 1.41335 167.445 1.41335 166.432C1.41335 165.594 1.64063 164.862 2.09517 164.237C2.54972 163.612 3.16525 163.127 3.94176 162.781C4.71828 162.431 5.59422 162.256 6.5696 162.256C7.55445 162.256 8.4233 162.429 9.17614 162.774C9.93371 163.12 10.5303 163.596 10.9659 164.202C11.4015 164.803 11.6288 165.494 11.6477 166.276H9.53125ZM14.2987 181.091V166.091H16.3725V167.859H16.5501C16.6732 167.632 16.8507 167.369 17.0827 167.071C17.3147 166.773 17.6367 166.512 18.0487 166.29C18.4606 166.062 19.0051 165.949 19.6822 165.949C20.5629 165.949 21.3488 166.171 22.0401 166.616C22.7314 167.062 23.2736 167.703 23.6665 168.541C24.0643 169.379 24.2631 170.388 24.2631 171.567C24.2631 172.746 24.0666 173.757 23.6737 174.599C23.2807 175.437 22.7409 176.084 22.0543 176.538C21.3678 176.988 20.5842 177.213 19.7035 177.213C19.0406 177.213 18.4985 177.102 18.0771 176.879C17.6604 176.657 17.3337 176.396 17.0969 176.098C16.8602 175.8 16.6779 175.535 16.5501 175.303H16.4222V181.091H14.2987ZM16.3796 171.545C16.3796 172.312 16.4909 172.985 16.7134 173.562C16.936 174.14 17.2579 174.592 17.6793 174.919C18.1007 175.241 18.6168 175.402 19.2276 175.402C19.8621 175.402 20.3924 175.234 20.8185 174.898C21.2447 174.557 21.5666 174.095 21.7844 173.513C22.007 172.93 22.1183 172.275 22.1183 171.545C22.1183 170.826 22.0094 170.179 21.7915 169.607C21.5785 169.034 21.2565 168.581 20.8256 168.25C20.3995 167.919 19.8668 167.753 19.2276 167.753C18.6121 167.753 18.0913 167.911 17.6651 168.229C17.2437 168.546 16.9241 168.989 16.7063 169.557C16.4885 170.125 16.3796 170.788 16.3796 171.545ZM31.3441 177.22C30.2693 177.22 29.3436 176.991 28.5671 176.531C27.7953 176.067 27.1987 175.416 26.7773 174.578C26.3607 173.735 26.1523 172.748 26.1523 171.616C26.1523 170.499 26.3607 169.514 26.7773 168.662C27.1987 167.81 27.7859 167.144 28.5387 166.666C29.2963 166.188 30.1817 165.949 31.195 165.949C31.8105 165.949 32.4071 166.051 32.9847 166.254C33.5624 166.458 34.0808 166.777 34.5401 167.213C34.9994 167.649 35.3616 168.214 35.6268 168.911C35.8919 169.602 36.0245 170.442 36.0245 171.432V172.185H27.3526V170.594H33.9435C33.9435 170.035 33.8299 169.54 33.6026 169.109C33.3754 168.674 33.0558 168.33 32.6438 168.08C32.2366 167.829 31.7584 167.703 31.2092 167.703C30.6126 167.703 30.0917 167.85 29.6467 168.143C29.2063 168.432 28.8654 168.811 28.6239 169.28C28.3872 169.744 28.2688 170.248 28.2688 170.793V172.036C28.2688 172.765 28.3967 173.385 28.6523 173.896C28.9128 174.408 29.275 174.798 29.739 175.068C30.203 175.333 30.7451 175.466 31.3654 175.466C31.7679 175.466 32.1348 175.409 32.4663 175.295C32.7977 175.177 33.0842 175.002 33.3256 174.77C33.5671 174.538 33.7518 174.251 33.8796 173.911L35.8896 174.273C35.7286 174.865 35.4397 175.383 35.0231 175.828C34.6112 176.268 34.0927 176.612 33.4677 176.858C32.8474 177.099 32.1396 177.22 31.3441 177.22ZM40.5043 170.523V177H38.3807V166.091H40.419V167.866H40.554C40.8049 167.289 41.1979 166.825 41.733 166.474C42.2727 166.124 42.9522 165.949 43.7713 165.949C44.5147 165.949 45.1657 166.105 45.7244 166.418C46.2831 166.725 46.7164 167.185 47.0241 167.795C47.3319 168.406 47.4858 169.161 47.4858 170.061V177H45.3622V170.317C45.3622 169.526 45.1563 168.908 44.7443 168.463C44.3324 168.013 43.7666 167.788 43.0469 167.788C42.5545 167.788 42.1165 167.895 41.733 168.108C41.3542 168.321 41.0535 168.634 40.831 169.045C40.6132 169.453 40.5043 169.945 40.5043 170.523ZM54.4176 177.213C53.5369 177.213 52.7509 176.988 52.0597 176.538C51.3731 176.084 50.8333 175.437 50.4403 174.599C50.0521 173.757 49.858 172.746 49.858 171.567C49.858 170.388 50.0545 169.379 50.4474 168.541C50.8452 167.703 51.3897 167.062 52.081 166.616C52.7723 166.171 53.5559 165.949 54.4318 165.949C55.1089 165.949 55.6534 166.062 56.0653 166.29C56.482 166.512 56.804 166.773 57.0312 167.071C57.2633 167.369 57.4432 167.632 57.571 167.859H57.6989V162.455H59.8224V177H57.7486V175.303H57.571C57.4432 175.535 57.2585 175.8 57.017 176.098C56.7803 176.396 56.4536 176.657 56.0369 176.879C55.6203 177.102 55.0805 177.213 54.4176 177.213ZM54.8864 175.402C55.4972 175.402 56.0133 175.241 56.4347 174.919C56.8608 174.592 57.1828 174.14 57.4006 173.562C57.6231 172.985 57.7344 172.312 57.7344 171.545C57.7344 170.788 57.6255 170.125 57.4077 169.557C57.1899 168.989 56.8703 168.546 56.4489 168.229C56.0275 167.911 55.5066 167.753 54.8864 167.753C54.2472 167.753 53.7145 167.919 53.2884 168.25C52.8622 168.581 52.5402 169.034 52.3224 169.607C52.1094 170.179 52.0028 170.826 52.0028 171.545C52.0028 172.275 52.1117 172.93 52.3295 173.513C52.5473 174.095 52.8693 174.557 53.2955 174.898C53.7263 175.234 54.2566 175.402 54.8864 175.402ZM62.8533 177V166.091H64.9769V177H62.8533ZM63.9258 164.408C63.5565 164.408 63.2392 164.285 62.9741 164.038C62.7137 163.787 62.5835 163.489 62.5835 163.143C62.5835 162.793 62.7137 162.495 62.9741 162.249C63.2392 161.998 63.5565 161.872 63.9258 161.872C64.2951 161.872 64.61 161.998 64.8704 162.249C65.1355 162.495 65.2681 162.793 65.2681 163.143C65.2681 163.489 65.1355 163.787 64.8704 164.038C64.61 164.285 64.2951 164.408 63.9258 164.408ZM69.9574 170.523V177H67.8338V166.091H69.8722V167.866H70.0071C70.258 167.289 70.651 166.825 71.1861 166.474C71.7259 166.124 72.4053 165.949 73.2244 165.949C73.9678 165.949 74.6188 166.105 75.1776 166.418C75.7363 166.725 76.1695 167.185 76.4773 167.795C76.785 168.406 76.9389 169.161 76.9389 170.061V177H74.8153V170.317C74.8153 169.526 74.6094 168.908 74.1974 168.463C73.7855 168.013 73.2197 167.788 72.5 167.788C72.0076 167.788 71.5696 167.895 71.1861 168.108C70.8073 168.321 70.5066 168.634 70.2841 169.045C70.0663 169.453 69.9574 169.945 69.9574 170.523ZM84.3608 181.318C83.4943 181.318 82.7486 181.205 82.1236 180.977C81.5033 180.75 80.9967 180.449 80.6037 180.075C80.2107 179.701 79.9171 179.292 79.723 178.847L81.5483 178.094C81.6761 178.302 81.8466 178.522 82.0597 178.754C82.2775 178.991 82.571 179.192 82.9403 179.358C83.3144 179.524 83.795 179.607 84.3821 179.607C85.187 179.607 85.8523 179.41 86.3778 179.017C86.9034 178.629 87.1662 178.009 87.1662 177.156V175.011H87.0312C86.9034 175.243 86.7188 175.501 86.4773 175.786C86.2405 176.07 85.9138 176.316 85.4972 176.524C85.0805 176.732 84.5384 176.837 83.8707 176.837C83.009 176.837 82.2325 176.635 81.5412 176.233C80.8546 175.826 80.3101 175.227 79.9077 174.436C79.5099 173.641 79.3111 172.663 79.3111 171.503C79.3111 170.343 79.5076 169.348 79.9006 168.52C80.2983 167.691 80.8428 167.057 81.5341 166.616C82.2254 166.171 83.009 165.949 83.8849 165.949C84.562 165.949 85.1089 166.062 85.5256 166.29C85.9422 166.512 86.2666 166.773 86.4986 167.071C86.7353 167.369 86.9176 167.632 87.0455 167.859H87.2017V166.091H89.2827V177.241C89.2827 178.179 89.0649 178.948 88.6293 179.55C88.1937 180.151 87.6042 180.596 86.8608 180.885C86.1222 181.174 85.2888 181.318 84.3608 181.318ZM84.3395 175.075C84.9503 175.075 85.4664 174.933 85.8878 174.649C86.3139 174.36 86.6359 173.948 86.8537 173.413C87.0762 172.874 87.1875 172.227 87.1875 171.474C87.1875 170.741 87.0786 170.094 86.8608 169.536C86.643 168.977 86.3234 168.541 85.902 168.229C85.4806 167.911 84.9598 167.753 84.3395 167.753C83.7003 167.753 83.1676 167.919 82.7415 168.25C82.3153 168.577 81.9934 169.022 81.7756 169.585C81.5625 170.149 81.456 170.778 81.456 171.474C81.456 172.189 81.5649 172.817 81.7827 173.357C82.0005 173.896 82.3224 174.318 82.7486 174.621C83.1795 174.924 83.7098 175.075 84.3395 175.075ZM97.5941 162.455H100.257L104.888 173.761H105.059L109.689 162.455H112.353V177H110.265V166.474H110.13L105.84 176.979H104.107L99.8171 166.467H99.6822V177H97.5941V162.455ZM120.075 177.22C119 177.22 118.074 176.991 117.298 176.531C116.526 176.067 115.929 175.416 115.508 174.578C115.091 173.735 114.883 172.748 114.883 171.616C114.883 170.499 115.091 169.514 115.508 168.662C115.929 167.81 116.516 167.144 117.269 166.666C118.027 166.188 118.912 165.949 119.925 165.949C120.541 165.949 121.138 166.051 121.715 166.254C122.293 166.458 122.811 166.777 123.271 167.213C123.73 167.649 124.092 168.214 124.357 168.911C124.622 169.602 124.755 170.442 124.755 171.432V172.185H116.083V170.594H122.674C122.674 170.035 122.56 169.54 122.333 169.109C122.106 168.674 121.786 168.33 121.374 168.08C120.967 167.829 120.489 167.703 119.94 167.703C119.343 167.703 118.822 167.85 118.377 168.143C117.937 168.432 117.596 168.811 117.354 169.28C117.118 169.744 116.999 170.248 116.999 170.793V172.036C116.999 172.765 117.127 173.385 117.383 173.896C117.643 174.408 118.005 174.798 118.469 175.068C118.933 175.333 119.476 175.466 120.096 175.466C120.498 175.466 120.865 175.409 121.197 175.295C121.528 175.177 121.815 175.002 122.056 174.77C122.298 174.538 122.482 174.251 122.61 173.911L124.62 174.273C124.459 174.865 124.17 175.383 123.754 175.828C123.342 176.268 122.823 176.612 122.198 176.858C121.578 177.099 120.87 177.22 120.075 177.22ZM130.286 177.241C129.595 177.241 128.97 177.114 128.411 176.858C127.852 176.598 127.409 176.221 127.083 175.729C126.761 175.236 126.6 174.633 126.6 173.918C126.6 173.302 126.718 172.795 126.955 172.398C127.192 172 127.511 171.685 127.914 171.453C128.316 171.221 128.766 171.046 129.263 170.928C129.76 170.809 130.267 170.719 130.783 170.658C131.436 170.582 131.967 170.52 132.374 170.473C132.781 170.421 133.077 170.338 133.262 170.224C133.446 170.111 133.539 169.926 133.539 169.67V169.621C133.539 169 133.364 168.52 133.013 168.179C132.667 167.838 132.151 167.668 131.465 167.668C130.75 167.668 130.186 167.826 129.775 168.143C129.367 168.456 129.086 168.804 128.929 169.188L126.934 168.733C127.17 168.07 127.516 167.535 127.971 167.128C128.43 166.716 128.958 166.418 129.554 166.233C130.151 166.044 130.778 165.949 131.436 165.949C131.872 165.949 132.334 166.001 132.821 166.105C133.314 166.205 133.773 166.389 134.199 166.659C134.63 166.929 134.983 167.315 135.257 167.817C135.532 168.314 135.669 168.96 135.669 169.756V177H133.596V175.509H133.51C133.373 175.783 133.167 176.053 132.892 176.318C132.618 176.583 132.265 176.804 131.834 176.979C131.403 177.154 130.887 177.241 130.286 177.241ZM130.748 175.537C131.335 175.537 131.837 175.421 132.253 175.189C132.675 174.957 132.994 174.654 133.212 174.28C133.435 173.901 133.546 173.496 133.546 173.065V171.659C133.47 171.735 133.323 171.806 133.105 171.872C132.892 171.934 132.649 171.988 132.374 172.036C132.099 172.078 131.832 172.118 131.571 172.156C131.311 172.189 131.093 172.218 130.918 172.241C130.506 172.294 130.13 172.381 129.789 172.504C129.453 172.627 129.183 172.805 128.979 173.037C128.78 173.264 128.681 173.567 128.681 173.946C128.681 174.472 128.875 174.869 129.263 175.139C129.651 175.404 130.146 175.537 130.748 175.537ZM140.621 170.523V177H138.498V166.091H140.536V167.866H140.671C140.922 167.289 141.315 166.825 141.85 166.474C142.39 166.124 143.069 165.949 143.888 165.949C144.632 165.949 145.283 166.105 145.842 166.418C146.4 166.725 146.834 167.185 147.141 167.795C147.449 168.406 147.603 169.161 147.603 170.061V177H145.479V170.317C145.479 169.526 145.273 168.908 144.862 168.463C144.45 168.013 143.884 167.788 143.164 167.788C142.672 167.788 142.234 167.895 141.85 168.108C141.471 168.321 141.171 168.634 140.948 169.045C140.73 169.453 140.621 169.945 140.621 170.523ZM150.451 177V166.091H152.575V177H150.451ZM151.523 164.408C151.154 164.408 150.837 164.285 150.572 164.038C150.311 163.787 150.181 163.489 150.181 163.143C150.181 162.793 150.311 162.495 150.572 162.249C150.837 161.998 151.154 161.872 151.523 161.872C151.893 161.872 152.208 161.998 152.468 162.249C152.733 162.495 152.866 162.793 152.866 163.143C152.866 163.489 152.733 163.787 152.468 164.038C152.208 164.285 151.893 164.408 151.523 164.408ZM157.555 170.523V177H155.431V166.091H157.47V167.866H157.605C157.856 167.289 158.249 166.825 158.784 166.474C159.324 166.124 160.003 165.949 160.822 165.949C161.565 165.949 162.217 166.105 162.775 166.418C163.334 166.725 163.767 167.185 164.075 167.795C164.383 168.406 164.537 169.161 164.537 170.061V177H162.413V170.317C162.413 169.526 162.207 168.908 161.795 168.463C161.383 168.013 160.817 167.788 160.098 167.788C159.605 167.788 159.167 167.895 158.784 168.108C158.405 168.321 158.104 168.634 157.882 169.045C157.664 169.453 157.555 169.945 157.555 170.523ZM171.958 181.318C171.092 181.318 170.346 181.205 169.721 180.977C169.101 180.75 168.594 180.449 168.201 180.075C167.808 179.701 167.515 179.292 167.321 178.847L169.146 178.094C169.274 178.302 169.444 178.522 169.657 178.754C169.875 178.991 170.169 179.192 170.538 179.358C170.912 179.524 171.393 179.607 171.98 179.607C172.785 179.607 173.45 179.41 173.975 179.017C174.501 178.629 174.764 178.009 174.764 177.156V175.011H174.629C174.501 175.243 174.316 175.501 174.075 175.786C173.838 176.07 173.511 176.316 173.095 176.524C172.678 176.732 172.136 176.837 171.468 176.837C170.607 176.837 169.83 176.635 169.139 176.233C168.452 175.826 167.908 175.227 167.505 174.436C167.108 173.641 166.909 172.663 166.909 171.503C166.909 170.343 167.105 169.348 167.498 168.52C167.896 167.691 168.44 167.057 169.132 166.616C169.823 166.171 170.607 165.949 171.483 165.949C172.16 165.949 172.707 166.062 173.123 166.29C173.54 166.512 173.864 166.773 174.096 167.071C174.333 167.369 174.515 167.632 174.643 167.859H174.799V166.091H176.88V177.241C176.88 178.179 176.663 178.948 176.227 179.55C175.791 180.151 175.202 180.596 174.458 180.885C173.72 181.174 172.886 181.318 171.958 181.318ZM171.937 175.075C172.548 175.075 173.064 174.933 173.485 174.649C173.912 174.36 174.234 173.948 174.451 173.413C174.674 172.874 174.785 172.227 174.785 171.474C174.785 170.741 174.676 170.094 174.458 169.536C174.241 168.977 173.921 168.541 173.5 168.229C173.078 167.911 172.557 167.753 171.937 167.753C171.298 167.753 170.765 167.919 170.339 168.25C169.913 168.577 169.591 169.022 169.373 169.585C169.16 170.149 169.054 170.778 169.054 171.474C169.054 172.189 169.163 172.817 169.38 173.357C169.598 173.896 169.92 174.318 170.346 174.621C170.777 174.924 171.307 175.075 171.937 175.075ZM184.92 166.091V167.795H178.755V166.091H184.92ZM180.446 177V164.827C180.446 164.145 180.595 163.579 180.893 163.129C181.191 162.675 181.587 162.336 182.079 162.114C182.572 161.886 183.107 161.773 183.684 161.773C184.11 161.773 184.475 161.808 184.778 161.879C185.081 161.946 185.306 162.007 185.453 162.064L184.956 163.783C184.856 163.754 184.728 163.721 184.572 163.683C184.416 163.641 184.226 163.619 184.004 163.619C183.488 163.619 183.118 163.747 182.896 164.003C182.678 164.259 182.569 164.628 182.569 165.111V177H180.446ZM194.022 172.476V166.091H196.152V177H194.064V175.111H193.951C193.7 175.693 193.297 176.179 192.743 176.567C192.194 176.95 191.51 177.142 190.691 177.142C189.99 177.142 189.37 176.988 188.83 176.68C188.295 176.368 187.873 175.906 187.566 175.295C187.263 174.685 187.111 173.929 187.111 173.03V166.091H189.235V172.774C189.235 173.518 189.441 174.109 189.853 174.55C190.265 174.99 190.8 175.21 191.458 175.21C191.855 175.21 192.251 175.111 192.644 174.912C193.042 174.713 193.371 174.412 193.631 174.01C193.896 173.607 194.026 173.096 194.022 172.476ZM201.129 162.455V177H199.006V162.455H201.129ZM208.732 164.344V162.455H219.989V164.344H215.451V177H213.263V164.344H208.732ZM222.306 177V166.091H224.43V177H222.306ZM223.379 164.408C223.01 164.408 222.692 164.285 222.427 164.038C222.167 163.787 222.037 163.489 222.037 163.143C222.037 162.793 222.167 162.495 222.427 162.249C222.692 161.998 223.01 161.872 223.379 161.872C223.748 161.872 224.063 161.998 224.324 162.249C224.589 162.495 224.721 162.793 224.721 163.143C224.721 163.489 224.589 163.787 224.324 164.038C224.063 164.285 223.748 164.408 223.379 164.408ZM227.287 177V166.091H229.325V167.866H229.46C229.688 167.265 230.059 166.796 230.575 166.46C231.091 166.119 231.709 165.949 232.429 165.949C233.158 165.949 233.769 166.119 234.261 166.46C234.759 166.801 235.125 167.27 235.362 167.866H235.476C235.736 167.284 236.151 166.82 236.719 166.474C237.287 166.124 237.964 165.949 238.75 165.949C239.74 165.949 240.547 166.259 241.172 166.879C241.802 167.5 242.116 168.435 242.116 169.685V177H239.993V169.884C239.993 169.145 239.792 168.61 239.389 168.278C238.987 167.947 238.506 167.781 237.947 167.781C237.256 167.781 236.719 167.994 236.335 168.42C235.952 168.842 235.76 169.384 235.76 170.047V177H233.643V169.749C233.643 169.157 233.459 168.681 233.089 168.321C232.72 167.961 232.24 167.781 231.648 167.781C231.245 167.781 230.874 167.888 230.533 168.101C230.196 168.309 229.924 168.6 229.716 168.974C229.512 169.348 229.411 169.782 229.411 170.274V177H227.287ZM249.664 177.22C248.59 177.22 247.664 176.991 246.887 176.531C246.116 176.067 245.519 175.416 245.098 174.578C244.681 173.735 244.473 172.748 244.473 171.616C244.473 170.499 244.681 169.514 245.098 168.662C245.519 167.81 246.106 167.144 246.859 166.666C247.617 166.188 248.502 165.949 249.515 165.949C250.131 165.949 250.727 166.051 251.305 166.254C251.883 166.458 252.401 166.777 252.86 167.213C253.32 167.649 253.682 168.214 253.947 168.911C254.212 169.602 254.345 170.442 254.345 171.432V172.185H245.673V170.594H252.264C252.264 170.035 252.15 169.54 251.923 169.109C251.696 168.674 251.376 168.33 250.964 168.08C250.557 167.829 250.079 167.703 249.529 167.703C248.933 167.703 248.412 167.85 247.967 168.143C247.527 168.432 247.186 168.811 246.944 169.28C246.708 169.744 246.589 170.248 246.589 170.793V172.036C246.589 172.765 246.717 173.385 246.973 173.896C247.233 174.408 247.595 174.798 248.059 175.068C248.523 175.333 249.065 175.466 249.686 175.466C250.088 175.466 250.455 175.409 250.787 175.295C251.118 175.177 251.404 175.002 251.646 174.77C251.887 174.538 252.072 174.251 252.2 173.911L254.21 174.273C254.049 174.865 253.76 175.383 253.343 175.828C252.931 176.268 252.413 176.612 251.788 176.858C251.168 177.099 250.46 177.22 249.664 177.22ZM258.1 177.135C257.712 177.135 257.378 176.998 257.099 176.723C256.819 176.444 256.68 176.107 256.68 175.714C256.68 175.326 256.819 174.995 257.099 174.72C257.378 174.441 257.712 174.301 258.1 174.301C258.488 174.301 258.822 174.441 259.102 174.72C259.381 174.995 259.521 175.326 259.521 175.714C259.521 175.975 259.454 176.214 259.322 176.432C259.194 176.645 259.023 176.815 258.81 176.943C258.597 177.071 258.361 177.135 258.1 177.135ZM258.1 169.195C257.712 169.195 257.378 169.055 257.099 168.776C256.819 168.496 256.68 168.162 256.68 167.774C256.68 167.386 256.819 167.054 257.099 166.78C257.378 166.5 257.712 166.361 258.1 166.361C258.488 166.361 258.822 166.5 259.102 166.78C259.381 167.054 259.521 167.386 259.521 167.774C259.521 168.035 259.454 168.274 259.322 168.491C259.194 168.705 259.023 168.875 258.81 169.003C258.597 169.131 258.361 169.195 258.1 169.195ZM295.522 177H293.192L298.427 162.455H300.962L306.197 177H303.867L299.755 165.097H299.641L295.522 177ZM295.913 171.304H303.469V173.151H295.913V171.304ZM451.207 177V162.455H456.534C457.566 162.455 458.421 162.625 459.098 162.966C459.775 163.302 460.282 163.759 460.618 164.337C460.954 164.91 461.122 165.556 461.122 166.276C461.122 166.882 461.011 167.393 460.788 167.81C460.566 168.222 460.268 168.553 459.893 168.804C459.524 169.05 459.117 169.23 458.672 169.344V169.486C459.155 169.509 459.626 169.666 460.085 169.955C460.549 170.239 460.933 170.643 461.236 171.169C461.539 171.695 461.69 172.334 461.69 173.087C461.69 173.83 461.515 174.498 461.165 175.089C460.819 175.677 460.284 176.143 459.56 176.489C458.835 176.83 457.91 177 456.783 177H451.207ZM453.402 175.118H456.57C457.621 175.118 458.374 174.914 458.828 174.507C459.283 174.1 459.51 173.591 459.51 172.98C459.51 172.521 459.394 172.099 459.162 171.716C458.93 171.332 458.598 171.027 458.168 170.8C457.741 170.572 457.235 170.459 456.648 170.459H453.402V175.118ZM453.402 168.747H456.342C456.835 168.747 457.277 168.652 457.67 168.463C458.068 168.274 458.383 168.009 458.615 167.668C458.852 167.322 458.97 166.915 458.97 166.446C458.97 165.845 458.759 165.34 458.338 164.933C457.917 164.526 457.27 164.322 456.399 164.322H453.402V168.747Z" fill="#375666"/>
<path d="M14.0341 13.7273C14.0341 15.2614 13.7571 16.5871 13.2031 17.7045C12.6491 18.822 11.8892 19.6837 10.9233 20.2898C9.95739 20.8958 8.85417 21.1989 7.61364 21.1989C6.37311 21.1989 5.26989 20.8958 4.30398 20.2898C3.33807 19.6837 2.57813 18.822 2.02415 17.7045C1.47017 16.5871 1.19318 15.2614 1.19318 13.7273C1.19318 12.1932 1.47017 10.8674 2.02415 9.75C2.57813 8.63258 3.33807 7.77083 4.30398 7.16477C5.26989 6.55871 6.37311 6.25568 7.61364 6.25568C8.85417 6.25568 9.95739 6.55871 10.9233 7.16477C11.8892 7.77083 12.6491 8.63258 13.2031 9.75C13.7571 10.8674 14.0341 12.1932 14.0341 13.7273ZM12.3295 13.7273C12.3295 12.4678 12.1188 11.4048 11.6974 10.5384C11.2808 9.67188 10.715 9.0161 10 8.57102C9.28977 8.12595 8.49432 7.90341 7.61364 7.90341C6.73295 7.90341 5.93513 8.12595 5.22017 8.57102C4.50994 9.0161 3.94413 9.67188 3.52273 10.5384C3.10606 11.4048 2.89773 12.4678 2.89773 13.7273C2.89773 14.9867 3.10606 16.0497 3.52273 16.9162C3.94413 17.7827 4.50994 18.4384 5.22017 18.8835C5.93513 19.3286 6.73295 19.5511 7.61364 19.5511C8.49432 19.5511 9.28977 19.3286 10 18.8835C10.715 18.4384 11.2808 17.7827 11.6974 16.9162C12.1188 16.0497 12.3295 14.9867 12.3295 13.7273ZM18.4446 6.45455V21H16.7685V6.45455H18.4446ZM25.6339 21.2273C24.7248 21.2273 23.9222 20.9976 23.2262 20.5384C22.5302 20.0743 21.9857 19.4209 21.5927 18.5781C21.1997 17.7306 21.0032 16.7292 21.0032 15.5739C21.0032 14.428 21.1997 13.4337 21.5927 12.5909C21.9857 11.7481 22.5326 11.0971 23.2333 10.6378C23.9341 10.1785 24.7437 9.94886 25.6623 9.94886C26.3725 9.94886 26.9336 10.0672 27.3455 10.304C27.7622 10.536 28.0794 10.8011 28.2972 11.0994C28.5198 11.393 28.6926 11.6345 28.8157 11.8239H28.9577V6.45455H30.6339V21H29.0146V19.3239H28.8157C28.6926 19.5227 28.5174 19.7737 28.2901 20.0767C28.0629 20.375 27.7385 20.6425 27.3171 20.8793C26.8957 21.1113 26.3346 21.2273 25.6339 21.2273ZM25.8612 19.7216C26.5335 19.7216 27.1017 19.5464 27.5657 19.196C28.0297 18.8409 28.3825 18.3509 28.6239 17.7259C28.8654 17.0961 28.9862 16.3693 28.9862 15.5455C28.9862 14.7311 28.8678 14.0185 28.631 13.4077C28.3943 12.7921 28.0439 12.3139 27.5799 11.973C27.1159 11.6274 26.543 11.4545 25.8612 11.4545C25.1509 11.4545 24.5591 11.6368 24.0856 12.0014C23.6168 12.3613 23.2641 12.8513 23.0273 13.4716C22.7953 14.0871 22.6793 14.7784 22.6793 15.5455C22.6793 16.322 22.7977 17.0275 23.0344 17.6619C23.2759 18.2917 23.631 18.7936 24.0998 19.1676C24.5733 19.5369 25.1604 19.7216 25.8612 19.7216ZM39.7887 6.45455H41.891L46.8342 18.5284H47.0046L51.9478 6.45455H54.0501V21H52.4023V9.94886H52.2603L47.7148 21H46.1239L41.5785 9.94886H41.4364V21H39.7887V6.45455ZM61.9283 21.2273C60.8771 21.2273 59.9704 20.9953 59.2081 20.5312C58.4505 20.0625 57.8658 19.4091 57.4538 18.571C57.0466 17.7282 56.843 16.7481 56.843 15.6307C56.843 14.5133 57.0466 13.5284 57.4538 12.6761C57.8658 11.8191 58.4387 11.1515 59.1726 10.6733C59.9112 10.1903 60.773 9.94886 61.7578 9.94886C62.326 9.94886 62.8871 10.0436 63.4411 10.233C63.995 10.4223 64.4993 10.7301 64.9538 11.1562C65.4084 11.5777 65.7706 12.1364 66.0405 12.8324C66.3104 13.5284 66.4453 14.3854 66.4453 15.4034V16.1136H58.0362V14.6648H64.7408C64.7408 14.0492 64.6177 13.5 64.3714 13.017C64.13 12.5341 63.7843 12.1529 63.3345 11.8736C62.8894 11.5942 62.3639 11.4545 61.7578 11.4545C61.0902 11.4545 60.5125 11.6203 60.0249 11.9517C59.5419 12.2784 59.1702 12.7045 58.9098 13.2301C58.6494 13.7557 58.5192 14.3191 58.5192 14.9205V15.8864C58.5192 16.7102 58.6612 17.4086 58.9453 17.9815C59.2341 18.5497 59.6342 18.983 60.1456 19.2812C60.657 19.5748 61.2512 19.7216 61.9283 19.7216C62.3686 19.7216 62.7663 19.66 63.1214 19.5369C63.4813 19.4091 63.7914 19.2197 64.0518 18.9688C64.3123 18.7131 64.5135 18.3958 64.6555 18.017L66.2749 18.4716C66.1044 19.0208 65.8179 19.5038 65.4155 19.9205C65.013 20.3324 64.5159 20.6544 63.924 20.8864C63.3321 21.1136 62.6669 21.2273 61.9283 21.2273ZM72.2053 21.2557C71.514 21.2557 70.8866 21.1255 70.3232 20.8651C69.7597 20.5999 69.3123 20.2188 68.9808 19.7216C68.6494 19.2197 68.4837 18.6136 68.4837 17.9034C68.4837 17.2784 68.6068 16.7718 68.853 16.3835C69.0992 15.9905 69.4283 15.6828 69.8402 15.4602C70.2521 15.2377 70.7067 15.072 71.2038 14.9631C71.7057 14.8494 72.21 14.7595 72.7166 14.6932C73.3795 14.608 73.9169 14.544 74.3288 14.5014C74.7455 14.4541 75.0485 14.3759 75.2379 14.267C75.4321 14.1581 75.5291 13.9687 75.5291 13.6989V13.642C75.5291 12.9413 75.3374 12.3968 74.9538 12.0085C74.575 11.6203 73.9998 11.4261 73.228 11.4261C72.4278 11.4261 71.8004 11.6013 71.3459 11.9517C70.8913 12.3021 70.5717 12.6761 70.3871 13.0739L68.7962 12.5057C69.0803 11.8428 69.459 11.3267 69.9325 10.9574C70.4107 10.5833 70.9316 10.3229 71.495 10.1761C72.0632 10.0246 72.6219 9.94886 73.1712 9.94886C73.5215 9.94886 73.924 9.99148 74.3786 10.0767C74.8378 10.1572 75.2805 10.3253 75.7067 10.581C76.1375 10.8366 76.495 11.2225 76.7791 11.7386C77.0632 12.2547 77.2053 12.946 77.2053 13.8125V21H75.5291V19.5227H75.4439C75.3303 19.7595 75.1409 20.0128 74.8757 20.2827C74.6106 20.5526 74.2578 20.7822 73.8175 20.9716C73.3771 21.161 72.8397 21.2557 72.2053 21.2557ZM72.4609 19.75C73.1238 19.75 73.6825 19.6198 74.1371 19.3594C74.5964 19.099 74.942 18.7628 75.174 18.3509C75.4107 17.9389 75.5291 17.5057 75.5291 17.0511V15.517C75.4581 15.6023 75.3018 15.6804 75.0604 15.7514C74.8236 15.8177 74.549 15.8769 74.2365 15.929C73.9287 15.9763 73.6281 16.0189 73.3345 16.0568C73.0457 16.09 72.8113 16.1184 72.6314 16.142C72.1958 16.1989 71.7886 16.2912 71.4098 16.419C71.0357 16.5421 70.7327 16.7292 70.5007 16.9801C70.2734 17.2263 70.1598 17.5625 70.1598 17.9886C70.1598 18.571 70.3752 19.0114 70.8061 19.3097C71.2417 19.6032 71.7933 19.75 72.4609 19.75ZM81.9407 14.4375V21H80.2646V10.0909H81.8839V11.7955H82.0259C82.2816 11.2415 82.6699 10.7964 83.1907 10.4602C83.7115 10.1193 84.3839 9.94886 85.2077 9.94886C85.9464 9.94886 86.5927 10.1004 87.1467 10.4034C87.7006 10.7017 88.1315 11.1562 88.4393 11.767C88.747 12.3731 88.9009 13.1402 88.9009 14.0682V21H87.2248V14.1818C87.2248 13.3248 87.0022 12.6572 86.5572 12.179C86.1121 11.696 85.5013 11.4545 84.7248 11.4545C84.1897 11.4545 83.7115 11.5705 83.2901 11.8026C82.8735 12.0346 82.5444 12.3731 82.3029 12.8182C82.0614 13.2633 81.9407 13.803 81.9407 14.4375ZM91.9638 21V10.0909H93.6399V21H91.9638ZM92.8161 8.27273C92.4893 8.27273 92.2076 8.16146 91.9709 7.93892C91.7389 7.71638 91.6229 7.44886 91.6229 7.13636C91.6229 6.82386 91.7389 6.55634 91.9709 6.33381C92.2076 6.11127 92.4893 6 92.8161 6C93.1428 6 93.4221 6.11127 93.6541 6.33381C93.8909 6.55634 94.0092 6.82386 94.0092 7.13636C94.0092 7.44886 93.8909 7.71638 93.6541 7.93892C93.4221 8.16146 93.1428 8.27273 92.8161 8.27273ZM98.386 14.4375V21H96.7099V10.0909H98.3292V11.7955H98.4712C98.7269 11.2415 99.1152 10.7964 99.636 10.4602C100.157 10.1193 100.829 9.94886 101.653 9.94886C102.392 9.94886 103.038 10.1004 103.592 10.4034C104.146 10.7017 104.577 11.1562 104.885 11.767C105.192 12.3731 105.346 13.1402 105.346 14.0682V21H103.67V14.1818C103.67 13.3248 103.448 12.6572 103.002 12.179C102.557 11.696 101.947 11.4545 101.17 11.4545C100.635 11.4545 100.157 11.5705 99.7354 11.8026C99.3188 12.0346 98.9897 12.3731 98.7482 12.8182C98.5067 13.2633 98.386 13.803 98.386 14.4375ZM112.812 25.3182C112.003 25.3182 111.307 25.214 110.724 25.0057C110.142 24.8021 109.657 24.5322 109.268 24.196C108.885 23.8646 108.58 23.5095 108.352 23.1307L109.688 22.1932C109.839 22.392 110.031 22.6193 110.263 22.875C110.495 23.1354 110.812 23.3603 111.214 23.5497C111.622 23.7438 112.154 23.8409 112.812 23.8409C113.693 23.8409 114.42 23.6278 114.993 23.2017C115.566 22.7756 115.852 22.108 115.852 21.1989V18.983H115.71C115.587 19.1818 115.412 19.428 115.185 19.7216C114.962 20.0104 114.64 20.2685 114.219 20.4957C113.802 20.7183 113.239 20.8295 112.528 20.8295C111.648 20.8295 110.857 20.6212 110.156 20.2045C109.46 19.7879 108.909 19.1818 108.501 18.3864C108.099 17.5909 107.898 16.625 107.898 15.4886C107.898 14.3712 108.094 13.3982 108.487 12.5696C108.88 11.7363 109.427 11.0923 110.128 10.6378C110.829 10.1785 111.638 9.94886 112.557 9.94886C113.267 9.94886 113.83 10.0672 114.247 10.304C114.669 10.536 114.991 10.8011 115.213 11.0994C115.44 11.393 115.616 11.6345 115.739 11.8239H115.909V10.0909H117.528V21.3125C117.528 22.25 117.315 23.0123 116.889 23.5994C116.468 24.1913 115.9 24.6245 115.185 24.8991C114.474 25.1785 113.684 25.3182 112.812 25.3182ZM112.756 19.3239C113.428 19.3239 113.996 19.17 114.46 18.8622C114.924 18.5545 115.277 18.1117 115.518 17.5341C115.76 16.9564 115.881 16.2652 115.881 15.4602C115.881 14.6742 115.762 13.9806 115.526 13.3793C115.289 12.7779 114.938 12.3068 114.474 11.9659C114.01 11.625 113.438 11.4545 112.756 11.4545C112.045 11.4545 111.454 11.6345 110.98 11.9943C110.511 12.3542 110.159 12.8371 109.922 13.4432C109.69 14.0492 109.574 14.7216 109.574 15.4602C109.574 16.2178 109.692 16.8878 109.929 17.4702C110.17 18.0478 110.526 18.5024 110.994 18.8338C111.468 19.1605 112.055 19.3239 112.756 19.3239Z" fill="#6D8997"/>
<path d="M13.2955 122.455V137H11.5909L3.66477 125.58H3.52273V137H1.76136V122.455H3.46591L11.4205 133.903H11.5625V122.455H13.2955ZM21.1665 137.227C20.1154 137.227 19.2087 136.995 18.4464 136.531C17.6888 136.062 17.104 135.409 16.6921 134.571C16.2849 133.728 16.0813 132.748 16.0813 131.631C16.0813 130.513 16.2849 129.528 16.6921 128.676C17.104 127.819 17.677 127.152 18.4109 126.673C19.1495 126.19 20.0112 125.949 20.9961 125.949C21.5643 125.949 22.1254 126.044 22.6793 126.233C23.2333 126.422 23.7376 126.73 24.1921 127.156C24.6467 127.578 25.0089 128.136 25.2788 128.832C25.5487 129.528 25.6836 130.385 25.6836 131.403V132.114H17.2745V130.665H23.979C23.979 130.049 23.8559 129.5 23.6097 129.017C23.3683 128.534 23.0226 128.153 22.5728 127.874C22.1277 127.594 21.6022 127.455 20.9961 127.455C20.3285 127.455 19.7508 127.62 19.2631 127.952C18.7802 128.278 18.4085 128.705 18.1481 129.23C17.8877 129.756 17.7575 130.319 17.7575 130.92V131.886C17.7575 132.71 17.8995 133.409 18.1836 133.982C18.4724 134.55 18.8725 134.983 19.3839 135.281C19.8952 135.575 20.4895 135.722 21.1665 135.722C21.6069 135.722 22.0046 135.66 22.3597 135.537C22.7196 135.409 23.0297 135.22 23.2901 134.969C23.5505 134.713 23.7518 134.396 23.8938 134.017L25.5131 134.472C25.3427 135.021 25.0562 135.504 24.6538 135.92C24.2513 136.332 23.7541 136.654 23.1623 136.886C22.5704 137.114 21.9052 137.227 21.1665 137.227ZM30.7049 137L27.381 126.091H29.1424L31.5004 134.443H31.614L33.9435 126.091H35.7333L38.0344 134.415H38.1481L40.506 126.091H42.2674L38.9435 137H37.2958L34.9094 128.619H34.739L32.3526 137H30.7049ZM50.3356 122.455H52.4379L57.381 134.528H57.5515L62.4947 122.455H64.5969V137H62.9492V125.949H62.8072L58.2617 137H56.6708L52.1254 125.949H51.9833V137H50.3356V122.455ZM72.4751 137.227C71.424 137.227 70.5173 136.995 69.755 136.531C68.9974 136.062 68.4126 135.409 68.0007 134.571C67.5935 133.728 67.3899 132.748 67.3899 131.631C67.3899 130.513 67.5935 129.528 68.0007 128.676C68.4126 127.819 68.9856 127.152 69.7195 126.673C70.4581 126.19 71.3198 125.949 72.3047 125.949C72.8729 125.949 73.4339 126.044 73.9879 126.233C74.5419 126.422 75.0462 126.73 75.5007 127.156C75.9553 127.578 76.3175 128.136 76.5874 128.832C76.8572 129.528 76.9922 130.385 76.9922 131.403V132.114H68.5831V130.665H75.2876C75.2876 130.049 75.1645 129.5 74.9183 129.017C74.6768 128.534 74.3312 128.153 73.8814 127.874C73.4363 127.594 72.9107 127.455 72.3047 127.455C71.6371 127.455 71.0594 127.62 70.5717 127.952C70.0888 128.278 69.7171 128.705 69.4567 129.23C69.1963 129.756 69.0661 130.319 69.0661 130.92V131.886C69.0661 132.71 69.2081 133.409 69.4922 133.982C69.781 134.55 70.1811 134.983 70.6925 135.281C71.2038 135.575 71.7981 135.722 72.4751 135.722C72.9155 135.722 73.3132 135.66 73.6683 135.537C74.0282 135.409 74.3383 135.22 74.5987 134.969C74.8591 134.713 75.0604 134.396 75.2024 134.017L76.8217 134.472C76.6513 135.021 76.3648 135.504 75.9624 135.92C75.5599 136.332 75.0627 136.654 74.4709 136.886C73.879 137.114 73.2138 137.227 72.4751 137.227ZM82.7521 137.256C82.0608 137.256 81.4335 137.125 80.87 136.865C80.3066 136.6 79.8591 136.219 79.5277 135.722C79.1963 135.22 79.0305 134.614 79.0305 133.903C79.0305 133.278 79.1536 132.772 79.3999 132.384C79.6461 131.991 79.9751 131.683 80.3871 131.46C80.799 131.238 81.2536 131.072 81.7507 130.963C82.2526 130.849 82.7569 130.759 83.2635 130.693C83.9264 130.608 84.4638 130.544 84.8757 130.501C85.2924 130.454 85.5954 130.376 85.7848 130.267C85.9789 130.158 86.076 129.969 86.076 129.699V129.642C86.076 128.941 85.8842 128.397 85.5007 128.009C85.1219 127.62 84.5466 127.426 83.7749 127.426C82.9747 127.426 82.3473 127.601 81.8928 127.952C81.4382 128.302 81.1186 128.676 80.9339 129.074L79.343 128.506C79.6271 127.843 80.0059 127.327 80.4794 126.957C80.9576 126.583 81.4785 126.323 82.0419 126.176C82.6101 126.025 83.1688 125.949 83.718 125.949C84.0684 125.949 84.4709 125.991 84.9254 126.077C85.3847 126.157 85.8274 126.325 86.2536 126.581C86.6844 126.837 87.0419 127.223 87.326 127.739C87.6101 128.255 87.7521 128.946 87.7521 129.812V137H86.076V135.523H85.9908C85.8771 135.759 85.6877 136.013 85.4226 136.283C85.1574 136.553 84.8047 136.782 84.3643 136.972C83.924 137.161 83.3866 137.256 82.7521 137.256ZM83.0078 135.75C83.6707 135.75 84.2294 135.62 84.6839 135.359C85.1432 135.099 85.4889 134.763 85.7209 134.351C85.9576 133.939 86.076 133.506 86.076 133.051V131.517C86.005 131.602 85.8487 131.68 85.6072 131.751C85.3705 131.818 85.0959 131.877 84.7834 131.929C84.4756 131.976 84.175 132.019 83.8814 132.057C83.5926 132.09 83.3582 132.118 83.1783 132.142C82.7427 132.199 82.3355 132.291 81.9567 132.419C81.5826 132.542 81.2796 132.729 81.0476 132.98C80.8203 133.226 80.7067 133.562 80.7067 133.989C80.7067 134.571 80.9221 135.011 81.353 135.31C81.7886 135.603 82.3402 135.75 83.0078 135.75ZM92.4876 130.438V137H90.8114V126.091H92.4308V127.795H92.5728C92.8285 127.241 93.2167 126.796 93.7376 126.46C94.2584 126.119 94.9308 125.949 95.7546 125.949C96.4933 125.949 97.1396 126.1 97.6935 126.403C98.2475 126.702 98.6784 127.156 98.9862 127.767C99.2939 128.373 99.4478 129.14 99.4478 130.068V137H97.7717V130.182C97.7717 129.325 97.5491 128.657 97.104 128.179C96.659 127.696 96.0482 127.455 95.2717 127.455C94.7366 127.455 94.2584 127.571 93.837 127.803C93.4203 128.035 93.0913 128.373 92.8498 128.818C92.6083 129.263 92.4876 129.803 92.4876 130.438ZM102.511 137V126.091H104.187V137H102.511ZM103.363 124.273C103.036 124.273 102.754 124.161 102.518 123.939C102.286 123.716 102.17 123.449 102.17 123.136C102.17 122.824 102.286 122.556 102.518 122.334C102.754 122.111 103.036 122 103.363 122C103.69 122 103.969 122.111 104.201 122.334C104.438 122.556 104.556 122.824 104.556 123.136C104.556 123.449 104.438 123.716 104.201 123.939C103.969 124.161 103.69 124.273 103.363 124.273ZM108.933 130.438V137H107.257V126.091H108.876V127.795H109.018C109.274 127.241 109.662 126.796 110.183 126.46C110.704 126.119 111.376 125.949 112.2 125.949C112.939 125.949 113.585 126.1 114.139 126.403C114.693 126.702 115.124 127.156 115.431 127.767C115.739 128.373 115.893 129.14 115.893 130.068V137H114.217V130.182C114.217 129.325 113.994 128.657 113.549 128.179C113.104 127.696 112.493 127.455 111.717 127.455C111.182 127.455 110.704 127.571 110.282 127.803C109.866 128.035 109.537 128.373 109.295 128.818C109.054 129.263 108.933 129.803 108.933 130.438ZM123.359 141.318C122.55 141.318 121.854 141.214 121.271 141.006C120.689 140.802 120.204 140.532 119.815 140.196C119.432 139.865 119.126 139.509 118.899 139.131L120.234 138.193C120.386 138.392 120.578 138.619 120.81 138.875C121.042 139.135 121.359 139.36 121.761 139.55C122.169 139.744 122.701 139.841 123.359 139.841C124.24 139.841 124.967 139.628 125.54 139.202C126.113 138.776 126.399 138.108 126.399 137.199V134.983H126.257C126.134 135.182 125.959 135.428 125.732 135.722C125.509 136.01 125.187 136.268 124.766 136.496C124.349 136.718 123.786 136.83 123.075 136.83C122.195 136.83 121.404 136.621 120.703 136.205C120.007 135.788 119.455 135.182 119.048 134.386C118.646 133.591 118.445 132.625 118.445 131.489C118.445 130.371 118.641 129.398 119.034 128.57C119.427 127.736 119.974 127.092 120.675 126.638C121.375 126.179 122.185 125.949 123.104 125.949C123.814 125.949 124.377 126.067 124.794 126.304C125.215 126.536 125.537 126.801 125.76 127.099C125.987 127.393 126.162 127.634 126.286 127.824H126.456V126.091H128.075V137.312C128.075 138.25 127.862 139.012 127.436 139.599C127.015 140.191 126.446 140.625 125.732 140.899C125.021 141.179 124.231 141.318 123.359 141.318ZM123.303 135.324C123.975 135.324 124.543 135.17 125.007 134.862C125.471 134.554 125.824 134.112 126.065 133.534C126.307 132.956 126.428 132.265 126.428 131.46C126.428 130.674 126.309 129.981 126.072 129.379C125.836 128.778 125.485 128.307 125.021 127.966C124.557 127.625 123.984 127.455 123.303 127.455C122.592 127.455 122 127.634 121.527 127.994C121.058 128.354 120.705 128.837 120.469 129.443C120.237 130.049 120.121 130.722 120.121 131.46C120.121 132.218 120.239 132.888 120.476 133.47C120.717 134.048 121.072 134.502 121.541 134.834C122.015 135.161 122.602 135.324 123.303 135.324Z" fill="#6D8997"/>
<path d="M322 171.653C338.526 172.37 355.716 177.946 372.2 173.747C381.729 171.32 386.894 164.839 390.586 156.383C392.87 151.153 394.614 146.071 394.764 140.349C394.834 137.704 394.859 135.317 392.508 133.608C390.241 131.961 386.677 131.101 384.018 132.343C380.8 133.846 379.021 137.748 378.143 140.916C377.9 141.792 377.717 144.191 377.405 142.159C376.526 136.438 371.751 128.971 364.85 130.118C361.502 130.674 360.547 134.096 360.605 136.968C360.746 143.967 366.644 149.293 371.217 154.048C386.439 169.877 412.934 183.996 435 173.223" stroke="#EE964B" stroke-width="3" stroke-linecap="round"/>
</g>
<defs>
<clipPath id="clip0_346_3310">
<rect width="463" height="183" fill="white"/>
</clipPath>
</defs>
</svg>
